<?xml version="1.0" encoding="UTF-8" standalone="no"?>
<svg
   xmlns:dc="http://purl.org/dc/elements/1.1/"
   xmlns:cc="http://creativecommons.org/ns#"
   xmlns:rdf="http://www.w3.org/1999/02/22-rdf-syntax-ns#"
   xmlns:svg="http://www.w3.org/2000/svg"
   xmlns="http://www.w3.org/2000/svg"
   xmlns:xlink="http://www.w3.org/1999/xlink"
   xmlns:sodipodi="http://sodipodi.sourceforge.net/DTD/sodipodi-0.dtd"
   xmlns:inkscape="http://www.inkscape.org/namespaces/inkscape"
   version="1.0"
   width="300"
   height="200"
   preserveAspectRatio="xMidYMid meet"
   id="svg9281"
   sodipodi:version="0.32"
   inkscape:version="0.46"
   sodipodi:docname="pf12.svg"
   inkscape:output_extension="org.inkscape.output.svg.inkscape">
  <defs
     id="defs9290">
    <inkscape:perspective
       sodipodi:type="inkscape:persp3d"
       inkscape:vp_x="0 : 208.75 : 1"
       inkscape:vp_y="0 : 1000 : 0"
       inkscape:vp_z="585 : 208.75 : 1"
       inkscape:persp3d-origin="292.5 : 139.16667 : 1"
       id="perspective9292" />
    <filter
       inkscape:collect="always"
       id="filter10000"
       x="-0.0559026"
       width="1.1118052"
       y="-0.10111712"
       height="1.2022341">
      <feGaussianBlur
         inkscape:collect="always"
         stdDeviation="13.449062"
         id="feGaussianBlur10002" />
    </filter>
    <inkscape:perspective
       sodipodi:type="inkscape:persp3d"
       inkscape:vp_x="0 : 450 : 1"
       inkscape:vp_y="0 : 1000 : 0"
       inkscape:vp_z="310 : 450 : 1"
       inkscape:persp3d-origin="155 : 270 : 1"
       id="perspective5850" />
    <radialGradient
       r="191.62799"
       fy="146.02631"
       fx="192.00943"
       cy="146.02631"
       cx="192.00943"
       gradientTransform="matrix(1,0,0,0.7512998,0,36.316769)"
       gradientUnits="userSpaceOnUse"
       id="radialGradient2430"
       xlink:href="#linearGradient29444"
       inkscape:collect="always" />
    <radialGradient
       r="191.62799"
       fy="146.02631"
       fx="192.00943"
       cy="146.02631"
       cx="192.00943"
       gradientTransform="matrix(1,0,0,0.7512998,0,36.316769)"
       gradientUnits="userSpaceOnUse"
       id="radialGradient2414"
       xlink:href="#linearGradient29444"
       inkscape:collect="always" />
    <radialGradient
       r="191.62799"
       fy="146.02631"
       fx="192.00943"
       cy="146.02631"
       cx="192.00943"
       gradientTransform="matrix(1,0,0,0.7512998,0,36.316769)"
       gradientUnits="userSpaceOnUse"
       id="radialGradient2528"
       xlink:href="#linearGradient29444"
       inkscape:collect="always" />
    <radialGradient
       r="191.62799"
       fy="146.02631"
       fx="192.00943"
       cy="146.02631"
       cx="192.00943"
       gradientTransform="matrix(1,0,0,0.7512998,0,36.316769)"
       gradientUnits="userSpaceOnUse"
       id="radialGradient2519"
       xlink:href="#linearGradient29444"
       inkscape:collect="always" />
    <radialGradient
       r="191.62799"
       fy="146.02631"
       fx="192.00943"
       cy="146.02631"
       cx="192.00943"
       gradientTransform="matrix(1,0,0,0.7512998,0,36.316769)"
       gradientUnits="userSpaceOnUse"
       id="radialGradient29617"
       xlink:href="#linearGradient29444"
       inkscape:collect="always" />
    <radialGradient
       gradientUnits="userSpaceOnUse"
       gradientTransform="matrix(1,0,0,0.7512998,0,36.316769)"
       r="191.62799"
       fy="146.02631"
       fx="192.00943"
       cy="146.02631"
       cx="192.00943"
       id="radialGradient29452"
       xlink:href="#linearGradient29444"
       inkscape:collect="always" />
    <inkscape:perspective
       id="perspective28801"
       inkscape:persp3d-origin="191.875 : 270 : 1"
       inkscape:vp_z="383.75 : 405 : 1"
       inkscape:vp_y="0 : 1000 : 0"
       inkscape:vp_x="0 : 405 : 1"
       sodipodi:type="inkscape:persp3d" />
    <linearGradient
       id="linearGradient29444"
       inkscape:collect="always">
      <stop
         id="stop29446"
         offset="0"
         style="stop-color:#00b819;stop-opacity:1;" />
      <stop
         id="stop29448"
         offset="1"
         style="stop-color:#00b819;stop-opacity:0;" />
    </linearGradient>
    <inkscape:perspective
       sodipodi:type="inkscape:persp3d"
       inkscape:vp_x="0 : 450 : 1"
       inkscape:vp_y="0 : 1000 : 0"
       inkscape:vp_z="310 : 450 : 1"
       inkscape:persp3d-origin="155 : 270 : 1"
       id="perspective3256" />
    <radialGradient
       r="191.62799"
       fy="146.02631"
       fx="192.00943"
       cy="146.02631"
       cx="192.00943"
       gradientTransform="matrix(1,0,0,0.7512998,0,36.316769)"
       gradientUnits="userSpaceOnUse"
       id="radialGradient3254"
       xlink:href="#linearGradient29444"
       inkscape:collect="always" />
    <radialGradient
       r="191.62799"
       fy="146.02631"
       fx="192.00943"
       cy="146.02631"
       cx="192.00943"
       gradientTransform="matrix(1,0,0,0.7512998,0,36.316769)"
       gradientUnits="userSpaceOnUse"
       id="radialGradient3252"
       xlink:href="#linearGradient29444"
       inkscape:collect="always" />
    <radialGradient
       r="191.62799"
       fy="146.02631"
       fx="192.00943"
       cy="146.02631"
       cx="192.00943"
       gradientTransform="matrix(1,0,0,0.7512998,0,36.316769)"
       gradientUnits="userSpaceOnUse"
       id="radialGradient3250"
       xlink:href="#linearGradient29444"
       inkscape:collect="always" />
    <radialGradient
       r="191.62799"
       fy="146.02631"
       fx="192.00943"
       cy="146.02631"
       cx="192.00943"
       gradientTransform="matrix(1,0,0,0.7512998,0,36.316769)"
       gradientUnits="userSpaceOnUse"
       id="radialGradient3248"
       xlink:href="#linearGradient29444"
       inkscape:collect="always" />
    <radialGradient
       gradientUnits="userSpaceOnUse"
       gradientTransform="matrix(1,0,0,0.7512998,0,36.316769)"
       r="191.62799"
       fy="146.02631"
       fx="192.00943"
       cy="146.02631"
       cx="192.00943"
       id="radialGradient3246"
       xlink:href="#linearGradient29444"
       inkscape:collect="always" />
    <inkscape:perspective
       id="perspective3244"
       inkscape:persp3d-origin="191.875 : 270 : 1"
       inkscape:vp_z="383.75 : 405 : 1"
       inkscape:vp_y="0 : 1000 : 0"
       inkscape:vp_x="0 : 405 : 1"
       sodipodi:type="inkscape:persp3d" />
  </defs>
  <sodipodi:namedview
     inkscape:window-height="750"
     inkscape:window-width="1264"
     inkscape:pageshadow="2"
     inkscape:pageopacity="0.0"
     guidetolerance="10.0"
     gridtolerance="10.0"
     objecttolerance="10.0"
     borderopacity="1.0"
     bordercolor="#666666"
     pagecolor="#ffffff"
     id="base"
     showgrid="false"
     inkscape:zoom="1.3150978"
     inkscape:cx="61.249944"
     inkscape:cy="35.645194"
     inkscape:window-x="8"
     inkscape:window-y="22"
     inkscape:current-layer="svg9281" />
  <metadata
     id="metadata9283">
Created by potrace 1.8, written by Peter Selinger 2001-2007
<rdf:RDF>
  <cc:Work
     rdf:about="">
    <dc:format>image/svg+xml</dc:format>
    <dc:type
       rdf:resource="http://purl.org/dc/dcmitype/StillImage" />
  </cc:Work>
</rdf:RDF>
</metadata>
  <g
     id="PF12">
    <g
       id="agrupamentoPF12">
      <g
         id="agrupamentoCopaPF12">
        <g
           transform="matrix(5.4080198e-2,0,0,-9.0355719e-2,-4.93959,31.403072)"
           id="copaPF12"
           style="opacity:1;fill:#002200;fill-opacity:1;stroke:none;stroke-width:0;stroke-miterlimit:4;stroke-dasharray:none;stroke-opacity:1">
          <path
             d="M 214,339 C 211,333 218,315 230,298 C 261,255 247,252 213,294 C 183,333 166,339 156,315 C 153,307 155,300 161,300 C 167,300 168,296 165,290 C 162,285 165,280 172,280 C 181,280 181,277 170,270 C 157,262 157,260 171,260 C 190,260 223,226 214,217 C 210,213 194,222 178,235 C 147,262 106,268 94,248 C 90,242 92,234 98,232 C 105,230 108,224 105,219 C 101,214 107,213 116,217 C 130,222 132,220 127,206 C 122,195 124,191 132,196 C 139,201 141,198 137,188 C 134,178 137,173 148,174 C 158,174 164,169 162,160 C 160,152 161,148 165,152 C 169,156 178,154 184,147 C 194,138 189,131 161,117 C 126,98 110,83 110,68 C 110,63 205,60 320,60 C 493,60 530,62 530,74 C 530,88 467,106 452,96 C 448,93 438,95 430,100 C 418,107 421,111 440,118 C 456,124 469,124 478,117 C 487,110 489,111 484,124 C 476,145 489,145 507,123 C 515,113 519,111 515,118 C 511,126 518,130 539,130 C 578,130 578,144 540,167 C 524,176 510,189 510,195 C 510,200 506,199 501,192 C 495,181 490,182 476,195 C 467,204 460,207 460,201 C 460,195 449,188 435,184 C 421,181 403,169 396,158 C 388,147 379,143 376,148 C 369,159 435,221 445,212 C 448,209 448,214 444,224 C 439,237 440,241 448,236 C 456,231 458,235 453,246 C 449,257 451,261 457,257 C 463,253 465,260 462,275 C 459,294 452,299 430,297 C 414,296 402,291 403,285 C 404,280 399,276 393,278 C 386,279 381,274 383,268 C 384,261 377,256 368,256 C 358,257 354,252 357,244 C 360,235 355,230 345,230 C 333,230 329,236 333,250 C 336,261 333,268 326,267 C 320,266 316,271 318,278 C 319,284 314,289 308,288 C 301,286 296,291 298,298 C 299,306 296,309 289,304 C 280,299 279,302 283,313 C 287,325 285,327 273,323 C 261,318 258,321 262,331 C 269,349 225,356 214,339 z M 320,233 C 332,203 341,204 381,240 C 418,273 450,294 450,285 C 450,268 414,214 389,193 C 373,179 360,162 360,154 C 360,132 391,124 401,143 C 413,164 468,191 476,179 C 479,174 489,170 498,170 C 507,170 524,162 535,154 C 554,139 554,138 521,142 C 489,147 429,132 413,116 C 402,105 438,81 458,87 C 468,89 486,87 500,81 C 518,74 467,71 321,71 C 143,70 119,72 130,85 C 136,93 157,105 176,112 C 195,118 210,128 210,133 C 210,138 194,158 175,177 C 156,196 140,216 140,221 C 140,226 134,230 126,230 C 118,230 108,235 105,240 C 93,259 137,250 173,226 C 201,206 211,204 219,214 C 227,224 225,234 212,251 C 168,308 172,321 219,270 C 257,228 272,218 281,227 C 290,236 285,248 261,278 C 244,300 230,324 230,331 C 230,348 308,263 320,233 z M 276,233 C 269,226 250,240 250,252 C 250,258 256,258 265,250 C 274,243 278,235 276,233 z"
             id="path9287"
             style="fill:#002200;fill-opacity:1;stroke:none;stroke-width:0;stroke-miterlimit:4;stroke-dasharray:none;stroke-opacity:1" />
        </g>
        <path
           style="fill:#004800;fill-opacity:1;fill-rule:evenodd;stroke:#0d5800;stroke-width:10.54485703;stroke-linecap:butt;stroke-linejoin:miter;stroke-miterlimit:4;stroke-dasharray:none;stroke-opacity:1;filter:url(#filter10000)"
           d="M -19.905864,315.85904 C -21.165156,303.67644 8.2202504,315.85903 20.004261,315.85903 C 30.999392,315.85903 40.469431,314.04494 50.843902,314.04494 C 62.29788,314.04494 71.633338,315.16058 81.683544,317.67313 C 93.001405,320.5026 102.24734,321.30132 114.33728,321.30132 C 130.56659,321.30132 134.90901,328.55771 148.80512,328.55771 C 160.31659,328.55771 170.95525,329.27427 179.64476,324.92952 C 183.4489,323.02745 208.40438,328.55771 215.92669,328.55771 C 227.87736,328.55771 234.81879,323.11542 246.76633,323.11542 C 256.61135,323.11542 269.24098,321.02417 277.60597,323.11542 C 285.21419,325.01747 296.46891,324.92952 306.63152,324.92952 C 319.8187,324.92952 332.36722,326.74361 344.72755,326.74361 C 354.95546,326.74361 361.81733,330.37181 373.75309,330.37181 C 387.03755,330.37181 392.71334,322.19082 406.40683,324.92952 C 415.75373,326.7989 427.68018,324.92952 437.24647,324.92952 C 444.94203,324.92952 457.10532,317.69237 466.27201,315.85903 C 485.80026,311.95339 468.96551,305.85385 460.82973,297.71807 C 457.70515,294.59349 434.91082,297.71807 429.99008,297.71807 C 419.7102,297.71807 409.43032,297.71807 399.15044,297.71807 C 388.18039,297.71807 377.61817,297.83651 370.1249,294.08988 C 359.4434,288.74913 352.57704,283.76362 350.16983,274.13481 C 348.45949,267.29343 362.00335,266.40396 368.3108,263.25023 C 377.3729,258.71918 385.39648,258.23006 395.52225,254.17975 C 404.05285,250.76751 417.4414,255.16179 422.7337,257.80794 C 434.73366,263.80793 429.99008,255.36372 429.99008,241.48108 C 429.99008,231.02057 443.61837,234.45709 449.94515,236.03879 C 458.9559,238.29147 462.61021,243.22794 466.27201,250.55156 C 471.11928,260.2461 480.26726,244.78513 486.22708,243.29517 C 496.29071,240.77926 506.66973,239.66698 517.06672,239.66698 C 531.04238,239.66698 501.46961,218.2627 500.73985,217.89782 C 491.81696,213.43637 483.40657,216.89141 477.15659,210.64143 C 470.77471,204.25955 466.17087,199.55456 462.64382,192.50047 C 458.70631,184.62544 446.05102,199.75685 437.24647,199.75685 C 420.93268,199.75685 426.59415,188.87228 411.84912,188.87228 C 398.86284,188.87228 395.67547,188.71904 390.07996,194.31456 C 383.1401,201.25441 372.61703,207.47124 364.68261,207.01324 C 360.30571,206.76059 350.82778,221.52601 344.72755,221.52601 C 340.86472,221.52601 330.91243,238.4111 324.77248,241.48108 C 313.93618,246.89923 312.97238,252.81494 301.18923,246.92337 C 290.48611,241.57181 290.30465,239.09252 290.30465,225.15421 C 290.30465,212.42143 292.13518,206.98585 297.56103,197.94276 C 301.84415,190.80423 311.26986,189.00278 315.702,181.61589 C 320.78279,173.14791 330.41485,164.68544 339.28526,158.03263 C 347.68259,151.73463 348.38769,144.41892 359.24032,141.70576 C 371.65271,138.60267 381.00948,150.5342 381.00948,138.07757 C 381.00948,119.1702 385.62119,115.84958 388.26586,99.981544 C 389.02901,95.402638 407.37614,89.370426 390.07996,76.398288 C 378.88969,68.005589 374.26502,72.087521 368.3108,80.026481 C 363.34038,86.653706 347.77991,84.230507 342.91345,89.096964 C 334.98147,97.028941 343.73299,106.74065 326.58658,98.167447 C 319.98455,94.866434 321.26919,116.30841 313.8879,116.30841 C 308.07457,116.30841 295.74694,122.08654 295.74694,129.00709 C 295.74694,140.6811 285.56486,143.92896 281.23417,152.59034 C 276.46342,162.13184 256.32951,153.86692 252.20862,150.77625 C 242.26739,143.32033 241.68489,148.59145 237.69585,132.63528 C 234.60024,120.25285 231.71429,118.00818 224.99717,109.05203 C 218.63012,100.56263 214.79144,99.298856 208.6703,89.096964 C 204.49221,82.133477 195.60908,85.832678 192.34343,72.770095 C 188.59067,57.759036 182.58473,65.513709 170.57428,65.513709 C 162.43888,65.513709 161.80093,50.394152 154.24741,47.372743 C 144.37997,43.425767 143.80293,38.68868 141.54873,27.417681 C 139.76774,18.512714 125.74033,22.299299 119.77957,23.789488 C 106.86289,27.018657 113.49134,42.174894 116.15138,52.815033 C 117.75224,59.218472 139.17295,57.262982 141.54873,69.141902 C 142.89743,75.885394 151.54491,88.51713 156.0615,94.539254 C 160.9624,101.07378 165.50934,105.70685 172.38837,110.86612 C 183.29955,119.04951 184.84334,128.7093 179.64476,141.70576 C 175.29389,152.58293 162.68793,139.57669 159.6897,138.07757 C 150.19499,133.33022 147.27024,131.51923 143.36283,121.7507 C 140.11805,113.63876 131.00086,107.23793 121.59367,107.23793 C 114.64777,107.23793 107.96986,93.614121 105.2668,90.911061 C 97.684006,83.328268 92.505641,79.963999 87.125833,74.584192 C 79.018904,66.477263 77.710285,61.54045 68.984868,52.815033 C 56.700426,40.530591 58.100288,62.832374 58.100288,69.141902 C 58.100288,78.760007 44.49333,79.118199 56.286192,90.911061 C 64.093696,98.718565 73.225552,95.140056 56.286192,103.60974 C 49.509247,106.99821 70.17977,109.9482 76.241254,114.49432 C 84.841407,120.94443 95.157,128.2276 103.4527,134.44938 C 113.64994,142.09731 100.94667,155.78832 98.010413,161.66083 C 92.195123,173.29141 80.942753,157.84744 74.427157,156.21854 C 66.165802,154.1532 59.947955,147.16484 52.657999,143.51986 C 43.247417,138.81457 40.832565,133.30712 30.88884,130.82119 C 23.811619,129.05188 14.202616,120.66398 9.1196813,118.12251 C -0.026074645,113.54963 -11.403983,114.3806 -19.905864,112.68022 C -34.99432,109.66253 -37.875958,116.08058 -43.489119,123.5648 C -51.945563,134.84006 -36.989739,143.14136 -32.60454,145.33396 C -24.419484,149.42649 -18.759869,145.33396 -5.3930912,145.33396 C 8.0400349,145.33396 -4.8039455,164.52926 12.747874,168.91721 C 21.721803,171.16069 11.649346,189.58784 18.190164,196.12866 C 18.898978,196.83748 42.902794,190.00165 50.843902,197.94276 C 64.023936,211.12279 46.63444,213.68836 45.401613,212.45553 C 37.448041,204.50196 63.614622,225.66176 72.613061,232.41059 C 82.840313,240.08103 72.652876,254.17975 63.542578,254.17975 C 50.598732,254.17975 48.196067,269.77135 39.959323,275.94891 C 33.500138,280.7933 18.842454,282.87915 10.933778,286.83349 C -7.58142,296.09109 -5.2748228,296.35098 -19.905864,315.85904 z"
           id="preenchimentoCopaPF12"
           sodipodi:nodetypes="cssssssssssssssssssssssssssssssssssssssssssssssssssssssssssssssssssssssssssssssssssssssssssssssc"
           transform="matrix(4.4449694e-2,0,0,8.2208411e-2,2.3632147,-1.5330534)" />
      </g>
    </g>
  </g>
</svg>
