<?xml version="1.0" encoding="UTF-8" standalone="no"?>
<svg
   xmlns:dc="http://purl.org/dc/elements/1.1/"
   xmlns:cc="http://creativecommons.org/ns#"
   xmlns:rdf="http://www.w3.org/1999/02/22-rdf-syntax-ns#"
   xmlns:svg="http://www.w3.org/2000/svg"
   xmlns="http://www.w3.org/2000/svg"
   xmlns:xlink="http://www.w3.org/1999/xlink"
   xmlns:sodipodi="http://sodipodi.sourceforge.net/DTD/sodipodi-0.dtd"
   xmlns:inkscape="http://www.inkscape.org/namespaces/inkscape"
   version="1.0"
   width="300"
   height="200"
   preserveAspectRatio="xMidYMid meet"
   id="svg3461"
   sodipodi:version="0.32"
   inkscape:version="0.46"
   sodipodi:docname="pf9.svg"
   inkscape:output_extension="org.inkscape.output.svg.inkscape">
  <defs
     id="defs3472">
    <inkscape:perspective
       sodipodi:type="inkscape:persp3d"
       inkscape:vp_x="0 : 405 : 1"
       inkscape:vp_y="0 : 1000 : 0"
       inkscape:vp_z="353.75 : 405 : 1"
       inkscape:persp3d-origin="176.875 : 270 : 1"
       id="perspective3474" />
    <filter
       inkscape:collect="always"
       id="filter4063"
       x="-0.1385444"
       width="1.2770888"
       y="-0.041273471"
       height="1.0825469">
      <feGaussianBlur
         inkscape:collect="always"
         stdDeviation="4.5283038"
         id="feGaussianBlur4065" />
    </filter>
    <filter
       inkscape:collect="always"
       id="filter4243">
      <feGaussianBlur
         inkscape:collect="always"
         stdDeviation="5.4885925"
         id="feGaussianBlur4245" />
    </filter>
    <inkscape:perspective
       sodipodi:type="inkscape:persp3d"
       inkscape:vp_x="0 : 450 : 1"
       inkscape:vp_y="0 : 1000 : 0"
       inkscape:vp_z="310 : 450 : 1"
       inkscape:persp3d-origin="155 : 270 : 1"
       id="perspective5850" />
    <radialGradient
       r="191.62799"
       fy="146.02631"
       fx="192.00943"
       cy="146.02631"
       cx="192.00943"
       gradientTransform="matrix(1,0,0,0.7512998,0,36.316769)"
       gradientUnits="userSpaceOnUse"
       id="radialGradient2430"
       xlink:href="#linearGradient29444"
       inkscape:collect="always" />
    <radialGradient
       r="191.62799"
       fy="146.02631"
       fx="192.00943"
       cy="146.02631"
       cx="192.00943"
       gradientTransform="matrix(1,0,0,0.7512998,0,36.316769)"
       gradientUnits="userSpaceOnUse"
       id="radialGradient2414"
       xlink:href="#linearGradient29444"
       inkscape:collect="always" />
    <radialGradient
       r="191.62799"
       fy="146.02631"
       fx="192.00943"
       cy="146.02631"
       cx="192.00943"
       gradientTransform="matrix(1,0,0,0.7512998,0,36.316769)"
       gradientUnits="userSpaceOnUse"
       id="radialGradient2528"
       xlink:href="#linearGradient29444"
       inkscape:collect="always" />
    <radialGradient
       r="191.62799"
       fy="146.02631"
       fx="192.00943"
       cy="146.02631"
       cx="192.00943"
       gradientTransform="matrix(1,0,0,0.7512998,0,36.316769)"
       gradientUnits="userSpaceOnUse"
       id="radialGradient2519"
       xlink:href="#linearGradient29444"
       inkscape:collect="always" />
    <radialGradient
       r="191.62799"
       fy="146.02631"
       fx="192.00943"
       cy="146.02631"
       cx="192.00943"
       gradientTransform="matrix(1,0,0,0.7512998,0,36.316769)"
       gradientUnits="userSpaceOnUse"
       id="radialGradient29617"
       xlink:href="#linearGradient29444"
       inkscape:collect="always" />
    <radialGradient
       gradientUnits="userSpaceOnUse"
       gradientTransform="matrix(1,0,0,0.7512998,0,36.316769)"
       r="191.62799"
       fy="146.02631"
       fx="192.00943"
       cy="146.02631"
       cx="192.00943"
       id="radialGradient29452"
       xlink:href="#linearGradient29444"
       inkscape:collect="always" />
    <inkscape:perspective
       id="perspective28801"
       inkscape:persp3d-origin="191.875 : 270 : 1"
       inkscape:vp_z="383.75 : 405 : 1"
       inkscape:vp_y="0 : 1000 : 0"
       inkscape:vp_x="0 : 405 : 1"
       sodipodi:type="inkscape:persp3d" />
    <linearGradient
       id="linearGradient29444"
       inkscape:collect="always">
      <stop
         id="stop29446"
         offset="0"
         style="stop-color:#00b819;stop-opacity:1;" />
      <stop
         id="stop29448"
         offset="1"
         style="stop-color:#00b819;stop-opacity:0;" />
    </linearGradient>
    <inkscape:perspective
       sodipodi:type="inkscape:persp3d"
       inkscape:vp_x="0 : 450 : 1"
       inkscape:vp_y="0 : 1000 : 0"
       inkscape:vp_z="310 : 450 : 1"
       inkscape:persp3d-origin="155 : 270 : 1"
       id="perspective3266" />
    <radialGradient
       r="191.62799"
       fy="146.02631"
       fx="192.00943"
       cy="146.02631"
       cx="192.00943"
       gradientTransform="matrix(1,0,0,0.7512998,0,36.316769)"
       gradientUnits="userSpaceOnUse"
       id="radialGradient3264"
       xlink:href="#linearGradient29444"
       inkscape:collect="always" />
    <radialGradient
       r="191.62799"
       fy="146.02631"
       fx="192.00943"
       cy="146.02631"
       cx="192.00943"
       gradientTransform="matrix(1,0,0,0.7512998,0,36.316769)"
       gradientUnits="userSpaceOnUse"
       id="radialGradient3262"
       xlink:href="#linearGradient29444"
       inkscape:collect="always" />
    <radialGradient
       r="191.62799"
       fy="146.02631"
       fx="192.00943"
       cy="146.02631"
       cx="192.00943"
       gradientTransform="matrix(1,0,0,0.7512998,0,36.316769)"
       gradientUnits="userSpaceOnUse"
       id="radialGradient3260"
       xlink:href="#linearGradient29444"
       inkscape:collect="always" />
    <radialGradient
       r="191.62799"
       fy="146.02631"
       fx="192.00943"
       cy="146.02631"
       cx="192.00943"
       gradientTransform="matrix(1,0,0,0.7512998,0,36.316769)"
       gradientUnits="userSpaceOnUse"
       id="radialGradient3258"
       xlink:href="#linearGradient29444"
       inkscape:collect="always" />
    <radialGradient
       gradientUnits="userSpaceOnUse"
       gradientTransform="matrix(1,0,0,0.7512998,0,36.316769)"
       r="191.62799"
       fy="146.02631"
       fx="192.00943"
       cy="146.02631"
       cx="192.00943"
       id="radialGradient3256"
       xlink:href="#linearGradient29444"
       inkscape:collect="always" />
    <inkscape:perspective
       id="perspective3254"
       inkscape:persp3d-origin="191.875 : 270 : 1"
       inkscape:vp_z="383.75 : 405 : 1"
       inkscape:vp_y="0 : 1000 : 0"
       inkscape:vp_x="0 : 405 : 1"
       sodipodi:type="inkscape:persp3d" />
  </defs>
  <sodipodi:namedview
     inkscape:window-height="750"
     inkscape:window-width="1264"
     inkscape:pageshadow="2"
     inkscape:pageopacity="0.0"
     guidetolerance="10.0"
     gridtolerance="10.0"
     objecttolerance="10.0"
     borderopacity="1"
     bordercolor="#696363"
     pagecolor="#ffffff"
     id="base"
     showgrid="false"
     showborder="true"
     inkscape:zoom="3.2265021"
     inkscape:cx="13.327759"
     inkscape:cy="135.12032"
     inkscape:window-x="8"
     inkscape:window-y="22"
     inkscape:current-layer="svg3461" />
  <metadata
     id="metadata3463">
Created by potrace 1.8, written by Peter Selinger 2001-2007
<rdf:RDF>
  <cc:Work
     rdf:about="">
    <dc:format>image/svg+xml</dc:format>
    <dc:type
       rdf:resource="http://purl.org/dc/dcmitype/StillImage" />
  </cc:Work>
</rdf:RDF>
</metadata>
  <g
     id="g3491">
    <g
       id="g3495">
      <g
         id="agrupamentoTroncoPF9" />
      <g
         id="agrupamentoCopaPF9" />
    </g>
  </g>
  <g
     id="PF9">
    <g
       id="agrupamentoPF9">
      <g
         id="agrupamentoCopaPF9">
        <g
           transform="matrix(7.2463389e-2,0,0,-6.9541132e-2,0.3343565,98.210267)"
           id="copaPF9"
           style="fill:#000000;stroke:none">
          <path
             d="M 265,1400 C 254,1388 252,1380 259,1375 C 276,1365 272,1353 244,1326 L 217,1302 L 239,1289 C 267,1271 266,1263 231,1255 C 211,1251 197,1238 185,1214 C 170,1181 170,1177 187,1148 C 197,1131 215,1111 227,1103 C 248,1089 250,1090 262,1116 C 278,1154 277,1153 289,1146 C 296,1141 296,1133 287,1120 C 278,1104 278,1096 287,1080 C 300,1060 295,1030 279,1030 C 274,1030 270,1018 270,1003 C 270,976 269,976 248,1013 C 221,1059 197,1058 189,1010 C 185,991 182,982 181,991 C 181,1000 171,1015 161,1024 C 146,1038 137,1039 121,1030 C 95,1017 94,995 119,978 C 133,968 136,957 132,932 L 128,898 L 95,930 C 63,961 62,961 31,946 C 3,931 -14,890 9,890 C 13,890 15,879 13,867 C 5,826 62,789 76,825 C 86,851 99,841 106,803 C 117,744 158,680 185,680 C 203,680 207,676 203,660 C 198,640 242,590 266,590 C 293,590 301,627 283,665 C 268,696 268,702 280,710 C 289.26893,712.04781 297.77227,718.61311 305.74481,719.06987 C 365.74976,722.50765 389.1563,718.92836 430.55218,716.77217 C 456.55218,692.77217 482,709 491,742 C 495,757 506,777 515,786 C 534,806 530,821 502,836 C 489,842 477,849 475,852 C 467,860 547,910 568,910 C 587,910 610,948 610,978 C 610,987 603,1003 595,1014 C 579,1035 542,1031 517,1005 C 509,998 490,988 476,984 C 450,978 450,979 461,1004 C 468,1018 476,1030 480,1030 C 484,1030 513,1041 544,1055 L 601,1080 L 573,1109 C 550,1134 543,1136 534,1124 C 521,1108 484,1105 475,1120 C 472,1126 478,1130 488,1130 C 510,1130 544,1175 534,1191 C 531,1197 521,1199 513,1196 C 505,1192 478,1199 454,1209 L 410,1229 L 395,1202 C 387,1187 378,1167 374,1158 C 367,1139 354,1135 346,1149 C 343,1153 352,1168 365,1180 C 381,1195 388,1210 384,1222 C 381,1232 383,1240 389,1240 C 403,1240 430,1294 422,1306 C 411,1322 381,1330 375,1319 C 371,1314 364,1312 359,1316 C 353,1320 357,1331 370,1345 L 391,1368 L 363,1387 C 322,1416 284,1421 265,1400 z M 358,1382 L 381,1367 L 360,1346 C 345,1329 343,1321 352,1312 C 359,1305 368,1304 375,1310 C 383,1316 393,1315 404,1307 C 421,1295 420,1292 395,1262 C 380,1244 370,1226 373,1223 C 377,1220 368,1204 354,1187 C 331,1160 330,1156 345,1141 C 359,1127 363,1128 385,1155 C 398,1172 409,1192 410,1201 C 410,1216 414,1216 448,1199 C 469,1188 495,1182 508,1185 C 520,1188 530,1186 530,1182 C 530,1170 500,1145 476,1136 C 461,1131 460,1127 470,1115 C 487,1095 527,1096 539,1118 C 548,1133 549,1134 550,1118 C 550,1109 560,1098 573,1094 C 594,1087 594,1087 575,1079 C 564,1075 534,1063 508,1053 C 433,1024 418,959 489,975 C 506,979 520,985 520,989 C 520,993 532,1002 546,1009 C 566,1018 576,1018 586,1009 C 615,985 595,920 559,920 C 539,920 482,886 468,866 C 458,851 471,830 490,830 C 519,830 524,811 501,786 C 489,774 480,756 480,747 C 480,723 461,716 441,734 C 420.03595,737.88338 378.51433,739.93897 337.95642,737.40869 C 237.61296,738.27304 237,707 275,653 C 290,631 286,600 268,600 C 247,600 212,649 217,670 C 221,686 218,690 197,690 C 178,690 166,700 146,734 C 132,759 120,787 120,797 C 120,808 114,825 106,835 C 92,854 91,854 72,837 C 54,820 51,820 36,836 C 27,845 22,860 25,870 C 28,880 26,891 20,895 C 4,905 8,917 36,935 C 62,952 63,952 87,921 C 120,879 136,882 144,931 C 149,965 147,974 129,989 C 109,1005 109,1007 125,1020 C 140,1032 144,1032 156,1015 C 164,1005 170,990 170,983 C 170,976 177,970 185,970 C 195,970 200,980 200,999 C 200,1042 214,1044 236,1005 C 258,964 280,959 280,995 C 280,1009 284,1020 290,1020 C 305,1020 313,1069 301,1084 C 292,1095 292,1103 302,1120 C 313,1137 313,1142 300,1150 C 277,1165 270,1162 257,1131 C 247,1107 241,1104 227,1111 C 218,1117 203,1134 195,1151 C 181,1178 181,1183 197,1210 C 206,1227 219,1240 225,1240 C 231,1240 245,1247 256,1255 C 275,1269 274,1270 250,1290 L 225,1310 L 247,1316 C 273,1323 286,1355 271,1374 C 243,1407 310,1413 358,1382 z"
             id="path3467"
             sodipodi:nodetypes="cccccccssccccssccccccccccscccsssccscccccssccccscccccscccccccccsccccccccccsccsccsccccsccccccccsccscscscccscscscccscccccccssscsscccccccscccccc" />
          <path
             d="M 344,1002 C 337,992 329,965 325,942 C 319,907 321,900 334,900 C 343,900 350,903 350,908 C 350,912 368,926 390,940 C 433,966 441,987 413,996 C 403,999 387,1006 378,1011 C 355,1023 357,1023 344,1002 z M 390,990 C 423,990 420,975 382,950 C 362,936 341,921 337,915 C 326,901 339,960 353,988 C 359,1001 366,1007 368,1001 C 370,995 380,990 390,990 z"
             id="path3469" />
        </g>
        <path
           style="opacity:0.93840583;fill:#339900;fill-opacity:1;stroke:#269309;stroke-width:10.13700008;stroke-miterlimit:2;stroke-dasharray:121.64400364, 10.1370003;stroke-dashoffset:18.24660054;stroke-opacity:1;filter:url(#filter4243)"
           d="M 100.67721,291.90266 C 94.418455,287.54667 88.160714,276.48591 88.160714,269.77937 C 88.160714,264.05949 87.832699,263.75804 80.394831,262.64266 C 74.373532,261.73968 71.236431,259.93677 66.43029,254.61693 C 59.219993,246.63592 52.585356,234.21096 49.585709,223.07113 C 47.080214,213.76663 41.627512,205.55195 37.956809,205.55195 C 36.511731,205.55195 32.671384,207.57928 29.422775,210.05713 C 24.58562,213.74657 22.868157,214.21548 19.937079,212.64681 C 15.029601,210.02045 12.771104,205.23938 12.771104,197.47734 C 12.771104,193.6996 11.472018,189.48804 9.7029221,187.53057 C 6.7488416,184.26192 6.8629253,183.94455 12.771104,178.99619 C 23.298614,170.17891 25.778354,170.46531 37.256825,181.82401 C 43.885185,188.38323 48.539126,191.64768 50.675264,191.2363 C 55.075581,190.38889 58.830211,182.07759 59.750052,171.14857 C 60.464728,162.65679 60.160662,161.85304 54.170993,156.40257 C 50.686748,153.23201 47.836039,149.99387 47.836039,149.20677 C 47.836039,148.41967 49.837773,146.46404 52.284359,144.861 C 56.530512,142.07884 56.926641,142.12856 60.999714,145.95501 C 63.346557,148.1598 66.127347,152.57134 67.17919,155.75846 C 70.667221,166.32738 81.123638,165.05426 81.171659,154.05481 C 81.202586,146.96356 82.907864,140.68182 84.801914,140.68182 C 85.622504,140.68182 89.599166,145.05966 93.638979,150.41034 C 97.678793,155.76102 102.48854,160.94402 104.32733,161.9281 C 108.86644,164.35733 112.70617,160.98266 112.70617,154.56406 C 112.70617,151.45545 114.42183,147.9991 117.28072,145.34819 C 123.24013,139.82232 124.96673,127.43646 120.68795,120.90621 C 117.89776,116.6478 117.94245,116.04264 121.57337,108.92545 L 125.39741,101.42964 L 121.4875,98.263503 C 119.33695,96.522161 115.36563,95.097403 112.66232,95.097403 C 108.65221,95.097403 106.75404,96.711477 102.35328,103.86364 C 99.386613,108.68506 96.223633,112.62987 95.324428,112.62987 C 91.994048,112.62987 83.357677,103.80602 79.416379,96.376624 C 72.685945,83.689657 78.554465,72.801171 96.952265,63.840221 C 109.38494,57.784647 110.25699,53.690834 100.54731,46.962031 C 93.310316,41.946763 92.686195,38.993506 98.863356,38.993506 C 107.8559,38.993506 114.0979,24.696112 108.80526,16.221268 C 102.00353,5.329924 128.58359,6.0910084 145.68476,17.277284 L 149.73474,19.926527 L 143.49318,26.835179 C 140.06034,30.634955 137.25162,34.897273 137.25162,36.307006 C 137.25162,40.21331 143.62336,42.779187 150.24094,41.537731 C 156.37781,40.386461 163.55032,42.934507 163.55032,46.265869 C 163.55032,47.304948 160,52.878116 155.66071,58.650629 C 151.32143,64.423141 147.7711,70.463111 147.7711,72.072732 C 147.7711,73.682388 144.61526,78.818349 140.75812,83.486018 C 136.90097,88.153721 133.74513,93.407466 133.74513,95.161045 C 133.74513,99.984858 142.13992,105.93904 146.01612,103.86457 C 150.8169,101.29527 158.48258,91.530212 162.11491,83.356821 L 165.38468,75.999338 L 177.17854,80.521926 C 183.66515,83.009362 193.69132,85.531268 199.4589,86.126162 L 209.94534,87.207792 L 204.86441,91.910701 C 202.06982,94.497301 196.95641,98.041367 193.50125,99.786426 C 183.50364,104.83579 182.72637,105.64248 184.55913,109.06701 C 188.78142,116.95639 205.92809,118.00683 213.5534,110.84324 L 217.46918,107.16451 L 218.54657,111.45688 C 219.2528,114.27077 221.82306,116.62638 226.00878,118.29587 L 232.39373,120.84255 L 211.58837,128.47373 C 182.70833,139.06669 168.99812,152.12074 178.48424,159.99352 C 182.51099,163.33545 201.47012,161.16528 206.23075,156.81749 C 211.63198,151.88466 220.51692,147.69481 225.57627,147.69481 C 232.03866,147.69481 237.75535,155.78395 236.54856,163.22061 C 235.05502,172.42398 230.97565,177.15991 222.72708,179.26641 C 211.14019,182.22546 205.81209,184.65705 194.79606,192.01327 C 186.41634,197.60899 184.58929,199.70624 184.58929,203.7291 C 184.58929,209.70146 186.76947,211.6331 196.4237,214.21434 C 200.52192,215.31003 203.875,217.24616 203.875,218.51675 C 203.875,219.7874 201.23505,224.29347 198.00844,228.53035 C 194.78187,232.76723 191.17033,239.19237 189.98287,242.80844 C 187.46677,250.47043 185.03629,250.93478 173.69845,245.91949 C 167.97981,243.38984 160.00056,242.144 144.10869,241.29933 L 122.34903,240.14282 L 113.03415,248.90061 C 102.05484,259.22349 101.21066,263.79963 108.09369,275.68182 C 113.08406,284.29676 113.85933,289.60658 110.60227,292.86364 C 107.85274,295.6132 105.71049,295.40577 100.67721,291.90268 L 100.67721,291.90266 z M 141.61666,184.53304 C 143.35198,182.61547 148.79973,178.53086 153.72276,175.45612 C 175.7815,161.67902 176.24304,157.39143 156.52307,149.4423 C 145.66959,145.06725 141.93274,144.23917 140.05936,145.79394 C 135.66704,149.43927 129.77988,165.91204 128.88495,177.06106 L 128.00535,188.01948 L 133.23341,188.01948 C 136.22478,188.01948 139.81124,186.52792 141.61661,184.53303 L 141.61666,184.53304 z"
           id="preenchimentoCopaPF9"
           transform="matrix(0.1870955,0,0,0.1913212,-0.5012404,-0.4349717)" />
      </g>
      <g
         id="agrupamentoTroncoPF9">
        <g
           transform="matrix(7.4858158e-2,0,0,-6.898855e-2,-22.014244,52.162024)"
           id="troncoPF9"
           style="fill:#000000;stroke:none">
          <path
             d="M 347.39077,695.79806 C 376.39077,670.79806 380.39077,661.79806 389.39077,588.79806 C 416.39077,363.79806 428.39077,271.79806 443.39077,201.79806 C 452.39077,159.79806 459.39077,97.798066 459.39077,63.798073 L 459.39077,3.7980736 L 490.39077,3.7980736 L 522.39077,3.7980736 L 515.39077,111.79806 C 511.39077,170.79806 504.39077,232.79806 499.39077,248.79806 C 494.39077,265.79806 485.39077,325.79806 479.39077,383.79806 C 455.39077,610.79806 448.39077,656.79806 428.39077,695.79806 C 420.56979,719.47951 414.8084,741.05806 410.24354,749.02617 C 404.41759,749.85185 405.38192,751.04954 394.83295,751.32074 C 376.03547,751.804 353.24962,752.2496 331.69608,751.4 C 319.15372,750.90561 304.85422,755.88095 296.40288,747.4483 C 289.44035,739.42192 299.44664,737.3639 309.00518,728.10037 C 321.71952,715.77843 339.73771,702.37411 347.39077,695.79806 z M 420.64455,690.12011 C 441.64455,644.12011 445.39077,599.79806 469.39077,373.79806 C 475.39077,315.79806 484.39077,255.79806 489.39077,238.79806 C 494.39077,222.79806 501.39077,164.79806 505.39077,111.79806 C 512.39077,15.798073 511.39077,13.798073 490.39077,13.798073 C 471.39077,13.798073 469.39077,18.798073 469.39077,73.798073 C 469.39077,107.79806 462.39077,169.79806 453.39077,211.79806 C 439.39077,280.79806 426.39077,367.79806 399.39077,593.79806 C 391.39077,663.79806 388.39077,670.79806 352.39077,700.79806 C 321.17463,719.8358 308.41023,736.2401 314.93457,737.61948 C 322.34476,739.18614 360.05384,742.18172 383.22604,738.19529 C 397.56488,735.7285 400.56779,735.92334 405.89222,725.23706 C 410.75161,718.12647 413.99218,704.37519 420.64455,690.12011 z"
             id="path2568"
             sodipodi:nodetypes="ccscccccccccsscscccccsscccsscc" />
        </g>
        <path
           style="opacity:0.90217393;fill:#986601;fill-opacity:1;stroke:#937509;stroke-width:5.78200006;stroke-miterlimit:15;stroke-dasharray:none;stroke-opacity:1;filter:url(#filter4063)"
           d="M 185.59256,504.04221 C 184.7266,502.35471 183.5372,492.29545 182.94953,481.68831 C 182.36186,471.08117 179.08472,447.01786 175.66701,428.21429 C 172.2493,409.41071 165.87848,368.77922 161.50965,337.92208 C 155.96788,298.78023 152.51604,279.63164 150.09239,274.58597 C 147.95164,270.12934 142.43478,264.07361 135.71711,258.80675 L 124.81577,250.25974 L 132.6598,249.70116 C 150.24751,248.44864 156.71315,252.91959 163.89301,271.2987 C 169.48824,285.62146 172.46054,301.90431 179.09487,354.57792 C 182.55634,382.06006 187.29705,414.40747 189.62985,426.46104 C 194.21472,450.15079 198.91762,499.29901 197.06227,504.13396 C 195.55846,508.05286 187.61826,507.98931 185.59262,504.04221 L 185.59256,504.04221 z"
           id="preenchimentoTroncoPF9"
           transform="matrix(0.2024388,0,0,0.1931726,-23.841561,-47.087542)" />
      </g>
    </g>
  </g>
</svg>
