<?xml version="1.0" encoding="UTF-8" standalone="no"?>
<!-- Created with Inkscape (http://www.inkscape.org/) -->
<svg
   xmlns:dc="http://purl.org/dc/elements/1.1/"
   xmlns:cc="http://creativecommons.org/ns#"
   xmlns:rdf="http://www.w3.org/1999/02/22-rdf-syntax-ns#"
   xmlns:svg="http://www.w3.org/2000/svg"
   xmlns="http://www.w3.org/2000/svg"
   xmlns:sodipodi="http://sodipodi.sourceforge.net/DTD/sodipodi-0.dtd"
   xmlns:inkscape="http://www.inkscape.org/namespaces/inkscape"
   width="210mm"
   height="297mm"
   id="svg2440"
   sodipodi:version="0.32"
   inkscape:version="0.46"
   sodipodi:docname="testeEscala2.svg"
   inkscape:output_extension="org.inkscape.output.svg.inkscape">
  <defs
     id="defs2442">
    <inkscape:perspective
       sodipodi:type="inkscape:persp3d"
       inkscape:vp_x="0 : 526.18109 : 1"
       inkscape:vp_y="0 : 1000 : 0"
       inkscape:vp_z="744.09448 : 526.18109 : 1"
       inkscape:persp3d-origin="372.04724 : 350.78739 : 1"
       id="perspective2448" />
  </defs>
  <sodipodi:namedview
     id="base"
     pagecolor="#ffffff"
     bordercolor="#666666"
     borderopacity="1.0"
     inkscape:pageopacity="0.0"
     inkscape:pageshadow="2"
     inkscape:zoom="0.35"
     inkscape:cx="350"
     inkscape:cy="652.89044"
     inkscape:document-units="px"
     inkscape:current-layer="svg2440"
     showgrid="false"
     inkscape:window-width="761"
     inkscape:window-height="670"
     inkscape:window-x="286"
     inkscape:window-y="92" />
  <metadata
     id="metadata2445">
    <rdf:RDF>
      <cc:Work
         rdf:about="">
        <dc:format>image/svg+xml</dc:format>
        <dc:type
           rdf:resource="http://purl.org/dc/dcmitype/StillImage" />
      </cc:Work>
    </rdf:RDF>
  </metadata>
  <g
     inkscape:label="Camada 1"
     inkscape:groupmode="layer"
     id="layer1" />
  <g
     id="g2454"
     transform="scale(0.5,0.5)">
    <path
       style="fill:#013397;fill-rule:evenodd;stroke:#000000;stroke-width:1px;stroke-linecap:butt;stroke-linejoin:miter;stroke-opacity:1"
       d="M 2.8571429,1049.505 C -3.2851477,1008.0524 12.41965,970.38003 25.714286,943.79075 C 31.007528,933.20427 58.545784,939.7805 68.571429,943.79075 C 84.804077,950.28381 99.430793,949.50504 117.14286,949.50504 C 139.6768,949.50504 155.41848,922.22689 168.57143,912.36218 C 189.19922,896.89134 174.38843,966.44247 162.85714,989.50504 C 155.72608,1003.7672 132.41188,998.07647 117.14286,998.07647 C 88.794607,998.07647 74.436963,994.99245 57.142857,1020.9336 C 39.642865,1047.1836 51.841421,1052.3622 17.142857,1052.3622 C 12.286648,1052.3622 7.6190476,1050.4574 2.8571429,1049.505 z"
       id="path2450" />
  </g>
  <g
     id="g2457"
     transform="scale(2,2)">
    <path
       style="fill:#d40000;fill-rule:evenodd;stroke:#000000;stroke-width:1px;stroke-linecap:butt;stroke-linejoin:miter;stroke-opacity:1"
       d="M 0,0 C -17.379322,3.790754 34.386745,8.9538173 51.428571,12.362183 C 70.749772,16.226423 79.311552,26.647897 102.85714,26.647897 C 119.04762,26.647897 135.2381,26.647897 151.42857,26.647897 C 168.34312,26.647897 188.49882,37.931242 194.28571,49.50504 C 209.02433,78.982272 201.83729,115.21933 174.28571,115.21933 C 134.28177,115.21933 129.25673,65.277296 105.71429,112.36218 C 91.642365,140.50602 42.423487,87.53056 31.428571,80.933611 C 17.999924,72.876422 5.7142857,61.351758 5.7142857,43.790754 C 5.7142857,30.618903 4.7098746,15.565441 0,3.790754 L 0,0 z"
       id="path2452"
       transform="scale(0.5,0.5)" />
  </g>
</svg>
