<?xml version="1.0" encoding="UTF-8" standalone="no"?>
<svg
   xmlns:dc="http://purl.org/dc/elements/1.1/"
   xmlns:cc="http://creativecommons.org/ns#"
   xmlns:rdf="http://www.w3.org/1999/02/22-rdf-syntax-ns#"
   xmlns:svg="http://www.w3.org/2000/svg"
   xmlns="http://www.w3.org/2000/svg"
   xmlns:sodipodi="http://sodipodi.sourceforge.net/DTD/sodipodi-0.dtd"
   xmlns:inkscape="http://www.inkscape.org/namespaces/inkscape"
   version="1.0"
   width="85.610001"
   height="54.400002"
   viewBox="0 0 469 297"
   preserveAspectRatio="xMidYMid meet"
   id="svg2478"
   sodipodi:version="0.32"
   inkscape:version="0.46"
   sodipodi:docname="arbustro2pag455-Color-po.svg"
   inkscape:output_extension="org.inkscape.output.svg.inkscape">
  <defs
     id="defs2487">
    <inkscape:perspective
       sodipodi:type="inkscape:persp3d"
       inkscape:vp_x="0 : 185.625 : 1"
       inkscape:vp_y="0 : 1000 : 0"
       inkscape:vp_z="586.25 : 185.625 : 1"
       inkscape:persp3d-origin="293.125 : 123.75 : 1"
       id="perspective2489" />
    <filter
       inkscape:collect="always"
       id="filter3387">
      <feGaussianBlur
         inkscape:collect="always"
         stdDeviation="0.76554576"
         id="feGaussianBlur3389" />
    </filter>
  </defs>
  <sodipodi:namedview
     inkscape:window-height="750"
     inkscape:window-width="1280"
     inkscape:pageshadow="2"
     inkscape:pageopacity="0.0"
     guidetolerance="10.0"
     gridtolerance="10.0"
     objecttolerance="10.0"
     borderopacity="1.0"
     bordercolor="#666666"
     pagecolor="#ffffff"
     id="base"
     showgrid="false"
     inkscape:zoom="4.5373134"
     inkscape:cx="81.748311"
     inkscape:cy="61.571369"
     inkscape:window-x="-8"
     inkscape:window-y="-8"
     inkscape:current-layer="svg2478"
     borderlayer="true" />
  <metadata
     id="metadata2480">
Created by potrace 1.8, written by Peter Selinger 2001-2007
<rdf:RDF>
  <cc:Work
     rdf:about="">
    <dc:format>image/svg+xml</dc:format>
    <dc:type
       rdf:resource="http://purl.org/dc/dcmitype/StillImage" />
  </cc:Work>
</rdf:RDF>
</metadata>
  <g
     transform="matrix(0.4607635,0,0,-0.4590581,26.463859,291.59333)"
     id="g2482"
     style="fill:#000000;stroke:none">
    <path
       d="M 309,600 C 290,590 268,574 260,565 C 253,556 244,553 241,558 C 230,573 172,610 159,610 C 143,610 80,542 80,524 C 80,516 87,510 96,510 C 110,510 110,508 95,494 C 84,482 82,474 90,465 C 98,455 97,450 83,446 C 58,438 35,400 49,390 C 56,387 58,376 55,368 C 51,358 59,345 79,330 L 110,309 L 79,278 C 20,218 9,156 54,129 C 70,119 87,113 92,116 C 96,119 100,115 100,107 C 100,93 60,70 35,70 C 16,70 -2,36 6,15 C 11,3 19,0 34,5 C 51,11 581,26 868,29 C 932,30 941,32 938,47 C 936,57 921,68 903,73 C 881,80 868,92 861,111 C 856,127 845,140 838,140 C 829,140 829,143 840,150 C 848,155 851,162 847,166 C 843,170 847,184 855,196 C 869,217 868,220 842,238 C 827,249 806,259 795,261 C 767,267 763,306 789,315 C 805,320 808,328 806,358 C 804,388 797,398 772,410 C 736,427 734,433 756,455 C 771,469 771,474 757,503 C 734,549 709,567 669,565 C 650,564 632,567 628,573 C 625,579 609,584 593,586 C 578,587 554,591 540,594 C 526,598 496,603 473,607 C 437,612 430,610 430,596 C 430,583 425,580 408,586 C 395,589 378,599 369,606 C 350,623 353,623 309,600 z M 377,590 C 408,566 426,565 438,586 C 446,600 455,601 486,594 C 539,583 561,580 588,577 C 600,576 614,569 619,562 C 624,554 640,551 663,553 C 684,555 700,553 700,549 C 700,544 706,540 714,540 C 722,540 736,526 744,509 C 758,481 758,475 745,457 C 724,427 726,421 761,406 C 786,395 793,386 795,360 C 797,335 793,326 779,323 C 745,314 761,250 797,250 C 805,250 822,243 835,234 C 858,219 858,217 843,194 C 835,181 831,170 835,170 C 839,170 837,163 830,155 C 820,143 821,139 834,134 C 843,131 850,120 850,110 C 850,88 867,74 903,65 C 950,53 932,40 868,39 C 642,37 42,22 30,19 C 22,17 15,21 15,29 C 15,44 26,51 78,72 C 102,81 110,90 108,105 C 106,116 103,123 100,121 C 97,119 81,124 65,133 C 16,158 29,218 97,282 C 122,306 114,334 79,345 C 66,349 61,357 64,367 C 68,376 66,388 60,395 C 52,405 57,414 80,430 C 103,446 108,455 100,465 C 93,474 94,481 106,491 C 120,503 120,505 106,515 C 92,526 93,531 118,563 C 133,583 151,599 159,600 C 166,600 189,587 210,570 C 244,543 249,542 261,556 C 271,568 335,608 348,610 C 350,610 363,601 377,590 z"
       id="path2484" />
  </g>
  <path
     style="opacity:0.94927536;fill:#339900;fill-opacity:1;stroke:#09930d;stroke-width:2.63840008;stroke-miterlimit:20.10000038;stroke-dasharray:none;stroke-opacity:1;filter:url(#filter3387)"
     d="M 151.58053,122.60462 C 152.47652,121.30208 156.38801,121.31733 155.02969,119.1628 C 152.90444,118.56109 151.52547,116.46613 153.44915,114.65987 C 154.93474,113.30053 156.76785,111.23052 154.22221,109.82104 C 152.07291,107.84913 155.9881,106.56809 155.6006,104.34346 C 154.68037,102.10306 157.61616,99.790968 159.59351,101.38445 C 161.27709,103.22855 163.38581,101.75157 164.96865,100.64886 C 166.78065,99.406368 168.46833,102.60043 170.16559,101.121 C 172.17135,100.31788 174.37952,101.14193 176.4173,101.42692 C 178.48622,102.46317 180.93393,102.02005 182.90365,103.1766 C 185.49241,104.42299 181.94226,107.01927 184.45818,108.10395 C 187.32276,109.13693 184.80729,111.2777 184.60553,112.99759 C 185.20731,114.7345 189.71085,114.27347 188.0481,116.6509 C 186.57556,118.19727 188.64838,120.17474 189.88576,121.04161 C 191.04002,121.31484 191.7035,122.15407 189.98696,121.96813 C 178.57661,122.48526 167.15175,122.57249 155.73409,122.83622 C 154.35893,122.79024 152.91672,122.88607 151.58053,122.60462 z"
     id="path2513"
     transform="matrix(9.4743227,0,0,10.983794,-1383.4846,-1077.9262)" />
</svg>
