<?xml version="1.0" encoding="UTF-8" standalone="no"?>
<svg
   xmlns:dc="http://purl.org/dc/elements/1.1/"
   xmlns:cc="http://creativecommons.org/ns#"
   xmlns:rdf="http://www.w3.org/1999/02/22-rdf-syntax-ns#"
   xmlns:svg="http://www.w3.org/2000/svg"
   xmlns="http://www.w3.org/2000/svg"
   xmlns:sodipodi="http://sodipodi.sourceforge.net/DTD/sodipodi-0.dtd"
   xmlns:inkscape="http://www.inkscape.org/namespaces/inkscape"
   version="1.0"
   width="65"
   height="30"
   viewBox="0 0 468 280"
   preserveAspectRatio="xMidYMid meet"
   id="svg2"
   sodipodi:version="0.32"
   inkscape:version="0.46"
   sodipodi:docname="PF12_gramineaC3Contornado-Color-po.svg"
   inkscape:output_extension="org.inkscape.output.svg.inkscape">
  <defs
     id="defs15">
    <inkscape:perspective
       sodipodi:type="inkscape:persp3d"
       inkscape:vp_x="0 : 175 : 1"
       inkscape:vp_y="0 : 1000 : 0"
       inkscape:vp_z="585 : 175 : 1"
       inkscape:persp3d-origin="292.5 : 116.66667 : 1"
       id="perspective17" />
    <filter
       inkscape:collect="always"
       id="filter3466"
       x="-0.24518326"
       width="1.4903665"
       y="-0.26433674"
       height="1.5286735">
      <feGaussianBlur
         inkscape:collect="always"
         stdDeviation="0.76626973"
         id="feGaussianBlur3468" />
    </filter>
    <filter
       inkscape:collect="always"
       id="filter3550"
       x="-0.21954334"
       width="1.4390867"
       y="-0.1926159"
       height="1.3852318">
      <feGaussianBlur
         inkscape:collect="always"
         stdDeviation="0.61104713"
         id="feGaussianBlur3552" />
    </filter>
    <filter
       inkscape:collect="always"
       id="filter3594"
       x="-0.13331592"
       width="1.2666318"
       y="-0.10910257"
       height="1.2182051">
      <feGaussianBlur
         inkscape:collect="always"
         stdDeviation="0.90890648"
         id="feGaussianBlur3596" />
    </filter>
    <filter
       inkscape:collect="always"
       id="filter3712"
       x="-0.38317379"
       width="1.7663476"
       y="-0.24649455"
       height="1.4929891">
      <feGaussianBlur
         inkscape:collect="always"
         stdDeviation="6.2136069"
         id="feGaussianBlur3714" />
    </filter>
    <filter
       inkscape:collect="always"
       id="filter3772"
       x="-0.27141809"
       width="1.5428362"
       y="-0.090375794"
       height="1.1807516">
      <feGaussianBlur
         inkscape:collect="always"
         stdDeviation="0.96182448"
         id="feGaussianBlur3774" />
    </filter>
    <filter
       inkscape:collect="always"
       id="filter3816"
       x="-0.12381085"
       width="1.2476217"
       y="-0.14413005"
       height="1.2882601">
      <feGaussianBlur
         inkscape:collect="always"
         stdDeviation="0.94218966"
         id="feGaussianBlur3818" />
    </filter>
  </defs>
  <sodipodi:namedview
     inkscape:window-height="750"
     inkscape:window-width="1280"
     inkscape:pageshadow="2"
     inkscape:pageopacity="0.0"
     guidetolerance="10.0"
     gridtolerance="10.0"
     objecttolerance="10.0"
     borderopacity="1.0"
     bordercolor="#666666"
     pagecolor="#ffffff"
     id="base"
     showgrid="false"
     inkscape:zoom="3.7196581"
     inkscape:cx="36.167535"
     inkscape:cy="5.199027"
     inkscape:window-x="-8"
     inkscape:window-y="-8"
     inkscape:current-layer="svg2" />
  <metadata
     id="metadata4">
Created by potrace 1.8, written by Peter Selinger 2001-2007
<rdf:RDF>
  <cc:Work
     rdf:about="">
    <dc:format>image/svg+xml</dc:format>
    <dc:type
       rdf:resource="http://purl.org/dc/dcmitype/StillImage" />
  </cc:Work>
</rdf:RDF>
</metadata>
  <g
     transform="matrix(2.38241,0,0,-1.6631085,-6288.0331,684.81618)"
     id="g6"
     style="fill:#008d00;stroke:none;fill-opacity:1;stroke-opacity:1">
    <path
       d="M 2710,325 C 2710,277 2714,250 2721,250 C 2722.8183,250 2751.6054,246.27129 2751.8547,249.44513 C 2752.2031,253.88091 2730.3943,246.91325 2722.3062,259.17122 C 2713.9023,271.90782 2717.0729,307.91132 2715.9413,326.77184 L 2717.2522,379.21928 L 2722,395 L 2728.8256,389.81504 L 2732.6225,379.8867 L 2734.6331,347.13977 C 2735.1924,336.74051 2731.449,327.26722 2732.7876,316.56091 C 2734.9498,299.26895 2740.6387,281.18748 2744.192,268.9509 C 2747.5393,257.42384 2749.2134,249.24563 2751.4202,249.24563 C 2756.4202,249.24563 2752.1009,264.24563 2749.1009,283.24563 C 2747.7486,291.35931 2740.3054,292.25858 2741.1906,299.19127 C 2742.9238,312.76526 2755.6944,330.23077 2762.3137,335.52621 C 2780.8935,352.54368 2785,329 2768,312 C 2761,305 2744.7816,281.89517 2747.7816,281.89517 C 2750.7816,281.89517 2780,316 2794,335 C 2833,386 2815,403 2773,354 L 2740,315 L 2740,358 C 2740,389 2736,400 2725,400 C 2713,400 2710,385 2710,325 z M 2800,355 C 2781.6345,325.0501 2769.4277,333.02689 2790,365 C 2797,374 2805,378 2808,375 C 2811,373 2807,364 2800,355 z"
       id="path8"
       style="fill:#008d00;fill-opacity:1;stroke:none;stroke-opacity:1"
       sodipodi:nodetypes="csssccccccssscscssccccsccccc" />
    <path
       d="M 2620,369 C 2620,363 2631,344 2645,326 C 2659,308 2670,283 2670,272 C 2670,259 2676,250 2685,250 C 2709,250 2703,296 2674,340 C 2649,378 2620,393 2620,369 z M 2668,335 C 2680,316 2694.2661,288.49126 2694.2661,276.49126 C 2693.2661,255.49126 2682.7871,250.21069 2678.7871,268.21069 C 2675.7871,279.21069 2667,309 2654,327 C 2646.2791,337.19162 2638.9813,344.43512 2635.1485,350.62219 C 2626.5709,364.46857 2629.0149,370 2638,370 C 2642,370 2655,354 2668,335 z"
       id="path10"
       style="fill:#008d00;fill-opacity:1;stroke:none;stroke-opacity:1"
       sodipodi:nodetypes="csssccccccssc" />
    <path
       d="M 2802,321 C 2773,284 2759,244 2778,252 C 2793,258 2860,337 2860,349 C 2860,372 2832,359 2802,321 z M 2850,344 C 2850,340 2834,320 2815,299 C 2797.4897,280.72037 2783.2036,262.74567 2779.3181,262.33548 C 2774.1176,261.78647 2785.0832,287.35406 2808,316 C 2833,347 2850,359 2850,344 z"
       id="path12"
       style="fill:#008d00;fill-opacity:1;stroke:none;stroke-opacity:1"
       sodipodi:nodetypes="ccscccscc" />
  </g>
  <path
     style="opacity:1;fill:#00a100;fill-opacity:1;stroke:#37ef7b;stroke-width:0.20000000000000001;stroke-miterlimit:4;stroke-dasharray:none;stroke-dashoffset:0;stroke-opacity:1;filter:url(#filter3772)"
     d="M 32.123777,28.420752 C 28.989598,28.057873 27.967096,27.084973 27.401326,23.927389 C 27.103707,22.266356 27.013262,15.908677 27.210386,10.505306 L 27.381288,5.8207367 L 27.912908,4.5907849 C 28.205298,3.9143101 28.497261,3.3067005 28.561717,3.2405412 C 28.630038,3.1704111 29.003023,3.3125465 29.456189,3.5814072 C 30.069927,3.9455348 30.329911,4.211246 30.691829,4.8442746 C 31.1344,5.6183794 31.158609,5.7362531 31.394792,8.2671954 C 31.713279,11.680098 31.709402,12.294227 31.356149,14.389476 C 31.065934,16.110821 31.064829,16.165126 31.296068,17.342015 C 31.634749,19.065734 32.444488,21.458798 33.814659,24.785332 C 34.472917,26.383463 35.101249,27.887614 35.210958,28.127892 L 35.410429,28.56476 L 34.23642,28.547091 C 33.590715,28.537377 32.640026,28.480524 32.12378,28.420752 L 32.123777,28.420752 z"
     id="path3164"
     transform="matrix(9.3333333,0,0,9.3333333,-69.333333,0)" />
  <path
     style="opacity:1;fill:#00a100;fill-opacity:1;stroke:#37ef7b;stroke-width:0.02688419000000000;stroke-miterlimit:4;stroke-dasharray:none;stroke-dashoffset:0;stroke-opacity:1;filter:url(#filter3594)"
     d="M 18.781021,27.271512 C 18.287777,27.024738 17.956935,26.545882 17.538477,25.473078 C 17.025714,24.158507 15.493863,21.00403 14.737575,19.705304 C 13.153382,16.984862 11.882223,15.541529 8.7833607,12.944581 C 6.8237895,11.302398 5.7562546,10.153112 5.3342601,9.2313539 C 5.0514546,8.6136304 5.0282078,8.4650429 5.1722493,8.1958985 C 5.5508056,7.4885593 7.0322804,7.3351205 7.9981528,7.9032143 C 8.9830121,8.4824732 10.657638,9.8881992 12.707547,11.856403 C 17.426257,16.387032 21.322981,21.915676 21.322981,24.079917 C 21.322978,25.035145 20.907077,26.235625 20.374426,26.817871 C 19.798997,27.44688 19.373608,27.567985 18.781021,27.271511 L 18.781021,27.271512 z"
     id="path3278"
     transform="matrix(9.3333333,0,0,9.3333333,-69.333333,0)" />
  <path
     style="opacity:1;fill:#00a100;fill-opacity:1;stroke:#37ef7b;stroke-width:0.02688419000000000;stroke-miterlimit:4;stroke-dasharray:none;stroke-dashoffset:0;stroke-opacity:1;filter:url(#filter3550)"
     d="M 37.222306,20.01335 C 37.178481,19.87411 37.056306,19.561544 36.950806,19.318758 C 36.845305,19.075974 36.758987,18.796054 36.758987,18.696718 C 36.758987,18.59738 36.668253,18.440804 36.557355,18.348767 C 36.408875,18.225539 36.355724,17.897955 36.355724,17.10606 C 36.355724,16.16542 36.380986,16.051658 36.557355,16.198032 C 36.730932,16.342087 36.758987,16.289714 36.758987,15.821622 C 36.758987,15.329741 36.828419,15.218555 37.486866,14.656027 C 38.48838,13.800407 40.151984,12.877732 41.016931,12.69817 C 42.414021,12.408136 43.184532,13.194451 42.820907,14.539156 C 42.579875,15.430494 41.602763,16.613374 40.164389,17.755101 C 39.437357,18.33219 38.495894,19.133339 38.072251,19.535433 C 37.407154,20.166699 37.291111,20.231947 37.222306,20.013349 L 37.222306,20.01335 z"
     id="path3280"
     transform="matrix(9.3333333,0,0,9.3333333,-69.333333,0)" />
  <path
     style="opacity:1;fill:#00a100;fill-opacity:1;stroke:#37ef7b;stroke-width:0.02688419000000000;stroke-miterlimit:4;stroke-dasharray:none;stroke-dashoffset:0;stroke-opacity:1;filter:url(#filter3466)"
     d="M 43.336975,13.163153 C 43.194022,12.990904 43.192394,12.833256 43.328302,12.323022 C 43.809906,10.514942 46.069676,7.9489605 48.03295,6.9808608 C 48.888868,6.5588032 50.088439,6.3933189 50.40251,6.6539745 C 50.919112,7.0827142 50.489715,7.828518 48.544981,9.8802468 C 46.900438,11.615269 45.862235,12.499189 44.910059,12.974998 C 44.010561,13.42448 43.5951,13.474174 43.336977,13.163153 L 43.336975,13.163153 z"
     id="path3286"
     transform="matrix(9.3333333,0,0,9.3333333,-69.333333,0)" />
  <path
     style="opacity:1;fill:#00a100;fill-opacity:1;stroke:#37ef7b;stroke-width:0.02688419000000000;stroke-miterlimit:4;stroke-dasharray:none;stroke-dashoffset:0;stroke-opacity:1;filter:url(#filter3816)"
     d="M 42.942351,26.264814 C 42.942351,25.398298 44.838922,22.806981 47.427185,20.137106 C 51.716511,15.712538 57.131521,11.700829 59.654459,11.078538 C 60.238582,10.934465 60.339088,10.945136 60.662617,11.185589 C 61.304186,11.662419 61.220266,12.142912 60.326877,13.107878 C 58.536405,15.041802 54.162065,18.588198 45.8349,24.856915 C 44.605517,25.782397 43.375237,26.548445 43.118285,26.548445 C 43.021519,26.548445 42.942351,26.420811 42.942351,26.264814 z"
     id="path3288"
     transform="matrix(9.3333333,0,0,9.3333333,-69.333333,0)" />
  <path
     style="fill:#00a100;fill-rule:evenodd;stroke:none;stroke-width:1px;stroke-linecap:butt;stroke-linejoin:miter;stroke-opacity:1;fill-opacity:1;filter:url(#filter3712)"
     d="M 241.80637,185.59168 C 240.65837,187.88769 242.39272,191.07355 242.74732,192.49196 C 243.10313,193.91518 244.74621,194.92149 245.57016,196.56939 C 246.78057,198.99022 248.72966,200.71586 249.6476,203.46967 C 250.28771,205.39 250.9714,205.66521 253.09773,205.66521 C 255.41935,205.66521 257.46923,209.15457 258.74341,210.68359 C 260.20535,212.43791 260.7539,211.1823 261.8799,210.0563 C 263.01852,208.91767 264.56336,207.68648 265.95734,206.29251 C 267.58461,204.66524 269.25437,203.46224 270.34842,201.27413 C 271.02601,199.91895 272.73941,198.50434 273.48491,197.51034 C 273.62518,197.32332 273.69401,197.09214 273.79856,196.88304 C 274.61991,195.24034 275.97374,193.44818 277.2487,192.49196 C 278.73231,191.37925 278.70461,188.87795 279.75789,187.47358 C 280.84358,186.02599 280.07154,181.15201 280.07154,179.00505 C 280.07154,174.95739 278.109,171.94348 276.6214,168.96829 C 275.33641,166.39832 274.16804,164.63303 272.23032,162.69531 C 269.64113,160.10612 264.38909,156.0691 264.38909,152.65855 C 264.38909,149.12949 261.14459,152.39891 259.37071,153.28585 C 258.67825,153.63208 257.09389,158.71064 256.86152,159.87247 C 255.95211,164.41951 250.95486,167.73046 248.70665,171.47748 C 247.29779,173.82558 246.56016,175.04507 245.88381,177.75046 C 245.34164,179.91915 243.92225,181.67357 243.06097,183.39614 C 242.89371,183.73065 243.06097,184.8354 243.06097,185.27803"
     id="path3602" />
</svg>
