<?xml version="1.0" encoding="UTF-8" standalone="no"?>
<svg
   xmlns:dc="http://purl.org/dc/elements/1.1/"
   xmlns:cc="http://creativecommons.org/ns#"
   xmlns:rdf="http://www.w3.org/1999/02/22-rdf-syntax-ns#"
   xmlns:svg="http://www.w3.org/2000/svg"
   xmlns="http://www.w3.org/2000/svg"
   xmlns:sodipodi="http://sodipodi.sourceforge.net/DTD/sodipodi-0.dtd"
   xmlns:inkscape="http://www.inkscape.org/namespaces/inkscape"
   version="1.0"
   width="200"
   height="450"
   viewBox="0 0 248 648"
   preserveAspectRatio="xMidYMid meet"
   id="svg5839"
   sodipodi:version="0.32"
   inkscape:version="0.46"
   sodipodi:docname="tipopinheiro1pag399-Color-po.svg"
   inkscape:output_extension="org.inkscape.output.svg.inkscape">
  <defs
     id="defs5848">
    <inkscape:perspective
       sodipodi:type="inkscape:persp3d"
       inkscape:vp_x="0 : 405 : 1"
       inkscape:vp_y="0 : 1000 : 0"
       inkscape:vp_z="310 : 405 : 1"
       inkscape:persp3d-origin="155 : 270 : 1"
       id="perspective5850" />
    <filter
       inkscape:collect="always"
       id="filter6389">
      <feGaussianBlur
         inkscape:collect="always"
         stdDeviation="7.2128343"
         id="feGaussianBlur6391" />
    </filter>
    <filter
       inkscape:collect="always"
       id="filter6471">
      <feGaussianBlur
         inkscape:collect="always"
         stdDeviation="1.3379421"
         id="feGaussianBlur6473" />
    </filter>
  </defs>
  <sodipodi:namedview
     inkscape:window-height="750"
     inkscape:window-width="1280"
     inkscape:pageshadow="2"
     inkscape:pageopacity="0.0"
     guidetolerance="10.0"
     gridtolerance="10.0"
     objecttolerance="10.0"
     borderopacity="1.0"
     bordercolor="#666666"
     pagecolor="#ffffff"
     id="base"
     showgrid="false"
     inkscape:zoom="0.57037037"
     inkscape:cx="71.469471"
     inkscape:cy="74.751434"
     inkscape:window-x="-8"
     inkscape:window-y="-8"
     inkscape:current-layer="svg5839" />
  <metadata
     id="metadata5841">
Created by potrace 1.8, written by Peter Selinger 2001-2007
<rdf:RDF>
  <cc:Work
     rdf:about="">
    <dc:format>image/svg+xml</dc:format>
    <dc:type
       rdf:resource="http://purl.org/dc/dcmitype/StillImage" />
  </cc:Work>
</rdf:RDF>
</metadata>
  <g
     transform="matrix(0.4520064,0,0,-0.374566,-18.491402,648)"
     id="g5843"
     style="fill:#002600;stroke:none;fill-opacity:1">
    <path
       d="M 246,1712.2597 C 244,1704.2597 239,1692 235,1677 L 229,1642.9448 L 209,1674 C 183,1707 170,1707 170,1675 C 170,1661 165,1650 159,1650 C 142,1650 156,1580 176,1565 C 192,1554 191,1552 167,1546 C 151,1542 140,1533 140,1523 C 140,1510 137,1509 128,1518 C 121,1525 112,1530 107,1530 C 95,1530 109,1468 126,1449 C 134,1441 140,1430 140,1426 C 140,1422 151,1407 165,1392 L 190,1366 L 162,1344 C 136,1323 136,1321 153,1303 C 169,1284 168,1281 119,1231 L 67,1178 L 99,1151 C 129,1126 129,1124 110,1112 C 99,1105 90,1093 90,1085 C 90,1077 84,1070 78,1070 C 71,1070 52,1054 37,1035 C -2,986 12,948 90,894 C 110,880 118,870 109,870 C 100,870 85,879 75,890 C 49,919 30,915 30,882 C 30,862 37,850 53,843 L 75,832 L 48,822 C 10,807 6,794 33,774 C 54,757 55,753 44,721 C 38,702 27,684 21,682 C 1,675 10,652 46,613 C 80,578 81,575 61,572 C 50,570 40,565 40,560 C 40,540 86,481 103,480 C 112,480 120,474 120,466 C 120,435 97,439 60,475 C 39,495 20,508 16,502 C 11,493 25,439 41,410 C 45,402 58,377 69,355 C 89,316 115,298 172,285 C 187,281 219,261 242,239 L 284,201 L 288,100 L 292,0 L 321,0 L 350,0 L 350,90 C 350,174 351,180 371,180 C 401,180 430,198 430,218 C 430,228 448,253 471,275 C 549,351 615,428 607,436 C 598,445 565,432 541,409 L 518,387 L 497,408 C 478,428 478,430 494,454 C 503,468 517,480 524,480 C 547,480 551,509 530,522 C 519,529 510,542 510,551 C 510,560 503,573 495,580 C 474,597 476,610 499,610 C 510,610 522,615 525,620 C 528,626 539,630 549,630 C 559,630 580,646 594,665 L 621,700 L 595,710 C 580,716 563,720 556,720 C 548,720 537,726 531,734 C 521,746 523,749 541,752 C 563,755 567,760 591,815 C 598,832 606,849 608,854 C 611,858 597,859 579,855 L 545,848 L 569,874 C 595,902 591,915 555,922 C 527,927 530,953 560,960 C 576,964 586,974 588,988 C 590,1000 595,1010 600,1010 C 606,1010 630,1062 630,1076 C 630,1090 588,1076 578,1060 C 571,1049 560,1040 553,1040 C 538,1040 525,1081 538,1089 C 544,1092 552,1108 556,1124 C 560,1140 572,1162 582,1172 C 600,1190 600,1193 585,1209 C 571,1226 571,1230 587,1258 C 597,1275 602,1292 598,1295 C 589,1304 513,1263 502,1244 C 494,1229 490,1230 469,1253 C 457,1268 438,1280 428,1280 C 415,1280 410,1287 410,1305 C 410,1319 406,1330 401,1330 C 396,1330 390,1343 387,1359 C 383,1376 369,1395 350,1407 C 323,1424 321,1428 334,1440 C 358,1459 353,1486 324,1505 C 304,1518 301,1524 310,1536 C 320,1547 318,1559 305,1592 C 295,1616 290.98186,1674.8506 285.98186,1682.4724 L 270.75214,1702.521 L 255.98901,1715.6217 L 248.86532,1713.7013 C 248.9652,1710.7049 251.57762,1712.356 254.40707,1708.0817 C 258.90648,1701.2847 268.62374,1692.7465 273.93813,1683.6523 C 277.71913,1677.1821 281.56001,1667.2787 282.8626,1662.8621 C 290.10481,1638.3064 288.34546,1600.1939 294,1587 C 307,1561 309,1546 302,1537 C 290,1523 309,1490 329,1490 C 345,1490 342,1454 324,1440 C 311,1428 312,1424 338,1401 C 370,1373 400,1318 400,1288 C 400,1277 407,1270 418,1270 C 428,1270 446,1259 458,1245 C 484,1215 501,1213 517,1240 C 530,1259 590,1296 590,1284 C 590,1281 582,1265 573,1248 C 556,1220 556,1218 572,1209 C 591,1199 586,1170 565,1170 C 558,1170 549,1154 546,1135 C 542,1116 535,1100 530,1100 C 516,1100 518,1056 532,1042 C 550,1024 577,1028 583,1050 C 586,1061 595,1070 604,1070 C 617,1070 618,1066 608,1045 C 602,1031 593,1020 589,1020 C 585,1020 580,1010 578,998 C 576,984 566,974 550,970 C 521,963 509,923 534,915 C 543,912 557,908 566,905 C 580,901 578,897 559,882 C 530,858 542,836 578,845 C 603,851 604,850 588,833 C 579,823 570,806 568,795 C 566,784 553,769 538,762 C 514,751 512,746 522,730 C 529,719 551,708 572,705 L 610,698 L 583,669 C 567,653 550,640 544,640 C 528,640 470,610 470,602 C 470,598 477,586 485,576 C 493,565 500,549 500,539 C 500,530 510,519 523,516 C 545,510 545,510 525,495 C 461,446 455,426 496,397 C 520,379 521,379 551,404 C 627,468 585,399 505,328 C 453,282 420,243 420,228 C 420,202 386,189 341,196 C 313,201 286,216 253,246 C 221,276 193,292 168,297 C 147,300 130,306 130,310 C 130,314 121,320 110,323 C 91,328 66,374 34,460 C 16,507 23,508 56,465 C 89,421 123,420 128,462 C 131,484 127,490 113,490 C 103,490 84,507 71,527 C 48,562 48,563 69,557 C 102,549 95,582 54,625 C 24,658 21,665 34,672 C 43,677 50,689 50,698 C 50,708 57,726 66,738 C 75,751 80,762 79,764 C 77,765 62,772 46,778 C 16,791 20,805 55,812 C 82,817 86,847 61,855 C 48,859 40,870 40,882 L 40,903 L 63,882 C 76,870 99,860 114,860 C 140,860 138,863 80,919 C 47,951 20,984 20,991 C 20,1007 73,1060 89,1060 C 95,1060 100,1065 100,1072 C 100,1078 109,1094 121,1106 L 141,1127 L 112,1152 C 84,1175 80,1199 103,1201 C 110,1201 130,1219 148,1242 C 179,1281 180,1284 163,1302 C 147,1320 147,1322 174,1343 C 199,1364 200,1367 186,1379 C 177,1386 170,1399 170,1406 C 170,1414 166,1420 160,1420 C 155,1420 150,1425 150,1432 C 150,1438 144,1451 136,1459 C 129,1468 119,1486 115,1500 C 109,1520 110,1523 121,1513 C 138,1496 150,1497 150,1515 C 150,1523 161,1532 175,1536 C 205,1543 205,1545 180,1577 C 159,1604 153,1640 170,1640 C 176,1640 180,1652 180,1666 C 180,1687 182,1689 193,1678 C 200,1671 211.09456,1658.6851 215.09456,1649.6851 C 218.2487,1640.7961 225.69774,1633.083 229.41771,1633.2561 C 234.35732,1633.4859 241.80706,1652.0247 243.46179,1676.1575 C 244.19815,1679.3975 248.51008,1695.9533 249.07618,1698.9546 C 250.73583,1707.7538 258.39303,1710.0863 256.71861,1713.8686 C 255.41871,1716.805 250.04859,1725.2152 246,1712.2597 z M 341.97477,100 C 341.97477,58.357624 343.20233,28.555014 340.55105,16.239151 C 337.91791,4.0075043 329.46385,9.1217106 320,8.8084776 C 312.02277,8.5444487 304.15861,9.9014424 300.52791,18.57123 C 295.96621,29.464154 296.65278,50.86676 296.05047,83.404239 C 295.37763,119.75132 293.54416,150.70173 294,174 C 289,186 304.36753,188.21272 314,190 C 314,190 335.38062,190.31948 341.48108,181.65934 C 347.58153,172.99921 343.85524,164.92967 343.76836,153.7017 C 343.57887,129.21375 341.97477,100 341.97477,100 z"
       id="path5845"
       sodipodi:nodetypes="ccccsscsssscsccccccccssccscsccccccccscsccccccccccccsscsccccscscscscccsccccccccccsscscsscccccsssccccccccccsssccsccssccsccscsssscscccccccscccccsscscccccscccsccccsccccsccccccccscsssccccccccssscccsccssscscssccsssscczsc"
       style="fill:#002600;fill-opacity:1" />
  </g>
  <path
     style="opacity:1;fill:#076b04;fill-opacity:1;stroke:#379611;stroke-width:1.54222739000000010;stroke-miterlimit:4;stroke-dasharray:none;stroke-dashoffset:0;stroke-opacity:1;filter:url(#filter6389)"
     d="M 102.19272,396.75771 C 95.418124,394.65605 88.751263,391.0346 80.446034,384.94486 C 71.140972,378.122 62.010986,373.87829 52.265546,371.84632 C 47.475703,370.8476 42.169746,368.93945 40.474499,367.60597 C 38.779288,366.27247 36.678065,365.18146 35.805194,365.18146 C 32.639004,365.18146 24.033771,353.48056 17.318797,340.04471 C 13.54236,332.48845 10.4525,325.4506 10.4525,324.40499 C 10.4525,323.2243 12.684031,324.64891 16.34123,328.16435 C 24.558042,336.06265 27.684016,337.90734 32.851395,337.90734 C 37.995765,337.90734 40.794846,335.38766 41.788615,329.86227 C 42.679772,324.90759 40.816702,321.79082 36.96396,321.79082 C 34.736334,321.79082 31.560821,319.51342 26.159913,314.04249 L 18.510762,306.29416 L 23.847117,305.90966 C 33.330254,305.22634 32.212375,301.14754 18.793062,287.46865 L 10.05441,278.56101 L 13.972696,274.09838 C 16.127699,271.64394 17.890896,268.67145 17.890896,267.49283 C 17.890896,266.3142 19.867737,262.41444 22.283876,258.82669 C 24.699979,255.23895 26.390788,251.84063 26.041147,251.2749 C 25.691492,250.70919 22.041038,249.01959 17.928981,247.52026 C 13.816936,246.02094 10.4525,244.04299 10.4525,243.12485 C 10.4525,242.14568 13.023421,240.83874 16.670764,239.96377 C 20.122328,239.13574 23.646739,237.39025 24.591998,236.04071 C 26.695701,233.03729 25.814313,229.1319 22.818201,228.18096 C 18.308029,226.74948 14.171698,222.45641 14.171698,219.2068 L 14.171698,215.98133 L 16.961097,218.59995 C 21.410386,222.77684 30.416101,226.27467 36.796819,226.30418 C 40.035621,226.31917 42.685549,225.8041 42.685549,225.15962 C 42.685549,224.51515 36.973258,219.07582 29.991567,213.07223 C 15.36116,200.49145 7.9730347,193.33474 7.9730347,191.74328 C 7.9730347,189.65649 21.384302,178.36103 26.991203,175.72547 C 30.062889,174.28161 32.898083,172.08564 33.291686,170.84551 C 33.685276,169.60539 36.754135,165.88521 40.111369,162.57846 L 46.215428,156.56622 L 38.945921,151.21469 C 27.386517,142.70515 27.205355,141.41692 36.878394,136.51174 C 42.608215,133.60618 56.322609,119.25587 56.322609,116.16595 C 56.322609,114.94604 54.92791,112.63769 53.223277,111.03627 C 51.518645,109.43484 50.123945,107.49242 50.123945,106.71975 C 50.123945,105.94708 52.652355,103.53271 55.742637,101.35447 C 58.832931,99.17624 61.68056,96.562164 62.070729,95.54541 C 62.747027,93.782944 59.436569,88.89174 52.603411,81.557605 C 50.898778,79.727983 48.66726,76.782564 47.64448,75.012201 C 46.621701,73.241826 43.971772,69.077254 41.75575,65.757572 C 36.890171,58.468774 36.366719,55.394932 40.481937,58.277335 C 44.523342,61.108054 46.766514,60.645137 49.129258,56.492789 C 50.677114,53.772593 52.767613,52.383819 57.030893,51.243563 C 63.464076,49.522938 64.877905,47.665707 62.350784,44.255091 C 61.421753,43.001312 58.848564,39.578311 56.632542,36.648426 C 51.96206,30.473416 51.283492,24.889326 55.082876,23.895767 C 56.634042,23.490139 57.594959,22.159583 57.649482,20.341912 C 57.697373,18.743897 58.187935,16.32069 58.739542,14.956984 C 59.64839,12.710056 60.325061,13.105295 65.95429,19.171146 C 73.428465,27.225044 75.411021,26.990449 77.326656,17.825304 C 79.323828,8.2702134 80.325309,7.0374604 83.647966,10.04442 C 87.787991,13.79109 89.672211,18.36439 91.035124,27.974177 C 91.723423,32.827346 93.170142,38.506723 94.250035,40.595015 C 95.646966,43.296294 95.9432,45.689932 95.27677,48.890302 C 94.761537,51.364412 94.481605,54.225517 94.65461,55.248296 C 95.1207,58.003664 99.846449,62.686692 102.16087,62.686692 C 104.5645,62.686692 107.15165,65.042184 107.15165,67.23056 C 107.15165,68.093265 105.40201,70.791804 103.26356,73.227358 C 98.577583,78.564395 99.067265,80.235282 107.31885,87.064721 C 110.47914,89.680346 114.48129,93.524088 116.21249,95.606355 C 120.62874,100.91821 125.74764,110.88313 125.74764,114.16844 C 125.74764,117.55218 127.90211,119.46344 132.82665,120.44834 C 134.88553,120.86013 139.49424,123.41027 143.06828,126.11537 C 149.10361,130.68333 154.14701,133.35145 156.74626,133.35145 C 157.34226,133.35145 160.43342,131.0981 163.61553,128.34401 C 169.08174,123.61301 183.71228,115.27915 184.74265,116.30953 C 185.00486,116.57172 183.28901,119.81604 180.92974,123.51917 C 175.81413,131.54863 175.58896,133.6436 179.61025,135.79574 C 182.85921,137.53452 184.46651,140.29616 183.31445,142.16024 C 182.92467,142.7909 180.79179,144.06481 178.57468,144.99119 C 175.26513,146.374 174.04854,148.03316 171.77795,154.26049 C 170.25686,158.43225 167.92489,162.42745 166.59584,163.13875 C 163.57219,164.75694 163.25423,173.62986 166.0755,177.6578 C 168.16369,180.63912 175.57794,183.20282 178.83869,182.07105 C 179.9811,181.67456 183.0274,179.10561 185.60833,176.36229 C 188.88551,172.8789 190.69351,171.76705 191.60256,172.6761 C 193.34184,174.41537 189.92158,181.02299 185.92736,183.64011 C 184.2801,184.71943 182.56957,187.25406 182.12623,189.2726 C 181.29513,193.05637 178.25779,195.65783 172.85748,197.21109 C 168.11181,198.57607 164.17935,202.81247 164.17935,206.55999 C 164.17935,210.8753 166.01067,212.30223 173.88027,214.11876 C 177.40886,214.93326 180.29588,215.9568 180.29588,216.39332 C 180.29588,216.82983 178.63993,218.41129 176.61599,219.90766 C 171.21074,223.90388 169.90725,226.92327 172.47755,229.49358 C 174.13392,231.14994 175.9855,231.44233 181.32699,230.89104 L 188.08181,230.19388 L 184.48126,234.15139 C 182.50091,236.32799 179.87396,240.10893 178.64354,242.55344 C 177.18541,245.45034 174.17234,248.27314 169.99065,250.65986 C 166.46196,252.67386 163.38306,255.31783 163.14859,256.53532 C 162.20334,261.44345 170.74742,266.03257 184.39851,267.94891 L 190.36076,268.78589 L 187.52626,271.80309 C 182.82496,276.80738 174.22111,281.90742 166.8796,284.04165 C 158.22531,286.55751 148.06283,291.63426 148.06283,293.44169 C 148.06283,294.19117 150.01541,297.46433 152.40189,300.71536 C 154.78838,303.9664 156.74095,307.42128 156.74095,308.39284 C 156.74095,311.48171 159.72626,314.39229 164.6199,316.07466 L 169.36673,317.70653 L 160.61171,324.07442 C 150.3641,331.52787 147.45802,335.32886 148.58227,339.8082 C 149.52138,343.55 159.45956,350.30467 164.0257,350.30467 C 165.71979,350.30467 170.64809,347.9968 174.97752,345.17606 C 179.30695,342.35528 183.21034,340.40855 183.6517,340.84992 C 184.96025,342.15852 178.2495,348.49011 159.84029,363.31598 C 139.93479,379.34688 135.56372,383.68697 132.36554,390.59598 C 130.67585,394.24613 128.92707,395.94544 125.73931,397.03461 C 119.94694,399.01372 109.05182,398.88557 102.19272,396.75769 L 102.19272,396.75771 z"
     id="path6371"
     transform="matrix(1.44,0,0,1.44,-20,0)" />
  <path
     style="fill:#584b00;fill-rule:evenodd;stroke:#423400;stroke-width:3.30336;stroke-linecap:butt;stroke-linejoin:miter;stroke-opacity:1;fill-opacity:1;filter:url(#filter6471);stroke-miterlimit:4;stroke-dasharray:none"
     d="M 110.54385,572.57466 C 111.5001,572.26465 113.09234,573.37915 114.33743,573.69042 C 115.42995,573.96355 116.41642,573.91358 117.68471,573.91358 C 118.57773,573.91358 120.23597,574.71875 121.47829,575.02934 C 122.5771,575.30404 123.05451,574.64235 124.60242,575.02933 C 125.93418,575.36227 127.16233,575.42866 128.396,575.73708 C 130.00497,576.13932 131.60713,576.53725 133.49021,576.53725 C 135.09086,576.53725 135.23433,579.63989 136.42947,579.93868 C 137.52244,580.21192 138.5943,580.98775 139.33044,581.72389 C 140.38943,582.78288 140.99615,580.91699 140.99615,583.19353 C 140.99615,584.88402 140.84966,586.13518 140.4462,587.74899 C 140.37182,588.04653 140.29743,588.34406 140.22305,588.6416 C 139.87512,590.03332 139.63241,590.92534 139.33044,592.43518 C 139.09936,593.5906 138.66099,595.46425 138.66099,596.67507 C 138.66099,598.15787 138.43784,599.4059 138.43784,600.91495 C 138.43784,602.17948 138.43784,603.44401 138.43784,604.70854 C 138.43784,606.86567 138.43784,609.0228 138.43784,611.17994 C 138.43784,612.56368 138.44004,613.87099 138.66099,615.19667 C 138.90385,616.65384 138.66099,618.39266 138.66099,619.88286 C 138.66099,621.61987 138.88414,623.40002 138.88414,625.23851 C 138.88414,626.87496 138.88414,628.5114 138.88414,630.14785 C 138.88414,631.97379 138.43784,633.51199 138.43784,635.50349 C 138.43784,637.21433 138.43784,638.92516 138.43784,640.63599 L 136.20632,645.99163 C 136.20632,646.06907 132.83589,645.77311 130.62752,646.21478 C 129.19143,646.502 127.84696,648.1461 127.05709,646.66109 C 126.51426,645.64053 123.26069,645.54533 122.14775,645.54533 C 119.9686,645.54533 116.51953,646.84717 114.78374,645.54533 C 113.94226,644.91422 115.11696,641.97189 114.78374,641.30544 C 114.24891,640.23579 114.20656,638.55042 113.89113,637.28871 C 113.59696,636.11202 112.99852,635.10742 112.99852,633.27198 C 112.99852,631.97281 112.92684,630.65774 113.22167,629.47839 C 113.29606,629.18086 113.37044,628.88332 113.44482,628.58579 C 113.78841,627.21144 113.44482,625.33092 113.44482,623.8996 C 113.44482,621.66808 113.44482,619.43656 113.44482,617.20504 C 113.44482,614.72481 112.55222,613.03863 112.55222,610.51048 C 112.55222,609.3142 112.32907,608.02812 112.32907,606.7169 C 112.32907,605.22922 112.32907,603.74154 112.32907,602.25386 C 112.32907,600.61742 112.32907,598.98097 112.32907,597.34452 C 112.32907,595.85684 112.32907,594.36916 112.32907,592.88149 C 112.32907,590.7032 112.55222,588.59757 112.55222,586.41008 C 112.55222,584.36846 110.99015,582.64949 110.99015,580.60813 C 110.99015,579.06703 110.54385,577.74482 110.54385,576.14509 C 110.54385,574.95495 110.54385,573.7648 110.54385,572.57466 z"
     id="path6449"
     sodipodi:nodetypes="csssssssssssssssssssssccsssssssssssssssssssc" />
</svg>
