<?xml version="1.0" encoding="UTF-8" standalone="no"?>
<svg
   xmlns:dc="http://purl.org/dc/elements/1.1/"
   xmlns:cc="http://creativecommons.org/ns#"
   xmlns:rdf="http://www.w3.org/1999/02/22-rdf-syntax-ns#"
   xmlns:svg="http://www.w3.org/2000/svg"
   xmlns="http://www.w3.org/2000/svg"
   xmlns:xlink="http://www.w3.org/1999/xlink"
   xmlns:sodipodi="http://sodipodi.sourceforge.net/DTD/sodipodi-0.dtd"
   xmlns:inkscape="http://www.inkscape.org/namespaces/inkscape"
   version="1.0"
   width="300"
   height="200"
   preserveAspectRatio="xMidYMid meet"
   id="svg2478"
   sodipodi:version="0.32"
   inkscape:version="0.46"
   sodipodi:docname="pf10.svg"
   inkscape:output_extension="org.inkscape.output.svg.inkscape"
   inkscape:export-filename="D:\Documents\rodolfo\faculdade\Bolsa2\arvores\arvores ana\convertidos vetor\ideia nova\cor,agrupado,tronco e copa\novoPf10.png"
   inkscape:export-xdpi="90"
   inkscape:export-ydpi="90">
  <defs
     id="defs2487">
    <inkscape:perspective
       sodipodi:type="inkscape:persp3d"
       inkscape:vp_x="0 : 185.625 : 1"
       inkscape:vp_y="0 : 1000 : 0"
       inkscape:vp_z="586.25 : 185.625 : 1"
       inkscape:persp3d-origin="293.125 : 123.75 : 1"
       id="perspective2489" />
    <inkscape:perspective
       sodipodi:type="inkscape:persp3d"
       inkscape:vp_x="0 : 450 : 1"
       inkscape:vp_y="0 : 1000 : 0"
       inkscape:vp_z="310 : 450 : 1"
       inkscape:persp3d-origin="155 : 270 : 1"
       id="perspective5850" />
    <radialGradient
       r="191.62799"
       fy="146.02631"
       fx="192.00943"
       cy="146.02631"
       cx="192.00943"
       gradientTransform="matrix(1,0,0,0.7512998,0,36.316769)"
       gradientUnits="userSpaceOnUse"
       id="radialGradient2430"
       xlink:href="#linearGradient29444"
       inkscape:collect="always" />
    <radialGradient
       r="191.62799"
       fy="146.02631"
       fx="192.00943"
       cy="146.02631"
       cx="192.00943"
       gradientTransform="matrix(1,0,0,0.7512998,0,36.316769)"
       gradientUnits="userSpaceOnUse"
       id="radialGradient2414"
       xlink:href="#linearGradient29444"
       inkscape:collect="always" />
    <radialGradient
       r="191.62799"
       fy="146.02631"
       fx="192.00943"
       cy="146.02631"
       cx="192.00943"
       gradientTransform="matrix(1,0,0,0.7512998,0,36.316769)"
       gradientUnits="userSpaceOnUse"
       id="radialGradient2528"
       xlink:href="#linearGradient29444"
       inkscape:collect="always" />
    <radialGradient
       r="191.62799"
       fy="146.02631"
       fx="192.00943"
       cy="146.02631"
       cx="192.00943"
       gradientTransform="matrix(1,0,0,0.7512998,0,36.316769)"
       gradientUnits="userSpaceOnUse"
       id="radialGradient2519"
       xlink:href="#linearGradient29444"
       inkscape:collect="always" />
    <radialGradient
       r="191.62799"
       fy="146.02631"
       fx="192.00943"
       cy="146.02631"
       cx="192.00943"
       gradientTransform="matrix(1,0,0,0.7512998,0,36.316769)"
       gradientUnits="userSpaceOnUse"
       id="radialGradient29617"
       xlink:href="#linearGradient29444"
       inkscape:collect="always" />
    <radialGradient
       gradientUnits="userSpaceOnUse"
       gradientTransform="matrix(1,0,0,0.7512998,0,36.316769)"
       r="191.62799"
       fy="146.02631"
       fx="192.00943"
       cy="146.02631"
       cx="192.00943"
       id="radialGradient29452"
       xlink:href="#linearGradient29444"
       inkscape:collect="always" />
    <inkscape:perspective
       id="perspective28801"
       inkscape:persp3d-origin="191.875 : 270 : 1"
       inkscape:vp_z="383.75 : 405 : 1"
       inkscape:vp_y="0 : 1000 : 0"
       inkscape:vp_x="0 : 405 : 1"
       sodipodi:type="inkscape:persp3d" />
    <linearGradient
       id="linearGradient29444"
       inkscape:collect="always">
      <stop
         id="stop29446"
         offset="0"
         style="stop-color:#00b819;stop-opacity:1;" />
      <stop
         id="stop29448"
         offset="1"
         style="stop-color:#00b819;stop-opacity:0;" />
    </linearGradient>
    <inkscape:perspective
       sodipodi:type="inkscape:persp3d"
       inkscape:vp_x="0 : 450 : 1"
       inkscape:vp_y="0 : 1000 : 0"
       inkscape:vp_z="310 : 450 : 1"
       inkscape:persp3d-origin="155 : 270 : 1"
       id="perspective3256" />
    <radialGradient
       r="191.62799"
       fy="146.02631"
       fx="192.00943"
       cy="146.02631"
       cx="192.00943"
       gradientTransform="matrix(1,0,0,0.7512998,0,36.316769)"
       gradientUnits="userSpaceOnUse"
       id="radialGradient3254"
       xlink:href="#linearGradient29444"
       inkscape:collect="always" />
    <radialGradient
       r="191.62799"
       fy="146.02631"
       fx="192.00943"
       cy="146.02631"
       cx="192.00943"
       gradientTransform="matrix(1,0,0,0.7512998,0,36.316769)"
       gradientUnits="userSpaceOnUse"
       id="radialGradient3252"
       xlink:href="#linearGradient29444"
       inkscape:collect="always" />
    <radialGradient
       r="191.62799"
       fy="146.02631"
       fx="192.00943"
       cy="146.02631"
       cx="192.00943"
       gradientTransform="matrix(1,0,0,0.7512998,0,36.316769)"
       gradientUnits="userSpaceOnUse"
       id="radialGradient3250"
       xlink:href="#linearGradient29444"
       inkscape:collect="always" />
    <radialGradient
       r="191.62799"
       fy="146.02631"
       fx="192.00943"
       cy="146.02631"
       cx="192.00943"
       gradientTransform="matrix(1,0,0,0.7512998,0,36.316769)"
       gradientUnits="userSpaceOnUse"
       id="radialGradient3248"
       xlink:href="#linearGradient29444"
       inkscape:collect="always" />
    <radialGradient
       gradientUnits="userSpaceOnUse"
       gradientTransform="matrix(1,0,0,0.7512998,0,36.316769)"
       r="191.62799"
       fy="146.02631"
       fx="192.00943"
       cy="146.02631"
       cx="192.00943"
       id="radialGradient3246"
       xlink:href="#linearGradient29444"
       inkscape:collect="always" />
    <inkscape:perspective
       id="perspective3244"
       inkscape:persp3d-origin="191.875 : 270 : 1"
       inkscape:vp_z="383.75 : 405 : 1"
       inkscape:vp_y="0 : 1000 : 0"
       inkscape:vp_x="0 : 405 : 1"
       sodipodi:type="inkscape:persp3d" />
    <inkscape:perspective
       sodipodi:type="inkscape:persp3d"
       inkscape:vp_x="0 : 450 : 1"
       inkscape:vp_y="0 : 1000 : 0"
       inkscape:vp_z="310 : 450 : 1"
       inkscape:persp3d-origin="155 : 270 : 1"
       id="perspective4063" />
    <radialGradient
       r="191.62799"
       fy="146.02631"
       fx="192.00943"
       cy="146.02631"
       cx="192.00943"
       gradientTransform="matrix(1,0,0,0.7512998,0,36.316769)"
       gradientUnits="userSpaceOnUse"
       id="radialGradient4061"
       xlink:href="#linearGradient29444"
       inkscape:collect="always" />
    <radialGradient
       r="191.62799"
       fy="146.02631"
       fx="192.00943"
       cy="146.02631"
       cx="192.00943"
       gradientTransform="matrix(1,0,0,0.7512998,0,36.316769)"
       gradientUnits="userSpaceOnUse"
       id="radialGradient4059"
       xlink:href="#linearGradient29444"
       inkscape:collect="always" />
    <radialGradient
       r="191.62799"
       fy="146.02631"
       fx="192.00943"
       cy="146.02631"
       cx="192.00943"
       gradientTransform="matrix(1,0,0,0.7512998,0,36.316769)"
       gradientUnits="userSpaceOnUse"
       id="radialGradient4057"
       xlink:href="#linearGradient29444"
       inkscape:collect="always" />
    <radialGradient
       r="191.62799"
       fy="146.02631"
       fx="192.00943"
       cy="146.02631"
       cx="192.00943"
       gradientTransform="matrix(1,0,0,0.7512998,0,36.316769)"
       gradientUnits="userSpaceOnUse"
       id="radialGradient4055"
       xlink:href="#linearGradient29444"
       inkscape:collect="always" />
    <radialGradient
       gradientUnits="userSpaceOnUse"
       gradientTransform="matrix(1,0,0,0.7512998,0,36.316769)"
       r="191.62799"
       fy="146.02631"
       fx="192.00943"
       cy="146.02631"
       cx="192.00943"
       id="radialGradient4053"
       xlink:href="#linearGradient29444"
       inkscape:collect="always" />
    <inkscape:perspective
       id="perspective4051"
       inkscape:persp3d-origin="191.875 : 270 : 1"
       inkscape:vp_z="383.75 : 405 : 1"
       inkscape:vp_y="0 : 1000 : 0"
       inkscape:vp_x="0 : 405 : 1"
       sodipodi:type="inkscape:persp3d" />
  </defs>
  <sodipodi:namedview
     inkscape:window-height="753"
     inkscape:window-width="1280"
     inkscape:pageshadow="2"
     inkscape:pageopacity="0.0"
     guidetolerance="10.0"
     gridtolerance="10.0"
     objecttolerance="10.0"
     borderopacity="1.0"
     bordercolor="#666666"
     pagecolor="#ffffff"
     id="base"
     showgrid="false"
     inkscape:zoom="26.045558"
     inkscape:cx="14.304717"
     inkscape:cy="192.93546"
     inkscape:window-x="0"
     inkscape:window-y="20"
     inkscape:current-layer="svg2478"
     borderlayer="true"
     showguides="true"
     inkscape:guide-bbox="true" />
  <metadata
     id="metadata2480">
Created by potrace 1.8, written by Peter Selinger 2001-2007
<rdf:RDF>
  <cc:Work
     rdf:about="">
    <dc:format>image/svg+xml</dc:format>
    <dc:type
       rdf:resource="http://purl.org/dc/dcmitype/StillImage" />
  </cc:Work>
</rdf:RDF>
</metadata>
  <g
     id="PF10">
    <g
       id="agrupamentoPF10">
      <g
         id="agrupamentoTroncoPF10">
        <path
           style="fill:none;fill-rule:evenodd;stroke:#000000;stroke-width:0.50984669px;stroke-linecap:butt;stroke-linejoin:miter;stroke-opacity:1"
           d="M 2.1893209,3.585147 C 2.4772759,4.046851 2.6936499,5.697761 2.6936499,6.232288 C 3.1178729,6.912484 3.5081859,6.800831 4.5215289,6.794616 C 4.5724909,6.794303 4.6250309,6.794251 4.6792279,6.794592 C 5.6905449,6.800956 6.2932679,6.93272 6.5242839,5.896968 C 6.7515669,4.877952 6.2655089,4.448691 6.5930869,3.558051 C 7.2928469,1.655514 9.5867379,0.36301294 8.4074629,0.35705894 C 6.0731509,-0.075325055 2.7505379,0.49068794 0.33674969,0.35705994 C -0.14464991,0.61418594 1.6315369,2.697596 2.1893209,3.585147 z"
           id="troncoPF10"
           sodipodi:nodetypes="ccsszsccc" />
        <path
           style="opacity:1;fill:#5b2e08;fill-opacity:1;stroke:none"
           d="M 11.63063,31.604248 C 11.470313,31.461007 11.490845,31.415118 11.444699,30.929291 C 11.378726,28.99422 10.380167,27.62157 9.4443263,26.052403 C 9.4443263,25.991587 12.155583,25.79705 14.108209,25.769854 L 16.666464,26.036392 C 15.998856,26.96934 15.303527,27.780269 14.768846,28.765349 C 14.657301,29.096425 14.651481,29.184951 14.687463,30.003497 C 14.731455,31.004234 14.686497,31.279491 14.438571,31.527418 L 14.281983,31.684007 L 13.14909,31.684007 L 12.016198,31.684007 L 11.63063,31.604248 z"
           id="preenchimentoTroncoPF10"
           transform="matrix(1.0787134,0,0,1.038589,-9.6034867,-26.389999)"
           sodipodi:nodetypes="ccccccsccccc" />
      </g>
      <g
         id="agrupamentoCopaPF10">
        <g
           transform="matrix(3.2230859e-2,0,0,-4.7298576e-2,1.2117756e-2,26.761948)"
           id="copaPF10"
           style="fill:#000000;stroke:none">
          <path
             d="M 279.36397,533.73624 C 278.88433,511.49568 263.24462,483.20629 244.55707,478.42773 C 215.20258,506.08684 185.22902,537.79283 178.12955,489.62168 C 153.21253,497.00722 130.38463,499.78473 120.76027,491.22876 C 115.8172,486.8344 138.17989,476.36811 132.54272,472.21733 C 114.41113,458.86662 83.55707,451.62896 83.55707,444.42773 C 108.83753,432.29372 92.936081,424.58687 98.55707,414.42773 C 87.55707,402.42773 67.688668,376.5694 75.688668,367.5694 L 29.510482,332.11388 C 45.006354,307.73926 34.932777,311.03073 48.156123,298.09447 C 39.617088,289.41071 9.3631405,273.28081 7.324993,262.18388 C 4.3970295,246.24226 37.630314,227.57527 45.498269,222.18303 C 38.45073,218.76778 6.1539039,211.14386 0.7580413,194.08125 C -5.5925506,173.99964 16.278951,144.13897 27.92103,140.97705 C 89.70197,124.94857 -10.21134,146.97442 30.612314,85.334288 C 32.183137,74.020639 -2.576061,64.125582 0.4678151,56.135407 C 5.4678151,44.135407 11.687135,46.935594 28.467815,46.135407 C 97.823553,42.828179 95.814027,12.761433 150.23994,9.8558569 C 403.88596,-3.6852613 578.20341,1.1738557 753.37933,13.650297 C 788.68828,16.165084 831.89525,36.757374 862.46782,52.903736 C 909.87126,61.162925 918.01475,100.7191 914.21254,107.69039 C 909.0333,117.18645 902.42834,109.01381 884.42834,104.60327 C 836.83465,108.16031 875.33306,126.24447 913.62901,138.28899 C 923.70677,166.80687 904.86897,162.35734 896.55004,177.97705 C 892.55004,181.97705 914.80532,190.84403 922.80532,202.84403 C 942.24602,236.00369 907.45796,252.55018 868.76145,267.84403 C 862.89012,269.10217 861.60537,288.21071 852.18374,291.96048 C 838.70577,297.32466 811.39685,288.26746 810.80357,295.24868 C 809.83377,306.66041 844.05648,317.43097 856.80532,321.84403 C 872.80532,326.84403 875.80532,334.84403 873.80532,364.84403 C 871.80532,394.84403 877.84481,348.38079 852.84481,360.38079 C 816.84481,377.38079 814.84481,383.38079 836.84481,405.38079 C 851.84481,419.38079 822.33982,408.65255 808.33982,437.65255 C 804.12178,446.08863 838.75814,462.50097 836.78378,472.55921 C 834.88029,482.25646 796.16777,478.33251 782.37957,483.6817 C 774.49794,486.73941 789.65851,500.15798 786.86788,502.36845 C 771.99301,514.15089 741.88575,500.75641 720.33982,499.65255 C 689.39435,499.20122 671.30219,512.55297 644.33982,520.65255 C 634.68491,521.29621 621.00236,516.26858 591.65882,522.02622 C 575.41385,525.21372 567.24853,555.82558 562.25979,556.8946 C 522.24048,529.86344 495.87472,537.72966 447.80439,545.21896 C 429.93599,537.08941 409.45004,535.7129 392.45004,541.7129 C 379.45004,544.7129 364.96052,554.51381 355.96052,561.51381 C 336.96052,578.51381 288.32679,549.47705 279.36397,533.73624 z M 451.03948,536.0307 C 491.07702,528.1893 514.70517,525.19987 555.91612,543.04217 C 563.55674,539.07239 559.02137,512.83535 574.65559,510.36778 C 603.28328,505.84945 627.24818,512.99607 639.33982,511.65255 C 668.3757,499.65918 678.92222,489.58583 714.33982,487.65255 C 735.33982,489.65255 766.09231,497.33147 766.09231,493.33147 C 766.09231,488.33147 757.33982,474.65255 765.33982,474.65255 C 769.91136,474.65255 805.11973,477.31545 814.295,470.56336 C 821.17606,465.49959 805.34623,452.49351 795.33982,443.65255 C 809.33982,415.65255 838.84481,425.38079 825.84481,407.38079 C 804.84481,377.38079 806.84481,371.38079 841.84481,356.38079 C 866.84481,345.38079 860.80532,392.84403 862.80532,366.84403 C 864.80532,341.84403 860.80532,332.84403 846.80532,329.84403 C 832.58726,326.08043 795.81809,310.1323 796.89349,295.83491 C 797.74467,284.51845 815.73766,283.92346 842.56924,281.42533 C 871.10294,248.98854 912.88648,244.70046 910.80532,200.84403 C 902.80532,187.84403 879.24609,176.84403 883.24609,176.84403 C 909.97338,156.94812 895.89491,145.13816 863.99081,130.57799 C 854.73554,123.30047 850,120 850,110 C 850,88 861.46782,103.03676 897.46782,94.036758 C 892.30988,82.892262 909.87126,87.184731 862.46782,68.036758 C 831.02961,52.782895 784.19477,33.989039 736.71006,24.791003 C 634.60328,5.0123872 274.47425,19.117376 176.11173,21.181439 C 144.96872,21.834951 29.112643,61.296614 24.467815,60.135407 C 20.376232,63.114497 42.237814,80.848093 50.478591,87.717795 C 48.322861,94.794544 22.062241,109.03771 25.133442,113.94509 C 91.106364,121.20615 95.703233,148.833 38.92103,144.97705 C 24.552354,152.30801 8.6135903,174.1627 14.796297,189.41433 C 21.018287,204.76285 49.444277,213.50047 61.030451,218.27895 C 56.014623,230.47058 18.594385,246.28291 19.454428,259.99285 C 68.953887,285.59942 70.200263,304.95236 48.421668,329.47312 C 78.664708,348.40411 88.751941,369.47274 117.38076,410.57223 C 127.82581,434.05798 119.72805,433.23327 98.666013,442.08763 C 146.32443,466.65767 185.33064,466.64247 192.54789,508.45068 C 199.49639,508.80858 192.55707,507.42773 213.55707,490.42773 C 247.55707,463.42773 252.63671,462.39876 264.55707,476.42773 C 269.94675,482.7708 288.89104,535.29065 315.8296,544.40321 C 339.62247,552.45168 343.16696,549.4038 349.30394,550.11475 C 383.42897,529.13132 410.11318,530.69354 451.03948,536.0307 z"
             id="path2484"
             sodipodi:nodetypes="cccsscccccscscccssscscccccsscssccsssccscccccccsccssscccscsccccsccssccccscccccccsscc" />
        </g>
        <path
           style="opacity:1;fill:#339900;fill-opacity:1;stroke:none"
           d="M 12.093636,25.23541 C 9.1469466,25.143947 5.8499407,25.00843 5.3375819,24.957715 C 4.6001725,24.884722 4.4127257,24.814824 1.3433445,23.468233 C 0.55815128,23.123754 0.56103408,23.132602 1.0592166,22.596441 C 1.6301629,21.837508 1.2774319,21.632004 0.74080288,20.873107 C 0.90979051,20.340031 1.5595918,20.288653 2.0243521,20.083011 C 2.5045223,20.119165 2.0289776,19.486519 2.0313342,19.182624 C 1.1253646,20.170678 0.49378282,18.811335 0.22761158,17.195366 C 0.4914137,16.602224 1.2656267,16.403293 1.755476,16.0515 C 1.35323,15.436656 0.58354471,14.832298 0.57838798,14.19492 C 0.57323707,13.558261 1.5313627,13.446115 1.8714924,12.615069 C 1.9148374,11.564106 1.5673915,11.524884 1.2940763,11.127845 C 1.2134047,10.87367 1.616921,10.114299 2.4875898,9.5278479 C 3.2708451,7.9564329 3.0061772,7.8812691 3.5805824,6.5787213 C 3.5665907,6.1200685 3.1142304,5.93171 2.8095083,5.6682216 C 2.8095083,5.6112722 3.2069874,5.4156068 3.8839326,5.13932 C 4.5494028,4.7866996 4.2928203,4.2375664 4.2044499,3.6351122 C 5.3322001,4.2616762 5.4701742,4.1250669 5.7280629,2.8637306 C 6.1702796,3.5183989 7.3096158,5.3038143 7.6958402,4.6205643 C 8.1317298,3.849454 8.4252488,2.1856167 8.8611384,1.5050294 L 9.7678348,1.0312436 C 10.34214,0.73114582 10.848772,1.3847172 11.498259,1.7807372 C 12.425647,1.6368679 12.924525,1.9403115 13.366552,1.5408317 C 14.35907,1.9131811 14.601936,1.8707565 15.7026,1.761757 C 16.113687,1.33246 16.405161,1.1368348 16.52008,1.1368348 C 16.822153,1.4420747 16.886969,2.2555666 17.045925,2.7111828 C 17.184115,2.7869528 18.274873,2.6498482 18.970713,2.5857321 C 20.107863,3.34714 19.979383,3.157063 20.568295,3.6718178 C 21.181168,3.6126243 22.458499,3.4856238 22.859975,3.4459173 L 22.684434,4.3513951 C 23.22007,4.2699812 23.737703,4.4497167 24.234364,4.5396447 C 24.282755,4.9492118 23.936656,5.5104373 23.747534,5.9233032 C 23.962524,6.4221539 24.420567,6.7620958 24.767999,7.1721956 C 24.005732,8.7988782 23.928543,9.2224462 25.616943,9.7974519 C 25.952919,9.3888436 25.774951,11.019467 25.034233,11.02787 C 23.983282,11.643781 23.510946,12.356331 23.859711,12.799714 C 23.984747,12.958671 24.615032,13.066398 25.204356,13.156237 C 25.512493,13.833426 25.640129,13.891156 25.905592,14.32857 C 27.038828,14.882098 27.823242,15.425216 27.250659,16.655407 L 26.27731,17.900649 L 26.65776,18.134824 C 27.165151,18.604549 26.688794,18.938004 26.589091,19.577185 C 25.790172,19.813424 25.68217,20.313683 25.337982,20.96539 C 25.337982,21.494717 25.363352,21.51988 25.934668,21.557223 C 26.594259,21.600336 26.829114,21.654215 26.829114,21.888572 C 26.438483,22.872605 24.715372,23.468549 23.704953,24.067822 C 22.226603,24.821524 21.392715,25.030857 19.284014,25.177628 C 18.18176,25.254349 13.830332,25.289316 12.093636,25.23541 L 12.093636,25.23541 z"
           id="preenchimentoCopaPF10"
           transform="matrix(1.0787134,0,0,1.038589,7.3338223e-2,-0.2007465)"
           sodipodi:nodetypes="cssccccccsccccccccscsccccccccccccccscccccccsccscc" />
      </g>
    </g>
  </g>
</svg>
