<?xml version="1.0" encoding="UTF-8" standalone="no"?>
<svg
   xmlns:dc="http://purl.org/dc/elements/1.1/"
   xmlns:cc="http://creativecommons.org/ns#"
   xmlns:rdf="http://www.w3.org/1999/02/22-rdf-syntax-ns#"
   xmlns:svg="http://www.w3.org/2000/svg"
   xmlns="http://www.w3.org/2000/svg"
   xmlns:xlink="http://www.w3.org/1999/xlink"
   xmlns:sodipodi="http://sodipodi.sourceforge.net/DTD/sodipodi-0.dtd"
   xmlns:inkscape="http://www.inkscape.org/namespaces/inkscape"
   version="1.0"
   width="300"
   height="200"
   preserveAspectRatio="xMidYMid meet"
   id="svg9281"
   sodipodi:version="0.32"
   inkscape:version="0.46"
   sodipodi:docname="pf12.svg"
   inkscape:output_extension="org.inkscape.output.svg.inkscape">
  <defs
     id="defs9290">
    <inkscape:perspective
       sodipodi:type="inkscape:persp3d"
       inkscape:vp_x="0 : 208.75 : 1"
       inkscape:vp_y="0 : 1000 : 0"
       inkscape:vp_z="585 : 208.75 : 1"
       inkscape:persp3d-origin="292.5 : 139.16667 : 1"
       id="perspective9292" />
    <inkscape:perspective
       sodipodi:type="inkscape:persp3d"
       inkscape:vp_x="0 : 450 : 1"
       inkscape:vp_y="0 : 1000 : 0"
       inkscape:vp_z="310 : 450 : 1"
       inkscape:persp3d-origin="155 : 270 : 1"
       id="perspective5850" />
    <radialGradient
       r="191.62799"
       fy="146.02631"
       fx="192.00943"
       cy="146.02631"
       cx="192.00943"
       gradientTransform="matrix(1,0,0,0.7512998,0,36.316769)"
       gradientUnits="userSpaceOnUse"
       id="radialGradient2430"
       xlink:href="#linearGradient29444"
       inkscape:collect="always" />
    <radialGradient
       r="191.62799"
       fy="146.02631"
       fx="192.00943"
       cy="146.02631"
       cx="192.00943"
       gradientTransform="matrix(1,0,0,0.7512998,0,36.316769)"
       gradientUnits="userSpaceOnUse"
       id="radialGradient2414"
       xlink:href="#linearGradient29444"
       inkscape:collect="always" />
    <radialGradient
       r="191.62799"
       fy="146.02631"
       fx="192.00943"
       cy="146.02631"
       cx="192.00943"
       gradientTransform="matrix(1,0,0,0.7512998,0,36.316769)"
       gradientUnits="userSpaceOnUse"
       id="radialGradient2528"
       xlink:href="#linearGradient29444"
       inkscape:collect="always" />
    <radialGradient
       r="191.62799"
       fy="146.02631"
       fx="192.00943"
       cy="146.02631"
       cx="192.00943"
       gradientTransform="matrix(1,0,0,0.7512998,0,36.316769)"
       gradientUnits="userSpaceOnUse"
       id="radialGradient2519"
       xlink:href="#linearGradient29444"
       inkscape:collect="always" />
    <radialGradient
       r="191.62799"
       fy="146.02631"
       fx="192.00943"
       cy="146.02631"
       cx="192.00943"
       gradientTransform="matrix(1,0,0,0.7512998,0,36.316769)"
       gradientUnits="userSpaceOnUse"
       id="radialGradient29617"
       xlink:href="#linearGradient29444"
       inkscape:collect="always" />
    <radialGradient
       gradientUnits="userSpaceOnUse"
       gradientTransform="matrix(1,0,0,0.7512998,0,36.316769)"
       r="191.62799"
       fy="146.02631"
       fx="192.00943"
       cy="146.02631"
       cx="192.00943"
       id="radialGradient29452"
       xlink:href="#linearGradient29444"
       inkscape:collect="always" />
    <inkscape:perspective
       id="perspective28801"
       inkscape:persp3d-origin="191.875 : 270 : 1"
       inkscape:vp_z="383.75 : 405 : 1"
       inkscape:vp_y="0 : 1000 : 0"
       inkscape:vp_x="0 : 405 : 1"
       sodipodi:type="inkscape:persp3d" />
    <linearGradient
       id="linearGradient29444"
       inkscape:collect="always">
      <stop
         id="stop29446"
         offset="0"
         style="stop-color:#00b819;stop-opacity:1;" />
      <stop
         id="stop29448"
         offset="1"
         style="stop-color:#00b819;stop-opacity:0;" />
    </linearGradient>
    <inkscape:perspective
       sodipodi:type="inkscape:persp3d"
       inkscape:vp_x="0 : 450 : 1"
       inkscape:vp_y="0 : 1000 : 0"
       inkscape:vp_z="310 : 450 : 1"
       inkscape:persp3d-origin="155 : 270 : 1"
       id="perspective3256" />
    <radialGradient
       r="191.62799"
       fy="146.02631"
       fx="192.00943"
       cy="146.02631"
       cx="192.00943"
       gradientTransform="matrix(1,0,0,0.7512998,0,36.316769)"
       gradientUnits="userSpaceOnUse"
       id="radialGradient3254"
       xlink:href="#linearGradient29444"
       inkscape:collect="always" />
    <radialGradient
       r="191.62799"
       fy="146.02631"
       fx="192.00943"
       cy="146.02631"
       cx="192.00943"
       gradientTransform="matrix(1,0,0,0.7512998,0,36.316769)"
       gradientUnits="userSpaceOnUse"
       id="radialGradient3252"
       xlink:href="#linearGradient29444"
       inkscape:collect="always" />
    <radialGradient
       r="191.62799"
       fy="146.02631"
       fx="192.00943"
       cy="146.02631"
       cx="192.00943"
       gradientTransform="matrix(1,0,0,0.7512998,0,36.316769)"
       gradientUnits="userSpaceOnUse"
       id="radialGradient3250"
       xlink:href="#linearGradient29444"
       inkscape:collect="always" />
    <radialGradient
       r="191.62799"
       fy="146.02631"
       fx="192.00943"
       cy="146.02631"
       cx="192.00943"
       gradientTransform="matrix(1,0,0,0.7512998,0,36.316769)"
       gradientUnits="userSpaceOnUse"
       id="radialGradient3248"
       xlink:href="#linearGradient29444"
       inkscape:collect="always" />
    <radialGradient
       gradientUnits="userSpaceOnUse"
       gradientTransform="matrix(1,0,0,0.7512998,0,36.316769)"
       r="191.62799"
       fy="146.02631"
       fx="192.00943"
       cy="146.02631"
       cx="192.00943"
       id="radialGradient3246"
       xlink:href="#linearGradient29444"
       inkscape:collect="always" />
    <inkscape:perspective
       id="perspective3244"
       inkscape:persp3d-origin="191.875 : 270 : 1"
       inkscape:vp_z="383.75 : 405 : 1"
       inkscape:vp_y="0 : 1000 : 0"
       inkscape:vp_x="0 : 405 : 1"
       sodipodi:type="inkscape:persp3d" />
  </defs>
  <sodipodi:namedview
     inkscape:window-height="750"
     inkscape:window-width="1264"
     inkscape:pageshadow="2"
     inkscape:pageopacity="0.0"
     guidetolerance="10.0"
     gridtolerance="10.0"
     objecttolerance="10.0"
     borderopacity="1.0"
     bordercolor="#666666"
     pagecolor="#ffffff"
     id="base"
     showgrid="false"
     inkscape:zoom="21.041565"
     inkscape:cx="11.218669"
     inkscape:cy="188.67908"
     inkscape:window-x="8"
     inkscape:window-y="22"
     inkscape:current-layer="svg9281" />
  <metadata
     id="metadata9283">
Created by potrace 1.8, written by Peter Selinger 2001-2007
<rdf:RDF>
  <cc:Work
     rdf:about="">
    <dc:format>image/svg+xml</dc:format>
    <dc:type
       rdf:resource="http://purl.org/dc/dcmitype/StillImage" />
  </cc:Work>
</rdf:RDF>
</metadata>
  <g
     id="PF12">
    <g
       id="agrupamentoPF12">
      <g
         id="agrupamentoCopaPF12">
        <g
           transform="matrix(5.4080198e-2,0,0,-9.0355719e-2,-4.93959,31.403072)"
           id="copaPF12"
           style="opacity:1;fill:#000000;fill-opacity:1;stroke:none;stroke-width:0;stroke-miterlimit:4;stroke-dasharray:none;stroke-opacity:1">
          <path
             d="M 214,339 C 211,333 218,315 230,298 C 261,255 247,252 213,294 C 183,333 166,339 156,315 C 153,307 155,300 161,300 C 167,300 168,296 165,290 C 162,285 165,280 172,280 C 181,280 181,277 170,270 C 157,262 157,260 171,260 C 211.57267,247.19404 235.48849,194.12928 178,235 C 147,262 106,268 94,248 C 90,242 92,234 98,232 C 105,230 108,224 105,219 C 101,214 107,213 116,217 C 130,222 132,220 127,206 C 122,195 124,191 132,196 C 139,201 141,198 137,188 C 134,178 137,173 148,174 C 158,174 164,169 162,160 C 160,152 161,148 165,152 C 169,156 178,154 184,147 C 194,138 189,131 161,117 C 126,98 110,83 110,68 C 110,63 205,60 320,60 C 493,60 530,62 530,74 C 530,88 467,106 452,96 C 448,93 438,95 430,100 C 413.82461,119.66462 455.40074,122.85016 478,117 C 487,110 493.39394,121.51953 488.39394,134.51953 C 487.0854,140.97227 508.80329,123.33811 515,118 C 511,126 518,130 539,130 C 578,130 578,144 540,167 C 524,176 510,195.31172 510,201.31172 C 497.49786,197.3806 484.19105,186.27079 460,201 C 460,195 449,188 435,184 C 421,181 403,169 396,158 C 308.38809,103.73286 413.95596,208.23533 445,212 C 448,209 448,214 444,224 C 439,237 440,241 448,236 C 456,231 458,235 453,246 C 449,257 451,261 457,257 C 463,253 465,260 462,275 C 459,294 452,299 430,297 C 414,296 402,291 403,285 C 404,280 399,276 393,278 C 386,279 381,274 383,268 C 384,261 377,256 368,256 C 358,257 354,252 357,244 C 360,235 355,230 345,230 C 333,230 329,236 333,250 C 336,261 333,268 326,267 C 320,266 316,271 318,278 C 319,284 314,289 308,288 C 301,286 296,291 298,298 C 299,306 296,309 289,304 C 280,299 279,302 283,313 C 287,325 285,327 273,323 C 261,318 258,321 262,331 C 269,349 225,356 214,339 z M 320,233 C 324.09092,217.72734 341,204 381,240 C 418,273 450,294 450,285 C 450,268 427.18181,216.62988 389,193 C 373,179 360,162 360,154 C 360,132 391,124 401,143 C 413,164 468,191 476,179 C 479,174 496.90908,175.78574 505.90908,175.78574 C 514.90908,175.78574 524,162 535,154 C 554,139 554,138 521,142 C 489,147 429,132 413,116 C 402,105 438,81 458,87 C 468,89 486,87 500,81 C 518,74 467,71 321,71 C 143,70 119,72 130,85 C 136,93 157,105 176,112 C 195,118 210,128 210,133 C 210,138 194,158 175,177 C 156,196 140,216 140,221 C 140,226 134,230 126,230 C 118,230 108,235 105,240 C 93,259 137,250 173,226 C 201,206 211,204 219,214 C 227,224 220.60606,236.10391 207.60606,253.10391 C 195.97724,256.54933 175.65066,262.8495 189.9176,277.46998 C 184.50658,281.08988 170.10651,317.33919 172.19027,319.50421 C 175.65115,323.10007 201.4026,289.09505 219,270 C 257,228 272,218 281,227 C 290,236 285,248 261,278 C 244,300 227.36364,324.52598 227.36364,331.52598 C 227.36364,343.39947 292.65595,279.74254 303.87495,278.72932 C 303.24552,268.19261 316.38129,242.04678 320,233 z M 276,233 C 269,226 250,240 250,252 C 250,258 256,258 265,250 C 274,243 278,235 276,233 z"
             id="path9287"
             style="fill:#000000;fill-opacity:1;stroke:none;stroke-width:0;stroke-miterlimit:4;stroke-dasharray:none;stroke-opacity:1"
             sodipodi:nodetypes="ccccscsccccsccccccssccssscccccsccccccsscsccsccccsssccccccscccscsccsccscccccssssccsccscscscccscc" />
        </g>
        <path
           style="fill:#004800;fill-opacity:1;fill-rule:evenodd;stroke:none;stroke-width:10.54485702999999900;stroke-linecap:butt;stroke-linejoin:miter;stroke-miterlimit:4;stroke-dasharray:none;stroke-opacity:1"
           d="M -0.66051919,316.43714 C 40.289109,330.17287 95.71991,321.50753 190.26623,322.77667 C 269.53422,322.59319 337.6141,324.85665 445.95748,316.43713 C 427.54999,298.06382 396.16297,308.3726 364.77897,303.33954 C 342.33643,293.95206 340.816,285.49793 338.40879,275.86912 C 348.64359,262.49573 368.07568,256.39275 392.31469,252.44544 C 441.91053,239.32331 463.38077,249.33103 502.26487,245.60758 C 480.26937,215.9311 484.78304,224.95714 454.61655,208.5278 C 441.63027,208.5278 427.75104,208.95267 407.18693,202.40801 C 354.67533,204.91176 332.03083,237.92265 300.12004,257.90734 C 289.41692,252.55578 273.19768,244.87356 273.19768,230.93525 C 279.72824,213.16909 297.67018,196.72347 315.702,181.61589 C 331.10651,180.57215 379.71078,127.37385 382.59566,83.913635 C 364.79733,90.663658 357.31271,96.599644 343.98264,97.190415 C 328.16788,105.47661 320.57349,107.35845 313.8879,116.30841 C 308.07457,116.30841 289.33183,124.39895 289.33183,131.3195 C 289.33183,142.99351 285.56486,143.92896 281.23417,152.59034 C 216.59053,158.62388 217.33224,124.61735 201.47508,92.865124 C 172.46059,75.557419 181.76093,79.769514 159.88242,62.623191 C 136.41607,37.452098 143.70253,44.945715 119.77957,23.789488 C 106.86289,27.018657 115.62971,38.706272 118.28975,49.346411 C 135.94933,73.549297 138.06419,79.249124 148.5772,95.117358 C 163.10301,122.93361 184.28565,123.71805 181.78313,140.54955 C 174.08471,167.52871 154.85035,148.44622 132.67097,136.78139 C 115.96185,117.49385 110.18897,116.1097 93.505756,96.692098 C 54.506657,46.960287 20.405568,26.018832 62.377031,85.906908 C 58.626256,98.67678 55.961629,100.68804 59.215195,112.79564 C 81.872379,121.51342 89.603839,120.56333 94.899213,129.24645 C 113.64994,147.87835 110.56934,160.41315 93.73367,173.80101 C 55.865997,167.82385 28.27684,125.96087 -39.212376,126.45532 C -34.037892,140.40403 -41.956325,148.66847 -10.73902,146.49017 C 11.105182,161.92092 2.715879,155.40349 10.705863,171.2702 C 44.207491,192.4792 51.249115,215.57373 72.613061,232.41059 C 82.840313,240.08103 100.45171,259.38268 91.341409,259.38268 C 78.397563,259.38268 46.057695,277.2867 37.820951,283.46426 C 1.6663815,294.89451 -8.1358744,296.62898 -0.66051919,316.43714 z"
           id="preenchimentoCopaPF12"
           sodipodi:nodetypes="cccccccccccccccscccccccccccccccccscc"
           transform="matrix(4.4449694e-2,0,0,8.2208411e-2,2.3632147,-1.5330534)" />
      </g>
    </g>
  </g>
</svg>
