<?xml version="1.0" encoding="UTF-8" standalone="no"?>
<svg
   xmlns:dc="http://purl.org/dc/elements/1.1/"
   xmlns:cc="http://creativecommons.org/ns#"
   xmlns:rdf="http://www.w3.org/1999/02/22-rdf-syntax-ns#"
   xmlns:svg="http://www.w3.org/2000/svg"
   xmlns="http://www.w3.org/2000/svg"
   xmlns:sodipodi="http://sodipodi.sourceforge.net/DTD/sodipodi-0.dtd"
   xmlns:inkscape="http://www.inkscape.org/namespaces/inkscape"
   version="1.0"
   width="300"
   height="200"
   preserveAspectRatio="xMidYMid meet"
   id="svg4336"
   sodipodi:version="0.32"
   inkscape:version="0.46"
   sodipodi:docname="pf8.svg"
   inkscape:output_extension="org.inkscape.output.svg.inkscape">
  <defs
     id="defs4347" />
  <sodipodi:namedview
     inkscape:window-height="753"
     inkscape:window-width="1280"
     inkscape:pageshadow="2"
     inkscape:pageopacity="0.0"
     guidetolerance="10.0"
     gridtolerance="10.0"
     objecttolerance="10.0"
     borderopacity="1.0"
     bordercolor="#666666"
     pagecolor="#ffffff"
     id="base"
     showgrid="false"
     inkscape:zoom="9.1259258"
     inkscape:cx="37.500582"
     inkscape:cy="135.57226"
     inkscape:window-x="0"
     inkscape:window-y="20"
     inkscape:current-layer="svg4336" />
  <metadata
     id="metadata4338">
Created by potrace 1.8, written by Peter Selinger 2001-2007
<rdf:RDF>
  <cc:Work
     rdf:about="">
    <dc:format>image/svg+xml</dc:format>
    <dc:type
       rdf:resource="http://purl.org/dc/dcmitype/StillImage" />
  </cc:Work>
</rdf:RDF>
</metadata>
  <g
     id="PF8">
    <g
       id="agrupamentoPF8">
      <g
         id="agrupamentoTroncoPF8">
        <g
           id="troncoPF8"
           style="fill:#000e00;fill-opacity:1;stroke:#002200;stroke-opacity:1">
          <path
             d="M 1760,4108 C 1685.3925,3002.4966 1705.889,2487.1449 1680,1185 C 1675,866 1667,565 1664,517 L 1657,429 L 1761,432 L 1865,435 L 1864,540 C 1864,598 1860,931 1855,1280 L 1873.7068,3560.1973 C 1868.8258,3733.8387 1856.0803,3952.3689 1845.8737,4129.5594 C 1838.2449,4261.9969 1847.3232,4344.66 1836.4311,4376.7302 C 1839.4139,4396.6623 1832.1148,4442.7061 1824.2434,4457.0128 C 1817.2667,4469.6932 1810.3938,4451.0581 1801.6275,4461.8286 C 1778.1738,4450.2387 1778.4626,4402.4046 1775.7805,4374.5806 C 1771.6805,4332.0484 1763.5507,4290.5956 1766.954,4233 L 1760,4108 z M 1821.6149,4353.059 C 1888.6067,3096.1702 1827.4275,1860.3608 1854,602 L 1863,440 L 1765,440 L 1667,440 L 1673,517 C 1677,560 1684,858 1690,1180 C 1696,1502 1705,1882 1710,2025 C 1715,2168 1720,2416 1720,2575 C 1720,2854 1730,3194 1750,3575 C 1755,3674 1764,3883 1770,4040 C 1775,4197 1783,4345 1786,4370 C 1782.2419,4389.5233 1796.2919,4417.5011 1799,4430 C 1804,4430 1818.6149,4381.059 1821.6149,4353.059 z M 1863.046,3252.6509 L 1863.046,3252.6509 z M 1720,3172 L 1720,3134 L 1720,3210 L 1720,3172 z"
             id="path4602"
             style="fill:#6a4607;fill-opacity:1;stroke:none;stroke-opacity:1"
             sodipodi:nodetypes="cccccccccscscsccccccccsssccccccccccc"
             transform="matrix(3.0014931e-2,0,0,-4.1642179e-2,-49.713741,185.87449)" />
        </g>
        <g
           id="preenchimentoTroncoPF8">
          <g
             id="g3520"
             transform="translate(-9.9899936e-2,-225.60027)">
            <path
               style="opacity:1;fill:#6a4607;fill-opacity:1;stroke:none;stroke-opacity:1"
               d="M 0.49630636,392.41715 C 0.67044759,390.87488 0.84004244,383.63618 1.0710864,367.88433 L 1.1446176,362.87133 L 3.4665343,362.87133 L 5.78845,362.87133 L 5.8645749,374.10155 C 5.9094722,380.72477 6.0057693,386.87125 6.0993138,389.0845 C 6.186551,391.1485 6.2590203,392.87504 6.2603561,392.92125 C 6.2616918,392.96745 4.950386,393.00527 3.3463438,393.00527 L 0.42989994,393.00527 L 0.49630636,392.41715 z"
               id="path3524" />
            <path
               id="path3516"
               d="M 1.1219,362.90257 C 1.1217225,361.27444 1.4908631,339.34884 1.6730551,330.16616 C 1.7932303,324.10924 1.9395661,313.80344 1.9982495,307.26438 C 2.1634393,288.85711 2.3384309,279.27484 2.7251533,267.46019 L 2.7995786,265.18645 L 4.3004488,265.18645 L 5.8013201,265.18645 L 5.8716921,266.09047 C 5.962576,267.25792 5.962095,291.37756 5.8703925,331.46288 L 5.7974016,363.36827 L 3.4596804,363.36827 L 1.1219537,363.36827 L 1.1219,362.90257 z"
               style="opacity:1;fill:#6a4607;fill-opacity:1;stroke:none;stroke-opacity:1" />
            <path
               id="path3518"
               d="M 2.8388568,264.6468 C 2.8741573,264.05305 3.2561756,251.63619 3.6993777,236.67704 C 3.8338517,232.13831 4.0915472,226.84193 4.2072089,226.23974 C 4.2737677,225.8932 4.3711211,225.60967 4.4235486,225.60967 C 4.4759729,225.60967 4.5193767,225.62199 4.519998,225.63706 C 4.5206171,225.65213 4.6204525,226.1329 4.7418506,226.70545 C 4.9167917,227.53051 4.9954018,228.61014 5.1208335,231.9104 C 5.4299353,240.04321 5.8338044,257.46719 5.8338044,262.66978 L 5.8338044,265.38645 L 4.3143466,265.38645 L 2.7948832,265.38645 L 2.8388568,264.6468 z"
               style="opacity:1;fill:#6a4607;fill-opacity:1;stroke:none;stroke-opacity:1" />
          </g>
        </g>
      </g>
      <g
         id="agrupamentoCopaPF8">
        <g
           id="agrupamentoCopaDireitaPF8">
          <g
             id="copaDireitaPF8"
             style="fill:#000e00;fill-opacity:1;stroke:#002200;stroke-opacity:1">
            <path
               d="M 1838.6323,2982.3356 L 1924,2908 C 1996,2829 2114,2757 2199,2739 C 2230,2733 2271,2718 2290,2707 C 2309,2695 2363,2675 2410,2662 C 2457,2649 2527,2630 2565,2620 C 2604,2609 2652,2600 2672,2600 C 2692,2600 2712,2595 2715,2590 C 2719,2584 2736,2582 2756,2586 C 2787,2592 2790,2590 2790,2567 C 2790,2553 2794,2538 2800,2535 C 2806,2531 2807,2541 2803,2561 C 2799,2584 2800,2591 2808,2586 C 2815,2582 2820,2573 2820,2565 C 2820,2557 2824,2549 2828,2546 C 2833,2543 2834,2554 2832,2570 C 2829,2595 2832,2600 2854,2606 C 2878,2612 2880,2616 2880,2667 C 2880,2737 2868,2760 2830,2760 C 2807,2760 2800,2755 2800,2741 C 2800,2725 2792,2721 2763,2718 C 2734,2716 2724,2710 2722,2695 C 2713,2636 2710,2630 2682,2630 C 2648,2630 2534,2660 2455,2690 C 2422,2702 2378,2715 2358,2720 C 2337,2724 2314,2733 2306,2739 C 2298,2746 2279,2755 2263,2760 C 2242,2766 2255,2768 2314,2769 C 2371,2770 2398,2774 2411,2786 C 2424,2797 2433,2799 2447,2792 C 2457,2787 2493,2779 2528,2775 C 2592,2768 2704,2787 2760,2815 C 2785,2828 2841,2835 2893,2832 C 2916,2830 2920,2826 2915,2808 C 2910,2783 2929,2755 2973,2727 C 2988,2717 2998,2705 2995,2700 C 2991,2694 2994,2690 3000,2690 C 3008,2690 3010,2699 3006,2714 C 2999,2744 3027,2755 3048,2730 C 3060,2717 3061,2717 3056,2733 C 3052,2745 3056,2750 3070,2750 C 3081,2750 3090,2746 3090,2740 C 3090,2735 3095,2730 3100,2730 C 3106,2730 3108,2741 3104,2755 C 3099,2774 3102,2780 3114,2780 C 3123,2780 3133,2773 3136,2765 C 3140,2757 3146,2750 3151,2750 C 3156,2750 3155,2759 3148,2770 C 3141,2781 3129,2790 3122,2790 C 3113,2790 3111,2799 3115,2823 C 3119,2845 3117,2862 3108,2871 C 3101,2879 3089,2897 3083,2913 C 3069,2944 3039,2948 2994,2925 C 2978,2917 2955,2910 2944,2910 C 2931,2910 2920,2902 2918,2892 C 2914,2877 2899,2872 2840,2866 C 2801,2863 2758,2855 2747,2848 C 2700,2823 2585,2800 2537,2807 C 2474,2815 2414,2835 2429,2844 C 2441,2852 2444,2900 2432,2900 C 2428,2900 2411,2920 2396,2944 C 2357,3006 2355,3006 2092,3008 C 2042,3009 2013,3016 1945,3047 C 1869,3081 1860,3088 1860,3113 C 1860,3148 1868,3148 1993,3106 C 2049,3087 2131,3067 2175,3060 C 2219,3054 2271,3045 2290,3040 C 2336,3028 2472,3010 2515,3010 C 2533,3010 2550,3005 2552,3000 C 2557,2984 2664,2970 2778,2970 C 2853,2970 2880,2967 2880,2958 C 2880,2949 2883,2949 2889,2959 C 2897,2971 2901,2971 2914,2961 C 2927,2950 2930,2950 2930,2964 C 2930,2973 2935,2980 2940,2980 C 2946,2980 2950,2973 2950,2963 C 2950,2950 2953,2951 2969,2968 C 2979,2980 2990,2987 2994,2983 C 2997,2980 3000,2983 3000,2991 C 3000,3002 3002,3002 3010,2990 C 3016,2980 3020,2979 3020,2988 C 3020,2994 3024,3000 3030,3000 C 3035,3000 3062,3014 3090,3030 C 3150,3065 3154,3066 3147,3041 C 3145,3031 3146,3017 3150,3010 C 3154,3003 3154,2984 3149,2967 C 3143,2944 3143,2939 3152,2948 C 3164,2960 3197,2948 3213,2926 C 3218,2920 3220,2927 3217,2943 C 3212,2974 3217,2977 3237,2953 C 3250,2937 3250,2937 3241,2957 C 3235,2969 3230,2987 3230,2997 C 3231,3011 3236,3009 3257,2985 C 3281,2957 3282,2956 3266,2982 C 3257,2997 3250,3015 3250,3022 C 3250,3030 3255,3028 3261,3018 C 3266,3008 3278,3000 3286,3000 C 3309,3000 3314,3029 3296,3049 C 3280,3067 3281,3067 3322,3063 C 3356,3059 3369,3062 3380,3076 C 3394,3092 3393,3092 3374,3080 C 3357,3069 3349,3070 3325,3086 L 3297,3104 L 3321,3111 C 3334,3114 3344,3123 3342,3130 C 3340,3137 3347,3152 3357,3164 L 3375,3185 L 3353,3166 C 3330,3147 3321,3155 3340,3178 C 3347,3187 3347,3187 3338,3180 C 3318,3164 3307,3169 3321,3188 C 3332,3202 3330,3201 3312,3186 C 3284,3162 3273,3171 3294,3202 C 3317,3234 3314,3249 3283,3261 L 3255,3271 L 3279,3289 L 3303,3307 L 3280,3323 L 3258,3338 L 3286,3343 C 3315,3347 3315,3347 3289,3349 C 3272,3349 3261,3357 3257,3369 C 3251,3393 3276,3405 3296,3389 C 3315,3373 3341,3385 3334,3407 C 3330,3421 3334,3419 3349,3401 C 3361,3388 3370,3381 3370,3386 C 3370,3390 3363,3402 3353,3412 C 3325,3443 3348,3445 3383,3414 C 3409,3390 3411,3390 3392,3411 C 3369,3437 3373,3459 3397,3438 C 3408,3429 3409,3431 3404,3446 C 3397,3464 3398,3464 3421,3445 L 3445,3425 L 3425,3449 C 3410,3467 3408,3474 3418,3477 C 3428,3481 3428,3485 3416,3494 C 3408,3500 3398,3517 3394,3533 C 3388,3557 3391,3561 3419,3566 C 3450,3573 3450,3573 3429,3584 C 3416,3590 3398,3610 3387,3627 L 3369,3659 L 3402,3675 C 3420,3683 3425,3687 3413,3684 C 3377,3676 3374,3709 3410,3723 C 3422,3727 3421,3729 3408,3729 C 3386,3730 3384,3746 3405,3754 C 3413,3757 3420,3764 3420,3770 C 3420,3776 3413,3776 3401,3768 C 3378,3754 3353,3770 3338,3810 C 3329,3834 3328,3834 3315,3817 C 3302,3799 3301,3799 3290,3820 C 3277,3845 3255,3842 3255,3814 C 3255,3801 3249,3796 3235,3798 C 3225,3800 3209,3792 3200,3780 C 3191,3768 3168,3755 3149,3751 L 3115,3744 L 3115,3685 L 3115,3625 L 3055,3608 C 2991,3590 2840,3570 2765,3570 C 2726,3570 2720,3573 2720,3591 C 2720,3603 2707,3625 2690,3640 C 2655,3672 2652,3686 2679,3695 C 2692,3699 2712,3687 2746,3655 C 2779,3625 2804,3610 2822,3610 C 2885,3610 2931,3657 2894,3684 C 2875,3698 2879,3702 2933,3719 C 2953,3726 2977,3738 2985,3747 C 3021,3782 2981,3907 2930,3921 C 2891,3932 2832,3931 2825,3920 C 2822,3915 2808,3910 2794,3910 C 2777,3910 2767,3902 2760,3886 C 2755,3873 2743,3857 2734,3852 C 2723,3846 2719,3836 2724,3825 C 2732,3802 2710,3740 2692,3740 C 2685,3740 2665,3733 2648,3724 C 2620,3709 2617,3710 2598,3730 C 2583,3746 2569,3751 2549,3748 C 2511,3742 2512,3750 2557,3791 C 2675,3899 2760,4003 2760,4040 C 2760,4046 2768,4060 2778,4071 C 2796,4089 2799,4089 2826,4075 C 2842,4067 2861,4060 2868,4060 C 2875,4060 2894,4045 2911,4028 C 2940,3996 2942,3995 3044,3990 C 3101,3987 3147,3988 3145,3991 C 3143,3994 3149,4010 3160,4027 C 3171,4046 3175,4061 3169,4067 C 3164,4072 3159,4095 3157,4118 C 3156,4141 3149,4165 3142,4172 C 3135,4179 3130,4211 3130,4250 L 3130,4315 L 3085,4343 C 3060,4359 3040,4377 3040,4383 C 3039,4390 3023,4405 3004,4418 C 2962,4444 2890,4448 2846,4425 C 2831,4417 2809,4410 2799,4410 C 2788,4410 2780,4406 2780,4401 C 2780,4396 2765,4383 2747,4372 C 2717,4355 2714,4349 2718,4316 C 2721,4289 2718,4276 2705,4266 C 2678,4246 2694,4168 2731,4141 C 2763,4117 2767,4099 2745,4080 C 2727,4065 2700,4012 2700,3993 C 2700,3985 2685,3964 2666,3947 C 2581,3868 2560,3850 2551,3850 C 2546,3850 2522,3820 2497,3782 C 2445,3704 2438,3697 2387,3680 C 2366,3673 2334,3655 2317,3640 C 2296,3622 2269,3610 2240,3607 C 2215,3603 2166,3596 2130,3589 C 2094,3583 2019,3576 1963,3573 L 1860,3569 L 1860,3623 C 1860,3676 1861,3677 1898,3693 C 1957,3719 1962,3717 2021,3659 L 2078,3603 L 2136,3608 C 2172,3610 2201,3618 2210,3628 C 2223,3642 2248.8906,3670.8752 2235.8906,3660.8752 C 2212.8906,3644.8752 2086,3611 2072,3626 C 2066,3633 2053,3644 2043,3652 C 2033,3659 2014,3681 2000,3700 C 1978,3730 1975,3745 1976,3800 C 1978,3836 1979,3868 1979,3871 C 1982,3889 2090,3949 2128,3954 C 2174,3959 2185,3964 2185,3983 C 2185,3989 2199,3997 2215,4002 C 2295,4025 2367,3972 2395,3869 C 2425,3756 2426,3750 2399,3750 C 2385,3750 2369,3741 2362,3730 C 2355,3719 2343,3710 2335,3710 C 2327,3710 2316,3701 2310,3690 C 2303,3677 2289,3670 2270,3670 C 2254,3670 2239,3666 2235,3661 C 2224,3642 2305,3662 2319,3681 C 2326,3692 2339,3700 2346,3700 C 2354,3700 2365,3709 2372,3720 C 2379,3731 2395,3740 2408,3740 C 2431,3740 2432,3743 2426,3783 C 2416,3852 2413,3864 2401,3893 C 2395,3909 2390,3926 2390,3931 C 2390,3944 2421,3941 2450,3925 C 2483,3906 2519,3906 2577,3926 C 2634,3945 2680,3985 2680,4016 C 2680,4029 2684,4041 2689,4045 C 2705,4054 2699,4127 2681,4147 C 2672,4157 2661,4173 2658,4182 C 2654,4192 2638,4200 2618,4202 C 2586,4205 2585,4207 2582,4253 C 2579,4299 2579,4300 2544,4300 C 2525,4300 2498,4307 2485,4316 C 2470,4326 2449,4330 2434,4327 C 2414,4324 2406,4327 2403,4341 C 2396,4368 2352,4365 2308,4335 C 2288,4321 2265,4310 2258,4310 C 2250,4310 2240,4306 2234,4300 C 2229,4295 2193,4287 2155,4283 L 2085,4275 L 2082,4241 C 2079,4216 2084,4204 2099,4193 C 2111,4185 2120,4170 2120,4160 C 2120,4150 2124,4139 2130,4135 C 2142,4127 2131,4100 2115,4100 C 2108,4100 2095,4089 2087,4076 C 2078,4063 2043,4039 2008,4023 C 1973,4006 1925,3977 1900,3957 C 1876,3937 1855,3922 1854,3923 C 1853,3924 1850,3980 1847,4048 C 1842,4162 1843,4170 1861,4170 C 1871,4170 1891,4185 1907,4204 C 1922,4223 1953,4247 1977,4256 C 2001,4266 2020,4278 2020,4282 C 2020,4286 2029,4290 2040,4290 C 2051,4290 2082,4313 2110,4342 C 2137,4370 2160,4388 2160,4382 C 2160,4375 2171,4370 2185,4370 C 2198,4370 2225,4363 2243,4354 C 2276,4338 2278,4338 2303,4364 C 2317,4378 2334,4390 2340,4390 C 2345,4390 2350,4397 2350,4405 C 2350,4413 2357,4420 2365,4420 C 2374,4420 2383,4427 2386,4435 C 2389,4443 2400,4452 2411,4455 C 2434,4463 2481.3217,4505.6054 2481.3217,4519.6054 C 2481.3217,4522.8304 2473.5751,4553.9397 2465.9823,4549.2803 C 2461.9484,4546.8049 2467.0055,4533.8484 2463.2858,4523.197 C 2458.8098,4510.3798 2445.7189,4499.5858 2443,4497 C 2407.1247,4462.881 2362,4430 2351,4430 C 2345,4430 2340,4423 2340,4415 C 2340,4407 2335,4400 2330,4400 C 2324,4400 2310,4389 2299,4375 C 2278,4352 2276,4352 2242,4365 C 2223,4373 2199,4380 2189,4380 C 2176,4380 2170,4387 2170,4401 C 2170,4413 2151,4440 2126,4463 C 2090,4498 2084,4509 2091,4527 C 2102,4557 2130,4570 2184,4570 C 2218,4570 2235,4576 2251,4593 C 2266,4608 2274,4611 2277,4603 C 2280,4594 2303,4590 2342,4590 C 2387,4590 2419.1379,4574.7302 2442.1379,4557.7302 L 2474.1379,4535.7302 L 2441,4573 C 2419,4597 2409,4600 2354,4600 C 2319,4600 2288,4605 2285,4610 C 2276,4625 2262,4622 2243,4600 C 2230,4585 2213,4580 2175,4580 C 2117,4580 2085,4562 2076,4524 C 2070,4502 2076,4491 2114,4455 L 2160,4412 L 2137,4397 C 2125,4389 2102,4369 2085,4352 C 2069,4335 2024,4305 1986,4285 C 1949,4265 1907,4236 1893,4220 C 1853,4172 1843,4181 1835,4266 C 1829,4329 1830,4344 1844,4358 C 1859,4373 1860,4373 1860,4352 C 1860,4334 1866,4330 1891,4330 C 1937,4330 1960,4346 1960,4380 C 1960,4434 1869,4465 1862,4414 C 1860,4402 1851,4390 1841,4387 C 1828,4384 1824,4390 1822,4411 C 1821,4426 1825,4442 1831,4445 C 1836,4449 1846,4464 1851,4478 C 1860,4502 1862,4503 1871,4488 C 1879,4474 1894,4470 1943,4470 C 2020,4470 2031,4483 2022,4561 L 2015,4615 L 1966,4618 C 1882,4623 1870,4617 1870,4565 C 1870,4532 1866,4520 1855,4520 C 1847,4520 1832,4501 1821,4478 C 1804,4441 1802,4439 1796,4458 L 1834.2462,3687.7234 L 1838.6323,2982.3356 z M 2011,4560 C 2020,4493 2007,4479 1940,4482 L 1885,4485 L 1882,4539 C 1878,4604 1886,4611 1955,4608 L 2005,4605 L 2011,4560 z M 1932,4413 C 1967,4381 1944,4340 1891,4340 C 1872,4340 1870,4346 1872,4385 C 1873,4423 1876,4430 1893,4430 C 1904,4430 1922,4423 1932,4413 z M 2980,4420 C 2980,4414 2991,4404 3005,4398 C 3019,4392 3030,4381 3030,4375 C 3030,4368 3050,4350 3075,4334 L 3120,4306 L 3120,4240 C 3120,4203 3123,4170 3128,4166 C 3143,4150 3156,4055 3146,4028 C 3136,4000 3135,4000 3045,4000 C 2949,4000 2939,4003 2922,4037 C 2915,4049 2893,4064 2873,4070 C 2784,4099 2715,4157 2705,4212 C 2699,4242 2701,4251 2715,4256 C 2727,4261 2731,4273 2729,4307 C 2726,4348 2728,4353 2755,4366 C 2772,4373 2792,4384 2800,4388 C 2859,4422 2881,4429 2928,4430 C 2957,4430 2980,4425 2980,4420 z M 2393,4329 C 2398,4312 2404,4309 2427,4314 C 2445,4318 2462,4315 2475,4306 C 2486,4297 2512,4290 2532,4290 C 2569,4290 2569,4290 2572,4243 C 2575,4199 2577,4195 2603,4192 C 2638,4188 2684,4131 2686,4090 C 2687,4073 2684,4057 2679,4054 C 2674,4051 2670,4039 2670,4026 C 2670,3967 2504,3890 2463,3931 C 2457,3937 2431,3946 2406,3951 C 2375,3957 2352,3969 2336,3987 C 2314,4013 2305,4015 2239,4016 C 2178,4017 2164,4020 2149,4039 C 2135,4056 2133,4067 2142,4096 C 2148,4120 2148,4135 2142,4139 C 2137,4142 2129,4160 2125,4178 C 2121,4196 2112,4210 2104,4210 C 2093,4210 2090,4218 2092,4238 C 2095,4264 2098,4265 2165,4273 C 2203,4277 2239,4285 2244,4290 C 2250,4296 2261,4300 2270,4300 C 2278,4301 2299,4312 2315,4325 C 2352,4356 2386,4357 2393,4329 z M 2130,4044 C 2136,4030 2149,4016 2160,4013 C 2201,4002 2177,3974 2120,3965 C 2077,3959 1999,3914 1972,3881 C 1964,3871 1962,3850 1966,3818 C 1972,3773 1971,3771 1946,3764 C 1932,3761 1916,3753 1912,3746 C 1908,3740 1895,3730 1884,3723 C 1864,3712 1862,3714 1856,3763 C 1853,3792 1850,3833 1850,3855 C 1851,3894 1853,3897 1923,3942 C 1963,3967 2019,4000 2048,4015 C 2077,4030 2104,4048 2107,4056 C 2114,4076 2119,4074 2130,4044 z M 2925,3908 C 2955,3895 2990,3830 2990,3788 C 2990,3768 2982,3757 2960,3745 C 2944,3737 2925,3730 2917,3730 C 2910,3730 2895,3724 2885,3716 C 2866,3703 2866,3701 2882,3683 C 2901,3662 2896,3649 2863,3631 C 2827,3613 2806,3618 2761,3657 C 2720,3691 2719,3695 2724,3734 C 2728,3757 2732,3789 2733,3805 C 2734,3822 2741,3839 2748,3843 C 2755,3848 2765,3863 2770,3876 C 2777,3892 2787,3900 2804,3900 C 2818,3900 2832,3905 2835,3910 C 2843,3924 2893,3923 2925,3908 z M 3305,3790 C 3313,3790 3321,3798 3323,3808 C 3327,3822 3328,3821 3329,3804 C 3329,3793 3341,3773 3356,3760 C 3380,3737 3383,3714 3370,3665 C 3364,3646 3382,3600 3399,3590 C 3414,3581 3414,3579 3398,3570 C 3376,3557 3376,3544 3394,3508 C 3407,3484 3407,3478 3394,3465 C 3385,3457 3370,3450 3360,3450 C 3339,3450 3315,3416 3325,3400 C 3328,3394 3326,3390 3321,3390 C 3315,3390 3310,3405 3310,3423 C 3310,3463 3304,3471 3257,3492 C 3237,3502 3221,3513 3222,3518 C 3226,3529 3165,3590 3151,3590 C 3145,3590 3140,3598 3140,3608 C 3140,3618 3135,3631 3129,3637 C 3124,3642 3120,3667 3122,3691 C 3125,3731 3127,3735 3159,3741 C 3178,3745 3201,3758 3210,3770 C 3223,3787 3229,3790 3235,3780 C 3246,3762 3271,3795 3264,3818 C 3261,3829 3265,3827 3276,3813 C 3285,3800 3298,3790 3305,3790 z M 2584,3724 C 2593,3716 2600,3707 2600,3705 C 2600,3703 2575,3688 2545,3672 L 2490,3642 L 2490,3675 C 2490,3729 2549,3759 2584,3724 z M 2480,3652 C 2480,3636 2471,3615 2460,3605 C 2444,3590 2433,3589 2398,3596 C 2350,3606 2345,3619 2381,3637 C 2480,3687 2480,3687 2480,3652 z M 2650,3655 C 2650,3647 2655,3640 2662,3640 C 2681,3640 2710,3609 2710,3588 C 2710,3572 2701,3570 2628,3571 C 2582,3572 2535,3575 2522,3578 C 2502,3584 2501,3587 2512,3603 C 2525,3621 2614,3668 2638,3669 C 2644,3670 2650,3663 2650,3655 z M 3155,3576 C 3173,3563 3173,3562 3152,3555 C 3125,3547 3080,3507 3080,3491 C 3080,3485 3063,3480 3039,3480 C 3006,3480 2992,3486 2970,3510 C 2937,3545 2929,3547 2906,3521 C 2885,3498 2892,3464 2919,3455 C 2934,3451 2936,3441 2932,3395 C 2928,3342 2928,3340 2953,3340 C 2967,3340 2986,3347 2994,3356 C 3012,3373 3041,3372 3047,3353 C 3054,3334 2996,3309 2962,3316 C 2940,3320 2920,3315 2891,3299 C 2868,3287 2850,3273 2850,3269 C 2850,3263 2817,3257 2708,3243 C 2659,3237 2640,3252 2680,3265 C 2691,3268 2700,3275 2700,3280 C 2700,3285 2715,3284 2732,3279 C 2782,3265 2815,3268 2843,3290 C 2857,3301 2875,3310 2884,3310 C 2918,3310 2932,3380 2902,3402 C 2891,3409 2878,3425 2871,3438 C 2865,3450 2850,3460 2839,3460 C 2828,3460 2810,3465 2800,3470 C 2781,3480 2730,3527 2730,3534 C 2730,3536 2783,3541 2848,3545 C 2912,3549 2994,3560 3030,3570 C 3113,3592 3132,3593 3155,3576 z M 2374,3567 C 2416,3556 2420,3553 2407,3541 C 2398,3534 2367,3522 2338,3515 C 2309,3508 2265,3493 2240,3483 C 2204,3469 2169,3465 2059,3466 C 1915,3467 1860,3480 1860,3511 C 1860,3526 1873,3528 1953,3527 C 2007,3526 2078,3533 2125,3543 C 2195,3559 2284,3575 2315,3579 C 2321,3579 2347,3574 2374,3567 z M 2474,3535 C 2470,3526 2458,3514 2446,3508 C 2427,3498 2427,3499 2449,3524 C 2477,3554 2482,3556 2474,3535 z M 3208,3521 C 3217,3504 3241,3485 3262,3476 C 3309,3458 3313,3427 3272,3406 C 3248,3394 3244,3386 3248,3360 C 3250,3343 3261,3324 3271,3316 C 3289,3304 3289,3303 3267,3292 C 3255,3286 3219,3280 3187,3278 C 3139,3275 3129,3278 3124,3293 C 3121,3303 3107,3316 3094,3322 C 3081,3328 3070,3337 3070,3341 C 3070,3356 3038,3380 3019,3380 C 3008,3380 2992,3373 2984,3365 C 2975,3357 2962,3350 2953,3350 C 2940,3350 2938,3359 2944,3404 C 2949,3452 2948,3459 2931,3465 C 2905,3473 2899,3492 2916,3515 C 2930,3533 2931,3533 2960,3502 C 2985,3474 2995,3470 3039,3470 C 3075,3470 3090,3474 3090,3483 C 3090,3497 3127,3533 3151,3543 C 3179,3554 3191,3549 3208,3521 z M 2735,3514 C 2749,3499 2760,3484 2760,3480 C 2760,3471 2807,3450 2827,3450 C 2836,3450 2859,3434 2878,3414 C 2908,3383 2912,3374 2904,3352 C 2899,3338 2886,3323 2875,3320 C 2864,3317 2842,3306 2827,3296 C 2802,3279 2793,3278 2749,3288 C 2700,3300 2698,3299 2667,3270 C 2637,3241 2631,3240 2566,3242 L 2497,3245 L 2450,3300 C 2409,3347 2402,3362 2398,3409 C 2393,3460 2394,3463 2423,3479 C 2439,3488 2462,3505 2473,3518 C 2492,3538 2502,3540 2602,3540 C 2707,3540 2712,3539 2735,3514 z M 2386,3445 C 2387,3405 2378,3402 2343,3430 C 2329,3441 2308,3450 2297,3450 C 2264,3450 2290,3468 2330,3473 C 2349,3475 2370,3478 2375,3478 C 2381,3479 2385,3464 2386,3445 z M 2003,3429 C 2067,3424 2144,3424 2179,3428 C 2213,3433 2243,3433 2246,3428 C 2249,3424 2262,3420 2274,3420 C 2287,3420 2309,3411 2323,3400 C 2337,3389 2355,3380 2364,3380 C 2373,3380 2383,3372 2387,3363 C 2390,3353 2414,3321 2439,3291 L 2484,3237 L 2445,3244 C 2392,3254 2239,3271 2165,3275 C 2132,3277 2050,3284 1983,3291 L 1860,3304 L 1860,3383 C 1860,3452 1862,3461 1875,3450 C 1883,3443 1941,3434 2003,3429 z M 3115,3283 C 3119,3264 3115,3251 3099,3234 C 3083,3217 3075,3194 3072,3155 L 3068,3100 L 3101,3106 L 3135,3113 L 3110,3093 C 3096,3082 3074,3067 3061,3060 C 3038,3048 3038,3049 3044,3074 C 3056,3122 3039,3212 3013,3236 L 2989,3258 L 3030,3281 C 3052,3293 3070,3307 3070,3311 C 3070,3330 3109,3305 3115,3283 z M 2956,3303 C 2952,3299 2929,3288 2905,3279 C 2855,3260 2854,3273 2903,3294 C 2938,3310 2968,3314 2956,3303 z M 2080,3235 C 2216,3221 2246,3212 2384,3145 C 2494,3092 2586,3069 2699,3067 L 2790.9072,3052.9095 L 2783,3105 C 2783,3127 2780,3162 2777,3183 L 2772,3220 L 2831,3220 C 2870,3220 2904,3227 2929,3239 L 2967,3259 L 2997,3231 C 3030,3201 3044,3134 3031,3070 C 3025,3037 3022,3035 2960,3024 C 2858,3004 2831,3006 2808,3035 C 2789,3059 2770,3061 2770,3038 C 2770,3032 2773,3030 2777,3033 C 2786,3042 2811,3020 2804,3009 C 2796,2995 2722,2999 2655,3016 C 2622,3024 2535,3040 2461,3050 C 2388,3061 2314,3074 2296,3079 C 2279,3084 2238,3091 2205,3095 C 2172,3098 2090,3119 2022,3141 C 1954,3162 1890,3180 1880,3180 C 1863,3180 1860,3187 1860,3224 L 1860,3267 L 1908,3258 C 1934,3253 2011,3242 2080,3235 z M 3273,3258 C 3304,3243 3306,3233 3284,3202 C 3267,3178 3273,3158 3297,3162 C 3305,3164 3319,3155 3327,3143 C 3341,3122 3341,3120 3322,3120 C 3291,3120 3287,3104 3312,3085 L 3335,3068 L 3308,3074 C 3277,3081 3264,3068 3285,3050 C 3293,3043 3300,3031 3300,3024 C 3300,3005 3273,3006 3266,3026 C 3261,3040 3257,3040 3244,3029 C 3228,3016 3205,2971 3208,2958 C 3211,2947 3198,2948 3180,2960 C 3165,2969 3159,2993 3160,3040 C 3160,3054 3155,3078 3149,3093 C 3139,3117 3132,3121 3107,3117 L 3078,3113 L 3083,3161 C 3092,3231 3133,3270 3198,3270 C 3225,3270 3258,3264 3273,3258 z M 2766,3167 C 2772,3143 2775,3119 2772,3112 C 2767,3097 2638,3096 2573,3111 C 2546,3117 2490,3139 2446,3159 L 2368,3195 L 2556,3200 C 2660,3203 2748,3207 2751,3208 C 2754,3209 2761,3191 2766,3167 z M 1900,3027 C 1914,3020 1944,3008 1968,3001 C 1991,2993 2010,2983 2010,2979 C 2010,2975 2042,2955 2080,2934 C 2144,2901 2150,2895 2150,2866 C 2151,2831 2177,2795 2212,2781 C 2234,2771 2234,2771 2213,2771 C 2201,2770 2154,2789 2108,2813 C 2044,2846 2007,2874 1943,2939 C 1847,3037 1836,3060 1900,3027 z M 2338,2984 C 2356,2976 2370,2965 2370,2960 C 2370,2955 2384,2935 2401,2915 C 2430,2882 2432,2877 2420,2855 C 2413,2841 2398,2830 2388,2830 C 2378,2830 2326,2850 2273,2875 C 2182,2918 2178,2921 2193,2938 C 2203,2948 2210,2962 2210,2968 C 2210,3000 2288,3010 2338,2984 z M 2153,2974 C 2201,2968 2202,2967 2183,2949 C 2164,2930 2163,2930 2110,2961 C 2077,2979 2065,2989 2080,2986 C 2094,2984 2127,2978 2153,2974 z M 3077,2900 C 3080,2884 3086,2870 3090,2870 C 3105,2870 3108,2842 3098,2802 C 3089,2765 3085,2762 3046,2757 C 3023,2754 2997,2748 2988,2745 C 2967,2737 2917,2789 2927,2810 C 2930,2818 2932,2842 2931,2863 C 2930,2895 2932,2900 2952,2900 C 2965,2900 2986,2907 3000,2914 C 3044,2939 3070,2934 3077,2900 z M 2375,2800 C 2390,2800 2399,2796 2395,2790 C 2387,2777 2259,2777 2225,2790 C 2191,2803 2161,2839 2160,2867 C 2160,2888 2164,2887 2255,2844 C 2307,2820 2361,2800 2375,2800 z M 2858,2738 C 2865,2731 2870,2703 2870,2675 C 2870,2624 2869,2623 2833,2612 C 2812,2605 2779,2599 2760,2598 L 2725,2595 L 2728,2640 C 2732,2704 2735,2710 2775,2710 C 2803,2710 2810,2714 2810,2730 C 2810,2753 2839,2757 2858,2738 z"
               id="path4342"
               style="fill:#6a4607;fill-opacity:1;stroke:none;stroke-opacity:1"
               sodipodi:nodetypes="cccsssssssssssssssssssscssssssssccssssssssssssssssscssscccsssccsscssssssssssssssssssssssssssssssssssscccscccsssscccccccccsssssccssscccssscscccsssssssssssscccccsssscssccssssssssssssssscsssssscccscssssssssscsssscccccscccssssscscsccsssssssssssssscssssssssssssscccssssscssssssssssssssssssssssssscssscssssscccssssccccsscsssssssssssscccssscccccccccccscsccsscccssscccssccsccssssssssssssscsssscsssccscssssssscssccssssscccsssssccssccsscssssscssssssssssccscccccsssccssssssccssssssssssssscssssscssssscccssscsscsccsccccssssssssssscsscsssccsssssscsccccsssccsssscccssssscccscccsccscccccsscccsccscccccccccccccccssssscsccscccccsssscccsssssssscccsccsscccscccscscsscccsssssssccscsccssssssscccssscccsscccssc"
               transform="matrix(2.7715951e-2,0,0,-4.0784197e-2,-49.50332,188.55188)" />
          </g>
          <g
             id="preenchimentoCopaDireitaPF8">
            <path
               style="fill:#015a01;fill-opacity:1"
               d="M 30.277751,54.804526 C 30.751739,54.319117 32.250303,53.506504 32.398386,53.654588 C 32.579767,53.835966 30.624769,55.09969 30.162797,55.09969 C 30.003545,55.09969 30.012846,55.075811 30.277751,54.804525 L 30.277751,54.804526 z"
               id="path3331" />
            <g
               id="g2461">
              <path
                 id="path3317"
                 d="M 22.028035,42.805818 C 21.430672,42.764953 20.494747,42.614321 20.334552,42.533262 C 19.920545,42.323776 19.891797,42.20338 20.138089,41.710505 C 20.514023,40.958195 22.792103,39.121997 23.533482,38.973722 C 23.736783,38.933062 23.838773,39.085343 23.911216,39.53771 C 23.979403,39.9635 24.0629,40.096199 24.289364,40.138683 C 24.967835,40.265965 25.802154,41.954048 25.491201,42.570367 C 25.371586,42.80745 25.153827,42.838684 23.671704,42.831344 C 22.918356,42.827613 22.178705,42.816127 22.028035,42.80582 L 22.028035,42.805818 z"
                 style="fill:#015a01;fill-opacity:1" />
              <path
                 id="path3319"
                 d="M 19.549216,39.031592 C 19.565572,38.522003 19.609065,37.969464 19.645865,37.803727 C 19.80442,37.089655 20.235029,36.446278 20.707469,36.217573 C 21.178143,35.989725 21.62687,36.129472 22.015822,36.625037 C 22.325721,37.01988 22.514549,37.39335 22.455964,37.495564 C 22.396591,37.599155 21.634482,38.249526 20.472416,39.188292 L 19.519477,39.958116 L 19.549216,39.031592 z"
                 style="fill:#015a01;fill-opacity:1" />
              <path
                 id="path3323"
                 d="M 37.5392,54.768126 C 37.346415,54.670572 37.295076,54.590846 36.991166,53.917055 C 36.899612,53.71407 36.665906,53.400265 36.47182,53.219706 C 35.811457,52.605362 35.675705,52.447322 35.632992,52.243135 C 35.520284,51.704337 35.027255,51.024191 34.582794,50.794351 C 34.1042,50.546862 33.744937,50.688489 33.024942,51.408485 C 32.718977,51.71445 32.52789,51.845391 32.387356,51.845391 C 32.05507,51.845391 32.00923,51.586104 32.106532,50.256984 C 32.199683,48.984587 32.214488,47.874865 32.141925,47.604136 C 32.116367,47.508776 31.926543,47.309404 31.720097,47.161087 C 31.237773,46.814574 31.077565,46.509651 31.123988,46.026524 C 31.162646,45.624214 31.541172,44.794412 31.686034,44.794412 C 31.816492,44.794412 32.031464,45.052438 32.557521,45.840436 C 33.087672,46.634569 33.204823,46.755072 33.612175,46.925275 C 33.925465,47.056178 35.093059,47.100244 35.620507,47.001074 C 35.93573,46.941807 36.219643,46.658203 36.219643,46.402587 C 36.219643,45.970054 37.266044,44.510927 37.856406,44.120244 C 38.195105,43.896104 38.607158,43.846809 38.800533,44.007295 C 38.864284,44.0602 39.117267,44.488458 39.362723,44.958975 C 39.86717,45.925961 40.205785,46.334117 40.98242,46.911327 C 41.609036,47.37704 41.872792,47.778521 41.874649,48.26945 C 41.876425,48.738396 41.706208,49.050049 41.167847,49.563558 C 40.477384,50.222147 40.442412,50.295282 40.458634,51.046653 C 40.481334,52.098024 40.752826,52.926295 41.266521,53.511361 C 41.504834,53.782781 41.506287,53.789367 41.362994,53.947705 C 40.981737,54.368989 40.181124,54.641 38.892817,54.786961 C 37.991822,54.88904 37.772123,54.885983 37.539202,54.768123 L 37.5392,54.768126 z"
                 style="fill:#015a01;fill-opacity:1" />
              <path
                 id="path3325"
                 d="M 20.289974,56.207142 L 19.740738,56.17817 L 18.736292,54.418571 C 17.597621,52.423838 17.369261,51.933209 17.206907,51.132722 C 17.039521,50.30741 16.903222,48.070475 16.995344,47.660476 C 17.057281,47.384812 17.205901,47.188862 17.84175,46.544525 C 18.265954,46.11466 18.807768,45.496018 19.045786,45.169765 C 19.695528,44.279152 19.647243,44.29077 22.698808,44.29077 C 25.086266,44.29077 25.189791,44.296939 25.488633,44.457018 C 25.659331,44.548455 25.911573,44.780032 26.049174,44.971636 C 26.349056,45.389221 26.999131,46.614942 26.999131,46.762798 C 26.999131,47.011637 28.384092,47.893743 28.774781,47.893743 C 29.176851,47.893743 30.481084,49.53398 30.877456,50.538124 C 31.099235,51.099968 31.034539,51.747532 30.690161,52.412781 C 30.491457,52.796624 30.352899,52.949082 29.980302,53.193849 C 29.725671,53.361123 29.211063,53.753763 28.836726,54.066385 C 28.012434,54.754783 27.947358,54.763089 26.556757,54.35735 C 25.291656,53.988228 25.273302,53.994437 24.425506,55.078259 C 23.492463,56.271062 23.591988,56.221935 22.092922,56.229653 C 21.403381,56.233203 20.592054,56.223073 20.289974,56.20714 L 20.289974,56.207142 z"
                 style="fill:#015a01;fill-opacity:1" />
              <path
                 id="path3327"
                 d="M 39.146841,68.12629 C 39.073479,68.099543 38.891133,67.962286 38.741629,67.82127 C 38.334245,67.437014 38.236374,67.003286 38.152679,65.21126 C 38.084599,63.753516 37.948432,62.722617 37.753542,62.189411 C 37.436605,61.322295 37.32191,61.253133 36.470912,61.415975 C 36.140945,61.479116 35.870047,61.530782 35.86892,61.53079 C 35.861849,61.530837 35.917208,60.802553 35.992605,59.903654 C 36.147697,58.054612 36.581609,56.790004 37.319539,56.036412 C 37.903454,55.440103 38.2742,55.293869 39.20275,55.293612 C 40.240852,55.293326 40.977392,55.515966 41.462481,55.976683 C 41.958305,56.447597 41.969881,56.653879 41.559202,57.700553 C 41.154505,58.73198 41.106291,59.284723 41.400237,59.522954 C 41.501135,59.604729 41.702572,59.671204 41.849465,59.671204 C 42.179057,59.671204 42.442134,59.929456 42.700229,60.506359 C 42.976175,61.123163 42.955515,61.196384 42.48736,61.260771 C 41.614408,61.380834 41.569711,61.992341 42.367634,62.89883 C 42.65751,63.228145 42.669852,63.257942 42.495307,63.207049 C 42.389032,63.17606 42.106643,63.13052 41.867772,63.105845 C 41.475431,63.065315 41.421349,63.078273 41.308117,63.239935 C 41.148286,63.468128 41.200884,63.691175 41.549318,64.262781 C 41.973474,64.958613 41.983472,65.714901 41.568512,65.714901 C 41.380165,65.714901 41.212622,65.504719 41.048653,65.062739 C 40.970919,64.853206 40.862712,64.6669 40.808193,64.648727 C 40.416103,64.518032 39.441598,66.619362 39.371374,67.746954 C 39.345277,68.165974 39.329383,68.192831 39.146843,68.126288 L 39.146841,68.12629 z"
                 style="fill:#015a01;fill-opacity:1" />
              <path
                 id="path3329"
                 d="M 29.299128,65.602644 C 28.904965,65.462065 28.75611,65.317494 28.297802,64.630135 L 27.910331,64.04901 L 27.809253,63.080469 C 27.753665,62.547772 27.669461,61.379711 27.622136,60.484779 C 27.57481,59.589847 27.503063,58.543822 27.462696,58.16028 C 27.422327,57.776738 27.388681,57.419346 27.387924,57.366076 C 27.386889,57.293161 27.653409,57.269222 28.466248,57.269222 C 30.201114,57.269222 30.949075,57.048253 32.090357,56.198556 L 32.726293,55.725094 L 33.163693,56.322823 C 33.750765,57.125085 34.030751,57.700053 34.244172,58.541656 C 34.616226,60.008811 34.676599,61.905777 34.404229,63.570891 C 34.280765,64.325678 34.160209,64.569222 33.823977,64.743094 C 33.49928,64.911005 31.488279,65.468435 30.727551,65.601399 C 29.9383,65.739346 29.68306,65.73957 29.29913,65.602643 L 29.299128,65.602644 z"
                 style="fill:#015a01;fill-opacity:1" />
              <path
                 id="path3333"
                 d="M 32.841822,76.415787 C 32.543506,76.233876 32.023188,75.465123 31.799767,74.87618 C 31.641533,74.459068 31.636463,74.381802 31.717248,73.618197 C 31.764589,73.170731 31.803269,72.344898 31.803207,71.783013 C 31.803064,70.48917 31.834926,70.399585 32.320527,70.328388 C 32.825466,70.254357 33.228532,70.067761 33.895905,69.599084 C 35.07391,68.771804 35.47804,68.990672 35.800566,70.630616 C 35.907251,71.173065 35.983989,71.372834 36.154036,71.550772 C 36.273497,71.675776 36.394419,71.901622 36.422752,72.052651 C 36.555204,72.758681 36.237226,75.142421 35.952661,75.576724 C 35.801675,75.807158 35.62756,75.882622 34.747461,76.099085 C 34.385226,76.188177 33.90449,76.328907 33.679159,76.411817 C 33.175201,76.597246 33.139676,76.597416 32.841824,76.415788 L 32.841822,76.415787 z"
                 style="fill:#015a01;fill-opacity:1" />
              <path
                 id="path3335"
                 d="M 26.099319,81.993109 C 26.123761,81.627181 26.163265,80.926809 26.187108,80.436727 C 26.288256,78.357678 26.390449,78.161897 27.419254,78.076199 C 28.206776,78.0106 28.348022,77.896234 28.42741,77.259912 C 28.499425,76.682715 28.638019,76.485079 28.970781,76.485079 C 29.326667,76.485079 29.661091,76.825463 29.784895,77.313696 C 30.022063,78.248982 30.032014,80.99669 29.799789,81.425185 C 29.583528,81.82422 28.084019,82.394425 26.817569,82.559201 L 26.054884,82.658432 L 26.099319,81.993109 z"
                 style="fill:#015a01;fill-opacity:1" />
              <path
                 id="path3337"
                 d="M 16.112728,72.833929 C 15.411709,72.474135 14.817926,72.110423 13.749488,71.38636 C 12.089823,70.261636 11.345035,69.678464 11.235468,69.417881 C 11.14137,69.194083 11.155782,69.131657 11.436734,68.546138 C 11.603179,68.19926 11.767639,67.736545 11.802205,67.517879 C 11.887488,66.978386 12.040901,66.773425 12.543477,66.527537 C 12.923668,66.341527 13.040687,66.321686 13.613577,66.346099 C 14.148551,66.368896 14.342461,66.415695 14.765743,66.624161 C 15.514226,66.992787 15.953616,67.411512 16.151839,67.945058 C 16.242363,68.188718 16.52984,68.789051 16.790676,69.279133 C 17.652286,70.897996 17.701143,71.003669 17.700297,71.246505 C 17.699327,71.524578 17.534775,72.10339 17.36134,72.438778 C 17.229747,72.693257 16.811597,73.076755 16.668537,73.074174 C 16.618536,73.073273 16.368423,72.965161 16.112728,72.833928 L 16.112728,72.833929 z"
                 style="fill:#015a01;fill-opacity:1" />
              <path
                 id="path3339"
                 d="M 13.214407,75.004639 C 12.467018,74.89125 12.021141,74.665546 11.559774,74.167061 C 10.878411,73.430884 10.417706,72.373628 10.417706,71.546179 C 10.417706,70.924297 10.487944,70.951197 12.703463,72.421541 C 14.506585,73.618191 15.719989,74.281813 16.309234,74.393561 C 16.539089,74.437152 16.759155,74.504822 16.798273,74.543941 C 16.925371,74.67104 16.78654,74.846234 16.485057,74.939196 C 16.102961,75.057013 13.855985,75.101974 13.214407,75.004638 L 13.214407,75.004639 z"
                 style="fill:#015a01;fill-opacity:1" />
              <path
                 style="fill:#015a01;fill-opacity:1;stroke:none;stroke-width:1px;stroke-linecap:butt;stroke-linejoin:miter;stroke-opacity:1"
                 d="M 38.092744,8.6787891 C 38.079355,8.5764637 37.668595,8.1680764 37.638769,8.0907452 C 37.123305,7.2142309 36.368574,6.9341931 36.697966,6.173257 C 36.817755,5.8590789 37.034405,5.6350216 37.336918,5.5124608 C 38.250608,5.3814104 38.884109,5.3103444 39.57809,4.8167414 C 39.824496,4.5521145 39.875405,4.5332071 39.966738,4.6723979 C 40.077501,4.8412025 40.303191,4.8970997 40.997617,4.92772 C 42.0882,4.8978985 42.669436,5.453144 43.308519,6.0178686 C 43.350473,6.3091107 43.221422,6.5560423 42.781545,7.0261918 C 42.167221,7.6827941 41.514934,8.2335772 41.294252,8.2820391 C 40.961158,8.947386 40.482938,8.8524263 39.988633,9.3045073 C 38.957852,9.1293987 38.105076,8.9554499 38.092744,8.6787891 z"
                 id="path2480"
                 sodipodi:nodetypes="cccccsccsccc"
                 transform="matrix(1.5408491,0,0,2.1842065,-48.018916,-9.5305059)" />
              <path
                 style="fill:#015a01;fill-opacity:1"
                 d="M 33.314562,25.330698 C 32.837122,25.274008 32.468811,25.179797 32.266653,25.062652 C 32.017844,24.918473 31.7684,24.5642 31.612707,24.133881 C 31.367759,23.456874 30.848735,22.903572 30.065154,22.484123 C 28.134313,21.450549 26.830102,20.144559 26.019134,18.43259 C 25.677391,17.711166 25.508237,17.007941 25.467958,16.141209 C 25.431731,15.361654 25.485586,15.155001 25.763766,15.006123 C 25.839017,14.965848 25.953093,14.833477 26.017266,14.711961 C 26.126041,14.505988 26.136102,14.383402 26.165797,12.902144 C 26.185739,11.907443 26.220967,11.258839 26.260001,11.167728 C 26.353984,10.948362 26.638663,10.687983 27.238862,10.272424 C 27.536969,10.066023 28.134145,9.6178428 28.565917,9.2764676 C 29.451306,8.5764471 29.920323,8.281786 30.438141,8.1002395 C 30.748357,7.9914785 30.903752,7.9751075 31.643498,7.9732589 C 32.442518,7.9712624 32.508805,7.9792353 32.764668,8.1081094 C 32.963567,8.2082915 33.047168,8.2865083 33.07592,8.3993138 C 33.133713,8.6260673 33.359586,8.8969521 33.755243,9.2140125 C 34.155597,9.5348364 34.359089,9.8124187 34.432083,10.137291 C 34.520869,10.532459 34.858853,10.958578 35.886299,11.970731 L 36.887401,12.956933 L 36.923527,15.167512 C 36.962675,17.562984 37.020593,18.344981 37.187615,18.733168 C 37.457797,19.361118 37.666048,20.883687 37.709071,22.545638 C 37.735165,23.553556 37.724967,23.827252 37.646998,24.212047 C 37.482269,25.025012 37.325333,25.212853 36.730152,25.309432 C 36.41485,25.360595 33.708279,25.377447 33.314562,25.330698 z"
                 id="path3309" />
              <path
                 style="fill:#015a01;fill-opacity:1"
                 d="M 19.507743,28.627044 C 19.477609,28.616991 19.383609,28.593425 19.298855,28.574675 C 19.214099,28.555923 18.991202,28.397733 18.803526,28.223138 C 18.427982,27.873772 18.004809,27.65126 17.151818,27.354647 C 16.564362,27.150371 15.979323,26.799669 15.705231,26.487495 C 15.612519,26.381903 15.390027,26.077429 15.210804,25.810885 C 14.846332,25.268839 14.543261,24.979883 14.235673,24.88117 C 14.121919,24.844663 13.622039,24.790619 13.124829,24.761073 C 10.803123,24.62311 10.593928,24.567233 10.217258,23.984452 C 9.7556697,23.270285 9.6910126,22.78601 9.8934031,21.5588 C 10.041835,20.658765 10.038921,19.98266 9.8853727,19.696172 C 9.7042151,19.35817 9.6306221,19.112435 9.4523454,18.250247 C 9.2454902,17.249843 9.097995,16.923309 8.8001184,16.806299 C 8.5332364,16.701466 8.4977479,16.561288 8.5336605,15.753813 C 8.5769026,14.781532 8.7027052,14.679283 10.221014,14.382381 C 11.903881,14.0533 12.540703,13.837181 12.865925,13.484775 C 12.962062,13.380601 13.131839,13.286944 13.327819,13.22997 C 13.722021,13.115373 14.130085,12.801775 14.70631,12.170596 C 15.253451,11.571275 15.650019,11.293104 16.019702,11.249321 C 16.258583,11.221029 16.304213,11.234077 16.463204,11.376135 C 16.600258,11.498591 16.670845,11.6395 16.774618,11.997779 C 16.848421,12.252591 16.947634,12.520332 16.99509,12.592758 C 17.088753,12.735703 17.022977,12.733927 18.063393,12.621603 C 18.465696,12.578169 18.681266,12.653869 19.046857,12.966955 C 19.57459,13.418896 20.205631,13.640693 20.965959,13.641477 C 21.339038,13.641863 21.534588,13.771205 21.612848,14.069347 C 21.642086,14.180733 21.703309,14.851261 21.7489,15.559408 C 21.79449,16.267556 21.859483,16.942555 21.893329,17.059406 C 21.967726,17.316262 22.155514,17.515558 22.365748,17.560777 C 23.117081,17.722381 23.681258,18.283271 24.234857,19.418994 C 24.725204,20.424952 24.877427,21.051071 24.874978,22.0519 C 24.873156,22.796715 24.867962,22.830409 24.69579,23.214448 C 24.554402,23.529822 24.507363,23.729623 24.463612,24.200649 C 24.392307,24.968322 24.250919,25.381701 23.861259,25.961759 C 23.072761,27.135537 21.564929,28.263091 20.376458,28.567691 C 20.072273,28.645652 19.650013,28.674502 19.507743,28.627043 L 19.507743,28.627044 z"
                 id="path3311" />
              <path
                 style="fill:#015a01;fill-opacity:1"
                 d="M 7.9309408,40.564029 C 6.5875324,38.898618 6.1950444,39.283859 6.1937437,38.111894 C 6.1931454,37.57304 5.5367272,35.695131 5.49265,34.128166 C 5.4485734,32.561202 5.5670462,31.086539 5.5665208,30.567032 L 6.4953642,29.312542 C 7.9384235,28.085279 9.6395216,27.346035 11.097331,26.174928 C 11.097772,25.956988 11.432312,25.614673 11.830353,25.424867 C 13.42969,24.662226 15.012345,25.641513 16.03072,28.023897 C 16.455031,29.016529 16.685453,29.911057 17.039808,31.941308 C 17.410482,34.065067 17.456829,34.391235 17.458677,34.889169 C 17.35875,35.695198 16.396176,35.904334 15.818508,36.581226 C 15.583362,36.985618 13.850874,38.630298 13.59084,38.693132 C 11.860099,39.135912 12.998349,39.691964 10.55992,40.281699 L 8.1024456,40.776641 L 7.9309408,40.564029 z"
                 id="path3313"
                 sodipodi:nodetypes="csscccssscccccc" />
              <path
                 style="fill:#015a01;fill-opacity:1"
                 d="M 28.438344,40.708455 C 28.317808,40.648738 28.087975,40.485036 27.927602,40.344672 C 27.534642,40.000741 26.377341,38.543592 26.185148,38.150762 C 25.975492,37.722242 25.956114,37.134422 26.101462,35.612169 C 26.163322,34.964289 26.228828,34.199983 26.247029,33.913711 C 26.319546,32.773098 26.445968,32.183254 26.687388,31.859125 C 26.874649,31.607708 27.095607,31.140531 27.267259,30.633087 C 27.542301,29.819993 27.795386,29.530594 28.231405,29.530594 C 28.541996,29.530594 28.900111,29.364704 29.084259,29.135528 C 29.343118,28.813372 29.514328,28.74305 30.027224,28.748223 C 30.819183,28.756212 31.518301,29.073544 31.931929,29.612777 C 32.225635,29.995671 32.58706,30.756172 32.843266,31.530391 C 33.361228,33.095597 33.45221,34.453787 33.084367,35.129633 C 32.831082,35.595002 32.031993,36.187102 31.424342,36.35966 C 30.990211,36.482941 30.715162,36.658196 30.368992,37.0321 C 29.934532,37.501368 29.926579,37.590986 30.262185,38.235663 C 30.636253,38.954224 30.67956,39.133382 30.569105,39.505326 C 30.40173,40.06894 29.439151,40.817184 28.881602,40.817077 C 28.758346,40.817053 28.55888,40.768174 28.438344,40.708456 L 28.438344,40.708455 z"
                 id="path3315" />
              <path
                 style="fill:#015a01;fill-opacity:1"
                 d="M 42.475205,50.202623 C 42.378913,50.043112 42.316372,49.596477 42.273412,48.76152 C 42.197102,47.278531 42.091233,47.055645 41.121008,46.335376 C 40.805139,46.100886 40.39609,45.763631 40.21201,45.585921 C 39.939347,45.322696 39.871869,45.222217 39.847937,45.043773 C 39.757793,44.371725 38.300587,42.209833 37.863859,42.10022 C 37.690403,42.056686 37.614443,41.857447 37.556023,41.292784 C 37.523513,40.978555 37.447907,40.663107 37.341279,40.396814 C 37.096821,39.786313 37.0484,39.357666 37.08549,38.132461 C 37.12025,36.984179 37.192402,36.568902 37.394529,36.353747 C 37.461989,36.281939 37.74271,36.133304 38.018347,36.02345 C 38.690542,35.75555 39.053426,35.468816 39.407067,34.926144 C 39.563747,34.685712 39.751498,34.416417 39.82429,34.327711 L 39.956644,34.166428 L 40.101692,34.396197 C 40.286326,34.688678 40.45472,34.703337 40.65242,34.444141 C 40.87071,34.15795 40.968843,33.820347 41.005683,33.228849 L 41.039805,32.680959 L 41.253088,33.064482 C 41.498575,33.505908 41.792228,33.887368 41.952644,33.973222 C 42.221203,34.116951 42.501005,33.83579 42.633808,33.288739 C 42.698317,33.022999 42.701774,33.019134 42.706212,33.207674 C 42.719564,33.775016 42.932063,34.392382 43.3169,34.981899 C 43.675878,35.531799 43.884602,35.956801 43.976236,36.324425 C 44.082817,36.752043 44.059587,37.79811 43.923705,38.689705 C 43.825468,39.334317 43.817798,39.506134 43.868686,39.922457 C 43.987161,40.89176 44.311715,41.766 44.711915,42.193849 C 44.846833,42.338083 44.957216,42.492449 44.957216,42.536882 C 44.957216,42.581313 44.834352,42.733998 44.684181,42.876177 C 44.073788,43.454101 44.042553,43.944194 44.518609,45.474182 C 44.851583,46.544337 44.854498,46.701287 44.549619,47.143962 C 44.306099,47.497547 44.023848,47.702058 43.639443,47.803462 C 43.261564,47.903143 42.992577,48.168492 42.759532,48.671457 C 42.600694,49.014259 42.579238,49.113881 42.586695,49.473776 C 42.59138,49.699781 42.602743,49.956252 42.611947,50.043712 C 42.62759,50.192342 42.534383,50.300659 42.475205,50.202623 L 42.475205,50.202623 z"
                 id="path3321" />
              <path
                 style="fill:#015a01;fill-opacity:1"
                 d="M 2.9318714,0.6079214 C 4.5873469,0.15050885 4.1833927,0.8486563 5.7710135,0.69747195 C 6.9000434,0.58995783 6.1160637,4.0507909 6.0801207,5.4626946 C 4.3471494,5.8004445 3.2751089,5.97197 2.8355406,5.2692373 C 2.2780824,4.3780352 2.6435719,2.3635545 2.9318714,0.6079214 z"
                 id="path3341"
                 sodipodi:nodetypes="cscsc" />
              <path
                 sodipodi:nodetypes="cccc"
                 id="path3343"
                 d="M 4.0973582,8.3436063 C 4.4120284,8.7135296 4.2744299,9.8756523 4.5602805,10.576592 C 4.5339896,11.290406 3.2423943,11.719471 2.6629145,11.332054 C 2.3014834,8.5013262 1.5931931,6.3828022 4.0973582,8.3436063 z"
                 style="fill:#015a01;fill-opacity:1" />
            </g>
          </g>
        </g>
        <g
           id="agrupamentoCopaEsquerdaPF8">
          <g
             style="fill:#000e00;fill-opacity:1;stroke:#002200;stroke-opacity:1"
             id="copaEsquerdaPF8">
            <path
               style="fill:#6a4607;fill-opacity:1;stroke:#002200;stroke-opacity:1"
               id="path4596"
               d="M 1275,4610 C 1272,4605 1245,4600 1217,4600 C 1173,4600 1160,4595 1133,4569 C 1115,4553 1100,4534 1100,4528 C 1100,4514 1192,4420 1208,4420 C 1214,4420 1220,4414 1220,4407 C 1220,4373 1318,4333 1335,4360 C 1347,4379 1387,4370 1404,4345 C 1433,4301 1496,4245 1551,4216 C 1581,4200 1622,4172 1643,4154 C 1665,4135 1699,4119 1721,4115 L 1760,4108 L 1760,3989 L 1760,3870 L 1732,3870 C 1716,3870 1689,3883 1665,3903 C 1644,3920 1594,3951 1555,3971 C 1500,3998 1481,4014 1467,4043 C 1457,4063 1442,4080 1434,4080 C 1410,4080 1415,4175 1441,4199 C 1455,4212 1460,4227 1458,4246 C 1455,4273 1451,4275 1400,4282 C 1335,4290 1252,4323 1244,4345 C 1236,4364 1196,4364 1176,4345 C 1168,4337 1152,4330 1142,4330 C 1131,4330 1109,4323 1093,4315 C 1078,4307 1053,4298 1038,4295 C 1015,4291 1011,4284 1008,4247 C 1005,4209 1002,4205 977,4202 C 961,4200 946,4191 942,4182 C 939,4173 929,4157 920,4147 C 906,4133 905,4119 912,4062 C 919,4004 925,3991 954,3963 C 1009,3912 1083,3898 1145,3927 C 1164,3936 1182,3941 1185,3938 C 1189,3935 1184,3905 1176,3872 C 1157,3799 1155,3740 1173,3740 C 1179,3740 1203,3722 1225,3700 C 1247,3679 1275,3661 1286,3660 C 1302,3660 1306,3655 1304,3638 C 1299,3608 1365,3551 1383,3569 C 1389,3575 1406,3580 1422,3580 C 1448,3580 1483,3610 1524,3665 C 1532,3676 1542,3680 1550,3675 C 1556,3671 1579,3665 1599,3663 C 1619,3660 1652,3649 1672,3639 C 1693,3628 1716,3620 1725,3620 C 1736,3620 1740,3608 1740,3569 L 1740,3518 L 1618,3524 C 1550,3528 1484,3535 1470,3540 C 1456,3545 1405,3552 1357,3555 C 1280,3561 1267,3565 1254,3585 C 1245,3598 1217,3617 1192,3626 C 1134,3648 1110,3667 1110,3694 C 1109,3706 1089,3733 1058,3760 C 956,3850 880,3929 880,3944 C 880,3962 864,3994 839,4025 C 806,4066 809,4077 861,4117 L 911,4155 L 906,4254 L 902,4354 L 863,4380 C 775,4439 679,4460 650,4425 C 643,4417 631,4410 624,4410 C 616,4410 610,4405 610,4400 C 610,4394 590,4370 565,4346 C 521,4303 520,4299 520,4240 C 520,4207 516,4172 511,4162 C 506,4153 498,4125 492,4101 C 484,4065 485,4050 498,4023 L 514,3990 L 594,3990 C 653,3991 686,3996 715,4010 C 737,4021 749,4029 741,4030 C 722,4030 744,4056 770,4063 C 785,4067 790,4063 790,4050 C 790,4040 797,4025 805,4016 C 813,4008 820,3995 820,3988 C 821,3958 927,3812 975,3776 C 1009,3750 1009,3750 992,3720 C 983,3704 966,3689 956,3686 C 945,3683 939,3678 942,3675 C 952,3664 988,3688 995,3710 C 998,3721 1008,3730 1016,3730 C 1030,3730 1086,3652 1082,3638 C 1081,3633 1086,3630 1094,3630 C 1117,3630 1123,3612 1107,3590 C 1094,3572 1091,3571 1080,3585 C 1073,3594 1032,3619 990,3641 L 912,3681 L 906,3733 C 902,3762 898,3796 897,3810 C 896,3824 882,3851 867,3871 C 831,3919 768,3938 709,3921 C 665,3908 654,3888 643,3813 C 636,3763 646,3747 702,3719 C 736,3701 739,3698 727,3679 C 717,3661 719,3656 743,3634 C 777,3605 821,3603 845,3630 C 855,3641 872,3650 882,3650 C 899,3650 901,3645 895,3603 C 883,3517 887,3520 805,3520 C 762,3520 728,3525 724,3531 C 720,3537 704,3539 684,3535 C 650,3529 524,3554 505,3571 C 500,3577 500,3580 508,3580 C 528,3580 551,3645 548,3696 C 545,3741 543,3744 513,3752 C 495,3757 476,3769 470,3780 C 464,3791 450,3800 440,3800 C 427,3800 420,3807 420,3820 C 420,3844 395,3847 382,3824 C 376,3813 371,3811 366,3819 C 354,3838 341,3831 324,3794 C 310,3765 302,3759 283,3763 C 254,3768 253,3762 282,3751 L 305,3742 L 280,3732 C 262,3724 260,3721 273,3721 C 288,3720 293,3713 288,3693 C 288,3688 277,3686 266,3687 C 252,3689 256,3684 278,3675 C 310,3660 310,3659 295,3630 C 287,3614 271,3595 260,3587 C 239,3573 239,3572 265,3566 C 296,3558 298,3528 271,3501 C 258,3488 255,3480 263,3477 C 271,3474 269,3466 256,3451 C 236,3429 247,3421 269,3443 C 280,3453 281,3452 275,3441 C 269,3431 273,3430 291,3435 L 315,3442 L 291,3416 C 277,3402 272,3390 278,3390 C 284,3390 292,3395 296,3402 C 301,3410 306,3408 311,3394 C 318,3376 319,3376 319,3394 C 320,3410 325,3411 358,3405 C 378,3402 399,3395 403,3391 C 416,3378 400,3351 377,3347 C 357,3343 357,3343 379,3341 C 402,3340 402,3339 386,3321 C 369,3302 369,3301 399,3286 C 415,3277 443,3270 460,3270 C 478,3270 505,3261 521,3249 C 537,3238 567,3224 586,3218 C 622,3209 622,3208 616,3167 C 612,3144 605,3121 601,3117 C 581,3097 604,3060 657,3025 C 706,2992 718,2989 759,2994 C 874,3007 968,3021 1028,3035 C 1094,3051 1095,3051 1112,3028 L 1129,3005 L 1052,2993 C 1010,2987 949,2974 916,2965 C 853,2947 729,2949 677,2969 C 661,2975 630,2980 606,2980 C 573,2980 558,2986 537,3008 C 515,3031 511,3041 517,3073 C 521,3098 528,3110 539,3110 C 565,3110 580,3131 580,3167 C 580,3193 574,3203 550,3215 C 534,3223 511,3230 498,3230 C 485,3231 464,3237 450,3245 C 392,3278 353,3252 383,3200 L 400,3172 L 367,3167 C 350,3165 329,3167 322,3172 C 314,3179 310,3179 310,3172 C 310,3166 315,3158 321,3155 C 327,3151 329,3142 326,3135 C 323,3127 332,3119 348,3115 L 375,3108 L 350,3090 C 334,3078 321,3075 316,3081 C 299,3097 287,3091 301,3074 C 310,3063 326,3059 352,3062 L 389,3065 L 370,3045 C 355,3029 353,3021 362,3012 C 369,3005 380,3000 388,3000 C 397,3000 401,2993 397,2980 C 394,2969 396,2962 401,2966 C 406,2969 410,2978 410,2986 C 410,2994 415,3000 420,3000 C 434,3000 432,2967 418,2950 C 407,2938 408,2938 423,2949 C 432,2956 440,2971 440,2981 C 440,3005 446,3005 497,2976 C 520,2963 554,2950 572,2947 C 590,2944 618,2937 633,2931 C 690,2909 1002,2923 1019,2948 C 1022,2953 1053,2960 1087,2963 C 1147,2968 1150,2967 1185,2934 C 1205,2915 1228,2900 1235,2900 C 1243,2900 1266,2914 1286,2932 L 1322,2964 L 1374,2946 C 1421,2930 1438,2929 1510,2939 C 1556,2945 1606,2957 1623,2965 C 1640,2973 1658,2980 1663,2980 C 1669,2980 1684,2990 1697,3002 C 1713,3017 1720,3019 1720,3009 C 1720,2979 1707,2950 1695,2950 C 1688,2950 1659,2934 1631,2915 C 1603,2895 1566,2877 1550,2873 C 1533,2870 1517,2863 1514,2859 C 1511,2854 1494,2850 1475,2850 C 1456,2850 1438,2846 1435,2840 C 1432,2835 1414,2830 1395,2830 C 1376,2830 1358,2826 1355,2820 C 1352,2815 1323,2810 1291,2810 C 1253,2810 1213,2802 1172,2785 C 1109,2760 1056,2753 1046,2769 C 1043,2774 1012,2781 979,2785 C 929,2791 911,2798 880,2826 C 837,2865 790,2873 790,2841 C 790,2831 781,2820 770,2817 C 759,2814 750,2805 750,2796 C 750,2786 741,2780 726,2780 C 712,2780 698,2776 695,2770 C 691,2764 701,2763 720,2766 C 743,2771 750,2769 750,2756 C 750,2747 746,2740 740,2740 C 735,2740 730,2736 730,2730 C 730,2725 737,2723 745,2726 C 754,2730 760,2726 760,2716 C 760,2707 756,2700 750,2700 C 745,2700 740,2696 740,2691 C 740,2687 751,2685 765,2688 C 783,2691 790,2688 790,2676 C 790,2667 786,2660 780,2660 C 775,2660 770,2655 770,2649 C 770,2644 780,2646 792,2654 C 805,2664 836,2670 867,2670 C 924,2670 940,2684 940,2734 C 940,2757 943,2758 978,2753 C 998,2750 1019,2743 1025,2739 C 1043,2722 1130,2730 1192,2755 C 1226,2769 1267,2780 1284,2779 C 1309,2778 1311,2777 1295,2771 C 1261,2760 1219,2740 1117,2689 C 1054,2657 1006,2640 982,2640 C 962,2640 927,2635 905,2629 C 840,2613 727,2618 676,2640 C 629,2660 573,2728 583,2753 C 585,2760 571,2785 550,2809 C 510,2854 461,2870 406,2856 C 384,2851 380,2844 380,2815 C 380,2778 340,2730 308,2730 C 299,2730 288,2725 285,2720 C 281,2713 287,2711 304,2716 C 326,2721 330,2719 330,2699 C 330,2686 334,2668 339,2661 C 345,2652 345,2639 339,2628 C 333,2617 333,2610 339,2610 C 344,2610 350,2617 354,2625 C 357,2633 369,2640 382,2640 C 399,2640 401,2637 392,2628 C 385,2621 380,2611 380,2606 C 381,2600 390,2606 401,2619 C 413,2633 424,2640 428,2634 C 432,2629 447,2617 462,2608 C 485,2593 489,2592 494,2606 C 497,2615 500,2632 500,2645 C 500,2670 524,2700 543,2700 C 550,2700 565,2684 578,2664 C 592,2643 618,2622 643,2611 C 704,2585 829,2578 925,2596 C 969,2604 1021,2612 1040,2615 C 1060,2618 1111,2640 1155,2665 C 1198,2690 1241,2710 1250,2710 C 1259,2710 1275,2717 1286,2725 C 1296,2733 1312,2740 1320,2740 C 1328,2740 1348,2754 1363,2770 C 1384,2792 1401,2800 1425,2800 C 1444,2800 1469,2804 1482,2809 C 1495,2814 1530,2825 1560,2835 C 1590,2845 1633,2866 1654,2882 C 1676,2897 1698,2910 1702,2910 C 1721.3449,2908.3058 1732.2296,2888.9235 1733.3847,2923.3467 C 1783.6339,4420.8681 1775.5298,4172.0128 1798.1538,4449.7007 C 1794.1538,4461.7007 1784,4480 1778,4480 C 1773,4480 1770,4486 1773,4494 C 1783,4520 1739,4548 1698,4543 C 1665,4538 1660,4534 1660,4511 C 1660,4473 1677,4460 1726,4460 C 1777,4460 1783,4448 1774,4370 L 1768,4312 L 1739,4328 C 1720,4339 1708,4358 1701,4385 C 1695,4407 1679,4438 1665,4454 C 1651,4470 1640,4493 1640,4504 C 1639,4530 1607,4570 1587,4570 C 1579,4570 1567,4577 1560,4585 C 1538,4612 1523,4602 1516,4555 C 1505,4484 1513,4470 1567,4470 C 1619,4470 1652,4446 1675,4391 C 1693,4350 1693,4350 1677,4350 C 1670,4350 1657,4368 1647,4391 C 1633,4423 1625,4431 1607,4428 C 1589,4426 1584,4417 1582,4387 C 1577,4329 1600,4308 1659,4316 C 1698,4321 1708,4319 1724,4301 C 1735,4289 1749,4280 1757,4280 C 1766,4280 1770,4266 1770,4233 C 1770,4150 1764,4140 1717,4145 C 1687,4148 1668,4158 1642,4184 C 1623,4204 1604,4220 1599,4220 C 1584,4220 1501,4276 1465,4312 C 1446,4331 1428,4357 1425,4370 C 1423,4383 1415,4397 1408,4401 C 1395,4409 1419,4443 1463,4481 C 1476,4492 1480,4503 1475,4523 C 1465,4561 1433,4580 1378,4580 C 1341,4580 1328,4584 1320,4600 C 1309,4621 1285,4627 1275,4610 z M 1367,4570 C 1420,4570 1448,4557 1460,4527 C 1466,4509 1461,4497 1430,4465 C 1409,4443 1390,4416 1388,4405 C 1386,4393 1375,4384 1360,4382 C 1346,4380 1331,4374 1326,4369 C 1305,4349 1279,4363 1195,4443 L 1107,4526 L 1141,4558 C 1170,4585 1182,4590 1227,4590 C 1256,4590 1282,4595 1286,4602 C 1291,4610 1298,4607 1308,4592 C 1319,4575 1332,4570 1367,4570 z M 1612,4535 C 1621,4524 1629,4507 1630,4498 C 1630,4483 1621,4480 1581,4480 C 1525,4480 1517,4490 1526,4550 L 1532,4588 L 1563,4571 C 1580,4562 1602,4546 1612,4535 z M 1757,4486 C 1748,4464 1684,4464 1676,4486 C 1664,4516 1670,4529 1698,4532 C 1730,4537 1766,4509 1757,4486 z M 826,4388 C 858,4368 885,4344 886,4334 C 888,4323 892,4280 896,4238 C 903,4163 902,4161 874,4136 C 858,4122 841,4110 835,4110 C 830,4110 814,4101 800,4090 C 786,4079 769,4070 761,4070 C 753,4070 732,4054 714,4035 C 683,4001 681,4000 601,4000 C 523,4000 520,4001 506,4028 C 492,4056 498,4118 521,4162 C 526,4172 530,4207 530,4240 C 530,4296 533,4304 562,4331 C 580,4347 598,4360 602,4360 C 607,4360 610,4367 610,4375 C 610,4384 621,4396 635,4402 C 649,4408 660,4418 660,4423 C 660,4428 683,4431 715,4428 C 755,4425 785,4414 826,4388 z M 1638,4393 C 1655,4354 1654,4320 1634,4320 C 1612,4320 1591,4349 1590,4381 C 1590,4428 1618,4435 1638,4393 z M 1249,4327 C 1275,4303 1359,4273 1415,4268 C 1453,4264 1461,4231 1431,4201 C 1414,4184 1410,4167 1410,4111 C 1410,4028 1399,4015 1329,4018 C 1270,4020 1234,4008 1225,3981 C 1222,3970 1206,3959 1189,3955 C 1173,3951 1146,3942 1130,3933 C 1089,3913 1033,3923 976,3962 C 942,3984 930,3999 929,4018 C 928,4033 926,4063 924,4085 C 922,4107 926,4131 934,4140 C 941,4148 950,4163 953,4173 C 957,4184 970,4190 989,4190 C 1018,4190 1019,4192 1022,4238 C 1025,4284 1026,4285 1059,4288 C 1078,4290 1103,4298 1114,4306 C 1125,4314 1142,4320 1151,4320 C 1160,4320 1173,4327 1180,4335 C 1198,4356 1220,4354 1249,4327 z M 1530,3956 C 1560,3940 1601,3916 1620,3901 C 1667,3864 1714,3840 1741,3840 C 1758,3840 1761,3836 1756,3818 C 1753,3805 1747,3765 1744,3728 C 1738,3671 1734,3660 1718,3660 C 1699,3660 1665,3676 1643,3697 C 1636,3703 1617,3711 1600,3715 C 1567,3722 1567,3724 1567,3833 C 1568,3890 1567,3892 1530,3915 C 1509,3928 1489,3943 1486,3948 C 1483,3954 1460,3961 1436,3964 C 1412,3968 1389,3977 1386,3985 C 1383,3993 1376,4000 1370,4000 C 1343,4000 1399,3961 1435,3955 C 1457,3951 1486,3937 1500,3925 C 1514,3913 1532,3900 1540,3898 C 1552,3894 1555,3875 1556,3812 C 1556,3767 1553,3730 1548,3730 C 1544,3730 1531,3713 1520,3693 C 1467,3592 1394,3558 1335,3606 C 1312,3624 1309,3631 1318,3643 C 1332,3660 1324,3670 1297,3670 C 1286,3670 1260,3688 1239,3710 C 1217,3732 1193,3750 1185,3750 C 1149,3750 1184,3916 1231,3968 C 1259,3999 1266,4002 1333,4005 C 1385,4008 1408,4013 1415,4025 C 1424,4038 1428,4037 1450,4012 C 1464,3996 1500,3971 1530,3956 z M 797,3908 C 837,3891 884,3839 886,3810 C 888,3796 892,3764 896,3738 C 901,3700 900,3690 889,3690 C 881,3690 862,3674 847,3655 C 815,3615 784,3610 749,3639 C 727,3657 726,3661 739,3681 C 746,3694 749,3705 744,3707 C 708,3720 655,3759 651,3775 C 649,3785 653,3818 659,3846 C 669,3889 676,3901 698,3909 C 735,3922 764,3922 797,3908 z M 413,3810 C 416,3799 426,3790 435,3790 C 444,3790 461,3779 472,3765 C 483,3751 502,3740 516,3740 C 538,3740 540,3737 540,3685 C 540,3655 536,3630 530,3630 C 525,3630 520,3624 520,3618 C 520,3600 402,3480 384,3480 C 376,3480 367,3467 364,3450 C 360,3434 356,3420 354,3420 C 342,3420 280,3464 280,3473 C 280,3479 286,3499 292,3518 C 303,3547 302,3553 288,3564 C 272,3576 273,3579 295,3611 C 317,3642 318,3649 309,3687 C 299,3724 300,3732 319,3758 C 331,3775 340,3796 340,3806 C 340,3820 343,3821 352,3812 C 369,3795 390,3797 390,3815 C 390,3837 407,3833 413,3810 z M 1058,3552 C 1069,3537 1068,3534 1048,3528 C 1035,3525 995,3522 957,3521 C 892,3520 890,3521 894,3543 C 897,3555 901,3581 905,3601 L 910,3637 L 978,3603 C 1015,3584 1051,3562 1058,3552 z M 1200,3582 L 1224,3567 L 1180,3554 C 1130,3539 1110,3542 1110,3565 C 1110,3608 1148,3615 1200,3582 z M 530,3519 C 549,3507 569,3491 573,3484 C 581,3469 650,3464 650,3478 C 650,3482 634,3484 615,3482 C 587,3479 580,3481 580,3495 C 580,3509 586,3510 613,3504 C 630,3499 662,3496 683,3498 C 721,3500 736,3478 704,3466 C 692,3461 690,3451 695,3418 C 702,3365 687,3336 666,3363 C 650,3384 605,3385 588,3365 C 523,3288 513,3280 471,3280 C 448,3280 422,3285 412,3291 C 396,3301 395,3307 404,3334 C 410,3351 419,3370 423,3377 C 431,3390 392,3423 378,3414 C 374,3411 370,3418 370,3430 C 370,3450 405,3489 424,3490 C 428,3490 441,3501 452,3515 C 476,3545 485,3546 530,3519 z M 1390,3504 C 1437,3496 1490,3484 1508,3479 C 1528,3472 1578,3471 1636,3475 C 1727,3482 1730,3482 1730,3461 C 1730,3445 1724,3440 1702,3440 C 1687,3440 1669,3435 1663,3429 C 1656,3422 1598,3417 1508,3417 C 1390,3415 1357,3418 1320,3434 C 1295,3444 1257,3457 1235,3464 C 1213,3470 1185,3482 1172,3490 C 1150,3505 1150,3505 1192,3516 C 1238,3529 1258,3528 1390,3504 z M 1139,3453 C 1182,3403 1190,3376 1165,3366 C 1157,3363 1150,3349 1150,3336 C 1150,3322 1136,3295 1119,3275 C 1091,3243 1083,3240 1034,3240 C 992,3240 972,3246 938,3269 C 905,3292 891,3296 872,3289 C 859,3284 838,3280 825,3280 C 798,3280 730,3344 731,3369 C 732,3400 766,3445 793,3450 C 808,3453 829,3463 840,3472 C 855,3486 883,3490 967,3493 C 1026,3494 1080,3497 1087,3498 C 1093,3499 1117,3479 1139,3453 z M 824,3475 C 814,3467 795,3460 783,3460 C 770,3460 755,3447 741,3424 C 719,3387 713,3340 730,3340 C 736,3340 740,3334 741,3328 C 741,3321 755,3304 771,3291 C 797,3271 809,3268 850,3273 C 891,3278 905,3275 935,3254 C 964,3235 984,3230 1035,3230 C 1098,3230 1099,3231 1138,3275 C 1160,3300 1183,3320 1189,3320 C 1196,3320 1216,3331 1234,3345 C 1252,3359 1276,3370 1288,3370 C 1299,3370 1311,3374 1314,3378 C 1317,3383 1348,3383 1382,3378 C 1440,3370 1647,3382 1708,3397 C 1728,3402 1730,3399 1730,3357 C 1730,3333 1727,3298 1724,3281 C 1718,3253 1714,3250 1679,3250 C 1659,3250 1608,3246 1568,3240 C 1528,3235 1459,3229 1415,3226 C 1371,3224 1321,3219 1304,3215 C 1284,3211 1270,3212 1266,3219 C 1253,3239 1162,3232 1138,3210 C 1118,3192 1102,3190 983,3190 L 851,3190 L 835,3219 C 827,3235 812,3251 801,3255 C 790,3258 765,3274 745,3290 C 724,3307 697,3320 683,3320 C 663,3320 661,3316 666,3294 C 671,3276 667,3265 654,3256 C 639,3245 629,3246 588,3263 C 562,3274 540,3286 540,3289 C 540,3293 548,3303 558,3311 C 567,3320 583,3337 592,3349 C 613,3373 645,3377 654,3355 C 657,3347 666,3340 674,3340 C 696,3340 713,3378 707,3415 C 700,3460 737,3490 799,3490 C 841,3490 842,3489 824,3475 z M 1275,3409 C 1280,3403 1277,3400 1266,3400 C 1256,3400 1235,3389 1218,3375 C 1188,3349 1155,3339 1178,3362 C 1194,3378 1193,3400 1175,3420 C 1160,3436 1163,3437 1212,3427 C 1241,3422 1269,3413 1275,3409 z M 761,3267 C 833,3217 841,3204 806,3198 C 792,3195 783,3197 786,3201 C 789,3206 776,3210 757,3210 C 715,3210 653,3234 669,3244 C 675,3248 680,3264 680,3281 C 680,3297 684,3310 689,3310 C 694,3310 726,3291 761,3267 z M 440,3235 C 454,3227 475,3221 488,3220 C 501,3220 525,3213 541,3204 C 566,3191 571,3184 568,3157 C 566,3133 559,3124 540,3120 C 520,3115 514,3105 507,3070 C 502,3045 494,3021 489,3016 C 479,3005 379,3008 367,3019 C 363,3023 371,3035 385,3044 C 418,3065 408,3083 367,3076 C 341,3071 339,3072 356,3079 C 390,3094 394,3109 365,3120 C 335,3131 336,3153 366,3158 C 410,3165 412,3168 395,3199 C 387,3216 380,3234 380,3240 C 380,3254 410,3252 440,3235 z M 1225,3210 C 1203,3206 1178,3206 1170,3211 C 1160,3216 1175,3219 1210,3219 C 1265,3218 1265,3218 1225,3210 z M 1720,3172 L 1720,3134 L 1658,3123 C 1623,3117 1556,3099 1509,3082 C 1462,3066 1399,3050 1368,3046 L 1313,3039 L 1301,3082 C 1294,3106 1287,3130 1284,3135 C 1277,3151 1348,3171 1450,3181 C 1502,3186 1563,3194 1585,3199 C 1607,3204 1646,3208 1673,3209 L 1720,3210 L 1720,3172 z M 670,3185 C 684,3177 718,3171 747,3170 C 810,3170 830,3163 830,3141 C 830,3132 837,3115 845,3103 C 859,3084 857,3080 825,3056 C 806,3041 790,3022 790,3014 C 790,2982 682,3006 650,3045 C 643,3053 632,3060 625,3060 C 611,3060 598,3108 610,3115 C 615,3118 621,3138 625,3160 C 632,3204 634,3205 670,3185 z M 1090,3120 C 1090,3098 1084,3087 1068,3081 C 1020,3063 947,3050 893,3050 C 840,3050 838,3051 853,3068 C 866,3083 867,3087 854,3104 C 824,3146 833,3150 965,3150 L 1090,3150 L 1090,3120 z M 1190,3145 C 1190,3140 1115,3100 1105,3100 C 1102,3100 1100,3111 1100,3125 C 1100,3148 1104,3150 1145,3150 C 1170,3150 1190,3148 1190,3145 z M 1295,3073 C 1301,3044 1298,3039 1276,3030 C 1262,3025 1229,3018 1202,3014 C 1162,3009 1149,3011 1131,3026 C 1120,3036 1110,3048 1110,3052 C 1110,3056 1137,3071 1170,3086 C 1203,3101 1235,3119 1242,3127 C 1252,3139 1256,3138 1271,3123 C 1280,3113 1291,3090 1295,3073 z M 1720,3080 C 1720,3075 1716,3070 1711,3070 C 1706,3070 1687,3055 1668,3036 C 1609,2977 1450,2948 1366,2982 L 1327,2998 L 1379,3009 C 1407,3015 1439,3020 1449,3020 C 1458,3020 1504,3035 1551,3054 C 1632,3087 1720,3100 1720,3080 z M 1300,2982 C 1300,2972 1287,2951 1271,2936 C 1242,2908 1242,2908 1214,2926 C 1161,2960 1161,2980 1213,2981 C 1231,2981 1254,2985 1265,2990 C 1295,3003 1300,3002 1300,2982 z M 526,2821 C 534,2810 548,2794 556,2785 C 576,2766 567,2722 542,2713 C 510,2702 490,2677 490,2648 C 490,2617 471,2611 446,2635 C 438,2643 418,2650 401,2650 C 341,2650 320,2708 365,2750 C 381,2765 390,2784 390,2805 C 390,2822 393,2840 398,2844 C 402,2849 429,2850 459,2847 C 497,2843 516,2835 526,2821 z M 883,2805 C 930,2759 939,2735 920,2699 C 911,2684 898,2680 856,2680 C 793,2680 774,2696 764,2758 C 758,2797 760,2802 779,2807 C 791,2810 800,2820 800,2831 C 800,2863 833,2853 883,2805 z"
               sodipodi:nodetypes="cscssssssscccccscsssscsssssssssscsscssssssssssscccscssscsscccccssssssscccsssssssssssssssscccsssscscssssssssssssssssscccssscsssssssscccssssssssscsscssccccccsssssssssscccsssscccsscccsssssssssssssssscccsssssssssssssscsssssssssssssssssssssssscssscscssscssssssssssssssssssssssssssssssccscsscsscccssssssscssscsssssssssssssscccsssscccsssccsscccccscccsssssssssssssssssccsccccsscssccssssssssssccssscssscsssssssscsccssssscsscccsssssssssccsssssssssscsscssssccssscccccccsccssssccscssssssssssccscsssccsscccsssssssssscsccsssssscsssssssssssccssscccsssssssscssssccsssscccssssssccsssssssssssscsccscccccccccssscccccssssssssccssscccccsssccsssssssccsscccssccssssccssssssssscccssssc"
               transform="matrix(3.0014929e-2,0,0,-4.1642179e-2,-7.285906,192.60045)" />
          </g>
          <g
             id="preenchimentoCopaEsquerdaPF8"
             transform="translate(-49.957003,0)">
            <g
               id="g3346"
               transform="matrix(1.0021841,0,0,1.003537,-0.146907,-9.6113168e-2)">
              <path
                 id="path2531"
                 d="M 58.451951,25.439231 C 57.820214,24.678026 57.74301,22.480401 58.268905,20.22879 C 58.540127,19.067582 58.762039,17.212681 58.762039,16.106784 C 58.762039,13.934664 59.169818,12.854881 60.437228,11.670834 C 60.879565,11.257579 61.241505,10.712137 61.241505,10.458748 C 61.241505,10.205356 61.694782,9.5922365 62.248787,9.0962597 C 63.447144,8.0234199 64.356426,8.0917043 66.504511,9.4158411 C 68.734728,10.790593 69.172013,11.703151 69.417108,15.494182 C 69.669548,19.398485 69.479435,19.916696 67.132652,21.72167 C 66.247142,22.402717 64.855728,23.622418 64.040573,24.432119 C 62.602762,25.860266 62.502809,25.904301 60.698192,25.904301 C 59.422476,25.904301 58.716665,25.758174 58.451951,25.439231 z"
                 style="fill:#015a01;fill-opacity:1;stroke:none;stroke-width:1px;stroke-linecap:butt;stroke-linejoin:miter;stroke-opacity:1" />
              <path
                 id="path3303"
                 d="M 72.974397,28.09573 C 70.982952,26.653131 70.72546,26.09703 70.72546,23.238758 C 70.72546,20.137356 71.262853,18.663342 72.558126,18.211797 C 73.403003,17.91728 73.488917,17.753527 73.575388,16.272846 C 73.637313,15.212503 73.829905,14.579489 74.134725,14.434617 C 76.903575,13.118572 78.250451,12.357578 78.382111,12.034792 C 78.63015,11.426632 79.229902,11.57707 80.046917,12.452371 C 80.916899,13.384427 82.703137,14.355382 84.500625,14.873293 C 85.534687,15.171238 85.774916,15.387497 85.85711,16.094535 C 85.91203,16.567097 85.78629,17.159373 85.577705,17.410719 C 85.369089,17.662069 85.086182,19.198246 84.948975,20.824456 C 84.595465,25.014114 84.690769,24.859672 82.265697,25.171929 C 80.40802,25.411133 80.122386,25.542346 79.563576,26.413302 C 78.891393,27.46091 76.143216,29.003633 74.949198,29.003633 C 74.552391,29.003633 73.663719,28.595076 72.974397,28.09573 z"
                 style="fill:#015a01;fill-opacity:1" />
              <path
                 id="path3305"
                 d="M 65.507518,40.990277 C 64.977687,40.426298 64.874293,40.050857 65.031863,39.263087 C 65.210261,38.37097 65.104667,38.150592 64.103056,37.324982 C 62.436824,35.951538 62.309193,35.564395 62.668344,32.97304 C 63.017608,30.452704 63.636978,29.623499 65.170218,29.623499 C 66.322735,29.623499 68.037719,31.130788 68.662854,32.693127 C 68.927382,33.354298 69.237037,34.923561 69.350906,36.180368 C 69.550596,38.383599 69.526142,38.503048 68.669549,39.514239 C 66.533614,42.03561 66.502992,42.049898 65.507518,40.990274 L 65.507518,40.990277 z"
                 style="fill:#015a01;fill-opacity:1" />
              <path
                 id="path3307"
                 d="M 52.041978,48.863019 C 51.332538,48.019902 51.301703,47.844607 51.598641,46.342826 C 51.832625,45.159433 51.82103,44.573861 51.555179,44.148164 C 51.271314,43.693626 51.294289,43.324123 51.661024,42.446405 C 51.918659,41.82978 52.14028,40.331136 52.153489,39.116095 C 52.178482,36.817433 53.0698,33.537314 53.486304,34.211233 C 53.840685,34.784627 54.290714,34.652742 54.599277,33.885081 C 54.799045,33.388109 54.885222,33.336883 54.899221,33.70681 C 54.921431,34.293377 57.267021,36.6561 58.095683,36.92661 C 58.833758,37.167558 58.854368,40.549453 58.126862,42.050691 C 57.466553,43.413353 55.176487,46.659286 54.35333,47.39931 C 54.001847,47.715294 53.625548,48.377779 53.517111,48.871493 C 53.269162,50.000391 52.997701,49.998835 52.041972,48.863016 L 52.041978,48.863019 z"
                 style="fill:#015a01;fill-opacity:1" />
              <path
                 id="path3310"
                 d="M 83.131186,42.386867 C 82.473848,41.729505 82.296567,41.308792 82.415271,40.687878 C 82.541073,40.029741 82.424693,39.805157 81.840624,39.578943 C 81.437773,39.422923 80.445739,38.523137 79.636038,37.57941 C 78.295577,36.017067 78.163856,35.721807 78.163856,34.279399 C 78.163856,32.281021 78.934753,29.174099 79.824106,27.588224 C 80.382915,26.591789 80.743833,26.319274 81.800767,26.095769 C 83.010901,25.839876 83.144389,25.882414 83.881999,26.759004 C 84.315471,27.274175 85.193667,27.907787 85.833555,28.167037 C 86.473412,28.42629 87.485096,29.146599 88.081717,29.76773 L 89.166483,30.897055 L 89.166483,33.901994 C 89.166483,36.784939 89.116801,37.005423 87.942743,39.333101 C 86.73608,41.725404 85.378604,43.260559 84.46988,43.260559 C 84.214123,43.260559 83.611737,42.867393 83.131186,42.386857 L 83.131186,42.386867 z"
                 style="fill:#015a01;fill-opacity:1" />
              <path
                 id="path3312"
                 d="M 79.760712,8.72924 C 78.858676,7.6356501 77.683509,6.1321952 77.149231,5.3882286 L 76.17781,4.0355593 L 77.00054,3.0275203 C 77.633982,2.2513887 78.251034,1.9187127 79.682693,1.5814589 C 81.413716,1.1736829 81.57423,1.1826865 82.007027,1.7117827 C 82.274044,2.0382167 83.096526,2.3686055 83.939337,2.4879948 C 84.932753,2.62872 85.558452,2.9124576 85.876419,3.3664167 C 86.402918,4.1181131 86.490592,5.1742228 86.06342,5.6191753 C 85.907955,5.7811184 85.345035,6.777597 84.812496,7.8335765 C 83.933593,9.5763462 82.684656,10.717576 81.656294,10.717576 C 81.515771,10.717576 80.66276,9.8228237 79.760718,8.7292369 L 79.760712,8.72924 z"
                 style="fill:#015a01;fill-opacity:1" />
              <path
                 id="path3314"
                 d="M 88.827903,5.2965627 C 88.571158,4.9872122 88.513702,4.3723172 88.654071,3.4362756 C 88.840331,2.1941565 88.928126,2.0725294 89.44048,2.3467366 C 90.337885,2.8270183 91.305022,4.2165386 91.305022,5.0256099 C 91.305022,5.6516811 91.152272,5.7586452 90.258204,5.7586452 C 89.682457,5.7586452 89.038816,5.5507079 88.827894,5.2965596 L 88.827903,5.2965627 z"
                 style="fill:#015a01;fill-opacity:1" />
              <path
                 id="path3316"
                 d="M 93.552038,6.1732459 C 93.338959,6.0872704 93.164621,5.6101345 93.164621,5.1129521 C 93.164621,4.3587793 93.291214,4.2089793 93.928551,4.2089793 C 94.88837,4.2089793 95.554972,5.2740957 95.007778,5.9334227 C 94.630946,6.3874686 94.241816,6.4515814 93.552038,6.173249 L 93.552038,6.1732459 z"
                 style="fill:#015a01;fill-opacity:1" />
              <path
                 id="path3318"
                 d="M 91.227539,11.965832 C 90.655148,11.157123 90.475117,8.8579769 90.984186,8.8579769 C 91.532572,8.8579769 91.960463,10.106354 91.864647,11.426768 L 91.769922,12.732142 L 91.227539,11.965832 z"
                 style="fill:#015a01;fill-opacity:1" />
              <path
                 id="path3320"
                 d="M 72.386615,57.263244 C 72.124039,57.147384 71.385422,56.647608 70.745233,56.152632 C 69.701382,55.345563 69.472735,55.285988 68.529862,55.575363 C 67.278089,55.959535 66.590861,55.58794 65.60599,53.994385 C 64.349942,51.962066 64.946728,50.175162 67.415869,48.575212 C 68.821317,47.664511 69.336305,47.523234 72.016009,47.313202 C 75.520978,47.03848 75.905807,47.227453 77.260091,49.888334 C 77.981318,51.305404 78.000843,51.463963 77.565356,52.3678 C 77.309472,52.898876 76.949686,53.904966 76.765828,54.603561 C 76.140795,56.978468 74.289369,58.102911 72.386605,57.26325 L 72.386615,57.263244 z"
                 style="fill:#015a01;fill-opacity:1" />
              <path
                 id="path3322"
                 d="M 56.072634,55.752034 C 54.930834,55.529775 54.768569,55.022796 55.24891,53.17842 C 55.688857,51.48917 55.685729,51.46763 54.90295,50.791306 C 53.856649,49.887302 53.906136,48.998578 55.067425,47.837289 C 55.592328,47.312371 56.235994,46.556023 56.49777,46.156497 C 56.759546,45.756975 57.103134,45.430091 57.261296,45.430091 C 57.419461,45.430091 58.219833,46.057706 59.03991,46.82479 C 60.470754,48.163178 61.873074,48.642846 62.306199,47.942031 C 62.502251,47.624809 61.783048,47.28969 60.906222,47.28969 C 60.579239,47.28969 60.311705,47.1353 60.311705,46.946597 C 60.311705,46.757898 60.532316,46.688163 60.801954,46.791631 C 61.07159,46.895102 61.734072,46.981892 62.274137,46.984502 C 63.607497,46.990946 64.312344,47.442156 63.795862,47.958638 C 63.564841,48.189649 63.411037,49.185784 63.411037,50.451009 C 63.411037,51.610156 63.336396,52.558554 63.245167,52.558554 C 63.153932,52.558554 62.735528,52.33331 62.315367,52.058009 C 61.622797,51.604217 61.482874,51.602389 60.817494,52.038362 C 60.413816,52.302859 59.686387,53.14704 59.200967,53.914323 C 58.495909,55.028777 57.155045,56.156894 56.810375,55.925612 C 56.775783,55.902395 56.443795,55.824289 56.072631,55.752037 L 56.072634,55.752034 z"
                 style="fill:#015a01;fill-opacity:1" />
              <path
                 id="path3324"
                 d="M 63.982702,66.963486 C 62.705697,66.269852 61.232653,64.657415 61.201251,63.91882 C 61.16911,63.162853 61.789243,59.965765 62.011038,59.743974 C 62.090942,59.664063 62.37793,59.782604 62.648784,60.007392 C 62.919638,60.232177 64.073225,60.568963 65.212313,60.755803 L 67.283385,61.095505 L 67.712382,62.700163 C 68.130569,64.264417 68.121373,64.328604 67.347287,65.248551 C 66.910539,65.767605 66.46443,66.471963 66.355932,66.813806 C 66.122822,67.548264 65.16997,67.60837 63.982709,66.963486 L 63.982702,66.963486 z"
                 style="fill:#015a01;fill-opacity:1" />
              <path
                 id="path3326"
                 d="M 66.372086,59.094165 C 66.257559,58.90884 65.816484,58.757218 65.391919,58.757218 C 64.967363,58.757218 64.226536,58.553756 63.745656,58.305084 C 62.898042,57.866761 62.881079,57.810319 63.190544,56.457954 L 63.509763,55.062951 L 65.018285,56.325972 C 66.737943,57.765741 67.340664,58.670762 66.883996,59.12743 C 66.685732,59.325685 66.508053,59.314143 66.372092,59.094155 L 66.372086,59.094165 z"
                 style="fill:#015a01;fill-opacity:1" />
              <path
                 id="path3328"
                 d="M 54.198394,66.922776 C 53.927981,66.813264 54.005306,66.516894 54.467351,65.891941 C 55.133512,64.99091 55.040808,64.336015 54.247091,64.336015 C 53.876104,64.336015 53.864984,64.228524 54.183266,63.718873 C 54.514476,63.188531 54.47125,63.03349 53.875961,62.616533 C 52.934797,61.957315 53.00521,61.576435 54.141481,61.180328 C 54.895372,60.917517 55.067605,60.706146 54.949127,60.189168 C 54.381013,57.710229 54.362079,57.517485 54.686675,57.517485 C 54.874327,57.517485 55.484508,57.795904 56.042633,58.136192 C 56.600757,58.476477 57.307817,58.755423 57.613876,58.756058 C 58.374865,58.757636 59.691839,60.133383 59.691839,60.92675 C 59.691839,61.283173 59.338069,61.928562 58.905681,62.360947 C 58.440787,62.82585 57.975466,63.801637 57.766993,64.748843 C 57.573098,65.629806 57.28218,66.524918 57.1205,66.737997 C 56.834881,67.114429 54.963821,67.232743 54.1984,66.922776 L 54.198394,66.922776 z"
                 style="fill:#015a01;fill-opacity:1" />
              <path
                 id="path3330"
                 d="M 56.299106,82.796958 C 56.095994,82.552222 55.519602,82.261886 55.018239,82.151767 C 53.144956,81.740331 52.648843,80.167379 53.779188,78.22324 C 54.106967,77.659481 54.471467,76.535759 54.589211,75.726059 C 54.797244,74.29541 54.833475,74.253876 55.873242,74.253876 C 57.287368,74.253876 57.948632,74.642387 58.754849,75.946874 C 59.695412,77.468742 59.669948,78.795928 58.684221,79.627829 C 57.707944,80.451762 57.212373,81.40087 57.212373,82.44673 C 57.212373,83.33308 56.857119,83.469321 56.299109,82.796961 L 56.299106,82.796958 z"
                 style="fill:#015a01;fill-opacity:1" />
              <path
                 id="path3332"
                 d="M 66.66823,80.145802 C 65.982025,79.387557 65.5715,75.803542 66.170855,75.803542 C 66.366033,75.803542 66.658278,75.454867 66.820302,75.028709 C 66.982325,74.602551 67.245415,74.253876 67.404947,74.253876 C 67.874415,74.253876 69.350559,76.162119 69.984313,77.588271 C 70.490667,78.727731 70.515415,79.024225 70.165429,79.757803 C 69.618586,80.904013 67.560989,81.132294 66.668233,80.145811 L 66.66823,80.145802 z"
                 style="fill:#015a01;fill-opacity:1" />
              <path
                 id="path3334"
                 d="M 76.93662,66.553614 C 76.65701,66.244636 76.42823,65.848563 76.42823,65.673448 C 76.42823,65.364106 79.565504,62.871267 80.318406,62.582351 C 80.754786,62.4149 81.387161,64.022991 81.387161,65.300118 C 81.387161,66.048991 81.223497,66.212672 80.224911,66.462519 C 77.585431,67.122934 77.455119,67.126538 76.936629,66.553614 L 76.93662,66.553614 z"
                 style="fill:#015a01;fill-opacity:1" />
              <path
                 id="path3336"
                 d="M 79.104012,70.545035 C 78.76879,70.209812 78.371327,69.747528 78.220766,69.517744 C 77.9536,69.109997 77.955629,69.092981 78.305055,68.810033 C 78.523605,68.633068 78.912997,68.518786 79.304531,68.516709 C 79.657323,68.514839 80.24996,68.375368 80.621502,68.206776 C 81.514312,67.801656 81.57337,67.813907 81.571667,68.403888 C 81.569501,69.154949 80.32698,71.154544 79.862451,71.154544 C 79.780537,71.154544 79.439245,70.880268 79.104016,70.545039 L 79.104012,70.545035 z"
                 style="fill:#015a01;fill-opacity:1" />
              <path
                 id="path3338"
                 d="M 75.839357,62.67229 C 75.839357,62.257725 75.923039,61.834854 76.025317,61.732576 C 76.136234,61.621656 76.65214,61.549283 77.303791,61.553224 L 78.396306,61.55983 L 77.717712,62.155785 C 77.344486,62.483563 76.769172,62.90346 76.439237,63.088895 L 75.839357,63.426049 L 75.839357,62.67229 z"
                 style="fill:#015a01;fill-opacity:1" />
              <path
                 id="path3342"
                 d="M 77.978815,58.921959 C 77.808515,58.830461 77.779301,58.738412 77.903683,58.685246 C 78.054714,58.620692 79.974158,58.583295 80.080547,58.642833 C 80.152091,58.682867 80.069803,58.723428 79.717543,58.821752 C 79.16344,58.976418 78.185112,59.032802 77.978815,58.92196 L 77.978815,58.921959 z"
                 style="fill:#015a01;fill-opacity:1" />
              <path
                 style="fill:#015a01;fill-opacity:1"
                 d="M 75.144084,42.979068 C 75.044967,42.818687 74.135552,42.064809 73.123168,41.303787 C 71.330781,39.956423 71.298133,39.905929 71.87936,39.379926 C 72.20765,39.082827 72.558947,38.579198 72.660019,38.260754 C 72.761085,37.942304 72.975906,37.681762 73.137388,37.681762 C 73.546877,37.681762 74.647521,39.517037 74.872676,40.575283 C 74.975521,41.05871 75.249055,41.526904 75.480513,41.615725 C 75.958034,41.79897 76.049737,42.822332 75.612827,43.092355 C 75.454144,43.190434 75.24321,43.13945 75.14409,42.979068 L 75.144084,42.979068 z"
                 id="path3416" />
              <path
                 id="path3344"
                 d="M 69.676312,45.738171 C 69.577185,45.61873 69.601202,45.160643 69.781156,43.738374 C 69.909541,42.723697 70.047656,41.761505 70.08808,41.60017 L 70.161581,41.306834 L 71.366938,42.163035 C 73.457649,43.648132 74.599487,44.71895 74.599487,45.194524 C 74.599487,45.274625 74.488539,45.41119 74.352937,45.498005 C 73.794921,45.855254 69.937872,46.053332 69.676312,45.738171 z"
                 style="fill:#015a01;fill-opacity:1" />
            </g>
          </g>
        </g>
      </g>
    </g>
  </g>
</svg>
