<?xml version="1.0" encoding="UTF-8" standalone="no"?>
<svg
   xmlns:dc="http://purl.org/dc/elements/1.1/"
   xmlns:cc="http://creativecommons.org/ns#"
   xmlns:rdf="http://www.w3.org/1999/02/22-rdf-syntax-ns#"
   xmlns:svg="http://www.w3.org/2000/svg"
   xmlns="http://www.w3.org/2000/svg"
   xmlns:xlink="http://www.w3.org/1999/xlink"
   xmlns:sodipodi="http://sodipodi.sourceforge.net/DTD/sodipodi-0.dtd"
   xmlns:inkscape="http://www.inkscape.org/namespaces/inkscape"
   version="1.0"
   width="300"
   height="200"
   preserveAspectRatio="xMidYMid meet"
   id="svg3461"
   sodipodi:version="0.32"
   inkscape:version="0.46"
   sodipodi:docname="pf9.svg"
   inkscape:output_extension="org.inkscape.output.svg.inkscape">
  <defs
     id="defs3472">
    <inkscape:perspective
       sodipodi:type="inkscape:persp3d"
       inkscape:vp_x="0 : 405 : 1"
       inkscape:vp_y="0 : 1000 : 0"
       inkscape:vp_z="353.75 : 405 : 1"
       inkscape:persp3d-origin="176.875 : 270 : 1"
       id="perspective3474" />
    <inkscape:perspective
       sodipodi:type="inkscape:persp3d"
       inkscape:vp_x="0 : 450 : 1"
       inkscape:vp_y="0 : 1000 : 0"
       inkscape:vp_z="310 : 450 : 1"
       inkscape:persp3d-origin="155 : 270 : 1"
       id="perspective5850" />
    <radialGradient
       r="191.62799"
       fy="146.02631"
       fx="192.00943"
       cy="146.02631"
       cx="192.00943"
       gradientTransform="matrix(1,0,0,0.7512998,0,36.316769)"
       gradientUnits="userSpaceOnUse"
       id="radialGradient2430"
       xlink:href="#linearGradient29444"
       inkscape:collect="always" />
    <radialGradient
       r="191.62799"
       fy="146.02631"
       fx="192.00943"
       cy="146.02631"
       cx="192.00943"
       gradientTransform="matrix(1,0,0,0.7512998,0,36.316769)"
       gradientUnits="userSpaceOnUse"
       id="radialGradient2414"
       xlink:href="#linearGradient29444"
       inkscape:collect="always" />
    <radialGradient
       r="191.62799"
       fy="146.02631"
       fx="192.00943"
       cy="146.02631"
       cx="192.00943"
       gradientTransform="matrix(1,0,0,0.7512998,0,36.316769)"
       gradientUnits="userSpaceOnUse"
       id="radialGradient2528"
       xlink:href="#linearGradient29444"
       inkscape:collect="always" />
    <radialGradient
       r="191.62799"
       fy="146.02631"
       fx="192.00943"
       cy="146.02631"
       cx="192.00943"
       gradientTransform="matrix(1,0,0,0.7512998,0,36.316769)"
       gradientUnits="userSpaceOnUse"
       id="radialGradient2519"
       xlink:href="#linearGradient29444"
       inkscape:collect="always" />
    <radialGradient
       r="191.62799"
       fy="146.02631"
       fx="192.00943"
       cy="146.02631"
       cx="192.00943"
       gradientTransform="matrix(1,0,0,0.7512998,0,36.316769)"
       gradientUnits="userSpaceOnUse"
       id="radialGradient29617"
       xlink:href="#linearGradient29444"
       inkscape:collect="always" />
    <radialGradient
       gradientUnits="userSpaceOnUse"
       gradientTransform="matrix(1,0,0,0.7512998,0,36.316769)"
       r="191.62799"
       fy="146.02631"
       fx="192.00943"
       cy="146.02631"
       cx="192.00943"
       id="radialGradient29452"
       xlink:href="#linearGradient29444"
       inkscape:collect="always" />
    <inkscape:perspective
       id="perspective28801"
       inkscape:persp3d-origin="191.875 : 270 : 1"
       inkscape:vp_z="383.75 : 405 : 1"
       inkscape:vp_y="0 : 1000 : 0"
       inkscape:vp_x="0 : 405 : 1"
       sodipodi:type="inkscape:persp3d" />
    <linearGradient
       id="linearGradient29444"
       inkscape:collect="always">
      <stop
         id="stop29446"
         offset="0"
         style="stop-color:#00b819;stop-opacity:1;" />
      <stop
         id="stop29448"
         offset="1"
         style="stop-color:#00b819;stop-opacity:0;" />
    </linearGradient>
    <inkscape:perspective
       sodipodi:type="inkscape:persp3d"
       inkscape:vp_x="0 : 450 : 1"
       inkscape:vp_y="0 : 1000 : 0"
       inkscape:vp_z="310 : 450 : 1"
       inkscape:persp3d-origin="155 : 270 : 1"
       id="perspective3266" />
    <radialGradient
       r="191.62799"
       fy="146.02631"
       fx="192.00943"
       cy="146.02631"
       cx="192.00943"
       gradientTransform="matrix(1,0,0,0.7512998,0,36.316769)"
       gradientUnits="userSpaceOnUse"
       id="radialGradient3264"
       xlink:href="#linearGradient29444"
       inkscape:collect="always" />
    <radialGradient
       r="191.62799"
       fy="146.02631"
       fx="192.00943"
       cy="146.02631"
       cx="192.00943"
       gradientTransform="matrix(1,0,0,0.7512998,0,36.316769)"
       gradientUnits="userSpaceOnUse"
       id="radialGradient3262"
       xlink:href="#linearGradient29444"
       inkscape:collect="always" />
    <radialGradient
       r="191.62799"
       fy="146.02631"
       fx="192.00943"
       cy="146.02631"
       cx="192.00943"
       gradientTransform="matrix(1,0,0,0.7512998,0,36.316769)"
       gradientUnits="userSpaceOnUse"
       id="radialGradient3260"
       xlink:href="#linearGradient29444"
       inkscape:collect="always" />
    <radialGradient
       r="191.62799"
       fy="146.02631"
       fx="192.00943"
       cy="146.02631"
       cx="192.00943"
       gradientTransform="matrix(1,0,0,0.7512998,0,36.316769)"
       gradientUnits="userSpaceOnUse"
       id="radialGradient3258"
       xlink:href="#linearGradient29444"
       inkscape:collect="always" />
    <radialGradient
       gradientUnits="userSpaceOnUse"
       gradientTransform="matrix(1,0,0,0.7512998,0,36.316769)"
       r="191.62799"
       fy="146.02631"
       fx="192.00943"
       cy="146.02631"
       cx="192.00943"
       id="radialGradient3256"
       xlink:href="#linearGradient29444"
       inkscape:collect="always" />
    <inkscape:perspective
       id="perspective3254"
       inkscape:persp3d-origin="191.875 : 270 : 1"
       inkscape:vp_z="383.75 : 405 : 1"
       inkscape:vp_y="0 : 1000 : 0"
       inkscape:vp_x="0 : 405 : 1"
       sodipodi:type="inkscape:persp3d" />
  </defs>
  <sodipodi:namedview
     inkscape:window-height="750"
     inkscape:window-width="1264"
     inkscape:pageshadow="2"
     inkscape:pageopacity="0.0"
     guidetolerance="10.0"
     gridtolerance="10.0"
     objecttolerance="10.0"
     borderopacity="1"
     bordercolor="#696363"
     pagecolor="#ffffff"
     id="base"
     showgrid="false"
     showborder="true"
     inkscape:zoom="12.906008"
     inkscape:cx="28.204551"
     inkscape:cy="186.10324"
     inkscape:window-x="8"
     inkscape:window-y="22"
     inkscape:current-layer="svg3461" />
  <metadata
     id="metadata3463">
Created by potrace 1.8, written by Peter Selinger 2001-2007
<rdf:RDF>
  <cc:Work
     rdf:about="">
    <dc:format>image/svg+xml</dc:format>
    <dc:type
       rdf:resource="http://purl.org/dc/dcmitype/StillImage" />
  </cc:Work>
</rdf:RDF>
</metadata>
  <g
     id="PF9">
    <g
       id="agrupamentoPF9">
      <g
         id="agrupamentoCopaPF9">
        <g
           transform="matrix(7.2463389e-2,0,0,-6.9541132e-2,0.3343565,98.210267)"
           id="copaPF9"
           style="fill:#000000;stroke:none">
          <path
             d="M 265,1400 C 254,1388 252,1380 259,1375 C 276,1365 272,1353 244,1326 L 217,1302 L 239,1289 C 267,1271 266,1263 231,1255 C 211,1251 197,1238 185,1214 C 170,1181 170,1177 187,1148 C 197,1131 215,1111 227,1103 C 265.98297,1076.5085 258.36883,1143.8008 289,1146 C 296.36933,1122.4806 264.41318,1104.0267 287,1080 C 300,1060 295,1030 279,1030 C 265.20547,1007.6116 271.33628,965.45706 248,1013 C 221,1059 197,1058 189,1010 C 185,991 182,982 181,991 C 181,1000 171,1015 161,1024 C 146,1038 137,1039 121,1030 C 95,1017 94,995 119,978 C 133,968 136,957 132,932 L 128,898 L 95,930 C 63,961 62,961 31,946 C 3,931 -14,890 9,890 C 13,890 15,879 13,867 C 5,826 62,789 76,825 C 86,851 99,841 106,803 C 117,744 158,680 185,680 C 203,680 207,676 203,660 C 198,640 242,590 266,590 C 293,590 301,627 283,665 C 268,696 268,702 280,710 C 289.26893,712.04781 297.77227,718.61311 305.74481,719.06987 C 365.74976,722.50765 389.1563,718.92836 430.55218,716.77217 C 480.82568,681.13885 491.42481,754.26286 515,786 C 534,806 530,821 502,836 C 434.51433,859.87619 539.48783,901.88889 568,910 C 587,910 610,948 610,978 C 610,987 603,1003 595,1014 C 579,1035 542,1031 517,1005 C 497.07956,993.60986 444.49132,957.58594 461,1004 C 476.23685,1038.4725 512.55933,1041.2032 544,1055 L 601,1080 L 573,1109 C 550,1134 543,1136 534,1124 C 522.76715,1101.4149 450.23399,1111.7318 488,1130 C 510,1130 544,1175 534,1191 C 509.26535,1199.0499 481.3293,1198.551 454,1209 L 410,1229 C 396.47735,1206.172 384.97241,1182.2372 374,1158 C 346.9853,1125.9569 342.45255,1154.4115 365,1180 C 384.51658,1195.5987 384.02658,1222.0957 389,1240 C 432.14802,1264.775 433.11931,1336.4125 375,1319 C 349.67488,1307.9498 358.12568,1329.0095 370,1345 L 391,1368 L 363,1387 C 322,1416 284,1421 265,1400 z M 360.68378,1370.3426 C 292.61547,1388.1606 309.28081,1362.2241 352,1312 C 371.02749,1301.6735 383.09049,1317.3094 404,1307 C 421,1295 420,1292 395,1262 C 381.14973,1227.019 322.59594,1174.588 345,1141 C 375.52674,1117.8061 400.56165,1174.8863 410,1201 C 443.7917,1201.7341 463.07186,1187.7181 525.7229,1182 C 525.7229,1170 500,1145 476,1136 C 461,1131 460,1127 470,1115 C 486.84926,1093.4391 525.98666,1105.8753 550,1118 C 554.3108,1091.7884 605.94363,1094.3439 575,1079 C 564,1075 534,1063 508,1053 C 433,1024 418,959 489,975 C 513.61424,978.5529 525.52388,996.99453 546,1009 C 608.79933,1036.0577 615.0676,940.0753 559,920 C 539,920 482,886 468,866 C 455.31458,812.14341 544.03623,844.25836 501,786 C 489,774 480,756 480,747 C 480,723 461,716 441,734 C 420.03595,737.88338 378.51433,739.93897 337.95642,737.40869 C 152.19029,740.47734 332.80797,654.83751 268,600 C 210.2668,605.34387 239.07555,684.07277 197,690 C 178,690 166,700 146,734 C 132,759 120,787 120,797 C 120,808 114,825 106,835 C 79.579488,869.66238 68.37202,809.44975 36,836 C -8.3413363,881.65506 35.144036,985.65607 87,921 C 120,879 136,882 144,931 C 149,965 147,974 129,989 C 109,1005 109,1007 125,1020 C 140,1032 144,1032 156,1015 C 164,1005 170,990 170,983 C 170,976 177,970 185,970 C 195,970 200,980 200,999 C 200,1042 214,1044 236,1005 C 270.52286,943.58538 272.50026,988.75886 290,1020 C 325.29747,1049.427 287.03937,1085.3006 302,1120 C 320.08738,1158.8912 274.73658,1168.4482 257,1131 C 216.45601,1079.5826 173.37734,1167.2975 197,1210 C 209.50929,1237.751 233.24882,1240.7381 256,1255 C 275,1269 274,1270 250,1290 C 209.17655,1322.216 289.30071,1312.2537 271,1374 L 360.68378,1370.3426 z"
             id="path3467"
             sodipodi:nodetypes="cccccccsccccccccccccccscccsssccsccccsccccccccccccccccccccccccccccccccccccscccccscccccccsssccccccccc" />
          <path
             d="M 344,1002 C 337,992 329,965 325,942 C 319,907 321,900 334,900 C 343,900 350,903 350,908 C 350,912 368,926 390,940 C 433,966 441,987 413,996 C 403,999 387,1006 378,1011 C 355,1023 357,1023 344,1002 z M 390,990 C 423,990 420,975 382,950 C 362,936 341,921 337,915 C 326,901 339,960 353,988 C 359,1001 366,1007 368,1001 C 370,995 380,990 390,990 z"
             id="path3469" />
        </g>
        <path
           style="opacity:1;fill:#339900;fill-opacity:1;stroke:none;stroke-width:10.13700008000000000;stroke-miterlimit:2;stroke-dasharray:121.64400363999999000, 10.13700030000000000;stroke-dashoffset:18.24660053999999900;stroke-opacity:1"
           d="M 90.231402,269.77937 C 90.231402,264.05949 87.832699,263.75804 80.394831,262.64266 C 74.373532,261.73968 71.236431,259.93677 66.43029,254.61693 C 59.219993,246.63592 52.585356,234.21096 49.585709,223.07113 C 47.080214,213.76663 42.869925,207.98189 39.199222,207.98189 C 32.796969,211.32108 26.527311,213.95495 19.937079,212.64681 C 11.301406,206.74413 13.666531,196.06385 9.7029221,187.53057 C 6.7488416,184.26192 6.8629253,183.94455 12.771104,178.99619 C 30.771589,163.0246 39.026214,185.95605 52.331815,192.45127 C 56.732132,191.60386 58.830211,182.07759 59.750052,171.14857 C 60.464728,162.65679 60.160662,161.85304 54.170993,156.40257 C 50.686748,153.23201 47.836039,149.99387 47.836039,149.20677 C 47.836039,148.41967 49.837773,146.46404 52.284359,144.861 C 56.530512,142.07884 56.926641,142.12856 60.999714,145.95501 C 63.346557,148.1598 66.127347,152.57134 67.17919,155.75846 C 70.667221,166.32738 81.123638,165.05426 81.171659,154.05481 C 81.202586,146.96356 82.991845,141.22724 84.801914,140.68182 C 93.374561,143.59801 97.937283,154.79939 104.32733,161.9281 C 113.8482,159.18704 112.47137,152.19516 117.28072,145.34819 C 123.24013,139.82232 124.96673,127.43646 120.68795,120.90621 C 117.89776,116.6478 117.94245,116.04264 121.57337,108.92545 L 121.4875,98.263503 C 108.48368,90.42336 104.59138,106.41837 96.566841,110.19993 C 83.297157,108.57996 83.357677,103.80602 79.416379,96.376624 C 72.685945,83.689657 78.554465,72.801171 96.952265,63.840221 C 109.38494,57.784647 110.25699,53.690834 100.54731,46.962031 C 93.310316,41.946763 92.686195,38.993506 98.863356,38.993506 C 107.8559,38.993506 114.0979,24.696112 108.80526,16.221268 C 102.00353,5.329924 128.58359,6.0910084 145.68476,17.277284 L 149.73474,19.926527 C 144.79024,24.911694 140.44911,30.187705 137.25162,36.307006 C 143.76851,44.64441 156.46984,36.322215 164.79273,42.620953 C 164.79273,43.660032 166.6262,47.208247 153.17588,61.485563 C 146.66835,74.057161 133.14435,85.726795 138.30064,103.26086 L 149.43132,101.98643 C 158.0882,96.027269 157.83013,84.924636 164.072,80.527631 C 168.12682,77.671259 174.51051,81.694588 188.69132,83.696218 L 208.70293,85.182839 C 205.79029,92.3722 200.02521,95.915742 193.50125,99.786426 C 183.50364,104.83579 184.38292,109.69239 186.21568,113.11692 C 190.16897,111.97386 195.7788,115.02858 199.73209,114.89451 L 216.6409,110.40443 L 231.97959,121.24754 L 211.58837,128.47373 C 182.70833,139.06669 168.58398,152.93072 178.0701,160.8035 C 182.09685,164.14543 201.47012,161.16528 206.23075,156.81749 C 211.63198,151.88466 220.51692,147.69481 225.57627,147.69481 C 232.03866,147.69481 237.75535,155.78395 236.54856,163.22061 C 231.74237,181.81658 209.72042,182.43219 194.79606,192.01327 C 186.41634,197.60899 184.58929,199.70624 184.58929,203.7291 C 185.54776,213.48649 197.05137,213.76116 203.875,218.51675 C 199.78589,226.91565 189.7036,237.84673 189.15459,248.47831 C 179.67663,255.8636 177.50232,244.14088 163.57316,248.18417 L 113.86243,247.28065 C 102.05484,254.3636 95.826871,245.98004 108.50783,274.87184 C 112.50126,283.97031 116.34416,285.55667 110.60227,296.50856 L 104.03229,297.20127 C 93.944691,291.24444 92.656889,280.97446 90.231402,269.77937 z M 141.61666,184.53304 C 143.35198,182.61547 148.79973,178.53086 153.72276,175.45612 C 175.7815,161.67902 176.24304,157.39143 156.52307,149.4423 C 145.66959,145.06725 141.93274,144.23917 140.05936,145.79394 C 135.66704,149.43927 129.77988,165.91204 128.88495,177.06106 L 128.00535,188.01948 L 133.23341,188.01948 C 136.22478,188.01948 139.81124,186.52792 141.61661,184.53303 L 141.61666,184.53304 z"
           id="preenchimentoCopaPF9"
           transform="matrix(0.1870955,0,0,0.1913212,-0.5012404,-0.4349717)"
           sodipodi:nodetypes="cssscccccssssssscccscccssssscccccccsccccccccssscccccccsccccsssccccc" />
      </g>
      <g
         id="agrupamentoTroncoPF9">
        <g
           transform="matrix(7.4858158e-2,0,0,-6.898855e-2,-22.014244,52.162024)"
           id="troncoPF9"
           style="fill:#000000;stroke:none">
          <path
             d="M 347.39077,695.79806 C 376.39077,670.79806 380.39077,661.79806 389.39077,588.79806 C 416.39077,363.79806 428.39077,271.79806 443.39077,201.79806 C 452.39077,159.79806 459.39077,97.798066 459.39077,63.798073 L 459.39077,3.7980736 L 490.39077,3.7980736 L 522.39077,3.7980736 L 515.39077,111.79806 C 511.39077,170.79806 504.39077,232.79806 499.39077,248.79806 C 494.39077,265.79806 485.39077,325.79806 479.39077,383.79806 C 455.39077,610.79806 448.39077,656.79806 428.39077,695.79806 C 420.56979,719.47951 414.8084,741.05806 410.24354,749.02617 C 404.41759,749.85185 405.38192,751.04954 394.83295,751.32074 C 376.03547,751.804 353.24962,752.2496 331.69608,751.4 C 319.15372,750.90561 304.85422,755.88095 296.40288,747.4483 C 289.44035,739.42192 299.44664,737.3639 309.00518,728.10037 C 321.71952,715.77843 339.73771,702.37411 347.39077,695.79806 z M 420.64455,690.12011 C 441.64455,644.12011 445.39077,599.79806 469.39077,373.79806 C 475.39077,315.79806 484.39077,255.79806 489.39077,238.79806 C 494.39077,222.79806 501.39077,164.79806 505.39077,111.79806 C 512.39077,15.798073 511.39077,13.798073 490.39077,13.798073 C 471.39077,13.798073 469.39077,18.798073 469.39077,73.798073 C 469.39077,107.79806 462.39077,169.79806 453.39077,211.79806 C 439.39077,280.79806 426.39077,367.79806 399.39077,593.79806 C 391.39077,663.79806 388.39077,670.79806 352.39077,700.79806 C 321.17463,719.8358 308.41023,736.2401 314.93457,737.61948 C 322.34476,739.18614 360.05384,742.18172 383.22604,738.19529 C 397.56488,735.7285 400.56779,735.92334 405.89222,725.23706 C 410.75161,718.12647 413.99218,704.37519 420.64455,690.12011 z"
             id="path2568"
             sodipodi:nodetypes="ccscccccccccsscscccccsscccsscc" />
        </g>
        <path
           style="opacity:1;fill:#986601;fill-opacity:1;stroke:none;stroke-width:5.78200005999999970;stroke-miterlimit:15;stroke-dasharray:none;stroke-opacity:1"
           d="M 185.59256,504.04221 C 182.40215,478.77893 179.97593,453.39022 175.66701,428.21429 C 164.85631,377.5195 163.25899,324.67868 150.09239,274.58597 L 124.81577,250.25974 C 144.09026,247.23086 155.67637,247.71256 164.27576,266.48539 C 179.90714,318.24165 180.29657,373.2103 189.62985,426.46104 C 194.21472,450.15079 198.91762,499.29901 197.06227,504.13396 C 195.55846,508.05286 187.61826,507.98931 185.59262,504.04221 L 185.59256,504.04221 z"
           id="preenchimentoTroncoPF9"
           transform="matrix(0.2024388,0,0,0.1931726,-23.841561,-47.087542)"
           sodipodi:nodetypes="ccccccscc" />
      </g>
    </g>
  </g>
</svg>
