<?xml version="1.0" standalone="no"?>
<!DOCTYPE svg PUBLIC "-//W3C//DTD SVG 20010904//EN"
 "http://www.w3.org/TR/2001/REC-SVG-20010904/DTD/svg10.dtd">
<svg version="1.0" xmlns="http://www.w3.org/2000/svg"
 width="468pt" height="580pt" viewBox="0 0 468 580"
 preserveAspectRatio="xMidYMid meet">
<metadata>
Created by potrace 1.8, written by Peter Selinger 2001-2007
</metadata>
<g transform="translate(0,580) scale(0.161938,-0.161938)"
fill="#000000" stroke="none">
<path d="M1344 3515 c-17 -19 -19 -25 -7 -29 12 -5 11 -10 -4 -30 -10 -13 -25
-21 -33 -19 -10 3 -8 -1 4 -11 20 -16 20 -16 0 -16 -16 0 -17 -2 -4 -10 12 -8
13 -11 1 -19 -7 -5 -23 -6 -35 -4 -16 4 -18 2 -7 -5 11 -8 11 -13 -2 -32 -12
-17 -13 -28 -6 -42 12 -22 14 -20 -39 -22 -57 -3 -75 -21 -36 -37 28 -12 29
-12 6 -18 -31 -8 -32 -23 -4 -37 20 -10 21 -12 6 -25 -14 -11 -22 -10 -54 9
-37 21 -38 21 -55 2 -16 -17 -16 -20 -2 -26 22 -8 29 -34 15 -53 -12 -14 -11
-14 4 -2 23 17 48 7 48 -18 0 -31 -18 -34 -56 -12 l-35 21 -29 -22 c-28 -20
-42 -37 -21 -24 12 8 23 -23 14 -37 -4 -7 1 -6 11 2 11 10 20 11 27 4 7 -7 2
-17 -15 -31 l-26 -20 23 -7 c12 -4 44 -8 71 -9 60 -1 73 -22 20 -32 -67 -12
-131 11 -211 77 -60 50 -76 58 -92 50 -10 -6 -21 -19 -24 -30 -4 -15 2 -20 26
-25 l31 -6 -24 -17 c-14 -9 -28 -23 -33 -29 -4 -7 -15 -10 -24 -7 -11 4 -14 3
-9 -5 4 -7 14 -12 22 -12 21 0 17 -25 -8 -45 -20 -15 -20 -15 7 1 17 9 40 24
53 32 22 14 23 14 20 -10 -2 -14 -10 -34 -18 -44 -11 -14 -7 -13 14 4 16 12
31 20 34 17 7 -7 -19 -36 -53 -57 l-30 -19 28 7 c34 8 35 -8 2 -26 -38 -20
-24 -22 16 -2 19 10 45 28 59 42 l24 24 8 -29 c9 -35 -5 -47 -43 -40 -17 4
-31 0 -43 -14 -17 -19 -17 -20 8 -36 32 -21 33 -32 4 -39 -13 -2 -4 -4 20 -3
23 2 42 0 42 -3 0 -13 -25 -30 -44 -30 -16 -1 -12 -5 12 -15 18 -8 31 -19 27
-25 -3 -5 -1 -10 4 -10 6 0 11 8 12 18 1 11 4 9 9 -8 l8 -25 2 25 c1 23 2 23
9 5 8 -19 9 -18 13 5 l5 25 8 -23 c6 -18 10 -20 16 -10 6 10 9 8 9 -7 0 -15 3
-16 9 -7 7 11 11 11 23 -2 11 -11 18 -12 26 -4 8 8 13 7 18 -6 4 -11 0 -22
-12 -31 -16 -11 -23 -11 -46 1 -15 8 -40 14 -56 14 -16 0 -49 7 -72 15 -23 8
-65 15 -92 15 -27 0 -69 5 -94 11 -34 9 -47 9 -59 -1 -8 -7 -13 -16 -10 -20 3
-5 -4 -12 -16 -15 -11 -4 -18 -9 -16 -12 3 -2 14 0 24 5 21 11 63 -1 63 -19 0
-7 -11 -10 -29 -7 -17 2 -28 1 -25 -4 3 -4 14 -8 24 -8 23 0 19 -32 -7 -64
-18 -21 -18 -21 3 -3 36 30 62 12 32 -23 -11 -12 -10 -12 5 -1 9 7 17 20 17
27 0 19 10 17 39 -5 l23 -18 -27 -21 c-15 -12 -24 -22 -20 -22 5 0 16 7 26 16
11 9 25 14 35 10 15 -6 14 -9 -7 -33 -13 -15 -16 -21 -6 -14 15 12 20 11 38
-4 11 -11 17 -25 14 -34 -4 -9 4 -6 19 8 31 29 44 21 27 -16 -12 -27 -12 -27
6 -10 32 28 60 18 31 -11 -8 -8 -8 -12 -1 -12 6 0 20 16 32 36 21 36 41 38 41
4 0 -10 -7 -26 -16 -34 -8 -9 -11 -16 -5 -16 6 0 20 9 31 20 31 31 53 26 48
-11 -4 -27 -1 -33 24 -43 15 -7 25 -16 21 -21 -7 -8 2 -5 42 11 8 3 15 1 15
-5 0 -8 9 -7 28 3 15 8 46 19 70 25 27 8 40 16 36 23 -5 8 -1 9 10 5 10 -4 26
-7 37 -7 16 0 19 -7 19 -48 l0 -48 -72 12 c-40 7 -115 13 -166 14 -73 0 -101
4 -132 20 -22 11 -45 20 -52 20 -19 0 -154 66 -162 78 -4 6 -28 14 -54 18 -36
5 -55 15 -82 44 -58 62 -73 65 -112 28 -18 -17 -25 -26 -15 -18 27 20 48 -4
21 -26 -10 -8 -13 -13 -7 -9 7 3 22 -3 34 -14 l22 -20 -36 -21 c-27 -16 -34
-26 -30 -41 5 -16 8 -18 15 -7 7 9 11 10 14 2 3 -7 18 1 36 19 l31 31 9 -23
c14 -40 1 -61 -38 -61 -32 0 -34 -2 -23 -21 7 -15 17 -19 32 -15 14 3 28 -3
43 -19 15 -16 24 -20 27 -12 4 9 6 9 6 0 1 -7 11 -10 26 -7 14 2 25 0 25 -6 0
-6 5 -8 10 -5 17 10 60 -23 60 -45 0 -22 15 -27 26 -8 5 8 10 6 15 -8 7 -18 8
-17 8 3 2 43 21 35 22 -9 0 -33 2 -38 9 -23 9 20 9 20 10 0 1 -19 2 -18 10 3
11 25 20 27 40 10 12 -11 12 -10 1 5 -12 15 -11 17 8 17 18 0 21 -4 16 -22 -4
-13 -3 -18 2 -11 5 7 20 9 43 4 l35 -7 -32 -17 c-53 -28 -116 -32 -152 -11
-17 10 -31 21 -31 25 0 4 -11 10 -24 13 -14 3 -26 16 -30 30 -7 29 -41 43
-126 50 -54 5 -68 10 -86 33 -23 29 -46 27 -64 -6 -8 -17 -8 -21 4 -21 9 0 16
-11 18 -27 2 -22 8 -28 26 -26 18 2 24 -3 29 -27 5 -29 6 -30 29 -15 30 19 37
19 30 -3 -16 -51 -10 -112 7 -69 3 6 6 3 6 -7 1 -20 1 -20 16 0 14 19 14 19
15 -1 0 -15 2 -17 9 -6 7 11 9 11 14 0 4 -10 6 -9 6 4 1 9 6 17 11 17 6 0 16
11 22 25 6 14 15 25 20 25 12 0 10 -28 -4 -53 -6 -12 -13 -33 -14 -47 -3 -24
-2 -24 12 -6 14 20 14 20 16 0 0 -10 0 -27 -1 -38 -1 -15 2 -16 13 -7 11 9 15
9 19 -1 4 -8 6 -7 6 5 1 9 8 17 17 17 14 0 14 -3 4 -15 -7 -9 -10 -18 -6 -22
3 -3 6 -1 6 5 0 18 28 14 40 -5 10 -16 11 -16 6 -1 -4 14 1 17 23 15 18 -1 27
-7 26 -17 -1 -8 0 -9 2 -2 5 14 43 17 43 3 0 -5 -6 -12 -12 -14 -7 -3 5 -3 27
0 22 3 45 10 52 15 7 6 15 3 22 -9 10 -17 10 -17 11 2 1 20 1 20 10 0 9 -20 9
-20 10 0 1 20 1 20 10 0 8 -19 9 -19 9 -1 1 18 2 18 19 3 9 -8 33 -20 52 -26
26 -7 -17 -8 -155 -5 -221 7 -189 7 -292 -3 -45 -5 -85 -12 -89 -15 -3 -4 1
-16 9 -28 11 -15 16 -18 20 -8 4 11 6 11 6 0 1 -7 5 -11 10 -8 5 3 12 -5 15
-18 4 -18 12 -24 26 -21 11 2 20 -2 20 -8 0 -7 4 -6 10 3 8 12 10 12 11 -5 0
-20 0 -20 9 0 9 20 9 20 9 0 1 -16 3 -17 11 -5 7 12 12 12 22 2 18 -18 -6 -32
-54 -32 -21 0 -38 -4 -38 -10 0 -15 81 -11 110 4 18 10 49 13 115 9 72 -5 97
-2 122 11 17 8 78 23 135 31 57 8 113 17 126 20 20 5 22 2 22 -40 0 -43 -2
-46 -37 -61 -21 -9 -51 -22 -67 -30 -22 -11 -32 -12 -43 -3 -7 7 -39 13 -69
14 -48 2 -59 -1 -81 -23 l-25 -25 -19 24 c-16 20 -20 22 -29 9 -8 -13 -11 -12
-23 4 -14 19 -15 19 -26 -3 -12 -21 -65 -51 -91 -51 -5 0 -10 7 -10 15 0 14
-16 20 -52 17 -9 -1 -20 7 -23 18 -4 11 -13 20 -20 20 -8 0 -26 11 -40 24 -15
14 -32 27 -38 29 -7 2 -9 8 -5 12 4 4 14 2 22 -5 9 -6 21 -10 28 -7 8 4 7 6
-4 6 -10 1 -23 11 -29 23 l-12 22 -9 -24 c-7 -20 -5 -28 16 -43 15 -10 26 -25
26 -33 0 -8 6 -11 15 -8 8 4 15 1 15 -6 0 -6 4 -9 9 -5 5 3 12 1 16 -5 3 -5 0
-10 -7 -10 -8 0 -6 -4 4 -11 10 -5 24 -9 30 -8 28 3 48 -2 48 -12 0 -20 -102
1 -133 27 -16 13 -32 24 -37 24 -4 0 -10 13 -13 30 -4 16 -20 44 -37 61 -23
25 -30 41 -30 73 0 33 -5 43 -24 52 -33 15 -47 4 -51 -41 -4 -44 -8 -49 -33
-41 -25 8 -42 47 -42 96 0 27 -4 40 -14 40 -7 0 -19 7 -26 15 -7 9 -23 15 -34
13 -19 -3 -21 -10 -21 -75 0 -40 3 -73 8 -73 19 0 3 -18 -27 -30 -19 -7 -39
-24 -45 -38 -10 -20 -9 -23 3 -19 22 9 29 -9 15 -35 -10 -20 -8 -20 16 5 32
31 42 30 25 -3 -6 -12 -10 -24 -7 -26 2 -3 10 9 17 26 7 17 26 40 41 51 33 23
39 11 9 -16 -11 -10 -17 -22 -14 -27 3 -5 -2 -19 -13 -31 -18 -22 -18 -22 3
-4 28 23 37 22 29 -5 -3 -14 2 -10 13 11 l19 33 13 -31 c7 -17 15 -30 17 -27
3 2 0 13 -6 25 -15 27 5 39 27 17 15 -15 15 -18 2 -26 -13 -8 -12 -10 4 -10
19 0 19 0 0 -22 -12 -14 -13 -18 -3 -10 21 16 31 5 18 -22 -9 -19 -9 -20 4 -3
19 23 53 12 35 -12 -10 -13 -10 -14 2 -3 20 17 43 15 36 -3 -3 -8 -1 -15 3
-15 5 0 11 6 14 13 4 9 7 9 17 0 11 -10 10 -14 -3 -19 -9 -3 -17 -10 -17 -15
0 -5 11 -2 25 7 31 20 44 11 27 -19 -12 -21 -12 -21 7 1 24 27 45 20 36 -11
-6 -20 -5 -20 14 3 l20 25 10 -25 c8 -22 10 -22 11 -5 1 19 2 18 10 -3 5 -12
7 -30 3 -40 -3 -11 1 -8 12 7 13 17 20 20 26 10 4 -8 1 -18 -9 -27 -9 -7 -11
-11 -4 -7 7 3 22 3 35 -1 20 -7 19 -9 -13 -14 -23 -4 -43 -1 -59 8 -13 8 -40
16 -60 18 -63 6 -96 20 -135 58 -23 21 -49 36 -65 37 -42 1 -57 6 -88 28 -15
11 -57 25 -92 30 -62 10 -65 10 -90 -16 -24 -24 -24 -25 -3 -14 12 6 22 8 22
4 0 -3 -10 -18 -22 -32 -20 -22 -20 -23 -2 -8 27 23 38 10 18 -22 l-15 -26 20
23 c11 13 26 20 32 17 7 -5 1 -16 -17 -32 l-29 -25 33 22 c32 21 35 22 50 5
13 -14 14 -18 4 -22 -7 -3 -25 -16 -40 -30 -15 -14 -20 -21 -11 -15 8 6 26 8
38 5 l24 -6 -24 -19 c-22 -18 -22 -18 -2 -9 26 13 33 14 33 3 0 -5 -12 -13
-27 -20 -22 -9 -23 -10 -4 -6 16 4 21 3 17 -5 -4 -6 0 -14 8 -17 9 -3 13 -11
10 -18 -3 -6 4 0 15 14 l21 25 1 -30 c1 -18 3 -23 6 -12 4 14 8 16 19 6 12
-10 12 -14 -3 -25 -16 -12 -15 -12 7 -7 23 6 24 5 10 -13 -8 -10 -22 -25 -30
-32 -13 -11 -12 -11 7 -3 15 8 24 8 28 1 5 -8 11 -8 20 0 17 14 28 -39 12 -60
-11 -13 -10 -13 7 0 18 14 19 13 13 -2 -10 -26 2 -22 13 5 8 21 9 20 11 -8 l1
-30 8 30 8 30 2 -35 c2 -35 2 -35 9 -6 6 29 35 56 46 44 4 -3 2 -17 -5 -30
-10 -20 -9 -21 3 -6 15 19 32 12 40 -17 4 -19 5 -18 6 2 0 12 6 25 12 29 9 5
10 -1 5 -22 -7 -28 -7 -28 8 -9 13 17 17 18 25 5 6 -8 9 -16 7 -18 -2 -1 -34
-11 -72 -22 -81 -23 -126 -25 -162 -7 -82 41 -107 56 -113 68 -4 8 -14 31 -23
52 -8 20 -22 37 -30 37 -7 0 -19 7 -26 15 -15 18 -30 11 -30 -15 0 -10 -12
-33 -27 -52 -16 -20 -19 -26 -7 -15 31 26 36 21 19 -15 -14 -29 -14 -31 -1
-14 9 11 19 17 23 13 3 -4 -2 -17 -13 -29 -17 -21 -16 -21 9 1 15 14 30 21 34
17 4 -4 -3 -15 -16 -25 -20 -15 -22 -23 -16 -52 6 -25 9 -29 14 -17 3 10 11
14 16 10 16 -12 11 -36 -10 -50 -18 -12 -18 -13 -1 -8 10 4 25 1 32 -5 14 -11
41 -9 78 6 14 6 18 5 14 -6 -7 -21 -136 -34 -230 -23 -58 7 -63 -8 -13 -37 29
-17 33 -24 25 -39 -18 -34 -11 -60 22 -80 18 -11 36 -28 40 -37 6 -15 7 -15 7
4 1 28 17 38 25 16 6 -14 9 -14 27 5 28 31 39 27 39 -13 0 -39 3 -38 56 14
l24 24 1 -24 c1 -15 5 -7 12 21 l11 45 7 -45 c3 -25 7 -35 7 -22 3 42 45 15
74 -48 4 -9 7 -10 7 -3 1 7 10 24 22 37 21 24 56 25 71 2 5 -6 8 -3 8 9 0 12
12 28 29 38 28 17 30 17 40 0 6 -11 11 -13 11 -5 0 9 5 10 19 2 23 -12 66 1
74 22 3 7 6 0 7 -17 l1 -30 11 25 c9 23 11 24 17 6 7 -17 8 -18 14 -3 3 9 23
23 44 32 46 19 83 53 83 75 0 9 7 17 15 17 8 0 15 -6 15 -14 0 -9 5 -8 19 4
11 9 17 21 14 26 -4 6 1 8 10 4 16 -6 16 -4 0 20 -16 24 -16 26 2 39 13 10 21
11 26 3 3 -6 9 -1 13 13 4 17 8 20 15 9 5 -8 11 -9 15 -3 7 12 -25 26 -33 15
-3 -5 -18 -16 -33 -25 -21 -14 -26 -23 -23 -53 3 -34 2 -35 -28 -32 -25 1 -32
-2 -35 -18 -6 -30 -23 -46 -71 -68 -54 -24 -73 -27 -88 -15 -7 6 -14 4 -20 -5
-13 -23 -41 -27 -76 -12 -32 13 -36 12 -71 -11 -21 -15 -46 -24 -56 -21 -11 3
-26 -3 -36 -14 -23 -26 -38 -24 -58 6 -9 14 -23 25 -31 25 -8 0 -15 6 -15 14
0 22 -19 29 -27 10 -7 -20 -62 -74 -74 -74 -5 0 -9 9 -9 19 0 28 -17 35 -44
18 -18 -12 -26 -13 -35 -4 -9 9 -14 9 -20 -1 -6 -10 -13 -11 -35 -1 -30 14
-43 48 -28 76 13 23 6 34 -33 53 -29 13 -29 14 -6 18 12 2 35 0 50 -4 14 -4
35 -6 46 -5 11 1 43 4 70 7 83 8 95 13 95 35 0 18 -4 20 -23 14 -12 -4 -35 -8
-52 -9 -26 -1 -30 2 -30 27 -1 28 -21 50 -37 41 -4 -3 -8 4 -8 15 0 11 9 22
20 26 27 9 25 34 -4 44 -23 9 -24 13 -18 84 2 17 3 17 18 3 8 -9 21 -16 28
-16 14 0 36 -41 36 -65 0 -17 76 -75 97 -75 7 0 24 -7 37 -15 75 -49 288 10
579 160 157 81 187 100 203 130 14 27 27 36 54 41 19 3 52 10 73 14 l37 8 -1
-42 c0 -38 -5 -45 -56 -86 -31 -25 -74 -57 -95 -71 -62 -42 -137 -124 -127
-140 10 -18 -40 -111 -87 -159 -22 -23 -43 -62 -59 -110 -24 -72 -27 -76 -78
-102 -54 -29 -91 -35 -102 -18 -4 6 -12 10 -18 8 -7 -1 -21 1 -32 4 -11 4 -37
9 -58 12 -24 4 -47 16 -62 34 l-24 27 -35 -34 c-42 -41 -44 -53 -14 -74 23
-15 23 -15 3 -31 -21 -17 -67 -13 -74 6 -2 6 -16 25 -31 42 l-28 31 -13 -28
c-15 -34 -42 -35 -57 -2 -20 43 -91 22 -79 -24 3 -13 -1 -24 -11 -30 -26 -15
-22 -39 10 -52 20 -8 27 -17 23 -28 -15 -38 -8 -48 40 -55 27 -5 45 -12 45
-20 0 -16 -24 -38 -33 -30 -3 4 -26 -4 -52 -16 -48 -23 -65 -55 -46 -87 10
-17 10 -17 12 2 1 17 2 16 9 -5 4 -14 8 -18 9 -9 1 19 62 49 98 49 l27 0 -29
-30 c-15 -16 -40 -32 -54 -35 -15 -3 -33 -16 -40 -28 -13 -20 -13 -21 3 -8 9
8 20 11 23 7 4 -4 1 -11 -7 -16 -12 -7 -8 -12 17 -20 17 -7 34 -19 36 -28 3
-12 5 -10 6 6 0 12 5 22 10 22 5 0 12 -10 14 -22 4 -19 4 -18 6 5 1 33 21 27
22 -6 0 -15 2 -17 6 -7 13 34 46 70 64 70 26 0 24 -9 -9 -43 -19 -21 -23 -31
-14 -34 10 -4 8 -9 -5 -19 -17 -13 -17 -14 2 -7 18 6 19 5 5 -13 -10 -12 -2
-9 23 9 32 24 37 26 38 10 1 -16 2 -15 7 2 23 70 81 113 74 55 -2 -14 0 -41 4
-60 7 -33 7 -34 14 -10 l7 25 11 -25 c10 -24 11 -24 11 -2 1 12 5 22 10 22 5
0 13 9 16 21 6 17 9 18 23 7 15 -12 16 -11 3 5 -7 9 -21 17 -29 17 -12 0 -13
3 -5 11 8 8 17 8 34 0 l24 -12 -22 17 c-19 13 -20 19 -11 40 12 26 24 31 31
12 4 -8 6 -7 6 3 1 9 8 20 17 23 24 9 27 8 21 -14 -3 -11 -1 -18 4 -14 5 3 9
11 9 19 0 13 21 25 43 25 8 0 7 -4 -1 -12 -7 -7 -12 -17 -12 -22 0 -6 12 7 27
29 15 22 28 34 31 27 2 -7 -2 -20 -9 -30 -12 -15 -12 -15 7 0 24 21 48 24 39
6 -4 -7 4 -2 16 12 l22 25 -6 -25 c-5 -21 -4 -22 6 -10 18 24 75 44 128 44 27
1 54 7 61 15 11 12 10 13 -7 6 -11 -4 -42 -9 -70 -10 -27 -1 -60 -7 -73 -14
-12 -6 -28 -11 -35 -9 -6 1 -22 -2 -35 -6 -15 -5 -29 -3 -38 5 -13 11 -17 10
-25 -3 -5 -9 -28 -19 -51 -23 -22 -4 -54 -13 -70 -20 -35 -14 -81 -88 -65
-104 14 -14 -9 -40 -35 -38 -16 1 -19 7 -15 32 2 16 2 36 0 43 -9 24 -41 12
-63 -23 -22 -36 -64 -55 -81 -38 -6 6 0 18 16 33 14 13 25 29 25 37 0 23 -48
14 -73 -13 -15 -16 -27 -22 -31 -15 -5 7 -15 7 -33 0 -14 -5 -33 -7 -43 -4
-20 6 -20 47 1 53 8 3 29 18 47 33 24 22 43 29 73 29 25 0 50 8 68 21 16 12
51 24 77 26 27 3 60 13 74 23 14 9 48 22 75 29 28 7 73 23 101 36 29 12 66 26
84 30 25 5 36 17 56 58 21 43 37 59 89 90 58 35 66 44 85 93 28 75 57 131 95
184 18 25 44 70 58 100 13 30 39 69 57 85 l33 30 -7 -55 c-3 -30 -6 -145 -6
-256 l0 -200 -85 -48 c-47 -26 -85 -52 -85 -57 0 -4 -13 -23 -29 -41 -16 -19
-31 -47 -33 -62 -4 -37 -38 -62 -113 -81 -32 -8 -63 -22 -68 -30 -5 -10 -23
-15 -50 -15 -46 -1 -67 -13 -86 -47 -8 -16 -21 -23 -42 -23 -17 0 -32 -6 -35
-15 -3 -8 -15 -17 -26 -21 -11 -3 -17 -8 -15 -11 3 -2 15 0 26 7 23 12 28 2 9
-20 -11 -12 -10 -12 4 -1 16 12 19 10 27 -10 5 -13 10 -18 10 -10 1 11 4 11
16 1 8 -7 12 -16 9 -21 -3 -5 0 -9 5 -9 6 0 11 7 11 16 0 13 3 14 14 5 11 -9
15 -9 19 1 4 10 8 10 16 -2 10 -13 11 -13 12 0 0 10 3 8 9 -5 9 -20 9 -20 10
0 1 20 1 20 10 0 8 -18 9 -19 9 -1 1 13 6 16 18 11 10 -4 25 -9 34 -12 11 -3
15 -13 13 -26 -3 -15 0 -13 10 8 l15 30 2 -30 1 -30 8 30 c7 28 8 29 10 5 l2
-25 8 25 c8 25 8 25 10 -5 3 -28 3 -28 7 -5 8 44 23 47 24 5 1 -38 2 -38 8
-10 6 28 7 29 19 10 12 -20 12 -20 9 0 -1 11 3 20 8 20 6 0 10 -8 9 -17 0 -9
3 -15 8 -12 4 3 8 11 8 18 0 8 7 19 15 26 12 10 15 9 15 -8 0 -11 8 -26 17
-33 15 -12 16 -12 8 1 -5 8 -10 21 -12 29 -4 27 -22 36 -36 16 -10 -13 -16
-15 -21 -6 -6 9 -11 9 -22 0 -11 -9 -17 -9 -28 0 -8 7 -17 8 -19 3 -3 -4 -32
-6 -64 -4 -32 2 -87 4 -123 6 -63 2 -107 17 -122 40 -14 20 -8 26 21 26 21 0
36 9 55 35 24 32 32 35 76 35 34 0 52 5 58 16 7 13 81 38 90 30 1 -2 -7 -29
-18 -60 -21 -55 -23 -56 -77 -72 -34 -10 -77 -15 -110 -12 -36 3 -52 1 -50 -6
6 -19 127 -17 182 2 47 16 51 20 75 79 17 42 37 73 63 94 25 21 37 39 37 56 0
14 13 40 29 58 16 18 30 37 32 42 6 14 114 73 133 73 14 0 16 -18 16 -145 0
-126 -3 -151 -20 -185 -11 -22 -20 -46 -20 -54 0 -9 -15 -23 -32 -32 -18 -9
-36 -22 -40 -28 -5 -7 -8 -4 -8 7 0 20 -9 21 -33 3 -16 -13 -16 -15 3 -37 20
-22 20 -22 8 -2 -10 18 -10 25 0 35 9 9 12 9 12 -3 0 -16 32 -50 60 -64 8 -4
2 4 -14 17 -18 15 -26 29 -22 37 6 9 11 9 24 -1 15 -12 16 -11 3 5 -15 20 -2
23 19 5 12 -11 12 -10 3 2 -10 13 -8 18 8 28 10 7 19 20 19 30 1 9 7 28 16 42
13 23 14 12 12 -122 -2 -82 -3 -148 -3 -148 37 0 172 24 176 32 4 6 3 25 -1
42 -5 17 -11 126 -14 241 -5 171 -4 206 6 190 21 -33 81 -85 105 -91 16 -4 24
-18 34 -57 6 -29 18 -64 25 -78 20 -40 167 -170 176 -156 5 8 8 7 8 -3 0 -13
1 -13 10 0 8 12 10 12 11 -5 0 -20 0 -20 9 0 9 20 9 20 10 0 0 -14 6 -8 20 20
11 22 19 46 20 53 0 20 14 14 27 -13 9 -21 8 -27 -5 -36 -14 -8 -12 -9 8 -4
25 6 24 5 -5 -20 -21 -19 -23 -24 -8 -16 33 17 37 13 18 -17 -10 -15 -12 -22
-5 -15 10 9 17 7 30 -10 9 -12 20 -29 23 -37 4 -10 6 -8 6 8 1 21 24 31 34 15
2 -5 3 -3 1 4 -4 18 7 23 30 12 20 -10 20 -9 3 5 -23 18 -18 49 8 55 18 3 18
2 5 -15 -14 -18 -14 -18 5 -2 17 14 23 14 38 4 10 -8 15 -21 12 -32 -3 -11 1
-5 9 11 13 26 15 27 16 8 0 -12 4 -24 9 -27 4 -3 6 7 4 22 l-4 27 16 -27 c18
-32 31 -38 15 -7 -8 13 -8 24 -1 32 5 7 6 27 2 47 -10 51 -50 70 -155 75 -107
4 -111 7 -250 162 l-28 31 37 -12 c46 -16 92 -57 108 -97 4 -10 6 -10 6 -1 1
6 10 12 21 12 11 0 18 -6 16 -12 -1 -7 -1 -10 1 -5 8 13 35 8 28 -5 -4 -7 -1
-6 7 3 18 22 44 13 26 -9 -10 -14 -10 -15 2 -4 21 18 33 15 27 -9 -4 -16 -3
-18 9 -8 11 9 14 8 15 -7 0 -11 3 -14 5 -7 8 18 33 4 28 -15 -4 -12 -2 -11 7
3 12 19 12 19 20 0 7 -19 8 -18 8 3 1 12 6 22 11 22 6 0 10 -10 11 -22 0 -22
1 -22 9 -3 8 19 8 19 18 -5 6 -14 11 -20 11 -13 1 19 31 3 41 -21 8 -19 9 -18
9 7 1 34 22 32 32 -4 5 -16 7 -18 8 -6 1 26 38 4 44 -25 4 -20 4 -19 6 5 2 38
19 34 24 -5 l4 -33 1 32 c2 25 5 30 21 26 16 -4 19 -12 16 -41 -3 -21 -2 -28
1 -17 12 47 13 48 29 35 8 -7 15 -9 16 -4 1 5 5 -2 9 -16 l8 -25 1 27 c1 15 6
30 11 33 6 3 10 17 10 31 0 51 39 12 41 -43 2 -23 2 -24 6 -6 6 32 53 32 54 1
0 -16 2 -18 6 -8 4 8 14 21 25 28 25 18 23 23 -17 76 -28 37 -32 48 -20 52 8
4 15 14 15 24 0 22 -26 45 -34 31 -4 -6 -19 -10 -34 -10 -15 -1 -49 -3 -76 -7
-38 -5 -47 -3 -44 7 3 8 15 16 29 17 13 2 30 9 37 14 8 7 12 6 13 -3 0 -8 4
-5 9 6 6 13 9 15 9 5 1 -13 2 -13 11 0 8 13 10 13 10 1 0 -11 4 -9 15 5 11 14
14 15 15 4 0 -12 2 -13 9 -1 7 11 11 10 20 -5 10 -18 10 -18 12 1 1 11 5 4 9
-15 5 -26 8 -29 9 -11 0 13 9 30 18 36 17 13 17 14 0 33 -16 18 -16 20 -2 26
24 9 25 8 26 -16 1 -22 1 -22 8 2 l8 25 5 -25 c5 -25 5 -25 7 3 1 32 21 37 22
5 1 -19 2 -18 10 7 7 24 4 36 -17 67 -15 21 -34 40 -43 43 -9 2 -22 14 -29 26
-11 18 -11 24 3 39 20 22 17 49 -7 64 -27 17 -93 -22 -205 -123 -34 -30 -77
-35 -155 -15 l-71 17 34 18 c30 15 34 15 37 2 3 -11 7 -10 20 8 15 21 16 22
22 3 6 -14 9 -9 14 23 10 56 22 62 37 18 11 -29 15 -32 22 -19 8 14 11 14 18
3 7 -11 9 -10 9 4 0 14 5 17 23 12 22 -6 22 -6 -1 8 -22 13 -23 15 -7 30 18
18 35 21 51 10 5 -5 2 -1 -7 8 -15 13 -15 18 -2 35 14 19 14 19 29 0 8 -11 14
-15 14 -9 0 7 -5 15 -11 19 -8 4 -7 9 2 15 8 5 23 2 36 -6 12 -8 26 -15 30
-15 4 0 0 5 -10 11 -9 6 -15 15 -11 20 4 6 12 5 22 -3 14 -10 15 -10 5 2 -15
17 -17 60 -3 60 6 0 13 1 17 3 4 1 10 -9 14 -23 l7 -25 1 24 c1 24 1 24 24 5
l22 -19 -20 24 -20 24 35 -7 c32 -6 33 -5 15 8 -19 15 -18 15 15 17 24 1 28 3
13 6 -13 2 -23 7 -23 10 0 2 10 13 23 23 26 22 21 28 -30 42 -73 20 -121 21
-155 4 -43 -22 -206 -12 -252 15 -17 10 -49 21 -71 25 l-40 8 40 6 c22 3 45 2
51 -2 7 -5 14 -2 18 8 8 21 33 3 39 -29 4 -22 4 -22 6 1 1 20 4 21 22 12 15
-8 24 -8 33 0 10 8 15 7 20 -5 3 -10 -1 -15 -12 -16 -11 0 -12 -2 -4 -6 7 -3
19 0 26 6 11 9 15 9 19 -1 4 -9 6 -8 6 3 1 9 8 20 17 23 13 5 15 2 11 -16 -5
-20 -4 -21 6 -7 14 18 47 32 47 19 0 -5 -4 -12 -10 -15 -5 -3 -10 -11 -10 -17
0 -6 8 -4 18 5 10 9 27 14 39 11 11 -3 32 1 46 10 22 15 26 15 37 1 7 -8 23
-15 36 -15 13 0 24 -6 25 -12 0 -7 5 -2 11 12 10 24 10 24 18 5 7 -20 7 -20
12 0 5 19 6 18 16 -5 l11 -25 0 23 c1 19 5 22 24 18 12 -3 16 -3 10 0 -7 3
-13 13 -13 21 0 14 3 13 23 -3 22 -19 22 -19 5 2 -21 24 -23 47 -6 77 11 21
11 21 19 2 7 -19 8 -19 8 3 1 26 18 30 24 4 3 -10 5 -6 6 11 1 28 -24 87 -36
87 -4 0 -26 -20 -49 -45 -44 -48 -84 -60 -84 -26 0 11 4 23 10 26 6 4 4 15 -6
30 -13 20 -21 22 -57 18 -46 -6 -62 -16 -62 -40 0 -9 -12 -25 -27 -36 -26 -20
-27 -20 -55 -2 -17 12 -48 19 -80 20 -29 0 -55 3 -58 6 -3 3 17 18 45 32 44
23 50 24 51 9 0 -14 2 -13 9 3 9 20 9 20 10 0 1 -18 2 -18 11 4 8 20 11 22 27
10 15 -13 16 -12 4 3 -8 9 -11 22 -7 29 6 8 10 7 17 -2 8 -11 9 -10 4 4 -3 9
-1 17 4 17 6 0 10 -8 11 -17 0 -15 2 -15 8 2 8 20 8 20 13 0 5 -16 6 -17 7 -2
1 20 12 22 31 5 8 -7 7 -4 -3 8 -20 24 -22 40 -4 28 7 -5 6 -2 -3 6 -9 9 -19
25 -22 38 -5 19 1 26 35 45 23 12 51 25 62 28 18 6 17 7 -5 8 -20 1 -22 3 -10
11 13 9 13 10 0 11 -8 0 -4 5 10 9 23 7 23 8 4 9 -23 1 -42 31 -21 32 7 0 2 4
-11 9 -21 9 -22 11 -8 32 14 21 14 28 0 68 -9 25 -19 49 -24 54 -10 10 -89
-43 -123 -84 -17 -19 -35 -30 -52 -30 -29 0 -85 -49 -85 -74 0 -18 -57 -36
-116 -36 -25 0 -47 -6 -54 -15 -13 -16 -85 -19 -130 -5 -23 7 -23 8 -6 15 11
5 27 3 40 -5 19 -12 20 -12 7 3 -16 20 -2 23 19 5 12 -11 12 -10 2 3 -10 13
-9 19 2 28 11 10 17 8 25 -6 6 -10 11 -13 11 -7 0 5 -5 15 -11 21 -17 17 9 27
29 11 9 -7 4 3 -11 24 -41 53 -80 63 -112 28 -16 -17 -31 -20 -107 -20 -48 0
-96 -5 -106 -11 -14 -9 -30 -3 -82 26 -78 44 -91 55 -64 55 11 0 25 -5 32 -12
9 -9 12 -9 12 2 0 13 2 13 10 0 9 -13 10 -13 10 0 0 12 2 12 9 1 6 -9 11 -10
15 -3 12 20 33 2 29 -26 -1 -15 0 -20 3 -12 12 27 29 30 36 7 l6 -22 1 23 c1
12 6 22 11 22 6 0 15 -10 20 -22 8 -21 9 -20 9 10 1 39 22 39 32 1 7 -24 7
-24 8 -1 1 20 4 21 21 12 17 -9 20 -8 20 9 0 22 -35 51 -62 51 -10 0 -23 11
-28 25 -6 15 -17 25 -29 25 -11 0 -22 4 -26 10 -3 5 -11 7 -18 5 -7 -2 -34 16
-62 41 -27 25 -42 43 -32 40 9 -3 17 -1 17 4 0 5 7 7 15 4 8 -4 15 -14 15 -23
0 -13 2 -13 9 -2 11 17 25 -4 15 -21 -6 -10 -5 -10 8 -1 20 17 31 4 15 -16
-10 -14 -10 -14 5 -3 10 8 19 9 22 3 9 -13 65 -41 84 -41 13 0 12 -3 -4 -16
-19 -15 -19 -15 1 -6 28 12 70 -9 52 -27 -9 -10 -8 -11 6 -6 17 7 21 -4 20
-43 -1 -9 6 -7 20 6 37 32 51 38 43 17 -7 -18 -6 -18 14 0 19 18 20 18 20 -1
0 -14 2 -16 9 -5 6 10 10 10 16 1 4 -6 13 -9 21 -6 8 3 14 0 14 -7 0 -8 4 -7
10 3 9 13 11 13 20 0 8 -13 10 -12 11 5 0 20 0 20 9 0 9 -20 9 -20 10 0 1 20
1 20 10 0 8 -19 9 -19 9 -1 1 19 1 19 24 0 12 -10 16 -12 10 -4 -19 21 -16 35
4 19 15 -12 14 -11 -1 13 -10 15 -14 33 -10 39 5 9 10 7 15 -7 7 -17 8 -16 8
5 1 24 1 24 23 5 14 -12 18 -13 10 -3 -15 20 -4 32 17 17 13 -10 14 -10 4 2
-20 22 -15 32 10 20 21 -10 21 -10 3 4 -10 8 -15 20 -11 26 8 13 -52 80 -71
80 -6 0 -24 -10 -39 -21 -25 -20 -35 -21 -128 -16 -88 5 -121 13 -237 55 -74
27 -144 53 -155 60 -37 20 -129 92 -118 92 6 0 18 3 26 6 10 3 17 -2 20 -13 3
-12 5 -8 6 10 1 32 20 27 22 -6 1 -18 2 -19 6 -4 4 16 8 14 29 -14 20 -27 24
-29 25 -13 0 18 1 18 9 -1 9 -20 9 -20 10 0 1 20 2 20 9 1 7 -19 8 -19 13 2
10 38 38 27 39 -15 l2 -38 7 35 c6 35 13 30 23 -15 3 -12 6 -7 7 15 l3 35 7
-40 c7 -38 7 -38 9 -8 0 17 5 34 10 37 16 10 41 -5 41 -24 0 -10 8 -36 18 -58
17 -38 19 -39 30 -21 7 11 18 17 25 13 7 -4 3 3 -8 16 -19 22 -19 23 -1 16 14
-5 16 -4 8 6 -7 9 -5 19 8 36 l19 22 4 -22 c4 -20 4 -19 6 5 1 35 17 27 26
-14 5 -22 2 -36 -11 -52 -10 -12 -12 -16 -4 -9 12 10 18 9 32 -10 16 -20 17
-20 11 -3 -6 18 -5 19 12 5 17 -14 17 -14 4 7 -12 21 -12 24 8 38 17 12 21 22
17 43 -8 40 16 59 55 42 24 -10 31 -19 34 -48 3 -36 4 -35 5 7 2 37 4 42 16
31 8 -6 17 -24 19 -38 3 -21 5 -18 7 13 l3 40 7 -35 c6 -29 8 -31 9 -9 0 16 7
26 16 26 9 0 16 -10 16 -26 2 -25 2 -25 6 -3 3 16 8 20 16 14 8 -5 20 0 35 14
l24 23 -56 26 c-30 14 -65 37 -78 50 -19 21 -32 25 -85 25 -34 0 -64 4 -67 9
-3 5 -45 10 -93 10 -51 1 -91 6 -97 12 -8 9 -6 10 6 6 10 -3 20 -2 24 4 4 6
11 6 20 -2 11 -9 14 -8 14 2 0 10 3 10 11 2 9 -9 18 -9 36 0 19 9 26 8 34 -4
6 -10 9 -10 9 -1 0 19 40 15 41 -5 0 -15 2 -14 9 3 4 12 15 24 24 27 12 5 16
0 17 -21 l1 -27 7 29 c8 39 57 56 64 22 4 -18 4 -18 6 4 1 19 7 25 26 26 19 2
25 -3 26 -20 0 -20 1 -20 10 3 6 17 13 21 20 14 7 -7 19 -2 38 16 26 24 27 27
14 48 -9 13 -13 29 -10 37 15 39 -45 41 -133 6 -29 -11 -86 -20 -160 -24 -105
-6 -123 -4 -205 19 -49 15 -110 30 -135 34 -25 4 -56 14 -70 23 -14 9 -59 19
-101 23 -42 4 -81 10 -86 14 -7 5 -44 209 -43 244 0 4 8 4 18 -2 9 -5 51 -12
93 -16 73 -7 77 -8 91 -39 12 -24 25 -34 61 -43 34 -10 50 -20 61 -42 18 -34
95 -85 151 -100 22 -6 83 -11 136 -11 80 0 99 -3 112 -18 24 -27 21 -32 -16
-32 -19 0 -37 -3 -41 -7 -10 -11 -108 -14 -120 -4 -19 16 -83 24 -91 12 -4 -8
-12 -5 -23 9 -9 11 -27 22 -40 25 -13 2 -33 7 -44 11 -12 3 -24 1 -28 -6 -6
-9 -13 -9 -28 -1 -25 14 -75 15 -67 1 3 -5 13 -6 21 -3 8 3 26 0 39 -7 19 -10
28 -10 38 -1 20 16 47 3 48 -23 0 -21 0 -21 9 1 6 15 15 21 25 17 14 -6 13 -8
-2 -21 -17 -13 -16 -13 4 -4 19 9 22 8 25 -11 3 -20 4 -21 20 -5 24 24 48 21
49 -5 1 -17 2 -19 6 -5 6 24 32 21 43 -5 5 -13 9 -17 9 -9 1 8 8 11 21 8 10
-3 22 0 25 7 3 8 7 7 11 -2 5 -10 9 -10 20 -1 8 6 14 8 14 4 0 -4 7 -2 16 6
13 10 17 10 24 0 6 -11 9 -11 14 0 5 11 7 12 12 1 5 -10 9 -9 19 5 11 15 15
16 31 3 11 -8 6 1 -11 20 -42 49 -41 48 -125 54 -121 9 -180 24 -229 56 -33
21 -40 30 -26 30 11 0 30 3 43 6 18 5 22 2 22 -16 l0 -22 20 23 19 24 2 -25
c1 -22 2 -22 10 8 5 17 14 32 19 32 6 0 11 -15 11 -32 2 -32 2 -32 6 -5 4 23
7 26 19 16 11 -9 18 -8 32 5 26 23 32 20 33 -16 l1 -33 8 30 c7 30 13 25 23
-20 3 -15 5 -13 6 8 1 36 15 34 35 -5 12 -26 16 -29 17 -13 1 17 2 16 9 -5 8
-24 8 -24 9 -2 1 30 17 28 30 -5 l11 -28 -5 28 c-4 19 -2 26 5 22 5 -3 10 -18
11 -33 1 -26 1 -27 8 -3 6 21 8 22 20 7 18 -21 27 -13 36 31 4 21 14 46 22 55
13 14 13 20 3 33 -16 20 -47 19 -58 -1 -8 -15 -15 -15 -73 4 -35 11 -58 21
-51 21 8 1 26 10 40 22 25 19 27 19 33 2 6 -14 8 -11 8 11 1 24 3 27 16 16 8
-7 15 -22 16 -34 1 -20 2 -19 15 24 5 13 6 13 15 0 8 -13 11 -13 22 1 6 9 19
14 27 11 8 -2 -1 6 -20 18 -46 29 -47 30 -31 40 9 5 20 2 30 -9 9 -9 12 -11 7
-4 -10 15 16 29 34 18 6 -4 17 -1 25 5 8 6 19 9 25 5 5 -3 10 -3 10 0 0 3 -12
10 -27 16 -16 5 -36 21 -46 34 -17 23 -17 24 5 36 13 7 32 22 43 34 l21 21
-21 16 c-19 15 -23 14 -52 -11 -17 -14 -33 -33 -36 -41 -4 -10 -6 -8 -6 6 -1
11 -10 29 -21 39 -20 18 -20 17 -20 -46 l0 -65 -54 -31 c-54 -31 -126 -50
-145 -38 -12 7 7 55 22 55 6 0 -7 13 -28 29 -35 26 -42 27 -78 18 -22 -6 -48
-18 -58 -28 -9 -9 -23 -21 -31 -25 -7 -5 -21 -21 -31 -36 -10 -16 -22 -28 -28
-28 -14 0 -48 41 -49 57 0 7 -13 19 -30 28 -16 9 -30 20 -30 25 0 14 14 12 29
-2 10 -11 11 -9 5 6 -5 14 -3 17 12 14 10 -2 18 -11 16 -19 -1 -9 3 -7 13 5
15 20 15 20 15 0 0 -14 3 -15 9 -6 4 7 14 12 21 10 7 -2 16 8 19 21 l6 24 13
-28 c10 -21 16 -25 26 -16 7 6 17 7 22 3 5 -4 2 2 -7 13 -23 28 -13 52 12 29
10 -9 16 -21 13 -25 -3 -5 -3 -9 0 -9 10 0 33 55 29 66 -5 14 24 27 39 18 5
-4 8 -19 6 -35 l-4 -28 31 34 c26 27 35 31 46 22 7 -7 6 -2 -4 9 -17 21 -17
22 3 27 15 4 20 0 21 -16 1 -21 1 -21 8 2 3 12 20 29 36 37 18 8 21 12 8 8
-16 -4 -21 -1 -18 8 3 7 1 19 -4 27 -8 12 -12 12 -25 2 -14 -11 -16 -11 -17 5
0 17 -1 17 -8 -1 -12 -28 -65 -32 -83 -6 -13 19 -14 19 -25 2 -21 -33 -156
-31 -189 2 -4 4 -2 18 6 31 15 29 6 61 -14 53 -17 -7 -51 28 -41 42 3 6 16 11
29 11 32 0 38 10 21 37 -9 13 -11 23 -6 23 5 0 16 12 26 26 15 24 15 28 2 42
-13 13 -20 13 -46 2 -17 -6 -33 -21 -36 -31 -4 -10 -10 -19 -15 -19 -5 0 -11
-8 -14 -18 -7 -22 -97 -65 -119 -56 -9 3 -17 13 -17 21 0 14 68 83 83 83 4 0
7 7 7 15 0 8 5 24 12 35 17 27 5 34 -39 20 -60 -19 -67 -24 -88 -63 -11 -20
-29 -40 -40 -46 -11 -5 -14 -10 -7 -10 15 -1 42 27 64 67 13 24 24 32 46 32
15 0 33 5 40 12 6 6 14 9 18 6 9 -9 -17 -48 -63 -94 -49 -48 -54 -70 -18 -86
19 -9 29 -8 49 6 14 9 32 16 40 16 8 0 31 22 51 49 35 49 65 68 85 56 15 -10
12 -21 -14 -46 -22 -21 -23 -25 -9 -46 15 -22 14 -23 -15 -23 -39 0 -49 -26
-21 -56 12 -12 27 -20 35 -17 9 3 14 -2 14 -16 0 -14 -9 -25 -25 -31 -13 -5
-32 -24 -41 -42 -9 -18 -28 -45 -42 -60 -24 -26 -32 -28 -101 -28 -86 -1 -96
-6 -134 -73 -16 -26 -32 -45 -37 -42 -5 3 -21 27 -35 53 -42 77 -63 87 -183
88 -56 0 -105 4 -109 7 -3 4 2 16 12 28 17 17 17 22 5 29 -8 6 -21 10 -27 10
-17 0 -16 25 1 39 11 9 22 7 50 -10 29 -17 39 -19 51 -9 24 20 18 41 -24 81
-29 26 -37 39 -29 47 8 8 22 5 49 -11 l38 -22 22 22 23 22 -30 12 c-28 12 -28
12 -6 18 30 8 31 23 3 37 l-22 12 25 6 c13 3 32 3 40 0 26 -10 48 14 35 38 -9
16 -5 25 25 53 19 18 37 45 40 60 3 15 13 37 23 48 13 14 14 21 6 24 -22 8 9
43 38 43 36 0 52 -21 40 -53 -14 -36 -18 -119 -6 -123 6 -2 18 10 27 26 18 31
38 40 38 16 0 -18 -38 -104 -50 -111 -5 -3 -8 -14 -7 -25 1 -10 5 -17 9 -14 4
3 5 11 2 18 -3 8 -1 17 5 20 19 12 52 100 46 123 -5 21 -25 33 -25 16 -1 -5
-12 -21 -26 -38 l-25 -30 7 50 c4 28 11 61 16 74 20 54 -58 83 -98 36z m434
-518 c53 -16 129 -12 153 9 14 13 18 12 29 -1 15 -18 82 -14 105 5 19 16 29
-5 15 -30 -6 -11 -14 -19 -18 -16 -15 9 -52 -14 -52 -33 0 -27 -22 -31 -40 -8
-14 16 -20 18 -38 8 -14 -7 -22 -21 -22 -36 0 -28 -12 -32 -30 -10 -7 8 -16
15 -20 15 -12 0 -19 -39 -9 -46 5 -3 6 -10 3 -16 -4 -6 -13 0 -21 16 -15 29
-33 27 -33 -4 0 -16 -4 -18 -22 -11 -32 11 -97 7 -111 -8 -9 -10 -7 -16 11
-31 12 -10 26 -20 31 -22 5 -2 12 -15 16 -29 6 -22 2 -28 -34 -44 -34 -15 -55
-17 -133 -11 -51 4 -94 11 -96 16 -2 6 -15 10 -28 10 -20 0 -24 5 -25 33 0 27
-2 29 -9 12 -8 -18 -9 -17 -9 8 -1 27 39 100 68 125 9 7 45 12 92 12 75 0 78
1 103 33 15 17 37 48 48 67 16 26 23 31 25 18 3 -9 24 -22 51 -31z m-863 -27
c57 -48 84 -63 127 -72 68 -14 124 -2 121 26 -1 16 5 18 48 14 57 -6 90 -31
121 -93 11 -22 27 -44 34 -48 31 -18 8 -25 -107 -29 -111 -5 -123 -4 -141 14
-15 15 -23 17 -31 9 -15 -15 -64 -14 -69 1 -3 8 -12 6 -29 -6 -29 -18 -39 -13
-39 21 0 30 -15 29 -47 -3 -18 -18 -29 -22 -36 -15 -8 8 -4 18 12 35 14 15 20
30 16 37 -5 7 -4 10 3 5 6 -3 13 -2 17 4 9 14 -18 13 -33 -2 -21 -21 -22 -3
-3 35 20 38 16 38 -35 0 -29 -22 -32 -22 -39 -6 -4 13 3 26 26 45 l32 27 -26
12 c-36 16 -35 40 1 48 2 1 36 -26 77 -59z m1423 -89 c-5 -9 -23 -25 -40 -34
l-29 -17 22 -30 c13 -16 26 -30 31 -30 4 0 8 -4 8 -9 0 -4 -18 -7 -40 -6 -22
1 -48 -4 -58 -11 -16 -12 -16 -14 6 -34 24 -23 32 -51 8 -31 -11 9 -16 9 -22
0 -5 -9 -11 -7 -20 6 -12 16 -15 16 -51 -12 -21 -16 -49 -34 -63 -40 -28 -12
-30 -10 64 -38 55 -17 60 -17 71 -1 14 18 41 21 50 5 4 -5 0 -18 -8 -27 -8 -9
-18 -34 -22 -54 l-7 -38 -30 25 c-20 17 -42 25 -68 25 -24 0 -40 5 -44 15 -3
8 -12 15 -21 15 -8 0 -24 5 -35 12 -15 10 -22 9 -39 -6 -18 -17 -20 -17 -46 0
-26 17 -28 17 -41 -1 -8 -10 -14 -15 -14 -11 0 5 -6 3 -14 -3 -9 -8 -16 -9
-21 -2 -3 6 -24 8 -50 4 -40 -5 -45 -3 -55 18 -12 26 -52 49 -85 49 -14 0 -26
10 -33 25 -10 22 -9 25 9 25 11 0 33 7 48 15 22 11 37 12 62 5 32 -10 230 1
318 17 43 7 119 50 131 73 6 10 10 42 10 70 0 32 4 49 10 45 6 -3 10 -17 10
-31 0 -31 18 -31 30 1 5 14 16 25 24 25 7 0 17 7 20 16 5 13 9 14 21 4 10 -9
11 -16 3 -29z m-333 -120 c-8 -16 -12 -31 -9 -34 7 -7 -37 -14 -129 -21 l-68
-5 18 31 c10 17 27 36 38 42 11 6 24 16 30 23 5 6 26 16 45 21 28 7 40 5 62
-10 27 -18 27 -21 13 -47z m-955 9 c14 0 30 4 36 10 14 14 38 -5 31 -24 -4 -9
-18 -16 -32 -16 -14 0 -25 -4 -25 -9 0 -22 -42 -22 -78 0 -24 15 -32 18 -24 7
23 -29 67 -41 94 -27 53 30 99 40 206 46 128 7 132 5 132 -62 0 -79 -6 -85
-69 -85 -48 0 -61 -4 -81 -25 -19 -20 -33 -25 -76 -25 -33 0 -56 5 -64 15 -7
8 -16 12 -21 10 -4 -3 -28 4 -51 17 -24 12 -47 21 -53 19 -51 -15 -78 -5 -50
19 8 7 15 21 15 32 0 16 -3 18 -14 9 -10 -9 -20 -5 -45 18 -25 24 -28 31 -17
40 8 7 25 9 38 6 14 -3 38 4 63 18 23 14 44 20 50 15 5 -4 21 -8 35 -8z m-282
-201 c13 -5 38 -9 56 -9 19 0 53 -7 76 -15 23 -8 56 -15 72 -15 16 0 43 -7 60
-16 25 -13 35 -13 59 -4 16 7 29 16 29 21 0 5 24 9 53 9 44 0 58 4 77 25 19
21 33 25 76 25 53 0 53 0 44 -26 -6 -14 -10 -82 -10 -151 l0 -125 -27 7 c-16
4 -81 9 -145 12 -65 3 -118 9 -118 14 0 5 -12 4 -26 -1 -33 -13 -34 -13 -34 4
0 7 -6 19 -13 25 -11 8 -18 6 -31 -8 -19 -21 -43 -18 -62 8 -9 12 -15 13 -26
3 -18 -14 -62 13 -54 34 7 18 -72 84 -100 84 -17 0 -22 5 -19 20 2 11 6 24 9
29 10 15 -5 41 -23 41 -21 0 -32 10 -25 22 6 9 61 2 102 -13z m-129 -199 c26
-27 48 -39 77 -43 24 -4 44 -14 48 -22 6 -16 139 -85 164 -85 7 0 30 -9 52
-20 27 -14 59 -20 102 -20 71 0 237 -16 261 -25 8 -4 17 -21 19 -39 l4 -33
-111 -27 c-60 -14 -119 -26 -130 -26 -24 0 -107 26 -152 47 -25 12 -38 13 -64
4 -41 -14 -39 -15 -39 14 0 29 -11 31 -45 9 -23 -15 -25 -15 -25 0 0 23 -58
56 -97 56 -18 0 -33 4 -33 10 0 5 -6 7 -13 4 -8 -3 -20 2 -27 10 -8 10 -21 14
-36 10 -15 -4 -24 -2 -24 5 0 6 11 11 25 11 30 0 48 30 39 65 -9 36 -19 38
-51 11 -19 -16 -34 -21 -48 -16 -20 7 -20 7 1 14 12 3 30 16 39 27 18 19 18
20 -3 35 -12 8 -19 21 -16 28 3 8 0 17 -6 21 -8 5 -8 11 1 21 14 18 39 5 88
-46z m1006 20 c9 -8 38 -17 63 -21 26 -4 88 -19 137 -34 71 -20 104 -25 155
-21 118 10 195 23 225 39 17 8 51 17 75 19 39 3 45 1 42 -15 -2 -10 3 -29 11
-41 14 -20 13 -24 -6 -36 -12 -8 -44 -15 -72 -16 -27 0 -77 -10 -111 -22 -38
-13 -97 -23 -159 -26 -54 -3 -103 -10 -109 -15 -8 -7 -43 -7 -97 -1 -166 17
-235 31 -291 58 l-57 27 -1 71 0 70 89 -11 c49 -6 97 -17 106 -25z m-370 -111
c10 -16 2 -20 -60 -26 -33 -4 -51 -9 -44 -14 15 -9 -68 -4 -92 6 -11 4 -15 14
-12 26 5 17 15 19 104 19 58 0 100 -4 104 -11z m228 -43 c41 -23 57 -26 358
-66 47 -6 116 -11 155 -11 133 2 202 -8 231 -35 15 -14 48 -34 74 -46 44 -21
46 -23 28 -36 -14 -10 -24 -10 -39 -2 -11 6 -20 8 -20 5 0 -3 -9 -1 -19 5 -14
7 -22 7 -26 0 -5 -8 -11 -7 -20 0 -8 7 -18 9 -24 6 -5 -4 -21 -1 -35 5 -36 17
-70 -13 -62 -53 4 -21 1 -30 -14 -38 -11 -6 -20 -18 -21 -28 -1 -9 -5 3 -10
27 -5 25 -15 51 -23 59 -11 12 -18 9 -46 -18 -23 -23 -33 -41 -32 -61 0 -16
-3 -29 -7 -29 -11 0 -31 46 -31 70 0 23 -26 38 -60 35 -14 -1 -37 2 -53 8 -17
6 -32 6 -40 0 -21 -16 -61 -8 -90 19 -26 24 -30 25 -55 12 -38 -20 -54 -18
-117 13 l-55 27 0 78 c0 43 3 78 6 78 3 0 24 -11 47 -24z m-948 -81 c17 -21
32 -27 88 -32 37 -3 67 -10 67 -15 0 -5 4 -7 9 -3 12 7 41 -22 41 -40 0 -8 9
-17 20 -20 11 -3 20 -10 20 -15 0 -5 16 -18 36 -30 29 -19 45 -22 89 -17 29 3
66 12 83 21 23 12 46 14 89 10 44 -5 82 0 160 20 56 14 104 26 106 26 5 0 -4
-253 -9 -258 -5 -7 -144 22 -144 30 0 4 -10 8 -21 8 -12 0 -36 8 -53 18 -31
18 -78 21 -126 8 -16 -4 -37 -1 -55 8 -17 9 -49 16 -72 16 -23 0 -45 5 -49 11
-3 6 -17 9 -29 6 -17 -3 -26 2 -34 20 -6 12 -15 23 -21 23 -7 0 -5 9 4 22 21
29 21 68 1 68 -9 0 -21 -11 -27 -25 -14 -32 -38 -38 -100 -26 -3 0 -2 17 4 37
11 43 5 53 -24 35 -17 -11 -22 -11 -29 1 -5 7 -9 19 -9 27 0 9 -8 11 -25 7
-22 -6 -25 -3 -25 23 0 16 -5 31 -12 33 -14 5 -2 28 15 28 6 0 20 -11 32 -25z
m1072 -180 c39 -28 100 -62 135 -75 34 -12 99 -36 143 -52 63 -23 103 -31 186
-35 104 -6 106 -5 132 21 33 33 47 33 81 -3 27 -28 27 -30 11 -60 -9 -18 -19
-29 -24 -27 -16 10 -52 -25 -46 -45 4 -10 3 -19 -2 -20 -4 -1 -19 -2 -33 -4
-14 -1 -38 -5 -54 -9 -17 -3 -35 -1 -42 5 -20 16 -62 18 -81 3 -25 -18 -33
-17 -33 5 0 23 -51 62 -105 80 -22 7 -51 23 -65 36 -46 41 -82 59 -116 57 -28
-2 -43 5 -82 42 -27 25 -78 59 -115 77 -66 30 -67 32 -67 70 l0 39 53 -26 c28
-15 84 -50 124 -79z m-105 -31 c28 -14 88 -59 133 -99 99 -88 130 -109 150
-102 8 4 17 2 20 -3 4 -6 14 -10 23 -10 10 0 22 -10 27 -21 6 -12 25 -27 44
-33 37 -12 56 -38 24 -33 -10 1 -24 7 -32 11 -9 6 -18 4 -25 -5 -12 -15 -54
-18 -74 -5 -8 4 -47 10 -89 12 -55 3 -82 9 -100 23 -13 11 -39 25 -57 31 -29
9 -39 22 -70 91 -24 54 -36 96 -36 125 0 24 2 44 5 44 3 0 29 -12 57 -26z
m-1134 -53 c14 -13 22 -30 22 -51 0 -44 26 -89 56 -96 29 -8 47 10 38 38 -3
10 0 26 6 38 9 17 14 18 30 7 14 -8 20 -23 20 -49 0 -28 8 -45 30 -68 17 -18
33 -45 37 -60 3 -19 17 -36 40 -50 19 -11 32 -24 29 -29 -12 -18 33 -24 204
-28 189 -5 267 4 335 40 49 26 108 48 113 42 3 -2 7 -35 10 -74 5 -78 11 -72
-91 -90 -41 -8 -65 -7 -79 0 -24 13 -82 -8 -134 -47 -31 -24 -39 -26 -125 -23
-62 3 -94 8 -97 17 -2 6 -9 12 -15 12 -7 0 -17 10 -22 23 -6 12 -15 22 -22 22
-7 0 -18 8 -25 17 -7 10 -22 20 -33 22 -73 15 -218 80 -221 98 -1 10 -8 31
-15 47 -11 24 -17 28 -31 20 -9 -5 -21 -9 -25 -8 -22 4 -34 -2 -27 -13 5 -9 2
-8 -9 1 -17 13 -16 15 4 37 33 35 13 50 -27 19 -19 -14 -34 -23 -34 -19 0 3
-6 2 -13 -4 -10 -9 -17 -6 -29 8 -16 17 -15 20 7 34 14 9 32 16 41 16 13 0 15
6 10 32 -3 18 -9 56 -13 85 -5 48 -4 53 13 53 11 -1 29 -9 42 -19z m652 -87
c148 -3 327 -21 316 -31 -1 -2 -62 -12 -135 -23 -73 -11 -147 -28 -163 -36
-23 -12 -52 -14 -130 -11 -56 3 -104 10 -107 16 -4 6 -28 13 -55 15 -34 4 -55
13 -72 31 -12 14 -30 25 -39 25 -9 0 -13 5 -10 10 3 6 32 10 63 11 31 1 68 4
82 8 14 4 36 3 50 -2 14 -5 104 -11 200 -13z m525 -120 c27 -13 79 -44 115
-69 76 -53 80 -56 102 -73 15 -12 20 -11 39 7 20 18 35 21 114 21 79 0 94 3
110 20 23 25 46 25 76 0 l24 -20 -33 -30 c-18 -16 -41 -30 -51 -30 -10 0 -24
-7 -31 -15 -10 -12 -36 -15 -119 -15 l-106 0 -78 45 c-42 25 -97 66 -122 90
-40 40 -49 45 -90 45 -50 0 -50 1 -38 75 l6 39 16 -33 c11 -23 31 -40 66 -57z
m1058 -11 c13 -40 14 -51 3 -68 -11 -17 -10 -24 4 -48 27 -45 20 -75 -25 -101
-22 -12 -39 -27 -38 -32 1 -5 4 -26 8 -46 7 -36 6 -37 -19 -32 -19 3 -30 -2
-47 -25 -12 -16 -29 -28 -38 -26 -9 1 -40 -11 -70 -27 -45 -24 -58 -28 -80
-19 -14 6 -52 17 -85 25 -34 9 -64 23 -72 35 -13 18 -98 49 -134 49 -8 0 -49
11 -91 25 -41 15 -109 31 -150 38 -67 10 -79 16 -130 60 -54 47 -59 49 -117
49 l-60 0 -4 55 -3 55 37 0 c29 0 41 -6 54 -25 9 -14 21 -25 26 -25 5 0 17 -9
26 -19 10 -11 53 -39 97 -64 l80 -45 198 -6 c184 -6 198 -5 195 11 -3 15 8 19
63 24 73 8 109 22 109 44 0 25 49 65 79 65 20 0 34 8 45 25 15 23 103 94 117
95 4 0 14 -21 22 -47z m-1659 -98 c4 0 12 8 18 18 9 18 10 18 23 0 18 -25 36
-23 63 7 17 19 25 22 29 11 5 -11 7 -11 14 0 7 12 9 11 9 -1 0 -13 1 -13 10 0
9 13 10 13 10 0 0 -13 1 -13 10 0 9 13 10 13 10 0 0 -11 2 -12 8 -3 5 7 13 9
21 3 10 -6 2 -12 -30 -21 -24 -7 -48 -16 -53 -21 -6 -4 -55 -8 -110 -8 l-100
0 22 20 c12 12 22 26 23 33 1 7 4 1 8 -13 4 -14 10 -25 15 -25z m-647 -10 c22
-4 56 -17 74 -31 19 -14 47 -24 66 -24 24 0 43 -10 75 -39 41 -38 68 -50 135
-57 18 -2 46 -10 62 -19 17 -8 51 -15 76 -15 26 0 55 -4 65 -10 10 -5 43 -13
73 -16 53 -6 59 -5 106 29 97 70 162 81 127 21 -13 -22 -65 -53 -209 -126
-106 -53 -217 -105 -248 -114 l-55 -16 -29 26 c-31 29 -41 32 -47 14 -3 -7
-12 -2 -25 12 -16 16 -27 20 -40 15 -30 -14 -75 -12 -79 2 -14 45 -14 45 -28
34 -18 -15 -34 5 -18 21 14 14 -2 48 -36 72 -18 14 -27 16 -30 8 -2 -7 -10
-12 -18 -12 -11 0 -12 4 -4 19 13 25 3 50 -24 61 l-21 9 23 7 c37 11 27 39
-25 69 -18 11 -33 25 -33 31 0 7 -3 20 -7 29 -5 14 -1 16 23 12 16 -3 48 -9
71 -12z m1332 -104 c51 -44 63 -50 131 -60 41 -7 113 -25 160 -40 47 -16 107
-32 134 -36 33 -4 56 -15 72 -32 14 -15 45 -30 81 -39 32 -8 82 -24 111 -36
30 -12 57 -17 60 -12 12 15 76 10 104 -9 19 -14 32 -16 45 -9 28 15 54 48 51
63 -5 21 84 30 98 10 8 -10 9 -20 1 -32 -5 -9 -7 -24 -4 -33 12 -30 49 -18 94
31 24 25 45 44 47 42 2 -2 9 -15 16 -29 11 -20 10 -25 -1 -29 -27 -8 -67 -61
-62 -80 6 -23 -22 -51 -47 -46 -11 2 -22 0 -25 -6 -10 -14 -61 -11 -75 6 -11
13 -16 13 -41 -2 -24 -14 -32 -15 -56 -3 -32 15 -67 17 -101 6 -13 -5 -29 -3
-37 4 -8 7 -15 7 -19 1 -7 -10 -60 3 -83 21 -7 5 -13 5 -17 0 -3 -5 -36 -10
-74 -11 -61 -1 -78 3 -153 37 -91 42 -194 115 -233 164 -18 24 -42 36 -102 54
-44 13 -94 23 -112 24 -18 0 -53 5 -78 11 l-44 11 0 54 0 54 51 0 c47 0 56 -4
108 -49z m-49 -102 c111 -14 184 -40 214 -76 67 -79 268 -196 386 -225 25 -6
65 -22 89 -35 32 -19 45 -22 51 -13 5 9 30 10 91 5 67 -5 90 -4 114 9 36 19
75 20 124 5 20 -7 42 -13 50 -16 8 -2 -2 -18 -30 -44 -27 -25 -49 -39 -60 -36
-24 7 -47 -13 -51 -43 -2 -19 -9 -25 -33 -27 -17 -1 -37 -12 -48 -25 -10 -13
-26 -32 -37 -44 -10 -11 -20 -27 -22 -35 -3 -14 -18 -29 -29 -29 -3 0 -11 12
-18 26 -9 21 -14 24 -26 14 -8 -7 -15 -20 -15 -29 0 -17 -38 -47 -47 -37 -3 3
-23 -4 -45 -15 -38 -19 -39 -19 -82 -1 -68 30 -178 116 -217 169 -20 26 -61
85 -93 130 -86 124 -224 243 -344 297 -39 18 -42 22 -42 59 0 38 1 39 28 32
15 -4 56 -11 92 -16z m-617 4 c-7 -2 -21 -2 -30 0 -10 3 -4 5 12 5 17 0 24 -2
18 -5z m333 -162 c-25 -25 -54 -68 -66 -95 -11 -27 -36 -70 -54 -95 -39 -53
-68 -109 -96 -183 -18 -47 -27 -57 -83 -91 -52 -30 -68 -46 -86 -85 -20 -42
-29 -51 -69 -64 -26 -9 -84 -29 -128 -46 -45 -16 -112 -32 -150 -35 -38 -3
-93 -15 -122 -26 -29 -11 -56 -20 -60 -19 -13 2 -42 -14 -42 -25 0 -5 9 -2 20
8 19 17 20 17 20 -1 0 -12 3 -15 8 -8 11 17 109 57 121 49 6 -3 11 -1 11 6 0
8 4 8 15 -1 8 -7 15 -8 15 -3 0 6 14 10 31 11 29 1 30 0 13 -13 -11 -8 -33
-15 -51 -15 -35 0 -80 -17 -102 -39 -11 -10 -32 -12 -83 -7 -51 5 -76 2 -97
-8 -35 -19 -73 -17 -69 3 4 20 50 51 80 55 33 3 58 23 58 46 0 13 -11 19 -42
24 -56 9 -62 14 -44 41 15 22 14 24 -4 30 -11 3 -27 13 -35 22 -15 14 -14 17
4 29 13 9 17 21 14 35 -11 41 47 54 65 14 15 -33 48 -32 65 1 l14 26 21 -27
c12 -15 22 -33 22 -40 0 -7 14 -15 31 -19 53 -10 108 43 59 59 -28 9 -25 26 9
59 l30 29 23 -27 c15 -17 37 -28 63 -32 22 -3 49 -8 60 -12 11 -3 25 -5 32 -4
6 2 14 -2 18 -8 3 -5 16 -10 28 -10 18 -1 10 -12 -43 -62 -36 -33 -86 -71
-112 -84 -27 -13 -48 -29 -48 -34 0 -14 5 -13 59 14 26 14 84 58 127 99 43 41
98 84 121 95 38 20 43 28 67 100 18 52 37 89 57 108 35 33 99 142 99 168 0 26
58 92 109 126 25 17 66 48 91 69 l45 40 3 -51 c3 -49 1 -53 -42 -97z m232 45
c107 -55 221 -157 299 -270 104 -150 135 -186 206 -237 112 -82 239 -129 347
-129 43 0 51 3 46 15 -3 9 2 22 12 31 109 95 168 131 196 121 20 -8 20 -35 0
-58 -14 -16 -14 -20 1 -43 10 -14 21 -26 26 -26 10 0 47 -38 60 -62 8 -14 1
-18 -46 -28 -58 -12 -65 -19 -40 -40 26 -22 16 -30 -30 -26 -25 2 -48 0 -50
-4 -3 -5 -13 -7 -23 -5 -9 1 -29 -4 -44 -11 -15 -8 -36 -14 -46 -14 -22 0 -38
-28 -23 -43 5 -5 29 -6 53 -3 23 4 54 7 68 7 14 0 31 5 37 11 9 7 15 5 20 -7
4 -11 0 -23 -11 -31 -16 -11 -14 -16 19 -59 20 -26 34 -53 32 -59 -8 -21 -80
-7 -103 21 -24 30 -44 24 -44 -12 0 -33 -28 -47 -57 -28 -13 9 -43 16 -67 18
-25 1 -57 10 -71 19 -19 13 -30 15 -38 7 -7 -7 -18 -5 -36 8 -38 26 -60 32
-80 21 -14 -7 -30 -2 -66 22 -25 17 -60 32 -76 33 -16 1 -40 2 -53 3 -16 1
-31 13 -42 31 -12 20 -38 38 -81 56 -45 19 -69 37 -83 60 -29 46 -138 307
-160 380 -21 72 -65 173 -85 195 -14 15 -33 160 -21 160 4 0 28 -11 54 -24z
m32 -341 c33 -111 147 -364 191 -423 23 -31 77 -91 119 -134 58 -58 85 -78
113 -83 22 -4 42 -3 50 4 17 14 107 0 141 -23 14 -9 27 -25 28 -36 0 -11 1
-25 2 -32 1 -13 -49 -20 -74 -11 -47 19 -80 8 -80 -27 0 -22 -49 -45 -64 -30
-6 6 -11 25 -11 44 -1 40 -32 109 -48 103 -6 -2 -16 -18 -22 -37 -10 -31 -15
-34 -52 -36 -39 -1 -44 2 -105 70 -74 82 -81 93 -97 161 -11 45 -17 53 -67 83
-30 18 -54 38 -54 44 0 5 -13 22 -28 36 l-28 27 4 245 5 245 30 -65 c16 -36
37 -92 47 -125z"/>
<path d="M910 2045 c7 -8 15 -15 17 -15 3 0 0 7 -7 15 -7 8 -15 15 -17 15 -3
0 0 -7 7 -15z"/>
</g>
</svg>
