<?xml version="1.0" standalone="no"?>
<!DOCTYPE svg PUBLIC "-//W3C//DTD SVG 20010904//EN"
 "http://www.w3.org/TR/2001/REC-SVG-20010904/DTD/svg10.dtd">
<svg version="1.0" xmlns="http://www.w3.org/2000/svg"
 width="468pt" height="580pt" viewBox="0 0 468 580"
 preserveAspectRatio="xMidYMid meet">
<metadata>
Created by potrace 1.8, written by Peter Selinger 2001-2007
</metadata>
<g transform="translate(0,580) scale(0.161938,-0.161938)"
fill="#000000" stroke="none">
<path d="M1505 2940 c3 -5 8 -10 11 -10 2 0 4 5 4 10 0 6 -5 10 -11 10 -5 0
-7 -4 -4 -10z"/>
<path d="M1440 2890 c0 -5 5 -10 10 -10 6 0 10 5 10 10 0 6 -4 10 -10 10 -5 0
-10 -4 -10 -10z"/>
<path d="M1369 2848 c-1 -2 -3 -22 -3 -45 -2 -34 0 -40 11 -31 15 12 17 64 3
73 -5 3 -11 5 -11 3z"/>
<path d="M1390 2665 c-1 -22 -1 -50 0 -62 1 -13 -3 -23 -9 -23 -6 0 -11 5 -11
10 0 6 -11 10 -25 10 -35 0 -31 -16 5 -23 25 -5 30 -11 30 -34 0 -17 4 -23 9
-17 13 12 20 133 10 159 -6 15 -8 11 -9 -20z"/>
<path d="M1751 2634 c0 -11 3 -14 6 -6 3 7 2 16 -1 19 -3 4 -6 -2 -5 -13z"/>
<path d="M1347 2421 c-4 -17 -3 -21 5 -13 5 5 8 16 6 23 -3 8 -7 3 -11 -10z"/>
<path d="M1383 2415 c13 -27 27 -33 27 -12 0 14 -19 37 -31 37 -4 0 -2 -11 4
-25z"/>
<path d="M1476 2375 c-3 -8 -1 -15 3 -15 5 0 11 7 15 15 3 8 1 15 -3 15 -5 0
-11 -7 -15 -15z"/>
<path d="M1390 2359 c9 -15 8 -24 -1 -35 -13 -16 -6 -30 9 -20 15 9 20 54 9
65 -18 18 -28 12 -17 -10z"/>
<path d="M1345 2347 c-4 -10 -5 -21 -1 -24 10 -10 18 4 13 24 -4 17 -4 17 -12
0z"/>
<path d="M1351 2250 c-5 -16 -6 -30 -1 -30 4 0 13 14 19 30 5 17 6 30 1 30 -4
0 -13 -13 -19 -30z"/>
<path d="M1390 2265 c0 -10 7 -15 18 -13 22 4 21 22 -1 26 -10 2 -17 -3 -17
-13z"/>
<path d="M1395 2230 c-4 -6 -3 -16 3 -22 6 -6 12 -6 17 2 4 6 3 16 -3 22 -6 6
-12 6 -17 -2z"/>
<path d="M1197 2193 c-4 -3 -7 -13 -7 -22 1 -13 3 -13 11 2 11 19 8 33 -4 20z"/>
<path d="M1320 2170 c-24 -8 -23 -8 8 -9 17 -1 32 4 32 9 0 11 -5 11 -40 0z"/>
<path d="M1400 2170 c0 -5 5 -10 10 -10 6 0 10 5 10 10 0 6 -4 10 -10 10 -5 0
-10 -4 -10 -10z"/>
<path d="M1400 2110 c0 -5 5 -10 11 -10 5 0 7 5 4 10 -3 6 -8 10 -11 10 -2 0
-4 -4 -4 -10z"/>
<path d="M1105 2000 c3 -5 8 -10 11 -10 2 0 4 5 4 10 0 6 -5 10 -11 10 -5 0
-7 -4 -4 -10z"/>
<path d="M1835 2001 c-3 -5 -1 -12 5 -16 5 -3 10 1 10 9 0 18 -6 21 -15 7z"/>
<path d="M1135 1990 c-3 -5 3 -10 15 -10 12 0 18 5 15 10 -3 6 -10 10 -15 10
-5 0 -12 -4 -15 -10z"/>
<path d="M1880 1991 c0 -6 4 -13 10 -16 6 -3 7 1 4 9 -7 18 -14 21 -14 7z"/>
<path d="M1040 1830 c-12 -8 -11 -10 8 -10 12 0 22 5 22 10 0 13 -11 13 -30 0z"/>
<path d="M960 1820 c0 -5 5 -10 11 -10 5 0 7 5 4 10 -3 6 -8 10 -11 10 -2 0
-4 -4 -4 -10z"/>
<path d="M1410 1820 c0 -5 5 -10 11 -10 5 0 7 5 4 10 -3 6 -8 10 -11 10 -2 0
-4 -4 -4 -10z"/>
<path d="M1170 1810 c0 -5 5 -10 10 -10 6 0 10 5 10 10 0 6 -4 10 -10 10 -5 0
-10 -4 -10 -10z"/>
<path d="M1340 1813 c-37 -7 -49 -23 -17 -23 33 0 35 -13 5 -28 -14 -6 -17
-11 -8 -11 26 -1 43 16 45 43 0 14 1 25 0 25 0 -1 -11 -4 -25 -6z"/>
<path d="M1415 1781 c-3 -5 -1 -12 4 -15 4 -3 7 -32 5 -65 -3 -47 0 -60 13
-65 9 -4 19 -3 22 0 3 4 0 9 -6 11 -9 3 -13 28 -13 74 0 62 -9 85 -25 60z"/>
<path d="M1510 1721 c0 -6 5 -13 10 -16 6 -3 10 1 10 9 0 9 -4 16 -10 16 -5 0
-10 -4 -10 -9z"/>
<path d="M955 1680 c3 -5 8 -10 11 -10 2 0 4 5 4 10 0 6 -5 10 -11 10 -5 0 -7
-4 -4 -10z"/>
<path d="M1352 1682 c2 -6 -6 -17 -16 -25 -18 -13 -17 -14 12 -9 36 5 40 13
16 32 -9 8 -14 9 -12 2z"/>
<path d="M1433 1592 c-8 -5 -9 -13 -3 -22 11 -17 23 -8 18 14 -2 9 -8 12 -15
8z"/>
<path d="M1437 1533 c-11 -10 -8 -55 3 -48 5 3 7 12 3 20 -3 8 0 15 6 15 6 0
11 5 11 10 0 11 -13 13 -23 3z"/>
<path d="M1352 1510 c0 -14 2 -19 5 -12 2 6 2 18 0 25 -3 6 -5 1 -5 -13z"/>
<path d="M1891 1465 c10 -10 79 -14 79 -5 0 6 -19 10 -42 10 -23 0 -39 -2 -37
-5z"/>
<path d="M1400 1450 c0 -5 5 -10 10 -10 6 0 10 5 10 10 0 6 -4 10 -10 10 -5 0
-10 -4 -10 -10z"/>
<path d="M1430 1420 c13 -9 13 -11 0 -20 -12 -8 -9 -10 13 -10 31 0 36 15 8
30 -25 13 -41 13 -21 0z"/>
<path d="M1378 1413 c7 -3 16 -2 19 1 4 3 -2 6 -13 5 -11 0 -14 -3 -6 -6z"/>
<path d="M2290 1376 c0 -2 7 -6 15 -10 8 -3 15 -1 15 4 0 6 -7 10 -15 10 -8 0
-15 -2 -15 -4z"/>
<path d="M2428 1373 c7 -3 16 -2 19 1 4 3 -2 6 -13 5 -11 0 -14 -3 -6 -6z"/>
<path d="M1360 1359 c0 -5 5 -7 10 -4 6 3 10 8 10 11 0 2 -4 4 -10 4 -5 0 -10
-5 -10 -11z"/>
<path d="M2383 1350 c-13 -5 -23 -11 -23 -14 0 -7 40 6 46 15 6 10 6 10 -23
-1z"/>
<path d="M1698 1343 c7 -3 16 -2 19 1 4 3 -2 6 -13 5 -11 0 -14 -3 -6 -6z"/>
<path d="M1360 1315 c0 -17 5 -25 13 -22 6 2 12 12 12 22 0 10 -6 20 -12 23
-8 2 -13 -6 -13 -23z"/>
<path d="M1440 1316 c0 -9 5 -16 10 -16 6 0 10 4 10 9 0 6 -4 13 -10 16 -5 3
-10 -1 -10 -9z"/>
<path d="M2110 1309 c0 -5 5 -7 10 -4 6 3 10 8 10 11 0 2 -4 4 -10 4 -5 0 -10
-5 -10 -11z"/>
<path d="M2150 1293 c0 -14 38 -34 45 -23 4 6 -2 13 -12 17 -10 3 -21 8 -25
10 -5 2 -8 0 -8 -4z"/>
<path d="M1846 1263 c-6 -14 -5 -15 5 -6 7 7 10 15 7 18 -3 3 -9 -2 -12 -12z"/>
<path d="M1340 1260 c-9 -6 -10 -10 -3 -10 6 0 15 5 18 10 8 12 4 12 -15 0z"/>
<path d="M1424 1255 c-8 -20 4 -35 21 -28 11 4 14 -1 13 -17 -2 -13 3 -25 11
-28 11 -4 12 3 6 34 -4 21 -9 42 -11 46 -8 13 -34 9 -40 -7z"/>
<path d="M1555 1250 c3 -5 8 -10 11 -10 2 0 4 5 4 10 0 6 -5 10 -11 10 -5 0
-7 -4 -4 -10z"/>
<path d="M1345 1200 c-3 -5 -1 -10 4 -10 6 0 11 5 11 10 0 6 -2 10 -4 10 -3 0
-8 -4 -11 -10z"/>
<path d="M1505 1180 c-3 -5 -1 -10 4 -10 6 0 11 5 11 10 0 6 -2 10 -4 10 -3 0
-8 -4 -11 -10z"/>
<path d="M1453 1146 c15 -23 15 -24 -6 -31 -19 -6 -19 -8 -4 -12 12 -3 15 -11
11 -27 -3 -14 1 -27 9 -35 20 -16 33 4 16 25 -9 11 -9 21 -1 40 13 28 -2 64
-27 64 -11 0 -10 -5 2 -24z"/>
<path d="M1700 1160 c0 -5 5 -10 11 -10 5 0 7 5 4 10 -3 6 -8 10 -11 10 -2 0
-4 -4 -4 -10z"/>
<path d="M1750 1125 c0 -14 4 -25 9 -25 4 0 6 11 3 25 -2 14 -6 25 -8 25 -2 0
-4 -11 -4 -25z"/>
<path d="M1250 1114 c0 -14 4 -23 10 -19 6 3 10 15 10 26 0 10 -4 19 -10 19
-5 0 -10 -12 -10 -26z"/>
<path d="M1780 1073 c0 -12 8 -23 20 -26 11 -3 20 -3 20 -1 0 3 -9 14 -20 26
-20 22 -20 22 -20 1z"/>
<path d="M1865 1070 c-3 -5 -1 -10 4 -10 6 0 11 5 11 10 0 6 -2 10 -4 10 -3 0
-8 -4 -11 -10z"/>
<path d="M1623 1043 c-20 -8 -15 -23 7 -23 11 0 20 7 20 15 0 15 -6 17 -27 8z"/>
<path d="M1040 1024 c0 -8 5 -12 10 -9 6 4 8 11 5 16 -9 14 -15 11 -15 -7z"/>
<path d="M1595 1020 c9 -30 13 -35 21 -27 3 3 -2 16 -11 29 l-17 23 7 -25z"/>
<path d="M1815 1020 c3 -5 8 -10 11 -10 2 0 4 5 4 10 0 6 -5 10 -11 10 -5 0
-7 -4 -4 -10z"/>
<path d="M1841 979 c1 -24 4 -34 6 -21 5 24 23 31 23 8 0 -8 5 -18 10 -21 18
-11 11 10 -15 45 l-25 34 1 -45z"/>
<path d="M1362 969 c-18 -30 -19 -33 -3 -60 10 -19 24 -29 39 -29 13 0 20 4
17 10 -3 6 -15 10 -26 10 -20 0 -26 15 -9 25 5 3 7 12 4 19 -7 17 36 29 53 14
10 -8 13 -6 13 6 0 14 -36 36 -60 36 -4 0 -17 -14 -28 -31z"/>
<path d="M1476 961 c-4 -7 -5 -15 -2 -18 9 -9 19 4 14 18 -4 11 -6 11 -12 0z"/>
<path d="M2391 954 c0 -11 3 -14 6 -6 3 7 2 16 -1 19 -3 4 -6 -2 -5 -13z"/>
<path d="M1161 924 c0 -11 3 -14 6 -6 3 7 2 16 -1 19 -3 4 -6 -2 -5 -13z"/>
<path d="M1914 886 c0 -13 4 -22 9 -19 10 6 9 31 -2 37 -5 3 -8 -5 -7 -18z"/>
<path d="M1590 890 c0 -5 5 -10 10 -10 6 0 10 5 10 10 0 6 -4 10 -10 10 -5 0
-10 -4 -10 -10z"/>
<path d="M1456 873 c-9 -10 -7 -53 3 -53 11 0 21 49 11 55 -4 2 -10 2 -14 -2z"/>
<path d="M1830 855 c0 -8 2 -15 4 -15 2 0 6 7 10 15 3 8 1 15 -4 15 -6 0 -10
-7 -10 -15z"/>
<path d="M1945 860 c3 -5 13 -10 21 -10 8 0 12 5 9 10 -3 6 -13 10 -21 10 -8
0 -12 -4 -9 -10z"/>
<path d="M1490 830 c0 -5 5 -10 10 -10 6 0 10 5 10 10 0 6 -4 10 -10 10 -5 0
-10 -4 -10 -10z"/>
<path d="M1428 824 c-16 -16 -8 -44 12 -44 11 0 20 -4 20 -10 0 -5 7 -10 15
-10 8 0 15 9 15 20 0 17 -5 19 -24 14 -20 -5 -25 -2 -28 16 -2 12 -6 18 -10
14z"/>
<path d="M1610 815 c0 -15 18 -40 24 -34 3 3 -1 14 -9 25 -8 10 -14 15 -15 9z"/>
<path d="M1085 790 c-3 -5 -1 -10 4 -10 6 0 11 5 11 10 0 6 -2 10 -4 10 -3 0
-8 -4 -11 -10z"/>
<path d="M1295 790 c-5 -8 53 -26 60 -18 2 2 -9 9 -25 15 -17 6 -32 7 -35 3z"/>
<path d="M1630 755 c0 -8 5 -15 10 -15 6 0 10 7 10 15 0 8 -4 15 -10 15 -5 0
-10 -7 -10 -15z"/>
<path d="M1286 734 c-3 -9 -6 -23 -5 -32 0 -11 2 -12 6 -4 2 6 11 12 18 12 8
0 13 9 12 20 -2 24 -22 27 -31 4z"/>
<path d="M1028 718 c-10 -10 -13 -18 -8 -18 6 0 10 -7 10 -17 0 -18 10 -12 14
9 1 7 5 18 9 25 12 20 -7 21 -25 1z"/>
<path d="M1390 721 c0 -11 -3 -26 -6 -35 -4 -12 0 -16 16 -16 16 0 20 4 16 15
-3 9 0 15 9 15 8 0 15 -6 15 -12 0 -9 3 -8 9 2 12 18 5 31 -14 24 -8 -4 -18 1
-21 10 -8 22 -24 20 -24 -3z"/>
<path d="M1460 731 c0 -13 26 -32 33 -24 14 13 6 33 -13 33 -11 0 -20 -4 -20
-9z"/>
<path d="M1463 675 c4 -8 2 -17 -3 -20 -6 -4 -5 -14 2 -25 11 -16 14 -17 21
-5 4 8 15 15 22 15 20 0 19 36 -1 44 -28 11 -46 7 -41 -9z"/>
<path d="M1335 670 c-3 -5 -2 -10 4 -10 5 0 13 5 16 10 3 6 2 10 -4 10 -5 0
-13 -4 -16 -10z"/>
<path d="M956 654 c-9 -24 -7 -27 9 -10 17 17 19 26 6 26 -5 0 -12 -7 -15 -16z"/>
<path d="M2200 640 c0 -5 7 -10 16 -10 8 0 12 5 9 10 -3 6 -10 10 -16 10 -5 0
-9 -4 -9 -10z"/>
<path d="M1520 615 c0 -8 2 -15 4 -15 2 0 6 7 10 15 3 8 1 15 -4 15 -6 0 -10
-7 -10 -15z"/>
<path d="M908 608 c8 -8 17 -8 34 0 22 10 21 11 -11 11 -27 1 -32 -2 -23 -11z"/>
<path d="M1218 597 c-3 -19 -2 -25 4 -19 6 6 8 18 6 28 -3 14 -5 12 -10 -9z"/>
<path d="M1352 579 c0 -13 -3 -36 -7 -50 -5 -20 -2 -28 11 -33 22 -8 33 2 14
15 -10 6 -12 11 -4 17 13 9 11 49 -3 63 -8 8 -11 4 -11 -12z"/>
<path d="M1482 582 c4 -19 19 -23 25 -6 2 6 -3 14 -12 18 -12 4 -16 1 -13 -12z"/>
<path d="M1791 584 c0 -11 3 -14 6 -6 3 7 2 16 -1 19 -3 4 -6 -2 -5 -13z"/>
<path d="M1740 543 c0 -5 8 -17 17 -28 14 -18 15 -18 9 -2 -3 10 -6 23 -6 28
0 5 -4 9 -10 9 -5 0 -10 -3 -10 -7z"/>
<path d="M1450 519 c0 -5 -4 -7 -10 -4 -5 3 -10 1 -10 -4 0 -6 16 -11 35 -11
24 0 35 5 35 15 0 9 -9 15 -25 15 -14 0 -25 -5 -25 -11z"/>
<path d="M2050 516 c0 -9 5 -16 10 -16 6 0 10 4 10 9 0 6 -4 13 -10 16 -5 3
-10 -1 -10 -9z"/>
<path d="M1479 453 c-1 -4 -1 -19 0 -33 2 -25 2 -25 -16 -4 -18 20 -18 18 -20
-48 -1 -50 2 -68 12 -68 19 0 39 -27 25 -35 -15 -9 -12 -35 4 -35 21 0 30 -33
12 -46 -22 -15 -20 -24 4 -24 20 0 21 4 16 113 -5 119 -13 174 -27 183 -5 3
-9 2 -10 -3z"/>
<path d="M1095 390 c-3 -5 -1 -10 4 -10 6 0 11 5 11 10 0 6 -2 10 -4 10 -3 0
-8 -4 -11 -10z"/>
<path d="M1770 379 c0 -5 5 -7 10 -4 6 3 10 8 10 11 0 2 -4 4 -10 4 -5 0 -10
-5 -10 -11z"/>
<path d="M1375 321 c-6 -11 9 -23 19 -14 9 9 7 23 -3 23 -6 0 -12 -4 -16 -9z"/>
<path d="M1505 130 c-8 -13 4 -32 16 -25 12 8 12 35 0 35 -6 0 -13 -4 -16 -10z"/>
</g>
</svg>
