<?xml version="1.0" standalone="no"?>
<!DOCTYPE svg PUBLIC "-//W3C//DTD SVG 20010904//EN"
 "http://www.w3.org/TR/2001/REC-SVG-20010904/DTD/svg10.dtd">
<svg version="1.0" xmlns="http://www.w3.org/2000/svg"
 width="468pt" height="280pt" viewBox="0 0 468 280"
 preserveAspectRatio="xMidYMid meet">
<metadata>
Created by potrace 1.8, written by Peter Selinger 2001-2007
</metadata>
<g transform="translate(0,280) scale(0.124138,-0.124138)"
fill="#000000" stroke="none">
<path d="M2710 325 c0 -48 4 -75 11 -75 7 0 9 23 6 73 l-5 72 10 -72 c6 -40
15 -73 21 -73 5 0 7 15 4 34 -4 24 -1 39 9 47 17 14 19 -2 2 -19 -7 -7 -9 -12
-6 -12 3 0 18 16 32 35 39 51 21 68 -21 19 l-33 -39 0 43 c0 31 -4 42 -15 42
-12 0 -15 -15 -15 -75z m90 30 c-7 -9 -15 -13 -18 -10 -3 2 1 11 8 20 7 9 15
13 18 10 3 -2 -1 -11 -8 -20z"/>
<path d="M2620 369 c0 -6 11 -25 25 -43 14 -18 25 -43 25 -54 0 -13 6 -22 15
-22 24 0 18 46 -11 90 -25 38 -54 53 -54 29z m48 -34 c12 -19 21 -45 21 -57
-1 -21 -2 -21 -6 -3 -3 11 -16 34 -29 52 -25 33 -29 43 -16 43 4 0 17 -16 30
-35z"/>
<path d="M2802 321 c-29 -37 -43 -77 -24 -69 15 6 82 85 82 97 0 23 -28 10
-58 -28z m48 23 c0 -4 -16 -24 -35 -45 -41 -46 -47 -33 -7 17 25 31 42 43 42
28z"/>
</g>
</svg>
