<?xml version="1.0" standalone="no"?>
<!DOCTYPE svg PUBLIC "-//W3C//DTD SVG 20010904//EN"
 "http://www.w3.org/TR/2001/REC-SVG-20010904/DTD/svg10.dtd">
<svg version="1.0" xmlns="http://www.w3.org/2000/svg"
 width="431pt" height="648pt" viewBox="0 0 431 648"
 preserveAspectRatio="xMidYMid meet">
<metadata>
Created by potrace 1.8, written by Peter Selinger 2001-2007
</metadata>
<g transform="translate(0,648) scale(0.122960,-0.122960)"
fill="#000000" stroke="none">
<path d="M1935 5193 c-11 -3 -28 -12 -38 -21 -16 -14 -19 -14 -27 -2 -8 12
-10 11 -11 -5 -1 -11 -2 -26 -2 -32 1 -15 -9 -17 -23 -3 -5 5 -15 6 -23 0 -13
-7 -13 -11 0 -26 15 -19 16 -19 -36 2 -8 3 -15 2 -15 -4 0 -5 7 -15 15 -22 8
-7 15 -17 15 -23 0 -5 -8 -3 -18 6 -25 23 -32 21 -33 -5 l0 -23 -10 24 c-8 20
-12 21 -25 11 -11 -10 -18 -10 -26 -2 -8 8 -17 8 -30 1 -14 -7 -23 -7 -34 1
-11 10 -15 9 -20 -4 -3 -9 -11 -16 -16 -16 -5 0 -21 -9 -35 -20 -31 -24 -43
-25 -43 -5 0 16 -9 18 -47 15 -15 -1 -26 6 -32 22 -37 90 -34 86 -49 71 -13
-12 -17 -11 -34 6 -22 25 -27 25 -52 6 -13 -10 -23 -11 -31 -5 -8 7 -19 2 -34
-16 -18 -21 -20 -28 -10 -41 11 -13 9 -14 -11 -11 -22 3 -25 0 -23 -26 3 -36
-14 -61 -32 -46 -15 12 -26 3 -18 -16 6 -17 -9 -18 -24 -3 -9 9 -22 3 -52 -22
-22 -19 -41 -38 -41 -43 0 -5 -7 -18 -17 -28 -15 -17 -15 -19 3 -39 19 -21 19
-22 -3 -15 -36 11 -47 -3 -23 -29 l21 -23 -33 -5 c-27 -4 -37 0 -54 21 -14 17
-23 22 -28 14 -4 -7 -14 -12 -22 -12 -12 0 -12 4 2 26 20 29 6 55 -15 30 -11
-13 -17 -11 -46 20 -28 29 -38 34 -57 28 -13 -4 -27 -7 -32 -6 -4 2 -14 -2
-22 -9 -8 -6 -21 -9 -29 -5 -9 3 -25 -4 -36 -15 -17 -17 -23 -19 -30 -8 -7 11
-10 12 -21 1 -11 -11 -8 -18 17 -39 l30 -25 -28 5 c-38 6 -42 -7 -10 -34 27
-21 27 -22 4 -16 -15 4 -29 0 -39 -10 -14 -14 -13 -17 9 -34 13 -10 27 -19 30
-19 4 0 9 -7 13 -15 4 -12 0 -14 -17 -10 -16 5 -33 -2 -57 -24 -19 -16 -38
-27 -42 -25 -15 10 -30 -7 -18 -21 8 -10 4 -18 -16 -32 l-26 -19 32 -32 c34
-35 20 -43 -20 -12 -18 14 -28 16 -38 8 -10 -9 -7 -17 17 -39 19 -17 26 -29
18 -32 -6 -2 7 -14 31 -26 42 -21 49 -48 10 -38 -11 3 -26 3 -34 0 -12 -4 -10
-9 6 -20 l21 -15 -21 -15 c-33 -23 -9 -41 25 -19 32 21 45 13 21 -13 -24 -26
-4 -36 29 -15 39 25 39 12 0 -26 -43 -42 -108 -53 -125 -20 -6 11 -17 20 -26
20 -8 0 -25 7 -38 15 -20 13 -24 13 -42 -3 -10 -10 -21 -19 -24 -19 -105 -24
-102 -23 -96 -46 3 -12 1 -26 -4 -32 -7 -8 -2 -19 15 -35 29 -28 34 -51 5 -25
-16 15 -22 16 -36 5 -14 -12 -13 -15 8 -31 l23 -18 -27 -10 c-38 -14 -50 -40
-32 -71 18 -34 17 -40 -5 -40 -31 0 -32 -15 -3 -41 l27 -24 -30 -5 c-35 -6
-36 -22 -3 -32 20 -5 19 -6 -9 -7 -37 -1 -49 -14 -28 -31 8 -7 12 -16 9 -21
-3 -5 7 -15 22 -21 l28 -13 -29 -5 c-46 -8 -34 -24 26 -34 30 -5 47 -11 39
-14 -8 -3 -20 -11 -27 -18 -11 -10 -10 -13 5 -17 10 -3 6 -5 -11 -6 -44 -2
-27 -25 23 -33 24 -4 68 -4 97 1 29 4 53 4 53 -1 0 -4 -9 -8 -20 -8 -11 0 -23
-7 -26 -15 -4 -8 -15 -15 -26 -15 -16 0 -19 -6 -16 -32 4 -47 34 -48 92 -4 25
20 48 36 51 36 2 0 -7 -19 -20 -42 -45 -78 -25 -94 27 -23 18 24 36 44 39 45
3 0 14 -6 25 -14 14 -11 16 -18 8 -26 -8 -8 -7 -20 5 -46 18 -40 20 -40 64
-15 32 18 34 18 68 1 l34 -18 -30 -8 c-16 -4 -35 -14 -41 -23 -10 -12 -15 -13
-27 -3 -11 10 -17 9 -26 -2 -9 -11 -5 -20 18 -45 25 -26 26 -31 11 -31 -11 0
-21 -4 -25 -9 -7 -13 26 -30 45 -23 12 4 11 1 -2 -15 -24 -26 -23 -36 2 -28
26 8 26 -10 0 -32 -18 -16 -18 -18 -3 -35 20 -22 61 -23 91 -3 18 14 21 14 16
1 -3 -8 -12 -17 -20 -20 -18 -7 -18 -46 0 -46 7 0 19 7 26 15 19 23 32 7 14
-20 -14 -22 -14 -24 4 -34 15 -8 23 -7 32 4 7 8 16 12 21 9 5 -3 15 8 22 25
l13 31 30 -31 c28 -30 31 -31 95 -24 61 5 67 4 72 -15 7 -26 27 -26 27 0 0 27
14 25 30 -5 18 -33 29 -32 42 6 7 21 13 27 19 18 6 -10 11 -10 24 1 22 18 152
46 270 59 50 6 151 26 225 45 74 19 136 33 137 32 4 -4 -16 -1282 -22 -1366
-3 -47 -10 -339 -16 -650 -5 -311 -12 -672 -16 -802 l-6 -238 108 0 108 0 -7
308 c-15 711 -18 1298 -11 1955 6 589 10 697 21 697 8 0 61 -15 117 -34 56
-19 138 -39 182 -46 44 -6 96 -15 115 -20 46 -12 182 -30 225 -30 18 0 35 -5
37 -10 5 -16 112 -30 226 -30 75 0 102 -3 102 -12 0 -9 3 -9 9 1 8 12 12 12
25 2 13 -11 16 -11 16 3 0 9 5 16 10 16 6 0 10 -7 10 -17 0 -13 3 -12 19 5 10
12 21 19 25 15 3 -3 6 0 6 8 0 11 2 11 10 -1 6 -10 10 -11 10 -2 0 6 4 12 10
12 5 0 32 14 60 30 60 35 64 36 57 11 -2 -10 -1 -24 3 -31 4 -7 4 -26 -1 -43
-6 -23 -6 -28 3 -19 12 12 45 0 61 -22 5 -6 7 1 4 17 -5 31 0 34 20 10 13 -16
13 -16 4 4 -6 12 -11 30 -11 40 1 14 6 12 27 -12 24 -28 25 -29 9 -3 -9 15
-16 33 -16 40 0 8 5 6 11 -4 5 -10 17 -18 25 -18 23 0 28 29 10 49 -16 18 -15
18 26 14 34 -4 47 -1 58 13 14 16 13 16 -6 4 -17 -11 -25 -10 -49 6 l-28 18
24 7 c13 3 23 12 21 19 -2 7 5 22 15 34 l18 21 -22 -19 c-23 -19 -32 -11 -13
12 7 9 7 9 -2 2 -20 -16 -31 -11 -17 8 11 14 9 13 -9 -2 -28 -24 -39 -15 -18
16 23 32 20 47 -11 59 l-28 10 24 18 24 18 -23 16 -22 15 28 5 c29 4 29 4 3 6
-17 0 -28 8 -32 20 -6 24 19 36 39 20 19 -16 45 -4 38 18 -4 14 0 12 15 -6 12
-13 21 -20 21 -15 0 4 -7 16 -17 26 -28 31 -5 33 30 2 26 -24 28 -24 9 -3 -23
26 -19 48 5 27 11 -9 12 -7 7 8 -7 18 -6 18 17 -1 l24 -20 -20 24 c-15 18 -17
25 -7 28 10 4 10 8 -2 17 -8 6 -18 23 -22 39 -6 24 -3 28 25 33 31 7 31 7 10
18 -13 6 -31 26 -42 43 l-18 32 33 16 c18 8 23 12 11 9 -36 -8 -39 25 -3 39
12 4 11 6 -2 6 -22 1 -24 17 -3 25 8 3 15 10 15 16 0 6 -7 6 -19 -2 -23 -14
-48 2 -63 42 -9 24 -10 24 -23 7 -13 -18 -14 -18 -25 3 -13 25 -35 22 -35 -6
0 -14 -6 -18 -22 -16 -13 2 -26 -4 -32 -16 -14 -27 -40 -35 -57 -18 -8 8 -14
18 -14 23 0 9 34 34 60 44 9 4 0 9 -23 13 -39 7 -51 31 -19 39 16 4 16 5 0 6
-10 1 -15 7 -12 14 3 8 0 26 -5 40 -15 38 2 35 55 -9 46 -37 66 -38 57 -4 -5
17 0 20 26 20 30 0 101 44 101 63 0 4 -24 8 -52 9 l-53 1 45 6 c25 3 45 11 45
16 0 6 -20 12 -45 15 -42 5 -43 6 -23 18 12 6 30 12 40 13 10 0 -7 7 -37 15
-76 21 -82 30 -40 65 23 20 35 38 35 57 0 15 4 33 9 41 6 8 -1 7 -18 -4 -26
-17 -36 -9 -14 13 9 9 7 13 -5 18 -15 5 -15 9 4 35 11 16 29 29 38 29 22 0 45
25 36 40 -4 7 -12 7 -25 0 -13 -7 -21 -6 -30 5 -7 8 -9 15 -4 15 4 0 3 5 -4
12 -9 9 -8 16 6 32 17 21 17 21 -4 4 -35 -30 -50 -15 -18 17 14 14 15 22 5 55
-6 21 -20 49 -31 62 -19 22 -21 22 -34 6 -12 -17 -14 -17 -31 2 -10 11 -28 20
-41 20 -12 0 -25 6 -27 13 -4 10 -6 10 -6 0 -1 -16 -28 -17 -33 -2 -5 14 -42
4 -63 -17 -11 -11 -13 -26 -9 -55 6 -36 -6 -54 -20 -30 -3 4 -27 14 -53 21
-90 24 -106 70 -18 50 21 -5 43 -6 48 -3 14 9 -39 53 -64 53 -17 0 -19 3 -10
13 6 8 8 17 4 20 -3 4 5 7 18 7 13 0 31 5 39 10 10 7 2 8 -29 4 -35 -6 -43 -4
-39 7 2 7 15 16 29 20 l24 6 -24 4 c-33 5 -38 39 -6 39 31 0 43 20 16 27 -14
3 -21 13 -21 29 0 30 -20 42 -27 15 -3 -11 -9 -18 -14 -16 -4 3 -6 12 -3 19 3
8 -3 17 -15 21 -11 3 -23 15 -26 26 -4 10 -10 19 -15 19 -5 0 -29 16 -54 35
-52 39 -70 43 -85 18 -8 -16 -12 -15 -35 10 -22 24 -29 26 -47 17 -14 -8 -24
-8 -33 -1 -16 13 -26 4 -26 -22 0 -20 -1 -20 -23 1 -31 30 -40 28 -32 -8 7
-31 -7 -71 -19 -52 -5 8 -17 5 -38 -8 -25 -15 -35 -17 -46 -7 -11 9 -20 5 -43
-21 -33 -36 -41 -39 -60 -16 -12 14 -14 14 -25 0 -9 -13 -21 -15 -53 -10 -46
7 -47 20 -1 22 43 1 57 12 36 28 -10 7 -24 10 -32 7 -8 -3 -14 -2 -14 1 0 4
12 11 26 16 22 9 24 13 14 25 -11 13 -16 13 -41 -2 -33 -20 -49 -11 -31 18 13
21 7 43 -9 34 -19 -12 -28 5 -18 34 7 19 7 40 0 62 -5 19 -10 25 -10 15 -1
-17 -4 -16 -26 8 -13 14 -30 26 -37 26 -7 0 -19 9 -26 20 -12 20 -20 22 -57
13z m54 -22 c6 -10 21 -22 33 -25 13 -4 34 -20 46 -36 20 -25 22 -35 14 -59
-12 -33 -1 -57 22 -48 19 8 20 3 4 -23 -10 -15 -10 -22 0 -32 10 -10 18 -9 41
5 15 9 31 14 35 10 3 -3 -4 -11 -16 -17 -29 -14 -29 -31 0 -32 32 -2 41 -14
11 -15 -13 -1 -29 -1 -35 0 -17 2 -37 -26 -24 -34 17 -10 11 -33 -10 -40 -11
-3 -20 -13 -20 -21 0 -8 -9 -14 -20 -14 -10 0 -23 -7 -27 -15 -10 -18 -73 -39
-73 -24 0 5 -10 9 -23 9 -18 0 -25 -10 -41 -60 -11 -33 -19 -77 -18 -98 2 -42
-14 -63 -60 -81 -25 -9 -28 -7 -46 27 -31 60 -36 99 -16 110 32 18 60 201 34
217 -5 3 -10 24 -10 45 0 30 5 40 20 45 32 10 26 58 -12 101 -28 32 -30 36 -9
25 17 -10 26 -10 34 -2 9 9 8 14 -2 20 -8 6 -9 11 -3 15 6 3 13 2 17 -4 10
-17 38 -12 31 5 -3 10 1 18 12 22 9 4 22 12 27 19 9 11 33 20 62 23 7 0 17 -7
22 -18z m-657 -40 c7 -10 24 -18 37 -17 19 1 26 -6 33 -30 10 -39 32 -58 58
-51 27 7 40 -19 40 -82 0 -41 5 -56 30 -84 27 -31 29 -37 19 -72 -6 -22 -8
-61 -5 -87 6 -39 4 -50 -9 -55 -9 -3 -21 -1 -28 6 -14 14 -51 15 -42 1 8 -13
-5 -12 -87 4 -42 8 -73 9 -83 3 -9 -5 -35 -6 -58 -2 -87 13 -107 10 -176 -30
-21 -11 -27 -11 -47 2 -15 10 -40 14 -72 11 -48 -3 -49 -2 -39 20 6 12 19 22
29 22 12 0 23 11 29 30 6 17 15 30 19 30 18 0 15 36 -4 59 l-21 24 27 -7 c31
-7 49 12 25 26 -15 8 -15 11 0 41 24 46 82 94 93 77 11 -19 44 -4 36 16 -5 14
-4 15 8 5 22 -18 49 14 41 49 -5 25 -4 28 13 23 21 -5 39 12 22 22 -6 4 -4 15
6 31 13 19 19 22 31 13 11 -10 18 -9 31 4 21 22 28 21 44 -2z m312 -73 c19 8
26 8 29 -1 3 -9 9 -9 26 1 17 10 21 10 21 -2 0 -25 21 -29 27 -7 5 21 7 21 24
5 11 -9 19 -14 19 -9 0 4 7 2 15 -5 22 -18 19 -57 -6 -71 -18 -9 -20 -17 -15
-57 15 -113 16 -140 3 -187 -13 -49 -14 -50 -54 -53 -31 -2 -42 -8 -46 -23 -5
-19 -34 -25 -101 -21 -38 3 -40 6 -27 31 9 15 8 26 -1 40 -10 16 -10 33 0 81
l13 61 -30 35 c-24 27 -31 44 -31 77 0 36 5 47 30 65 16 12 34 22 40 22 6 0
13 7 17 16 4 12 8 13 14 3 6 -10 13 -10 33 -1z m913 -59 c14 8 24 4 46 -17 27
-25 29 -26 41 -9 7 9 18 17 25 17 13 0 97 -63 131 -99 24 -25 26 -29 29 -51 2
-18 21 -10 31 13 8 21 9 21 9 -6 1 -19 8 -30 24 -37 20 -8 20 -9 -9 -9 -31 -1
-31 -2 -29 -50 1 -26 5 -53 9 -60 4 -6 2 -11 -3 -11 -6 0 -11 -7 -11 -15 0 -9
9 -15 25 -15 14 0 25 -4 25 -9 0 -5 10 -11 22 -14 37 -10 15 -16 -25 -7 -40 9
-77 3 -77 -11 0 -14 33 -49 47 -49 19 0 16 -10 -15 -55 -15 -21 -37 -42 -49
-45 -13 -3 -33 -14 -45 -25 l-23 -20 23 -3 c12 -2 22 -7 22 -12 0 -18 -58 -40
-88 -34 -23 5 -39 -1 -76 -30 -52 -40 -92 -46 -131 -20 -13 8 -36 14 -52 12
-35 -4 -43 25 -15 55 11 12 22 31 26 42 5 19 30 51 75 100 26 29 43 64 36 75
-11 18 -42 10 -55 -15 -16 -31 -37 -32 -67 -4 -18 18 -34 22 -83 21 l-60 -1 0
44 c0 25 6 50 15 59 8 8 15 26 15 40 0 14 4 35 9 48 5 13 12 35 15 50 8 37 66
94 78 76 14 -22 40 21 33 56 l-5 30 23 -22 c30 -29 37 -28 37 4 0 22 2 24 14
14 11 -8 20 -9 33 -1z m-214 -110 c-6 -42 -37 -158 -49 -181 -8 -14 -14 -40
-14 -56 0 -21 -6 -33 -19 -37 -11 -3 -22 -12 -25 -20 -4 -11 -21 -15 -58 -15
-55 0 -98 -20 -98 -44 0 -17 -66 -28 -88 -16 -10 5 -34 16 -54 24 -41 16 -50
43 -35 108 9 35 40 57 53 37 8 -14 24 0 24 22 0 24 16 31 78 33 47 1 47 1 44
34 -2 27 2 35 18 39 11 3 20 14 20 25 0 16 5 18 34 13 26 -5 36 -3 43 10 9 15
11 15 22 1 20 -23 35 -20 60 15 22 30 48 35 44 8z m-1558 -14 c14 -14 25 -30
25 -35 0 -15 11 -12 32 7 22 20 24 6 2 -25 -14 -20 -14 -23 1 -28 8 -4 21 -1
29 5 10 9 17 6 30 -14 13 -20 22 -24 49 -19 19 3 27 2 20 -3 -6 -5 -16 -21
-22 -36 -6 -16 -18 -27 -30 -27 -11 0 -23 -11 -30 -28 -9 -22 -22 -30 -64 -40
-70 -16 -112 -15 -127 3 -7 8 -28 15 -46 15 -24 0 -38 7 -49 23 -8 13 -26 30
-40 37 -19 10 -22 16 -14 27 6 7 15 10 21 7 5 -3 17 -3 26 1 15 6 13 10 -12
30 l-28 23 25 -5 c35 -7 43 13 12 33 -14 9 -25 21 -25 27 0 7 4 7 12 -1 17
-17 38 -15 38 3 0 15 11 19 38 16 8 -1 20 3 27 9 8 7 18 9 23 7 4 -3 14 -2 22
4 22 13 27 12 55 -16z m1309 -110 c1 -5 -9 -11 -21 -13 -22 -3 -30 8 -16 22
10 9 36 3 37 -9z m-130 -31 c9 -24 7 -41 -3 -25 -8 12 -13 12 -24 3 -12 -10
-13 -8 -9 13 5 28 27 33 36 9z m-717 -84 c31 -3 54 -2 56 4 2 5 35 4 87 -4 59
-9 85 -10 88 -2 2 7 19 2 45 -11 l42 -22 -2 -65 c-2 -36 -7 -66 -13 -68 -5 -2
-10 -15 -10 -28 0 -17 -6 -24 -20 -24 -11 0 -29 -6 -41 -12 -17 -11 -22 -10
-33 5 -8 10 -20 15 -29 11 -9 -3 -24 4 -37 18 -19 21 -29 23 -106 21 -71 -1
-91 -5 -119 -25 -19 -12 -35 -26 -35 -30 0 -5 -15 -8 -33 -8 -24 0 -41 8 -62
30 -16 17 -23 30 -16 30 10 0 12 12 9 45 -4 31 -1 48 8 56 8 6 14 18 14 26 0
7 8 16 18 20 9 3 24 12 33 20 22 19 70 33 89 26 8 -3 39 -9 67 -13z m-637 -2
c0 -5 15 -8 34 -8 18 0 39 -7 47 -16 13 -16 88 -16 152 1 24 7 34 2 66 -29 32
-31 39 -46 44 -89 3 -29 14 -79 25 -113 24 -73 19 -112 -16 -125 -21 -8 -29
-5 -58 28 -18 21 -40 53 -49 71 -9 17 -17 32 -19 32 -1 0 -28 5 -60 11 -54 10
-59 9 -77 -12 -15 -17 -25 -20 -50 -15 -25 5 -32 2 -36 -14 -3 -11 -12 -20
-19 -20 -8 0 -14 -6 -14 -14 0 -8 -21 -26 -46 -40 -56 -31 -63 -32 -39 -6 26
29 6 49 -26 26 -33 -23 -49 -20 -19 4 25 19 25 19 5 35 -19 15 -19 15 6 10 15
-4 30 -1 37 7 14 17 5 30 -31 46 -15 6 -26 16 -25 21 2 5 -9 20 -24 34 -33 31
-25 43 12 17 28 -20 60 -27 60 -12 0 4 -14 20 -31 37 -22 21 -28 30 -18 34 25
8 39 34 26 50 -10 12 -9 14 3 9 9 -3 31 6 50 22 32 27 90 38 90 18z m1130 -10
c0 -11 12 -45 26 -75 29 -63 29 -107 -2 -111 -11 -2 -28 6 -39 18 -10 11 -24
20 -31 20 -7 0 -38 11 -69 25 -43 20 -55 31 -55 48 0 36 12 45 69 53 40 5 55
12 58 25 7 27 43 25 43 -3z m-729 -19 c19 -19 19 -22 4 -38 -12 -14 -14 -29
-9 -60 4 -28 3 -41 -5 -41 -6 0 -11 5 -11 11 0 6 -6 9 -13 6 -9 -3 -14 6 -15
32 -2 27 -11 44 -36 68 -37 35 -33 41 27 42 25 1 44 -6 58 -20z m2044 11 c3
-5 26 -10 51 -10 33 0 47 -5 56 -20 16 -25 38 -26 38 -2 1 13 6 10 25 -12 27
-34 41 -76 27 -85 -5 -3 -12 -16 -16 -28 -5 -16 -2 -25 14 -33 12 -6 19 -14
16 -17 -3 -4 1 -14 10 -24 13 -15 21 -16 36 -8 16 9 19 8 16 -2 -2 -7 -18 -17
-34 -21 -36 -9 -73 -65 -49 -75 12 -4 13 -9 4 -19 -14 -17 -3 -35 16 -27 28
10 11 -39 -25 -73 -29 -27 -32 -34 -21 -47 7 -9 26 -19 42 -22 28 -6 29 -8 15
-24 -21 -23 -12 -31 38 -33 l41 -1 -45 -6 c-59 -8 -58 -25 3 -29 l47 -3 -28
-24 c-15 -13 -44 -25 -63 -27 -28 -2 -34 -7 -33 -25 0 -13 0 -23 -2 -23 -1 0
-16 13 -33 29 -18 17 -41 33 -53 36 -28 9 -43 -7 -29 -33 5 -10 7 -36 4 -56
-5 -32 -3 -38 16 -43 26 -7 26 -10 -1 -33 -21 -16 -21 -20 -9 -44 18 -33 45
-33 76 -1 16 18 25 22 31 14 10 -17 34 17 28 39 -3 11 1 9 12 -5 20 -27 41
-30 47 -5 4 14 5 13 6 -4 0 -11 12 -31 27 -44 24 -23 27 -46 14 -95 -6 -19 12
-65 29 -75 15 -9 15 -11 -1 -20 -22 -13 -22 -26 -4 -62 13 -24 13 -30 0 -43
-9 -8 -24 -15 -34 -15 -21 0 -45 -34 -35 -50 3 -6 1 -10 -4 -10 -6 0 -11 15
-11 33 0 40 -6 48 -53 69 -20 10 -36 21 -35 26 4 11 -57 72 -71 72 -6 0 -11 8
-11 18 0 10 -4 22 -9 28 -5 5 -11 23 -13 39 -3 26 -7 30 -33 30 -21 0 -33 7
-40 22 -5 12 -17 24 -27 26 -13 4 -18 15 -18 41 0 19 -11 55 -24 79 -20 39
-21 47 -10 68 7 13 13 31 14 40 0 21 22 30 41 18 8 -5 32 -8 54 -7 33 1 34 2
10 5 -16 2 -42 9 -57 14 -17 7 -33 7 -44 1 -24 -13 -50 -4 -62 23 -6 14 -26
28 -49 35 -89 29 -158 87 -168 142 -6 30 -4 39 10 44 12 5 16 17 14 51 -3 41
-1 46 26 59 17 7 37 18 45 22 55 33 84 42 129 42 28 0 51 -5 51 -10 0 -6 11
-16 25 -22 14 -6 25 -17 25 -23 0 -7 20 -25 45 -41 l45 -28 0 -67 c0 -37 4
-70 9 -73 10 -6 27 -104 22 -121 -13 -42 -11 -47 7 -20 12 18 16 34 11 41 -5
6 -10 30 -12 52 -1 23 -8 47 -15 54 -7 7 -12 39 -12 78 l0 65 -45 28 c-25 16
-45 34 -45 40 -1 7 -17 22 -36 35 -42 27 -111 29 -160 6 -25 -12 -40 -13 -61
-6 l-28 10 42 18 c38 17 93 79 93 104 0 5 21 0 46 -10 25 -11 50 -17 56 -14 6
4 8 22 4 43 -5 30 -2 39 17 53 26 20 33 22 42 8z m-618 -64 c31 -21 31 -23 17
-51 -13 -27 -39 -49 -96 -80 -10 -5 -18 -15 -18 -22 0 -7 -5 -13 -10 -13 -6 0
-20 -11 -31 -25 -21 -23 -23 -23 -57 -10 -19 8 -43 15 -53 15 -13 0 -19 7 -19
21 0 12 -19 39 -44 62 -36 35 -42 46 -35 64 11 30 39 43 93 43 25 0 51 6 58
13 20 22 155 10 195 -17z m103 19 c0 -12 -32 -56 -77 -103 -26 -27 -7 14 37
80 26 40 40 48 40 23z m-593 -57 c47 -22 48 -22 18 -26 -16 -2 -37 -10 -46
-18 -8 -7 -31 -17 -50 -20 -19 -4 -39 -11 -45 -16 -17 -13 -28 23 -12 38 10
10 74 58 85 63 1 1 23 -9 50 -21z m-339 -17 c10 -5 28 -14 40 -20 12 -6 28
-11 35 -11 8 0 22 -9 32 -20 10 -11 26 -20 36 -20 26 0 30 -12 23 -79 l-7 -62
-17 28 c-35 55 -170 183 -170 161 0 -6 -2 -9 -5 -6 -6 5 4 38 11 38 2 0 12 -4
22 -9z m462 -6 c0 -11 -45 -70 -60 -79 -8 -5 -31 -26 -50 -46 -19 -20 -56 -49
-82 -64 l-48 -27 0 38 c0 36 3 39 53 61 32 14 62 36 77 58 14 19 39 41 55 49
32 14 55 18 55 10z m-110 -20 c0 -10 -38 -48 -67 -67 -33 -21 -73 -24 -73 -4
0 20 20 33 62 41 21 4 42 13 49 21 11 14 29 19 29 9z m165 -39 l34 -34 -22
-15 c-12 -8 -35 -28 -52 -45 -16 -17 -61 -47 -100 -67 -38 -21 -75 -45 -82
-55 -7 -10 -24 -20 -38 -22 -22 -5 -25 -2 -25 23 0 16 -1 32 -2 35 -2 4 21 19
50 34 29 15 67 42 85 61 18 19 42 41 52 50 11 9 29 28 39 43 10 14 21 26 23
26 2 0 19 -15 38 -34z m-740 -21 c36 -39 66 -50 121 -46 37 2 42 0 48 -23 4
-17 13 -26 26 -26 13 0 20 -7 20 -19 0 -10 7 -24 15 -31 8 -7 15 -17 15 -22 0
-6 9 -23 20 -38 20 -29 20 -80 -1 -80 -5 0 -9 -13 -9 -28 0 -67 -45 -107 -93
-84 -33 16 -117 25 -117 13 0 -6 -12 -11 -27 -11 -16 0 -36 -6 -45 -13 -9 -7
-32 -11 -50 -9 -36 4 -49 23 -63 90 -4 18 -15 38 -26 45 -10 6 -19 18 -19 26
0 20 -63 79 -93 86 -21 6 -25 14 -30 55 -8 66 0 90 29 90 13 0 24 3 24 8 0 16
67 51 98 50 18 -1 35 2 39 6 17 17 89 -7 118 -39z m195 35 c8 -5 11 -12 8 -16
-10 -9 -38 3 -38 16 0 12 10 13 30 0z m-532 -60 c7 0 13 -15 13 -32 1 -18 3
-63 5 -100 2 -55 0 -66 -12 -61 -8 3 -14 13 -14 24 0 10 -8 24 -17 31 -13 9
-18 28 -19 65 -1 29 -6 58 -11 65 -6 7 -13 26 -15 41 l-6 29 32 -31 c18 -17
37 -31 44 -31z m1392 47 c0 -24 -54 -86 -75 -87 -11 0 -37 -11 -57 -25 -20
-14 -43 -25 -50 -25 -8 0 -18 -4 -24 -10 -5 -5 -41 -13 -79 -17 l-70 -8 -3
-37 c-2 -23 1 -38 8 -38 6 0 8 -4 5 -10 -10 -16 -120 -77 -152 -84 -16 -4 -37
-18 -47 -31 -30 -40 -43 -31 -51 36 -8 64 -1 79 37 79 10 0 24 11 33 24 8 13
36 31 60 42 25 10 45 22 45 26 0 4 9 8 20 8 11 0 42 23 70 52 27 28 50 46 50
40 0 -7 11 -12 25 -12 13 0 40 -7 58 -16 33 -16 35 -16 60 10 14 14 31 26 37
26 5 0 10 7 10 15 0 8 6 15 13 15 7 0 20 9 30 20 19 23 47 27 47 7z m-760 -66
c0 -4 13 -20 28 -37 61 -64 71 -101 54 -198 l-7 -38 -37 35 c-21 20 -38 43
-38 51 0 9 -3 16 -8 16 -4 0 -15 17 -25 38 -35 73 -48 92 -62 92 -8 0 -17 11
-21 25 -5 20 -13 25 -36 25 -28 0 -28 1 -13 17 10 9 32 17 51 17 21 1 34 6 34
14 0 8 16 1 40 -18 22 -17 40 -35 40 -39z m134 -3 c10 -84 27 -346 28 -418 1
-36 1 -733 2 -1550 1 -817 5 -1650 10 -1853 l9 -367 -98 0 -98 0 6 237 c4 131
11 483 17 783 6 300 15 664 20 810 5 146 10 398 10 560 0 275 8 537 30 990 5
102 14 309 19 460 11 306 18 400 31 400 5 0 11 -24 14 -52z m-374 32 c0 -5 -4
-10 -9 -10 -6 0 -13 5 -16 10 -3 6 1 10 9 10 9 0 16 -4 16 -10z m-648 -15 c29
-4 41 -13 53 -38 8 -18 33 -51 55 -74 38 -42 60 -54 60 -33 0 6 5 10 10 10 16
0 12 -32 -7 -52 -12 -14 -31 -18 -80 -18 -55 0 -67 -3 -90 -26 -21 -21 -32
-25 -59 -19 -30 5 -49 25 -25 25 14 0 19 36 8 56 -21 38 -47 57 -84 63 -29 5
-39 11 -41 29 -2 14 2 22 11 22 8 0 17 8 19 18 4 14 13 17 39 14 26 -2 38 2
49 17 8 12 21 19 30 17 8 -2 32 -7 52 -11z m1911 -49 c22 -17 23 -72 1 -80
-13 -5 -15 -15 -9 -53 7 -49 47 -97 100 -121 l26 -12 -38 -38 c-21 -21 -42
-38 -48 -37 -20 0 -36 35 -37 79 0 27 -7 52 -17 63 -9 10 -20 26 -23 35 -4 10
-20 18 -40 20 -32 3 -33 5 -36 48 -3 43 -1 47 40 77 49 36 56 37 81 19z m-310
-17 c5 -17 11 -20 34 -15 18 4 35 1 48 -8 11 -9 37 -16 57 -16 37 0 37 0 40
-47 3 -44 5 -48 31 -51 32 -4 82 -60 83 -95 2 -63 6 -76 30 -101 15 -14 22
-26 16 -26 -6 0 -14 -9 -17 -20 -3 -11 -11 -20 -17 -20 -5 0 -23 -11 -40 -25
-16 -14 -36 -25 -43 -25 -8 0 -21 -10 -29 -22 -15 -21 -19 -21 -86 -11 -82 13
-97 23 -106 69 -3 19 -10 34 -15 34 -4 0 -21 14 -37 31 -31 33 -89 47 -131 31
-20 -7 -13 -9 35 -9 54 1 62 -2 95 -34 34 -33 49 -69 76 -187 7 -31 -31 -72
-68 -72 -18 0 -32 -7 -39 -20 -7 -13 -21 -20 -40 -20 -16 0 -32 -5 -36 -11 -4
-8 1 -9 16 -4 15 5 20 4 16 -4 -4 -7 1 -11 13 -11 11 0 40 -7 65 -15 52 -18
218 -22 259 -6 17 7 27 7 27 1 0 -6 12 -10 28 -10 16 0 32 -8 39 -19 12 -19 9
-19 -100 -15 -62 3 -149 12 -195 21 -58 11 -115 14 -190 10 -60 -3 -114 -2
-122 3 -11 7 -25 -1 -51 -26 -36 -35 -69 -39 -69 -8 0 8 -5 14 -10 14 -6 0
-18 16 -27 36 -17 35 -17 37 3 53 36 29 39 59 10 88 -26 25 -37 83 -16 83 6 0
10 10 10 23 0 44 13 50 107 52 80 2 92 5 117 28 15 14 23 28 18 30 -4 3 -53 2
-107 -2 -55 -4 -101 -7 -102 -6 -2 1 26 16 62 33 35 18 69 40 74 50 10 16 10
16 11 -1 0 -10 6 -25 14 -33 22 -21 32 -17 12 5 -15 16 -16 25 -6 61 7 27 8
45 2 49 -5 3 -13 21 -17 39 -4 18 -13 32 -21 32 -11 0 -14 8 -12 28 3 26 6 27
73 35 38 4 74 12 79 17 6 6 17 10 26 10 8 1 29 12 45 25 37 31 71 32 78 4z
m-1752 -49 c25 0 69 -50 69 -77 0 -13 -4 -23 -9 -23 -15 0 -31 -60 -31 -119
-1 -66 -16 -93 -50 -84 -21 6 -22 3 -18 -25 2 -17 2 -30 -1 -29 -52 23 -61 32
-61 62 0 39 -30 80 -64 89 -23 6 -25 12 -29 69 l-3 62 -2 -62 c-2 -56 0 -64
21 -74 40 -21 67 -52 67 -78 0 -18 -8 -30 -22 -36 -13 -6 -23 -14 -23 -20 1
-14 -43 -35 -73 -35 -14 0 -52 -5 -84 -12 l-59 -12 -34 37 c-25 27 -42 37 -64
37 -23 0 -34 7 -45 28 -17 33 -7 57 29 66 30 8 32 20 4 39 -14 10 -17 17 -9
22 6 4 19 0 29 -9 38 -35 44 -2 6 34 -13 12 -21 28 -17 34 4 6 7 20 7 31 0 18
5 21 82 38 7 2 20 11 31 20 16 15 21 15 38 2 10 -8 26 -15 34 -15 8 0 21 -9
28 -20 10 -17 21 -20 53 -17 32 3 50 14 82 46 35 35 47 41 71 37 16 -4 37 -6
47 -6z m373 -26 c22 -8 20 -30 -4 -64 -14 -20 -19 -37 -14 -54 4 -17 2 -26 -6
-26 -7 0 -9 -8 -5 -19 4 -14 0 -21 -14 -26 -16 -5 -18 -12 -14 -44 5 -35 3
-39 -22 -45 -21 -5 -31 -2 -46 19 -11 14 -27 25 -35 25 -8 0 -19 11 -24 25 -5
14 -16 25 -24 25 -20 0 -27 25 -15 60 14 40 36 50 105 50 64 0 94 18 94 57 0
25 1 26 24 17z m143 -49 c18 -17 33 -39 33 -47 0 -9 8 -19 17 -23 15 -5 12 -9
-16 -22 -26 -13 -32 -21 -28 -39 4 -21 1 -23 -22 -18 -112 23 -138 38 -128 74
3 11 1 20 -5 20 -5 0 -6 5 -3 10 3 6 15 10 26 10 10 0 19 5 19 11 0 6 8 8 19
4 25 -8 39 29 19 52 -24 30 33 3 69 -32z m-117 -15 c0 -5 -5 -10 -11 -10 -5 0
-7 5 -4 10 3 6 8 10 11 10 2 0 4 -4 4 -10z m1090 -54 c11 -11 1 -36 -15 -36
-7 0 -20 -11 -29 -25 -9 -13 -39 -35 -68 -47 -44 -19 -88 -47 -155 -101 -10
-7 -13 2 -13 42 0 44 3 53 23 60 12 5 32 21 44 35 13 14 30 26 38 26 18 0 98
41 103 53 2 4 9 7 17 7 7 0 19 7 26 17 13 15 14 15 17 -3 2 -10 8 -23 12 -28z
m-410 -22 c46 -42 51 -64 14 -64 -33 0 -30 -33 4 -38 20 -3 22 -9 22 -70 0
-60 -1 -64 -15 -46 -8 10 -15 29 -15 42 0 12 -11 40 -25 62 -14 22 -25 42 -25
46 0 3 -7 21 -16 39 -13 29 -14 36 -2 49 7 8 14 15 15 16 2 0 21 -16 43 -36z
m-1002 -11 c1 -20 6 -41 11 -47 4 -6 13 -26 19 -43 l11 -33 -39 23 c-36 20
-40 26 -40 64 0 23 3 48 6 57 11 29 29 17 32 -21z m46 12 c-11 -8 -14 -14 -6
-15 7 0 18 -11 24 -25 6 -14 17 -25 25 -25 7 0 13 -7 13 -15 0 -8 5 -15 10
-15 6 0 10 -7 10 -15 0 -8 6 -12 13 -9 8 3 20 -3 28 -12 10 -12 11 -18 3 -21
-8 -3 -9 -15 -4 -39 7 -29 6 -34 -7 -30 -8 3 -18 6 -23 6 -20 0 -70 53 -70 75
0 23 -9 51 -33 102 -12 27 -3 53 20 53 15 0 15 -2 -3 -15z m457 -24 c-13 -23
-38 -34 -47 -20 -7 11 24 38 44 39 9 0 10 -5 3 -19z m-113 -41 c35 0 45 -8 29
-25 -10 -10 -16 -10 -32 1 -11 8 -27 14 -37 14 -26 0 -68 22 -68 36 0 9 11 7
40 -7 21 -10 52 -19 68 -19z m150 -28 c13 -16 29 -23 62 -25 25 -1 48 -6 53
-12 4 -6 14 -1 25 13 16 20 20 21 52 10 19 -7 36 -13 37 -13 1 0 4 -12 8 -27
7 -26 5 -27 -49 -33 -45 -6 -61 -13 -81 -36 l-24 -29 -33 20 c-18 11 -43 20
-55 20 -25 0 -89 33 -117 60 -17 17 -18 20 -3 34 8 9 18 16 21 16 3 0 16 8 27
19 56 49 54 48 57 26 2 -11 11 -30 20 -43z m415 -7 c11 -25 22 -45 27 -45 4 0
10 -18 13 -41 3 -23 15 -52 28 -65 l22 -24 -89 1 c-49 0 -98 4 -109 9 -11 5
-14 9 -7 9 23 2 12 36 -17 55 -21 14 -31 31 -35 58 -4 24 -12 38 -21 38 -8 0
-15 5 -15 10 0 6 13 10 29 10 17 0 33 -4 36 -10 7 -12 65 -13 81 -2 6 4 13 15
17 25 10 27 21 20 40 -28z m1202 35 c-8 -12 -81 -60 -92 -60 -4 0 8 16 27 35
30 31 81 51 65 25z m-1848 -28 c24 -6 57 -23 75 -41 18 -17 42 -37 52 -44 18
-13 17 -15 -14 -30 -37 -19 -54 -22 -45 -8 3 5 0 13 -6 16 -6 4 -8 18 -5 30 8
32 -44 71 -73 55 -32 -17 -41 -12 -41 23 0 18 4 27 8 20 4 -7 26 -16 49 -21z
m433 8 c0 -5 -4 -10 -10 -10 -5 0 -10 5 -10 10 0 6 5 10 10 10 6 0 10 -4 10
-10z m295 0 c3 -5 -1 -10 -9 -10 -8 0 -18 5 -21 10 -3 6 1 10 9 10 8 0 18 -4
21 -10z m1186 -29 c24 -12 26 -16 16 -46 l-10 -34 -66 6 c-77 6 -131 -13 -131
-48 0 -11 -7 -22 -16 -26 -11 -4 -14 -13 -10 -30 4 -13 2 -32 -4 -43 -13 -23
-40 -27 -40 -5 0 8 -4 15 -10 15 -5 0 -10 11 -10 25 0 21 -4 25 -27 24 -24 -2
-25 -2 -5 -6 12 -2 22 -10 22 -17 0 -24 25 -65 42 -70 13 -3 18 -14 18 -38 0
-19 6 -40 13 -47 10 -11 9 -13 -6 -8 -10 4 -28 1 -40 -7 -25 -15 -59 -14 -132
6 -64 16 -78 31 -73 69 5 30 -7 78 -25 107 -7 10 8 11 71 6 55 -5 81 -3 86 5
4 6 16 11 26 11 10 0 20 3 22 8 7 16 95 80 138 101 25 12 61 31 80 41 19 11
37 19 40 17 3 -1 17 -9 31 -16z m-1868 -60 c-6 -24 13 -61 31 -61 8 0 32 10
54 21 l40 22 26 -29 c14 -16 26 -34 26 -40 0 -6 7 -17 16 -25 12 -10 14 -23 9
-57 -9 -58 -24 -82 -52 -82 -13 0 -23 -6 -23 -14 0 -20 -58 -62 -95 -69 -16
-3 -47 -10 -68 -15 -30 -8 -39 -7 -43 3 -3 7 -22 32 -43 54 -31 34 -45 41 -74
41 -30 0 -37 4 -37 19 0 12 9 21 25 25 21 5 25 12 25 41 0 18 5 37 10 40 7 4
8 11 2 18 -11 14 -10 96 1 113 4 7 29 17 57 24 28 7 53 16 56 21 10 17 63 -29
57 -50z m-313 -11 c41 -33 85 -63 97 -66 45 -12 38 -64 -8 -64 -35 0 -36 -6
-7 -37 18 -20 19 -23 5 -23 -9 0 -17 -7 -17 -15 0 -13 -4 -14 -20 -5 -11 6
-20 18 -20 27 0 29 -49 83 -76 83 -28 0 -33 24 -8 38 26 15 10 58 -26 70 -16
6 -30 15 -30 19 0 10 21 33 30 33 3 0 39 -27 80 -60z m1394 29 c-18 -17 -35
-21 -108 -22 -47 -1 -86 1 -86 5 0 15 28 23 105 29 44 3 87 7 95 7 10 2 9 -4
-6 -19z m-1514 -10 c0 -5 16 -15 35 -23 40 -17 44 -34 12 -57 -30 -22 -49 -8
-65 47 -15 52 -15 55 3 48 8 -4 15 -10 15 -15z m1301 -28 c-6 -11 -11 -29 -11
-40 0 -12 -4 -21 -10 -21 -5 0 -10 7 -10 15 0 8 -9 15 -20 15 -22 0 -28 -26
-8 -32 7 -3 2 -7 -10 -10 -19 -5 -22 -2 -22 23 0 16 5 29 13 29 6 0 28 14 47
30 36 30 49 26 31 -9z m-1384 2 c3 -8 3 -17 0 -20 -9 -8 -59 26 -52 37 7 12
46 0 52 -17z m-331 -20 l34 -37 75 13 c91 15 161 7 176 -21 9 -16 5 -24 -21
-48 -19 -17 -38 -26 -50 -23 -10 3 -35 -7 -56 -21 -22 -15 -53 -26 -71 -26
-22 0 -33 -5 -33 -15 0 -29 -62 -45 -98 -25 -9 5 -39 14 -67 19 -40 7 -44 9
-17 10 39 1 41 15 5 35 -16 8 -21 15 -13 16 9 0 6 6 -10 18 l-25 17 35 5 c39
6 43 22 8 32 -22 6 -22 6 4 7 38 1 43 17 13 45 l-26 24 23 5 c62 12 80 7 114
-30z m1300 5 c16 -12 31 -23 34 -25 2 -2 -2 -8 -9 -12 -21 -13 -46 -2 -70 30
-21 28 -21 29 -3 29 11 0 32 -10 48 -22z m-915 2 c5 0 9 -11 9 -24 0 -17 9
-27 29 -36 16 -6 32 -18 35 -26 5 -12 2 -12 -16 -3 -69 37 -103 65 -100 82 2
12 9 16 19 13 8 -3 19 -6 24 -6z m829 -10 c6 -11 7 -20 2 -20 -5 0 -17 9 -27
20 -16 18 -16 20 -2 20 9 0 21 -9 27 -20z m1485 8 c30 -14 65 -78 65 -120 0
-29 -4 -32 -93 -67 -17 -7 -28 -18 -26 -29 8 -80 -25 -99 -91 -51 -22 16 -45
29 -51 29 -7 0 -9 17 -5 53 3 28 7 66 9 82 1 17 8 34 15 38 6 4 12 17 12 27 0
41 105 65 165 38z m-2430 -8 c3 -5 -3 -10 -15 -10 -12 0 -18 5 -15 10 3 6 10
10 15 10 5 0 12 -4 15 -10z m803 -20 c36 -22 59 -25 64 -9 2 6 20 2 48 -10
l45 -21 -45 0 c-98 0 -145 11 -157 36 -14 30 -1 32 45 4z m-648 -93 c21 -16
22 -19 5 -14 -11 3 -40 11 -65 18 -77 20 -76 19 -61 28 10 7 10 13 2 29 -6 11
-11 24 -11 27 0 6 65 -38 130 -88z m1780 47 c0 -8 4 -14 9 -14 5 0 11 -13 13
-30 6 -39 -18 -41 -25 -2 -3 15 -9 38 -13 51 -5 17 -4 22 4 17 7 -4 12 -14 12
-22z m-524 -39 c-7 -19 -56 -20 -56 -2 0 15 53 37 58 25 2 -5 1 -15 -2 -23z
m-1152 -6 c16 -18 26 -43 26 -62 0 -18 7 -41 16 -52 12 -16 18 -18 34 -7 11 6
37 12 57 11 37 -1 38 -1 11 -11 -38 -13 -36 -40 7 -82 40 -40 45 -76 18 -126
-17 -30 -20 -31 -67 -25 -33 4 -55 13 -64 26 -9 13 -25 19 -49 19 -39 0 -103
26 -103 43 0 5 -8 16 -17 23 -11 8 -13 13 -5 14 14 0 16 36 2 45 -5 3 -10 19
-10 35 0 16 -4 32 -10 35 -20 12 -9 33 24 49 34 16 76 63 76 85 0 21 28 11 54
-20z m754 1 c11 -18 10 -20 -12 -20 -14 0 -28 5 -32 11 -5 8 -29 10 -76 6 -70
-6 -98 -2 -98 14 0 5 46 9 103 9 91 0 104 -2 115 -20z m190 -2 c-10 -10 -18
-25 -18 -33 0 -8 -5 -15 -10 -15 -11 0 -120 60 -120 65 0 2 37 3 83 2 78 -2
81 -3 65 -19z m-1103 -32 l50 -14 -38 -7 c-22 -4 -36 -12 -34 -19 22 -60 21
-62 -19 -25 -22 20 -52 45 -67 57 -25 18 -26 22 -11 30 10 5 27 6 43 1 14 -5
49 -15 76 -23z m283 11 c3 -16 1 -17 -17 -5 -25 16 -27 31 -4 26 10 -2 19 -11
21 -21z m-436 -10 c-2 -9 3 -27 9 -39 18 -33 18 -59 0 -66 -23 -9 -41 -28 -41
-46 0 -8 25 -38 55 -67 30 -28 55 -55 55 -59 0 -4 -8 -10 -17 -14 -10 -3 -23
-8 -30 -12 -17 -8 -44 51 -29 66 8 9 5 16 -13 31 -27 22 -51 25 -51 7 -1 -16
-59 -87 -60 -73 0 6 11 30 25 54 14 23 25 45 25 47 0 12 -25 0 -66 -31 -55
-42 -84 -46 -84 -10 0 16 6 25 15 25 9 0 18 7 21 15 4 8 14 15 24 15 11 0 22
5 25 10 13 21 -6 27 -58 19 -29 -5 -73 -5 -97 0 -42 8 -43 9 -11 10 29 1 32 3
21 16 -19 22 -6 29 49 26 47 -2 81 15 81 40 0 5 15 9 33 9 18 0 48 11 67 24
38 27 57 28 52 3z m1012 17 c21 -8 22 -96 1 -114 -19 -16 -169 -10 -186 7 -10
10 -10 18 -1 35 6 13 12 32 14 43 2 15 13 21 48 26 66 9 106 10 124 3z m501
-40 c0 -11 -51 -14 -80 -6 -15 5 -10 8 20 13 47 7 60 6 60 -7z m1059 10 c9 -3
16 -11 16 -16 0 -6 8 -18 18 -27 11 -9 22 -32 26 -51 6 -35 6 -36 -39 -48 -77
-21 -153 -26 -170 -12 -12 10 -15 10 -15 -4 0 -13 -11 -16 -56 -16 -48 0 -61
4 -90 29 -28 25 -30 30 -16 36 31 13 64 11 86 -5 50 -38 106 -35 106 6 0 20 5
24 28 24 15 0 34 -6 41 -12 11 -11 12 -4 9 34 -3 46 0 52 39 67 1 1 8 -2 17
-5z m-1371 -46 c15 -15 15 -18 2 -18 -17 0 -55 35 -55 51 0 12 20 0 53 -33z
m-79 17 c4 -10 -3 -17 -22 -21 -72 -15 -69 -15 -50 16 15 24 63 27 72 5z m166
-20 c-7 -8 -17 -12 -23 -8 -6 4 -3 11 8 19 23 17 32 10 15 -11z m1220 -4 c0
-29 -1 -30 -30 -19 -40 13 -46 26 -18 37 39 16 48 13 48 -18z m-2131 5 c7 -8
8 -17 3 -19 -4 -3 -13 3 -20 14 -14 22 0 26 17 5z m1641 -1 c0 -17 -4 -18 -51
-8 -28 5 -30 7 -14 14 34 13 65 10 65 -6z m-62 -30 c20 -3 48 -8 62 -11 14 -3
40 -6 58 -9 63 -7 45 -15 -34 -15 -49 0 -97 6 -126 17 -41 14 -45 19 -37 35 9
16 12 17 25 4 8 -9 31 -18 52 -21z m713 -8 c4 -26 2 -37 -6 -37 -13 0 -25 30
-25 63 0 33 25 12 31 -26z m-2570 -1 c57 -38 90 -77 71 -84 -20 -6 -13 -25 23
-61 29 -29 43 -35 89 -39 34 -3 57 -10 60 -18 11 -27 -49 -16 -169 33 -43 18
-76 41 -117 85 -32 33 -58 61 -58 63 0 1 9 5 20 8 12 3 20 14 20 26 0 27 2 27
61 -13z m709 9 c7 -8 27 -17 46 -21 38 -7 36 -24 -2 -24 -39 0 -83 28 -84 53
0 13 27 8 40 -8z m345 -5 c3 -5 2 -10 -3 -10 -5 0 -25 -11 -45 -24 -43 -29
-77 -25 -77 10 0 14 5 22 13 19 6 -2 28 0 47 4 49 12 58 12 65 1z m-672 -6 c9
-10 -4 -34 -18 -34 -20 0 -30 21 -14 31 17 10 24 11 32 3z m805 -61 c-17 -21
-35 -15 -57 20 -18 29 -19 33 -3 38 23 8 74 -41 60 -58z m-450 17 l37 -6 -37
-23 c-20 -12 -39 -33 -43 -48 l-6 -26 -25 24 c-13 13 -31 35 -38 50 -12 25
-12 28 13 47 24 18 28 18 44 4 9 -8 34 -18 55 -22z m641 13 c11 -22 10 -23
-24 -23 l-35 0 22 25 c12 14 22 24 23 22 1 -1 8 -12 14 -24z m-462 -18 c-4
-37 -19 -53 -72 -81 -16 -9 -44 -32 -61 -51 -29 -31 -36 -34 -68 -28 -20 4
-36 12 -36 18 0 25 44 99 64 107 11 5 30 22 41 39 19 29 24 31 78 31 l57 0 -3
-35z m-496 12 c9 -7 19 -22 23 -33 7 -22 32 -34 159 -75 56 -18 67 -26 65 -42
-4 -23 -68 -50 -118 -49 -36 1 -148 8 -164 11 -4 0 -1 12 8 26 9 13 16 45 16
71 0 37 -4 47 -19 51 -24 6 -36 33 -16 33 8 0 15 5 15 10 0 13 11 12 31 -3z
m675 -34 c-3 -3 -12 -1 -20 6 -8 7 -26 9 -43 6 -27 -6 -26 -5 7 13 34 20 35
20 48 0 8 -10 11 -22 8 -25z m452 6 c-7 -5 -19 -9 -27 -9 -11 0 -11 3 -1 14 6
8 18 12 27 9 12 -5 12 -7 1 -14z m-947 1 c10 -6 19 -16 19 -22 0 -7 12 -24 26
-39 l26 -27 -43 10 c-24 6 -52 17 -61 25 -9 8 -21 12 -26 9 -11 -6 -62 15 -62
27 0 4 10 7 23 7 12 0 29 5 37 10 19 13 37 12 61 0z m777 -7 c-10 -2 -28 -2
-40 0 -13 2 -5 4 17 4 22 1 32 -1 23 -4z m42 -17 c0 -10 -12 -12 -47 -8 -61 6
-68 12 -15 12 23 0 42 5 42 11 0 5 5 7 10 4 6 -3 10 -12 10 -19z m1195 10 c18
-13 18 -14 -3 -21 -27 -8 -72 -48 -72 -64 0 -19 -70 -12 -103 11 -54 37 -52
42 36 64 102 26 119 27 142 10z m-756 -15 c54 -13 69 -19 52 -24 -17 -4 -21
-10 -16 -30 7 -27 -11 -37 -70 -40 -23 -2 -31 -7 -33 -25 -3 -21 -7 -23 -50
-16 -37 5 -191 82 -221 110 -10 9 14 18 81 29 105 18 173 17 257 -4z m-804 -7
c39 -3 74 -8 78 -11 5 -3 -6 -20 -24 -39 -30 -31 -38 -34 -91 -34 -38 0 -58 4
-58 12 0 6 -6 19 -14 27 -7 9 -17 26 -21 39 -6 22 -4 23 27 18 18 -3 65 -8
103 -12z m-135 -26 c0 -6 7 -19 16 -29 23 -25 9 -39 -37 -39 -25 0 -46 7 -58
19 -19 19 -19 19 10 31 15 7 33 18 40 26 12 15 29 10 29 -8z m280 12 c0 -5 -2
-10 -4 -10 -3 0 -8 5 -11 10 -3 6 -1 10 4 10 6 0 11 -4 11 -10z m1171 1 c-11
-7 -11 -15 -2 -42 l11 -32 -22 19 c-65 54 -65 62 -3 63 21 1 26 -2 16 -8z
m297 -20 c9 -17 33 -36 54 -45 47 -18 51 -49 10 -70 -24 -12 -28 -20 -24 -46
2 -17 13 -36 23 -44 18 -12 18 -13 -4 -24 -12 -6 -48 -12 -80 -14 -48 -3 -58
0 -63 15 -3 10 -17 23 -30 29 -13 6 -24 15 -24 19 0 15 -32 39 -51 39 -11 0
-27 -7 -35 -15 -9 -8 -22 -15 -31 -15 -13 0 -15 9 -10 51 5 39 2 59 -13 87
-18 32 -19 61 -2 37 4 -6 21 -20 39 -32 37 -26 123 -33 123 -10 0 14 37 50 61
60 28 11 40 6 57 -22z m-481 -13 c-14 -80 -21 -103 -33 -115 -27 -27 -44 -10
-25 26 5 9 6 23 1 30 -11 19 -40 6 -40 -18 0 -14 -8 -21 -27 -23 -30 -3 -29 1
-21 -108 3 -35 3 -35 -37 -34 -28 1 -43 8 -53 23 -8 11 -21 21 -28 21 -8 0
-14 6 -14 14 0 9 -16 17 -41 21 -35 6 -43 12 -55 42 -21 49 -15 68 21 69 56 3
75 14 75 44 0 36 6 37 159 39 l123 1 -5 -32z m111 -16 c30 -19 56 -41 59 -49
3 -7 11 -13 19 -13 8 0 14 -9 14 -20 0 -11 -4 -20 -10 -20 -5 0 -10 5 -10 10
0 6 -6 10 -13 10 -8 0 -19 11 -25 24 -7 15 -22 26 -44 30 -92 18 -88 17 -86
47 3 36 19 33 96 -19z m-861 25 c0 -9 -9 -12 -24 -9 -13 2 -29 -1 -37 -7 -10
-9 -15 -8 -19 3 -7 17 6 24 49 25 19 1 31 -4 31 -12z m103 -43 c36 -19 56 -33
45 -31 -11 3 -48 11 -83 17 -60 12 -62 14 -46 31 10 11 18 19 19 19 0 0 30
-16 65 -36z m-350 6 c-8 -5 -24 -9 -35 -9 -16 1 -16 2 5 9 35 11 48 11 30 0z
m-380 -20 c0 -5 -5 -10 -11 -10 -5 0 -7 5 -4 10 3 6 8 10 11 10 2 0 4 -4 4
-10z m1470 -8 c22 -5 39 -16 45 -30 5 -12 15 -22 22 -22 7 0 13 -4 13 -10 0
-5 7 -10 15 -10 8 0 15 -5 15 -11 0 -13 -41 -48 -57 -49 -18 0 -88 -50 -71
-50 9 0 27 9 41 20 14 11 32 20 40 20 8 0 20 7 27 15 7 8 25 15 41 15 15 0 35
7 43 16 18 17 47 16 53 -3 7 -19 -51 -44 -85 -37 -22 4 -42 -1 -71 -17 -23
-12 -41 -26 -41 -30 0 -3 -21 -9 -47 -12 -52 -6 -83 11 -83 44 0 10 -10 23
-22 30 -19 10 -19 13 -5 20 9 5 14 16 11 24 -4 8 -1 15 5 15 6 0 11 13 11 30
0 31 23 51 50 44 8 -2 31 -7 50 -12z m-166 -40 c-6 -27 -11 -32 -35 -32 -16 0
-29 5 -29 10 0 6 9 10 20 10 13 0 24 10 31 26 13 35 21 26 13 -14z m-924 14
c0 -10 -20 -16 -73 -21 -41 -4 -82 -5 -93 -2 -12 3 -8 5 12 6 18 0 45 8 60 16
38 19 94 20 94 1z m-1073 -32 c21 -23 27 -26 63 -28 8 -1 21 -21 30 -46 11
-30 25 -49 43 -58 26 -13 37 -32 18 -32 -21 0 -72 -59 -82 -93 -7 -25 -14 -34
-24 -31 -8 4 -17 -1 -21 -9 -3 -9 -12 -13 -20 -10 -13 5 -13 8 -1 27 26 39 0
61 -35 29 -10 -9 -18 -12 -18 -6 0 5 9 18 20 28 38 35 17 61 -24 30 -25 -19
-60 -19 -76 0 -10 12 -10 15 3 15 15 0 27 20 27 47 0 11 -6 14 -21 10 -19 -5
-20 -4 -5 12 21 23 20 34 -3 28 -10 -2 -25 -1 -32 4 -10 6 -8 9 8 9 34 0 35
14 3 45 -29 27 -32 58 -4 34 11 -9 18 -8 32 3 39 34 82 31 119 -8z m33 26 c19
-6 69 -15 110 -20 41 -5 97 -18 123 -30 48 -21 48 -22 32 -46 -15 -23 -14 -25
9 -35 13 -6 23 -17 20 -23 -4 -14 16 -40 38 -49 17 -6 53 -65 45 -73 -7 -8
-246 -10 -241 -3 2 4 -9 10 -26 14 -29 6 -52 25 -31 25 6 0 11 7 11 16 0 9 6
14 13 11 6 -2 11 -15 9 -28 -2 -19 0 -21 8 -9 5 8 7 22 4 32 -2 9 0 19 6 23
16 10 12 46 -6 60 -20 14 -28 76 -10 69 7 -3 21 4 31 16 10 11 13 20 8 20 -6
0 -14 -7 -17 -15 -3 -9 -14 -15 -23 -13 -25 4 -24 -50 2 -81 l20 -24 -22 12
c-27 14 -35 26 -48 71 -7 24 -17 35 -30 36 -37 2 -63 16 -68 35 -3 10 -4 19
-3 19 0 0 17 -5 36 -10z m819 -9 c-18 -15 -27 -16 -41 -7 -29 17 -21 26 23 26
l41 0 -23 -19z m528 -54 c3 -5 -23 6 -58 23 -44 23 -58 34 -49 40 13 8 92 -39
107 -63z m156 47 c42 -4 77 -11 77 -15 0 -5 -12 -9 -27 -9 -25 0 -63 -24 -63
-40 0 -5 12 -11 26 -14 22 -6 24 -9 12 -23 -11 -14 -11 -15 2 -11 23 7 24 35
1 43 -35 11 -12 32 41 38 27 4 56 11 63 17 10 8 14 4 19 -15 4 -14 11 -25 17
-25 6 0 8 -4 4 -9 -3 -5 -1 -12 4 -15 5 -3 7 -15 4 -26 -4 -17 0 -20 26 -20
23 0 29 -4 24 -15 -4 -13 -15 -14 -52 -9 -25 4 -50 13 -54 20 -11 18 -47 18
-47 0 0 -10 -7 -12 -22 -8 -28 7 -208 133 -208 145 0 5 17 7 38 4 20 -3 72 -9
115 -13z m-770 -11 l32 -17 -45 -13 c-78 -24 -169 -27 -233 -8 -32 9 -56 19
-54 21 6 6 189 32 235 33 18 1 47 -7 65 -16z m-371 -27 c10 -6 18 -15 18 -19
0 -5 37 -43 81 -85 l82 -77 -43 -12 c-98 -29 -104 -28 -125 11 -11 20 -22 36
-26 36 -3 0 -17 9 -30 20 l-23 21 29 23 c33 27 18 47 -18 23 -33 -21 -50 -11
-31 18 16 25 15 27 -36 52 -22 11 -16 12 40 7 35 -4 72 -11 82 -18z m949 -31
c63 -30 105 -54 94 -55 -10 0 -68 5 -127 12 l-108 12 0 43 c0 30 4 43 14 43 7
0 64 -25 127 -55z m-348 29 c67 -6 77 -9 77 -26 0 -18 -5 -19 -52 -13 -58 7
-158 33 -158 40 0 7 43 6 133 -1z m-68 -59 c22 -9 57 -20 78 -23 21 -2 36 -6
34 -8 -15 -15 -234 -65 -322 -74 l-109 -11 -58 58 -58 58 119 2 c88 2 130 7
166 21 51 20 56 19 150 -23z m883 -14 c28 -30 39 -35 80 -35 l47 -1 0 42 0 42
38 -1 c21 0 48 -8 60 -18 18 -15 19 -20 8 -34 -30 -35 -74 -47 -172 -44 -91 3
-94 4 -91 26 3 19 -1 22 -30 22 -24 0 -29 3 -19 9 13 8 13 12 1 26 -28 34 43
3 78 -34z m647 -8 c4 -19 0 -32 -16 -49 -16 -17 -24 -40 -27 -79 l-4 -55 33 6
34 7 -25 -20 c-14 -11 -36 -26 -49 -33 -23 -12 -23 -11 -17 14 12 48 -5 138
-31 162 l-24 22 41 23 c22 12 40 26 40 30 0 19 39 -6 45 -28z m-2099 12 c-11
-8 -22 -12 -25 -9 -6 6 19 24 34 24 6 -1 1 -7 -9 -15z m1940 8 c-4 -4 -27 -15
-51 -24 -50 -19 -51 -6 -2 15 35 16 65 20 53 9z m-656 -27 c0 -3 -4 -8 -10
-11 -5 -3 -10 -1 -10 4 0 6 5 11 10 11 6 0 10 -2 10 -4z m-197 -43 c56 -4 108
-7 114 -7 7 1 11 -2 8 -6 -3 -5 4 -11 15 -15 13 -4 20 -16 21 -33 1 -27 1 -27
8 3 5 25 3 31 -14 37 -11 4 5 4 35 1 30 -3 62 -11 70 -18 30 -25 146 -78 200
-91 30 -7 90 -13 132 -14 47 0 80 -4 84 -12 5 -8 -14 -10 -77 -5 -124 9 -216
33 -316 83 -48 24 -92 44 -98 43 -5 0 0 -4 13 -9 15 -6 22 -18 23 -37 1 -23 3
-24 6 -6 5 26 32 21 28 -5 -1 -9 0 -11 2 -4 3 8 10 11 16 9 138 -59 254 -87
358 -87 42 0 48 -2 42 -17 -3 -10 -3 -15 2 -11 10 10 37 -11 29 -23 -8 -14
-82 -10 -149 7 -33 8 -120 24 -194 34 -73 11 -147 24 -165 29 -17 5 -58 12
-91 16 -33 3 -115 24 -183 46 -68 21 -132 39 -142 39 -17 0 -20 7 -20 44 l0
44 70 -14 c39 -7 117 -17 173 -21z m1170 25 c31 -15 33 -25 11 -56 -17 -24
-11 -44 13 -40 8 2 22 -7 30 -19 14 -21 14 -23 -5 -23 -31 0 -35 -16 -10 -35
l23 -17 -27 6 c-31 7 -44 -6 -23 -24 8 -7 15 -19 15 -26 0 -19 -27 -18 -34 2
-5 14 -9 14 -22 3 -16 -13 -39 -58 -36 -71 3 -11 -10 -10 -28 2 -15 9 -21 33
-20 80 0 14 -5 38 -11 53 -10 24 -17 28 -42 24 l-29 -4 5 48 c9 70 50 109 115
109 27 0 60 -6 75 -12z m-248 -63 c12 -58 14 -93 7 -125 -7 -33 -10 -35 -72
-46 -104 -20 -129 -18 -154 13 -13 17 -22 43 -22 68 -1 22 -4 57 -7 78 l-5 37
61 0 c40 1 74 7 97 19 33 18 35 18 62 -2 16 -12 31 -30 33 -42z m-259 -28 c6
-24 9 -48 6 -55 -5 -15 -134 -16 -199 -1 -27 6 -83 28 -127 48 l-78 36 188 5
c104 3 192 7 195 8 3 1 10 -17 15 -41z m-1734 -82 c-4 -24 -5 -24 -18 -8 -18
25 -17 33 5 33 14 0 17 -6 13 -25z"/>
<path d="M2196 3625 c-11 -8 -15 -15 -9 -15 6 0 16 7 23 15 16 19 11 19 -14 0z"/>
</g>
</svg>
