<?xml version="1.0" encoding="UTF-8" standalone="no"?>
<svg
   xmlns:dc="http://purl.org/dc/elements/1.1/"
   xmlns:cc="http://creativecommons.org/ns#"
   xmlns:rdf="http://www.w3.org/1999/02/22-rdf-syntax-ns#"
   xmlns:svg="http://www.w3.org/2000/svg"
   xmlns="http://www.w3.org/2000/svg"
   xmlns:xlink="http://www.w3.org/1999/xlink"
   xmlns:sodipodi="http://sodipodi.sourceforge.net/DTD/sodipodi-0.dtd"
   xmlns:inkscape="http://www.inkscape.org/namespaces/inkscape"
   version="1.0"
   width="300"
   height="200"
   preserveAspectRatio="xMidYMid meet"
   id="svg2478"
   sodipodi:version="0.32"
   inkscape:version="0.46"
   sodipodi:docname="pf10.svg"
   inkscape:output_extension="org.inkscape.output.svg.inkscape"
   inkscape:export-filename="D:\Documents\rodolfo\faculdade\Bolsa2\arvores\arvores ana\convertidos vetor\ideia nova\cor,agrupado,tronco e copa\novoPf10.png"
   inkscape:export-xdpi="90"
   inkscape:export-ydpi="90">
  <defs
     id="defs2487">
    <inkscape:perspective
       sodipodi:type="inkscape:persp3d"
       inkscape:vp_x="0 : 185.625 : 1"
       inkscape:vp_y="0 : 1000 : 0"
       inkscape:vp_z="586.25 : 185.625 : 1"
       inkscape:persp3d-origin="293.125 : 123.75 : 1"
       id="perspective2489" />
    <inkscape:perspective
       sodipodi:type="inkscape:persp3d"
       inkscape:vp_x="0 : 450 : 1"
       inkscape:vp_y="0 : 1000 : 0"
       inkscape:vp_z="310 : 450 : 1"
       inkscape:persp3d-origin="155 : 270 : 1"
       id="perspective5850" />
    <radialGradient
       r="191.62799"
       fy="146.02631"
       fx="192.00943"
       cy="146.02631"
       cx="192.00943"
       gradientTransform="matrix(1,0,0,0.7512998,0,36.316769)"
       gradientUnits="userSpaceOnUse"
       id="radialGradient2430"
       xlink:href="#linearGradient29444"
       inkscape:collect="always" />
    <radialGradient
       r="191.62799"
       fy="146.02631"
       fx="192.00943"
       cy="146.02631"
       cx="192.00943"
       gradientTransform="matrix(1,0,0,0.7512998,0,36.316769)"
       gradientUnits="userSpaceOnUse"
       id="radialGradient2414"
       xlink:href="#linearGradient29444"
       inkscape:collect="always" />
    <radialGradient
       r="191.62799"
       fy="146.02631"
       fx="192.00943"
       cy="146.02631"
       cx="192.00943"
       gradientTransform="matrix(1,0,0,0.7512998,0,36.316769)"
       gradientUnits="userSpaceOnUse"
       id="radialGradient2528"
       xlink:href="#linearGradient29444"
       inkscape:collect="always" />
    <radialGradient
       r="191.62799"
       fy="146.02631"
       fx="192.00943"
       cy="146.02631"
       cx="192.00943"
       gradientTransform="matrix(1,0,0,0.7512998,0,36.316769)"
       gradientUnits="userSpaceOnUse"
       id="radialGradient2519"
       xlink:href="#linearGradient29444"
       inkscape:collect="always" />
    <radialGradient
       r="191.62799"
       fy="146.02631"
       fx="192.00943"
       cy="146.02631"
       cx="192.00943"
       gradientTransform="matrix(1,0,0,0.7512998,0,36.316769)"
       gradientUnits="userSpaceOnUse"
       id="radialGradient29617"
       xlink:href="#linearGradient29444"
       inkscape:collect="always" />
    <radialGradient
       gradientUnits="userSpaceOnUse"
       gradientTransform="matrix(1,0,0,0.7512998,0,36.316769)"
       r="191.62799"
       fy="146.02631"
       fx="192.00943"
       cy="146.02631"
       cx="192.00943"
       id="radialGradient29452"
       xlink:href="#linearGradient29444"
       inkscape:collect="always" />
    <inkscape:perspective
       id="perspective28801"
       inkscape:persp3d-origin="191.875 : 270 : 1"
       inkscape:vp_z="383.75 : 405 : 1"
       inkscape:vp_y="0 : 1000 : 0"
       inkscape:vp_x="0 : 405 : 1"
       sodipodi:type="inkscape:persp3d" />
    <linearGradient
       id="linearGradient29444"
       inkscape:collect="always">
      <stop
         id="stop29446"
         offset="0"
         style="stop-color:#00b819;stop-opacity:1;" />
      <stop
         id="stop29448"
         offset="1"
         style="stop-color:#00b819;stop-opacity:0;" />
    </linearGradient>
    <inkscape:perspective
       sodipodi:type="inkscape:persp3d"
       inkscape:vp_x="0 : 450 : 1"
       inkscape:vp_y="0 : 1000 : 0"
       inkscape:vp_z="310 : 450 : 1"
       inkscape:persp3d-origin="155 : 270 : 1"
       id="perspective3256" />
    <radialGradient
       r="191.62799"
       fy="146.02631"
       fx="192.00943"
       cy="146.02631"
       cx="192.00943"
       gradientTransform="matrix(1,0,0,0.7512998,0,36.316769)"
       gradientUnits="userSpaceOnUse"
       id="radialGradient3254"
       xlink:href="#linearGradient29444"
       inkscape:collect="always" />
    <radialGradient
       r="191.62799"
       fy="146.02631"
       fx="192.00943"
       cy="146.02631"
       cx="192.00943"
       gradientTransform="matrix(1,0,0,0.7512998,0,36.316769)"
       gradientUnits="userSpaceOnUse"
       id="radialGradient3252"
       xlink:href="#linearGradient29444"
       inkscape:collect="always" />
    <radialGradient
       r="191.62799"
       fy="146.02631"
       fx="192.00943"
       cy="146.02631"
       cx="192.00943"
       gradientTransform="matrix(1,0,0,0.7512998,0,36.316769)"
       gradientUnits="userSpaceOnUse"
       id="radialGradient3250"
       xlink:href="#linearGradient29444"
       inkscape:collect="always" />
    <radialGradient
       r="191.62799"
       fy="146.02631"
       fx="192.00943"
       cy="146.02631"
       cx="192.00943"
       gradientTransform="matrix(1,0,0,0.7512998,0,36.316769)"
       gradientUnits="userSpaceOnUse"
       id="radialGradient3248"
       xlink:href="#linearGradient29444"
       inkscape:collect="always" />
    <radialGradient
       gradientUnits="userSpaceOnUse"
       gradientTransform="matrix(1,0,0,0.7512998,0,36.316769)"
       r="191.62799"
       fy="146.02631"
       fx="192.00943"
       cy="146.02631"
       cx="192.00943"
       id="radialGradient3246"
       xlink:href="#linearGradient29444"
       inkscape:collect="always" />
    <inkscape:perspective
       id="perspective3244"
       inkscape:persp3d-origin="191.875 : 270 : 1"
       inkscape:vp_z="383.75 : 405 : 1"
       inkscape:vp_y="0 : 1000 : 0"
       inkscape:vp_x="0 : 405 : 1"
       sodipodi:type="inkscape:persp3d" />
    <filter
       inkscape:collect="always"
       id="filter3299">
      <feGaussianBlur
         inkscape:collect="always"
         stdDeviation="0.77126636"
         id="feGaussianBlur3301" />
    </filter>
    <filter
       inkscape:collect="always"
       id="filter3513">
      <feGaussianBlur
         inkscape:collect="always"
         stdDeviation="0.16847625"
         id="feGaussianBlur3515" />
    </filter>
    <inkscape:perspective
       sodipodi:type="inkscape:persp3d"
       inkscape:vp_x="0 : 450 : 1"
       inkscape:vp_y="0 : 1000 : 0"
       inkscape:vp_z="310 : 450 : 1"
       inkscape:persp3d-origin="155 : 270 : 1"
       id="perspective4063" />
    <radialGradient
       r="191.62799"
       fy="146.02631"
       fx="192.00943"
       cy="146.02631"
       cx="192.00943"
       gradientTransform="matrix(1,0,0,0.7512998,0,36.316769)"
       gradientUnits="userSpaceOnUse"
       id="radialGradient4061"
       xlink:href="#linearGradient29444"
       inkscape:collect="always" />
    <radialGradient
       r="191.62799"
       fy="146.02631"
       fx="192.00943"
       cy="146.02631"
       cx="192.00943"
       gradientTransform="matrix(1,0,0,0.7512998,0,36.316769)"
       gradientUnits="userSpaceOnUse"
       id="radialGradient4059"
       xlink:href="#linearGradient29444"
       inkscape:collect="always" />
    <radialGradient
       r="191.62799"
       fy="146.02631"
       fx="192.00943"
       cy="146.02631"
       cx="192.00943"
       gradientTransform="matrix(1,0,0,0.7512998,0,36.316769)"
       gradientUnits="userSpaceOnUse"
       id="radialGradient4057"
       xlink:href="#linearGradient29444"
       inkscape:collect="always" />
    <radialGradient
       r="191.62799"
       fy="146.02631"
       fx="192.00943"
       cy="146.02631"
       cx="192.00943"
       gradientTransform="matrix(1,0,0,0.7512998,0,36.316769)"
       gradientUnits="userSpaceOnUse"
       id="radialGradient4055"
       xlink:href="#linearGradient29444"
       inkscape:collect="always" />
    <radialGradient
       gradientUnits="userSpaceOnUse"
       gradientTransform="matrix(1,0,0,0.7512998,0,36.316769)"
       r="191.62799"
       fy="146.02631"
       fx="192.00943"
       cy="146.02631"
       cx="192.00943"
       id="radialGradient4053"
       xlink:href="#linearGradient29444"
       inkscape:collect="always" />
    <inkscape:perspective
       id="perspective4051"
       inkscape:persp3d-origin="191.875 : 270 : 1"
       inkscape:vp_z="383.75 : 405 : 1"
       inkscape:vp_y="0 : 1000 : 0"
       inkscape:vp_x="0 : 405 : 1"
       sodipodi:type="inkscape:persp3d" />
  </defs>
  <sodipodi:namedview
     inkscape:window-height="753"
     inkscape:window-width="1280"
     inkscape:pageshadow="2"
     inkscape:pageopacity="0.0"
     guidetolerance="10.0"
     gridtolerance="10.0"
     objecttolerance="10.0"
     borderopacity="1.0"
     bordercolor="#666666"
     pagecolor="#ffffff"
     id="base"
     showgrid="false"
     inkscape:zoom="9.2084952"
     inkscape:cx="20.538254"
     inkscape:cy="184.05665"
     inkscape:window-x="-4"
     inkscape:window-y="-4"
     inkscape:current-layer="svg2478"
     borderlayer="true"
     showguides="true"
     inkscape:guide-bbox="true" />
  <metadata
     id="metadata2480">
Created by potrace 1.8, written by Peter Selinger 2001-2007
<rdf:RDF>
  <cc:Work
     rdf:about="">
    <dc:format>image/svg+xml</dc:format>
    <dc:type
       rdf:resource="http://purl.org/dc/dcmitype/StillImage" />
  </cc:Work>
</rdf:RDF>
</metadata>
  <g
     id="PF10">
    <g
       id="agrupamentoPF10">
      <g
         id="agrupamentoTroncoPF10">
        <path
           style="fill:none;fill-rule:evenodd;stroke:#000000;stroke-width:0.50984669px;stroke-linecap:butt;stroke-linejoin:miter;stroke-opacity:1"
           d="M 2.1893209,3.585147 C 2.4772759,4.046851 2.6936499,5.697761 2.6936499,6.232288 C 3.1178729,6.912484 3.5081859,6.800831 4.5215289,6.794616 C 4.5724909,6.794303 4.6250309,6.794251 4.6792279,6.794592 C 5.6905449,6.800956 6.2932679,6.93272 6.5242839,5.896968 C 6.7515669,4.877952 6.2655089,4.448691 6.5930869,3.558051 C 7.2928469,1.655514 9.5867379,0.36301294 8.4074629,0.35705894 C 6.0731509,-0.075325055 2.7505379,0.49068794 0.33674969,0.35705994 C -0.14464991,0.61418594 1.6315369,2.697596 2.1893209,3.585147 z"
           id="troncoPF10"
           sodipodi:nodetypes="ccsszsccc" />
        <path
           style="opacity:0.93089432;fill:#5b2e08;fill-opacity:1;stroke:none;filter:url(#filter3513)"
           d="M 11.844186,31.530313 C 11.683869,31.387072 11.668808,31.341183 11.622662,30.855356 C 11.563433,30.23179 11.376372,29.265945 11.255191,28.958 C 11.207193,28.836025 10.879175,28.314723 10.526264,27.79955 C 9.9054959,26.893363 9.4799189,26.212824 9.4799189,26.126338 C 9.4799189,26.065522 12.155583,25.944921 14.108209,25.917725 C 15.317127,25.900887 15.911877,25.914253 16.227592,25.965356 L 16.666464,26.036392 L 16.271743,26.484304 C 15.463882,27.401023 14.982201,28.132103 14.768846,28.765349 C 14.657301,29.096425 14.651481,29.184951 14.687463,30.003497 C 14.731455,31.004234 14.686497,31.279491 14.438571,31.527418 L 14.281983,31.684007 L 13.14909,31.684007 L 12.016198,31.684007 L 11.844186,31.530313 z"
           id="preenchimentoTroncoPF10"
           transform="matrix(1.0787134,0,0,1.038589,-9.6034867,-26.389999)" />
      </g>
      <g
         id="agrupamentoCopaPF10">
        <g
           transform="matrix(3.2230859e-2,0,0,-4.7298576e-2,1.2117756e-2,26.761948)"
           id="copaPF10"
           style="fill:#000000;stroke:none">
          <path
             d="M 279.36397,533.73624 C 260.36397,523.73624 271.55707,494.42773 263.55707,485.42773 C 256.55707,476.42773 247.55707,473.42773 244.55707,478.42773 C 233.55707,493.42773 201.63603,518.45068 188.63603,518.45068 C 184.90208,518.45068 171.54846,502.49798 178.12955,489.62168 C 153.21253,497.00722 130.38463,499.78473 120.76027,491.22876 C 115.8172,486.8344 138.17989,476.36811 132.54272,472.21733 C 114.41113,458.86662 83.55707,451.62896 83.55707,444.42773 C 83.55707,436.42773 90.55707,430.42773 99.55707,430.42773 C 113.55707,430.42773 113.55707,428.42773 98.55707,414.42773 C 87.55707,402.42773 85.55707,394.42773 93.55707,385.42773 C 101.55707,375.42773 100.55707,370.42773 86.55707,366.42773 L 29.510482,332.11388 L 61.39913,287.60198 L 52.92103,289.97705 C 44.381995,281.29329 9.3631405,273.28081 7.324993,262.18388 C 4.3970295,246.24226 37.630314,227.57527 45.498269,222.18303 C 38.45073,218.76778 6.1539039,211.14386 0.7580413,194.08125 C -5.5925506,173.99964 16.278951,144.13897 27.92103,140.97705 C 43.92103,130.97705 50.173051,130.18131 57.780948,140.02534 C 60.5284,143.58033 77.287388,138.80584 65.780948,136.15836 C 38.39803,129.85789 28.388845,123.11246 3.3888453,123.11246 C -8.3819491,123.11246 28.054656,103.75549 30.612314,85.334288 C 32.183137,74.020639 -2.576061,64.125582 0.4678151,56.135407 C 5.4678151,44.135407 11.687135,46.935594 28.467815,46.135407 C 97.823553,42.828179 95.814027,12.761433 150.23994,9.8558569 C 403.88596,-3.6852613 578.20341,1.1738557 753.37933,13.650297 C 788.68828,16.165084 831.89525,36.757374 862.46782,52.903736 C 909.87126,61.162925 918.01475,100.7191 914.21254,107.69039 C 909.0333,117.18645 902.42834,109.01381 884.42834,104.60327 C 862.42834,111.60327 878.43159,103.97705 861,111 C 856,127 920.62901,138.28899 913.62901,138.28899 C 904.62901,138.28899 896.80532,149.84403 907.80532,156.84403 C 915.80532,161.84403 900.55004,173.97705 896.55004,177.97705 C 892.55004,181.97705 914.80532,190.84403 922.80532,202.84403 C 936.80532,223.84403 935.80532,226.84403 909.80532,244.84403 C 894.80532,255.84403 873.80532,265.84403 862.80532,267.84403 C 856.93399,269.10217 861.60537,288.21071 852.18374,291.96048 C 838.70577,297.32466 811.39685,288.26746 810.80357,295.24868 C 809.83377,306.66041 844.05648,317.43097 856.80532,321.84403 C 872.80532,326.84403 875.80532,334.84403 873.80532,364.84403 C 871.80532,394.84403 877.84481,348.38079 852.84481,360.38079 C 816.84481,377.38079 814.84481,383.38079 836.84481,405.38079 C 851.84481,419.38079 822.33982,408.65255 808.33982,437.65255 C 804.12178,446.08863 838.75814,462.50097 836.78378,472.55921 C 834.88029,482.25646 796.16777,478.33251 782.37957,483.6817 C 774.49794,486.73941 789.65851,500.15798 786.86788,502.36845 C 771.99301,514.15089 741.88575,500.75641 720.33982,499.65255 C 701.33667,498.67896 683.33982,501.65255 679.33982,507.65255 C 676.33982,513.65255 660.33982,518.65255 644.33982,520.65255 C 634.68491,521.29621 621.00236,516.26858 591.65882,522.02622 C 575.41385,525.21372 567.24853,555.82558 562.25979,556.8946 C 548.25979,560.8946 521.94791,525.96906 498.94791,529.96906 C 462.94791,534.96906 443.03948,553.53676 443.03948,539.53676 C 443.03948,526.53676 438.03948,523.53676 421.03948,529.53676 C 408.03948,532.53676 364.96052,554.51381 355.96052,561.51381 C 336.96052,578.51381 288.32679,549.47705 279.36397,533.73624 z M 363.96052,545.51381 C 394.96052,521.51381 439.03948,508.53676 451.03948,529.53676 C 459.03948,543.53676 469.88354,526.38879 500.88354,519.38879 C 517.29839,515.98193 539.76802,551.43211 555.91612,543.04217 C 563.55674,539.07239 559.02137,512.83535 574.65559,510.36778 C 603.28328,505.84945 627.24818,512.99607 639.33982,511.65255 C 651.33982,510.65255 665.33982,503.65255 670.33982,496.65255 C 675.33982,488.65255 691.33982,485.65255 714.33982,487.65255 C 735.33982,489.65255 766.09231,497.33147 766.09231,493.33147 C 766.09231,488.33147 757.33982,474.65255 765.33982,474.65255 C 769.91136,474.65255 805.11973,477.31545 814.295,470.56336 C 821.17606,465.49959 805.34623,452.49351 795.33982,443.65255 C 809.33982,415.65255 838.84481,425.38079 825.84481,407.38079 C 804.84481,377.38079 806.84481,371.38079 841.84481,356.38079 C 866.84481,345.38079 860.80532,392.84403 862.80532,366.84403 C 864.80532,341.84403 860.80532,332.84403 846.80532,329.84403 C 832.58726,326.08043 795.81809,310.1323 796.89349,295.83491 C 797.74467,284.51845 815.73766,283.92346 842.56924,281.42533 C 857.71195,280.01548 855.77538,256.84403 864.80532,256.84403 C 872.80532,256.84403 889.80532,249.84403 902.80532,240.84403 C 925.80532,225.84403 925.80532,223.84403 910.80532,200.84403 C 902.80532,187.84403 879.24609,176.84403 883.24609,176.84403 C 887.24609,176.84403 904.69477,169.88467 897.80532,161.84403 C 892.53889,155.69761 900.73106,146.13434 894.55112,140.6353 C 888.74486,135.46876 868.66743,134.25526 863.99081,130.57799 C 854.73554,123.30047 850,120 850,110 C 850,88 861.46782,103.03676 897.46782,94.036758 C 892.30988,82.892262 909.87126,87.184731 862.46782,68.036758 C 831.02961,52.782895 784.19477,33.989039 736.71006,24.791003 C 634.60328,5.0123872 274.47425,19.117376 176.11173,21.181439 C 144.96872,21.834951 29.112643,61.296614 24.467815,60.135407 C 16.467815,58.135407 25.115197,57.857889 25.115197,65.857889 C 25.115197,69.607859 52.498211,81.087858 50.478591,87.717795 C 48.322861,94.794544 22.062241,109.03771 25.133442,113.94509 C 30.694202,122.83047 31.974921,114.55285 46.388845,125.11246 C 70.388845,134.11246 88.820438,126.00239 73.780953,134.15836 C 71.780953,145.15836 68.780948,152.15836 65.780948,150.15836 C 62.780948,148.15836 54.92103,135.97705 38.92103,144.97705 C 24.552354,152.30801 8.6135903,174.1627 14.796297,189.41433 C 21.018287,204.76285 49.444277,213.50047 61.030451,218.27895 C 56.014623,230.47058 18.594385,246.28291 19.454428,259.99285 C 20.204752,271.95377 57.878193,281.70144 70.92103,293.97705 C 69.685064,303.36449 74.131306,282.65398 76.263543,290.34085 C 79.165792,300.80367 38.732835,321.09084 44.016716,329.71634 C 58.262159,352.97085 131.75689,355.18939 103.55707,385.42773 C 96.55707,394.42773 105.38076,400.57223 117.38076,410.57223 C 127.82581,434.05798 119.72805,433.23327 98.666013,442.08763 C 79.952214,449.9548 144.47788,457.14306 146.83382,463.62955 C 152.63496,471.3644 133.77302,483.30036 140.58438,490.63714 C 145.14021,495.54439 172.65658,472.81875 182.00069,475.69734 C 194.80926,479.6432 189.68145,508.30304 192.54789,508.45068 C 199.49639,508.80858 192.55707,507.42773 213.55707,490.42773 C 247.55707,463.42773 252.63671,462.39876 264.55707,476.42773 C 269.94675,482.7708 288.89104,535.29065 315.8296,544.40321 C 339.62247,552.45168 343.16696,549.4038 349.30394,550.11475 C 351.26391,550.3418 349.96052,556.51381 363.96052,545.51381 z"
             id="path2484"
             sodipodi:nodetypes="cccscssssccccccscscsssscssscsccssssccsscssccssssscsccsccccscsscssssscccscsssccsssssccssssssccscscscssccscssscsssc" />
        </g>
        <path
           style="opacity:0.93089432;fill:#339900;fill-opacity:1;stroke:none;filter:url(#filter3299)"
           d="M 12.093636,25.23541 C 9.1469466,25.143947 5.8499407,25.00843 5.3375819,24.957715 C 4.6001725,24.884722 4.4127257,24.814824 1.3433445,23.468233 C 0.55815128,23.123754 0.56103408,23.132602 1.0592166,22.596441 C 1.238468,22.403525 1.410496,22.19001 1.4414995,22.121965 C 1.5123768,21.966411 1.4337686,21.805924 1.0543844,21.33162 C 0.90115168,21.140049 0.76004008,20.933718 0.74080288,20.873107 C 0.70309228,20.754291 0.84664578,20.550407 0.96801448,20.550407 C 1.0064496,20.550407 1.1119647,20.488082 1.2024941,20.411907 C 1.4174362,20.231046 1.6677137,20.130888 2.0243521,20.083011 C 2.3234944,20.042854 2.3682224,20.003131 2.2369619,19.894194 C 2.1948004,19.859204 2.1431024,19.715864 2.1220779,19.575665 C 2.1010555,19.435466 2.0602191,19.258597 2.0313342,19.182624 L 1.9788174,19.044492 L 1.7743027,19.238578 C 1.4999179,19.498975 1.4163194,19.519086 1.203752,19.375837 C 0.63733028,18.994127 0.23694308,17.888107 0.44116745,17.269301 C 0.53396138,16.988135 0.91439628,16.590184 1.366973,16.30087 C 1.5694359,16.171444 1.7442601,16.059228 1.755476,16.0515 C 1.8318984,15.998833 1.6454561,15.705915 1.2340959,15.232365 C 0.70211918,14.619961 0.52348047,14.297041 0.57838798,14.047049 C 0.61631458,13.874367 0.90247018,13.576739 1.3493932,13.24513 C 1.5009146,13.132704 1.7277393,12.942516 1.8534486,12.822489 C 2.073958,12.611947 2.0833716,12.608547 2.1206409,12.725972 C 2.1466144,12.807805 2.177479,12.829476 2.2148431,12.792112 C 2.3137028,12.693252 2.1577686,12.367667 1.7341429,11.78843 C 1.5102621,11.482309 1.3122314,11.185047 1.2940763,11.127845 C 1.2134047,10.87367 1.5101431,10.557912 2.3808119,9.9714605 C 2.7182434,9.7441785 3.0413366,9.4940875 3.0987968,9.4157035 C 3.275528,9.1746155 3.2806142,8.8830965 3.1149567,8.4895115 C 2.9448544,8.0853635 2.9627923,7.9783295 3.2730017,7.5465412 C 3.4939706,7.2389694 3.5801548,6.9677836 3.5805824,6.5787213 C 3.5809213,6.2690739 3.5413103,6.2162733 3.071227,5.8997771 C 2.9272817,5.8028619 2.8095083,5.698662 2.8095083,5.6682216 C 2.8095083,5.6112722 3.2069874,5.4156068 3.8839326,5.13932 C 4.4135489,4.9231629 4.4589893,4.8225031 4.2717888,4.2801337 C 4.1160628,3.8289565 4.0958267,3.6351122 4.2044499,3.6351122 C 4.2443656,3.6351122 4.478794,3.7856335 4.7254024,3.9696036 C 5.4402307,4.5028663 5.622512,4.3925031 5.664635,3.4009428 C 5.677187,3.1054761 5.7057292,2.8637306 5.7280629,2.8637306 C 5.7503961,2.8637306 5.8806593,3.0310929 6.0175354,3.2356468 C 6.3325566,3.7064314 7.0479309,4.5214456 7.2331358,4.6205643 C 7.428778,4.7252683 7.640741,4.6582485 7.7661478,4.4520339 C 7.8236443,4.3574906 8.0117242,3.8808633 8.1841054,3.3928626 C 8.8449298,1.522113 9.2125229,1.0750401 10.206967,0.93262429 L 10.550873,0.88337269 L 10.990711,1.3290742 C 11.498728,1.8438662 11.872156,2.0995075 12.352482,2.2613175 C 12.883645,2.4402537 13.214526,2.3208863 13.446211,1.8667459 C 13.510058,1.7415958 13.595866,1.6516329 13.651293,1.6517348 C 13.703711,1.6518318 13.895363,1.7523373 14.077189,1.8750812 C 14.968859,2.4770161 15.021172,2.4733692 15.7026,1.761757 C 16.113687,1.33246 16.26279,1.2107702 16.377709,1.2107702 C 16.566981,1.2107702 16.612905,1.3028571 16.693697,1.844405 C 16.769103,2.3498517 16.878668,2.6194749 17.045925,2.7111828 C 17.184115,2.7869528 17.954539,2.7977191 18.650379,2.733603 C 19.116083,2.6906921 19.16136,2.6960312 19.394212,2.8213201 C 19.539904,2.8997117 19.741133,3.0847155 19.882161,3.2699253 C 20.200403,3.6878659 20.305777,3.7479268 20.781851,3.782721 C 21.11136,3.806803 21.316932,3.7809397 21.908299,3.6409978 C 22.791294,3.4320449 22.834301,3.4297385 22.78879,3.5937882 C 22.769873,3.6619728 22.738655,3.8603281 22.719415,4.0345777 L 22.684434,4.3513951 L 23.201946,4.3527097 C 23.784307,4.3541886 24.107411,4.4126918 24.234364,4.5396447 C 24.309209,4.614488 24.310866,4.6530113 24.246985,4.8329664 C 24.206539,4.9469049 24.06406,5.1977692 23.930367,5.3904411 C 23.703855,5.7168776 23.691393,5.7531948 23.747534,5.9233032 C 23.837401,6.1956047 24.092009,6.5192742 24.377773,6.7244942 C 24.517456,6.824808 24.645009,6.959732 24.661221,7.0243247 C 24.678542,7.0933358 24.597228,7.3735964 24.464039,7.7039455 C 24.055915,8.7162115 24.108425,9.0245545 24.774839,9.5290435 C 25.156301,9.8178155 25.382298,9.8775865 25.510165,9.7235165 C 25.547891,9.6780605 25.6158,9.6408685 25.661075,9.6408685 C 25.729739,9.6408685 25.737073,9.7025805 25.705292,10.012784 C 25.64692,10.582526 25.553809,10.723373 25.034233,11.02787 C 23.983282,11.643781 23.510946,12.356331 23.859711,12.799714 C 23.984747,12.958671 24.18792,13.02943 24.777244,13.119269 C 25.259147,13.192732 25.324335,13.254539 25.514463,13.818283 C 25.652871,14.228672 25.662888,14.241738 25.905592,14.32857 C 26.262896,14.456404 26.5907,14.698059 27.010602,15.14318 C 27.442752,15.601283 27.499051,15.774745 27.357437,16.211794 C 27.185347,16.742916 26.950599,17.158725 26.612541,17.531244 L 26.27731,17.900649 L 26.444204,17.986953 C 26.70498,18.121805 26.795513,18.300053 26.744822,18.578817 C 26.721223,18.708607 26.708738,18.956483 26.71708,19.129654 C 26.730496,19.408104 26.715697,19.459849 26.589091,19.577185 C 26.51035,19.650158 26.330436,19.742197 26.189284,19.781718 C 25.660904,19.929653 25.337982,20.378657 25.337982,20.96539 C 25.337982,21.494717 25.363352,21.51988 25.934668,21.557223 C 26.594259,21.600336 26.722336,21.654215 26.722336,21.888572 C 26.722336,21.999589 26.676164,22.121953 26.605753,22.19753 C 26.396935,22.421669 24.368318,23.729621 23.704953,24.067822 C 22.226603,24.821524 21.392715,25.030857 19.284014,25.177628 C 18.18176,25.254349 13.830332,25.289316 12.093636,25.23541 L 12.093636,25.23541 z"
           id="preenchimentoCopaPF10"
           transform="matrix(1.0787134,0,0,1.038589,7.3338223e-2,-0.2007465)" />
      </g>
    </g>
  </g>
</svg>
