<?xml version="1.0" encoding="UTF-8" standalone="no"?>
<svg
   xmlns:dc="http://purl.org/dc/elements/1.1/"
   xmlns:cc="http://creativecommons.org/ns#"
   xmlns:rdf="http://www.w3.org/1999/02/22-rdf-syntax-ns#"
   xmlns:svg="http://www.w3.org/2000/svg"
   xmlns="http://www.w3.org/2000/svg"
   xmlns:xlink="http://www.w3.org/1999/xlink"
   xmlns:sodipodi="http://sodipodi.sourceforge.net/DTD/sodipodi-0.dtd"
   xmlns:inkscape="http://www.inkscape.org/namespaces/inkscape"
   version="1.0"
   width="300"
   height="200"
   preserveAspectRatio="xMidYMid meet"
   id="svg8228"
   sodipodi:version="0.32"
   inkscape:version="0.46"
   sodipodi:docname="pf4.svg"
   inkscape:output_extension="org.inkscape.output.svg.inkscape">
  <defs
     id="defs8237">
    <inkscape:perspective
       sodipodi:type="inkscape:persp3d"
       inkscape:vp_x="0 : 405 : 1"
       inkscape:vp_y="0 : 1000 : 0"
       inkscape:vp_z="297.5 : 405 : 1"
       inkscape:persp3d-origin="148.75 : 270 : 1"
       id="perspective8239" />
    <filter
       inkscape:collect="always"
       id="filter9014">
      <feGaussianBlur
         inkscape:collect="always"
         stdDeviation="4.4767548"
         id="feGaussianBlur9016" />
    </filter>
    <filter
       inkscape:collect="always"
       id="filter9076">
      <feGaussianBlur
         inkscape:collect="always"
         stdDeviation="0.90163896"
         id="feGaussianBlur9078" />
    </filter>
    <inkscape:perspective
       sodipodi:type="inkscape:persp3d"
       inkscape:vp_x="0 : 450 : 1"
       inkscape:vp_y="0 : 1000 : 0"
       inkscape:vp_z="310 : 450 : 1"
       inkscape:persp3d-origin="155 : 270 : 1"
       id="perspective5850" />
    <radialGradient
       r="191.62799"
       fy="146.02631"
       fx="192.00943"
       cy="146.02631"
       cx="192.00943"
       gradientTransform="matrix(1,0,0,0.7512998,0,36.316769)"
       gradientUnits="userSpaceOnUse"
       id="radialGradient2430"
       xlink:href="#linearGradient29444"
       inkscape:collect="always" />
    <radialGradient
       r="191.62799"
       fy="146.02631"
       fx="192.00943"
       cy="146.02631"
       cx="192.00943"
       gradientTransform="matrix(1,0,0,0.7512998,0,36.316769)"
       gradientUnits="userSpaceOnUse"
       id="radialGradient2414"
       xlink:href="#linearGradient29444"
       inkscape:collect="always" />
    <radialGradient
       r="191.62799"
       fy="146.02631"
       fx="192.00943"
       cy="146.02631"
       cx="192.00943"
       gradientTransform="matrix(1,0,0,0.7512998,0,36.316769)"
       gradientUnits="userSpaceOnUse"
       id="radialGradient2528"
       xlink:href="#linearGradient29444"
       inkscape:collect="always" />
    <radialGradient
       r="191.62799"
       fy="146.02631"
       fx="192.00943"
       cy="146.02631"
       cx="192.00943"
       gradientTransform="matrix(1,0,0,0.7512998,0,36.316769)"
       gradientUnits="userSpaceOnUse"
       id="radialGradient2519"
       xlink:href="#linearGradient29444"
       inkscape:collect="always" />
    <radialGradient
       r="191.62799"
       fy="146.02631"
       fx="192.00943"
       cy="146.02631"
       cx="192.00943"
       gradientTransform="matrix(1,0,0,0.7512998,0,36.316769)"
       gradientUnits="userSpaceOnUse"
       id="radialGradient29617"
       xlink:href="#linearGradient29444"
       inkscape:collect="always" />
    <radialGradient
       gradientUnits="userSpaceOnUse"
       gradientTransform="matrix(1,0,0,0.7512998,0,36.316769)"
       r="191.62799"
       fy="146.02631"
       fx="192.00943"
       cy="146.02631"
       cx="192.00943"
       id="radialGradient29452"
       xlink:href="#linearGradient29444"
       inkscape:collect="always" />
    <inkscape:perspective
       id="perspective28801"
       inkscape:persp3d-origin="191.875 : 270 : 1"
       inkscape:vp_z="383.75 : 405 : 1"
       inkscape:vp_y="0 : 1000 : 0"
       inkscape:vp_x="0 : 405 : 1"
       sodipodi:type="inkscape:persp3d" />
    <linearGradient
       id="linearGradient29444"
       inkscape:collect="always">
      <stop
         id="stop29446"
         offset="0"
         style="stop-color:#00b819;stop-opacity:1;" />
      <stop
         id="stop29448"
         offset="1"
         style="stop-color:#00b819;stop-opacity:0;" />
    </linearGradient>
    <inkscape:perspective
       sodipodi:type="inkscape:persp3d"
       inkscape:vp_x="0 : 450 : 1"
       inkscape:vp_y="0 : 1000 : 0"
       inkscape:vp_z="310 : 450 : 1"
       inkscape:persp3d-origin="155 : 270 : 1"
       id="perspective3267" />
    <radialGradient
       r="191.62799"
       fy="146.02631"
       fx="192.00943"
       cy="146.02631"
       cx="192.00943"
       gradientTransform="matrix(1,0,0,0.7512998,0,36.316769)"
       gradientUnits="userSpaceOnUse"
       id="radialGradient3265"
       xlink:href="#linearGradient29444"
       inkscape:collect="always" />
    <radialGradient
       r="191.62799"
       fy="146.02631"
       fx="192.00943"
       cy="146.02631"
       cx="192.00943"
       gradientTransform="matrix(1,0,0,0.7512998,0,36.316769)"
       gradientUnits="userSpaceOnUse"
       id="radialGradient3263"
       xlink:href="#linearGradient29444"
       inkscape:collect="always" />
    <radialGradient
       r="191.62799"
       fy="146.02631"
       fx="192.00943"
       cy="146.02631"
       cx="192.00943"
       gradientTransform="matrix(1,0,0,0.7512998,0,36.316769)"
       gradientUnits="userSpaceOnUse"
       id="radialGradient3261"
       xlink:href="#linearGradient29444"
       inkscape:collect="always" />
    <radialGradient
       r="191.62799"
       fy="146.02631"
       fx="192.00943"
       cy="146.02631"
       cx="192.00943"
       gradientTransform="matrix(1,0,0,0.7512998,0,36.316769)"
       gradientUnits="userSpaceOnUse"
       id="radialGradient3259"
       xlink:href="#linearGradient29444"
       inkscape:collect="always" />
    <radialGradient
       gradientUnits="userSpaceOnUse"
       gradientTransform="matrix(1,0,0,0.7512998,0,36.316769)"
       r="191.62799"
       fy="146.02631"
       fx="192.00943"
       cy="146.02631"
       cx="192.00943"
       id="radialGradient3257"
       xlink:href="#linearGradient29444"
       inkscape:collect="always" />
    <inkscape:perspective
       id="perspective3255"
       inkscape:persp3d-origin="191.875 : 270 : 1"
       inkscape:vp_z="383.75 : 405 : 1"
       inkscape:vp_y="0 : 1000 : 0"
       inkscape:vp_x="0 : 405 : 1"
       sodipodi:type="inkscape:persp3d" />
  </defs>
  <sodipodi:namedview
     inkscape:window-height="750"
     inkscape:window-width="1263"
     inkscape:pageshadow="2"
     inkscape:pageopacity="0.0"
     guidetolerance="10.0"
     gridtolerance="10.0"
     objecttolerance="10.0"
     borderopacity="1.0"
     bordercolor="#666666"
     pagecolor="#ffffff"
     id="base"
     showgrid="false"
     inkscape:zoom="1.613251"
     inkscape:cx="177.176"
     inkscape:cy="98.736173"
     inkscape:window-x="9"
     inkscape:window-y="23"
     inkscape:current-layer="svg8228" />
  <metadata
     id="metadata8230">
Created by potrace 1.8, written by Peter Selinger 2001-2007
<rdf:RDF>
  <cc:Work
     rdf:about="">
    <dc:format>image/svg+xml</dc:format>
    <dc:type
       rdf:resource="http://purl.org/dc/dcmitype/StillImage" />
    <cc:license
       rdf:resource="" />
  </cc:Work>
</rdf:RDF>
</metadata>
  <g
     id="PF4">
    <g
       id="agrupamentoPF4">
      <g
         id="agrupamentoCopaPF4">
        <path
           style="fill:#1f5e00;fill-opacity:1;fill-rule:evenodd;stroke:#72ff46;stroke-width:1px;stroke-linecap:butt;stroke-linejoin:miter;stroke-opacity:1;filter:url(#filter9014)"
           d="M 9.0213539,514.75399 C 11.009659,514.75399 17.505103,514.75399 21.644731,514.75399 C 27.049488,514.75399 28.094881,517.06783 32.86551,518.26049 C 36.341806,519.12956 41.180862,518.26049 44.787588,518.26049 C 50.680038,518.26049 55.803102,519.66308 61.618757,519.66308 C 66.806465,519.66308 69.205871,518.26049 74.242133,518.26049 C 79.852523,518.26049 85.462912,518.26049 91.073302,518.26049 C 95.591893,518.26049 99.377368,517.93772 103.69668,516.85789 C 110.48742,515.16021 114.77391,516.822 120.52785,518.26049 C 122.57497,518.77227 130.15972,516.85789 133.85253,516.85789 C 137.99148,516.85789 142.76956,517.55919 147.1772,517.55919 C 154.09145,517.55919 159.21063,519.66308 166.11227,519.66308 C 171.02136,519.66308 175.93045,519.66308 180.83954,519.66308 C 187.11684,519.66308 190.80465,518.65188 196.26811,517.55919 C 200.08102,516.79661 204.98233,517.55919 208.89149,517.55919 C 214.94598,517.55919 219.77032,515.09594 222.91746,511.9488 C 227.22137,507.64489 218.04296,502.66524 215.90447,502.13062 C 213.95826,501.64406 209.07249,495.47964 208.19019,493.71503 C 206.5759,490.48645 202.75328,489.09509 200.47589,485.29944 C 196.50306,478.67806 184.98174,480.3288 191.35902,472.67607 C 195.39898,467.82812 202.83322,467.06568 208.89149,467.06568 C 211.94858,467.06568 217.91499,466.36438 222.91746,466.36438 C 227.80124,466.36438 238.98022,463.39208 234.13824,461.45529 C 228.75097,459.30039 223.06459,455.43786 220.11227,449.53321 C 218.82108,446.95085 213.02511,442.81525 211.69668,441.81893 C 207.56122,438.71733 206.82497,436.57788 201.8785,434.10464 C 198.81215,432.57147 195.03107,427.95851 193.46292,426.39036 C 190.41498,423.34242 186.30588,425.0067 187.15123,420.77997 C 188.12376,415.91734 201.83405,418.42222 206.08629,415.87087 C 211.48459,412.63189 217.03994,410.54435 221.51487,411.66308 C 227.52361,413.16527 227.37477,404.06174 233.43694,402.5462 C 234.29933,402.3306 224.50136,399.40232 222.91746,396.23451 C 220.32619,391.05198 208.59541,386.33174 203.9824,385.01373 C 199.01383,383.59414 198.42829,379.40334 193.46292,379.40334 C 185.59627,379.40334 181.45933,372.47187 187.15123,366.77997 C 190.12872,363.80247 193.88317,364.67607 198.37201,364.67607 C 198.85103,364.67607 204.09572,356.84846 204.68369,356.26049 C 206.43081,354.51338 209.28059,351.85815 211.69668,350.6501 C 215.43337,348.78176 218.45343,349.75997 220.11227,346.44231 C 221.74863,343.16958 212.8814,344.12053 210.29408,341.53321 C 208.07448,339.31361 201.65707,340.13062 198.37201,340.13062 C 193.9122,340.13062 189.34002,340.50249 185.04733,339.42932 C 180.58218,338.31303 178.94279,336.12997 176.63175,333.81893 C 173.5243,330.71148 164.21769,336.2055 167.51487,329.61113 C 169.72593,325.189 180.26242,323.87657 182.94344,321.19555 C 186.17864,317.96035 192.08348,317.25902 196.26811,315.58516 C 200.13432,314.03868 201.03573,312.07867 206.08629,312.07867 C 208.30234,312.07867 206.50085,306.46828 199.07331,306.46828 C 195.06533,306.46828 191.08914,302.12555 187.15123,300.15659 C 182.15677,297.65936 177.17494,296.92169 172.42395,294.5462 C 168.59524,292.63185 159.04124,284.43782 158.39798,281.22153 C 157.68039,277.63356 166.5798,279.58516 168.21616,276.31244 C 168.96898,274.80679 178.27107,272.47808 180.13824,272.10465 C 186.92886,270.74652 186.47625,269.89545 192.06032,267.19555 C 198.58259,264.04203 195.79754,263.68906 202.5798,263.68906 C 208.05609,263.68906 206.50422,259.19789 203.9824,256.67607 C 201.69684,254.39052 195.99087,251.27771 192.76162,249.66308 C 189.92055,248.24255 185.07892,247.57498 182.24214,246.15659 C 178.57914,244.32509 176.87817,242.13361 173.82655,239.8449 C 170.24694,237.16019 167.67761,237.16177 164.70967,234.93581 C 161.25423,232.34423 159.20118,230.82992 156.99538,228.62412 C 154.40536,226.0341 152.61817,222.67489 152.08629,221.61114 C 151.12245,219.68345 156.19496,219.40441 156.99538,217.40334 C 158.44806,213.77165 163.28672,212.49425 166.81356,212.49425 C 170.78759,212.49425 174.76162,212.49425 178.73564,212.49425 C 186.79382,212.49425 179.78202,207.7577 176.63175,206.18257 C 172.59479,204.16409 174.64347,204.77997 167.51487,199.16958 C 164.20321,196.56322 163.01214,193.72174 159.09928,192.15659 C 155.21005,190.6009 153.71972,184.67314 151.38499,182.33841 C 149.27104,180.22445 148.5798,176.2956 148.5798,171.81893 C 148.5798,166.68477 148.36551,160.16958 146.4759,156.39036 C 143.57944,150.59744 140.71393,152.33415 138.06032,154.98776 C 135.66681,157.38127 135.33041,164.5048 134.55382,167.61114 C 133.33877,172.47134 132.26879,174.64739 131.04733,179.53321 C 129.84568,184.33982 126.92155,185.03425 124.73564,187.9488 C 122.47616,190.96144 120.73714,192.6486 117.72266,195.66308 C 114.48236,198.90338 111.60577,198.81114 107.20318,200.57218 C 103.78526,201.93934 102.66529,205.11006 99.488887,208.28646 C 95.613686,212.16166 96.576757,212.81817 100.89148,213.89685 C 104.24899,214.73623 106.36857,216.00075 111.41097,216.00075 C 116.43497,216.00075 116.77429,218.27189 117.72266,223.01373 C 118.28137,225.80733 113.23554,231.00734 110.70967,233.53321 C 108.24829,235.99459 105.3178,238.33305 102.29408,239.8449 C 98.629182,241.67735 95.41527,242.51592 92.4759,245.45529 C 89.266819,248.66437 87.394058,251.81017 81.956419,253.16958 C 79.174752,253.86499 74.96103,258.42052 72.839536,259.48127 C 69.767318,261.01738 67.760776,263.33615 65.12525,264.39036 C 62.405665,265.47819 69.967334,268.02371 72.839536,268.59815 C 77.48544,269.52733 82.769255,269.55843 86.164211,272.10464 C 89.492558,274.6009 94.592443,275.62378 96.683692,277.71503 C 99.515863,280.5472 98.727126,283.44635 97.38499,286.13062 C 95.965879,288.96884 92.629609,290.55745 89.670705,291.74101 C 84.947117,293.63044 83.244246,293.90229 79.151224,295.9488 C 75.405302,297.82176 72.767385,294.61836 70.034341,297.3514 C 69.184549,298.20119 58.170954,299.26529 57.410965,299.45529 C 53.399395,300.45818 52.255742,303.24502 51.800575,305.06569 C 51.074503,307.96997 58.941138,312.84376 61.618757,314.18257 C 65.332115,316.03924 67.895283,317.64218 70.034341,320.49425 C 72.911624,324.33063 74.550737,325.23516 75.644731,329.61114 C 76.919418,334.70989 72.392232,334.74388 70.034341,335.92283 C 64.971924,338.45403 67.170092,338.02672 60.917458,342.93581 C 56.488495,346.4131 53.651209,345.54623 51.099276,350.6501 C 48.934269,354.98011 44.635302,353.36314 43.38499,358.36439 C 42.887433,360.35462 37.569443,362.98249 36.372003,365.37737 C 35.132139,367.8571 30.924821,369.85421 28.657718,370.98776 C 24.872949,372.88015 23.047328,382.36855 23.047328,384.31244 C 23.047328,385.74474 34.56714,386.2324 35.670705,386.41633 C 40.705409,387.25545 42.048216,387.88475 44.787588,390.62412 C 47.924556,393.76109 52.794457,390.91671 56.709666,394.83192 C 59.016797,397.13905 62.772265,398.04335 63.722653,401.8449 C 64.980108,406.87473 69.590789,410.00274 67.229146,412.36438 C 66.065244,413.52828 52.956106,413.06568 51.099276,413.06568 C 46.472257,413.06568 45.830896,416.57218 39.878497,416.57218 C 35.6793,416.57218 32.266833,417.27347 27.956419,417.27347 C 21.581717,417.27347 22.021484,420.33513 17.436938,421.48127 C 12.453371,422.72716 22.022792,427.53682 23.047328,427.79295 C 26.462469,428.64674 29.222284,431.79124 32.86551,432.70205 C 36.722462,433.66628 39.643618,434.19793 42.683692,434.80594 C 47.007649,435.67073 47.466267,438.18592 49.696679,440.41633 C 53.772117,444.49177 47.451944,445.00998 43.38499,446.02672 C 42.37415,446.27943 37.176596,452.93641 36.372003,453.74101 C 34.38499,455.72802 32.047328,457.36438 30.060315,459.3514 C 27.59867,461.81304 24.840547,462.76023 21.644731,463.55919 C 19.145265,464.18406 14.818798,466.87863 13.229147,468.46828 C 9.9271378,471.77029 9.0430528,470.48538 7.6187565,476.18257 C 6.8652643,479.19653 15.1489,478.59108 16.73564,478.98776 C 22.239451,480.36371 22.832863,481.57849 26.553822,485.29945 C 28.548151,487.29378 33.963803,489.00444 36.372003,490.20854 C 41.182641,492.61386 35.024088,497.75878 33.566809,502.13062 C 33.378671,502.69503 26.002378,505.56218 25.852523,505.63711 C 22.582141,507.2723 21.91761,509.1436 16.034341,509.1436 C 10.601552,509.1436 10.784536,525.33309 9.0213539,514.75399 z"
           id="preenchimentoCopaPF4"
           sodipodi:nodetypes="cssssssssssssssssssssssssssssssssssssssssssssssssssssssssssssssssssssssssssssssssssssssssssssssssssssssssssssssssssssssssssssssssssc"
           transform="matrix(0.2141218,0,0,0.4097831,-1.4728862,-62.036526)" />
        <g
           transform="matrix(8.9004454e-2,0,0,-0.1753515,5.5679824e-2,207.65541)"
           id="copaPF4"
           style="fill:#041500;fill-opacity:1;stroke:none;stroke-opacity:1">
          <path
             d="M 312,1178 C 306,1172 300,1155 300,1141 C 300,1121 287,1107 250,1081 C 199,1047 194,1030 235,1030 C 291,1030 269,999 182,956 C 126,928 123,916 167,907 C 183,903 202,896 210,890 C 223,881 223,879 210,870 C 202,865 179,858 158,855 C 100,845 92,826 135,800 C 154,788 170,777 170,775 C 170,774 138,746 99,715 C 33,661 29,656 45,643 C 56,636 76,630 91,630 C 108,630 123,621 134,605 L 150,580 L 96,580 C 62,580 38,575 31,566 C 17,550 32,538 84,526 L 113,519 L 61,482 C 33,462 9,441 7,436 C 6,431 20,422 39,415 C 87,399 87,386 40,365 C 18,355 5.5511151e-17,343 5.5511151e-17,338 C 5.5511151e-17,334 50,322.46652 111,322.46652 C 299.51692,323.13873 259.22768,321.71485 415.44505,322.46652 C 493.44505,322.46652 520,333 520,343 C 519,360 463.38961,427.72727 440.38961,436.72727 C 429.38961,440.72727 452,407 473,390 C 493,373 510,354 510,349 C 510,344 408,340 263,340 L 15,341 L 53,361 C 104,388 100,406 37,426 L 8,436 L 64,474 C 95,495 117,516 114,521 C 112,526 91,534 69,540 C 16,555 29,570 94,570 C 123,570 150,573 153,576 C 167,590 119,640 92,640 C 33,640 37,655 109,714 C 148,745 180,773 180,775 C 180,777 163,791 143,804 C 104,831 104,831 177,850 C 200,856 222,866 226,872 C 235,886 204,909 166,917 C 137,923 137,923 186,948 C 254,982 283,1009 269,1027 C 263,1034 246,1040 231,1040 C 208,1040 210,1044 258,1077 C 299,1106 310,1119 310,1141 C 310,1156 314,1171 319,1174 C 331,1182 340,1156 333,1132 C 330,1117 340,1104 375,1079 L 423,1045 L 389,1042 C 314,1034 319,1004 401,969 C 455,945 484,920 456,920 C 447,920 421,910 398,899 L 356,878 L 381,859 C 394,849 420,835 438,829 L 471,818 L 428,797 C 404,785 386,771 387,765 C 388,760 407,752 429,748 C 452,744 477,737 486,732 C 499,725 496,720 467,707 C 448,698 427,684 420,675 C 410,663 411,659 426,654 C 469,639 530,611 530,606 C 530,596 463.88312,570 442.88312,570 C 402.88312,570 421,550 480,509 C 513,485 538,465 537,464 C 536,462 515,460 492,459 C 468,457 444,449 437,441 C 427,427 427,427 440,437 C 457,450 457,450 510,450 C 532,450 550,454 550,459 C 550,465 522,488 489,512 L 427,555 L 458,561 C 476,565 493.32968,566.03972 508.32968,576.03972 L 544,603 L 521,621 C 508,631 481,645 459,651 C 428,661 422,666 431,677 C 437,684 448,690 454,690 C 460,690 476,699 489,709 L 513,728 L 491,739 C 479,746 450,755 427,759 L 385,767 L 433,789 C 459,801 480,813 480,815 C 480,818 454,832 423,846 L 366,873 L 406,891 C 427,901 453,911 464,914 C 491,923 468,946 401,979 C 371,993 346,1010 345,1015 C 345,1021 361,1026 380,1028 C 434,1033 435,1045 385,1081 C 349,1107 340,1119 344,1135 C 352,1165 329,1195 312,1178 z"
             id="path8234"
             style="fill:#041500;fill-opacity:1;stroke:none;stroke-opacity:1"
             sodipodi:nodetypes="cscsccccccsccsccccccccccscccccsccccccccssscsccccccscsccccccsccccccccccccsscccccssccccccccsccccccscccccccccc" />
        </g>
      </g>
      <g
         id="agrupamentoTroncoPF4">
        <g
           id="preenchimentoTroncoPF4"
           transform="matrix(0.2108089,0,0,0.4247538,-17.735468,-213.52691)">
          <path
             id="path9018"
             d="M 96.779221,506.33766 C 96.512744,508.34454 95.894597,515.91286 94.675325,518.96104 C 93.398442,522.15324 92.212781,526.70732 91.168831,530.88312 C 90.122676,535.06774 90.783674,540.83933 89.766234,544.90909 C 88.573103,549.68161 89.320393,554.85258 88.363636,559.63636 C 87.490446,564.00232 86.25974,568.2698 86.25974,572.25974 C 86.25974,574.71897 94.872754,573.66234 96.779221,573.66234 C 101.52739,573.66234 105.86826,573.95399 110.1039,572.25974 C 113.32472,570.97141 118.41307,571.35652 122.02597,572.25974 C 125.25493,573.06698 129.14157,572.96104 133.24675,572.96104 C 137.57209,572.96104 140.25974,570.83978 140.25974,565.94805 C 140.25974,561.69701 140.96104,557.0516 140.96104,552.62338 C 140.96104,547.80309 141.38544,542.95269 139.55844,539.2987 C 138.02567,536.23317 137.41396,530.72078 136.75325,528.07792 C 135.53288,523.19645 135.19326,520.4354 133.94805,515.45455 C 132.7894,510.81994 133.05606,506.81596 128.33766,505.63636 C 124.96293,504.79268 122.28605,503.53247 117.81818,503.53247 C 113.84416,503.53247 109.87013,503.53247 105.8961,503.53247 C 102.9794,503.53247 100.21059,505.65139 96.779221,506.33766 z"
             style="fill:none;fill-rule:evenodd;stroke:#151500;stroke-width:3;stroke-linecap:butt;stroke-linejoin:miter;stroke-miterlimit:4;stroke-dasharray:none;stroke-opacity:1" />
          <path
             sodipodi:nodetypes="cssssssssssssssc"
             id="path9046"
             d="M 107.96816,506.27397 C 106.01106,505.82612 102.09254,507.9418 98.851274,511.18307 C 94.989179,515.04516 96.247979,524.10394 93.942183,528.71553 C 91.357971,533.88396 91.136989,537.47763 91.136989,543.44281 C 91.136989,549.28696 91.136989,555.13112 91.136989,560.97527 C 91.136989,565.65934 88.626638,569.42667 89.734391,572.19605 C 90.558713,574.25685 103.679,571.69042 104.46167,571.49475 C 108.09339,570.58682 111.01461,572.19606 115.68245,572.19606 C 119.5984,572.19606 123.19888,572.19605 128.30582,572.19605 C 132.99488,572.19605 136.87128,576.35577 138.12401,570.09216 C 139.12052,565.1096 139.5266,560.75478 139.5266,555.36488 C 139.5266,549.2966 140.48201,541.14583 138.12401,536.42982 C 136.32886,532.83953 136.33204,527.15805 135.31881,523.10514 C 134.3638,519.28509 131.45309,514.6724 129.70842,511.18307 C 128.16192,508.09006 122.95425,505.63738 119.89024,504.87138 C 116.40628,504.00039 110.99337,505.06389 107.96816,506.27397 z"
             style="fill:#3a3700;fill-opacity:1;fill-rule:evenodd;stroke:#333200;stroke-width:1px;stroke-linecap:butt;stroke-linejoin:miter;stroke-opacity:1;filter:url(#filter9076)" />
        </g>
        <g
           style="fill:#041500;fill-opacity:1;stroke:none;stroke-opacity:1"
           id="troncoPF4"
           transform="matrix(8.9004454e-2,0,0,-0.1753515,2.1187431,215.68924)">
          <path
             sodipodi:nodetypes="ccccccccccccccccscc"
             style="fill:#041500;fill-opacity:1;stroke:none;stroke-opacity:1"
             id="path3233"
             d="M -8.2679608,1173.9476 C -12.267961,1163.9476 -12.932801,1150.5482 -15.932801,1116.5483 L -21.932801,1053.5481 L 46.067199,1053.5481 L 114.0672,1053.5481 L 108.0672,1116.5483 C 110.46693,1154.0413 108.38183,1166.1398 102.32144,1232.1208 C 77.397639,1231.8247 34.767549,1231.6136 -1.5860908,1229.7084 C -9.8855408,1193.58 -4.9807108,1186.2776 -8.2679608,1173.9476 z M 96.198049,1181.2092 C 102.19805,1160.2092 101.0672,1121.5483 101.0672,1101.5483 L 101.0672,1063.5481 L 45.067199,1063.5481 L -11.932801,1063.5481 L -5.9328008,1121.5483 C -0.26769075,1174.4224 3.2139892,1195.0922 6.5162692,1217.8846 C 28.014739,1216.9966 32.616009,1216.2116 47.067199,1216.2116 C 67.798559,1216.2116 82.755529,1215.6332 92.461079,1214.8826 C 95.201349,1209.4861 93.417449,1191.4047 96.198049,1181.2092 z" />
        </g>
      </g>
    </g>
  </g>
</svg>
