<?xml version="1.0" encoding="UTF-8" standalone="no"?>
<svg
   xmlns:dc="http://purl.org/dc/elements/1.1/"
   xmlns:cc="http://creativecommons.org/ns#"
   xmlns:rdf="http://www.w3.org/1999/02/22-rdf-syntax-ns#"
   xmlns:svg="http://www.w3.org/2000/svg"
   xmlns="http://www.w3.org/2000/svg"
   xmlns:xlink="http://www.w3.org/1999/xlink"
   xmlns:sodipodi="http://sodipodi.sourceforge.net/DTD/sodipodi-0.dtd"
   xmlns:inkscape="http://www.inkscape.org/namespaces/inkscape"
   version="1.0"
   width="300"
   height="200"
   preserveAspectRatio="xMidYMid meet"
   id="svg5839"
   sodipodi:version="0.32"
   inkscape:version="0.46"
   sodipodi:docname="pf6.svg"
   inkscape:output_extension="org.inkscape.output.svg.inkscape">
  <defs
     id="defs2400">
    <inkscape:perspective
       sodipodi:type="inkscape:persp3d"
       inkscape:vp_x="0 : 100 : 1"
       inkscape:vp_y="0 : 1000 : 0"
       inkscape:vp_z="300 : 100 : 1"
       inkscape:persp3d-origin="150 : 66.666667 : 1"
       id="perspective2402" />
    <inkscape:perspective
       sodipodi:type="inkscape:persp3d"
       inkscape:vp_x="0 : 450 : 1"
       inkscape:vp_y="0 : 1000 : 0"
       inkscape:vp_z="310 : 450 : 1"
       inkscape:persp3d-origin="155 : 270 : 1"
       id="perspective3158" />
    <radialGradient
       r="191.62799"
       fy="146.02631"
       fx="192.00943"
       cy="146.02631"
       cx="192.00943"
       gradientTransform="matrix(1,0,0,0.7512998,0,36.316769)"
       gradientUnits="userSpaceOnUse"
       id="radialGradient2430"
       xlink:href="#linearGradient29444"
       inkscape:collect="always" />
    <radialGradient
       r="191.62799"
       fy="146.02631"
       fx="192.00943"
       cy="146.02631"
       cx="192.00943"
       gradientTransform="matrix(1,0,0,0.7512998,0,36.316769)"
       gradientUnits="userSpaceOnUse"
       id="radialGradient2414"
       xlink:href="#linearGradient29444"
       inkscape:collect="always" />
    <radialGradient
       r="191.62799"
       fy="146.02631"
       fx="192.00943"
       cy="146.02631"
       cx="192.00943"
       gradientTransform="matrix(1,0,0,0.7512998,0,36.316769)"
       gradientUnits="userSpaceOnUse"
       id="radialGradient2519"
       xlink:href="#linearGradient29444"
       inkscape:collect="always" />
    <radialGradient
       r="191.62799"
       fy="146.02631"
       fx="192.00943"
       cy="146.02631"
       cx="192.00943"
       gradientTransform="matrix(1,0,0,0.7512998,0,36.316769)"
       gradientUnits="userSpaceOnUse"
       id="radialGradient29617"
       xlink:href="#linearGradient29444"
       inkscape:collect="always" />
    <radialGradient
       gradientUnits="userSpaceOnUse"
       gradientTransform="matrix(1,0,0,0.7512998,0,36.316769)"
       r="191.62799"
       fy="146.02631"
       fx="192.00943"
       cy="146.02631"
       cx="192.00943"
       id="radialGradient29452"
       xlink:href="#linearGradient29444"
       inkscape:collect="always" />
    <inkscape:perspective
       id="perspective28801"
       inkscape:persp3d-origin="191.875 : 270 : 1"
       inkscape:vp_z="383.75 : 405 : 1"
       inkscape:vp_y="0 : 1000 : 0"
       inkscape:vp_x="0 : 405 : 1"
       sodipodi:type="inkscape:persp3d" />
    <linearGradient
       id="linearGradient29444"
       inkscape:collect="always">
      <stop
         id="stop29446"
         offset="0"
         style="stop-color:#00b819;stop-opacity:1;" />
      <stop
         id="stop29448"
         offset="1"
         style="stop-color:#00b819;stop-opacity:0;" />
    </linearGradient>
    <inkscape:perspective
       sodipodi:type="inkscape:persp3d"
       inkscape:vp_x="0 : 450 : 1"
       inkscape:vp_y="0 : 1000 : 0"
       inkscape:vp_z="310 : 450 : 1"
       inkscape:persp3d-origin="155 : 270 : 1"
       id="perspective5061" />
    <radialGradient
       r="191.62799"
       fy="146.02631"
       fx="192.00943"
       cy="146.02631"
       cx="192.00943"
       gradientTransform="matrix(1,0,0,0.7512998,0,36.316769)"
       gradientUnits="userSpaceOnUse"
       id="radialGradient5051"
       xlink:href="#linearGradient29444"
       inkscape:collect="always" />
    <radialGradient
       r="191.62799"
       fy="146.02631"
       fx="192.00943"
       cy="146.02631"
       cx="192.00943"
       gradientTransform="matrix(1,0,0,0.7512998,0,36.316769)"
       gradientUnits="userSpaceOnUse"
       id="radialGradient5049"
       xlink:href="#linearGradient29444"
       inkscape:collect="always" />
    <radialGradient
       r="191.62799"
       fy="146.02631"
       fx="192.00943"
       cy="146.02631"
       cx="192.00943"
       gradientTransform="matrix(1,0,0,0.7512998,0,36.316769)"
       gradientUnits="userSpaceOnUse"
       id="radialGradient5047"
       xlink:href="#linearGradient29444"
       inkscape:collect="always" />
    <radialGradient
       r="191.62799"
       fy="146.02631"
       fx="192.00943"
       cy="146.02631"
       cx="192.00943"
       gradientTransform="matrix(1,0,0,0.7512998,0,36.316769)"
       gradientUnits="userSpaceOnUse"
       id="radialGradient5045"
       xlink:href="#linearGradient29444"
       inkscape:collect="always" />
    <radialGradient
       r="191.62799"
       fy="146.02631"
       fx="192.00943"
       cy="146.02631"
       cx="192.00943"
       gradientTransform="matrix(1,0,0,0.7512998,0,36.316769)"
       gradientUnits="userSpaceOnUse"
       id="radialGradient5043"
       xlink:href="#linearGradient29444"
       inkscape:collect="always" />
    <radialGradient
       gradientUnits="userSpaceOnUse"
       gradientTransform="matrix(1,0,0,0.7512998,0,36.316769)"
       r="191.62799"
       fy="146.02631"
       fx="192.00943"
       cy="146.02631"
       cx="192.00943"
       id="radialGradient5037"
       xlink:href="#linearGradient29444"
       inkscape:collect="always" />
    <inkscape:perspective
       id="perspective5035"
       inkscape:persp3d-origin="191.875 : 270 : 1"
       inkscape:vp_z="383.75 : 405 : 1"
       inkscape:vp_y="0 : 1000 : 0"
       inkscape:vp_x="0 : 405 : 1"
       sodipodi:type="inkscape:persp3d" />
    <filter
       id="filter5765"
       inkscape:collect="always">
      <feGaussianBlur
         id="feGaussianBlur5767"
         stdDeviation="6.7381604"
         inkscape:collect="always" />
    </filter>
    <filter
       inkscape:collect="always"
       id="filter6459">
      <feGaussianBlur
         inkscape:collect="always"
         stdDeviation="0.54240517"
         id="feGaussianBlur6461" />
    </filter>
    <inkscape:perspective
       sodipodi:type="inkscape:persp3d"
       inkscape:vp_x="0 : 450 : 1"
       inkscape:vp_y="0 : 1000 : 0"
       inkscape:vp_z="310 : 450 : 1"
       inkscape:persp3d-origin="155 : 270 : 1"
       id="perspective5850" />
    <radialGradient
       r="191.62799"
       fy="146.02631"
       fx="192.00943"
       cy="146.02631"
       cx="192.00943"
       gradientTransform="matrix(1,0,0,0.7512998,0,36.316769)"
       gradientUnits="userSpaceOnUse"
       id="radialGradient6968"
       xlink:href="#linearGradient29444"
       inkscape:collect="always" />
    <radialGradient
       r="191.62799"
       fy="146.02631"
       fx="192.00943"
       cy="146.02631"
       cx="192.00943"
       gradientTransform="matrix(1,0,0,0.7512998,0,36.316769)"
       gradientUnits="userSpaceOnUse"
       id="radialGradient6966"
       xlink:href="#linearGradient29444"
       inkscape:collect="always" />
    <radialGradient
       r="191.62799"
       fy="146.02631"
       fx="192.00943"
       cy="146.02631"
       cx="192.00943"
       gradientTransform="matrix(1,0,0,0.7512998,0,36.316769)"
       gradientUnits="userSpaceOnUse"
       id="radialGradient6964"
       xlink:href="#linearGradient29444"
       inkscape:collect="always" />
    <radialGradient
       r="191.62799"
       fy="146.02631"
       fx="192.00943"
       cy="146.02631"
       cx="192.00943"
       gradientTransform="matrix(1,0,0,0.7512998,0,36.316769)"
       gradientUnits="userSpaceOnUse"
       id="radialGradient6962"
       xlink:href="#linearGradient29444"
       inkscape:collect="always" />
    <radialGradient
       gradientUnits="userSpaceOnUse"
       gradientTransform="matrix(1,0,0,0.7512998,0,36.316769)"
       r="191.62799"
       fy="146.02631"
       fx="192.00943"
       cy="146.02631"
       cx="192.00943"
       id="radialGradient6960"
       xlink:href="#linearGradient29444"
       inkscape:collect="always" />
    <inkscape:perspective
       id="perspective6958"
       inkscape:persp3d-origin="191.875 : 270 : 1"
       inkscape:vp_z="383.75 : 405 : 1"
       inkscape:vp_y="0 : 1000 : 0"
       inkscape:vp_x="0 : 405 : 1"
       sodipodi:type="inkscape:persp3d" />
  </defs>
  <sodipodi:namedview
     inkscape:window-height="734"
     inkscape:window-width="1264"
     inkscape:pageshadow="6.453004"
     inkscape:pageopacity="0.0"
     guidetolerance="10.0"
     gridtolerance="10.0"
     objecttolerance="10.0"
     borderopacity="1.0"
     bordercolor="#666666"
     pagecolor="#ffffff"
     id="base"
     showgrid="false"
     inkscape:zoom="1.3765012"
     inkscape:cx="212.63098"
     inkscape:cy="80.129001"
     inkscape:window-x="8"
     inkscape:window-y="39"
     inkscape:current-layer="svg5839" />
  <metadata
     id="metadata5841">
Created by potrace 1.8, written by Peter Selinger 2001-2007
<rdf:RDF>
  <cc:Work
     rdf:about="">
    <dc:format>image/svg+xml</dc:format>
    <dc:type
       rdf:resource="http://purl.org/dc/dcmitype/StillImage" />
  </cc:Work>
</rdf:RDF>
</metadata>
  <g
     id="PF7">
    <g
       id="agrupamentoPF7">
      <g
         id="agrupamentoTroncoPF7">
        <path
           style="opacity:1;fill:none;fill-opacity:1;fill-rule:evenodd;stroke:#000000;stroke-width:0.95167363;stroke-linecap:square;stroke-linejoin:miter;stroke-miterlimit:4;stroke-dasharray:none;stroke-opacity:1"
           d="M 0.53657574,2.5449149 C 0.28421974,4.5508249 0.88091074,7.4212949 1.1790087,10.024125 C 1.3715717,11.705534 3.8255367,10.959034 4.6053227,10.959034 C 5.8188027,10.959034 7.0322827,10.959034 8.2457777,10.959034 C 9.4592567,10.959034 10.672737,10.959034 11.886217,10.959034 C 14.021022,10.959034 13.613089,10.431695 14.45596,6.7519749 C 15.114962,3.8749449 15.567348,1.1425649 14.027667,1.1425649 C 12.814188,1.1425649 11.600693,1.1425649 10.387213,1.1425649 C 9.2528467,1.1425649 7.7667227,1.0269049 6.9609127,0.67511487 C 5.7025707,0.12575487 5.5186417,0.78496487 3.9628917,0.67511487 C 2.6705467,0.58385487 0.47422274,0.46703487 0.53657574,2.5449149 z"
           id="troncoPF7"
           sodipodi:nodetypes="csssssssssc" />
        <path
           style="opacity:0.93902438;fill:#67430a;fill-opacity:1;stroke-width:1.56799996;stroke-miterlimit:4;stroke-dasharray:none;filter:url(#filter6459)"
           d="M 19.276996,185.21784 C 19.025009,183.12013 18.816016,180.02593 18.812543,178.34184 C 18.802866,173.64332 19.459415,173.49327 33.972181,174.87773 L 40.05713,175.45821 L 39.613854,179.52075 C 39.370048,181.75512 38.823132,184.80919 38.39849,186.30756 L 37.626417,189.03185 L 28.680751,189.03185 L 19.735078,189.03185 L 19.276996,185.21784 z"
           id="preenchimentoTroncoPF7"
           transform="matrix(0.6153727,0,0,0.5986123,-10.288952,-102.91031)" />
      </g>
      <g
         id="agrupamentoCopaPF7">
        <g
           style="fill:#000000;stroke:#379611;stroke-opacity:1"
           id="copaPF7"
           transform="matrix(7.5684725e-2,0,0,-0.1504129,-6.5014594,132.49127)">
          <path
             style="stroke:#379611;stroke-opacity:1"
             id="path5043"
             d="M 372,868 C 366,862 360,848 360,839 C 360,829 344,808 324,792 C 291,764 289,761 307,751 C 324,741 323,738 295,715 C 270,694 268,690 283,684 C 297,679 294,672 262,644 C 242,626 228,610 232,610 C 236,610 255,625 276,644 C 310,675 311,678 294,688 C 283,694 280,700 287,700 C 303,700 330,729 330,746 C 330,754 322,760 313,760 C 297,761 297,762 315,772 C 343,788 369,822 370,842 C 370,863 386,874 392,857 C 395,851 396,828 395,806 C 394,774 400,761 430,729 L 467,690 L 442,674 L 418,658 L 454,621 L 491,584 L 465,572 C 451,565 442,555 445,550 C 454,535 490,518 490,528 C 490,534 480,541 468,544 C 445,550 445,551 474,566 L 502,582 L 466,619 L 429,657 L 456,675 L 483,692 L 451,717 C 434,730 420,748 420,756 C 420,764 416,770 411,770 C 407,770 404,788 405,810 C 408,858 391,887 372,868 z" />
          <path
             style="stroke:#379611;stroke-opacity:1"
             sodipodi:nodetypes="cccsccssccscccscccscsccccscscccccccssscccccccsccccccccscccsscccssccssccsccscscscc"
             id="path5045"
             d="M 275,596 C 295,580 295,580 270,560 C 256,548 235,535 223,530 C 213.7185,526.02222 199.96039,521.26713 198.27893,517.17503 C 196.15598,512.00848 208.18766,506.62467 216,491 C 234,456 227,439 173,379 C 148,351 142,340 154,340 C 173,340 175,329 158,312 C 149,303 151,299 163,295 C 215,279 216,278 187,269 C 156,261 130,242 130,229 C 130,225 139,218 151,215 L 172,208 L 149,184 C 137,171 121,160 114,160 C 108,160 97,154 91,146 C 82,135 87,127 115,106 C 153,77 152,64 114,50 C 52,26 97,20 335,20 C 525,20 580,23 580,33 C 579,50 534,100 518,100 C 511,100 519,109 535,120 C 572,144 573,152 540,160 C 516,167 516,167 551,182 C 605,205 605,216 556,241 C 513,262 504,280 535,280 C 562,280 561,300 534,310 C 509,320 508,322 525,334 C 542,346 542,348 521,362 L 499,377 L 521,383 C 540,388 541,391 530,405 C 522,414 501,430 481,439 L 451.00431,458 L 477.27216,473.28079 C 504.70197,488.14039 530.70628,496.99569 530.70628,499.99569 C 530.70628,504.8553 524.99569,506.13608 512.99569,512.13608 C 497.94468,519.66159 487.20844,538.03992 480.97247,534.31659 C 473.38564,529.7867 493.99022,515.92743 497.70197,512.71059 C 513.70197,500.71059 526,502 494,490 C 439,468 433,454 471,434 C 521,409 534,393 510,387 C 483,380 485,364 513,356 C 533,350 534,349 517,339 C 503,331 501,325 511,314 C 517,306 530,300 539,300 C 549,300 547,296 531,287 C 496,270 500,258 549,233 L 588.71059,212.7149 L 554,193 C 512,173 507,158 540,150 C 560,145 559,144 530,126 L 498,108 L 534,78 C 554,62 570,44 570,39 C 570,34 472,30 333,31 C 197,31 104,35 115,40 C 152,54 160,73 142,95 C 132,107 117,119 107,123 C 87,131 93,150 115,150 C 123,150 141,162 155,177 L 180,205 L 159,221 C 150.84846,227.2107 137.28227,225.29139 136.68731,228.61057 C 136.04451,232.19659 141.69974,240.76816 155.39563,247.35642 C 161.68086,250.37986 171.91683,250.72824 180,254 C 215,268 220,273 210,285 C 203,293 189,300 179,300 C 162,300 161,303 172,320 C 183,337 183,342 172,349 C 162,355 164,361 182,372 C 188.6795,376.62427 193.36849,387.54013 201.18131,396.85806 C 208.57421,405.67516 220.56788,420.62627 225.4298,429.86392 C 243.4298,461.86392 242,459 227,489 C 221.26237,500.88509 210.6071,508.71553 209.49949,513.81853 C 207.9045,521.16701 218.43256,519.2851 227.2851,522.85961 C 234.32356,525.46863 237.20673,527.83059 244.42766,533.06104 C 252.75845,539.09542 263.53495,543.47023 271.5702,550.43412 C 282.37227,558.94484 296.24544,571.93186 294.50776,581.881 C 290.93689,602.32618 243.85055,624.16329 234.43639,613.22858 C 233.02384,610.79446 255,612 275,596 z" />
        </g>
        <path
           transform="matrix(0.2307116,0,0,0.4538268,-10.316261,-3.1294444)"
           id="preenchimentoCopaPF7"
           d="M 82.174855,288.5873 C 63.391743,288.01389 52.910109,287.26799 52.910109,286.50474 C 52.910109,286.23563 54.151279,285.45574 55.668267,284.77168 C 62.061071,281.88892 64.938223,276.8415 63.197494,271.56308 C 62.08407,268.18679 55.182135,261.30371 50.013829,258.41538 C 45.22717,255.74032 44.102771,254.03197 45.612404,251.72797 C 46.363345,250.58187 47.790907,249.87384 50.473644,249.31691 C 55.783928,248.21449 61.449459,244.19706 68.025832,236.87062 C 71.07378,233.47502 73.567577,230.45824 73.567577,230.16666 C 73.567577,229.87507 71.94253,228.42329 69.956369,226.94048 C 66.382008,224.27198 62.643157,222.54539 60.312369,222.48693 C 58.756834,222.44793 58.789521,221.66932 60.434482,219.57809 C 61.925448,217.68262 64.79382,216.32872 71.846121,214.19169 C 74.497163,213.38835 78.525369,211.74326 80.797691,210.53593 C 84.18829,208.73442 84.969501,207.98834 85.153985,206.37546 C 85.578558,202.66362 80.143386,198.59723 73.502926,197.65861 C 71.186129,197.33114 69.090932,196.8628 68.846898,196.61786 C 68.602871,196.37291 69.565193,194.04063 70.985393,191.435 C 74.282077,185.38662 74.294052,183.63717 71.057929,180.83976 L 68.548287,178.67034 L 70.806231,176.63529 C 75.246822,172.63301 77.813788,169.67261 83.283383,162.24575 C 89.488067,153.82075 93.536462,146.37252 93.536462,143.38218 C 93.536462,140.64836 90.106572,133.32446 86.708129,128.80157 C 85.156919,126.73711 83.987988,124.74729 84.110501,124.37976 C 84.23302,124.01223 85.779459,123.34258 87.54705,122.89167 C 91.524769,121.87695 103.06674,114.61599 107.53428,110.31788 C 113.60933,104.47322 114.06828,101.4094 109.5636,96.771081 C 106.90044,94.028926 99.701374,90.250351 97.138346,90.249463 C 95.92901,90.249043 97.174153,88.872457 102.647,84.159167 C 111.44081,76.585815 116.25968,71.447022 116.25968,69.642675 C 116.25968,68.756931 114.85093,67.21702 112.35135,65.370477 L 108.44302,62.483217 L 111.3381,61.628397 C 120.09456,59.042929 128.06067,45.775264 122.89055,42.387674 C 121.99288,41.799501 119.90132,41.080159 118.24262,40.789144 L 115.2268,40.260017 L 119.80249,37.350798 C 128.83564,31.607492 138.29211,19.472572 138.29376,13.622026 C 138.29492,9.5497785 141.19319,5.1235235 143.32329,5.9409189 C 145.28929,6.6953502 145.99512,10.613934 146.47813,23.456441 C 146.95331,36.090038 146.97557,36.229325 149.1771,40.326706 C 150.48958,42.769431 155.19267,48.590037 160.68302,54.566559 C 165.79035,60.126159 169.96909,64.801315 169.96909,64.955799 C 169.96909,65.110275 166.40568,67.533011 162.0504,70.339631 C 157.69511,73.146251 154.1317,75.605674 154.1317,75.805018 C 154.1317,76.004356 159.55216,81.785782 166.17717,88.652627 L 178.22267,101.1378 L 172.67786,103.73979 C 167.18446,106.3177 163.08327,109.87161 163.08327,112.05406 C 163.08327,113.73943 167.39494,117.43067 172.1238,119.79371 C 174.46367,120.96295 177.95724,123.12114 179.88728,124.58967 C 181.8173,126.0582 184.09364,127.61933 184.94576,128.05885 C 185.79788,128.49838 186.49507,129.1175 186.49507,129.43469 C 186.49507,129.75188 183.09017,131.4831 178.92864,133.28186 C 169.86507,137.19943 166.42555,139.33417 164.8329,142.03033 C 162.45805,146.05063 164.8898,148.56251 178.37588,156.01949 C 185.46962,159.94189 189.92753,164.07538 188.8708,165.75065 C 188.48954,166.35504 186.60251,167.43713 184.67738,168.15527 C 176.13696,171.34112 177.35666,176.19674 187.52794,179.50325 C 191.96175,180.94461 192.51807,181.51041 190.52834,182.55478 C 189.63556,183.02338 187.74312,184.31758 186.32292,185.43076 C 183.10518,187.9529 183.00181,189.89242 185.9087,193.20318 C 188.41536,196.05809 190.66161,197.35356 194.28333,198.033 C 197.52969,198.64203 197.04324,199.31661 190.59506,203.1474 C 185.60038,206.11468 184.55309,207.71808 185.40154,211.09857 C 186.0026,213.49344 190.72704,216.76475 201.88195,222.50999 C 207.1256,225.21069 211.15382,227.65945 210.83352,227.95165 C 210.51321,228.24387 206.22295,230.70196 201.29958,233.41409 C 191.79256,238.65123 188.56081,241.37943 188.56081,244.16803 C 188.56081,246.20699 191.22078,248.04992 196.02798,249.34162 C 197.79122,249.8154 199.50105,250.44005 199.82764,250.72974 C 200.58774,251.40398 196.71781,254.17292 188.33656,258.95157 C 184.68325,261.03453 181.68987,262.95513 181.68459,263.21957 C 181.67932,263.484 185.31587,266.76652 189.76583,270.51406 C 199.02801,278.31419 206.15492,285.70216 205.27046,286.58662 C 203.98786,287.86925 183.71149,288.59982 142.4258,288.85101 C 118.75579,288.99501 91.642861,288.87635 82.174855,288.58731 L 82.174855,288.5873 z"
           style="opacity:1;fill:#1c8e1c;fill-opacity:1;stroke:#5eb315;stroke-width:0.13771646000000001;stroke-miterlimit:4;stroke-dasharray:none;stroke-dashoffset:0;stroke-opacity:1;filter:url(#filter5765)" />
      </g>
    </g>
  </g>
</svg>
