<?xml version="1.0" standalone="no"?>
<!DOCTYPE svg PUBLIC "-//W3C//DTD SVG 20010904//EN"
 "http://www.w3.org/TR/2001/REC-SVG-20010904/DTD/svg10.dtd">
<svg version="1.0" xmlns="http://www.w3.org/2000/svg"
 width="468pt" height="362pt" viewBox="0 0 468 362"
 preserveAspectRatio="xMidYMid meet">
<metadata>
Created by potrace 1.8, written by Peter Selinger 2001-2007
</metadata>
<g transform="translate(0,362) scale(0.138053,-0.138053)"
fill="#000000" stroke="none">
<path d="M1183 1990 c-202 -36 -380 -197 -439 -396 -24 -79 -24 -229 0 -308
52 -173 201 -325 371 -378 97 -30 233 -30 330 0 170 53 319 205 371 378 12 38
18 92 18 154 0 108 -19 183 -66 267 -67 119 -195 225 -316 263 -75 23 -197 32
-269 20z m269 -30 c162 -50 304 -197 354 -366 24 -79 24 -229 0 -308 -36 -123
-120 -234 -229 -306 -174 -114 -420 -114 -594 0 -161 106 -247 266 -247 460 0
108 19 183 66 266 129 229 395 333 650 254z"/>
</g>
</svg>
