<?xml version="1.0" standalone="no"?>
<!DOCTYPE svg PUBLIC "-//W3C//DTD SVG 20010904//EN"
 "http://www.w3.org/TR/2001/REC-SVG-20010904/DTD/svg10.dtd">
<svg version="1.0" xmlns="http://www.w3.org/2000/svg"
 width="422pt" height="648pt" viewBox="0 0 422 648"
 preserveAspectRatio="xMidYMid meet">
<metadata>
Created by potrace 1.8, written by Peter Selinger 2001-2007
</metadata>
<g transform="translate(0,648) scale(0.110017,-0.110017)"
fill="#000000" stroke="none">
<path d="M1520 5784 c-34 -14 -54 -64 -25 -64 8 0 15 -7 15 -15 0 -8 5 -15 11
-15 6 0 9 7 5 15 -8 21 28 55 57 55 26 0 57 -30 75 -74 7 -16 15 -26 18 -23 7
6 -33 85 -52 105 -16 15 -80 25 -104 16z"/>
<path d="M2148 5779 c-10 -5 -18 -15 -18 -22 0 -8 3 -9 8 -1 4 6 16 16 27 22
11 6 16 11 10 11 -5 0 -18 -4 -27 -10z"/>
<path d="M1230 5748 c3 -50 1 -58 -13 -58 -17 0 -47 -32 -47 -49 0 -8 11 -4
29 11 17 12 41 31 55 41 16 11 26 28 26 42 0 13 8 29 18 34 13 8 8 10 -26 11
-43 0 -44 -1 -42 -32z"/>
<path d="M2232 5764 c10 -10 20 -15 24 -12 3 4 -5 12 -18 18 -22 12 -22 12 -6
-6z"/>
<path d="M1320 5765 c0 -12 42 -45 57 -45 14 0 12 4 -7 25 -21 22 -50 34 -50
20z"/>
<path d="M2061 5705 c-24 -12 -24 -13 -4 -23 11 -6 23 -8 27 -5 3 3 18 -6 32
-22 l26 -28 24 29 c13 16 24 25 24 19 0 -5 4 -5 8 2 4 6 20 15 35 18 23 6 27
4 27 -14 0 -13 11 -26 30 -36 36 -19 50 -19 50 -1 0 8 6 16 13 19 6 2 0 2 -15
0 -21 -3 -35 3 -57 26 -37 38 -68 39 -98 5 -24 -28 -50 -27 -81 6 -15 16 -20
17 -41 5z"/>
<path d="M1404 5701 c12 -19 64 -33 83 -22 16 9 15 10 -9 11 -15 0 -38 4 -53
10 -14 5 -24 6 -21 1z"/>
<path d="M1725 5670 c-10 -11 -24 -20 -32 -20 -7 0 -13 -4 -13 -10 0 -16 27
-12 34 5 3 10 20 15 48 15 40 1 42 2 24 15 -26 20 -39 19 -61 -5z"/>
<path d="M1830 5645 c0 -4 7 -13 15 -21 8 -9 15 -26 15 -40 0 -21 4 -24 39
-24 22 0 43 5 46 10 3 6 -5 10 -19 10 -14 0 -30 8 -35 19 -10 18 -61 57 -61
46z"/>
<path d="M1970 5605 c-8 -9 -8 -15 -2 -15 12 0 26 19 19 26 -2 2 -10 -2 -17
-11z"/>
<path d="M1143 5578 c-12 -18 -20 -34 -18 -37 9 -8 46 39 43 54 -2 9 -11 3
-25 -17z"/>
<path d="M2018 5603 c7 -3 16 -2 19 1 4 3 -2 6 -13 5 -11 0 -14 -3 -6 -6z"/>
<path d="M2050 5576 c0 -43 21 -86 42 -86 16 0 18 4 12 23 -4 12 -8 33 -9 45
-3 40 -45 57 -45 18z"/>
<path d="M2224 5574 c-18 -14 -18 -15 4 -4 12 6 22 13 22 15 0 8 -5 6 -26 -11z"/>
<path d="M2395 5581 c-7 -12 12 -24 25 -16 11 7 4 25 -10 25 -5 0 -11 -4 -15
-9z"/>
<path d="M2353 5558 c3 -9 -3 -28 -14 -41 -24 -32 -24 -44 0 -57 32 -17 48
-11 22 9 -22 17 -22 19 -8 47 11 21 13 34 5 45 -8 11 -9 11 -5 -3z"/>
<path d="M1066 5527 c-11 -8 -17 -19 -15 -25 2 -6 16 0 32 14 29 25 15 34 -17
11z"/>
<path d="M2490 5495 c0 -8 9 -15 20 -15 13 0 18 5 14 15 -4 8 -12 15 -20 15
-8 0 -14 -7 -14 -15z"/>
<path d="M925 5463 c-4 -16 -10 -36 -16 -45 -7 -13 -5 -18 5 -18 7 0 16 9 19
20 6 22 28 26 56 10 20 -10 61 12 61 33 0 8 -3 7 -9 -2 -7 -11 -13 -9 -30 8
-12 12 -34 21 -51 21 -24 0 -31 -5 -35 -27z"/>
<path d="M2460 5430 c0 -5 5 -10 11 -10 5 0 7 5 4 10 -3 6 -8 10 -11 10 -2 0
-4 -4 -4 -10z"/>
<path d="M2660 5412 c-37 -25 -34 -49 11 -78 44 -28 51 -57 17 -75 -15 -8 -19
-14 -10 -17 21 -7 62 38 62 68 0 24 -6 29 -45 40 -54 15 -58 37 -10 46 51 9
85 -15 85 -62 0 -34 48 -159 57 -150 3 2 -3 18 -11 35 -10 19 -16 56 -16 104
0 59 -4 77 -18 90 -24 22 -90 22 -122 -1z"/>
<path d="M2512 5406 c7 -8 15 -12 17 -11 5 6 -10 25 -20 25 -5 0 -4 -6 3 -14z"/>
<path d="M845 5380 c-7 -12 34 -110 46 -110 19 0 7 46 -17 69 -14 13 -23 30
-20 38 6 15 0 18 -9 3z"/>
<path d="M2537 5341 c-4 -17 -3 -21 5 -13 5 5 8 16 6 23 -3 8 -7 3 -11 -10z"/>
<path d="M2594 5267 c10 -8 19 -24 20 -38 0 -13 8 -24 16 -25 9 0 10 1 3 3
-18 6 -16 20 3 27 14 5 12 9 -9 26 -14 11 -31 20 -38 20 -8 0 -6 -5 5 -13z"/>
<path d="M2486 5248 c-9 -36 -7 -48 8 -48 7 0 19 -7 26 -15 16 -19 30 -19 30
0 0 9 -12 18 -28 21 -25 5 -28 10 -24 35 5 34 -3 39 -12 7z"/>
<path d="M820 5250 c-12 -8 -12 -10 5 -10 11 0 27 5 35 10 12 8 12 10 -5 10
-11 0 -27 -5 -35 -10z"/>
<path d="M750 5199 c0 -30 -6 -46 -22 -60 l-23 -19 33 -30 c46 -42 70 -39 37
5 -19 24 -10 114 13 133 14 10 12 12 -11 12 -25 0 -27 -3 -27 -41z"/>
<path d="M2686 5148 c10 -36 24 -48 53 -47 23 2 24 2 3 6 -12 2 -29 18 -37 34
-18 34 -29 38 -19 7z"/>
<path d="M2857 5135 l31 -40 -42 2 -41 3 35 -14 c46 -19 47 -19 54 0 4 11 -7
29 -31 53 l-36 36 30 -40z"/>
<path d="M2582 5113 l3 -38 50 -2 c36 -1 42 1 21 5 -28 7 -39 18 -50 55 -10
32 -27 18 -24 -20z"/>
<path d="M2778 5103 c7 -3 16 -2 19 1 4 3 -2 6 -13 5 -11 0 -14 -3 -6 -6z"/>
<path d="M2955 5060 c5 -22 1 -37 -14 -56 -19 -24 -19 -27 -4 -51 11 -16 19
-21 21 -13 3 7 -1 16 -7 20 -9 5 -6 17 10 44 20 34 25 36 53 30 41 -9 44 -11
67 -48 10 -17 19 -26 19 -20 0 26 -47 79 -73 82 -15 2 -27 9 -27 17 0 12 -21
25 -42 25 -5 0 -7 -12 -3 -30z"/>
<path d="M2697 5069 c7 -7 15 -10 18 -7 3 3 -2 9 -12 12 -14 6 -15 5 -6 -5z"/>
<path d="M808 5053 c7 -3 16 -2 19 1 4 3 -2 6 -13 5 -11 0 -14 -3 -6 -6z"/>
<path d="M2813 5035 c0 -8 4 -12 9 -9 4 3 8 9 8 15 0 5 -4 9 -8 9 -5 0 -9 -7
-9 -15z"/>
<path d="M668 5023 c6 -2 18 -2 25 0 6 3 1 5 -13 5 -14 0 -19 -2 -12 -5z"/>
<path d="M782 5014 c-13 -9 -32 -14 -43 -11 -17 4 -18 3 -8 -9 16 -19 24 -18
56 11 32 28 29 33 -5 9z"/>
<path d="M597 4983 c-11 -10 -8 -51 3 -58 6 -4 9 8 8 29 -2 20 -3 36 -4 36 0
0 -4 -3 -7 -7z"/>
<path d="M2803 4965 c7 -13 14 -20 15 -14 5 14 -6 39 -17 39 -5 0 -4 -11 2
-25z"/>
<path d="M2827 4909 c7 -7 15 -10 18 -7 3 3 -2 9 -12 12 -14 6 -15 5 -6 -5z"/>
<path d="M602 4863 c-9 -34 -27 -62 -59 -95 l-47 -48 16 -32 17 -33 0 46 c1
43 5 50 45 85 35 31 46 48 51 82 9 57 -8 53 -23 -5z"/>
<path d="M3090 4880 c-9 -21 -25 -37 -40 -41 -23 -7 -23 -7 6 -8 38 -1 57 18
52 55 l-3 28 -15 -34z"/>
<path d="M2944 4845 c1 -15 9 -20 31 -21 27 -2 28 -1 3 3 -15 2 -29 12 -31 21
-3 12 -4 11 -3 -3z"/>
<path d="M2649 4753 c-13 -16 -12 -17 4 -4 16 13 21 21 13 21 -2 0 -10 -8 -17
-17z"/>
<path d="M2693 4763 c9 -2 25 -2 35 0 9 3 1 5 -18 5 -19 0 -27 -2 -17 -5z"/>
<path d="M2748 4711 c-27 -4 -54 -13 -60 -20 -11 -11 -9 -12 7 -3 12 5 42 6
75 2 59 -8 75 -6 41 5 -12 3 -19 11 -16 16 4 5 5 8 3 8 -2 -1 -24 -5 -50 -8z"/>
<path d="M3040 4693 c-14 -8 -17 -12 -7 -9 10 3 39 6 64 6 53 0 54 7 2 14 -20
2 -45 -2 -59 -11z"/>
<path d="M2601 4690 c0 -20 23 -50 40 -50 9 0 9 3 -3 13 -8 6 -20 21 -26 32
-8 14 -11 15 -11 5z"/>
<path d="M450 4636 c0 -14 7 -32 16 -40 23 -24 30 -19 8 5 -18 20 -18 21 6 40
l25 19 -27 0 c-23 0 -28 -4 -28 -24z"/>
<path d="M3224 4643 c15 -18 17 -31 12 -65 l-7 -42 21 26 c26 34 26 39 -12 74
-18 16 -24 19 -14 7z"/>
<path d="M2815 4590 c-3 -5 -1 -10 4 -10 6 0 11 5 11 10 0 6 -2 10 -4 10 -3 0
-8 -4 -11 -10z"/>
<path d="M3058 4589 c-5 -13 -20 -15 -85 -11 -69 3 -80 2 -100 -17 -24 -23
-30 -55 -13 -66 6 -4 10 6 10 23 0 16 6 35 14 41 15 13 136 12 136 -1 0 -4 9
-8 20 -8 21 0 35 20 28 42 -3 8 -6 7 -10 -3z"/>
<path d="M503 4565 c0 -8 9 -15 20 -15 10 0 17 5 15 13 -7 18 -35 20 -35 2z"/>
<path d="M396 4534 c-24 -23 -20 -24 32 -7 61 20 63 23 19 23 -19 0 -43 -7
-51 -16z"/>
<path d="M2240 4511 c0 -11 93 -81 109 -81 12 0 4 59 -11 75 -6 6 -7 4 -3 -6
4 -10 2 -19 -2 -22 -9 -5 -20 0 -72 31 -11 7 -21 8 -21 3z"/>
<path d="M2740 4498 c0 -9 8 -22 18 -29 16 -13 16 -13 2 5 -8 10 -13 20 -11
23 1 3 0 7 -3 11 -3 3 -6 -2 -6 -10z"/>
<path d="M3231 4458 c-1 -21 4 -38 9 -38 12 0 12 27 0 55 -7 16 -9 13 -9 -17z"/>
<path d="M2915 4470 c2 -4 18 -7 36 -8 17 0 29 1 27 4 -8 7 -68 12 -63 4z"/>
<path d="M352 4452 l-24 -19 36 -38 c42 -44 61 -40 27 6 -13 17 -21 39 -18 50
3 10 4 19 4 19 -1 0 -13 -9 -25 -18z"/>
<path d="M3028 4458 c24 -5 42 -15 42 -23 0 -7 14 -16 30 -20 17 -4 30 -10 30
-15 0 -4 9 -6 19 -3 27 7 -100 73 -137 72 -21 -1 -17 -3 16 -11z"/>
<path d="M3200 4420 c-9 -6 -10 -10 -3 -10 6 0 15 5 18 10 8 12 4 12 -15 0z"/>
<path d="M2780 4400 c6 -11 13 -20 16 -20 2 0 0 9 -6 20 -6 11 -13 20 -16 20
-2 0 0 -9 6 -20z"/>
<path d="M3316 4401 c-3 -5 0 -11 8 -14 15 -6 26 1 26 15 0 11 -27 10 -34 -1z"/>
<path d="M2403 4367 c6 -19 16 -34 22 -34 6 0 23 -3 38 -7 15 -3 27 -2 27 3 0
5 -12 11 -27 13 -18 2 -29 10 -32 23 -3 19 -18 34 -32 35 -3 0 -1 -15 4 -33z"/>
<path d="M2860 4389 c-22 -8 -21 -8 7 -4 18 2 35 1 37 -4 3 -5 19 -11 36 -14
19 -4 34 -16 42 -32 6 -14 15 -25 20 -25 4 0 8 -6 8 -13 0 -15 40 -51 48 -43
3 3 -2 14 -11 24 -10 10 -17 29 -17 41 0 28 -42 71 -72 72 -13 0 -34 2 -48 4
-14 2 -36 -1 -50 -6z"/>
<path d="M381 4300 c-24 -48 -24 -69 -2 -55 6 3 11 16 11 29 0 12 5 27 11 33
6 6 9 18 7 26 -2 10 -13 -5 -27 -33z"/>
<path d="M2507 4334 c-4 -4 0 -15 9 -25 10 -11 15 -28 12 -44 -3 -14 -2 -25 2
-25 12 0 32 56 28 77 -3 18 -38 30 -51 17z"/>
<path d="M2380 4315 c-10 -12 -10 -15 4 -15 9 0 16 7 16 15 0 8 -2 15 -4 15
-2 0 -9 -7 -16 -15z"/>
<path d="M2340 4309 c0 -5 5 -7 10 -4 6 3 10 8 10 11 0 2 -4 4 -10 4 -5 0 -10
-5 -10 -11z"/>
<path d="M3240 4290 c0 -5 15 -10 33 -10 42 0 57 -15 58 -59 0 -20 4 -45 9
-56 6 -13 7 -3 3 28 -4 32 -2 47 6 47 22 0 10 18 -25 39 -37 22 -84 28 -84 11z"/>
<path d="M2310 4265 c-13 -14 -19 -25 -13 -25 12 0 48 38 41 45 -2 3 -15 -6
-28 -20z"/>
<path d="M3240 4249 c0 -5 5 -7 10 -4 6 3 10 8 10 11 0 2 -4 4 -10 4 -5 0 -10
-5 -10 -11z"/>
<path d="M3078 4243 c7 -3 16 -2 19 1 4 3 -2 6 -13 5 -11 0 -14 -3 -6 -6z"/>
<path d="M2251 4224 l-24 -12 23 -4 c21 -3 19 -6 -22 -50 -32 -34 -52 -48 -71
-48 -34 0 -35 -16 -3 -24 28 -7 76 8 76 24 0 5 6 10 14 10 7 0 19 19 25 43 11
38 16 43 43 45 17 1 38 7 47 13 12 8 6 9 -26 6 -22 -3 -45 -2 -50 3 -4 4 -19
1 -32 -6z"/>
<path d="M3130 4230 c20 -13 33 -13 25 0 -3 6 -14 10 -23 10 -15 0 -15 -2 -2
-10z"/>
<path d="M3170 4231 c0 -17 14 -18 40 -5 l25 14 -32 0 c-18 0 -33 -4 -33 -9z"/>
<path d="M2505 4220 c-3 -5 -1 -10 4 -10 6 0 11 5 11 10 0 6 -2 10 -4 10 -3 0
-8 -4 -11 -10z"/>
<path d="M294 4174 c-20 -49 -15 -50 18 -3 21 30 24 39 12 39 -8 0 -22 -16
-30 -36z"/>
<path d="M2410 4203 c0 -6 12 -37 26 -69 18 -40 24 -68 20 -89 -4 -20 -3 -25
3 -16 5 8 9 38 9 67 -1 44 -6 59 -29 85 -16 18 -29 28 -29 22z"/>
<path d="M2170 4190 c-23 -7 -23 -8 -3 -9 12 -1 25 4 28 9 3 6 5 10 3 9 -2 -1
-14 -5 -28 -9z"/>
<path d="M2739 4177 c6 -8 8 -17 4 -20 -3 -4 1 -7 9 -7 11 0 14 6 11 20 -3 11
-12 20 -20 20 -12 0 -13 -3 -4 -13z"/>
<path d="M2481 4164 c0 -11 3 -14 6 -6 3 7 2 16 -1 19 -3 4 -6 -2 -5 -13z"/>
<path d="M2679 4151 c-13 -11 -22 -21 -19 -23 3 -2 16 6 29 19 29 28 22 30
-10 4z"/>
<path d="M2080 4130 c0 -5 5 -10 10 -10 6 0 10 5 10 10 0 6 -4 10 -10 10 -5 0
-10 -4 -10 -10z"/>
<path d="M2761 4124 c0 -11 3 -14 6 -6 3 7 2 16 -1 19 -3 4 -6 -2 -5 -13z"/>
<path d="M3359 4123 c6 -12 9 -28 6 -36 -5 -10 1 -13 24 -9 32 4 32 4 -18 47
l-24 20 12 -22z"/>
<path d="M281 4109 c-1 -9 7 -23 17 -30 15 -12 16 -12 6 1 -6 8 -14 22 -17 30
-5 13 -6 12 -6 -1z"/>
<path d="M2621 4099 c-12 -10 -27 -16 -32 -13 -5 3 -9 0 -9 -5 0 -6 6 -11 13
-11 14 1 62 38 56 44 -2 3 -15 -4 -28 -15z"/>
<path d="M2686 4091 c-25 -5 -54 -40 -69 -84 -1 -5 -15 -9 -30 -9 -30 0 -35
-15 -10 -33 12 -9 24 -9 45 -1 25 9 28 15 28 53 0 23 5 45 10 48 24 15 71 7
95 -15 26 -25 31 -17 16 23 -10 25 -27 29 -85 18z"/>
<path d="M3296 4075 c-22 -17 -15 -45 11 -45 15 0 16 2 3 10 -13 9 -11 13 10
30 29 23 6 28 -24 5z"/>
<path d="M330 4064 c37 -8 88 -9 84 -2 -3 4 -26 7 -52 7 -26 -1 -40 -3 -32 -5z"/>
<path d="M2505 4038 c-33 -19 -43 -33 -45 -64 -3 -47 -1 -52 20 -47 16 4 19
11 14 27 -3 11 -10 25 -15 30 -13 14 20 46 48 46 12 0 23 5 23 10 0 13 -20 12
-45 -2z"/>
<path d="M1915 4020 c-10 -16 3 -27 39 -34 27 -5 70 -34 55 -37 -46 -9 -53 -7
-79 21 -17 18 -31 26 -35 20 -10 -17 4 -30 61 -57 29 -14 56 -33 59 -43 8 -25
32 -43 46 -35 8 6 7 10 -2 16 -8 5 -9 9 -3 9 20 0 11 32 -13 41 -27 10 -31 29
-5 29 16 1 16 1 0 14 -10 7 -18 18 -18 25 0 6 -8 11 -19 11 -10 0 -24 7 -31
15 -14 17 -46 20 -55 5z"/>
<path d="M545 4010 c3 -5 8 -10 11 -10 2 0 4 5 4 10 0 6 -5 10 -11 10 -5 0 -7
-4 -4 -10z"/>
<path d="M616 3967 c3 -10 9 -15 12 -12 3 3 0 11 -7 18 -10 9 -11 8 -5 -6z"/>
<path d="M3102 3951 c-33 -28 -27 -31 18 -10 22 11 40 22 40 24 0 12 -39 3
-58 -14z"/>
<path d="M3178 3963 c7 -3 16 -2 19 1 4 3 -2 6 -13 5 -11 0 -14 -3 -6 -6z"/>
<path d="M580 3925 c-7 -8 -21 -15 -31 -15 -10 0 -21 -5 -25 -11 -4 -8 1 -9
17 -4 25 8 69 34 69 41 0 10 -19 3 -30 -11z"/>
<path d="M3205 3919 c-4 -6 -5 -12 -2 -15 2 -3 7 2 10 11 7 17 1 20 -8 4z"/>
<path d="M2105 3858 c19 -34 48 -77 65 -95 16 -19 30 -42 30 -53 0 -22 16 -35
25 -20 12 20 -5 60 -30 72 -16 7 -25 19 -25 35 0 12 -4 23 -10 23 -5 0 -10 6
-10 14 0 8 -9 18 -20 21 -13 4 -23 18 -27 36 -3 16 -12 29 -19 29 -9 0 -3 -20
21 -62z"/>
<path d="M2938 3913 c-21 -5 -23 -26 -5 -41 8 -7 31 -6 71 1 54 10 60 9 75 -9
11 -14 23 -19 35 -14 17 6 17 7 2 23 -9 9 -23 14 -31 11 -8 -4 -15 -1 -15 5 0
6 -7 8 -17 4 -11 -4 -14 -3 -9 5 4 7 1 13 -6 13 -44 5 -85 6 -100 2z"/>
<path d="M3238 3890 c12 -11 26 -20 32 -20 5 0 1 9 -10 20 -11 11 -25 20 -32
20 -6 0 -2 -9 10 -20z"/>
<path d="M3176 3885 c-3 -8 -1 -15 4 -15 6 0 10 7 10 15 0 8 -2 15 -4 15 -2 0
-6 -7 -10 -15z"/>
<path d="M365 3880 c19 -8 113 -14 104 -6 -2 2 -31 6 -64 9 -38 4 -53 3 -40
-3z"/>
<path d="M280 3870 c-8 -5 -12 -12 -9 -15 4 -3 12 1 19 10 14 17 11 19 -10 5z"/>
<path d="M3153 3842 c-3 -12 -9 -22 -14 -22 -5 0 -9 -7 -9 -15 0 -8 4 -15 9
-15 11 0 33 61 26 69 -3 3 -8 -5 -12 -17z"/>
<path d="M3061 3826 c-16 -19 -3 -66 18 -66 16 0 38 -20 60 -56 11 -17 11 -16
6 6 -4 14 -25 42 -47 62 -36 31 -40 39 -29 52 8 9 11 16 8 16 -2 0 -10 -6 -16
-14z"/>
<path d="M2046 3798 c-12 -75 -15 -102 -9 -112 7 -11 32 77 33 117 0 38 -18
34 -24 -5z"/>
<path d="M205 3809 c-11 -17 1 -21 15 -4 8 9 8 15 2 15 -6 0 -14 -5 -17 -11z"/>
<path d="M3323 3794 c-12 -15 -20 -31 -17 -36 7 -10 40 32 36 45 -3 11 6 9 33
-9 14 -9 25 -22 25 -30 0 -7 5 -16 11 -20 8 -4 9 0 4 15 -7 25 3 27 52 9 34
-12 54 -5 36 13 -5 5 -32 14 -59 19 -27 5 -60 12 -74 15 -20 5 -30 0 -47 -21z"/>
<path d="M2333 3766 c-3 -5 -2 -6 3 -3 18 10 36 -10 40 -45 5 -33 4 -34 -38
-43 -33 -8 -46 -17 -56 -38 -8 -16 -11 -31 -8 -34 3 -3 9 3 13 13 10 28 31 46
44 38 6 -4 27 -10 45 -14 39 -9 43 0 20 55 -10 22 -11 37 -5 41 6 3 9 13 7 22
-3 17 -56 24 -65 8z"/>
<path d="M150 3746 c0 -7 -13 -16 -30 -19 -16 -4 -30 -11 -30 -17 0 -7 9 -9
23 -4 39 11 76 54 47 54 -5 0 -10 -6 -10 -14z"/>
<path d="M2285 3721 c-15 -22 -36 -43 -46 -46 -23 -7 -25 -25 -4 -25 8 0 15 5
15 10 0 6 7 10 15 10 8 0 15 7 15 15 0 8 5 15 12 15 6 0 8 3 5 7 -4 3 0 15 10
25 9 10 14 21 10 24 -3 3 -18 -12 -32 -35z"/>
<path d="M3470 3740 c-8 -5 -26 -10 -40 -10 -14 0 -20 -4 -14 -8 5 -4 18 -18
27 -32 9 -13 17 -19 17 -13 0 7 -4 15 -10 18 -5 3 2 17 18 30 28 25 29 32 2
15z"/>
<path d="M3208 3700 c2 -16 7 -30 11 -30 4 0 6 14 3 30 -2 17 -7 30 -11 30 -4
0 -6 -13 -3 -30z"/>
<path d="M65 3688 c-10 -27 -21 -138 -14 -138 16 0 24 27 24 87 0 64 -2 73
-10 51z"/>
<path d="M2079 3663 c-13 -15 -11 -16 17 -10 17 3 36 1 42 -5 5 -5 16 -7 23
-3 9 6 7 11 -6 22 -26 18 -60 16 -76 -4z"/>
<path d="M2908 3656 c-28 -20 -22 -25 31 -24 61 0 91 -18 91 -54 l0 -28 83 1
c91 0 80 15 -15 21 -50 3 -53 5 -56 31 -2 20 -8 27 -18 23 -9 -3 -16 3 -20 19
-5 21 -12 25 -43 25 -20 0 -44 -7 -53 -14z"/>
<path d="M3254 3662 c4 -3 14 -7 22 -8 9 -1 13 0 10 4 -4 3 -14 7 -22 8 -9 1
-13 0 -10 -4z"/>
<path d="M2040 3639 c0 -7 8 -18 18 -26 16 -13 16 -14 -4 -8 -18 5 -20 2 -16
-25 3 -23 9 -30 27 -30 38 0 50 24 29 59 -11 19 -23 27 -32 23 -10 -3 -13 -1
-8 6 4 7 2 12 -3 12 -6 0 -11 -5 -11 -11z"/>
<path d="M3106 3641 c-12 -5 -15 -10 -9 -14 6 -4 16 0 23 8 14 17 13 17 -14 6z"/>
<path d="M2160 3627 c0 -7 9 -23 20 -35 11 -12 20 -26 20 -32 0 -5 6 -10 14
-10 7 0 19 -7 26 -15 16 -20 64 -19 80 1 11 13 10 19 -8 37 -18 17 -22 18 -22
6 0 -28 -51 -13 -86 25 -36 39 -44 43 -44 23z"/>
<path d="M3060 3620 c-9 -6 -10 -10 -3 -10 6 0 15 5 18 10 8 12 4 12 -15 0z"/>
<path d="M3280 3560 c-9 -6 -10 -10 -3 -10 6 0 15 5 18 10 8 12 4 12 -15 0z"/>
<path d="M8 3543 c7 -3 16 -2 19 1 4 3 -2 6 -13 5 -11 0 -14 -3 -6 -6z"/>
<path d="M3448 3526 c-10 -7 -18 -18 -18 -25 0 -6 -7 -11 -15 -11 -8 0 -15 -7
-15 -15 0 -8 -6 -15 -12 -15 -13 0 31 -39 44 -40 3 0 4 9 1 20 -3 12 6 34 27
60 31 39 24 54 -12 26z"/>
<path d="M3523 3504 c23 -27 22 -33 -10 -67 -27 -30 -15 -29 20 1 23 21 21 45
-5 68 -23 19 -23 19 -5 -2z"/>
<path d="M7 3489 c7 -7 15 -10 18 -7 3 3 -2 9 -12 12 -14 6 -15 5 -6 -5z"/>
<path d="M3608 3423 c-9 -2 -19 -11 -22 -19 -4 -12 -2 -12 14 -4 15 8 40 33
28 29 -2 -1 -10 -3 -20 -6z"/>
<path d="M3460 3400 c-9 -6 -10 -10 -3 -10 6 0 15 5 18 10 8 12 4 12 -15 0z"/>
<path d="M3376 3384 l-28 -16 28 -15 c16 -8 38 -23 50 -34 21 -20 21 -20 72 6
28 14 54 30 57 35 12 19 -35 10 -55 -10 -18 -18 -25 -19 -63 -9 -58 15 -61 18
-41 40 20 23 18 23 -20 3z"/>
<path d="M2654 3339 c-35 -12 -35 -24 -1 -23 38 2 67 -12 67 -29 0 -25 73 -53
126 -48 l49 5 -40 7 c-22 4 -43 5 -47 2 -5 -2 -8 0 -8 5 0 6 -12 13 -26 16
-28 7 -54 28 -54 44 0 15 -44 30 -66 21z"/>
<path d="M256 3291 c-15 -17 -15 -19 -1 -24 8 -4 15 -16 15 -27 0 -18 6 -20
58 -20 l57 1 -37 19 c-20 11 -39 28 -43 39 -8 27 -30 33 -49 12z"/>
<path d="M3010 3295 c-8 -9 -8 -15 -2 -15 12 0 26 19 19 26 -2 2 -10 -2 -17
-11z"/>
<path d="M2924 3268 l-19 -23 23 19 c21 18 27 26 19 26 -2 0 -12 -10 -23 -22z"/>
<path d="M3450 3275 c0 -8 5 -15 10 -15 6 0 10 7 10 15 0 8 -4 15 -10 15 -5 0
-10 -7 -10 -15z"/>
<path d="M42 3268 c-9 -9 -5 -15 19 -25 17 -7 39 -13 48 -12 11 0 9 3 -6 9
-13 5 -23 16 -23 25 0 18 -21 20 -38 3z"/>
<path d="M2969 3263 c-13 -16 -12 -17 4 -4 16 13 21 21 13 21 -2 0 -10 -8 -17
-17z"/>
<path d="M2533 3245 c-22 -18 -30 -31 -26 -42 5 -13 2 -15 -11 -10 -19 7 -57
-24 -69 -57 -8 -20 2 -20 28 -2 32 21 92 26 130 10 42 -17 84 -18 90 -1 2 6 6
33 10 58 6 44 5 47 -17 46 -20 -2 -23 -7 -22 -43 1 -41 0 -42 -28 -37 -35 5
-98 31 -98 40 0 3 3 4 6 0 8 -7 27 11 43 41 15 29 4 28 -36 -3z"/>
<path d="M695 3235 c-12 -8 -42 -14 -72 -15 -52 0 -77 -13 -47 -24 9 -4 38 -4
63 0 56 7 76 -9 69 -56 -6 -39 -3 -38 17 4 17 36 17 97 0 103 -6 2 -20 -3 -30
-12z"/>
<path d="M3620 3232 c0 -16 28 -41 48 -42 7 0 12 12 12 28 0 23 -4 27 -30 28
-20 1 -30 -4 -30 -14z"/>
<path d="M165 3230 c-24 -5 -27 -8 -13 -14 22 -10 50 -4 56 12 4 13 2 13 -43
2z"/>
<path d="M3450 3220 c0 -5 5 -10 10 -10 6 0 10 5 10 10 0 6 -4 10 -10 10 -5 0
-10 -4 -10 -10z"/>
<path d="M2944 3212 c5 -9 -7 -12 -41 -12 -35 0 -44 -3 -33 -10 22 -14 66 -12
79 4 9 11 9 16 0 22 -8 4 -9 3 -5 -4z"/>
<path d="M3360 3194 c0 -6 7 -17 15 -24 13 -10 19 -8 39 13 l24 26 -39 -2
c-22 -1 -39 -6 -39 -13z"/>
<path d="M500 3190 l-35 -7 37 -2 c20 0 40 4 43 9 7 11 7 11 -45 0z"/>
<path d="M3464 3085 c-3 -13 -12 -29 -20 -36 -25 -21 -17 -55 16 -69 17 -7 30
-19 30 -26 0 -8 5 -14 11 -14 6 0 2 16 -10 36 -17 29 -20 45 -15 85 7 51 -1
67 -12 24z"/>
<path d="M3545 3070 c-8 -26 1 -39 25 -37 27 2 34 27 13 43 -24 18 -31 17 -38
-6z"/>
<path d="M629 3043 c-13 -16 -12 -17 4 -4 9 7 17 15 17 17 0 8 -8 3 -21 -13z"/>
<path d="M425 3012 c-16 -10 -33 -21 -37 -27 -12 -15 -9 -53 4 -61 8 -5 9 0 5
15 -11 45 66 82 103 49 7 -7 5 -1 -6 14 -22 31 -28 32 -69 10z"/>
<path d="M549 2993 c-13 -15 -12 -15 9 -4 23 12 28 21 13 21 -5 0 -15 -7 -22
-17z"/>
<path d="M3593 2894 c-16 -15 -31 -19 -57 -16 -22 3 -33 8 -29 15 3 6 1 7 -5
3 -7 -4 -12 -13 -12 -19 0 -12 94 -87 109 -87 13 0 21 -27 15 -47 -4 -12 1 -9
15 7 27 33 26 51 -4 86 -37 44 -34 58 5 24 13 -11 28 -20 34 -20 24 0 63 -45
62 -72 -1 -19 8 -37 30 -58 18 -16 35 -30 38 -30 3 0 6 20 6 45 0 35 -6 51
-30 78 -16 19 -30 42 -30 50 0 9 -4 19 -10 22 -5 3 -10 0 -10 -8 0 -9 -12 -14
-36 -15 -31 -1 -34 1 -24 13 7 8 9 15 4 16 -5 0 1 4 14 9 12 5 30 7 40 3 13
-5 14 -3 5 7 -7 7 -29 11 -57 9 -25 -2 -47 -2 -48 1 -2 3 -13 -4 -25 -16z"/>
<path d="M206 2901 c-9 -13 20 -21 77 -21 48 1 50 2 33 15 -22 16 -101 20
-110 6z"/>
<path d="M355 2890 c-19 -8 -19 -9 2 -9 12 -1 25 4 28 9 7 12 -2 12 -30 0z"/>
<path d="M138 2864 c-16 -8 -28 -16 -28 -17 0 -2 16 -1 35 1 21 3 35 10 35 18
0 17 -8 17 -42 -2z"/>
<path d="M3338 2820 c-4 -28 -4 -29 14 -13 21 19 24 43 4 43 -8 0 -16 -13 -18
-30z"/>
<path d="M97 2823 c-13 -13 -7 -31 13 -36 11 -3 20 -2 20 1 -1 14 -27 41 -33
35z"/>
<path d="M2634 2790 c-11 -5 -28 -24 -37 -43 -19 -40 -23 -73 -5 -42 16 27 29
40 51 48 12 5 17 1 17 -13 0 -23 20 -70 31 -70 4 0 3 16 -3 36 -5 20 -7 42 -4
49 8 21 -26 44 -50 35z"/>
<path d="M2994 2777 c-29 -15 -38 -37 -40 -90 -2 -26 -10 -59 -18 -72 -20 -30
-20 -32 -1 -32 8 0 13 2 11 5 -3 2 6 24 20 49 13 25 24 58 24 73 0 14 6 35 14
45 17 23 48 14 39 -12 -4 -13 -3 -15 6 -7 28 26 -18 61 -55 41z"/>
<path d="M116 2754 c-4 -9 -4 -19 -2 -21 8 -8 26 8 26 23 0 19 -16 18 -24 -2z"/>
<path d="M3262 2714 c-8 -8 -11 -22 -8 -30 3 -8 2 -13 -3 -10 -5 3 -18 -3 -30
-13 -31 -27 -11 -34 27 -9 24 15 32 27 32 49 0 33 0 33 -18 13z"/>
<path d="M3720 2720 c0 -5 5 -10 11 -10 5 0 7 5 4 10 -3 6 -8 10 -11 10 -2 0
-4 -4 -4 -10z"/>
<path d="M50 2689 c-27 -18 -37 -29 -26 -29 25 0 54 17 66 40 13 24 15 25 -40
-11z"/>
<path d="M3022 2696 c-9 -20 -7 -27 10 -42 33 -31 38 -48 21 -82 -9 -18 -13
-35 -9 -39 8 -9 56 18 56 31 0 6 10 16 22 21 27 12 36 35 14 35 -9 0 -19 7
-23 15 -3 9 -21 22 -40 30 -28 12 -34 19 -30 35 7 28 -7 25 -21 -4z m103 -85
c3 -6 -3 -15 -14 -20 -27 -15 -30 -14 -28 9 1 21 31 28 42 11z"/>
<path d="M2600 2683 c0 -7 5 -13 10 -13 6 0 10 -13 10 -30 0 -29 2 -30 45 -30
32 0 45 -4 45 -14 0 -8 6 -16 14 -19 8 -3 16 -18 18 -34 4 -38 20 -35 32 5 7
25 13 31 25 26 9 -4 34 -9 56 -10 37 -3 37 -3 9 5 -17 4 -48 17 -70 29 -21 11
-51 23 -66 26 -72 15 -84 20 -105 45 -12 14 -22 20 -23 14z"/>
<path d="M3605 2647 c-8 -20 -16 -47 -18 -59 -2 -19 2 -22 23 -20 14 2 49 3
78 3 28 -1 52 4 52 9 0 6 -4 10 -10 10 -5 0 -19 9 -30 20 -20 20 -56 29 -46
11 3 -5 -1 -12 -10 -15 -24 -9 -26 -2 -6 20 18 19 18 20 0 38 -17 19 -18 18
-33 -17z"/>
<path d="M3490 2638 c-30 -16 -56 -34 -58 -39 -2 -5 -10 -9 -17 -9 -7 0 -29
-19 -49 -42 -20 -24 -45 -53 -56 -65 -15 -16 -16 -24 -7 -31 9 -8 22 3 48 41
37 55 94 101 112 90 5 -3 8 -2 5 3 -3 5 11 20 33 33 21 14 40 30 43 38 3 7 4
12 3 12 -1 -1 -27 -15 -57 -31z"/>
<path d="M3014 2626 c-10 -8 -17 -16 -14 -19 3 -2 14 4 24 14 23 22 18 25 -10
5z"/>
<path d="M1683 2563 c-7 -2 -13 -11 -13 -19 0 -8 -3 -13 -7 -13 -21 3 -40 -3
-63 -21 l-25 -20 25 3 c16 1 24 -3 22 -11 -1 -7 11 -25 28 -40 16 -15 30 -30
30 -35 0 -5 7 -15 16 -24 14 -14 15 -10 8 46 -5 44 -3 61 5 61 8 0 11 13 9 37
-3 36 -12 46 -35 36z"/>
<path d="M2980 2562 c0 -6 -10 -20 -21 -31 l-21 -20 20 6 c21 5 39 39 28 50
-3 4 -6 1 -6 -5z"/>
<path d="M3490 2530 c-8 -4 -28 -14 -45 -21 l-30 -14 43 -3 c45 -3 72 10 72
34 0 15 -17 17 -40 4z"/>
<path d="M2360 2493 c-14 -3 -28 -10 -32 -16 -9 -15 12 -28 37 -22 11 3 14 2
7 -1 -6 -3 -10 -10 -6 -15 3 -5 1 -9 -5 -9 -5 0 -12 4 -15 9 -6 10 -31 9 -41
-1 -4 -3 10 -18 29 -33 29 -22 36 -34 36 -61 0 -19 -4 -42 -9 -52 -30 -58 -81
-170 -81 -176 0 -4 -5 -12 -10 -19 -22 -27 -98 -135 -109 -155 -23 -43 -1 -21
46 46 45 64 135 173 118 143 -5 -10 -4 -12 4 -7 6 4 9 11 6 16 -3 4 9 43 26
86 31 77 34 115 14 179 -3 11 5 0 18 -25 l25 -45 11 40 c6 22 11 48 11 57 0 9
5 20 10 23 20 13 10 27 -15 21 -18 -5 -25 -2 -25 9 0 15 -5 16 -50 8z m44 -48
c3 -9 0 -15 -9 -15 -9 0 -12 6 -9 15 4 8 7 15 9 15 2 0 5 -7 9 -15z"/>
<path d="M2511 2449 c5 -28 11 -54 14 -58 4 -3 30 -11 58 -17 l51 -12 -25 19
c-13 10 -37 23 -54 27 -25 7 -31 14 -33 43 -2 19 -7 38 -11 42 -5 5 -5 -15 0
-44z"/>
<path d="M1550 2475 c-8 -8 -33 -21 -55 -29 l-40 -15 36 0 c34 -1 53 11 73 47
10 16 4 15 -14 -3z"/>
<path d="M2817 2470 c-14 -11 -30 -20 -36 -20 -6 0 -11 -4 -11 -10 0 -5 14
-10 30 -10 22 0 30 5 30 18 0 10 5 23 12 30 19 19 3 14 -25 -8z"/>
<path d="M2268 2452 c-10 -2 -18 -8 -18 -13 0 -11 11 -11 30 1 18 11 11 18
-12 12z"/>
<path d="M1358 2413 c-46 -23 -32 -35 15 -12 52 27 55 29 31 28 -10 -1 -31 -8
-46 -16z"/>
<path d="M3269 2390 c-65 -81 -76 -126 -38 -166 29 -30 20 -51 -47 -107 -31
-26 -53 -47 -49 -47 8 0 61 43 116 93 29 25 30 31 24 75 -5 37 -1 60 15 102
11 29 20 63 18 74 -3 18 -8 14 -39 -24z"/>
<path d="M2214 2399 c-10 -12 -32 -30 -49 -40 l-30 -19 32 0 c25 0 38 8 57 33
15 19 26 37 26 40 0 14 -17 6 -36 -14z"/>
<path d="M475 2390 c-3 -5 3 -18 14 -29 19 -19 19 -19 25 2 3 11 3 24 0 29 -7
11 -31 10 -39 -2z"/>
<path d="M370 2356 c0 -15 5 -14 70 7 8 3 -4 6 -27 6 -31 1 -43 -3 -43 -13z"/>
<path d="M2015 2360 c-7 -11 9 -11 45 0 24 8 24 8 -7 9 -17 1 -35 -3 -38 -9z"/>
<path d="M1222 2338 c-19 -19 -14 -62 8 -76 12 -7 20 -8 20 -2 0 5 -4 10 -10
10 -16 0 -23 49 -10 65 15 18 9 20 -8 3z"/>
<path d="M1723 2315 c0 -22 2 -30 4 -17 2 12 2 30 0 40 -3 9 -5 -1 -4 -23z"/>
<path d="M2595 2334 c-11 -9 -41 -26 -67 -39 -26 -12 -54 -28 -62 -35 -20 -16
-44 -6 -55 22 -7 21 -8 20 -13 -10 -4 -28 -2 -32 15 -26 21 7 18 -5 -11 -38
-8 -10 -10 -18 -5 -18 6 0 16 7 23 15 7 8 19 15 27 15 17 0 65 30 76 47 4 7
14 13 21 13 8 0 19 7 26 15 8 9 30 15 59 16 38 0 42 2 24 9 -13 5 -23 14 -23
20 0 14 -12 12 -35 -6z"/>
<path d="M165 2320 c25 -27 108 -80 127 -80 9 0 21 7 28 15 10 13 9 15 -11 15
-27 0 -102 35 -119 56 -7 7 -19 14 -28 14 -13 0 -12 -3 3 -20z"/>
<path d="M540 2330 c-13 -8 -12 -10 4 -10 11 0 28 -8 39 -17 18 -17 19 -17 16
7 -4 27 -33 37 -59 20z"/>
<path d="M1936 2321 c-9 -10 -22 -44 -28 -75 -12 -55 -12 -57 15 -83 l27 -28
0 84 c0 65 4 89 17 103 14 15 14 18 1 18 -8 0 -22 -8 -32 -19z"/>
<path d="M346 2312 c-4 -13 -5 -26 -2 -29 10 -11 18 4 14 29 l-4 23 -8 -23z"/>
<path d="M38 2285 c-21 -20 -38 -42 -38 -50 0 -28 18 -15 49 35 17 28 30 50
28 50 -1 0 -19 -16 -39 -35z"/>
<path d="M2711 2278 c16 -18 30 -44 31 -58 1 -14 3 -34 4 -45 1 -11 2 -26 3
-32 1 -7 10 -13 21 -13 10 0 24 -9 30 -20 17 -31 30 -23 30 18 0 34 -4 40 -32
53 -21 9 -35 24 -40 43 -7 28 -54 86 -69 86 -4 0 5 -15 22 -32z"/>
<path d="M660 2270 l-45 -6 37 -8 c20 -4 41 -5 47 -1 7 3 11 -2 11 -14 0 -18
6 -21 44 -21 27 0 48 6 56 16 20 23 63 14 70 -16 5 -22 7 -23 13 -7 14 37 8
47 -27 47 -18 0 -51 -6 -73 -14 -42 -15 -73 -7 -73 19 0 8 -3 14 -7 13 -5 0
-28 -4 -53 -8z"/>
<path d="M1281 2220 c19 -34 30 -40 44 -27 15 14 9 31 -6 21 -6 -3 -20 2 -31
13 -21 18 -21 18 -7 -7z"/>
<path d="M1708 2173 c-16 -63 -16 -70 0 -93 18 -26 18 -29 21 -125 l1 -60 24
36 c41 61 42 83 6 111 -32 25 -32 27 -33 112 0 47 -1 86 -2 86 0 0 -8 -30 -17
-67z"/>
<path d="M1375 2164 c17 -16 42 -42 57 -59 15 -16 28 -24 28 -17 0 14 -39 53
-85 85 l-30 20 30 -29z"/>
<path d="M2359 2163 c-13 -16 -12 -17 4 -4 9 7 17 15 17 17 0 8 -8 3 -21 -13z"/>
<path d="M1203 2140 c-12 -5 -65 -10 -117 -11 -73 -2 -97 -6 -101 -17 -4 -12
-3 -12 9 -3 9 8 16 8 20 2 8 -13 131 -7 169 8 59 23 82 15 141 -51 31 -34 58
-59 60 -57 7 8 -35 86 -59 109 -26 24 -88 35 -122 20z"/>
<path d="M860 2105 c0 -19 4 -35 8 -35 4 0 6 16 4 35 -2 19 -6 35 -8 35 -2 0
-4 -16 -4 -35z"/>
<path d="M1377 2120 c3 -11 12 -20 21 -20 13 0 12 3 -3 20 -10 11 -19 20 -21
20 -1 0 0 -9 3 -20z"/>
<path d="M1950 2054 c0 -59 3 -75 12 -66 6 6 13 35 16 65 3 40 0 56 -12 66
-14 12 -16 6 -16 -65z"/>
<path d="M945 2080 c-3 -5 -1 -10 4 -10 6 0 11 5 11 10 0 6 -2 10 -4 10 -3 0
-8 -4 -11 -10z"/>
<path d="M1458 2064 c-3 -5 -9 -24 -13 -42 -5 -26 -11 -33 -25 -29 -16 4 -15
1 4 -28 23 -33 119 -135 128 -135 9 0 -9 79 -21 93 -13 17 -5 27 23 27 18 0
14 7 -22 43 -23 23 -48 51 -56 61 -7 10 -15 15 -18 10z"/>
<path d="M2844 2041 c23 -26 69 -44 98 -38 18 3 16 5 -9 6 -17 0 -34 5 -38 10
-3 6 -20 17 -37 25 -30 16 -31 16 -14 -3z"/>
<path d="M2988 2013 c6 -2 18 -2 25 0 6 3 1 5 -13 5 -14 0 -19 -2 -12 -5z"/>
<path d="M2211 1960 c-30 -27 -57 -47 -61 -45 -8 5 -31 -18 -45 -45 -5 -10 -1
-8 13 4 24 21 25 18 13 -36 -5 -21 -7 -38 -6 -38 2 0 13 17 26 38 12 20 39 57
59 82 33 40 66 91 58 90 -2 -1 -27 -23 -57 -50z"/>
<path d="M1932 1935 c-16 -35 -15 -76 3 -99 14 -18 15 -13 15 52 0 40 -2 72
-3 72 -2 0 -9 -11 -15 -25z"/>
<path d="M1580 1940 c0 -11 42 -51 48 -46 2 2 -1 13 -7 24 -11 21 -41 37 -41
22z"/>
<path d="M1726 1874 c-3 -9 -6 -24 -6 -35 0 -28 -31 -24 -56 9 -29 36 -39 25
-14 -16 32 -52 71 -40 85 26 7 33 2 44 -9 16z"/>
<path d="M2044 1790 c-15 -22 -25 -43 -22 -46 3 -3 17 15 31 40 32 57 26 60
-9 6z"/>
<path d="M1952 1780 c0 -14 2 -19 5 -12 2 6 2 18 0 25 -3 6 -5 1 -5 -13z"/>
<path d="M1615 1770 c10 -11 20 -20 23 -20 3 0 -3 9 -13 20 -10 11 -20 20 -23
20 -3 0 3 -9 13 -20z"/>
<path d="M1950 1705 c0 -35 4 -45 16 -45 9 0 18 9 21 20 3 11 9 20 14 20 5 0
9 5 9 10 0 6 -7 10 -15 10 -9 0 -18 7 -21 15 -12 30 -24 14 -24 -30z"/>
<path d="M2008 1638 c-73 -92 -84 -133 -51 -188 14 -25 15 -36 5 -82 -9 -38
-9 -67 -2 -103 19 -93 22 -120 12 -145 -9 -25 -9 -25 -17 10 -4 19 -13 39 -19
43 -8 6 -8 10 2 14 14 6 16 43 2 43 -18 0 -16 -110 2 -121 6 -4 8 -14 5 -22
-4 -11 -1 -14 7 -11 11 4 15 -14 21 -73 4 -43 13 -89 20 -103 16 -28 16 -14
-4 315 -21 335 -20 344 14 395 41 61 47 70 42 70 -3 0 -20 -19 -39 -42z"/>
<path d="M1739 1438 c4 -250 19 -242 19 10 0 115 -3 176 -11 186 -9 13 -11
-32 -8 -196z"/>
<path d="M1731 1194 c0 -11 3 -14 6 -6 3 7 2 16 -1 19 -3 4 -6 -2 -5 -13z"/>
<path d="M1947 1029 c4 -13 8 -18 11 -10 2 7 -1 18 -6 23 -8 8 -9 4 -5 -13z"/>
<path d="M1731 1020 c-1 -14 -3 -51 -6 -82 -2 -32 1 -60 5 -63 15 -9 23 64 13
118 -6 30 -11 41 -12 27z"/>
<path d="M1913 849 c-12 -12 -7 -39 8 -39 5 0 8 11 7 25 -1 14 -3 25 -3 25 -1
0 -6 -5 -12 -11z"/>
<path d="M2011 814 c0 -11 3 -14 6 -6 3 7 2 16 -1 19 -3 4 -6 -2 -5 -13z"/>
<path d="M1961 788 c-1 -12 -6 -15 -18 -11 -15 6 -16 5 -3 -9 13 -14 16 -14
23 -2 5 8 6 20 3 27 -2 7 -5 5 -5 -5z"/>
<path d="M2006 761 c-5 -7 -10 -25 -11 -40 -2 -14 -6 -39 -9 -56 -3 -16 -3
-24 0 -17 8 17 24 5 17 -13 -3 -9 1 -15 8 -15 12 0 12 -2 0 -9 -10 -7 -12 -20
-7 -50 4 -25 2 -41 -4 -41 -5 0 -10 5 -10 11 0 5 -4 8 -10 4 -17 -10 1 -35 26
-35 22 0 24 4 24 53 -1 28 -7 82 -14 119 -8 43 -9 69 -3 71 6 2 8 9 5 17 -3
11 -6 12 -12 1z"/>
<path d="M1915 740 c-3 -5 1 -10 10 -10 9 0 13 5 10 10 -3 6 -8 10 -10 10 -2
0 -7 -4 -10 -10z"/>
<path d="M1712 700 c0 -14 2 -19 5 -12 2 6 2 18 0 25 -3 6 -5 1 -5 -13z"/>
<path d="M1900 695 c0 -8 5 -15 10 -15 6 0 10 7 10 15 0 8 -4 15 -10 15 -5 0
-10 -7 -10 -15z"/>
<path d="M1930 699 c0 -5 5 -7 10 -4 6 3 10 8 10 11 0 2 -4 4 -10 4 -5 0 -10
-5 -10 -11z"/>
<path d="M1917 653 c-4 -6 -3 -21 1 -34 6 -16 10 -18 14 -8 7 19 -6 56 -15 42z"/>
<path d="M1716 527 c-4 -71 -6 -131 -3 -133 11 -11 27 174 19 216 -7 39 -9 29
-16 -83z"/>
<path d="M1856 550 c-4 -14 -9 -28 -11 -32 -1 -5 -4 -9 -5 -10 -1 -2 -4 -31
-5 -65 l-3 -63 28 0 c25 0 29 4 28 30 -1 16 -8 32 -16 35 -11 4 -12 8 -3 19 9
11 8 15 -6 20 -13 6 -14 9 -4 15 7 5 11 22 9 42 -3 33 -3 33 -12 9z"/>
<path d="M1948 553 c-3 -13 -1 -26 4 -29 6 -4 1 -12 -12 -19 -17 -9 -19 -13
-8 -17 10 -4 14 -18 12 -45 -3 -33 -2 -35 9 -18 16 29 18 48 4 57 -9 6 -9 10
0 16 7 5 9 19 4 42 -6 31 -8 32 -13 13z"/>
<path d="M1982 473 c2 -10 10 -21 18 -25 12 -5 12 -7 -2 -7 -10 -1 -18 -6 -18
-12 0 -5 5 -7 10 -4 6 3 11 1 11 -4 1 -6 2 -15 3 -19 2 -16 35 -42 41 -33 3 5
1 12 -5 16 -5 3 -10 26 -10 50 0 24 -4 47 -10 50 -5 3 -10 1 -10 -4 0 -6 -5
-11 -11 -11 -5 0 -7 5 -4 10 3 6 1 10 -5 10 -6 0 -10 -8 -8 -17z"/>
<path d="M1838 343 c2 -12 8 -23 13 -23 5 0 9 11 9 23 0 13 -6 24 -13 24 -9 0
-12 -9 -9 -24z"/>
<path d="M1880 345 c6 -8 8 -20 4 -26 -4 -8 -3 -9 4 -5 18 11 14 46 -4 46 -13
0 -14 -3 -4 -15z"/>
<path d="M1930 345 c-7 -8 -9 -15 -5 -15 4 0 1 -8 -6 -17 -8 -9 -9 -14 -2 -10
6 4 13 2 15 -4 2 -6 10 1 18 15 17 32 1 57 -20 31z"/>
<path d="M1702 330 c-1 -14 -5 -36 -8 -50 -5 -19 -4 -22 5 -14 7 7 11 28 8 50
-2 22 -4 28 -5 14z"/>
<path d="M1981 334 c0 -11 3 -14 6 -6 3 7 2 16 -1 19 -3 4 -6 -2 -5 -13z"/>
<path d="M1860 300 c0 -5 5 -10 11 -10 5 0 7 5 4 10 -3 6 -8 10 -11 10 -2 0
-4 -4 -4 -10z"/>
<path d="M1887 283 c-4 -6 0 -14 9 -17 26 -10 54 -7 54 6 0 6 -3 8 -7 5 -3 -4
-13 -1 -21 6 -13 9 -14 9 -8 0 4 -7 3 -13 -3 -13 -5 0 -11 5 -13 12 -3 8 -6 9
-11 1z"/>
<path d="M1982 260 c0 -14 2 -19 5 -12 2 6 2 18 0 25 -3 6 -5 1 -5 -13z"/>
<path d="M1844 259 c-3 -6 -1 -16 5 -22 8 -8 11 -5 11 11 0 24 -5 28 -16 11z"/>
<path d="M1881 241 c-7 -5 -9 -11 -5 -14 5 -3 15 1 22 9 14 16 5 18 -17 5z"/>
<path d="M1682 173 c-2 -40 2 -53 12 -53 8 0 16 -6 18 -12 3 -8 10 -3 18 12
11 22 11 23 -1 13 -23 -18 -37 -2 -42 47 l-4 45 -1 -52z"/>
<path d="M1767 178 c-6 -21 -2 -36 7 -27 10 11 16 49 8 49 -5 0 -12 -10 -15
-22z"/>
<path d="M1848 180 c-9 -29 4 -70 23 -70 21 0 55 55 39 65 -6 3 -10 -3 -10
-14 0 -29 -12 -26 -31 5 -11 17 -18 22 -21 14z m42 -56 c0 -2 -7 -4 -15 -4 -8
0 -15 4 -15 10 0 5 7 7 15 4 8 -4 15 -8 15 -10z"/>
<path d="M2020 151 c0 -6 5 -13 10 -16 6 -3 10 1 10 9 0 9 -4 16 -10 16 -5 0
-10 -4 -10 -9z"/>
<path d="M1820 140 c-9 -6 -10 -10 -3 -10 6 0 15 5 18 10 8 12 4 12 -15 0z"/>
<path d="M1764 128 c-10 -16 2 -18 21 -5 16 12 16 14 1 14 -9 0 -19 -4 -22 -9z"/>
<path d="M1926 127 c3 -10 9 -15 12 -12 3 3 0 11 -7 18 -10 9 -11 8 -5 -6z"/>
<path d="M1968 127 c11 -12 11 -41 1 -52 -3 -2 -20 0 -38 5 -30 8 -32 7 -25
-12 5 -16 3 -19 -7 -12 -12 7 -12 5 0 -9 11 -14 11 -18 0 -22 -20 -7 -54 0
-54 11 0 5 -4 15 -9 23 -7 10 -6 12 4 6 7 -4 16 -2 21 6 11 17 12 39 1 23 -4
-6 -15 -13 -24 -17 -12 -4 -15 -14 -12 -31 4 -25 4 -25 -67 -25 -56 1 -69 4
-65 15 3 8 1 14 -4 14 -6 0 -10 -9 -10 -20 0 -19 7 -20 179 -20 150 0 180 2
185 15 4 10 -1 15 -15 15 -11 0 -29 5 -40 11 -19 10 -19 12 -6 27 20 22 21 30
3 47 -18 18 -32 20 -18 2z m-15 -70 c21 4 21 4 4 -11 -23 -18 -48 -11 -40 12
4 9 8 11 10 5 2 -6 14 -9 26 -6z"/>
<path d="M2036 119 c-11 -10 -15 -19 -9 -19 5 0 18 9 28 20 23 26 6 25 -19 -1z"/>
<path d="M2000 75 c-8 -10 -8 -15 1 -21 8 -5 9 -3 4 6 -6 10 -3 12 13 8 24 -7
30 7 8 15 -8 3 -20 0 -26 -8z"/>
<path d="M1713 62 c1 -16 5 -18 18 -11 10 5 25 6 33 3 9 -3 16 -1 16 4 0 16
-14 22 -30 12 -9 -5 -19 -5 -27 1 -9 8 -11 5 -10 -9z"/>
</g>
</svg>
