<?xml version="1.0" standalone="no"?>
<!DOCTYPE svg PUBLIC "-//W3C//DTD SVG 20010904//EN"
 "http://www.w3.org/TR/2001/REC-SVG-20010904/DTD/svg10.dtd">
<svg version="1.0" xmlns="http://www.w3.org/2000/svg"
 width="383pt" height="589pt" viewBox="0 0 383 589"
 preserveAspectRatio="xMidYMid meet">
<metadata>
Created by Potrace Professional 1.0c
</metadata>
<g transform="translate(0,589) scale(0.100000,-0.100000)"
fill="#000000" stroke="none">
<path d="M1973 5874 c-3 -8 -3 -44 1 -78 7 -73 1 -96 -25 -96 -20 0 -59 -33
-59 -50 0 -19 41 -10 66 15 14 14 31 25 39 25 8 0 18 7 23 16 8 15 12 14 40
-6 16 -12 35 -33 41 -46 9 -20 18 -24 51 -24 35 0 42 4 52 28 7 15 13 29 15
31 1 2 16 -8 33 -23 27 -22 41 -26 96 -26 l64 0 0 -34 c0 -25 7 -39 22 -51 13
-8 23 -23 23 -33 0 -9 10 -21 22 -27 28 -12 42 -41 16 -30 -10 3 -48 9 -85 12
l-67 6 14 28 c34 65 -1 123 -71 117 -31 -2 -43 -10 -62 -38 -13 -19 -40 -43
-62 -52 l-38 -16 -42 50 c-42 49 -43 50 -89 45 -25 -3 -61 -9 -78 -12 -29 -6
-33 -5 -33 14 0 12 -5 21 -12 19 -7 -2 -29 9 -49 25 -46 35 -81 35 -106 1
l-19 -26 -23 61 c-19 53 -28 64 -63 82 -37 19 -45 20 -80 8 -44 -14 -62 -39
-53 -70 7 -20 4 -21 -36 -14 -48 8 -94 32 -121 64 -13 15 -30 21 -58 21 l-40
0 0 -46 c0 -38 -5 -49 -31 -71 -25 -21 -29 -31 -24 -55 9 -41 -27 -78 -77 -78
-38 0 -38 0 -38 -42 0 -32 3 -39 10 -28 5 8 10 10 10 4 0 -6 -8 -18 -17 -25
-11 -10 -14 -10 -9 -1 4 6 2 12 -4 12 -6 0 -20 9 -32 20 -12 11 -32 20 -45 20
-27 0 -57 -42 -50 -70 4 -16 -2 -22 -35 -30 -29 -8 -38 -16 -36 -28 3 -9 10
-16 16 -14 7 1 12 -3 12 -10 0 -6 7 -19 16 -29 23 -25 11 -49 -25 -49 -19 0
-30 -6 -33 -18 -4 -15 -13 -17 -43 -14 l-37 4 3 -44 c3 -33 -1 -50 -13 -63
-16 -17 -17 -20 -2 -36 8 -9 28 -23 44 -29 33 -14 31 -29 -8 -52 -19 -11 -33
-14 -42 -8 -30 19 -96 11 -124 -15 -32 -30 -33 -47 -2 -79 33 -37 24 -71 -36
-129 -43 -42 -49 -51 -46 -85 3 -36 2 -37 -35 -40 -23 -2 -40 -9 -44 -19 -7
-17 31 -56 68 -69 19 -7 10 -10 -44 -15 -72 -6 -83 -13 -94 -62 -3 -15 -14
-32 -24 -38 -29 -15 -23 -36 26 -83 36 -36 42 -46 31 -55 -7 -6 -16 -24 -19
-40 -4 -17 -15 -32 -26 -36 -10 -3 -22 -12 -25 -20 -3 -8 -12 -15 -20 -15 -20
0 -39 -63 -31 -100 8 -35 34 -53 56 -39 22 14 69 11 75 -6 4 -10 20 -15 48
-15 23 0 51 -7 62 -15 10 -8 26 -15 35 -15 8 0 28 -13 43 -29 l28 -29 -38 -26
c-21 -14 -46 -26 -54 -26 -9 0 -22 -6 -28 -12 -9 -9 -45 -13 -105 -13 -90 -1
-93 -2 -147 -39 -30 -21 -60 -48 -67 -60 -14 -27 -47 -50 -84 -59 -32 -8 -62
-65 -64 -121 -1 -30 -6 -42 -23 -49 -21 -10 -22 -15 -22 -164 0 -84 4 -153 8
-153 5 0 17 9 27 20 21 23 45 26 45 6 0 -16 71 -56 100 -56 10 0 27 13 37 30
20 35 46 36 51 2 3 -20 9 -22 57 -22 31 0 76 -9 105 -20 65 -26 102 -25 126 1
14 16 28 20 59 17 27 -2 54 4 78 17 l36 19 20 -23 c18 -20 18 -25 6 -38 -8 -8
-15 -21 -15 -29 0 -8 -4 -14 -10 -14 -12 0 -13 -57 -1 -64 16 -10 40 5 50 32
6 18 10 21 10 9 1 -18 17 -27 91 -48 58 -16 80 -35 80 -69 0 -39 20 -52 70
-44 46 7 74 29 66 50 -4 10 4 14 27 14 36 0 57 15 57 41 0 24 42 49 63 38 23
-13 8 -49 -28 -69 -39 -22 -53 -45 -39 -67 19 -31 61 -28 100 6 43 38 66 39
92 4 16 -21 29 -27 73 -30 73 -5 103 11 107 59 3 33 7 38 53 56 l49 21 0 -24
c0 -14 9 -30 20 -37 11 -7 20 -21 20 -30 0 -19 28 -38 48 -31 7 3 12 -4 12
-15 0 -11 6 -25 14 -31 7 -6 21 -40 30 -75 24 -86 41 -100 109 -93 51 5 145
47 190 85 28 25 23 91 -12 132 -33 40 -27 70 13 70 13 0 35 9 49 20 14 11 35
20 46 20 21 0 21 0 2 -19 -15 -15 -18 -34 -19 -105 0 -47 -4 -96 -7 -108 l-7
-23 23 22 c18 18 26 41 34 100 10 73 12 78 35 78 24 0 25 -3 28 -69 3 -66 16
-96 41 -96 6 0 11 5 11 11 0 7 8 18 17 25 15 10 20 9 34 -13 9 -14 27 -30 39
-37 13 -6 28 -19 34 -29 9 -15 7 -22 -11 -34 -13 -9 -23 -22 -23 -29 0 -8 -18
-26 -40 -40 l-40 -27 -35 19 c-19 10 -35 24 -35 30 0 6 -15 19 -34 29 -32 17
-36 17 -59 2 -14 -9 -34 -30 -43 -47 -10 -16 -22 -30 -26 -30 -4 0 -8 -7 -8
-15 0 -19 10 -19 38 1 12 8 22 24 22 34 0 14 10 21 37 26 34 6 39 4 79 -40 56
-60 94 -63 142 -12 34 37 71 109 72 139 0 35 -105 117 -151 117 -23 0 -27 5
-36 56 l-10 56 66 -5 c36 -2 77 -8 91 -12 l25 -8 -23 22 c-46 45 -160 69 -190
39 -9 -9 -17 -9 -35 1 -40 21 -179 -9 -212 -46 -28 -32 -28 -51 0 -67 53 -31
77 -85 48 -114 -27 -28 -132 -74 -180 -80 -40 -4 -43 -3 -43 19 -1 64 -64 187
-97 189 -15 0 -33 32 -33 58 0 32 -42 62 -88 62 -23 0 -42 -4 -42 -8 0 -5 -11
-14 -25 -20 -14 -7 -28 -20 -32 -29 -10 -29 -62 -73 -86 -73 -28 0 -39 8 -56
42 -13 25 -18 27 -55 22 -23 -4 -58 -19 -78 -35 -23 -18 -43 -26 -53 -23 -12
5 1 15 44 37 64 32 70 39 46 63 -8 9 -15 24 -15 34 0 20 -27 40 -54 40 -8 0
-34 -18 -57 -40 -24 -22 -53 -40 -66 -40 -24 0 -48 -33 -39 -55 7 -19 -18 -37
-46 -33 -23 3 -25 13 -12 56 5 18 3 22 -17 22 -16 0 -30 10 -42 31 -13 23 -22
30 -38 26 -30 -8 -84 18 -97 47 -7 16 -8 26 -2 26 19 0 10 39 -12 54 -25 18
-74 21 -83 6 -3 -5 -36 -10 -73 -10 -51 0 -73 -5 -92 -20 -32 -25 -45 -25 -86
1 -19 11 -37 18 -42 15 -13 -8 -100 14 -113 30 -15 18 -70 18 -95 -1 -27 -20
-57 -19 -76 4 -9 11 -33 23 -52 27 l-36 6 0 103 c0 79 3 105 15 115 8 7 15 19
15 26 0 10 15 14 58 14 31 0 62 4 68 8 14 8 64 106 64 123 0 7 -7 20 -16 30
-15 17 -15 20 6 46 32 41 105 73 168 73 39 0 61 6 79 20 17 13 41 20 69 20
l43 0 3 -41 c4 -53 25 -69 64 -49 15 8 33 25 41 37 28 43 -8 110 -53 99 -20
-5 -24 -3 -24 18 0 46 -21 75 -57 82 -41 8 -95 58 -79 74 7 7 7 19 -1 41 -11
28 -10 29 8 24 36 -12 47 11 55 116 3 55 11 102 15 105 5 3 9 13 9 23 0 10 8
26 19 35 10 9 26 43 35 75 9 33 24 65 33 72 9 8 22 29 30 47 7 17 19 32 27 32
17 0 46 32 46 52 0 9 -7 21 -15 28 -8 7 -15 23 -15 36 0 30 25 31 60 4 59 -46
94 -15 104 94 3 40 12 76 21 86 8 9 15 22 15 28 0 6 10 17 23 23 33 18 46 40
47 77 0 58 -14 72 -73 72 -63 0 -101 -18 -105 -49 -3 -15 -8 -21 -19 -17 -8 3
-19 6 -24 6 -20 0 -7 51 19 78 23 24 34 28 65 24 50 -6 77 18 77 68 0 20 -5
41 -10 46 -7 7 -4 16 10 29 11 10 20 24 20 32 0 9 14 13 48 13 58 0 92 21 92
58 0 20 3 23 12 14 21 -21 63 -13 106 20 29 22 42 40 43 58 1 24 1 23 10 -5 5
-18 21 -37 41 -48 38 -20 108 -83 108 -96 0 -5 -14 -14 -30 -21 -49 -20 -66
-75 -34 -111 10 -11 17 -46 21 -107 6 -86 7 -92 43 -132 41 -46 55 -47 133 -5
35 18 43 28 48 58 3 21 9 40 12 43 3 3 27 -11 52 -32 40 -34 44 -40 29 -49
-33 -19 -55 -46 -61 -75 -7 -35 -35 -40 -84 -14 -37 19 -78 15 -93 -8 -16 -26
9 -107 45 -143 23 -23 28 -25 23 -10 -4 11 -11 25 -15 30 -4 6 -8 20 -7 30 1
11 -2 30 -6 43 -8 25 5 29 24 7 22 -26 130 -11 130 18 0 6 11 25 25 43 14 18
25 37 25 43 0 23 42 34 82 21 34 -10 43 -9 59 6 10 9 19 23 19 30 0 7 11 24
25 36 22 20 23 27 15 58 -5 19 -12 47 -15 63 -5 23 -10 27 -41 27 -25 0 -42
-7 -55 -22 -20 -25 -26 -84 -8 -90 8 -3 8 -10 -2 -26 -16 -25 -79 -32 -79 -9
0 43 -77 80 -119 58 -17 -9 -21 -21 -21 -59 0 -44 -3 -48 -36 -64 -45 -23 -60
-23 -87 2 -16 16 -21 32 -21 62 1 23 7 44 13 46 19 6 12 27 -11 37 -19 8 -24
21 -31 78 -9 69 1 97 35 97 19 0 50 38 46 57 -2 9 -18 24 -36 34 -19 9 -41 24
-50 32 -9 8 -26 17 -37 19 -11 2 -28 19 -37 40 -10 20 -22 39 -28 43 -21 13
-65 -6 -78 -33 -24 -52 -38 -65 -59 -51 -19 11 -19 12 4 35 13 13 23 33 23 44
0 12 14 33 30 47 17 13 30 31 30 39 0 8 9 14 20 14 15 0 20 -7 20 -28 0 -34
16 -52 47 -52 12 0 39 -11 59 -25 21 -14 44 -23 52 -20 7 3 31 5 51 5 31 0 40
5 49 25 18 39 14 83 -8 105 -11 11 -20 31 -20 45 0 22 4 25 33 25 54 0 77 -23
77 -79 0 -34 5 -53 19 -65 18 -16 22 -15 74 10 l56 28 40 -29 c28 -19 41 -35
41 -51 0 -21 5 -24 42 -24 27 0 49 7 62 19 15 13 30 17 54 14 28 -5 32 -9 32
-37 0 -34 24 -76 43 -76 21 0 89 38 118 66 20 19 42 28 77 32 45 4 51 2 57
-19 6 -17 2 -27 -14 -41 -14 -11 -21 -26 -19 -40 3 -21 9 -23 68 -26 36 -1 70
-8 75 -15 6 -7 23 -17 40 -22 39 -14 51 -64 24 -99 -27 -34 -26 -100 2 -120
34 -24 59 -68 59 -106 l0 -35 62 3 c35 1 83 -1 108 -5 41 -8 45 -11 42 -35 -2
-14 1 -29 7 -32 6 -4 8 -20 4 -37 -4 -21 -1 -34 8 -40 32 -20 37 -10 22 49 -8
31 -17 72 -20 90 l-5 32 56 0 c46 0 56 -3 57 -17 5 -63 4 -186 -2 -195 -5 -8
-12 -6 -24 5 -9 10 -21 17 -26 17 -20 0 -8 -36 22 -64 l30 -29 -22 -23 c-13
-13 -40 -32 -61 -41 -27 -12 -38 -23 -38 -39 0 -12 7 -24 15 -28 9 -3 15 -18
15 -36 0 -23 -7 -35 -29 -48 -34 -21 -111 -119 -111 -142 0 -9 -5 -21 -12 -28
-9 -9 -7 -12 10 -12 14 0 27 9 34 25 13 30 19 27 58 -31 32 -47 32 -64 0 -64
-27 0 -50 -38 -50 -82 0 -36 -12 -49 -25 -29 -3 5 -20 13 -37 16 l-32 7 27 20
c22 16 27 28 27 62 0 49 -15 67 -73 86 -42 13 -64 3 -54 -24 7 -17 34 -31 80
-40 22 -5 27 -12 27 -36 0 -26 -3 -30 -29 -30 -29 0 -41 -14 -41 -48 0 -8 -7
-23 -16 -33 -25 -28 -12 -44 15 -20 19 17 38 21 93 21 l68 0 0 51 c0 47 2 51
30 60 22 8 30 17 30 35 0 21 5 24 33 23 66 -1 111 -14 122 -35 19 -39 74 -94
94 -94 11 0 32 -5 48 -12 26 -11 24 -12 -40 -19 -74 -8 -97 -20 -97 -52 0 -16
3 -18 12 -9 7 7 28 12 48 12 20 0 45 7 56 15 12 9 42 14 80 15 56 0 62 -2 72
-25 19 -41 16 -59 -7 -36 -10 10 -36 22 -57 25 -33 7 -41 4 -56 -14 -10 -12
-18 -28 -18 -35 0 -8 -30 -23 -67 -36 -38 -12 -81 -33 -96 -45 -16 -13 -35
-24 -42 -24 -7 0 -20 -3 -29 -6 -13 -5 -16 3 -16 47 0 65 20 93 55 77 13 -6
32 -8 41 -4 16 6 13 11 -16 36 -19 17 -40 30 -46 30 -30 0 -89 -131 -79 -173
20 -79 104 -86 157 -13 28 39 32 41 91 46 59 5 62 6 67 35 3 19 15 35 33 45
25 13 29 13 40 -1 7 -8 20 -18 30 -22 9 -4 17 -17 17 -30 0 -32 25 -53 88 -73
l53 -17 -30 -13 c-44 -18 -57 -53 -37 -92 19 -38 20 -58 3 -69 -7 -4 -26 -25
-43 -45 -29 -38 -54 -49 -54 -25 0 7 -13 26 -30 42 -37 36 -37 44 -1 81 27 27
29 34 21 68 -4 21 -11 40 -14 43 -12 13 -100 3 -117 -13 -32 -29 -22 -37 41
-32 56 4 60 3 60 -17 0 -12 -9 -30 -20 -40 -13 -12 -20 -31 -20 -57 0 -33 7
-46 44 -83 24 -25 48 -45 53 -45 15 0 53 45 53 63 0 13 9 17 35 17 22 0 38 6
41 15 8 20 38 19 69 -1 16 -10 34 -14 50 -10 18 5 25 2 25 -8 0 -7 7 -19 15
-26 17 -14 20 -66 5 -75 -5 -3 -10 -16 -10 -28 -1 -21 -2 -20 -25 8 -13 16
-25 43 -27 60 l-3 30 -72 0 c-64 0 -75 -3 -115 -32 -37 -27 -43 -36 -42 -67
l1 -36 -66 -2 c-108 -3 -122 -1 -137 21 -10 14 -28 21 -62 24 -26 2 -1 2 55
-1 100 -4 101 -4 118 22 17 25 17 27 -9 67 -15 22 -33 42 -41 46 -8 3 -15 16
-15 28 0 13 -12 37 -26 54 -20 25 -24 34 -15 45 15 17 8 22 -45 31 -50 8 -84
-9 -84 -43 0 -29 37 -44 79 -32 29 8 30 7 36 -31 5 -29 17 -46 46 -70 34 -26
40 -37 37 -63 -3 -28 -7 -31 -41 -34 -26 -2 -45 2 -57 13 -20 18 -47 21 -95 9
-33 -8 -45 -20 -45 -47 0 -14 8 -17 43 -17 96 1 95 1 102 -31 l7 -30 136 3
137 3 3 64 c4 78 16 90 81 83 60 -6 68 -14 76 -73 5 -39 11 -49 25 -49 11 0
22 5 25 10 11 17 22 11 35 -20 7 -17 25 -41 40 -53 27 -23 27 -24 9 -46 -11
-13 -19 -31 -19 -42 0 -10 -4 -21 -10 -24 -5 -3 -10 -17 -10 -31 0 -29 -24
-32 -52 -7 -17 15 -18 15 -18 -10 0 -35 25 -47 97 -47 46 0 62 -4 76 -20 10
-12 29 -20 48 -20 l32 0 -49 -37 c-69 -51 -104 -85 -104 -99 0 -18 108 54 115
77 5 14 13 16 41 12 21 -3 45 0 60 8 21 11 24 19 22 48 l-3 36 -74 -3 c-62 -3
-81 1 -118 20 -52 28 -56 52 -13 90 33 29 38 49 15 68 -8 7 -15 16 -15 21 0 4
-13 27 -29 51 -29 44 -33 85 -9 115 30 37 -54 123 -119 123 -38 0 -93 25 -93
42 0 6 -7 19 -16 29 -23 25 -9 57 32 74 30 12 34 17 25 33 -12 23 -50 49 -85
58 -14 3 -28 9 -30 13 -10 15 13 33 40 33 39 0 45 14 27 56 -8 20 -15 56 -15
81 0 32 -7 53 -21 68 l-20 22 32 39 c46 59 39 86 -21 75 -41 -8 -65 11 -72 58
-4 28 -2 50 9 71 8 17 15 39 15 48 0 22 -36 55 -82 74 -36 14 -38 18 -38 58 0
46 -13 68 -41 68 -9 0 -23 7 -30 16 -11 13 -10 17 4 25 13 8 17 24 17 80 0 87
-20 129 -61 129 -19 0 -30 6 -34 20 -3 11 -13 20 -22 20 -9 0 -39 11 -68 25
-44 22 -57 35 -81 82 -24 48 -28 66 -26 124 2 38 -2 78 -8 89 -14 25 -61 50
-97 50 -15 0 -37 7 -47 15 -11 8 -32 15 -48 15 -29 0 -98 29 -98 41 0 4 -16
17 -35 29 -23 14 -35 29 -35 44 0 26 -26 66 -44 66 -7 0 -18 11 -24 25 -6 14
-24 28 -39 31 -15 4 -51 20 -80 36 -59 32 -89 35 -133 11 -31 -18 -31 -18 -51
6 -12 15 -19 38 -19 67 0 44 0 44 -35 44 -23 0 -38 -6 -42 -16z m269 -137 c47
-12 102 -53 92 -68 -3 -5 -16 -9 -30 -9 -19 0 -28 7 -36 30 -16 46 -55 52 -88
12 -15 -18 -33 -32 -41 -32 -18 0 -59 28 -59 40 0 14 74 48 95 43 11 -3 41
-10 67 -16z m-905 -11 c15 -26 110 -59 152 -52 51 8 56 -1 21 -35 -23 -24 -37
-29 -75 -29 -40 0 -53 6 -95 41 -27 23 -56 52 -65 65 -15 24 -15 24 19 24 19
0 39 -6 43 -14z m1261 -272 c12 -8 50 -19 84 -25 92 -14 108 -36 108 -142 0
-80 0 -82 37 -119 l37 -38 -29 0 c-17 0 -42 -6 -57 -14 -23 -12 -27 -12 -32 0
-3 8 -12 14 -20 14 -42 0 -48 85 -9 116 49 39 23 124 -38 124 -11 0 -22 7 -25
15 -4 8 -13 15 -20 15 -8 0 -26 7 -40 16 -13 9 -28 14 -31 10 -13 -12 34 -61
68 -71 44 -13 79 -36 79 -53 0 -7 -11 -30 -25 -52 -32 -51 -33 -107 -3 -146
21 -26 21 -27 3 -19 -11 4 -35 10 -52 13 -28 4 -33 8 -33 32 0 15 -13 44 -30
65 -42 53 -46 78 -21 114 27 37 27 65 -1 104 -18 25 -19 29 -5 24 12 -5 17 -1
17 13 0 24 8 25 38 4z m-1618 -4 c12 -8 11 -10 -7 -10 -13 0 -23 5 -23 10 0
13 11 13 30 0z m903 -267 c7 -42 8 -40 -18 -45 -17 -2 -20 3 -23 40 -3 36 0
42 16 42 15 0 21 -9 25 -37z m-900 -50 c9 -20 9 -27 0 -30 -20 -7 -63 -44 -63
-54 0 -6 -11 -25 -25 -43 -16 -21 -25 -46 -25 -68 0 -19 -3 -56 -6 -80 -6 -44
-7 -45 -24 -28 -24 24 -96 36 -115 20 -19 -16 -19 -80 0 -107 17 -24 8 -36
-35 -46 -25 -6 -43 -42 -97 -194 -9 -24 -20 -44 -27 -44 -6 -1 -17 -2 -25 -3
-8 0 -17 -8 -19 -16 -4 -12 -3 -13 10 -2 14 11 15 2 12 -89 -2 -55 -6 -104 -9
-109 -11 -17 -42 1 -39 23 2 12 5 42 8 66 l4 43 -43 -6 c-37 -6 -43 -4 -48 13
-3 12 -17 25 -32 31 l-28 11 22 22 c11 13 21 30 21 39 0 26 34 47 84 50 62 4
79 25 54 68 -10 17 -13 32 -7 35 5 4 9 15 9 27 0 11 9 31 20 45 11 14 20 36
20 49 0 17 7 25 25 30 14 3 30 14 35 24 13 24 13 87 0 95 -5 3 -10 24 -10 47
0 37 2 40 23 34 64 -19 92 -18 129 7 20 14 44 27 55 29 10 2 18 12 18 24 1 12
8 33 18 47 9 15 17 33 17 41 0 13 15 18 68 25 7 0 18 -11 25 -26z m857 -43 c0
-5 -5 -10 -11 -10 -5 0 -7 5 -4 10 3 6 8 10 11 10 2 0 4 -4 4 -10z m1175 -44
c48 -27 73 -83 55 -126 -6 -14 -11 -39 -13 -57 -2 -29 -5 -32 -45 -35 -24 -2
-48 -1 -52 2 -5 3 -8 46 -6 95 2 50 4 102 5 118 1 32 5 33 56 3z m-38 -241
c19 -8 50 -15 68 -15 34 0 45 -13 45 -51 0 -13 -7 -19 -23 -19 -13 0 -45 -14
-70 -31 -38 -25 -47 -36 -47 -60 0 -27 -3 -29 -39 -29 -37 0 -39 1 -51 46 -11
39 -11 47 1 55 31 21 35 25 52 51 9 15 17 36 17 48 0 24 1 24 47 5z m160 -135
c21 -11 43 -20 49 -20 6 0 20 -10 31 -22 18 -21 19 -32 14 -106 -5 -75 -8 -84
-30 -95 -44 -22 -28 -32 59 -38 47 -3 77 -6 67 -7 -21 -2 -77 -54 -77 -71 0
-6 8 -11 18 -11 23 0 42 -19 42 -41 0 -17 -14 -18 -89 -10 -3 1 0 6 7 13 7 7
12 17 12 24 0 19 -40 4 -57 -22 -12 -19 -19 -22 -33 -14 -10 6 -28 10 -39 10
-12 0 -45 28 -83 70 -60 66 -65 70 -107 70 -77 0 -106 17 -119 67 -16 60 -15
73 7 73 11 0 23 5 26 11 4 6 17 -12 30 -39 25 -53 48 -72 88 -72 14 0 45 -11
68 -25 42 -24 109 -34 109 -17 0 13 -79 52 -104 52 -60 0 -141 52 -134 87 2
10 16 20 34 24 45 9 51 14 58 58 3 22 12 43 18 47 10 6 53 17 91 23 4 0 24 -8
44 -19z m-2680 -387 c-3 -10 -5 -4 -5 12 0 17 2 24 5 18 2 -7 2 -21 0 -30z
m-17 -51 c0 -15 11 -43 25 -62 19 -26 22 -36 13 -47 -8 -10 -14 -11 -22 -3 -5
5 -21 10 -34 10 -22 0 -72 40 -72 57 0 8 73 72 83 73 4 0 7 -13 7 -28z m40
-33 c0 -6 -4 -7 -10 -4 -5 3 -10 11 -10 16 0 6 5 7 10 4 6 -3 10 -11 10 -16z
m2830 -33 c0 -8 3 -21 6 -30 4 -10 1 -16 -9 -16 -18 0 -29 24 -21 45 8 19 24
20 24 1z m-2940 -51 c10 -13 9 -15 -8 -15 -15 0 -20 5 -16 15 4 8 7 15 9 15 1
0 8 -7 15 -15z m314 -238 c16 -25 -16 -56 -38 -37 -19 15 -20 32 -4 48 15 15
28 11 42 -11z m-466 -169 c40 -40 -24 -108 -102 -108 -51 0 -50 -2 -34 51 9
33 16 40 45 45 18 3 36 10 39 15 8 13 38 11 52 -3z m3595 -445 c-7 -2 -21 -2
-30 0 -10 3 -4 5 12 5 17 0 24 -2 18 -5z"/>
<path d="M1760 5423 c0 -38 -35 -56 -120 -61 -82 -5 -105 -16 -98 -48 2 -12
20 -21 56 -29 30 -7 59 -18 65 -24 16 -16 30 -14 56 10 17 16 30 20 54 15 18
-4 54 -9 80 -13 40 -5 51 -10 60 -32 7 -14 18 -32 26 -40 10 -11 12 -33 9 -83
-5 -61 -4 -68 13 -68 21 0 25 -29 9 -61 -15 -27 -30 -24 -30 6 0 32 -18 32
-26 0 -9 -38 2 -58 28 -49 40 12 78 78 78 135 0 46 18 59 85 59 42 0 51 -4 81
-37 19 -20 34 -47 34 -58 0 -25 36 -45 82 -45 l31 0 -5 51 c-3 28 -13 58 -22
67 -15 15 -16 13 -16 -31 0 -26 -2 -47 -4 -47 -21 0 -56 23 -56 37 -1 21 -38
66 -68 82 -30 16 -108 13 -145 -5 -21 -11 -32 -13 -35 -6 -2 6 -14 27 -26 45
-13 19 -29 51 -36 71 -15 45 -33 50 -153 43 -54 -3 -102 0 -117 6 -23 9 -23
11 -5 14 47 10 110 35 117 46 4 7 8 22 8 35 0 21 3 22 38 16 22 -4 46 -17 60
-33 l22 -26 -6 30 c-4 17 -8 32 -10 34 -2 2 -29 6 -59 9 -50 4 -55 3 -55 -15z"/>
<path d="M1945 5325 c11 -9 33 -19 48 -22 17 -3 34 -17 42 -33 19 -37 62 -70
90 -70 12 0 40 -7 60 -16 30 -12 44 -13 63 -5 20 10 25 9 29 -9 7 -28 23 -25
23 5 0 34 -27 45 -114 45 -89 0 -106 5 -106 34 0 34 -23 57 -66 66 -21 5 -50
11 -64 15 -24 6 -25 6 -5 -10z"/>
<path d="M1053 5110 c-34 -14 -32 -67 2 -80 14 -5 25 -14 25 -20 0 -5 11 -17
25 -26 24 -16 27 -16 45 1 12 11 20 31 20 51 0 27 -7 38 -37 59 -41 27 -47 28
-80 15z m81 -82 c-4 -5 -9 -6 -13 -1 -3 4 -18 14 -33 20 -32 14 -36 30 -10 35
20 5 65 -39 56 -54z"/>
<path d="M2622 4945 c-28 -20 -52 -66 -52 -100 0 -55 -12 -62 -97 -59 -64 3
-78 6 -84 21 -12 34 -37 44 -113 50 -60 5 -76 3 -76 -8 0 -7 -8 -39 -17 -71
l-17 -58 -76 0 c-50 0 -83 -5 -96 -14 -23 -18 -13 -32 13 -17 11 5 59 13 107
17 84 7 89 8 108 38 12 21 17 42 14 64 l-5 32 49 0 c45 0 51 -3 65 -30 14 -27
14 -30 -5 -40 -11 -6 -20 -21 -20 -33 -1 -12 -9 -37 -19 -55 -15 -30 -19 -32
-31 -18 -11 14 -29 16 -119 10 -88 -5 -112 -10 -143 -30 -21 -13 -40 -35 -44
-49 -6 -23 -11 -25 -64 -25 -33 0 -62 5 -65 10 -3 6 -32 10 -63 10 l-57 0 33
20 c25 15 50 20 107 20 54 0 78 4 89 16 20 19 21 35 2 28 -10 -4 -12 6 -9 48
6 73 9 78 38 78 22 0 25 4 25 39 0 32 -6 43 -32 63 -61 46 -153 41 -185 -10
-31 -50 -104 -105 -111 -84 -6 19 -62 13 -90 -9 l-27 -22 33 5 c17 2 32 4 32
3 0 -1 -11 -14 -25 -29 -14 -15 -25 -35 -25 -45 0 -10 -7 -25 -16 -32 -13 -11
-15 -25 -10 -69 4 -40 3 -50 -5 -37 -21 35 -135 8 -146 -34 -6 -22 -23 -15
-23 9 0 9 -12 29 -27 44 -17 18 -24 32 -17 36 50 34 84 68 84 84 0 11 -14 33
-32 49 -27 26 -38 30 -77 27 -44 -3 -46 -4 -46 -33 1 -16 4 -43 8 -58 l8 -28
-29 21 c-17 13 -51 23 -84 27 -52 5 -57 4 -73 -21 -16 -24 -16 -46 1 -90 10
-25 -80 -22 -113 4 -47 37 -75 27 -122 -42 -28 -42 -41 -72 -41 -96 0 -25 -7
-40 -26 -54 -21 -17 -25 -27 -22 -66 3 -40 7 -48 30 -56 36 -13 114 17 153 60
17 18 45 35 65 39 19 4 46 16 59 26 32 26 81 26 81 0 0 -10 7 -24 15 -31 8 -7
15 -20 15 -30 0 -10 7 -41 17 -69 13 -42 14 -56 4 -74 -7 -13 -11 -36 -9 -52
3 -28 2 -28 -57 -32 -68 -4 -105 -30 -105 -73 0 -40 35 -80 70 -80 32 0 81
-19 92 -35 4 -5 8 -26 8 -45 0 -20 6 -59 14 -88 l13 -52 -48 0 c-59 0 -79 -18
-79 -72 0 -32 7 -47 34 -74 21 -21 44 -34 60 -34 23 0 26 -4 26 -35 0 -33 -2
-35 -32 -35 -18 0 -38 -4 -44 -8 -19 -12 -34 -49 -34 -82 0 -28 2 -30 20 -20
11 6 20 19 20 28 0 25 36 62 60 62 11 0 20 -4 20 -10 0 -5 9 -10 20 -10 23 0
24 8 9 47 -7 15 -15 44 -18 63 -6 33 -9 35 -49 38 -27 2 -42 8 -42 17 0 7 -7
15 -15 19 -9 3 -15 18 -15 34 0 33 13 38 108 41 38 2 62 -4 85 -18 26 -16 43
-19 94 -14 77 7 91 21 95 93 3 47 6 55 23 56 67 3 65 2 65 42 -1 61 -28 84
-109 90 -64 4 -70 3 -84 -19 -8 -13 -17 -53 -21 -89 -5 -54 -11 -69 -38 -97
-39 -40 -78 -45 -78 -9 0 13 -7 27 -16 30 -15 6 -16 18 -11 87 l6 80 -29 11
c-17 5 -30 14 -30 18 0 5 -15 6 -34 3 -43 -7 -76 11 -76 42 0 32 35 55 85 55
22 0 49 7 59 15 30 23 53 18 73 -15 9 -16 24 -30 33 -31 8 0 34 -2 58 -5 40
-4 42 -3 42 24 0 35 9 48 42 61 39 15 61 4 112 -55 26 -30 58 -57 72 -60 14
-4 27 -16 30 -30 3 -13 10 -24 15 -24 12 0 12 -87 0 -94 -5 -4 -12 -24 -16
-45 -7 -43 -17 -54 -53 -66 -33 -10 -72 -49 -72 -73 0 -11 -4 -23 -9 -27 -5
-3 -13 -20 -16 -38 -10 -45 -51 -79 -87 -72 -38 9 -86 -3 -97 -24 -5 -9 -6
-56 -2 -110 8 -91 9 -94 47 -132 41 -41 49 -43 132 -41 l52 2 0 48 c0 27 -7
57 -16 70 -22 31 -15 102 11 116 11 6 23 16 27 21 4 6 37 10 73 11 36 1 68 3
70 6 3 3 10 30 14 60 11 64 49 148 68 148 8 0 25 12 38 26 17 18 32 25 52 22
25 -3 28 -8 31 -43 2 -22 -4 -63 -14 -92 -16 -48 -16 -53 -1 -77 12 -17 17
-46 17 -90 0 -36 4 -68 10 -71 5 -3 9 -16 8 -28 -2 -25 32 -107 44 -107 4 0
11 18 14 40 4 23 14 45 23 50 9 4 50 6 91 4 41 -2 80 -1 85 3 6 5 23 35 39 68
15 33 41 70 57 83 34 28 35 32 10 60 -27 32 -34 27 -27 -18 l6 -40 -34 0 c-29
0 -41 7 -70 44 -20 23 -36 50 -36 60 0 9 -7 17 -15 18 -8 0 -21 1 -27 2 -9 1
-13 -14 -13 -44 0 -44 -1 -45 -34 -48 l-34 -4 8 119 c10 158 9 173 -15 190
-11 8 -20 22 -20 32 0 10 -15 24 -40 35 -22 10 -40 21 -40 26 0 5 -2 14 -5 22
-8 20 48 17 63 -4 7 -10 19 -18 27 -18 7 0 16 -9 20 -19 3 -11 15 -23 25 -26
19 -6 65 -67 96 -128 10 -18 25 -38 35 -45 11 -8 19 -28 21 -55 3 -40 4 -42
36 -42 21 0 32 -5 32 -14 0 -11 4 -11 18 2 12 11 36 17 65 17 l47 0 -5 91 c-3
50 -8 95 -11 100 -3 5 -25 9 -49 9 -24 0 -57 5 -72 12 -34 15 -87 54 -60 45
49 -18 67 -17 111 3 49 24 62 47 54 100 -6 41 14 39 49 -5 15 -20 45 -47 65
-62 32 -21 46 -25 83 -20 25 2 54 11 63 20 16 14 55 26 97 30 16 2 21 -5 23
-34 3 -36 3 -37 -42 -43 -26 -4 -53 -3 -65 3 -42 23 -139 3 -163 -33 -11 -15
-10 -90 1 -118 5 -13 22 -38 39 -56 41 -44 92 -44 150 -2 23 17 42 35 42 40 0
6 24 10 53 10 l52 0 0 -70 1 -70 -79 0 c-116 0 -156 -29 -157 -112 0 -55 -8
-63 -46 -43 -38 20 -51 19 -66 -5 -9 -14 -24 -20 -50 -20 -65 0 -76 -65 -20
-116 l26 -25 -51 6 c-45 7 -52 5 -67 -16 -9 -13 -16 -37 -16 -53 0 -26 -2 -28
-12 -14 -10 13 -29 16 -88 15 -67 -2 -76 -4 -85 -24 -7 -17 -18 -23 -43 -23
-74 0 -141 -60 -143 -127 0 -25 -1 -26 -9 -8 -5 11 -9 39 -9 62 -1 55 -21 73
-79 73 -55 0 -75 10 -66 33 7 20 7 20 169 21 130 1 131 1 201 37 38 20 88 42
112 49 53 17 60 25 64 80 3 42 6 47 51 71 85 46 92 57 95 162 3 84 1 96 -22
132 l-25 40 -1 -31 c0 -18 7 -45 15 -60 8 -16 15 -52 15 -81 0 -47 -4 -56 -37
-88 -20 -19 -40 -35 -44 -35 -4 0 -21 -14 -38 -31 -22 -21 -31 -40 -31 -63 0
-40 -38 -71 -105 -86 -26 -6 -63 -24 -83 -40 -40 -31 -102 -42 -137 -23 -11 6
-40 14 -65 18 -39 6 -48 3 -64 -14 -11 -12 -26 -21 -35 -21 -9 0 -25 -7 -35
-15 -11 -8 -28 -15 -38 -15 -24 0 -33 -23 -18 -49 10 -19 19 -21 80 -19 37 2
71 0 75 -4 4 -4 13 -39 21 -79 16 -83 21 -91 52 -83 19 6 22 13 22 54 0 30 6
52 15 60 8 7 15 21 15 31 0 16 8 19 58 19 49 0 60 3 76 25 15 20 28 25 61 25
29 0 45 -5 49 -15 4 -10 20 -15 51 -15 l45 0 0 38 c0 58 12 70 52 53 18 -8 56
-17 83 -21 28 -4 38 -8 24 -9 -29 -1 -59 -37 -59 -70 0 -17 6 -18 85 -14 l84
6 -11 -39 c-11 -42 -38 -66 -81 -74 -26 -5 -27 -6 -12 -27 32 -45 79 -24 110
50 18 45 40 57 101 57 40 0 45 -2 34 -15 -8 -9 -10 -29 -6 -52 3 -21 9 -60 12
-88 8 -60 34 -92 83 -101 20 -4 42 -15 49 -26 7 -10 20 -18 28 -18 8 0 14 -4
14 -8 0 -12 -111 -142 -121 -142 -6 0 -23 7 -39 15 -26 13 -30 21 -30 55 0 44
-15 91 -33 102 -7 4 -35 8 -63 8 -66 0 -77 -14 -82 -101 l-4 -69 51 -50 c28
-28 56 -50 61 -50 5 0 21 -12 36 -27 23 -23 27 -35 25 -71 -4 -60 10 -72 80
-72 61 0 99 21 99 55 0 11 12 15 49 15 27 0 62 7 78 15 15 8 41 17 57 20 16 4
44 22 61 41 38 41 46 42 62 7 15 -31 1 -61 -41 -88 -13 -9 -31 -33 -41 -55
-17 -38 -17 -42 -1 -94 18 -55 29 -66 71 -66 33 0 50 -33 27 -51 -23 -19 -81
-46 -114 -53 -20 -5 -29 -14 -34 -34 -11 -53 -12 -54 -34 -42 -11 6 -32 29
-47 51 -24 36 -25 45 -20 116 9 117 -25 183 -68 129 -12 -14 -38 -31 -58 -37
-30 -8 -39 -16 -44 -40 -8 -43 -27 -30 -36 27 -12 70 -19 78 -68 84 -41 5 -44
7 -51 45 -14 73 -17 80 -38 103 -30 32 -89 30 -130 -5 -29 -24 -35 -25 -64
-15 -22 8 -49 9 -91 2 -33 -5 -63 -10 -67 -10 -4 0 0 13 9 28 16 29 13 62 -7
62 -5 0 -10 -10 -10 -22 0 -16 -3 -19 -8 -10 -5 7 -26 13 -48 15 l-39 2 0 -86
0 -87 -31 -11 c-17 -6 -60 -11 -97 -11 -36 0 -69 -5 -72 -11 -5 -7 -11 -5 -18
5 -14 17 -120 56 -153 56 -22 0 -22 2 -17 94 5 91 4 94 -21 113 -14 12 -26 28
-26 37 0 16 -29 36 -54 36 -8 0 -28 -12 -45 -26 -28 -23 -31 -32 -31 -79 0
-68 -7 -85 -35 -85 -28 0 -52 -25 -34 -35 8 -6 7 -10 -2 -16 -22 -14 -51 -10
-71 8 -17 15 -21 15 -56 -2 -20 -10 -51 -24 -69 -30 l-31 -12 5 52 c5 45 2 56
-17 75 -20 20 -29 22 -84 17 -64 -6 -96 -28 -96 -68 0 -30 -38 -23 -67 11 -13
17 -33 30 -44 30 -33 0 -89 -43 -97 -74 l-8 -30 -23 23 -24 24 26 15 c34 21
47 52 47 116 0 39 -6 60 -22 81 -19 24 -26 27 -62 22 -44 -6 -86 -43 -86 -76
0 -10 -7 -24 -15 -31 -8 -7 -15 -21 -15 -32 0 -10 -4 -16 -10 -13 -5 3 -10 24
-10 45 0 52 -23 74 -69 66 -41 -6 -71 -37 -71 -73 0 -22 -3 -24 -22 -17 -13 4
-54 8 -93 8 -67 1 -70 0 -83 -27 -18 -37 -9 -59 35 -82 21 -11 43 -25 48 -32
14 -16 80 -20 98 -5 12 10 22 9 50 -4 27 -13 42 -14 63 -7 l29 10 0 -62 c1
-66 15 -95 45 -95 24 0 31 -22 14 -45 -26 -35 -18 -48 24 -40 20 3 41 11 46
16 19 18 56 10 68 -16 8 -19 7 -39 -4 -87 -18 -73 -13 -80 47 -72 24 4 49 16
63 31 12 13 22 20 22 14 0 -5 47 -9 116 -9 90 0 117 3 121 14 3 8 9 14 14 14
14 0 89 -79 89 -93 0 -17 69 -87 86 -87 8 0 14 -6 14 -14 0 -8 7 -16 15 -20
10 -4 15 -19 15 -49 0 -46 13 -67 41 -67 52 0 178 -89 208 -147 15 -29 23
-319 11 -401 -5 -37 -12 -218 -15 -402 -2 -184 -8 -389 -11 -455 -5 -93 -4
-117 6 -109 19 18 32 92 20 114 -15 28 -12 59 10 94 18 31 19 37 5 161 -12
106 -13 167 -4 330 6 123 16 214 25 238 19 52 20 287 0 325 -8 15 -17 54 -21
87 -4 33 -10 65 -14 71 -16 30 -123 104 -148 104 -64 0 -73 8 -73 64 l0 51 20
-31 c21 -33 117 -98 160 -109 20 -5 32 1 54 24 25 26 27 34 23 83 -3 29 -10
107 -15 173 -21 252 -44 344 -100 404 -19 20 -29 37 -23 39 6 2 9 8 5 13 -3 5
-1 9 4 9 12 0 42 -34 42 -48 0 -6 11 -19 25 -30 14 -11 25 -29 25 -41 0 -21
14 -28 24 -12 3 5 22 11 42 13 32 4 41 -1 80 -41 l44 -46 2 -345 c1 -247 4
-351 13 -365 8 -14 14 -113 18 -309 5 -239 9 -292 22 -305 17 -20 37 -369 34
-631 -1 -143 1 -157 20 -182 14 -17 21 -41 21 -67 0 -41 -6 -50 -60 -91 -33
-24 -19 -36 27 -24 24 6 42 18 50 34 17 34 16 160 -1 196 -13 25 -18 64 -17
134 1 70 -12 256 -18 265 -5 5 -11 105 -15 220 -3 116 -11 255 -16 310 -13
118 -21 370 -13 403 3 12 11 22 17 22 13 0 66 51 66 64 0 5 13 25 30 46 18 23
32 54 35 80 6 47 37 90 97 133 22 16 40 38 43 54 3 15 19 55 35 89 17 34 30
65 30 71 0 16 53 59 95 77 67 30 109 51 136 69 29 19 109 32 124 20 24 -19 45
-74 45 -117 0 -38 3 -46 19 -46 10 0 31 -17 46 -37 54 -73 72 -82 157 -83 70
0 79 2 103 26 15 15 30 37 35 50 6 14 18 24 29 24 41 0 131 53 131 77 0 8 5
11 10 8 7 -4 10 13 8 47 -1 34 4 67 15 90 9 19 18 56 19 82 3 40 6 46 25 46
12 0 25 5 28 10 3 6 38 10 77 10 65 0 72 2 98 30 25 27 36 31 107 36 58 5 88
12 115 30 21 13 44 24 53 24 12 0 15 15 15 82 l0 82 -40 36 c-38 33 -41 39
-50 115 -11 87 -26 109 -83 122 -16 3 -35 16 -44 29 -22 34 -33 30 -33 -15 0
-44 14 -60 63 -68 28 -4 38 -13 56 -49 11 -25 21 -59 21 -76 0 -35 39 -93 70
-103 17 -5 20 -15 20 -66 0 -51 -3 -59 -19 -59 -10 0 -29 -8 -42 -19 -15 -11
-50 -21 -92 -25 -84 -8 -112 -21 -127 -56 -10 -25 -15 -27 -43 -20 -18 4 -45
13 -60 22 -25 13 -27 16 -13 27 9 8 16 21 16 31 0 21 19 30 66 30 25 0 43 8
62 28 15 16 39 36 55 45 20 13 27 26 27 48 0 44 -13 63 -70 99 -46 30 -50 35
-50 72 0 31 -7 46 -35 75 -33 34 -34 36 -20 64 20 38 19 68 -5 107 l-20 33 20
26 c28 35 25 64 -10 108 -23 30 -28 41 -19 52 7 8 10 32 6 62 -7 56 10 84 37
62 8 -7 27 -16 41 -19 l26 -7 -22 -29 -23 -29 27 18 c37 24 34 50 -10 90 l-38
35 -42 -42 c-46 -45 -53 -68 -28 -88 14 -12 13 -15 -5 -35 -25 -27 -25 -47 0
-63 11 -7 20 -18 20 -26 0 -7 7 -19 15 -26 8 -7 15 -23 15 -35 0 -12 -7 -28
-15 -35 -19 -16 -19 -51 0 -76 19 -25 19 -44 -1 -82 -20 -42 -15 -62 21 -82
26 -14 30 -23 33 -64 3 -51 25 -79 85 -111 37 -21 35 -54 -5 -92 -35 -32 -88
-63 -110 -63 -19 0 -74 -55 -89 -90 -8 -16 -22 -33 -32 -36 -26 -8 -45 -43
-56 -104 -5 -30 -15 -71 -22 -91 l-13 -35 -43 15 c-41 15 -43 17 -43 58 0 34
7 49 34 79 41 45 48 74 33 132 -11 42 -13 44 -42 39 -25 -4 -33 -1 -41 16 -5
12 -24 29 -42 39 -44 21 -44 21 -33 49 14 38 -12 79 -50 79 -17 0 -39 -5 -50
-10 -16 -9 -19 -7 -19 8 0 27 -61 82 -92 82 -14 0 -31 7 -38 15 -7 8 -19 15
-27 15 -11 0 -13 4 -5 13 6 8 5 29 -4 66 -8 29 -13 72 -12 95 3 38 0 42 -30
56 -30 14 -32 18 -30 60 3 38 6 45 25 48 13 2 37 -8 56 -22 82 -63 157 -66
157 -6 0 24 5 28 38 34 36 6 62 36 62 73 0 15 -43 28 -65 19 -10 -4 -33 17
-72 64 l-57 70 -67 0 -66 0 -7 -66 c-5 -46 -3 -71 6 -83 10 -13 10 -14 -2 -3
-19 16 -91 15 -116 -2 -11 -8 -44 -19 -74 -24 -47 -9 -60 -7 -93 9 -49 26 -48
54 3 54 44 0 62 12 55 34 -4 14 0 16 30 13 19 -2 46 -1 60 2 23 6 25 11 25 59
0 58 21 100 45 91 8 -4 15 -1 15 5 0 7 32 11 95 11 110 0 113 3 98 79 -6 30
-6 55 0 69 17 37 -7 52 -80 52 -68 0 -64 2 -135 -79 -31 -35 -44 -38 -74 -13
-22 18 -74 103 -74 122 0 18 107 62 148 61 20 0 60 -3 87 -6 43 -6 53 -4 69
14 17 19 17 23 3 53 -9 18 -27 44 -41 57 -22 21 -32 23 -71 18 l-46 -7 3 33
c3 32 4 32 61 35 l57 3 0 39 c0 77 -60 106 -102 50 -12 -16 -27 -30 -34 -30
-6 0 -14 -7 -18 -15 -7 -19 -36 -20 -36 0 0 8 -20 23 -45 34 -51 22 -51 33 -3
89 20 24 28 43 28 72 0 36 -3 40 -24 40 -25 0 -88 29 -94 43 -6 13 -22 -3 -36
-37 -12 -29 -18 -33 -40 -29 -21 4 -26 1 -26 -14 0 -37 -81 -93 -137 -93 -21
-1 -49 -7 -63 -15 -37 -21 -57 -18 -64 10 -18 71 54 112 119 68 19 -13 35 -21
35 -18 0 11 -35 60 -61 87 -16 16 -30 45 -34 68 -7 40 -7 40 -53 40 -33 0 -52
6 -69 22 -19 18 -39 23 -92 26 -62 4 -70 2 -85 -19 -9 -13 -16 -32 -16 -43 0
-16 -11 -8 -48 32 -43 46 -53 52 -88 52 -22 0 -49 -6 -59 -14 -18 -13 -18 -15
8 -46 20 -23 26 -39 21 -54 -18 -58 -58 -62 -105 -9 -27 31 -39 37 -69 37 -42
-1 -124 -43 -128 -66 -2 -9 8 -28 22 -42 55 -54 21 -92 -74 -81 l-58 7 -6 48
c-5 37 -13 54 -33 70 -23 18 -25 24 -15 40 21 34 14 49 -29 61 -36 11 -48 10
-110 -11 -38 -13 -69 -30 -69 -36 0 -7 -8 -15 -19 -19 -10 -3 -32 -20 -49 -38
-51 -53 -61 -59 -89 -52 -20 5 -24 10 -18 28 4 12 10 42 15 67 10 60 41 150
52 150 4 0 8 9 8 20 0 11 6 20 13 20 25 0 87 -21 87 -30 0 -14 65 -23 105 -16
34 7 35 9 35 50 0 27 -6 48 -15 56 -22 18 -10 25 37 21 47 -3 76 -18 84 -43 3
-11 15 -18 29 -18 12 0 25 -7 29 -15 3 -8 11 -15 18 -15 7 0 26 -18 41 -40 33
-46 50 -50 73 -15 24 37 48 31 75 -20 13 -25 30 -45 36 -45 19 0 55 79 49 106
-3 12 -2 26 4 29 5 3 10 19 10 34 0 104 96 181 111 89 3 -20 11 -43 17 -51 10
-11 9 -21 -3 -43 -8 -16 -15 -41 -15 -56 l0 -28 60 7 c50 5 61 3 66 -11 5 -13
21 -16 85 -16 73 0 79 2 79 21 0 11 11 40 25 64 l26 43 92 4 92 4 35 -33 c57
-53 70 -46 70 37 0 54 3 70 14 70 22 0 46 -29 46 -56 0 -13 4 -24 9 -24 5 0
11 -10 13 -22 2 -16 12 -24 30 -28 21 -4 25 -8 18 -20 -5 -8 -19 -15 -31 -15
-49 0 -80 -123 -41 -159 11 -9 36 -17 58 -19 37 -2 39 -1 52 41 8 23 18 42 23
42 5 0 9 9 9 20 0 11 12 26 29 34 16 9 32 23 35 32 8 20 -38 94 -58 94 -18 0
-8 48 13 59 9 5 35 12 58 16 66 11 85 44 81 142 -3 69 -5 78 -23 81 -11 1 -30
-5 -43 -13z m34 -107 l-4 -73 -35 -6 c-20 -3 -48 -14 -64 -25 -15 -10 -37 -23
-48 -29 -11 -6 -21 -21 -23 -33 -2 -14 -10 -22 -23 -22 -15 0 -19 7 -19 38 0
21 -7 48 -16 60 l-15 22 79 0 c87 0 91 2 127 75 20 43 35 65 42 65 2 0 2 -33
-1 -72z m-726 29 c26 -22 27 -24 10 -45 -10 -11 -20 -39 -24 -62 -7 -46 -7
-46 -98 -54 l-67 -7 -6 28 c-4 16 -10 35 -15 45 -6 11 -5 18 6 22 8 3 24 21
35 41 17 28 27 35 52 35 18 0 39 5 47 10 22 14 29 13 60 -13z m-562 -113 c8
-2 12 -15 10 -31 -2 -19 -10 -29 -30 -34 -16 -4 -28 -3 -28 2 0 5 -6 9 -14 9
-8 0 -15 14 -18 35 l-4 35 35 -6 c20 -3 42 -7 49 -10z m475 -91 c-7 -2 -19 -2
-25 0 -7 3 -2 5 12 5 14 0 19 -2 13 -5z m671 -123 c-19 -20 -34 -41 -34 -47 0
-14 -47 -63 -59 -63 -9 0 -8 91 2 107 4 6 28 25 54 42 43 29 47 30 59 13 11
-15 8 -22 -22 -52z m-741 -112 c45 -53 71 -59 83 -21 11 36 20 46 57 60 36 15
39 14 75 -11 24 -16 52 -26 74 -26 36 0 37 -1 47 -52 9 -41 9 -53 -1 -59 -37
-21 -49 -38 -53 -69 -10 -77 -16 -90 -40 -90 -60 0 -125 47 -125 90 0 28 -16
50 -37 50 -14 0 -9 -37 12 -100 17 -49 78 -81 159 -82 40 0 67 -6 79 -16 25
-22 115 -22 130 -1 7 9 27 20 44 23 28 6 32 12 35 44 3 36 5 37 45 40 36 3 42
0 48 -20 3 -13 10 -32 15 -43 4 -11 15 -41 25 -67 17 -49 19 -51 69 -52 28 -1
39 -11 50 -48 3 -11 15 -18 31 -18 15 0 24 -4 20 -10 -3 -5 -29 -10 -57 -10
-47 0 -54 4 -89 40 -21 21 -39 50 -41 62 -3 21 -9 23 -69 26 -52 2 -69 -1 -80
-14 -12 -15 -11 -18 5 -28 11 -6 28 -19 38 -28 10 -10 22 -18 27 -18 15 0 22
-33 9 -42 -7 -5 -56 -7 -108 -6 l-95 3 -3 -31 c-2 -25 3 -37 28 -58 27 -22 41
-26 100 -26 48 0 71 -4 80 -15 8 -10 9 -15 2 -15 -17 0 -63 -46 -81 -82 -9
-18 -24 -34 -33 -36 -14 -3 -18 4 -18 31 0 19 -9 45 -20 60 -11 14 -20 30 -20
37 0 6 -13 23 -29 38 -16 15 -36 44 -45 65 -8 20 -20 37 -26 37 -6 0 -29 19
-49 42 -33 36 -44 42 -84 44 -72 4 -84 11 -111 67 -26 55 -61 95 -73 83 -4 -4
10 -41 32 -83 29 -56 64 -100 128 -164 l88 -88 -10 -137 c-10 -125 -9 -139 7
-157 40 -45 73 -44 98 5 l15 29 38 -34 c21 -19 46 -39 55 -44 15 -8 16 -13 4
-39 -18 -41 -37 -53 -83 -54 -22 0 -65 -9 -95 -20 -30 -11 -59 -19 -64 -20 -5
0 -6 22 -3 49 4 37 2 53 -9 61 -11 10 -13 38 -8 156 4 107 3 148 -6 159 -18
21 -86 19 -108 -3 -10 -10 -32 -24 -50 -31 -17 -7 -34 -23 -38 -35 -3 -11 -12
-28 -19 -36 -16 -19 -40 -90 -37 -110 2 -15 -58 -40 -96 -40 -18 0 -47 -19
-88 -57 -28 -26 -33 -97 -9 -129 8 -10 15 -31 15 -47 0 -26 -1 -27 -42 -21
-29 4 -54 17 -78 40 -33 31 -35 38 -38 103 l-3 70 38 10 c21 6 45 11 54 11 28
0 98 85 105 127 7 47 20 65 59 82 17 7 46 31 65 53 34 40 34 40 33 135 -1 52
-7 100 -13 108 -6 7 -24 15 -40 19 -17 3 -30 12 -30 19 0 41 -68 89 -143 102
-33 5 -43 2 -81 -30 -53 -43 -101 -48 -116 -11 -5 13 -14 27 -19 31 -6 3 -11
17 -11 31 0 23 3 24 59 24 77 0 91 14 91 85 0 41 -4 57 -17 64 -17 10 -17 12
1 26 32 24 73 18 127 -20 28 -19 60 -35 71 -35 31 0 58 19 58 41 0 11 5 30 11
41 8 15 8 27 0 44 -10 23 -9 24 23 24 29 0 41 -8 79 -52z m729 -100 c23 -11
25 -17 21 -48 -3 -19 -14 -44 -24 -56 -29 -31 -25 -78 9 -103 15 -12 38 -30
51 -42 34 -28 71 -21 96 18 14 23 28 32 48 33 15 0 27 -2 27 -4 0 -2 3 -11 6
-20 5 -13 -1 -16 -34 -16 -44 0 -59 -12 -68 -59 -9 -42 -17 -45 -44 -16 -14
15 -35 25 -51 25 -37 0 -91 76 -99 138 -4 33 -11 47 -31 59 -44 27 -87 6 -149
-73 -8 -10 -25 -28 -38 -38 -20 -17 -26 -18 -62 -6 -39 13 -45 30 -11 30 10 0
24 7 31 15 7 8 23 15 35 15 19 0 57 24 112 70 7 5 18 10 24 10 7 0 20 6 28 14
21 19 84 64 92 65 3 1 17 -5 31 -11z m-960 -408 l16 -35 -26 -3 c-36 -5 -52
-20 -52 -47 0 -12 -3 -25 -7 -29 -5 -4 -8 -22 -8 -39 0 -32 0 -32 -57 -35 -32
-2 -58 1 -58 5 0 5 11 25 25 45 17 25 27 58 31 96 6 52 10 60 33 70 14 6 39
10 56 9 24 -2 33 -9 47 -37z m832 -212 c7 -37 9 -34 -30 -41 -29 -6 -31 -4
-27 21 8 45 12 52 31 52 14 0 21 -9 26 -32z m473 -287 c39 -28 73 -67 73 -83
0 -12 -58 -10 -65 2 -3 6 -28 10 -55 10 l-48 0 10 36 c5 20 7 42 4 50 -10 25
38 16 81 -15z m-142 -131 c12 0 30 -7 41 -15 18 -14 18 -14 -5 -15 -36 0 -61
-28 -61 -67 l0 -33 -112 1 c-114 1 -122 3 -57 13 26 5 39 14 48 32 6 15 28 46
47 70 34 41 37 43 57 29 12 -8 31 -15 42 -15z m240 8 c-1 -13 -5 -31 -8 -40
-4 -10 -9 -25 -12 -33 -5 -16 -41 -20 -72 -8 -14 6 -8 9 21 13 22 3 41 11 44
18 3 9 -3 11 -23 6 -15 -4 -36 -2 -48 5 -12 6 -35 16 -52 23 -29 12 -27 12 42
18 39 3 75 8 79 13 15 14 30 7 29 -15z m-255 -515 c24 -31 26 -103 2 -103 -20
0 -11 -41 13 -54 11 -6 33 -21 48 -33 49 -39 198 -29 210 14 3 10 11 44 17 76
9 47 15 57 32 57 17 0 20 -5 15 -29 -3 -15 -1 -33 5 -39 7 -7 3 -12 -12 -17
-23 -7 -40 -42 -40 -80 0 -29 -49 -80 -86 -89 -14 -4 -37 -20 -51 -36 -36 -44
-67 -40 -87 10 -9 22 -16 49 -16 59 0 11 -7 26 -15 35 -8 8 -15 19 -15 24 0 5
-20 15 -45 21 -40 10 -45 14 -45 40 0 21 -6 32 -20 36 -47 15 2 133 57 135 6
0 21 -12 33 -27z m254 -85 c-11 -101 -49 -134 -116 -103 -19 8 -25 13 -13 12
16 -2 21 5 23 31 2 17 9 32 15 32 17 1 62 41 76 68 19 36 22 26 15 -40z
m-2059 -18 c16 -25 -8 -94 -47 -136 -31 -34 -37 -46 -29 -61 5 -10 12 -26 15
-35 4 -13 16 -18 44 -18 38 0 40 2 61 50 12 28 26 50 32 50 5 0 25 -16 45 -35
54 -55 117 -47 149 19 15 32 79 60 105 46 42 -22 9 -130 -40 -130 -23 0 -28
-21 -18 -84 5 -36 4 -52 -6 -60 -27 -23 -46 -67 -46 -106 l0 -40 -88 0 c-62 0
-94 -4 -108 -15 -10 -8 -27 -15 -36 -15 -16 0 -18 10 -18 78 -1 52 -5 83 -15
96 -8 11 -15 30 -15 43 0 13 -3 23 -6 23 -10 0 -49 -23 -55 -33 -4 -5 -24 -6
-49 -2 l-42 7 3 87 4 86 -27 3 c-15 2 -40 -4 -56 -12 -27 -14 -31 -14 -50 4
-27 26 -68 26 -84 0 -17 -26 -25 -25 -76 10 -24 16 -48 30 -54 32 -16 6 7 44
38 64 22 15 28 15 52 3 15 -8 33 -22 40 -31 7 -10 19 -18 26 -18 13 0 46 57
46 78 0 16 42 42 67 42 21 0 23 -4 23 -54 0 -49 2 -54 25 -60 34 -9 45 -1 45
33 0 21 13 40 50 75 42 39 53 45 69 36 11 -5 23 -15 26 -20z m814 -19 c12 -8
11 -13 -10 -30 -46 -38 -94 -17 -53 23 17 18 42 20 63 7z m1364 -68 c11 -14
29 -23 45 -23 l26 0 -34 -25 c-21 -16 -47 -25 -70 -25 -20 0 -41 -5 -48 -12
-6 -6 -3 6 8 27 11 22 20 49 20 60 0 42 19 41 53 -2z m-1346 -59 c1 -21 -1
-32 -4 -24 -3 8 -17 25 -31 37 -23 19 -23 21 -6 26 32 8 39 2 41 -39z m493
-19 c22 -43 37 -56 55 -49 11 4 7 -3 -9 -19 -14 -14 -26 -33 -26 -42 0 -9 -9
-15 -21 -15 -20 0 -21 4 -17 44 3 24 2 50 -2 57 -4 8 -11 25 -15 38 -10 33 16
23 35 -14z m390 -40 c0 -12 7 -30 15 -41 20 -27 20 -50 -1 -30 -8 9 -24 21
-35 26 -10 6 -19 19 -19 29 0 10 -7 24 -15 31 -14 11 -13 14 7 25 19 10 25 9
36 -3 6 -9 12 -25 12 -37z m-186 -48 c-1 -32 -6 -63 -13 -70 -8 -8 -11 -4 -11
15 0 14 -7 31 -15 38 -8 7 -15 18 -14 24 3 25 -2 36 -15 36 -8 0 -18 5 -21 11
-5 7 9 9 42 7 l48 -3 -1 -58z m117 16 c6 -50 24 -73 55 -73 39 0 28 -13 -50
-58 -41 -23 -80 -49 -86 -57 -7 -8 -19 -15 -27 -15 -12 0 -14 9 -8 47 4 26 13
52 20 58 8 6 15 35 16 70 2 33 5 64 7 68 2 4 18 7 35 5 29 -3 32 -7 38 -45z
m-1109 15 c2 -19 10 -24 44 -26 28 -2 47 2 57 12 9 9 20 16 26 16 6 0 11 4 11
9 0 5 10 7 23 3 22 -5 39 -25 43 -49 1 -6 14 -28 29 -47 19 -25 29 -53 34 -95
4 -33 12 -65 17 -73 9 -12 18 -159 19 -323 0 -81 -19 -84 -84 -13 -101 110
-141 155 -141 161 0 3 -45 50 -100 105 -55 55 -100 103 -100 106 0 4 -15 23
-32 42 -18 20 -33 43 -33 50 0 8 -7 19 -15 24 -11 7 -7 10 18 10 43 0 66 13
116 65 47 49 63 55 68 23z m939 -117 c-6 -11 -11 -28 -11 -39 0 -11 -13 -36
-29 -56 -16 -20 -33 -50 -36 -66 -4 -17 -11 -32 -16 -35 -5 -4 -9 -14 -9 -23
0 -9 -22 -41 -49 -71 -42 -46 -68 -97 -56 -109 9 -10 67 61 104 127 23 41 55
90 71 108 22 24 30 44 30 71 0 20 5 44 10 52 7 11 10 7 10 -17 0 -17 4 -35 10
-38 5 -3 -8 -29 -30 -59 -22 -29 -40 -58 -40 -63 0 -6 -7 -13 -15 -16 -8 -3
-24 -28 -35 -54 -33 -76 -43 -93 -52 -93 -5 0 -22 -21 -38 -47 -28 -44 -30
-45 -30 -19 0 24 -2 27 -15 16 -8 -7 -15 -19 -15 -27 0 -8 -12 -27 -28 -41
-40 -40 -82 -98 -82 -116 0 -18 -17 -21 -39 -7 -12 8 -15 61 -19 285 -2 152
-1 284 3 293 5 10 7 22 6 27 -5 21 30 26 132 20 102 -6 109 -5 142 17 22 15
35 32 35 46 0 35 21 32 63 -8 32 -32 37 -41 28 -58z m-208 32 c-7 -2 -21 -2
-30 0 -10 3 -4 5 12 5 17 0 24 -2 18 -5z m561 -9 c9 -3 16 -17 16 -30 0 -29
-22 -23 -45 12 -13 20 -13 24 -1 24 8 0 21 -3 30 -6z m230 -133 c-6 -104 -5
-122 10 -136 30 -30 20 -45 -31 -45 -46 0 -49 2 -77 46 -16 25 -39 52 -52 61
-25 16 -33 46 -11 41 32 -7 77 25 98 71 24 50 47 81 61 81 5 0 6 -50 2 -119z
m-1667 -13 c22 -24 47 -49 54 -56 68 -67 109 -115 132 -156 15 -27 27 -50 27
-51 0 -2 -9 -1 -20 2 -29 8 -97 89 -105 125 -9 39 -79 73 -131 63 l-34 -6 0
41 c0 41 14 80 29 80 4 0 26 -19 48 -42z m800 -493 c-8 -18 -97 -76 -108 -70
-16 10 -10 25 10 25 20 0 71 53 71 74 0 6 6 18 13 25 10 10 13 7 15 -14 2 -15
1 -33 -1 -40z"/>
<path d="M1536 4278 c-23 -33 -20 -50 15 -81 41 -36 92 -37 114 -3 15 22 15
28 1 53 -27 53 -103 70 -130 31z m90 -23 c20 -31 11 -45 -32 -45 -29 0 -34 3
-34 23 0 48 40 62 66 22z"/>
<path d="M1782 4288 c-7 -7 -12 -28 -12 -47 l0 -35 30 34 c16 19 29 41 30 48
0 15 -32 16 -48 0z"/>
<path d="M1016 4904 c-10 -27 -7 -61 8 -73 33 -27 69 26 46 68 -13 25 -45 28
-54 5z"/>
<path d="M2247 4532 c-25 -28 -21 -39 25 -72 50 -36 82 -36 85 0 3 39 -5 54
-36 73 -37 22 -54 21 -74 -1z"/>
<path d="M720 3758 c-33 -46 -38 -82 -14 -116 19 -27 36 -28 59 -2 30 33 105
25 105 -12 0 -10 11 -29 23 -41 13 -12 29 -32 36 -44 17 -32 35 -29 71 15 28
33 31 43 27 85 -5 61 -25 81 -80 82 -34 1 -54 9 -91 38 -66 50 -97 49 -136 -5z
m107 0 c28 -10 33 -17 33 -45 l0 -33 -60 0 c-47 0 -60 -3 -60 -15 0 -8 -4 -15
-10 -15 -21 0 -9 58 18 88 31 36 34 36 79 20z m162 -79 c9 -27 -8 -109 -25
-116 -7 -2 -21 4 -31 14 -27 28 -56 83 -44 83 6 0 20 9 31 20 26 26 59 26 69
-1z"/>
<path d="M557 3569 c-10 -6 -23 -8 -30 -6 -26 9 -47 -13 -47 -51 0 -75 50
-104 104 -61 23 18 27 28 24 63 -6 63 -17 75 -51 55z m13 -54 c10 -12 10 -18
0 -30 -7 -8 -18 -15 -25 -15 -7 0 -18 7 -25 15 -10 12 -10 18 0 30 7 8 18 15
25 15 7 0 18 -7 25 -15z"/>
<path d="M740 3554 c-8 -9 -24 -20 -37 -25 -18 -7 -23 -16 -23 -44 0 -49 28
-75 83 -75 32 0 49 -6 63 -21 23 -26 67 -49 91 -49 10 0 32 -11 48 -25 l30
-24 -55 -1 c-67 0 -96 -14 -50 -24 59 -11 99 -7 120 14 27 27 26 29 -17 67
-31 28 -45 33 -85 33 -42 0 -50 3 -60 25 -13 29 -44 40 -92 32 -50 -8 -81 34
-36 48 11 4 20 12 19 18 -6 52 15 48 79 -13 40 -38 60 -50 84 -50 53 0 109
-22 131 -52 21 -29 50 -37 62 -17 9 14 -34 59 -57 59 -9 0 -32 9 -50 20 -18
11 -42 20 -53 20 -11 0 -26 9 -33 20 -7 11 -23 20 -37 20 -16 0 -28 9 -37 28
-16 33 -67 43 -88 16z"/>
<path d="M3170 3461 c-93 -13 -92 -32 8 -127 85 -82 126 -107 169 -102 28 3
28 3 27 75 -1 52 -6 77 -18 88 -9 9 -16 22 -16 30 0 18 -40 27 -47 10 -2 -8 5
-28 16 -44 16 -21 21 -44 21 -87 0 -56 -1 -57 -16 -36 -8 12 -21 22 -29 22 -8
0 -41 27 -75 60 -48 47 -57 60 -41 60 24 0 111 41 111 52 0 9 -43 9 -110 -1z"/>
<path d="M826 3245 c-3 -9 0 -15 9 -15 8 0 15 7 15 15 0 8 -4 15 -9 15 -5 0
-11 -7 -15 -15z"/>
<path d="M2992 3200 c-12 -12 -22 -32 -22 -46 l0 -25 26 20 c15 12 34 21 43
21 9 -1 0 -9 -19 -20 -46 -25 -100 -75 -100 -94 0 -8 11 -28 25 -44 13 -16 29
-41 34 -55 12 -32 60 -47 154 -47 38 0 67 -4 67 -10 0 -12 -7 -13 -90 -10 -36
1 -75 8 -87 16 -12 8 -35 14 -51 14 -16 0 -37 8 -46 19 -9 10 -30 21 -47 25
-25 5 -29 10 -29 38 0 18 8 52 17 75 16 37 22 43 53 46 35 4 35 4 -5 5 -46 2
-51 -1 -88 -50 -49 -67 -29 -149 40 -163 13 -3 34 -7 48 -10 14 -3 25 -11 25
-19 0 -19 45 -26 160 -26 109 0 130 11 130 68 l0 32 -89 0 c-106 0 -136 9
-145 44 -5 19 -13 26 -31 26 -14 0 -25 3 -25 6 0 13 84 85 106 90 48 12 56 76
11 88 -34 9 -42 7 -65 -14z"/>
<path d="M645 3054 c-47 -23 -118 -74 -85 -59 8 4 6 -1 -4 -9 -11 -9 -25 -16
-32 -16 -15 0 -44 27 -44 41 0 18 -39 8 -70 -18 -28 -23 -31 -31 -27 -60 8
-44 -10 -51 -77 -29 -71 22 -82 21 -114 -11 -15 -16 -40 -35 -56 -43 -45 -23
-55 -46 -28 -65 12 -9 22 -22 22 -30 0 -12 -69 -59 -112 -77 -16 -7 -18 -28
-18 -234 0 -240 2 -250 45 -188 55 80 52 78 97 76 24 -2 48 -9 54 -17 6 -8 16
-15 21 -15 6 0 23 -10 38 -22 23 -18 33 -20 64 -12 34 9 36 11 39 57 3 48 6
51 55 47 16 -1 37 6 47 15 10 9 29 15 42 13 19 -2 23 -8 20 -35 -3 -31 -3 -31
37 -26 40 6 41 5 41 -25 0 -45 25 -55 92 -38 39 10 48 16 35 21 -10 4 -36 5
-57 2 -33 -4 -40 -2 -40 12 0 21 -26 46 -57 55 -12 4 -32 20 -43 37 -27 36
-42 36 -123 0 -51 -23 -67 -35 -75 -60 -8 -23 -17 -31 -35 -31 -35 0 -41 12
-15 31 20 16 23 26 24 111 1 100 -6 118 -42 118 -23 0 -28 8 -38 70 -6 35 -6
36 39 48 32 8 49 19 57 37 10 22 16 24 45 19 22 -4 41 -1 58 10 13 9 38 16 55
16 17 0 39 9 50 20 22 22 24 29 11 48 -6 11 -12 9 -27 -10 -14 -17 -27 -22
-53 -20 -24 3 -39 -2 -52 -17 -23 -25 -39 -27 -39 -6 0 24 -53 19 -77 -7 -11
-13 -23 -31 -26 -40 -4 -10 -13 -18 -21 -18 -9 0 -20 -8 -25 -18 -9 -17 -41
-143 -41 -163 0 -5 19 -9 43 -10 23 0 50 -4 60 -8 17 -6 17 -8 -2 -25 -22 -20
-29 -80 -11 -91 17 -10 -1 -35 -26 -35 -13 0 -24 -5 -24 -12 0 -9 -3 -9 -12 0
-23 23 -81 14 -135 -23 l-51 -34 -4 111 c-1 62 -1 139 2 172 l5 60 60 34 c33
18 66 40 73 49 15 21 16 65 0 81 -9 9 -5 19 17 42 33 34 50 37 98 14 32 -15
37 -15 80 4 42 19 45 19 50 3 3 -14 12 -17 38 -13 19 3 38 11 42 18 5 9 17 12
34 8 14 -4 28 -2 32 3 3 5 24 22 46 38 l40 29 -29 -32 -30 -32 26 0 c35 0 80
37 76 63 -5 35 -32 43 -63 19 -36 -28 -50 -28 -30 1 8 12 30 27 47 33 30 10
91 74 71 74 -5 0 -31 -11 -58 -26z m-140 -94 c3 -5 18 -10 33 -11 l27 -1 -30
-13 c-16 -8 -45 -14 -62 -15 -29 0 -33 3 -33 25 0 21 5 25 29 25 17 0 33 -4
36 -10z"/>
<path d="M1056 2878 c-9 -12 -16 -39 -16 -60 0 -30 6 -41 33 -61 44 -34 137
-43 169 -17 19 15 20 20 9 33 -7 9 -22 17 -34 19 -16 2 -26 15 -36 48 -17 53
-24 60 -73 60 -27 0 -41 -6 -52 -22z m96 -45 c10 -9 18 -29 18 -45 0 -24 4
-28 28 -29 l27 -1 -27 -10 c-23 -8 -33 -6 -57 11 -16 12 -39 21 -50 21 -23 0
-27 20 -11 51 13 23 47 25 72 2z"/>
<path d="M3327 2842 c-27 -29 -22 -69 9 -76 39 -10 78 24 67 59 -11 38 -49 47
-76 17z"/>
<path d="M2117 2802 c-21 -23 -21 -32 -2 -32 12 0 35 28 35 44 0 12 -17 5 -33
-12z"/>
<path d="M2062 2748 c-15 -15 -15 -65 -1 -74 15 -9 29 14 29 48 0 31 -12 42
-28 26z"/>
<path d="M1686 248 c-4 -9 -8 -67 -9 -130 l-2 -113 138 -3 c128 -2 138 -1 135
15 -3 16 -17 18 -114 21 l-111 3 -8 62 c-18 144 -21 162 -29 145z"/>
</g>
</svg>
