<?xml version="1.0" standalone="no"?>
<!DOCTYPE svg PUBLIC "-//W3C//DTD SVG 20010904//EN"
 "http://www.w3.org/TR/2001/REC-SVG-20010904/DTD/svg10.dtd">
<svg version="1.0" xmlns="http://www.w3.org/2000/svg"
 width="422pt" height="648pt" viewBox="0 0 422 648"
 preserveAspectRatio="xMidYMid meet">
<metadata>
Created by potrace 1.8, written by Peter Selinger 2001-2007
</metadata>
<g transform="translate(0,648) scale(0.110017,-0.110017)"
fill="#000000" stroke="none">
<path d="M1506 5769 c-32 -25 -34 -46 -4 -51 40 -6 33 -28 -9 -28 -53 0 -132
30 -165 63 -20 19 -39 27 -64 27 -34 0 -35 -2 -34 -32 3 -50 1 -58 -13 -58
-26 0 -47 -36 -47 -78 0 -31 -6 -45 -25 -60 -14 -11 -34 -18 -44 -15 -19 5
-54 -33 -50 -53 7 -38 -11 -44 -41 -14 -11 11 -33 20 -49 20 -23 0 -30 -6 -35
-26 -4 -14 -4 -34 -1 -45 5 -16 1 -19 -24 -19 -35 0 -76 -33 -48 -38 9 -2 17
-9 17 -17 0 -7 7 -16 16 -19 10 -4 14 -15 12 -32 -3 -23 -10 -29 -53 -40 -27
-7 -60 -13 -72 -14 -20 0 -23 -5 -23 -41 0 -30 -6 -46 -22 -60 l-23 -19 35
-30 c21 -18 47 -30 64 -30 l30 0 -34 -30 c-34 -30 -64 -38 -75 -20 -11 18 -75
11 -105 -12 -35 -26 -39 -61 -9 -82 18 -12 20 -21 14 -54 -5 -31 -17 -49 -51
-79 -36 -30 -45 -44 -44 -68 3 -52 1 -55 -35 -55 -48 0 -57 -25 -21 -57 15
-12 36 -23 47 -23 10 0 19 -7 19 -15 0 -12 -14 -15 -63 -15 -72 0 -97 -17 -97
-64 0 -19 -6 -29 -20 -33 -11 -3 -20 -8 -20 -12 0 -17 42 -71 55 -71 17 0 22
-55 5 -65 -5 -3 -10 -19 -10 -36 0 -22 -5 -29 -20 -29 -11 0 -20 -5 -20 -10 0
-6 -10 -14 -23 -19 -33 -13 -52 -72 -35 -108 11 -24 20 -28 63 -31 27 -2 58
-10 67 -19 10 -9 25 -13 34 -9 20 8 84 -11 84 -25 0 -5 8 -9 19 -9 20 0 71
-36 71 -51 0 -5 -11 -14 -24 -19 -13 -5 -27 -14 -31 -19 -3 -6 -14 -11 -24
-11 -10 0 -24 -7 -31 -15 -10 -12 -32 -15 -104 -13 -76 2 -96 -1 -121 -17 -16
-11 -34 -25 -38 -32 -4 -7 -16 -13 -27 -13 -11 0 -22 -11 -29 -30 -7 -20 -17
-30 -30 -30 -12 0 -21 -7 -21 -15 0 -8 -8 -15 -18 -15 -33 0 -70 -46 -77 -97
-3 -27 -7 -55 -8 -63 -1 -8 -12 -16 -25 -18 -27 -4 -31 -46 -6 -56 15 -6 15
-8 0 -25 -14 -15 -16 -37 -14 -126 l3 -107 24 21 c30 26 47 27 54 1 3 -11 14
-20 25 -20 11 0 25 -7 32 -15 19 -23 43 -18 71 17 28 34 59 34 59 0 0 -17 10
-20 79 -25 49 -3 89 -11 103 -21 31 -22 81 -20 103 4 13 15 31 20 69 20 29 0
59 7 70 15 33 25 46 18 46 -24 0 -62 -34 -114 -112 -168 -25 -18 -51 -33 -56
-33 -5 0 -15 -7 -22 -15 -19 -22 -45 -18 -60 10 -17 31 -21 31 -70 0 -41 -26
-52 -59 -28 -83 8 -8 8 -15 -2 -27 -15 -19 -47 -19 -80 0 -50 29 -130 11 -130
-29 0 -10 -8 -16 -22 -16 -23 -1 -68 -31 -68 -47 0 -4 10 -13 22 -18 41 -18
32 -40 -31 -78 -32 -20 -64 -37 -70 -37 -8 0 -11 -68 -11 -225 0 -124 3 -225
8 -225 8 0 52 62 52 73 0 4 8 16 17 27 22 25 110 29 119 5 10 -26 89 -57 128
-50 33 7 35 10 38 49 l3 41 47 3 c25 2 52 10 58 18 16 18 46 18 54 -1 3 -8 1
-15 -4 -15 -6 0 -10 -9 -10 -21 0 -18 4 -20 45 -13 l45 6 0 -31 c0 -36 27 -48
86 -36 37 6 37 6 31 -24 -6 -30 -6 -31 31 -31 21 0 46 6 57 13 11 8 30 16 43
20 17 4 23 0 28 -20 6 -24 1 -88 -12 -138 -6 -24 -4 -25 39 -25 39 0 49 5 72
32 24 29 29 30 39 16 9 -13 25 -16 72 -13 32 2 75 8 94 14 62 20 89 14 129
-27 21 -20 40 -45 44 -55 4 -9 15 -20 24 -24 21 -7 53 -38 53 -51 0 -10 80
-91 219 -224 l91 -88 2 -82 c4 -248 -9 -707 -22 -758 -5 -19 -6 -69 -3 -110 3
-41 6 -82 5 -90 -7 -212 -16 -335 -27 -375 -22 -80 -14 -135 15 -100 6 7 18
11 26 8 9 -3 19 7 29 31 9 20 20 34 25 31 7 -4 6 -13 0 -26 -8 -14 -7 -19 1
-19 6 0 9 -7 6 -15 -4 -8 -2 -17 2 -20 14 -8 36 26 34 54 -1 14 1 18 3 9 3
-10 10 -18 15 -18 5 0 9 -9 9 -19 0 -25 18 -37 33 -22 8 8 7 11 -5 11 -16 0
-28 28 -28 68 0 12 -4 22 -10 22 -5 0 -10 7 -10 15 0 8 5 15 10 15 6 0 10 -7
10 -15 0 -8 4 -15 9 -15 14 0 22 30 8 30 -7 1 -5 6 6 14 9 7 17 18 17 25 0 15
17 14 23 -1 4 -10 8 -10 16 2 5 8 6 21 1 29 -4 8 -4 25 0 37 10 26 8 63 -5 84
-5 9 -4 15 4 18 8 3 7 8 -5 16 -15 11 -15 14 0 28 9 9 12 18 7 20 -5 2 -3 12
5 22 13 19 14 19 14 -7 0 -15 5 -27 10 -27 6 0 10 8 10 18 0 30 13 34 27 10
13 -24 13 -24 13 50 0 4 -4 8 -10 8 -23 3 -24 6 -5 14 19 8 19 9 -2 9 -18 1
-23 7 -22 29 0 15 3 21 6 15 2 -7 9 -13 14 -13 13 0 11 57 -1 65 -8 5 -8 11
-1 19 13 15 13 90 1 261 -5 72 -11 175 -14 230 -3 55 -8 150 -11 212 -7 120
-10 109 54 208 14 22 29 42 34 43 4 2 7 8 7 13 0 12 79 132 140 214 25 33 65
99 90 148 45 90 67 112 149 147 14 6 45 26 70 44 75 54 84 57 138 46 57 -12
81 -45 90 -123 4 -35 11 -51 24 -55 10 -4 29 -22 42 -40 13 -17 41 -44 63 -58
34 -24 44 -25 98 -19 67 7 126 28 126 44 0 6 10 11 21 11 12 0 40 16 63 36
106 93 107 95 85 135 -8 16 -5 35 16 87 20 49 25 76 21 104 -5 30 -2 41 14 55
11 10 20 21 20 25 0 15 63 78 77 78 7 0 13 4 13 9 0 5 15 14 33 22 105 42 171
114 147 160 -6 10 -14 18 -18 16 -4 -1 -21 10 -37 26 -17 15 -38 30 -47 33
-10 3 -18 12 -18 19 0 9 6 12 18 9 10 -4 13 -3 6 3 -6 4 -14 25 -18 46 -6 31
-13 41 -37 49 -32 11 -39 40 -14 64 26 26 19 82 -15 114 -22 21 -30 24 -32 12
-3 -13 -6 -13 -22 3 -19 19 -19 20 5 25 13 4 38 6 55 5 30 -1 31 1 30 40 -1
30 -9 47 -31 70 -17 16 -32 30 -35 31 -3 0 -16 5 -30 11 -24 10 -24 10 15 28
54 25 54 24 20 51 -16 13 -24 24 -17 24 6 0 12 7 12 15 0 8 7 15 15 15 8 0 15
7 15 15 0 8 6 15 14 15 8 0 16 6 18 12 6 16 78 -37 78 -57 0 -12 -44 -55 -75
-72 -7 -5 -15 -21 -17 -38 -2 -24 1 -31 18 -33 11 -2 28 6 39 18 10 11 30 20
45 20 21 0 29 6 34 24 3 14 16 26 31 30 20 5 25 13 25 36 0 17 -4 30 -10 30
-5 0 -10 6 -10 13 0 8 -8 21 -18 30 -10 9 -24 32 -31 50 -14 36 -38 40 -62 11
-23 -27 -37 -15 -43 39 -9 69 -31 89 -102 91 -49 1 -53 3 -48 21 10 31 24 45
47 45 27 0 57 -28 50 -46 -4 -10 3 -14 26 -14 19 0 34 6 37 15 4 8 12 15 20
15 23 0 16 20 -12 30 -14 6 -40 10 -59 10 -19 0 -37 5 -40 10 -3 6 -13 10 -21
10 -16 0 -54 -35 -54 -49 0 -5 -3 -11 -7 -13 -5 -1 -18 -17 -30 -35 -28 -39
-30 -75 -5 -72 35 3 42 -2 42 -32 0 -63 -7 -67 -137 -68 -65 -1 -123 2 -129 6
-13 9 -27 73 -16 73 4 0 14 -4 22 -10 9 -5 19 -5 27 1 7 6 16 8 21 5 11 -7 23
8 39 45 10 23 8 30 -15 56 -15 17 -35 33 -45 36 -13 5 -17 15 -15 33 3 22 12
31 67 61 12 7 -30 32 -45 26 -14 -5 -16 -2 -11 18 4 13 7 26 7 29 0 3 16 14
36 25 30 16 37 17 45 4 6 -10 9 -10 9 -1 0 18 27 15 34 -4 3 -9 6 -25 6 -36 0
-11 8 -22 20 -25 11 -3 20 -9 20 -14 0 -5 13 -9 28 -9 31 0 62 26 62 52 0 10
12 19 30 23 16 4 33 11 36 17 11 17 -36 56 -82 67 -49 12 -51 16 -28 42 13 14
26 16 72 12 l57 -6 -37 33 c-29 25 -39 42 -44 77 -5 32 -3 48 6 53 15 9 5 30
-14 30 -8 0 -19 7 -26 15 -7 8 -28 15 -49 15 -33 -1 -34 -2 -17 -15 19 -15 14
-35 -10 -35 -8 0 -14 -4 -14 -10 0 -5 -7 -10 -15 -10 -8 0 -15 -4 -15 -9 0
-10 -48 1 -72 15 -6 4 -23 8 -37 9 -25 1 -101 78 -101 102 0 7 -12 15 -27 19
-16 3 -35 8 -43 12 -8 3 -26 6 -40 7 -75 4 -75 4 -95 50 -11 25 -23 45 -27 45
-16 0 -7 23 23 61 17 21 37 39 45 39 14 0 19 23 15 70 -3 34 -8 38 -67 46 -45
5 -55 3 -73 -15 -11 -11 -25 -21 -31 -21 -5 0 -10 -4 -10 -10 0 -20 -27 -10
-38 14 -13 30 4 76 29 76 9 0 19 6 22 14 4 10 15 12 49 5 24 -4 46 -8 51 -9 4
0 12 -11 17 -25 9 -24 10 -24 52 -9 48 17 88 50 88 73 0 21 -62 110 -77 111
-7 0 -13 5 -13 10 0 6 -7 10 -15 10 -19 0 -19 7 0 26 16 17 10 44 -11 44 -21
0 -17 21 6 27 27 7 25 30 -2 36 -43 10 -122 20 -172 21 l-49 1 -4 40 c-2 22
-10 45 -18 51 -8 6 -15 16 -15 22 0 7 -11 14 -25 18 -20 5 -25 12 -25 39 0 18
7 38 16 45 27 23 37 51 26 74 -6 11 -13 29 -16 39 -3 10 -15 17 -32 17 -17 0
-28 6 -31 20 -3 11 -8 20 -12 21 -40 5 -67 4 -72 -3 -8 -12 -59 9 -59 24 0 6
10 22 22 35 21 22 21 26 8 50 -9 16 -25 27 -39 28 -37 3 -93 -21 -116 -49 -17
-21 -88 -56 -115 -56 -11 0 -30 57 -30 86 0 18 -6 24 -23 24 -13 0 -28 5 -34
11 -7 7 -17 2 -33 -21 -19 -26 -28 -31 -58 -28 -30 2 -37 8 -43 32 -9 33 -65
86 -91 86 -28 0 -58 -18 -58 -35 0 -8 -7 -15 -15 -15 -8 0 -15 9 -15 20 0 31
-36 95 -66 119 -34 27 -74 27 -108 0z m805 -1246 c27 -16 57 -79 44 -92 -7 -6
-44 15 -85 48 -29 25 -32 31 -21 45 17 20 26 20 62 -1z m119 -153 c0 -26 12
-31 72 -33 54 -2 64 -11 54 -50 -7 -28 -56 -88 -66 -82 -4 3 -10 -4 -13 -15
-3 -14 5 -27 28 -45 19 -14 39 -25 45 -25 7 0 10 -8 7 -20 -3 -12 -1 -17 5
-14 5 3 15 -2 22 -12 12 -16 16 -15 50 18 20 19 36 40 36 47 0 6 7 11 15 11 9
0 18 7 21 15 8 19 34 20 34 1 0 -8 5 -16 12 -18 6 -2 12 -28 14 -58 1 -30 0
-49 -4 -44 -12 18 -46 32 -72 29 -14 -2 -28 -4 -32 -4 -5 -1 -8 -24 -8 -52 0
-40 -3 -50 -14 -46 -8 3 -16 1 -18 -5 -3 -7 -15 -9 -31 -4 -22 5 -27 12 -27
36 0 26 -4 30 -28 30 -38 0 -70 -23 -56 -41 6 -8 14 -24 17 -36 4 -18 1 -23
-14 -23 -17 0 -18 7 -16 68 3 65 0 78 -46 185 -7 15 -18 27 -24 27 -7 0 -13 5
-13 11 0 5 -5 7 -10 4 -11 -7 -56 -17 -77 -18 -7 0 -18 -16 -24 -36 -27 -82
-105 -110 -155 -56 -25 27 -24 45 2 45 8 0 14 5 14 10 0 6 13 10 29 10 16 0
34 7 41 15 7 8 25 15 40 15 15 0 33 7 40 15 7 8 17 15 22 15 18 0 38 29 38 54
0 31 20 35 27 6 5 -20 6 -20 25 2 15 18 18 32 14 60 -5 31 -3 36 9 32 8 -4 15
-14 15 -24z m-460 -355 c7 -8 21 -15 31 -15 11 0 19 -6 19 -12 0 -7 14 -24 31
-37 16 -13 37 -37 45 -53 8 -16 28 -41 44 -57 17 -15 30 -37 30 -49 0 -11 8
-23 18 -26 28 -9 49 -53 35 -75 -6 -10 -8 -24 -3 -31 7 -12 13 -12 34 0 14 7
26 19 26 27 0 7 5 13 10 13 6 0 10 7 10 15 0 8 5 15 10 15 6 0 10 6 10 14 0
16 21 26 56 26 27 0 28 -3 14 -30 -7 -13 -5 -27 6 -49 25 -51 17 -62 -34 -45
-35 12 -45 13 -55 2 -27 -27 -28 -49 -2 -70 31 -24 31 -31 0 -48 -22 -12 -30
-11 -65 6 -22 10 -40 24 -40 30 0 6 -9 19 -20 29 -14 12 -19 28 -17 44 2 14 2
20 0 14 -5 -15 -19 -17 -28 -3 -3 5 -19 8 -35 7 -25 -2 -29 -5 -24 -22 4 -10
13 -25 20 -33 8 -7 14 -17 14 -21 0 -14 -25 -31 -46 -31 -21 0 -22 5 -23 60 0
33 7 85 15 115 20 79 18 98 -16 133 -16 18 -30 36 -30 40 0 5 -12 15 -27 23
-61 31 -92 109 -43 109 10 0 23 -7 30 -15z m1062 -104 c33 -2 7 -30 -35 -39
-45 -9 -77 0 -77 23 0 16 24 23 65 19 17 -1 38 -3 47 -3z m-36 -258 c21 -27
17 -32 -17 -23 -17 5 -45 6 -62 3 l-32 -6 19 21 c23 27 73 29 92 5z m27 -327
c7 -18 -8 -36 -55 -67 -39 -25 -45 -34 -28 -44 35 -21 -23 -40 -71 -23 -19 6
-57 27 -86 46 -35 23 -58 32 -72 27 -19 -6 -21 -10 -34 -115 -3 -21 -48 -24
-93 -5 -41 17 -94 12 -131 -13 -20 -13 -23 -13 -23 1 0 26 44 67 66 61 24 -6
72 37 86 77 13 39 48 51 108 38 28 -6 50 -14 50 -19 0 -5 14 -11 30 -15 17 -4
30 -10 30 -15 0 -5 8 -9 18 -8 9 0 37 -1 61 -3 39 -2 47 1 72 32 16 19 29 40
29 47 0 17 37 15 43 -2z m347 -489 c0 -8 -8 -21 -18 -30 -18 -16 -18 -15 -14
13 4 29 32 44 32 17z m-693 -58 c6 -6 9 -17 6 -24 -2 -7 0 -30 6 -51 7 -27 7
-41 -1 -51 -14 -18 -8 -23 38 -30 22 -3 50 -14 63 -24 13 -11 42 -24 64 -30
39 -10 42 -9 67 20 15 17 30 28 33 25 3 -3 4 23 2 59 -3 74 15 107 60 107 26
0 53 -34 35 -45 -5 -3 -10 -19 -10 -35 0 -24 5 -30 31 -35 18 -4 33 -15 36
-26 3 -10 14 -21 24 -24 17 -6 17 -8 5 -21 -8 -8 -17 -14 -21 -14 -3 0 -16
-12 -29 -27 -30 -35 -49 -24 -31 20 16 37 5 67 -25 67 -18 0 -25 -10 -21 -32
0 -5 -3 -8 -8 -8 -5 0 -11 -17 -15 -38 -5 -34 -10 -39 -53 -55 -27 -9 -58 -17
-71 -17 -17 0 -24 -7 -28 -30 -5 -25 -11 -30 -34 -30 -25 0 -28 4 -33 42 -3
24 -11 44 -16 46 -6 2 -11 15 -11 28 0 14 -7 27 -15 30 -8 4 -15 12 -15 20 0
10 -13 14 -45 14 -42 0 -45 2 -45 28 -1 30 -23 66 -35 54 -11 -10 4 50 17 65
6 7 14 10 19 7 5 -3 6 2 3 10 -5 12 0 16 18 16 13 0 29 -5 35 -11z m603 -86
c0 -26 -1 -26 -17 -10 -16 16 -16 19 -3 27 20 13 20 13 20 -17z m-46 -48 c-28
-20 -38 -6 -12 17 14 12 24 15 26 8 2 -6 -4 -17 -14 -25z m-1516 -118 c4 -45
-8 -47 -32 -6 -15 26 -16 33 -5 40 23 14 34 4 37 -34z m-89 -49 c5 -13 27 -43
49 -67 38 -43 40 -47 46 -135 9 -134 10 -431 2 -444 -14 -23 -38 -11 -89 45
-29 31 -73 79 -99 107 -25 28 -65 74 -89 101 -44 53 -69 73 -69 55 0 -5 4 -10
10 -10 5 0 14 -9 19 -19 9 -16 8 -18 -9 -14 -12 3 -22 17 -26 37 -3 17 -16 45
-30 61 -22 28 -24 29 -24 8 0 -16 -4 -21 -15 -17 -8 4 -15 11 -15 16 0 5 -18
30 -40 55 -22 25 -40 53 -40 63 0 18 38 40 70 40 10 0 27 10 37 23 27 33 67
47 134 47 61 0 109 20 109 45 0 13 17 21 48 24 7 0 16 -9 21 -21z m775 -22
c-8 -31 -35 -35 -63 -7 -22 22 -13 36 29 43 33 5 42 -4 34 -36z m117 7 c1 -16
0 -38 -1 -50 -1 -23 24 -35 79 -37 14 -1 26 -5 26 -11 0 -13 -105 -84 -124
-85 -8 0 -22 -6 -30 -14 -9 -8 -31 -17 -49 -21 -30 -6 -33 -5 -29 11 3 11 16
57 27 104 30 117 38 130 72 130 24 0 28 -4 29 -27z m-207 -38 c20 -19 40 -35
46 -35 13 0 13 -87 0 -95 -5 -3 -10 -13 -10 -21 0 -16 -69 -165 -81 -174 -4
-3 -15 -21 -25 -40 -11 -20 -25 -42 -31 -50 -7 -8 -43 -55 -79 -105 -37 -49
-77 -102 -90 -117 -12 -15 -25 -41 -29 -58 -4 -16 -10 -30 -15 -30 -4 0 -10
-9 -13 -21 -3 -12 -12 -19 -19 -17 -10 4 -14 71 -18 314 -5 317 -1 364 34 364
7 0 19 7 26 15 7 8 27 15 45 15 18 0 38 -7 45 -15 8 -9 29 -15 56 -15 37 0 46
5 68 33 15 19 26 46 26 60 0 37 22 34 64 -8z m-376 -1236 c-11 -8 -11 -11 1
-18 10 -6 15 -34 17 -93 2 -64 0 -77 -8 -58 -6 14 -12 44 -13 67 -2 23 -6 55
-10 71 -3 16 0 42 6 58 12 28 13 29 17 5 2 -13 -2 -28 -10 -32z m-12 -375 c-3
-8 -9 -14 -14 -14 -11 0 -9 31 3 50 8 13 10 12 13 -3 2 -10 1 -25 -2 -33z m54
-18 c0 -2 -6 -16 -14 -30 -13 -26 -14 -26 -19 -5 -3 13 -4 26 -1 31 5 8 34 12
34 4z m-40 -60 c0 -2 -7 -6 -15 -10 -8 -3 -15 -1 -15 4 0 6 7 10 15 10 8 0 15
-2 15 -4z m-20 -41 c0 -8 -4 -15 -10 -15 -5 0 -10 7 -10 15 0 8 5 15 10 15 6
0 10 -7 10 -15z m30 11 c0 -3 -4 -8 -10 -11 -5 -3 -10 -1 -10 4 0 6 5 11 10
11 6 0 10 -2 10 -4z m-18 -105 c-4 -10 -8 -7 -14 9 -5 13 -6 31 -2 39 5 13 8
10 14 -9 4 -14 4 -31 2 -39z m-62 -68 c-1 -21 -1 -42 0 -48 1 -5 2 -18 1 -27
-2 -11 5 -18 14 -18 10 0 13 -4 8 -12 -4 -7 -6 -21 -5 -30 3 -14 -4 -18 -25
-19 l-28 -1 33 -10 c23 -8 32 -17 32 -32 -1 -19 -2 -19 -11 -3 -5 9 -14 17
-19 17 -14 0 -12 -28 2 -32 7 -3 9 -11 3 -24 -8 -19 -8 -19 -13 1 -2 11 -9 23
-16 27 -15 10 -14 196 2 226 18 32 24 27 22 -15z m-63 -205 c-3 -8 -6 -5 -6 6
-1 11 2 17 5 13 3 -3 4 -12 1 -19z"/>
<path d="M2605 2730 c3 -5 8 -10 11 -10 2 0 4 5 4 10 0 6 -5 10 -11 10 -5 0
-7 -4 -4 -10z"/>
<path d="M2120 5750 c-36 -36 -51 -45 -72 -41 -5 0 -8 -3 -8 -9 0 -11 35 -32
42 -25 3 3 17 -6 32 -20 15 -14 30 -25 34 -25 4 0 17 20 28 43 17 34 27 43 53
45 29 3 31 1 31 -27 0 -24 7 -34 30 -46 37 -19 50 -19 50 0 0 8 7 15 15 15 18
0 20 24 2 38 -6 6 -24 13 -39 17 -15 4 -32 13 -39 21 -6 8 -20 14 -30 14 -11
0 -19 4 -19 8 0 9 -44 32 -60 32 -6 0 -28 -18 -50 -40z"/>
<path d="M2396 5581 c-7 -11 3 -21 21 -21 7 0 13 7 13 15 0 16 -25 21 -34 6z"/>
<path d="M2490 5496 c0 -7 9 -16 20 -19 23 -6 26 3 8 21 -16 16 -28 15 -28 -2z"/>
<path d="M2660 5412 c-22 -14 -24 -20 -15 -37 5 -11 15 -20 20 -20 6 0 25 -4
43 -9 27 -6 32 -12 32 -36 0 -19 -9 -36 -26 -49 -33 -26 -54 -26 -87 -1 -14
11 -30 20 -36 20 -6 0 -2 -9 9 -20 11 -11 20 -27 20 -35 0 -8 5 -15 10 -15 17
0 47 -33 55 -60 13 -43 22 -48 105 -48 43 0 89 -3 102 -7 19 -6 17 -1 -14 29
-56 55 -78 111 -78 199 0 59 -4 77 -18 90 -24 22 -89 21 -122 -1z"/>
<path d="M2957 5084 c-3 -4 -4 -18 -1 -33 4 -19 0 -32 -15 -45 -26 -24 -26
-33 -2 -41 16 -5 18 -13 13 -77 l-5 -71 41 7 c64 10 92 24 102 51 27 70 -12
175 -64 175 -12 0 -27 9 -34 20 -12 20 -24 25 -35 14z"/>
<path d="M3002 4674 c-37 -16 -35 -29 5 -37 47 -10 65 -29 58 -60 -5 -17 -14
-27 -26 -27 -10 0 -19 5 -19 10 0 7 -25 10 -67 8 -60 -3 -69 -6 -80 -27 -15
-30 -1 -61 27 -61 11 0 20 -4 20 -8 0 -4 15 -8 33 -8 63 0 117 -14 117 -29 0
-8 6 -15 14 -15 8 0 16 -5 18 -12 6 -16 63 -12 88 5 12 8 31 12 42 9 19 -4 20
-2 14 23 -18 73 -18 84 3 118 l21 35 -25 30 c-14 17 -39 33 -55 37 -16 4 -32
11 -35 16 -9 14 -116 9 -153 -7z"/>
<path d="M3316 4401 c-3 -5 1 -11 9 -15 15 -6 29 7 18 18 -9 9 -21 8 -27 -3z"/>
<path d="M3175 3886 c-15 -18 -45 -76 -45 -87 0 -23 20 -5 31 29 6 20 16 40
22 43 5 4 8 11 6 17 -3 6 -8 5 -14 -2z"/>
<path d="M3208 3700 c2 -16 7 -30 11 -30 4 0 6 14 3 30 -2 17 -7 30 -11 30 -4
0 -6 -13 -3 -30z"/>
<path d="M3620 3218 c43 -36 60 -36 60 0 0 27 -2 28 -47 28 l-47 1 34 -29z"/>
<path d="M3545 3070 c-8 -26 1 -40 26 -40 28 0 36 28 13 45 -25 19 -32 18 -39
-5z"/>
<path d="M3598 2899 c-24 -14 -23 -33 2 -26 11 3 20 1 20 -4 0 -5 5 -9 10 -9
6 0 26 -10 45 -22 36 -24 60 -73 49 -101 -4 -12 1 -18 19 -22 14 -4 28 -13 31
-22 10 -26 26 -3 26 37 0 29 -8 48 -30 73 -16 19 -30 39 -30 45 0 6 -5 23 -12
37 -10 22 -17 25 -62 25 -28 0 -59 -5 -68 -11z"/>
<path d="M3604 2645 c-8 -19 -15 -45 -17 -57 -2 -19 2 -23 23 -20 14 1 46 2
72 3 26 0 50 3 52 7 3 5 -18 23 -45 41 -27 19 -49 40 -49 48 0 25 -21 13 -36
-22z"/>
<path d="M3495 2530 c-3 -5 -17 -10 -29 -10 -13 0 -29 -7 -36 -15 -11 -13 -7
-15 24 -15 44 0 76 15 76 35 0 17 -26 20 -35 5z"/>
<path d="M2010 510 c0 -5 5 -10 10 -10 6 0 10 5 10 10 0 6 -4 10 -10 10 -5 0
-10 -4 -10 -10z"/>
<path d="M1970 500 c-11 -7 -12 -12 -4 -20 8 -8 13 -6 17 9 3 12 4 21 4 21 -1
0 -9 -5 -17 -10z"/>
<path d="M2010 463 c0 -12 -6 -23 -12 -26 -10 -3 -10 -7 0 -20 8 -9 11 -21 7
-27 -3 -5 1 -10 9 -10 13 0 15 9 11 47 -5 48 -15 72 -15 36z"/>
<path d="M1935 270 c-3 -5 1 -10 10 -10 9 0 13 5 10 10 -3 6 -8 10 -10 10 -2
0 -7 -4 -10 -10z"/>
<path d="M1972 144 c-7 -8 -8 -14 -3 -14 10 0 25 19 20 25 -2 1 -10 -3 -17
-11z"/>
<path d="M1765 130 c3 -5 8 -10 11 -10 2 0 4 5 4 10 0 6 -5 10 -11 10 -5 0 -7
-4 -4 -10z"/>
<path d="M2040 130 c0 -5 4 -10 9 -10 6 0 13 5 16 10 3 6 -1 10 -9 10 -9 0
-16 -4 -16 -10z"/>
<path d="M1980 66 c0 -14 3 -16 14 -7 7 6 21 9 30 5 10 -4 16 -1 16 8 0 10
-10 15 -30 14 -22 -1 -30 -6 -30 -20z"/>
<path d="M1723 73 c9 -2 25 -2 35 0 9 3 1 5 -18 5 -19 0 -27 -2 -17 -5z"/>
<path d="M1815 70 c3 -5 12 -7 20 -3 21 7 19 13 -6 13 -11 0 -18 -4 -14 -10z"/>
<path d="M1777 42 c-72 -2 -97 -6 -94 -15 5 -17 339 -16 345 1 3 9 -15 12 -61
12 -36 0 -71 1 -79 3 -7 1 -57 1 -111 -1z"/>
</g>
</svg>
