<?xml version="1.0" standalone="no"?>
<!DOCTYPE svg PUBLIC "-//W3C//DTD SVG 20010904//EN"
 "http://www.w3.org/TR/2001/REC-SVG-20010904/DTD/svg10.dtd">
<svg version="1.0" xmlns="http://www.w3.org/2000/svg"
 width="422pt" height="648pt" viewBox="0 0 422 648"
 preserveAspectRatio="xMidYMid meet">
<metadata>
Created by potrace 1.8, written by Peter Selinger 2001-2007
</metadata>
<g transform="translate(0,648) scale(0.110017,-0.110017)"
fill="#000000" stroke="none">
<path d="M1520 5783 c-34 -14 -53 -63 -24 -63 8 0 24 -5 35 -10 28 -16 4 -39
-31 -29 -125 37 -147 46 -170 71 -18 21 -34 28 -62 28 -36 0 -38 -2 -38 -30 0
-16 5 -30 10 -30 18 0 11 -30 -7 -30 -30 -1 -66 -38 -60 -61 3 -12 2 -31 -2
-43 -5 -11 -9 -25 -9 -29 -3 -23 -52 -49 -52 -28 0 10 -38 6 -49 -5 -3 -3 -7
-18 -7 -32 -1 -15 -2 -30 -3 -34 -2 -15 -28 -8 -46 12 -27 29 -71 27 -79 -5
-4 -14 -4 -35 -1 -48 6 -21 3 -23 -29 -23 -54 0 -64 -17 -31 -48 61 -57 60
-95 -2 -88 -20 3 -33 0 -33 -7 0 -6 -17 -11 -40 -11 l-40 0 0 -41 c0 -30 -6
-46 -22 -60 l-23 -19 30 -25 c17 -14 42 -25 57 -25 32 0 38 -8 28 -36 -10 -25
-76 -42 -93 -25 -22 22 -82 13 -110 -17 -33 -35 -34 -48 -3 -77 21 -20 23 -27
16 -61 -5 -20 -15 -41 -24 -46 -8 -5 -29 -20 -46 -35 -27 -22 -31 -31 -28 -67
3 -41 2 -41 -36 -46 -51 -6 -55 -21 -15 -54 41 -35 70 -31 81 10 11 43 31 59
57 44 16 -8 20 -17 15 -35 -7 -28 20 -47 54 -38 15 4 22 1 22 -10 0 -15 27
-43 34 -36 2 2 7 21 11 42 6 32 5 39 -11 43 -11 3 -27 19 -37 35 -15 27 -22
30 -54 27 -50 -4 -58 26 -17 59 25 20 27 25 17 42 -10 16 -9 26 3 50 8 17 21
34 28 38 7 5 18 18 25 31 7 12 21 22 34 22 18 0 19 2 7 10 -11 7 -8 10 16 10
40 0 62 25 73 85 5 26 13 50 18 54 5 3 12 14 16 24 6 15 3 17 -15 11 -17 -5
-20 -3 -15 11 4 9 7 22 7 28 0 7 4 6 10 -3 8 -13 10 -12 10 3 0 10 8 17 18 17
11 0 18 8 19 20 1 11 -2 18 -8 15 -5 -4 -9 -2 -9 3 0 12 39 52 51 52 14 0 72
-32 82 -45 4 -6 13 -3 22 9 20 27 18 38 -10 59 -23 16 -24 16 -18 1 4 -11 3
-15 -5 -11 -6 4 -12 1 -14 -7 -3 -13 -7 -13 -28 -1 -24 13 -24 14 -5 21 11 4
25 14 31 22 7 10 16 12 25 7 12 -8 12 -6 0 8 -9 12 -10 17 -2 17 7 0 9 5 6 10
-9 14 8 12 25 -2 12 -11 12 -10 0 5 -12 16 -10 22 18 50 30 29 32 30 32 10 0
-12 -6 -23 -12 -26 -7 -2 -10 -7 -7 -11 12 -12 41 6 35 23 -19 62 -20 65 -3
58 10 -4 17 -1 17 5 0 7 6 3 14 -7 7 -10 22 -19 34 -20 17 -1 18 1 9 17 -11
16 -12 16 -17 2 -5 -14 -9 -12 -22 8 -16 24 -16 26 7 36 18 9 30 8 49 -2 14
-7 22 -17 18 -21 -4 -5 -1 -5 6 -1 7 4 18 3 25 -3 9 -7 13 -5 13 10 0 10 -6
19 -13 19 -17 0 -16 6 3 36 10 14 23 23 29 20 8 -3 11 2 8 15 -3 10 0 20 6 20
6 1 15 2 21 3 5 0 15 8 22 16 11 12 10 12 -7 0 -18 -14 -19 -14 -6 2 10 14 17
15 33 7 16 -9 20 -7 25 10 5 22 23 29 23 10 0 -5 5 -7 10 -4 6 4 17 1 25 -5 8
-7 24 -10 34 -7 16 4 20 -1 23 -27 2 -26 8 -32 31 -34 23 -3 27 0 27 22 0 16
-6 26 -14 26 -17 0 -31 18 -22 27 3 3 12 0 21 -7 8 -7 15 -10 15 -6 0 4 12 -2
27 -11 21 -14 49 -18 129 -18 65 0 107 -5 116 -13 15 -12 28 -7 28 10 0 17
-73 78 -93 78 -26 -1 -51 -18 -60 -42 -8 -23 -27 -23 -27 -1 0 22 -32 93 -42
93 -4 0 -8 5 -8 11 0 32 -68 58 -110 42z m67 -119 c-3 -3 -12 -4 -19 -1 -8 3
-5 6 6 6 11 1 17 -2 13 -5z"/>
<path d="M2145 5768 c-16 -12 -40 -33 -53 -45 -14 -13 -31 -23 -39 -23 -8 0
-11 -5 -7 -11 3 -6 17 -9 30 -6 13 2 29 -2 35 -9 18 -22 44 -16 69 16 31 41
77 42 82 3 2 -23 9 -29 38 -34 37 -5 70 5 70 22 0 6 -19 19 -42 30 -52 25 -81
41 -99 56 -30 23 -56 24 -84 1z"/>
<path d="M1960 5585 c0 -9 9 -15 25 -15 16 0 25 6 25 15 0 9 -9 15 -25 15 -16
0 -25 -6 -25 -15z"/>
<path d="M2402 5579 c5 -14 16 -15 21 -2 1 3 -4 8 -12 11 -8 3 -12 -1 -9 -9z"/>
<path d="M2300 5576 c0 -10 34 -46 43 -46 5 0 7 10 5 23 -2 14 -11 23 -25 25
-13 2 -23 1 -23 -2z"/>
<path d="M1876 5541 c-3 -5 0 -14 8 -20 10 -8 16 -8 25 2 6 8 8 17 4 20 -9 10
-31 9 -37 -2z"/>
<path d="M2200 5531 c-14 -27 -13 -31 8 -31 25 0 31 7 25 31 -7 24 -19 24 -33
0z"/>
<path d="M1301 5493 c12 -15 12 -16 -4 -10 -10 4 -16 3 -13 -2 3 -5 17 -8 31
-8 25 0 25 0 9 18 -21 24 -42 25 -23 2z"/>
<path d="M1348 5498 c7 -9 9 -24 5 -33 -5 -15 -3 -17 11 -12 11 4 28 -1 45
-12 20 -14 31 -17 45 -9 15 9 13 12 -21 30 -21 11 -41 26 -45 32 -4 6 -8 7 -8
3 0 -4 -10 -2 -22 4 -20 11 -21 10 -10 -3z"/>
<path d="M2495 5500 c-9 -15 -1 -23 21 -18 15 3 16 4 1 16 -11 9 -17 10 -22 2z"/>
<path d="M1235 5442 c6 -4 13 -11 16 -15 4 -4 9 -1 12 8 5 11 0 15 -16 15 -12
0 -17 -4 -12 -8z"/>
<path d="M2393 5425 c31 -27 47 -25 47 6 0 15 -7 19 -37 19 l-38 -1 28 -24z"/>
<path d="M1380 5435 c0 -2 10 -10 23 -16 20 -11 21 -11 8 4 -13 16 -31 23 -31
12z"/>
<path d="M1305 5420 c-3 -5 -1 -10 4 -10 6 0 11 5 11 10 0 6 -2 10 -4 10 -3 0
-8 -4 -11 -10z"/>
<path d="M2670 5412 c-36 -24 -28 -52 14 -52 56 0 68 -17 76 -113 5 -48 6 -95
3 -105 -3 -15 2 -21 24 -26 60 -15 113 -23 113 -17 0 4 -14 17 -31 31 -48 39
-69 96 -69 188 0 64 -4 82 -18 95 -24 22 -80 21 -112 -1z"/>
<path d="M1257 5396 c-4 -10 -1 -13 8 -9 8 3 12 9 9 14 -7 12 -11 11 -17 -5z"/>
<path d="M1195 5360 c-3 -6 1 -7 9 -4 18 7 21 14 7 14 -6 0 -13 -4 -16 -10z"/>
<path d="M1291 5361 c-10 -7 -7 -9 12 -8 14 1 23 5 20 10 -6 9 -15 9 -32 -2z"/>
<path d="M1660 5345 c0 -8 2 -15 4 -15 2 0 6 7 10 15 3 8 1 15 -4 15 -6 0 -10
-7 -10 -15z"/>
<path d="M1130 5330 c10 -7 11 -10 2 -10 -17 0 14 -47 40 -61 18 -10 18 -9 8
11 -6 12 -9 24 -6 28 9 9 -25 42 -43 42 -14 0 -14 -2 -1 -10z"/>
<path d="M1325 5280 c-3 -5 1 -10 10 -10 9 0 13 5 10 10 -3 6 -8 10 -10 10 -2
0 -7 -4 -10 -10z"/>
<path d="M1230 5248 c0 -26 6 -36 27 -45 36 -17 46 -16 39 4 -6 14 -3 14 15
-3 l22 -19 -12 23 c-6 12 -15 22 -19 22 -4 0 -12 10 -17 23 -6 12 -20 23 -32
25 -20 3 -23 -1 -23 -30z"/>
<path d="M1890 5260 c0 -5 -13 -7 -30 -3 -26 5 -30 3 -30 -16 0 -12 -7 -24
-15 -27 -19 -8 -20 -44 -1 -44 8 0 21 -3 29 -6 12 -4 15 2 13 30 -3 35 5 42
37 37 4 0 7 8 7 19 0 11 -2 20 -5 20 -3 0 -5 -4 -5 -10z"/>
<path d="M1350 5210 c0 -12 35 -31 44 -23 15 15 4 33 -19 33 -14 0 -25 -4 -25
-10z"/>
<path d="M930 5181 c0 -5 12 -11 28 -13 21 -2 32 -13 47 -45 21 -44 45 -57 45
-25 0 18 -18 41 -59 75 -23 18 -61 23 -61 8z"/>
<path d="M1402 5156 c-7 -20 -8 -46 -2 -76 5 -25 9 -48 10 -52 0 -5 4 -8 9 -8
6 0 8 10 5 23 -3 12 -6 42 -7 67 -2 35 2 48 17 56 18 11 18 11 -1 16 -15 4
-22 -2 -31 -26z"/>
<path d="M1198 5173 c6 -2 18 -2 25 0 6 3 1 5 -13 5 -14 0 -19 -2 -12 -5z"/>
<path d="M2516 5159 c16 -17 20 -33 17 -55 -4 -28 0 -35 39 -61 57 -39 71 -44
107 -33 24 7 36 4 58 -13 35 -25 53 -43 35 -33 -8 5 -6 -5 5 -27 l18 -35 5 32
c3 17 1 34 -4 37 -5 4 -6 23 -2 42 l7 35 -65 7 c-35 4 -85 6 -110 4 -45 -4
-46 -4 -46 26 0 34 -23 67 -60 85 l-25 13 21 -24z"/>
<path d="M2010 5130 c0 -29 4 -40 15 -40 10 0 15 10 15 34 0 21 -6 36 -15 40
-12 4 -15 -3 -15 -34z"/>
<path d="M1237 5153 c-10 -10 -8 -53 2 -53 5 0 12 7 15 16 4 9 2 13 -5 8 -8
-4 -9 1 -4 15 6 21 4 26 -8 14z"/>
<path d="M1590 5130 c0 -27 3 -30 33 -30 48 0 60 11 41 38 -10 14 -26 22 -45
22 -26 0 -29 -3 -29 -30z"/>
<path d="M2050 5150 c0 -5 5 -10 11 -10 5 0 7 5 4 10 -3 6 -8 10 -11 10 -2 0
-4 -4 -4 -10z"/>
<path d="M1127 5132 c2 -10 19 -22 38 -28 26 -8 32 -8 28 3 -3 7 -9 13 -14 13
-5 0 -9 6 -9 13 0 7 -11 14 -24 15 -18 1 -23 -2 -19 -16z"/>
<path d="M2702 5134 c2 -11 8 -18 13 -16 15 3 12 25 -3 30 -9 3 -13 -2 -10
-14z"/>
<path d="M1824 5110 c-15 -16 -31 -27 -35 -24 -5 3 -9 0 -9 -5 0 -6 6 -11 14
-11 8 0 16 -5 18 -11 7 -22 46 1 53 31 4 17 12 30 18 30 13 0 -12 20 -25 20
-5 0 -20 -13 -34 -30z"/>
<path d="M1210 5083 c0 -13 29 -38 35 -31 3 3 -4 13 -15 23 -11 10 -20 13 -20
8z"/>
<path d="M2950 5075 c0 -8 5 -15 10 -15 18 0 11 -35 -10 -48 -25 -16 -25 -27
1 -53 13 -13 18 -26 13 -37 -10 -24 -12 -75 -2 -88 6 -8 23 -8 59 -1 40 8 53
16 64 38 38 72 -9 179 -78 179 -8 0 -17 9 -20 20 -6 23 -37 27 -37 5z"/>
<path d="M1007 5056 c-4 -9 -14 -12 -26 -9 -12 3 -21 1 -21 -6 0 -5 7 -8 15
-5 8 4 15 1 15 -5 0 -6 9 -11 20 -11 11 0 20 -4 20 -10 0 -5 -8 -10 -17 -10
-12 0 -9 -5 11 -15 35 -18 36 -18 36 0 0 8 7 15 15 15 25 0 6 26 -22 28 -30 2
-44 13 -25 19 6 3 10 9 6 14 -8 13 -21 11 -27 -5z"/>
<path d="M1184 5062 c-14 -10 -25 -40 -16 -46 15 -9 34 11 30 32 -2 13 -7 19
-14 14z"/>
<path d="M1348 5052 c-8 -31 6 -36 28 -10 16 18 17 21 2 15 -9 -3 -18 -1 -21
6 -2 6 -6 1 -9 -11z"/>
<path d="M1590 5040 c0 -5 5 -10 10 -10 6 0 10 5 10 10 0 6 -4 10 -10 10 -5 0
-10 -4 -10 -10z"/>
<path d="M1327 4999 c4 -13 8 -18 11 -10 2 7 -1 18 -6 23 -8 8 -9 4 -5 -13z"/>
<path d="M981 4994 c0 -11 3 -14 6 -6 3 7 2 16 -1 19 -3 4 -6 -2 -5 -13z"/>
<path d="M1548 5003 c7 -3 16 -2 19 1 4 3 -2 6 -13 5 -11 0 -14 -3 -6 -6z"/>
<path d="M1442 4974 c14 -15 31 -23 37 -20 16 10 13 29 -3 23 -8 -3 -20 1 -26
9 -7 8 -17 14 -23 14 -7 0 0 -12 15 -26z"/>
<path d="M1507 4993 c-14 -14 -6 -29 24 -42 23 -10 27 -16 18 -22 -11 -6 -10
-9 3 -14 10 -4 22 -4 28 0 5 3 10 1 10 -5 0 -11 19 -4 54 23 19 14 19 15 -1
25 -11 6 -31 13 -44 16 -13 2 -37 9 -52 15 -33 13 -32 13 -40 4z m113 -59 c0
-2 -7 -4 -15 -4 -8 0 -15 4 -15 10 0 5 7 7 15 4 8 -4 15 -8 15 -10z"/>
<path d="M930 4970 c0 -11 2 -20 4 -20 2 0 6 9 9 20 3 11 1 20 -4 20 -5 0 -9
-9 -9 -20z"/>
<path d="M1255 4940 c-3 -5 -1 -10 4 -10 6 0 11 5 11 10 0 6 -2 10 -4 10 -3 0
-8 -4 -11 -10z"/>
<path d="M1084 4915 c-1 -15 3 -25 12 -25 8 0 14 10 14 25 0 33 -25 33 -26 0z"/>
<path d="M956 4921 c-5 -8 3 -45 19 -83 10 -25 26 -11 19 17 -4 18 -2 23 12
22 10 -1 20 6 22 16 2 12 -3 17 -17 17 -12 0 -21 5 -21 10 0 12 -27 13 -34 1z"/>
<path d="M1416 4915 c7 -17 20 -20 28 -6 3 5 -1 12 -10 15 -22 9 -24 8 -18 -9z"/>
<path d="M1830 4911 c-35 -17 -37 -22 -25 -53 4 -11 0 -18 -14 -23 -23 -7 -27
-25 -9 -43 19 -19 28 -14 28 14 0 25 25 62 32 45 5 -12 88 -23 88 -11 0 10
-21 14 -49 10 -12 -1 -12 1 0 14 42 46 44 50 26 43 -10 -4 -17 -2 -17 5 0 7
-5 6 -15 -2 -13 -11 -14 -10 -9 4 7 19 8 19 -36 -3z"/>
<path d="M846 4895 c-8 -8 -22 -15 -30 -15 -24 0 -19 -15 9 -28 39 -18 75 -15
75 6 -1 17 -22 52 -33 52 -3 0 -12 -7 -21 -15z"/>
<path d="M1940 4894 c0 -13 32 -64 40 -64 12 0 13 30 2 46 -8 12 -42 26 -42
18z"/>
<path d="M2810 4885 c-11 -13 -9 -20 9 -39 11 -12 18 -25 15 -29 -6 -6 45 -56
58 -57 4 0 12 9 18 20 8 15 5 25 -20 53 -16 19 -30 42 -30 51 0 20 -33 21 -50
1z"/>
<path d="M1400 4870 c-6 -11 -18 -20 -26 -20 -9 0 -14 -6 -11 -12 5 -18 40
-16 43 2 1 8 5 23 9 33 10 24 -2 22 -15 -3z"/>
<path d="M1109 4866 c-1 -3 -2 -9 -3 -13 -1 -5 -5 -14 -10 -21 -4 -7 -5 -24
-2 -37 l6 -24 27 25 c14 13 30 24 36 24 5 0 5 6 -2 13 -6 8 -8 17 -4 20 3 4 1
7 -5 7 -5 0 -17 3 -26 6 -9 3 -17 3 -17 0z m37 -45 c-9 -14 -36 -14 -36 -1 0
6 6 9 13 8 6 -2 11 4 9 12 -3 11 -1 12 8 3 7 -6 9 -16 6 -22z"/>
<path d="M2652 4808 c2 -17 11 -24 33 -26 l30 -4 -24 26 c-30 32 -43 33 -39 4z"/>
<path d="M916 4804 c-10 -25 -7 -34 9 -34 8 0 15 4 15 9 0 5 3 16 6 25 4 10 1
16 -9 16 -8 0 -18 -7 -21 -16z"/>
<path d="M1396 4795 c4 -8 8 -15 10 -15 2 0 4 7 4 15 0 8 -4 15 -10 15 -5 0
-7 -7 -4 -15z"/>
<path d="M1625 4799 c-12 -19 5 -23 22 -6 16 16 16 17 1 17 -9 0 -20 -5 -23
-11z"/>
<path d="M690 4790 c0 -7 16 -28 35 -47 29 -29 35 -32 35 -16 0 11 -10 29 -22
40 -32 29 -48 36 -48 23z"/>
<path d="M1217 4794 c-9 -9 38 -89 84 -144 37 -44 44 -49 50 -33 4 10 8 25 8
33 1 13 0 13 -9 0 -8 -12 -16 -9 -44 23 -20 20 -38 52 -41 70 -6 31 -36 63
-48 51z"/>
<path d="M2635 4779 c-10 -15 3 -25 16 -12 7 7 7 13 1 17 -6 3 -14 1 -17 -5z"/>
<path d="M1713 4755 c0 -14 3 -27 7 -30 4 -2 6 7 4 21 -3 35 -11 41 -11 9z"/>
<path d="M967 4759 c-9 -5 -22 -7 -28 -3 -7 4 -9 -2 -7 -17 2 -18 10 -24 31
-26 24 -2 27 2 27 28 0 16 -1 29 -2 29 -2 0 -11 -5 -21 -11z"/>
<path d="M780 4750 c0 -5 5 -10 10 -10 6 0 10 5 10 10 0 6 -4 10 -10 10 -5 0
-10 -4 -10 -10z"/>
<path d="M1470 4697 c0 -16 4 -26 10 -22 6 3 10 1 10 -4 0 -13 34 20 42 40 4
10 -3 14 -28 14 -31 0 -34 -3 -34 -28z"/>
<path d="M1140 4708 c0 -9 8 -13 53 -22 17 -4 31 -16 37 -31 11 -29 27 -33 32
-8 2 9 -8 30 -22 45 -20 21 -34 27 -63 26 -20 -1 -37 -5 -37 -10z"/>
<path d="M1410 4706 c0 -2 7 -7 16 -10 8 -3 12 -2 9 4 -6 10 -25 14 -25 6z"/>
<path d="M1730 4685 c14 -17 20 -19 20 -6 0 5 -7 12 -16 15 -14 5 -15 4 -4 -9z"/>
<path d="M1867 4684 c3 -8 11 -14 19 -14 21 0 17 17 -5 23 -14 3 -18 1 -14 -9z"/>
<path d="M900 4680 c0 -5 7 -7 15 -4 8 4 15 8 15 10 0 2 -7 4 -15 4 -8 0 -15
-4 -15 -10z"/>
<path d="M990 4667 c0 -24 -3 -27 -20 -22 -11 4 -20 2 -20 -4 0 -17 47 -13 54
5 3 9 2 23 -4 32 -8 14 -9 12 -10 -11z"/>
<path d="M2760 4686 c0 -2 16 -21 35 -42 34 -36 35 -37 35 -13 0 26 -31 59
-55 59 -8 0 -15 -2 -15 -4z"/>
<path d="M3092 4665 c6 -29 1 -30 -26 -10 -11 8 -28 15 -38 15 -28 0 -21 -27
8 -34 45 -12 71 -54 44 -71 -5 -3 -10 -13 -10 -21 0 -11 5 -10 22 6 12 11 27
20 32 20 6 0 31 -25 55 -55 24 -30 47 -53 50 -50 3 4 4 21 2 40 -2 23 5 44 20
65 l23 31 -29 27 c-31 28 -106 62 -139 62 -14 0 -17 -6 -14 -25z"/>
<path d="M1418 4648 c12 -13 30 -34 41 -47 12 -17 23 -22 36 -17 13 5 15 10 7
18 -6 6 -8 17 -5 24 3 8 -1 14 -10 14 -8 0 -17 4 -19 8 -1 5 -19 12 -38 16
l-35 6 23 -22z"/>
<path d="M2980 4660 c0 -5 5 -10 10 -10 6 0 10 5 10 10 0 6 -4 10 -10 10 -5 0
-10 -4 -10 -10z"/>
<path d="M1905 4650 c3 -5 10 -10 16 -10 5 0 9 5 9 10 0 6 -7 10 -16 10 -8 0
-12 -4 -9 -10z"/>
<path d="M2396 4645 c-7 -18 13 -66 25 -59 4 2 6 11 3 19 -3 7 -1 23 6 34 9
18 8 21 -9 21 -10 0 -21 -7 -25 -15z"/>
<path d="M1529 4600 c-8 -9 -14 -28 -12 -43 2 -14 -1 -28 -7 -32 -18 -11 -11
-35 10 -35 13 0 20 7 20 19 0 11 4 23 10 26 10 6 11 74 1 79 -3 1 -13 -5 -22
-14z"/>
<path d="M2496 4604 c-11 -28 -7 -35 14 -24 23 12 27 40 6 40 -8 0 -17 -7 -20
-16z"/>
<path d="M1063 4603 c-17 -2 -34 -11 -37 -19 -4 -11 4 -14 39 -14 38 0 45 3
45 20 0 11 -3 19 -7 18 -5 0 -22 -3 -40 -5z"/>
<path d="M1380 4592 c0 -12 47 -28 56 -19 12 12 -7 28 -20 18 -9 -7 -16 -7
-24 1 -9 9 -12 9 -12 0z"/>
<path d="M2550 4575 c0 -28 7 -30 32 -11 13 10 15 15 6 24 -20 20 -38 13 -38
-13z"/>
<path d="M2256 4571 c-3 -5 -3 -11 1 -15 9 -9 33 -7 33 3 0 12 -28 22 -34 12z"/>
<path d="M2483 4537 c-11 -13 -19 -35 -19 -50 1 -23 -2 -27 -26 -27 -27 0 -33
8 -28 39 1 9 -4 12 -15 7 -9 -3 -19 -6 -21 -6 -2 0 -4 -13 -4 -28 0 -35 39
-75 64 -66 11 4 15 13 10 26 -4 15 -2 19 7 15 8 -2 13 -10 12 -16 -7 -27 16
-7 35 32 29 61 32 74 18 86 -9 8 -18 5 -33 -12z"/>
<path d="M396 4534 c-9 -8 -16 -26 -16 -39 0 -14 -11 -31 -26 -42 l-26 -19 41
-42 c40 -41 52 -74 31 -87 -5 -3 -10 -19 -10 -36 0 -19 -5 -29 -15 -29 -9 0
-18 -7 -21 -15 -4 -8 -11 -15 -18 -15 -12 0 -56 -60 -56 -77 0 -6 9 -22 21
-37 16 -21 29 -26 64 -26 26 0 47 -6 56 -16 7 -8 21 -13 31 -11 24 7 88 -11
88 -23 0 -6 10 -10 23 -10 30 0 67 -27 67 -48 -1 -11 -26 -29 -71 -51 -64 -30
-77 -33 -136 -28 -78 6 -123 -5 -155 -38 -13 -14 -31 -25 -41 -25 -11 0 -20
-10 -23 -30 -5 -24 -12 -30 -31 -30 -18 0 -24 -4 -19 -15 4 -11 -1 -15 -17
-15 -12 0 -34 -14 -49 -32 -26 -31 -33 -52 -40 -118 -2 -17 -10 -26 -25 -28
-28 -4 -32 -46 -7 -56 16 -6 16 -8 0 -24 -13 -15 -16 -41 -16 -127 l0 -109 32
33 33 33 10 -26 c10 -24 74 -66 101 -66 6 0 24 16 39 35 21 29 30 34 41 24 8
-6 14 -19 14 -29 0 -14 13 -18 79 -23 49 -3 89 -11 103 -21 31 -22 42 -20 80
14 31 29 88 42 88 20 0 -5 9 -10 20 -10 11 0 20 4 20 9 0 5 14 13 32 16 23 6
35 3 43 -9 14 -18 35 -22 35 -6 0 6 12 15 26 20 14 6 22 14 19 20 -3 5 -1 10
5 10 8 0 8 6 0 20 -9 17 -8 20 8 20 25 0 31 7 25 31 -3 10 -14 19 -24 19 -11
0 -19 7 -19 15 0 8 -4 15 -10 15 -5 0 -10 7 -10 15 0 8 -4 15 -10 15 -13 0
-13 -19 1 -58 6 -18 15 -29 20 -26 5 3 9 1 9 -4 0 -15 -28 -22 -34 -9 -3 8 -5
8 -5 1 -1 -6 6 -17 14 -24 8 -7 15 -21 15 -32 0 -18 -1 -18 -22 1 -11 11 -25
18 -30 15 -4 -3 -8 0 -8 6 0 6 -4 9 -8 6 -5 -3 -9 1 -9 9 0 8 7 15 16 15 12 0
13 2 2 13 -10 10 -14 9 -22 -5 -10 -18 -44 -24 -53 -10 -7 11 -64 14 -70 3 -8
-12 -69 2 -74 17 -2 6 4 15 12 18 13 5 14 9 5 20 -18 22 -29 16 -29 -16 0 -28
-3 -30 -30 -28 -19 1 -29 7 -26 14 3 7 -1 15 -9 17 -18 8 -27 -4 -14 -19 8
-10 -2 -13 -50 -13 -33 0 -65 -2 -71 -6 -5 -3 -19 -3 -30 0 -17 6 -20 12 -14
41 6 35 -3 43 -24 22 -8 -8 -15 -4 -28 19 -14 24 -28 32 -63 39 -45 9 -46 10
-49 52 -2 25 1 42 7 42 6 0 11 8 11 18 0 26 33 62 56 62 15 0 16 2 5 9 -19 12
17 31 60 31 26 0 29 -3 20 -14 -9 -11 -8 -15 5 -20 25 -9 27 -8 20 18 -6 23
17 56 30 43 9 -9 -6 -66 -22 -81 -7 -8 -15 -28 -16 -45 -1 -17 -8 -33 -15 -35
-19 -8 -16 -46 3 -46 10 0 14 -6 10 -15 -7 -20 11 -19 38 3 18 14 21 21 12 34
-8 14 -6 22 11 38 26 24 33 25 33 5 0 -8 6 -15 13 -15 8 0 20 -11 27 -25 7
-14 21 -25 31 -25 10 0 21 -9 24 -20 8 -25 25 -26 25 -1 0 10 7 24 15 31 12
10 14 24 9 61 -6 42 -4 49 10 49 9 0 20 -8 23 -17 4 -10 15 -24 25 -31 10 -7
18 -20 18 -28 0 -8 5 -14 10 -14 6 0 10 -8 10 -17 0 -15 2 -16 10 -3 6 9 5 17
-1 21 -6 3 -9 10 -8 15 5 30 -3 44 -26 44 -18 0 -23 4 -19 15 4 8 1 15 -6 15
-6 0 -9 4 -5 9 3 5 -4 12 -15 16 -11 3 -20 11 -20 16 0 19 -45 4 -48 -15 -3
-11 -19 -35 -37 -54 l-33 -35 -7 31 c-5 25 -12 32 -31 32 -16 0 -24 6 -24 18
0 20 20 54 20 35 0 -7 5 -13 10 -13 6 0 10 11 10 25 0 14 -4 25 -9 25 -14 0
-20 38 -7 44 7 3 7 5 -1 5 -7 1 -13 6 -13 11 0 11 49 14 74 4 21 -8 20 -31 -1
-37 -10 -3 -1 -5 20 -6 20 0 37 -5 37 -11 0 -5 7 -10 15 -10 8 0 15 7 15 15 0
8 -9 15 -20 15 -36 0 -17 40 25 54 26 9 109 85 124 114 9 18 16 20 30 12 15
-7 20 -6 25 6 4 11 -1 18 -15 21 -19 5 -20 11 -14 52 8 51 19 71 44 72 9 0 11
3 4 5 -7 3 -20 1 -31 -5 -16 -8 -21 -6 -32 14 -7 13 -10 30 -7 38 3 7 -3 18
-13 24 -18 12 -31 73 -36 168 -5 104 -6 112 -11 88 -2 -13 -12 -23 -22 -23
-15 0 -16 -7 -10 -57 12 -95 11 -103 -11 -103 -10 0 -23 8 -28 18 -11 22 1
227 15 244 20 25 24 65 7 72 -33 12 -122 6 -138 -10z m143 -379 c23 -12 23
-12 -14 -19 -20 -4 -39 -5 -42 -2 -3 3 0 20 7 37 11 26 15 29 20 14 3 -9 17
-23 29 -30z m-382 -739 c-3 -8 -1 -17 6 -19 18 -7 -7 -30 -28 -25 -28 5 -43
36 -25 48 24 15 53 12 47 -4z m39 -51 c-9 -14 -22 -23 -27 -19 -6 4 -2 15 12
30 28 30 37 23 15 -11z m34 -14 c0 -5 -7 -12 -16 -15 -14 -5 -15 -4 -4 9 14
17 20 19 20 6z"/>
<path d="M2880 4524 c0 -31 23 -28 28 4 2 15 -2 22 -12 22 -11 0 -16 -9 -16
-26z"/>
<path d="M642 4527 c-5 -6 -12 -28 -16 -47 -5 -28 -4 -31 4 -12 8 19 20 26 41
24 9 -2 -1 37 -11 43 -4 3 -12 -1 -18 -8z"/>
<path d="M3032 4520 c0 -14 2 -19 5 -12 2 6 2 18 0 25 -3 6 -5 1 -5 -13z"/>
<path d="M736 4518 c-8 -18 9 -58 26 -58 7 0 7 4 0 13 -5 6 -12 23 -14 37 -4
20 -6 22 -12 8z"/>
<path d="M803 4503 c-15 -6 -17 -53 -3 -53 9 0 30 40 30 56 0 5 -11 4 -27 -3z"/>
<path d="M1684 4495 c-4 -8 -12 -15 -20 -15 -18 0 -18 -18 0 -36 28 -27 106
-15 106 16 0 20 -33 36 -50 25 -5 -3 -10 1 -10 9 0 20 -19 21 -26 1z m41 -27
c24 -11 25 -13 9 -18 -26 -9 -54 -1 -54 16 0 17 11 18 45 2z"/>
<path d="M1873 4503 c-22 -8 -15 -28 17 -52 17 -12 28 -27 24 -33 -4 -6 -3 -8
4 -4 6 3 13 2 17 -4 12 -20 24 -10 21 18 -2 15 -4 35 -5 45 -1 11 -9 17 -24
17 -13 0 -27 4 -32 9 -6 5 -16 6 -22 4z"/>
<path d="M1068 4453 c-10 -2 -18 -9 -18 -14 0 -15 36 -10 50 6 13 16 5 18 -32
8z"/>
<path d="M1150 4445 c0 -8 9 -15 20 -15 24 0 27 15 4 24 -22 9 -24 8 -24 -9z"/>
<path d="M3151 4447 c-6 -6 -11 -15 -11 -20 0 -12 53 -4 57 9 5 16 -33 24 -46
11z"/>
<path d="M586 4441 c-4 -7 -5 -15 -2 -18 9 -9 19 4 14 18 -4 11 -6 11 -12 0z"/>
<path d="M3115 4441 c-3 -5 -1 -12 5 -16 5 -3 10 1 10 9 0 18 -6 21 -15 7z"/>
<path d="M2080 4425 c0 -8 5 -15 10 -15 6 0 10 7 10 15 0 8 -4 15 -10 15 -5 0
-10 -7 -10 -15z"/>
<path d="M693 4424 c-8 -4 -10 -16 -6 -36 4 -22 3 -29 -5 -24 -7 4 -12 14 -12
22 0 8 -4 14 -10 14 -13 0 -13 -6 4 -38 16 -32 56 -70 56 -54 0 6 -4 14 -10
17 -5 3 -10 10 -10 16 0 12 37 12 45 -1 12 -20 35 -10 35 15 0 21 -6 26 -40
31 -34 6 -40 10 -35 25 4 11 5 19 3 18 -2 0 -8 -3 -15 -5z"/>
<path d="M1422 4406 c-42 -22 -46 -36 -10 -36 22 0 24 -25 3 -34 -8 -3 -19 2
-24 12 -8 13 -10 9 -11 -20 0 -27 5 -40 20 -48 29 -16 24 -30 -10 -30 -25 0
-30 -4 -30 -23 0 -13 5 -28 12 -35 9 -9 9 -12 0 -12 -7 0 -12 -7 -12 -15 0 -8
-9 -15 -20 -15 -11 0 -20 -6 -20 -14 0 -8 -2 -20 -5 -28 -3 -7 -1 -19 4 -27
12 -18 71 -5 71 16 0 9 3 13 7 10 3 -4 11 3 17 16 7 12 17 23 24 23 7 1 17 2
22 3 18 2 11 36 -10 49 -11 7 -20 18 -20 24 0 9 3 9 12 0 15 -15 58 -16 58 -1
0 6 -5 19 -10 30 -8 15 -7 19 5 19 21 0 19 33 -4 54 -20 19 -24 52 -8 73 9 12
2 34 -11 32 -4 0 -26 -11 -50 -23z"/>
<path d="M2600 4419 c0 -5 5 -7 10 -4 6 3 10 8 10 11 0 2 -4 4 -10 4 -5 0 -10
-5 -10 -11z"/>
<path d="M1131 4413 c-2 -20 16 -24 30 -5 13 15 12 16 -3 4 -13 -10 -17 -10
-21 0 -4 9 -6 9 -6 1z"/>
<path d="M1961 4399 c-21 -17 -20 -24 2 -20 5 1 6 -3 3 -8 -4 -5 2 -25 12 -43
10 -18 20 -37 20 -43 4 -20 22 -16 22 4 0 12 5 21 10 21 6 0 10 7 10 16 0 10
-5 12 -12 7 -24 -14 -35 -11 -33 11 0 11 -3 29 -8 40 -6 13 -6 16 2 12 6 -4
11 -3 11 3 0 19 -15 19 -39 0z"/>
<path d="M3316 4401 c-3 -5 0 -11 8 -14 15 -6 26 1 26 15 0 11 -27 10 -34 -1z"/>
<path d="M1035 4389 c-11 -17 1 -21 15 -4 8 9 8 15 2 15 -6 0 -14 -5 -17 -11z"/>
<path d="M1575 4380 c3 -5 8 -10 11 -10 2 0 4 5 4 10 0 6 -5 10 -11 10 -5 0
-7 -4 -4 -10z"/>
<path d="M2465 4370 c3 -5 10 -10 16 -10 5 0 9 5 9 10 0 6 -7 10 -16 10 -8 0
-12 -4 -9 -10z"/>
<path d="M943 4363 c-23 -9 -15 -40 10 -39 12 0 22 7 21 14 -3 34 -5 36 -31
25z"/>
<path d="M2100 4350 c0 -13 -7 -20 -20 -20 -11 0 -20 -6 -20 -14 0 -25 18 -27
34 -5 8 12 19 18 25 15 15 -10 24 13 11 29 -17 21 -30 19 -30 -5z"/>
<path d="M2795 4360 c3 -5 8 -10 11 -10 2 0 4 5 4 10 0 6 -5 10 -11 10 -5 0
-7 -4 -4 -10z"/>
<path d="M1108 4348 c9 -9 15 -9 24 0 9 9 7 12 -12 12 -19 0 -21 -3 -12 -12z"/>
<path d="M1665 4350 c-3 -5 -1 -10 4 -10 6 0 11 5 11 10 0 6 -2 10 -4 10 -3 0
-8 -4 -11 -10z"/>
<path d="M1788 4340 c-7 -11 -20 -20 -29 -20 -27 0 -79 -54 -79 -83 0 -27 -12
-32 -60 -28 -8 1 -28 -11 -43 -25 -28 -26 -28 -27 -10 -44 21 -20 102 -45 111
-34 4 4 1 9 -5 11 -7 3 -13 12 -13 20 0 13 8 15 42 10 30 -4 38 -3 27 4 -12 9
-12 10 1 6 8 -2 16 -17 17 -33 1 -19 -1 -24 -6 -15 -7 10 -13 11 -31 1 -16 -8
-19 -14 -11 -20 9 -5 9 -11 -3 -23 -18 -18 -21 -37 -5 -37 18 0 48 -44 43 -63
-3 -11 6 -33 22 -55 33 -44 49 -55 89 -62 17 -3 29 -11 28 -18 -2 -7 0 -12 5
-13 4 0 18 -2 30 -3 13 -2 28 -9 33 -17 13 -22 11 -74 -6 -105 -23 -44 -19
-73 10 -80 27 -7 55 10 55 32 0 8 9 19 20 26 25 16 27 70 3 89 -11 9 -14 10
-9 2 5 -9 2 -11 -9 -7 -12 5 -13 10 -4 20 6 8 16 11 22 7 6 -3 7 -1 3 6 -4 6
0 14 8 17 21 8 21 44 0 44 -8 0 -20 14 -25 30 -9 24 -17 30 -39 30 -20 0 -27
-5 -26 -17 0 -10 -6 -18 -14 -18 -10 0 -14 8 -12 27 2 19 -6 36 -32 62 -19 20
-42 36 -51 36 -12 0 -13 4 -6 18 12 23 -11 89 -42 116 -13 12 -22 27 -19 35 3
9 0 12 -10 9 -17 -7 -21 23 -4 34 8 5 7 11 -1 19 -9 9 -16 9 -28 -1 -11 -9
-15 -9 -15 -1 0 7 -4 9 -10 6 -15 -9 -12 4 4 21 16 16 33 18 38 6 5 -14 68 17
68 33 0 14 12 19 33 16 11 -2 8 7 -10 29 -22 25 -30 25 -45 0z m-71 -136 c-3
-3 -12 -4 -19 -1 -8 3 -5 6 6 6 11 1 17 -2 13 -5z m277 -386 c-5 -7 -2 -9 9
-5 11 4 14 2 11 -8 -8 -19 -28 -25 -45 -13 -11 8 -10 9 5 4 13 -5 17 -2 13 8
-3 8 -3 17 0 20 10 10 15 7 7 -6z"/>
<path d="M2553 4342 c10 -10 17 -26 17 -35 0 -21 19 -22 27 -2 6 18 -23 55
-45 55 -13 0 -13 -3 1 -18z"/>
<path d="M2920 4340 c6 -11 20 -20 31 -20 15 0 18 -5 14 -23 -4 -15 -1 -28 9
-36 9 -8 16 -20 16 -27 0 -17 33 -47 55 -50 32 -5 17 47 -25 83 -22 20 -40 40
-40 45 0 13 -42 47 -58 48 -10 0 -10 -5 -2 -20z"/>
<path d="M1003 4343 c-7 -2 -13 -11 -13 -19 0 -8 -5 -14 -10 -14 -6 0 -5 -6 2
-14 16 -17 28 -11 28 15 0 10 3 18 8 17 4 -2 9 1 12 6 6 11 -10 16 -27 9z"/>
<path d="M1143 4332 c-7 -7 -13 -18 -13 -23 0 -6 -13 -24 -29 -40 -16 -16 -31
-41 -33 -56 -2 -19 -10 -27 -27 -30 -14 -2 -30 -8 -36 -13 -7 -5 -14 -7 -18
-4 -3 3 -14 1 -24 -4 -13 -8 -23 -6 -36 6 -18 16 -18 15 -11 -13 4 -17 11 -35
16 -42 5 -7 7 -17 3 -23 -3 -5 0 -10 7 -10 10 0 10 -2 -1 -9 -11 -7 -10 -10 5
-14 33 -9 134 -8 134 2 0 5 20 15 44 22 38 11 46 18 55 49 6 20 9 47 6 59 -4
22 11 48 60 104 21 24 20 25 -20 33 -19 3 -33 10 -30 14 9 14 -37 7 -52 -8z
m8 -135 c-8 -8 -11 -3 -11 19 1 25 2 27 11 11 8 -14 8 -22 0 -30z m-41 -92 c0
-8 -4 -15 -10 -15 -5 0 -7 7 -4 15 4 8 8 15 10 15 2 0 4 -7 4 -15z"/>
<path d="M2365 4330 c3 -5 11 -10 16 -10 6 0 7 5 4 10 -3 6 -11 10 -16 10 -6
0 -7 -4 -4 -10z"/>
<path d="M1570 4320 c0 -5 5 -10 10 -10 6 0 10 -6 10 -14 0 -14 29 -26 63 -26
10 0 15 5 12 10 -4 6 -10 8 -14 5 -5 -2 -21 7 -35 20 -28 26 -46 32 -46 15z"/>
<path d="M1865 4310 c3 -5 11 -10 16 -10 6 0 7 5 4 10 -3 6 -11 10 -16 10 -6
0 -7 -4 -4 -10z"/>
<path d="M750 4291 c0 -13 9 -20 30 -23 17 -3 30 -1 30 3 0 5 -13 15 -30 24
-28 15 -30 14 -30 -4z"/>
<path d="M2231 4296 c-22 -9 -25 -25 -15 -63 l6 -22 32 23 c17 13 40 26 51 31
19 7 19 7 -3 16 -13 5 -21 12 -18 17 6 11 -27 10 -53 -2z"/>
<path d="M636 4291 c-17 -6 -17 -8 -4 -14 10 -3 19 0 22 9 3 8 4 14 3 13 -1 0
-11 -4 -21 -8z"/>
<path d="M827 4279 c4 -13 8 -18 11 -10 2 7 -1 18 -6 23 -8 8 -9 4 -5 -13z"/>
<path d="M865 4280 c-4 -6 -2 -17 4 -23 15 -15 25 -2 13 19 -7 12 -11 13 -17
4z"/>
<path d="M692 4260 c0 -14 2 -19 5 -12 2 6 2 18 0 25 -3 6 -5 1 -5 -13z"/>
<path d="M1897 4260 c8 -29 24 -36 20 -9 -2 13 -9 25 -15 27 -6 2 -8 -5 -5
-18z"/>
<path d="M3310 4263 c0 -8 -4 -12 -9 -8 -18 10 -22 -14 -8 -42 9 -17 11 -34 7
-43 -16 -29 -23 -55 -27 -103 -5 -54 -28 -117 -43 -117 -6 0 -10 -11 -10 -25
0 -31 18 -33 30 -2 6 16 9 17 9 5 1 -9 7 -18 14 -21 6 -2 4 -3 -6 -1 -12 2
-17 -3 -15 -14 4 -20 50 -19 57 1 8 22 63 67 80 65 9 -2 16 4 16 12 0 17 -70
58 -102 59 -18 1 -23 7 -23 27 0 14 4 23 9 19 5 -3 12 -1 15 4 4 5 32 7 64 4
l57 -6 -37 33 c-29 25 -39 42 -44 77 -5 32 -3 48 6 53 16 10 6 26 -20 33 -13
3 -20 0 -20 -10z"/>
<path d="M2543 4240 c-9 -16 -23 -30 -30 -30 -20 0 -15 -38 6 -50 11 -5 31
-10 45 -10 28 0 31 12 20 83 -8 45 -17 47 -41 7z"/>
<path d="M848 4233 c-24 -6 -23 -23 0 -23 10 0 19 7 19 15 0 8 -1 14 -1 14 -1
-1 -9 -3 -18 -6z"/>
<path d="M650 4220 c0 -5 5 -10 11 -10 5 0 7 5 4 10 -3 6 -8 10 -11 10 -2 0
-4 -4 -4 -10z"/>
<path d="M2775 4220 c-3 -5 -1 -10 4 -10 6 0 11 5 11 10 0 6 -2 10 -4 10 -3 0
-8 -4 -11 -10z"/>
<path d="M1260 4195 c0 -14 6 -25 13 -25 21 0 27 11 16 31 -14 27 -29 23 -29
-6z"/>
<path d="M1878 4214 c6 -3 10 -10 7 -15 -10 -15 15 -49 36 -49 11 0 22 -7 25
-15 4 -8 13 -15 21 -15 17 0 43 -24 43 -39 0 -16 -37 -23 -75 -12 -57 16 -41
-7 28 -38 34 -16 73 -43 87 -60 14 -17 30 -31 37 -31 7 0 13 -9 13 -19 0 -20
25 -51 41 -51 27 0 -13 69 -78 134 -21 21 -29 37 -24 45 12 19 2 53 -25 78
-12 12 -25 32 -29 43 -3 11 -11 20 -17 20 -7 0 -7 -4 1 -13 6 -8 8 -17 4 -20
-10 -10 -23 -8 -23 3 0 17 -43 54 -65 57 -11 1 -14 -1 -7 -3z"/>
<path d="M2340 4200 c0 -5 14 -25 30 -43 17 -19 30 -40 30 -46 0 -6 4 -11 9
-11 5 0 14 -14 20 -32 6 -17 14 -28 17 -25 4 3 3 14 -1 24 -5 10 -10 26 -12
36 -1 10 -10 31 -18 47 -8 16 -15 36 -15 45 0 10 -10 15 -30 15 -16 0 -30 -4
-30 -10z"/>
<path d="M3160 4199 c0 -5 5 -7 10 -4 6 3 10 8 10 11 0 2 -4 4 -10 4 -5 0 -10
-5 -10 -11z"/>
<path d="M678 4194 c-8 -7 13 -44 24 -44 12 0 10 14 -5 34 -7 9 -16 14 -19 10z"/>
<path d="M3221 4164 c0 -11 3 -14 6 -6 3 7 2 16 -1 19 -3 4 -6 -2 -5 -13z"/>
<path d="M720 4130 c0 -5 5 -10 11 -10 5 0 7 5 4 10 -3 6 -8 10 -11 10 -2 0
-4 -4 -4 -10z"/>
<path d="M3190 4129 c0 -9 14 -28 30 -44 21 -20 30 -24 30 -14 0 9 -13 28 -30
44 -21 20 -30 24 -30 14z"/>
<path d="M2250 4107 c0 -18 -71 -41 -98 -33 -11 4 -23 2 -27 -3 -3 -6 7 -13
22 -16 15 -4 43 -13 61 -21 42 -18 48 -18 49 4 0 9 4 32 8 50 5 21 4 32 -4 32
-6 0 -11 -6 -11 -13z"/>
<path d="M2776 4101 c-4 -5 -2 -12 3 -15 5 -4 12 -2 15 3 4 5 2 12 -3 15 -5 4
-12 2 -15 -3z"/>
<path d="M3160 4076 c0 -9 5 -16 10 -16 6 0 10 4 10 9 0 6 -4 13 -10 16 -5 3
-10 -1 -10 -9z"/>
<path d="M2805 4067 c-4 -10 -5 -21 -1 -24 10 -10 18 4 13 24 -4 17 -4 17 -12
0z"/>
<path d="M875 4049 c-4 -6 -5 -12 -2 -15 2 -3 7 2 10 11 7 17 1 20 -8 4z"/>
<path d="M2657 4053 c-4 -3 -7 -12 -7 -20 0 -20 34 -15 48 7 11 18 10 20 -11
20 -13 0 -27 -3 -30 -7z"/>
<path d="M2720 4045 c0 -8 5 -15 10 -15 6 0 10 7 10 15 0 8 -4 15 -10 15 -5 0
-10 -7 -10 -15z"/>
<path d="M3028 4033 c7 -3 16 -2 19 1 4 3 -2 6 -13 5 -11 0 -14 -3 -6 -6z"/>
<path d="M1024 4019 c-6 -10 7 -24 29 -32 5 -1 1 -22 -8 -45 -14 -33 -22 -42
-38 -40 -11 2 -22 -3 -24 -9 -4 -11 15 -18 40 -14 4 0 7 -6 7 -14 0 -8 10 -25
22 -37 16 -16 21 -32 19 -56 -4 -45 18 -60 41 -29 12 14 20 18 25 11 5 -6 33
-10 63 -10 52 1 55 2 58 29 2 19 -1 27 -12 27 -9 0 -16 6 -16 13 -1 22 -37 57
-54 51 -11 -4 -16 0 -16 14 0 20 18 32 49 32 10 0 23 11 29 25 16 35 16 37
-15 34 -48 -4 -63 0 -57 15 10 25 -30 38 -65 20 -33 -16 -51 -12 -51 12 0 17
-16 19 -26 3z m122 -67 c-4 -3 -14 2 -24 12 -16 18 -16 18 6 6 13 -6 21 -14
18 -18z m-6 -132 c0 -16 -4 -30 -8 -30 -5 0 -7 14 -4 30 2 17 6 30 8 30 2 0 4
-13 4 -30z m60 20 c0 -5 -4 -10 -10 -10 -5 0 -10 5 -10 10 0 6 5 10 10 10 6 0
10 -4 10 -10z"/>
<path d="M2427 4011 c-4 -17 -3 -21 5 -13 5 5 8 16 6 23 -3 8 -7 3 -11 -10z"/>
<path d="M700 3990 c11 -21 44 -27 55 -11 6 11 -26 31 -50 31 -13 0 -14 -4 -5
-20z"/>
<path d="M1461 3984 c0 -11 3 -14 6 -6 3 7 2 16 -1 19 -3 4 -6 -2 -5 -13z"/>
<path d="M2740 3990 c0 -5 5 -10 10 -10 6 0 10 5 10 10 0 6 -4 10 -10 10 -5 0
-10 -4 -10 -10z"/>
<path d="M990 3973 c0 -13 5 -23 10 -23 13 0 13 11 0 30 -8 12 -10 11 -10 -7z"/>
<path d="M3046 3968 c-13 -18 -16 -19 -16 -5 0 9 -4 17 -10 17 -5 0 -10 -5
-10 -11 0 -5 -4 -8 -9 -5 -5 3 -29 -1 -55 -10 -44 -15 -46 -17 -42 -50 5 -47
16 -55 16 -12 0 31 4 36 28 41 15 3 28 2 30 -2 5 -15 61 1 67 20 5 14 12 18
30 13 14 -3 26 0 31 8 4 7 4 10 -1 6 -4 -4 -16 -3 -26 2 -14 8 -21 5 -33 -12z"/>
<path d="M870 3956 c0 -15 -53 -27 -71 -15 -16 9 -51 -1 -46 -15 2 -6 35 -12
80 -14 80 -3 87 1 71 42 -8 20 -34 21 -34 2z"/>
<path d="M1404 3944 c26 -26 35 -64 16 -64 -5 0 -10 -7 -10 -15 0 -8 -4 -15
-10 -15 -5 0 -10 -7 -10 -15 0 -8 -9 -15 -20 -15 -30 0 -25 -33 8 -52 16 -10
38 -15 50 -11 19 5 21 10 16 44 -5 27 -3 39 5 39 7 0 10 4 6 9 -3 5 -1 12 5
16 5 3 10 0 10 -7 0 -10 2 -10 9 1 22 34 -28 111 -72 111 l-30 0 27 -26z"/>
<path d="M1515 3938 c0 -18 7 -40 16 -48 9 -8 14 -21 12 -27 -3 -7 0 -13 6
-13 6 0 11 7 11 15 0 7 8 19 18 24 15 10 16 12 1 23 -9 7 -21 23 -28 36 -17
32 -36 27 -36 -10z"/>
<path d="M695 3879 c-3 -4 0 -11 6 -15 8 -4 7 -9 -2 -15 -10 -6 -11 -11 -3
-19 15 -15 54 8 54 31 0 17 -47 33 -55 18z"/>
<path d="M1710 3869 c0 -20 47 -76 69 -82 15 -3 19 0 18 14 -1 11 -5 19 -9 19
-4 0 -8 8 -8 17 0 9 -3 13 -6 10 -4 -4 -20 3 -35 14 -19 13 -29 16 -29 8z"/>
<path d="M975 3860 c-3 -5 -1 -10 4 -10 6 0 11 5 11 10 0 6 -2 10 -4 10 -3 0
-8 -4 -11 -10z"/>
<path d="M2491 3851 c-8 -5 -9 -11 -3 -15 5 -3 15 1 22 9 14 16 3 20 -19 6z"/>
<path d="M3016 3851 c-4 -5 3 -7 14 -4 23 6 26 13 6 13 -8 0 -17 -4 -20 -9z"/>
<path d="M3151 3842 c-13 -25 -14 -32 -2 -32 9 0 23 41 16 48 -2 2 -8 -5 -14
-16z"/>
<path d="M875 3810 c3 -5 11 -10 16 -10 6 0 7 5 4 10 -3 6 -11 10 -16 10 -6 0
-7 -4 -4 -10z"/>
<path d="M1830 3804 c0 -10 5 -26 10 -34 8 -11 9 -8 6 14 -6 34 -16 47 -16 20z"/>
<path d="M2498 3813 c7 -3 16 -2 19 1 4 3 -2 6 -13 5 -11 0 -14 -3 -6 -6z"/>
<path d="M3336 3804 c-9 -22 -8 -23 14 -17 30 8 80 -16 80 -38 0 -24 21 -24
48 0 33 28 27 39 -25 46 -27 3 -56 10 -65 16 -26 13 -45 11 -52 -7z"/>
<path d="M680 3796 c0 -2 7 -7 16 -10 8 -3 12 -2 9 4 -6 10 -25 14 -25 6z"/>
<path d="M652 3761 c-6 -17 -7 -31 -3 -31 10 0 25 50 18 57 -3 2 -9 -10 -15
-26z"/>
<path d="M890 3776 c0 -8 6 -16 14 -19 10 -4 12 0 9 14 -6 22 -23 26 -23 5z"/>
<path d="M3304 3766 c-20 -22 -35 -56 -29 -66 11 -18 33 2 40 37 7 40 5 46
-11 29z"/>
<path d="M555 3750 c21 -23 45 -26 45 -6 0 7 -10 16 -22 20 -38 10 -42 7 -23
-14z"/>
<path d="M1743 3756 c3 -8 1 -17 -6 -20 -7 -4 -6 -5 2 -3 16 4 24 37 9 37 -6
0 -8 -6 -5 -14z"/>
<path d="M2273 3763 c-15 -5 -18 -53 -4 -53 5 0 16 14 25 30 14 30 9 36 -21
23z"/>
<path d="M870 3718 c0 -29 3 -36 15 -32 19 8 19 25 0 50 -13 18 -14 17 -15
-18z"/>
<path d="M1568 3702 c-18 -34 -23 -54 -17 -70 11 -30 1 -51 -27 -58 -13 -3
-24 -10 -24 -14 0 -17 -46 -16 -82 2 -58 28 -76 24 -84 -17 -3 -20 -4 -49 -1
-64 5 -22 2 -31 -11 -36 -15 -6 -15 -8 6 -25 14 -11 22 -29 22 -48 0 -30 26
-90 45 -104 20 -15 55 -9 55 10 0 9 7 30 15 45 13 25 13 29 -5 45 -11 9 -20
24 -20 34 0 10 -6 18 -12 18 -10 0 -10 2 -1 8 12 7 11 41 -1 61 -3 4 6 6 19 3
16 -3 25 -11 25 -22 0 -36 39 -35 78 2 20 18 38 36 40 41 2 4 27 7 55 7 47 0
49 1 31 15 -15 11 -16 15 -4 15 9 1 5 5 -8 11 -13 5 -21 13 -17 18 3 5 1 12
-5 16 -6 4 -7 11 -4 17 21 34 -1 125 -32 135 -6 2 -22 -18 -36 -45z"/>
<path d="M2545 3740 c-3 -5 3 -10 15 -10 12 0 18 5 15 10 -3 6 -10 10 -15 10
-5 0 -12 -4 -15 -10z"/>
<path d="M1020 3714 c0 -12 -6 -37 -14 -55 -8 -19 -16 -54 -17 -77 -3 -38 0
-46 21 -58 l25 -14 -22 -6 c-13 -3 -23 -13 -23 -20 0 -8 -3 -13 -7 -13 -19 3
-33 -2 -33 -12 0 -6 6 -9 14 -6 8 3 20 0 26 -8 6 -7 22 -16 35 -19 18 -5 25
-13 25 -31 0 -29 27 -35 37 -7 4 9 24 32 45 50 21 19 38 41 38 51 0 9 5 22 11
28 9 9 5 13 -17 18 -16 4 -35 8 -41 11 -7 2 -13 0 -13 -5 0 -5 -10 -11 -21
-14 l-21 -6 21 20 c27 25 29 86 4 105 -17 13 -17 15 0 25 27 16 20 27 -20 35
-21 4 -41 12 -45 18 -5 6 -8 2 -8 -10z m88 -257 c2 -18 -1 -27 -10 -27 -8 0
-15 13 -16 31 -3 39 22 35 26 -4z"/>
<path d="M1370 3719 c0 -5 5 -7 10 -4 6 3 10 8 10 11 0 2 -4 4 -10 4 -5 0 -10
-5 -10 -11z"/>
<path d="M2860 3709 c0 -11 7 -27 15 -35 17 -17 19 -7 9 34 -8 28 -24 29 -24
1z"/>
<path d="M2576 3695 c-3 -10 -3 -22 3 -28 12 -12 20 4 11 27 -6 19 -7 19 -14
1z"/>
<path d="M3365 3700 c-3 -5 -2 -10 3 -10 5 0 21 -25 37 -55 24 -47 26 -60 16
-81 -13 -30 -14 -34 -1 -34 20 0 40 60 39 114 -2 53 -3 54 -39 65 -46 13 -47
13 -55 1z"/>
<path d="M1710 3684 c0 -7 -6 -14 -12 -17 -7 -2 -5 -3 5 -1 15 2 17 -2 12 -27
-4 -18 -3 -29 4 -29 6 0 11 14 11 30 0 17 5 30 10 30 6 0 10 6 10 14 0 9 -9
14 -20 13 -11 -1 -20 -7 -20 -13z"/>
<path d="M2225 3670 c-3 -5 -2 -10 4 -10 5 0 13 5 16 10 3 6 2 10 -4 10 -5 0
-13 -4 -16 -10z"/>
<path d="M3011 3664 c-1 -16 6 -23 27 -26 34 -5 66 3 69 18 1 6 -16 10 -43 10
-24 -1 -46 4 -48 9 -3 6 -5 0 -5 -11z"/>
<path d="M676 3653 c-3 -10 -9 -24 -12 -30 -4 -9 3 -13 20 -13 29 0 33 15 12
43 -13 17 -14 17 -20 0z"/>
<path d="M799 3656 c9 -11 8 -15 -4 -20 -12 -4 -14 -10 -6 -25 8 -14 7 -20 -4
-25 -21 -8 -19 -28 5 -49 21 -18 50 -23 50 -8 0 4 -9 20 -20 33 -10 14 -17 28
-13 31 3 4 0 13 -7 22 -7 8 -10 15 -7 15 12 0 82 -45 90 -57 5 -7 12 -11 17
-8 12 7 1 43 -16 49 -8 3 -14 12 -14 20 0 18 -30 36 -61 36 -17 0 -19 -3 -10
-14z"/>
<path d="M2100 3627 c0 -14 40 -57 53 -57 12 0 -14 46 -34 58 -15 10 -19 10
-19 -1z"/>
<path d="M2305 3630 c-7 -12 26 -46 54 -55 17 -5 21 -2 21 16 0 35 -58 66 -75
39z"/>
<path d="M2940 3620 c0 -9 59 -25 66 -18 2 3 -12 9 -31 15 -19 6 -35 7 -35 3z"/>
<path d="M188 3592 c4 -11 -1 -14 -19 -10 -23 4 -25 2 -21 -24 2 -15 8 -31 13
-34 15 -9 49 15 43 31 -4 8 -1 15 6 15 9 0 10 3 1 13 -6 8 -9 16 -6 19 3 2 -1
5 -9 5 -8 0 -12 -6 -8 -15z"/>
<path d="M2866 3599 c3 -6 1 -14 -5 -18 -13 -9 -4 -41 11 -41 6 0 8 9 5 20 -3
11 -1 23 4 26 14 9 10 24 -7 24 -8 0 -12 -5 -8 -11z"/>
<path d="M3519 3593 c-2 -36 2 -59 19 -90 15 -30 15 -35 -1 -69 -10 -20 -15
-39 -12 -42 3 -3 5 0 5 8 0 10 3 10 15 0 8 -7 12 -16 9 -21 -3 -5 2 -9 10 -9
9 0 16 9 16 21 0 13 10 23 30 30 24 9 30 17 30 39 0 15 -6 30 -13 33 -8 3 -26
30 -42 61 -19 37 -34 56 -47 56 -10 0 -19 -8 -19 -17z"/>
<path d="M1976 3579 c4 -8 -1 -9 -17 -4 -16 4 -20 3 -10 -3 11 -8 10 -16 -5
-47 l-17 -37 31 -29 c18 -17 32 -26 32 -22 0 5 10 14 21 21 24 16 43 4 29 -18
-5 -8 -12 -11 -17 -7 -4 5 -1 12 7 17 10 6 11 10 3 10 -7 0 -17 -8 -22 -18 -8
-15 -4 -18 37 -19 26 -2 48 -7 50 -13 2 -5 8 -10 14 -10 6 0 8 7 5 14 -4 10
-1 13 7 10 9 -4 13 2 11 19 -3 20 1 24 22 21 14 -1 37 2 52 8 l26 10 -24 9
c-15 6 -21 14 -17 24 6 17 -9 21 -19 4 -4 -6 -14 -8 -22 -5 -8 3 -23 1 -34 -4
-10 -6 -19 -7 -19 -2 0 5 -18 17 -40 27 -21 10 -41 25 -43 34 -3 9 -5 3 -6
-13 -1 -24 -3 -27 -16 -16 -9 7 -13 21 -10 31 4 11 2 19 -5 19 -6 0 -8 -5 -4
-11z"/>
<path d="M1178 3573 c6 -2 18 -2 25 0 6 3 1 5 -13 5 -14 0 -19 -2 -12 -5z"/>
<path d="M850 3561 c0 -5 5 -13 10 -16 6 -3 10 -2 10 4 0 5 -4 13 -10 16 -5 3
-10 2 -10 -4z"/>
<path d="M895 3540 c3 -5 8 -10 11 -10 2 0 4 5 4 10 0 6 -5 10 -11 10 -5 0 -7
-4 -4 -10z"/>
<path d="M3010 3540 c0 -5 6 -10 14 -10 8 0 18 5 21 10 3 6 -3 10 -14 10 -12
0 -21 -4 -21 -10z"/>
<path d="M696 3526 c5 -12 2 -15 -11 -10 -13 5 -16 3 -13 -7 2 -8 15 -15 27
-17 18 -3 22 1 19 19 -2 12 -9 24 -16 27 -7 2 -10 -2 -6 -12z"/>
<path d="M2325 3520 c-3 -5 -1 -10 4 -10 6 0 11 5 11 10 0 6 -2 10 -4 10 -3 0
-8 -4 -11 -10z"/>
<path d="M657 3466 c-3 -8 -16 -16 -29 -18 -27 -4 -30 -26 -6 -41 13 -9 21 -6
37 14 11 13 20 29 21 36 0 18 -17 25 -23 9z"/>
<path d="M543 3440 c1 -12 8 -20 19 -20 11 0 18 7 18 20 0 13 -7 20 -19 20
-14 0 -19 -6 -18 -20z"/>
<path d="M2189 3450 c-1 -5 -3 -14 -4 -20 -1 -5 -3 -15 -4 -21 0 -6 -10 -8
-20 -4 -11 3 -22 1 -26 -4 -4 -7 0 -8 10 -5 11 5 18 0 22 -15 3 -11 9 -21 14
-21 17 0 47 33 42 46 -3 8 0 14 5 14 6 0 10 9 9 20 -1 14 -8 20 -24 20 -13 0
-24 -4 -24 -10z"/>
<path d="M432 3436 l-23 -12 21 -19 c17 -15 20 -16 20 -2 0 8 7 17 17 19 14 3
14 5 2 15 -11 9 -19 8 -37 -1z"/>
<path d="M2650 3395 c0 -14 5 -25 11 -25 6 0 8 -9 4 -20 -5 -16 -2 -20 15 -20
17 0 19 3 12 16 -5 9 -7 25 -5 35 4 13 0 19 -11 19 -10 0 -14 5 -11 10 3 6 1
10 -4 10 -6 0 -11 -11 -11 -25z"/>
<path d="M2013 3389 c-2 -20 13 -24 35 -11 9 6 6 11 -11 19 -19 9 -23 8 -24
-8z"/>
<path d="M3467 3378 c-7 -27 -5 -30 17 -22 19 7 22 44 2 44 -7 0 -16 -10 -19
-22z"/>
<path d="M3037 3370 c3 -11 7 -20 8 -20 1 0 5 9 8 20 3 12 0 20 -8 20 -8 0
-11 -8 -8 -20z"/>
<path d="M920 3360 c0 -5 6 -10 13 -10 8 0 7 -4 -3 -10 -13 -8 -13 -10 1 -10
9 0 25 -12 35 -27 10 -16 19 -23 22 -15 2 6 10 12 18 12 16 0 -5 24 -46 53
-28 19 -40 21 -40 7z"/>
<path d="M2425 3330 c-3 -6 1 -7 9 -4 18 7 21 14 7 14 -6 0 -13 -4 -16 -10z"/>
<path d="M2770 3290 c0 -5 5 -10 11 -10 5 0 7 5 4 10 -3 6 -8 10 -11 10 -2 0
-4 -4 -4 -10z"/>
<path d="M3003 3261 c-18 -15 -20 -20 -8 -25 8 -3 15 -1 15 5 0 5 8 9 17 7 10
-2 19 4 21 15 5 22 -17 21 -45 -2z"/>
<path d="M3620 3231 c0 -19 36 -44 50 -36 6 4 10 16 10 28 0 18 -6 22 -30 23
-21 1 -30 -4 -30 -15z"/>
<path d="M1035 3217 c-45 -27 -59 -73 -30 -97 13 -10 12 -15 -3 -36 -9 -13
-24 -24 -31 -24 -13 0 -13 -2 -2 -12 11 -10 14 -10 18 0 3 6 13 12 23 12 19 0
44 23 34 32 -3 3 11 9 31 12 19 4 35 11 35 16 0 6 7 10 15 10 9 0 15 9 15 25
0 16 -6 25 -15 25 -8 0 -15 7 -15 15 0 8 -7 15 -15 15 -8 0 -15 5 -15 10 0 13
-20 12 -45 -3z"/>
<path d="M3318 3213 c6 -2 18 -2 25 0 6 3 1 5 -13 5 -14 0 -19 -2 -12 -5z"/>
<path d="M2395 3198 c-37 -21 -41 -35 -21 -63 13 -19 16 -18 49 20 24 27 32
42 24 47 -16 10 -28 9 -52 -4z"/>
<path d="M740 3168 c-11 -12 -20 -27 -20 -32 0 -20 -116 -126 -138 -126 -9 0
-12 -3 -9 -7 11 -11 -14 -33 -38 -33 -39 0 -55 11 -55 36 0 29 -13 31 -41 3
-11 -11 -27 -18 -35 -15 -18 7 -31 -41 -17 -64 25 -39 -30 -66 -71 -35 -25 19
-95 19 -119 1 -13 -10 -15 -15 -5 -18 21 -7 -7 -35 -42 -42 -38 -7 -48 -31
-24 -57 15 -17 16 -24 6 -40 -10 -16 -9 -19 7 -19 23 0 36 16 21 25 -15 9 -12
35 4 35 8 0 22 10 30 22 9 12 16 17 16 10 0 -6 5 -12 11 -12 6 0 9 7 5 15 -3
8 -1 15 4 15 5 0 7 6 5 13 -4 9 8 11 46 8 51 -3 52 -20 2 -21 -12 0 -25 -4
-28 -10 -9 -15 29 -12 60 4 19 10 35 12 52 5 39 -15 48 -11 83 36 30 41 70 60
70 35 0 -23 21 -7 27 20 7 36 15 42 68 50 22 3 39 11 38 17 -1 6 16 13 37 17
32 5 41 11 46 32 6 23 8 24 16 10 9 -16 11 -16 35 -1 32 22 37 16 17 -23 -17
-34 -24 -38 -40 -22 -7 7 -11 6 -11 -5 0 -8 11 -18 24 -21 13 -4 24 -14 24
-25 2 -34 4 -38 16 -50 10 -10 14 -8 20 7 9 25 33 43 58 44 27 0 54 20 38 27
-7 2 -13 13 -13 23 0 10 -4 22 -10 25 -5 3 -10 1 -10 -4 0 -6 -7 -11 -15 -11
-24 0 -17 28 8 33 22 4 22 5 1 11 -11 4 -27 16 -34 26 -12 17 -15 17 -25 3
-10 -14 -15 -11 -33 19 -12 20 -22 47 -22 62 0 32 -13 33 -40 4z"/>
<path d="M2697 3171 c11 -42 -44 -62 -114 -42 -50 14 -51 -5 -4 -51 27 -25 48
-38 58 -34 8 4 36 11 62 17 69 17 78 29 47 66 -14 17 -26 38 -26 47 0 9 -6 16
-14 16 -9 0 -12 -7 -9 -19z"/>
<path d="M1183 3134 c-13 -14 -23 -29 -23 -32 0 -11 -61 -42 -71 -36 -5 3 -9
-4 -9 -15 0 -12 5 -21 11 -21 6 0 17 -7 26 -16 12 -11 13 -18 4 -27 -8 -8 -11
-7 -11 6 0 26 -14 21 -33 -12 -10 -16 -27 -32 -40 -34 -16 -3 -13 -5 11 -6 40
-1 42 -17 2 -25 -32 -6 -32 -9 -13 -78 7 -26 22 -22 36 10 14 32 47 39 81 16
14 -8 27 -11 30 -6 8 13 -36 62 -57 62 -9 0 -17 5 -17 10 0 15 31 12 50 -5 9
-8 47 -17 88 -21 61 -6 72 -5 72 8 0 16 28 28 68 28 17 0 22 -6 22 -26 0 -33
24 -27 28 8 3 21 -2 26 -28 31 -22 5 -35 16 -47 42 -18 38 -44 45 -77 20 -11
-8 -28 -15 -38 -15 -10 0 -18 -4 -18 -9 0 -13 -27 -21 -45 -15 -24 10 -17 34
15 52 16 9 30 20 30 25 0 4 13 7 29 7 l29 0 -15 33 c-14 28 -50 66 -63 67 -3
0 -15 -12 -27 -26z"/>
<path d="M3410 3139 c0 -6 5 -20 11 -31 9 -16 8 -19 -2 -16 -17 6 -40 -37 -32
-58 8 -21 37 -13 41 11 2 11 11 28 19 37 14 16 14 20 -1 43 -17 26 -36 33 -36
14z"/>
<path d="M2130 3100 c0 -5 -11 -10 -25 -10 -18 0 -26 -7 -31 -25 -4 -16 -13
-25 -25 -25 -11 0 -22 -7 -25 -15 -4 -8 -13 -15 -22 -15 -8 0 -12 -3 -8 -7 4
-4 15 -8 24 -8 9 0 26 -14 37 -32 11 -18 25 -30 32 -28 18 6 21 -27 5 -59 -18
-36 -26 -79 -13 -72 5 3 11 1 13 -4 2 -6 11 -1 20 10 10 11 14 20 9 20 -5 0
-11 7 -15 15 -4 12 -2 13 12 6 24 -13 48 2 69 42 25 49 32 91 17 105 -9 8 -13
9 -16 0 -3 -8 -11 -7 -28 5 l-23 16 42 7 c23 4 44 10 46 14 3 5 17 5 33 1 24
-7 27 -12 30 -58 2 -28 9 -56 15 -62 18 -14 77 17 88 46 10 28 1 76 -13 67 -5
-3 -18 2 -28 11 -16 15 -19 15 -27 1 -7 -13 -11 -10 -21 18 -12 34 -20 36 -54
21 -10 -4 -26 -4 -35 1 -10 4 -24 6 -30 5 -7 -1 -22 3 -33 9 -13 7 -20 7 -20
0z m-7 -100 c-3 -11 -9 -20 -14 -20 -10 0 -12 24 -2 33 13 13 21 7 16 -13z
m222 10 c3 -5 1 -10 -4 -10 -6 0 -11 5 -11 10 0 6 2 10 4 10 3 0 8 -4 11 -10z"/>
<path d="M1607 3093 c-14 -13 -6 -23 34 -44 30 -15 44 -18 52 -10 9 9 4 18
-18 36 -30 24 -56 31 -68 18z"/>
<path d="M3557 3073 c-14 -13 -7 -33 11 -33 26 0 34 11 21 27 -13 14 -22 16
-32 6z"/>
<path d="M1566 3054 c-9 -22 -8 -24 9 -18 8 4 15 12 15 20 0 19 -16 18 -24 -2z"/>
<path d="M2591 3033 c4 -24 -4 -33 -25 -33 -35 0 -57 -10 -49 -23 4 -6 0 -8
-10 -4 -11 4 -14 2 -10 -9 3 -7 15 -14 27 -14 17 0 18 -2 6 -10 -13 -8 -13
-10 2 -10 9 0 19 -6 21 -12 3 -8 6 -6 6 4 1 10 15 25 31 33 26 13 30 21 28 50
-1 21 -7 35 -15 35 -7 0 -12 -3 -12 -7z"/>
<path d="M1526 2987 c-9 -36 3 -62 35 -74 27 -10 29 -10 29 12 0 16 -7 25 -25
29 -32 8 -34 43 -2 49 20 4 19 4 -4 6 -20 1 -28 -5 -33 -22z"/>
<path d="M1663 3003 c-18 -2 -33 -9 -33 -15 0 -6 -9 -8 -20 -5 -13 3 -20 0
-20 -8 0 -8 21 -18 55 -25 30 -6 57 -16 60 -21 9 -13 75 -11 75 2 0 6 -9 13
-20 16 -11 3 -20 11 -20 17 0 10 -37 48 -43 44 -1 0 -17 -3 -34 -5z"/>
<path d="M2417 2956 c-11 -13 -14 -28 -10 -45 8 -31 68 -95 82 -87 5 3 16 0
24 -9 13 -13 16 -12 22 3 4 11 -1 23 -15 34 -12 10 -19 22 -16 27 8 12 -19 33
-47 35 -16 1 -24 8 -25 22 -1 18 3 21 30 18 25 -3 29 -1 20 8 -19 19 -48 16
-65 -6z m73 -116 c0 -5 -4 -10 -10 -10 -5 0 -10 5 -10 10 0 6 5 10 10 10 6 0
10 -4 10 -10z m33 -4 c4 -10 1 -13 -9 -9 -15 6 -19 23 -5 23 5 0 11 -7 14 -14z"/>
<path d="M666 2921 c-8 -12 20 -22 39 -15 19 8 9 24 -15 24 -10 0 -21 -4 -24
-9z"/>
<path d="M1654 2908 c-3 -4 5 -12 16 -18 12 -6 19 -18 16 -25 -2 -7 2 -16 10
-19 11 -4 14 4 14 32 0 33 -3 37 -26 37 -14 0 -28 -3 -30 -7z"/>
<path d="M2694 2895 c-19 -14 -19 -14 1 -16 11 -1 26 0 34 1 9 1 12 -4 7 -15
-3 -9 -2 -13 3 -10 5 3 13 0 17 -6 4 -8 9 -7 15 2 7 11 9 10 9 -3 0 -20 20
-25 20 -5 0 8 3 8 9 -2 5 -8 20 -15 33 -16 17 -1 23 -8 23 -25 0 -31 53 -49
72 -23 17 22 -14 48 -36 30 -11 -10 -13 -8 -7 10 8 25 -14 42 -52 38 -15 -1
-21 3 -18 11 3 7 -14 18 -44 28 -60 20 -61 20 -86 1z"/>
<path d="M3662 2898 c-8 -10 0 -24 33 -57 40 -40 42 -46 37 -84 -4 -34 -3 -39
11 -34 8 3 21 -1 27 -9 20 -23 30 -16 30 21 0 24 -9 45 -30 68 -16 19 -30 41
-30 48 -1 43 -55 75 -78 47z"/>
<path d="M653 2883 c9 -2 15 -8 12 -13 -3 -5 -12 -7 -20 -3 -17 6 -20 -12 -4
-22 6 -4 17 1 24 11 20 27 18 34 -7 33 -18 -1 -19 -2 -5 -6z"/>
<path d="M825 2870 c-21 -23 -15 -55 16 -88 18 -20 27 -22 63 -17 56 9 73 27
60 62 -8 22 -15 27 -36 25 -19 -2 -27 3 -31 18 -7 26 -48 27 -72 0z"/>
<path d="M1720 2863 c0 -16 5 -35 10 -43 7 -12 11 -10 18 9 6 16 11 20 16 13
4 -7 4 -12 0 -12 -4 0 5 -9 20 -21 34 -27 48 -18 35 24 -6 17 -13 38 -15 46
-4 11 -9 10 -25 -5 -19 -17 -21 -18 -30 -1 -15 26 -29 21 -29 -10z"/>
<path d="M2533 2873 c-4 -11 3 -24 22 -40 21 -18 25 -27 16 -36 -13 -13 -14
-27 -2 -27 5 0 14 13 19 29 12 33 -6 70 -26 57 -7 -4 -12 -1 -12 8 0 8 6 17
13 19 7 3 5 6 -6 6 -10 1 -20 -6 -24 -16z m50 -37 c4 -10 1 -13 -9 -9 -15 6
-19 23 -5 23 5 0 11 -7 14 -14z"/>
<path d="M3298 2883 c-10 -2 -18 -8 -18 -13 0 -16 36 -15 53 2 16 17 16 18 0
17 -10 -1 -26 -3 -35 -6z"/>
<path d="M3588 2883 c7 -3 16 -2 19 1 4 3 -2 6 -13 5 -11 0 -14 -3 -6 -6z"/>
<path d="M2601 2843 c15 -26 29 -38 45 -39 29 -2 63 -40 65 -74 1 -21 2 -22 6
-5 3 11 10 25 15 30 8 7 9 4 4 -10 -6 -16 -5 -18 5 -8 10 10 7 19 -19 46 -18
18 -32 41 -32 51 0 9 -4 15 -9 12 -5 -3 -20 3 -34 14 -14 11 -35 20 -46 20
l-22 0 22 -37z"/>
<path d="M3394 2853 c6 -17 1 -29 -20 -48 l-27 -25 24 -20 c30 -24 32 -24 55
1 15 16 16 24 6 39 -7 11 -12 26 -12 34 0 7 -7 20 -16 27 -15 12 -16 11 -10
-8z"/>
<path d="M546 2838 c-14 -19 -14 -23 -1 -30 8 -5 12 -15 9 -23 -4 -8 -1 -15 5
-15 5 0 15 -18 21 -40 6 -23 17 -40 25 -40 27 0 27 22 1 44 -27 21 -27 21 -10
54 16 32 15 34 -4 53 -26 24 -28 24 -46 -3z"/>
<path d="M1365 2850 c3 -5 10 -10 16 -10 5 0 9 5 9 10 0 6 -7 10 -16 10 -8 0
-12 -4 -9 -10z"/>
<path d="M1581 2844 c0 -11 3 -14 6 -6 3 7 2 16 -1 19 -3 4 -6 -2 -5 -13z"/>
<path d="M3248 2853 c7 -3 16 -2 19 1 4 3 -2 6 -13 5 -11 0 -14 -3 -6 -6z"/>
<path d="M1352 2816 c1 -14 5 -26 8 -27 44 -7 49 -5 48 18 -1 13 -8 23 -14 23
-7 0 -19 3 -28 6 -12 5 -15 0 -14 -20z"/>
<path d="M1680 2826 c0 -2 7 -7 16 -10 8 -3 12 -2 9 4 -6 10 -25 14 -25 6z"/>
<path d="M2779 2810 c-17 -14 -19 -18 -6 -14 11 4 17 1 17 -10 0 -9 8 -16 19
-16 13 0 19 6 18 19 -1 12 -6 17 -16 13 -10 -4 -13 -1 -8 11 8 22 4 21 -24 -3z"/>
<path d="M694 2812 c3 -5 0 -12 -6 -15 -7 -3 0 -10 16 -16 31 -12 42 -9 31 9
-4 6 -14 9 -22 6 -8 -3 -11 -2 -8 3 3 5 0 13 -6 17 -7 4 -9 3 -5 -4z"/>
<path d="M432 2782 c-30 -27 -30 -28 -12 -40 27 -16 55 -15 70 3 10 12 9 20
-4 40 -9 14 -18 25 -19 25 -2 0 -17 -13 -35 -28z"/>
<path d="M656 2795 c-3 -9 -6 -24 -5 -33 0 -9 5 -4 10 12 9 32 6 48 -5 21z"/>
<path d="M1021 2784 c0 -12 6 -27 14 -34 14 -12 13 -15 -5 -32 -11 -10 -25
-16 -30 -13 -6 3 -10 1 -10 -4 0 -6 -7 -11 -16 -11 -8 0 -13 -4 -10 -8 2 -4
-4 -9 -15 -9 -12 -1 -17 3 -13 10 4 7 1 6 -7 -1 -12 -12 -11 -16 9 -29 27 -19
28 -30 5 -36 -14 -4 -12 -5 5 -6 12 0 38 -18 57 -38 25 -27 43 -37 59 -35 13
2 27 -2 31 -7 3 -6 -1 -11 -9 -11 -8 0 -18 -5 -22 -12 -5 -8 -2 -9 9 -5 9 3
19 2 22 -3 10 -16 45 -11 45 5 0 10 10 15 29 15 16 0 31 5 33 12 4 12 74 15
86 3 8 -7 -19 -26 -29 -19 -4 2 -10 0 -14 -6 -3 -5 -1 -10 6 -10 8 0 8 -4 -1
-15 -13 -15 -5 -20 27 -16 8 1 10 -5 7 -14 -4 -10 -13 -14 -22 -10 -9 3 -13 3
-10 -1 15 -14 -11 -42 -33 -37 -19 5 -21 3 -17 -20 4 -21 0 -27 -20 -32 -24
-6 -36 -1 -38 16 -1 5 -2 12 -3 15 -2 8 -61 -29 -61 -38 0 -9 14 -11 49 -8 13
1 21 -3 17 -8 -3 -5 10 -26 29 -46 19 -21 35 -34 35 -30 0 4 6 -1 14 -12 12
-15 17 -17 27 -6 11 10 10 12 -4 12 -10 0 -17 8 -17 19 0 11 -4 23 -10 26 -5
3 -10 14 -10 25 0 13 16 25 54 40 32 14 58 32 64 45 6 13 18 22 28 22 23 -3
29 20 7 26 -17 4 -17 5 0 6 9 0 17 8 17 16 0 9 9 15 25 15 21 0 25 -5 25 -30
0 -29 2 -30 45 -30 43 0 85 22 85 44 0 5 8 15 18 22 15 12 15 15 2 24 -8 5
-10 10 -4 10 6 0 14 18 18 39 3 22 12 41 18 44 7 2 -2 7 -19 11 -39 9 -56 0
-50 -25 4 -16 0 -19 -26 -19 -18 0 -43 -3 -56 -7 -22 -6 -23 -4 -17 20 5 21 3
27 -10 27 -10 0 -14 -5 -10 -15 3 -8 1 -15 -4 -15 -6 0 -10 6 -10 13 0 7 -5
18 -12 25 -17 17 -20 52 -5 52 6 1 1 7 -13 15 -22 13 -23 14 -5 15 20 1 20 1
0 9 -11 5 -24 6 -30 4 -5 -2 -1 3 9 11 16 13 17 16 4 16 -24 0 -37 -22 -31
-53 4 -23 9 -26 27 -21 17 5 19 4 9 -7 -7 -7 -13 -21 -13 -31 0 -10 -7 -18
-16 -18 -8 0 -12 5 -9 10 3 6 -1 10 -10 10 -30 0 -9 -25 26 -30 26 -4 35 -10
37 -29 3 -22 1 -23 -26 -18 -18 4 -32 2 -34 -4 -2 -7 -9 -5 -17 5 -11 14 -11
16 3 16 25 0 19 19 -10 30 -18 7 -33 6 -54 -5 -40 -21 -44 -20 -87 20 -28 26
-39 31 -41 20 -4 -16 -12 -18 -36 -9 -9 3 -13 10 -10 16 3 5 -5 21 -17 35 -17
19 -19 24 -7 20 13 -4 15 0 13 20 -1 14 -7 28 -13 32 -5 3 -12 15 -15 26 -4
19 -5 19 -6 -1z m29 -123 c-1 -14 -2 -14 -14 1 -7 10 -17 14 -21 10 -5 -4 -5
-2 -1 5 9 16 36 5 36 -16z"/>
<path d="M1510 2785 c12 -15 30 -12 30 6 0 5 -10 9 -21 9 -18 0 -19 -2 -9 -15z"/>
<path d="M2464 2785 c-4 -8 -12 -15 -20 -15 -8 0 -14 -10 -14 -25 0 -23 14
-31 44 -26 4 1 14 -3 21 -9 13 -11 45 -4 45 10 0 4 -9 10 -20 13 -13 3 -22 17
-26 36 -7 33 -21 41 -30 16z"/>
<path d="M3258 2789 c-17 -7 -25 -15 -21 -25 9 -23 47 -16 60 11 13 28 7 30
-39 14z"/>
<path d="M1920 2777 c-14 -6 -26 -11 -26 -11 -1 -1 -4 -10 -8 -22 -6 -19 -2
-21 39 -22 39 0 44 2 34 14 -9 11 -9 18 -1 26 27 27 7 35 -38 15z"/>
<path d="M317 2773 c-4 -3 -7 -19 -7 -34 0 -18 -5 -27 -12 -25 -7 1 -10 1 -5
-1 14 -8 7 -22 -8 -17 -8 4 -15 2 -15 -3 0 -5 12 -10 26 -11 19 -1 25 2 20 13
-3 8 -1 17 5 20 5 4 7 11 4 16 -4 5 0 9 8 9 8 0 17 9 20 20 4 14 0 20 -12 20
-10 0 -21 -3 -24 -7z"/>
<path d="M972 2768 c-8 -8 -9 -15 -1 -25 16 -18 25 -16 26 7 2 24 -10 33 -25
18z"/>
<path d="M1643 2765 c2 -5 13 -11 25 -13 15 -2 20 1 17 10 -6 16 -47 19 -42 3z"/>
<path d="M2028 2773 c7 -3 16 -2 19 1 4 3 -2 6 -13 5 -11 0 -14 -3 -6 -6z"/>
<path d="M621 2754 c0 -11 3 -14 6 -6 3 7 2 16 -1 19 -3 4 -6 -2 -5 -13z"/>
<path d="M750 2755 c0 -8 7 -15 15 -15 8 0 15 7 15 15 0 8 -7 15 -15 15 -8 0
-15 -7 -15 -15z"/>
<path d="M1101 2744 c0 -11 3 -14 6 -6 3 7 2 16 -1 19 -3 4 -6 -2 -5 -13z"/>
<path d="M2810 2730 c-8 -5 -17 -7 -21 -4 -4 2 -9 -3 -13 -11 -7 -20 27 -20
44 0 16 19 10 27 -10 15z"/>
<path d="M3220 2724 c0 -8 5 -12 10 -9 6 3 10 10 10 16 0 5 -4 9 -10 9 -5 0
-10 -7 -10 -16z"/>
<path d="M678 2725 c-10 -11 4 -45 19 -45 9 0 13 8 11 22 -3 21 -19 34 -30 23z"/>
<path d="M1515 2720 c-3 -6 1 -7 9 -4 18 7 21 14 7 14 -6 0 -13 -4 -16 -10z"/>
<path d="M2031 2716 c-9 -10 -8 -15 4 -20 8 -3 15 -12 15 -21 0 -8 5 -15 10
-15 6 0 10 16 10 35 0 37 -18 47 -39 21z"/>
<path d="M2160 2720 c0 -24 36 -50 70 -50 l35 1 -35 29 c-34 29 -70 40 -70 20z"/>
<path d="M3359 2725 c0 0 -2 -10 -5 -22 -2 -12 4 -30 13 -39 10 -10 16 -28 15
-42 -3 -21 -1 -23 20 -17 12 4 33 16 46 26 23 18 23 18 3 29 -13 6 -21 21 -21
35 0 14 -3 25 -7 26 -12 1 -63 5 -64 4z"/>
<path d="M84 2696 c-3 -7 -23 -17 -46 -20 l-40 -7 4 -80 c2 -57 8 -84 18 -92
16 -12 15 -52 0 -42 -5 3 -6 13 -3 22 4 11 3 14 -5 9 -15 -9 -16 -116 -2 -116
6 0 10 7 10 15 0 8 7 15 15 15 8 0 15 4 15 9 0 5 9 13 20 16 11 4 18 11 15 16
-4 5 1 12 9 15 11 4 16 19 15 48 -1 73 -8 94 -35 100 -30 8 -29 40 2 44 25 4
51 62 28 62 -8 0 -17 -6 -20 -14z m-4 -177 c0 -11 -12 -11 -35 -3 -12 5 -14 9
-4 14 14 9 39 2 39 -11z"/>
<path d="M1680 2685 c0 -12 7 -28 15 -35 8 -7 18 -30 21 -51 4 -22 12 -39 19
-39 7 0 16 -7 19 -15 4 -13 16 -14 56 -9 42 6 50 4 50 -10 0 -18 8 -20 29 -7
8 5 11 16 7 29 -5 14 -1 24 11 31 11 6 13 11 5 11 -7 0 -10 5 -7 10 3 6 -3 10
-14 10 -26 0 -34 -15 -21 -40 9 -17 8 -20 -12 -20 -44 0 -68 12 -68 32 0 16 5
19 25 16 14 -3 25 -2 25 2 0 11 -30 21 -41 14 -11 -6 -59 41 -59 57 0 15 -22
34 -42 35 -12 1 -18 -5 -18 -21z"/>
<path d="M2270 2702 c0 -17 42 -52 62 -52 10 0 18 5 18 10 0 9 -13 13 -25 8
-3 -2 -9 2 -13 7 -14 20 -42 38 -42 27z"/>
<path d="M2708 2667 c3 -30 7 -33 40 -35 l37 -2 -22 19 c-12 10 -20 21 -18 25
3 3 2 4 -2 1 -3 -3 -14 2 -23 10 -14 13 -16 11 -12 -18z"/>
<path d="M3056 2691 c-7 -10 3 -21 20 -21 8 0 11 6 8 15 -7 17 -20 20 -28 6z"/>
<path d="M235 2680 c-3 -5 -1 -10 4 -10 6 0 11 5 11 10 0 6 -2 10 -4 10 -3 0
-8 -4 -11 -10z"/>
<path d="M443 2674 c-3 -8 -2 -19 3 -24 12 -10 61 -25 52 -15 -4 5 -3 14 3 21
6 7 8 18 4 24 -10 16 -55 12 -62 -6z"/>
<path d="M3185 2679 c-16 -4 -24 -7 -16 -8 7 0 11 -7 7 -16 -8 -21 8 -19 29 5
22 25 19 28 -20 19z"/>
<path d="M1081 2664 c0 -11 3 -14 6 -6 3 7 2 16 -1 19 -3 4 -6 -2 -5 -13z"/>
<path d="M2408 2673 c6 -2 18 -2 25 0 6 3 1 5 -13 5 -14 0 -19 -2 -12 -5z"/>
<path d="M687 2663 c-3 -4 -7 -21 -8 -38 -3 -25 0 -31 19 -33 13 -2 30 2 38 8
11 10 14 9 14 -6 0 -13 3 -15 11 -7 15 15 -22 77 -48 81 -12 2 -23 0 -26 -5z"/>
<path d="M2490 2654 c0 -8 5 -12 10 -9 6 3 10 10 10 16 0 5 -4 9 -10 9 -5 0
-10 -7 -10 -16z"/>
<path d="M3276 2655 c-3 -9 0 -15 9 -15 9 0 12 6 9 15 -4 8 -7 15 -9 15 -2 0
-5 -7 -9 -15z"/>
<path d="M3613 2658 c-9 -16 -14 -36 -16 -68 -2 -20 2 -24 18 -21 11 2 41 3
67 2 26 0 50 4 53 9 3 6 -1 10 -10 10 -9 0 -34 18 -56 40 -46 45 -45 45 -56
28z"/>
<path d="M351 2637 c-11 -29 -6 -33 14 -13 9 9 21 16 27 16 16 0 1 13 -18 16
-8 1 -19 -7 -23 -19z"/>
<path d="M1208 2653 c7 -3 16 -2 19 1 4 3 -2 6 -13 5 -11 0 -14 -3 -6 -6z"/>
<path d="M3310 2645 c0 -8 5 -15 10 -15 6 0 10 7 10 15 0 8 -4 15 -10 15 -5 0
-10 -7 -10 -15z"/>
<path d="M410 2639 c0 -5 5 -7 10 -4 6 3 10 8 10 11 0 2 -4 4 -10 4 -5 0 -10
-5 -10 -11z"/>
<path d="M527 2635 c-21 -15 -15 -55 7 -55 12 0 36 40 36 60 0 14 -22 12 -43
-5z"/>
<path d="M1993 2631 c-20 -17 -21 -31 -2 -31 11 0 39 30 39 41 0 14 -13 10
-37 -10z"/>
<path d="M2222 2623 c-1 -16 2 -21 13 -17 9 4 15 0 15 -7 0 -12 2 -12 9 0 5 8
14 10 22 6 7 -5 4 3 -6 16 -23 31 -50 32 -53 2z"/>
<path d="M2405 2643 c11 -3 24 -10 28 -17 6 -7 7 -6 4 4 -2 8 -14 16 -28 17
-19 1 -20 1 -4 -4z"/>
<path d="M857 2610 c-10 -16 -24 -30 -31 -30 -11 0 -36 -39 -36 -55 0 -3 12
-5 28 -4 15 0 21 3 15 6 -21 8 -15 20 12 25 13 3 22 1 19 -3 -9 -14 3 -10 20
7 10 10 16 11 16 3 0 -8 5 -8 16 2 15 12 14 14 -7 19 -19 5 -23 11 -21 33 4
36 -9 34 -31 -3z"/>
<path d="M3017 2623 c-10 -9 -9 -43 1 -43 15 0 30 22 25 36 -6 15 -16 18 -26
7z"/>
<path d="M2567 2609 c-25 -14 -21 -29 8 -29 15 0 25 6 25 14 0 21 -12 26 -33
15z"/>
<path d="M201 2578 c-14 -40 -15 -38 14 -38 21 0 25 5 25 29 0 41 -26 47 -39
9z"/>
<path d="M1650 2595 c0 -8 4 -15 10 -15 5 0 7 7 4 15 -4 8 -8 15 -10 15 -2 0
-4 -7 -4 -15z"/>
<path d="M2190 2596 c0 -8 4 -16 10 -18 12 -4 37 -88 32 -111 -2 -9 -7 -15
-12 -12 -5 3 -7 12 -4 19 7 18 -51 19 -66 1 -6 -8 -18 -11 -25 -9 -7 3 -19 -4
-25 -16 -8 -14 -19 -20 -35 -18 -13 2 -23 -1 -22 -5 3 -13 -27 -27 -60 -27
-30 0 -33 3 -33 31 0 27 -2 30 -15 19 -11 -9 -12 -17 -5 -31 7 -13 6 -20 -3
-26 -21 -13 -67 -100 -67 -127 0 -14 -4 -28 -10 -31 -15 -9 -12 -19 15 -51 28
-33 32 -54 10 -54 -8 0 -15 5 -15 12 0 6 -3 8 -7 4 -4 -4 -8 -46 -9 -94 -2
-116 -1 -111 -26 -122 -17 -6 -19 -9 -6 -9 11 -1 15 -6 12 -16 -12 -29 11 -14
25 17 13 30 15 30 28 12 8 -10 19 -18 24 -16 17 4 -9 -35 -27 -42 -15 -6 -15
-8 1 -26 10 -11 14 -24 9 -32 -14 -21 -11 -144 4 -157 9 -9 12 -8 12 4 0 9 6
18 14 21 16 6 10 38 -10 55 -11 9 -11 15 -3 25 19 24 29 16 29 -23 1 -36 1
-37 13 -15 15 27 10 99 -6 83 -12 -12 -31 5 -41 37 -5 15 -2 28 9 38 15 15 17
15 30 -2 13 -17 14 -13 15 39 0 61 -1 63 -31 47 -17 -10 -19 -7 -19 25 0 19
-4 35 -10 35 -5 0 -10 -4 -10 -10 0 -5 -4 -10 -10 -10 -5 0 -10 7 -10 15 0 10
10 15 34 15 29 0 33 -3 29 -20 -3 -11 -1 -20 4 -20 5 0 9 17 8 38 -1 20 3 40
9 44 6 4 5 12 -3 21 -8 10 -10 33 -5 73 4 33 6 83 6 112 0 36 4 52 13 52 7 0
18 7 25 15 8 10 31 15 67 15 38 0 55 4 59 15 8 21 26 19 23 -2 -3 -37 1 -43
35 -43 28 0 40 7 62 35 17 22 25 43 22 58 -5 25 22 61 30 39 7 -23 53 -71 72
-77 16 -5 20 -15 20 -50 0 -24 -5 -47 -11 -50 -5 -4 -8 -12 -6 -18 2 -7 -7
-31 -20 -54 -12 -23 -23 -52 -23 -65 -1 -24 -21 -58 -36 -59 -11 0 -88 -118
-82 -125 3 -2 18 1 34 6 33 12 64 55 64 90 0 11 4 18 10 15 5 -3 12 5 16 18
10 43 60 83 156 127 26 12 49 28 52 36 3 8 12 14 21 14 8 0 15 5 15 10 0 6 -4
10 -9 10 -18 0 -108 -46 -121 -61 -3 -4 -15 -10 -28 -14 -21 -6 -23 -4 -18 22
3 15 16 59 30 96 27 71 36 160 13 123 -7 -10 -20 -28 -29 -40 l-16 -21 -29 26
c-15 15 -38 32 -51 38 -12 7 -20 16 -17 20 7 12 -20 33 -30 23 -5 -4 -5 -1 -1
6 4 6 3 12 -2 12 -4 0 -18 18 -31 40 -24 43 -31 49 -31 26z m12 -188 c-9 -9
-12 -4 -11 23 0 32 1 33 11 11 8 -17 8 -26 0 -34z m-282 -208 c0 -5 -5 -10
-11 -10 -5 0 -7 5 -4 10 3 6 8 10 11 10 2 0 4 -4 4 -10z m0 -90 c0 -11 -4 -20
-10 -20 -5 0 -10 9 -10 20 0 11 5 20 10 20 6 0 10 -9 10 -20z"/>
<path d="M3145 2590 c-21 -23 -20 -25 16 -33 22 -6 25 -3 23 16 -1 12 -3 25
-3 30 -2 13 -18 7 -36 -13z"/>
<path d="M258 2588 c7 -7 12 -20 12 -29 0 -9 9 -19 20 -22 26 -7 26 -43 0 -57
-27 -14 -15 -33 16 -26 19 5 24 2 24 -14 0 -11 7 -20 15 -20 18 0 19 12 4 27
-8 8 -5 15 9 25 20 13 20 15 -18 56 -22 23 -44 42 -50 42 -5 0 -10 7 -10 15 0
8 -8 15 -17 15 -13 0 -14 -3 -5 -12z"/>
<path d="M2618 2550 c3 -28 8 -37 18 -33 8 3 11 10 7 17 -4 6 -8 17 -10 25 -5
34 -18 26 -15 -9z"/>
<path d="M1607 2568 c-2 -7 0 -21 5 -30 7 -14 5 -16 -8 -11 -12 4 -15 3 -10
-5 4 -7 18 -10 34 -6 38 9 38 11 9 39 -17 18 -26 22 -30 13z"/>
<path d="M2040 2569 c0 -5 5 -7 10 -4 6 3 10 8 10 11 0 2 -4 4 -10 4 -5 0 -10
-5 -10 -11z"/>
<path d="M2090 2566 c-12 -16 -12 -19 3 -28 10 -5 15 -12 13 -16 -3 -4 3 -8
13 -8 10 0 18 6 18 13 0 7 -6 13 -13 13 -7 0 -14 10 -16 22 -3 20 -4 20 -18 4z"/>
<path d="M958 2553 c7 -3 16 -2 19 1 4 3 -2 6 -13 5 -11 0 -14 -3 -6 -6z"/>
<path d="M1992 2548 c-7 -7 -12 -17 -12 -22 0 -6 4 -5 9 3 8 12 12 13 25 1 23
-18 27 -9 7 12 -13 14 -20 15 -29 6z"/>
<path d="M2490 2545 c0 -8 -4 -15 -8 -15 -5 0 -19 -9 -32 -20 l-23 -20 31 0
c18 0 40 8 50 18 16 16 16 18 0 35 -15 14 -18 14 -18 2z"/>
<path d="M2688 2538 c-11 -11 -13 -18 -6 -18 7 0 22 -12 35 -27 l22 -28 1 35
c0 45 -27 65 -52 38z"/>
<path d="M3108 2520 c-10 -9 -18 -25 -17 -36 0 -10 3 -13 6 -6 7 17 33 15 33
-4 0 -8 5 -24 11 -36 11 -20 11 -20 35 3 29 27 31 49 5 49 -11 0 -23 5 -26 11
-4 6 -13 8 -21 5 -8 -3 -14 -1 -14 3 0 5 5 11 12 13 7 3 8 7 3 10 -6 3 -18 -2
-27 -12z"/>
<path d="M3323 2528 c-18 -24 -24 -38 -16 -38 10 0 36 40 30 46 -2 3 -9 -1
-14 -8z"/>
<path d="M3500 2530 c0 -5 -10 -10 -23 -10 -13 0 -32 -7 -43 -15 -18 -13 -16
-14 22 -15 27 0 46 6 57 18 21 23 21 32 2 32 -8 0 -15 -4 -15 -10z"/>
<path d="M870 2519 c0 -5 5 -7 10 -4 6 3 10 8 10 11 0 2 -4 4 -10 4 -5 0 -10
-5 -10 -11z"/>
<path d="M1740 2506 c0 -13 -6 -29 -14 -35 -12 -10 -18 -6 -32 19 -20 33 -40
35 -37 2 3 -25 32 -62 49 -62 10 0 23 -36 37 -107 3 -13 -1 -24 -9 -27 -16 -6
-19 -42 -4 -51 12 -7 14 -55 2 -55 -4 0 -4 -33 1 -72 5 -40 9 -105 10 -145 1
-39 5 -74 8 -78 4 -3 3 -23 -2 -43 -4 -20 -6 -39 -3 -42 13 -12 32 34 32 78 0
26 8 67 16 91 18 50 14 96 -15 151 -10 19 -15 37 -10 40 14 9 43 97 39 121 -1
13 -14 29 -28 36 -14 7 -20 13 -13 13 6 0 11 13 11 30 -1 17 -5 30 -9 30 -6 0
-5 30 4 59 2 9 -21 71 -27 71 -4 0 -6 -11 -6 -24z m60 -216 c0 -13 -5 -18 -14
-14 -8 3 -12 12 -9 20 8 21 23 17 23 -6z m-25 -239 c-3 -6 -11 -11 -17 -11 -6
0 -6 6 2 15 14 17 26 13 15 -4z"/>
<path d="M3187 2515 c3 -8 9 -12 14 -9 12 7 11 11 -5 17 -10 4 -13 1 -9 -8z"/>
<path d="M3017 2506 c-4 -10 2 -16 21 -18 15 -2 26 -9 25 -15 -2 -7 2 -13 7
-13 14 0 9 31 -7 48 -16 16 -40 15 -46 -2z"/>
<path d="M530 2471 c0 -16 -5 -31 -10 -33 -7 -2 -7 -14 -1 -35 6 -20 6 -35 0
-38 -5 -4 -9 -13 -9 -21 0 -11 11 -14 42 -12 40 3 43 1 48 -27 6 -29 7 -30 62
-28 42 2 57 -1 61 -12 4 -8 2 -17 -3 -20 -22 -14 -7 -25 33 -25 70 1 92 29 89
109 -2 39 -11 38 -14 -2 -2 -23 -7 -27 -36 -27 -54 0 -77 30 -79 103 l-1 62
-33 -2 c-18 -1 -38 -9 -45 -17 -6 -9 -17 -16 -25 -16 -11 0 -11 -2 1 -10 11
-7 5 -9 -20 -6 -19 3 -38 5 -42 5 -5 1 -8 6 -8 12 0 6 8 8 19 4 15 -4 18 0 16
22 -3 42 -3 43 -25 43 -15 0 -20 -7 -20 -29z"/>
<path d="M2070 2479 c-6 -11 -15 -17 -20 -14 -5 3 -12 0 -16 -6 -4 -7 -3 -9 4
-5 5 3 12 1 14 -6 6 -18 28 0 28 24 0 14 5 18 15 15 8 -4 16 -3 19 1 3 4 -4 9
-15 9 -10 1 -24 -7 -29 -18z"/>
<path d="M2670 2490 c0 -5 7 -10 16 -10 8 0 12 5 9 10 -3 6 -10 10 -16 10 -5
0 -9 -4 -9 -10z"/>
<path d="M390 2480 c0 -5 7 -10 15 -10 8 0 15 5 15 10 0 6 -7 10 -15 10 -8 0
-15 -4 -15 -10z"/>
<path d="M865 2480 c-4 -6 -11 -8 -16 -5 -5 4 -9 2 -9 -3 0 -11 30 -20 48 -15
17 6 15 33 -2 33 -8 0 -18 -5 -21 -10z"/>
<path d="M1863 2444 c-1 -24 2 -44 7 -44 10 0 24 31 21 49 -1 8 2 10 10 5 8
-4 10 -3 5 4 -4 7 -15 16 -24 21 -15 8 -17 3 -19 -35z"/>
<path d="M2866 2474 c-17 -17 -21 -29 -7 -20 4 3 17 -1 27 -9 15 -11 16 -15 4
-16 -8 -1 3 -5 25 -8 47 -8 65 -4 65 14 0 8 -9 10 -25 7 -15 -2 -25 0 -25 7 0
6 6 11 14 11 8 0 16 7 20 15 8 21 -77 21 -98 -1z"/>
<path d="M2532 2448 c0 -13 -2 -32 -4 -43 -2 -15 3 -20 22 -22 36 -2 60 6 60
23 0 8 -4 14 -10 14 -5 0 -9 3 -9 8 3 20 -2 31 -15 26 -8 -3 -17 -1 -21 5 -11
18 -23 12 -23 -11z"/>
<path d="M424 2435 c-2 -29 7 -31 41 -9 34 22 31 34 -7 34 -28 0 -33 -4 -34
-25z"/>
<path d="M1160 2445 c0 -8 7 -15 16 -15 14 0 14 3 4 15 -7 8 -14 15 -16 15 -2
0 -4 -7 -4 -15z"/>
<path d="M3011 2443 c-1 -16 5 -23 17 -23 10 0 13 3 6 8 -6 4 -14 14 -17 22
-4 10 -6 8 -6 -7z"/>
<path d="M165 2440 c-4 -6 -11 -8 -16 -5 -5 4 -9 1 -9 -4 0 -6 7 -11 15 -11 8
0 15 4 15 10 0 5 7 7 15 4 8 -4 15 -1 15 5 0 14 -27 15 -35 1z"/>
<path d="M3281 2399 c-2 -38 0 -41 14 -29 17 14 17 61 -1 67 -6 2 -11 -15 -13
-38z"/>
<path d="M1110 2419 c0 -5 5 -7 10 -4 6 3 10 8 10 11 0 2 -4 4 -10 4 -5 0 -10
-5 -10 -11z"/>
<path d="M2743 2405 c0 -13 14 -41 33 -62 19 -21 34 -34 34 -29 0 5 8 -1 19
-12 26 -31 48 -28 53 8 4 25 2 28 -11 17 -12 -10 -14 -9 -8 8 7 19 6 19 -7 3
-17 -23 -30 -23 -22 -1 6 15 4 15 -14 -2 -20 -18 -20 -18 -16 13 2 24 0 29
-13 24 -14 -5 -14 -4 -2 12 8 9 21 14 30 11 12 -5 13 -3 5 5 -6 6 -21 12 -33
13 -11 1 -21 5 -21 9 0 4 -6 8 -14 8 -8 0 -13 -10 -13 -25z"/>
<path d="M3065 2420 c3 -5 13 -10 21 -10 8 0 14 5 14 10 0 6 -9 10 -21 10 -11
0 -17 -4 -14 -10z"/>
<path d="M90 2415 c0 -7 30 -13 34 -7 3 4 -4 9 -15 9 -10 1 -19 0 -19 -2z"/>
<path d="M380 2404 c0 -17 -12 -18 -27 -3 -7 7 -28 8 -57 4 -38 -6 -44 -10
-35 -21 7 -8 9 -18 5 -22 -4 -4 -13 0 -19 9 -18 23 -80 22 -108 -2 l-23 -20
-9 23 c-12 32 -11 32 -56 6 -30 -17 -39 -28 -35 -40 3 -10 1 -18 -5 -18 -6 0
-11 -21 -11 -50 0 -27 3 -50 8 -50 4 0 16 20 27 45 11 25 25 45 31 45 7 0 14
7 18 15 7 20 126 22 126 3 0 -16 64 -58 87 -58 51 1 63 11 63 56 0 43 1 44 33
44 30 0 67 15 57 22 -3 2 -20 9 -37 15 -27 9 -33 9 -33 -3z"/>
<path d="M1890 2410 c0 -5 5 -10 11 -10 5 0 7 5 4 10 -3 6 -8 10 -11 10 -2 0
-4 -4 -4 -10z"/>
<path d="M1805 2400 c-3 -6 1 -7 9 -4 18 7 21 14 7 14 -6 0 -13 -4 -16 -10z"/>
<path d="M2956 2385 c25 -19 35 -19 28 0 -4 8 -16 15 -27 15 -20 0 -20 0 -1
-15z"/>
<path d="M922 2365 c1 -14 8 -25 15 -25 6 0 14 -8 18 -18 5 -18 44 -42 65 -42
6 0 10 13 10 29 0 30 -18 44 -87 72 -20 7 -22 5 -21 -16z"/>
<path d="M3076 2368 c11 -36 40 -73 71 -88 15 -8 33 -22 40 -30 11 -13 12 -13
13 3 0 10 4 16 9 12 5 -3 9 -19 9 -35 -1 -27 -8 -35 -30 -31 -5 0 -8 -4 -8
-10 0 -6 9 -9 20 -6 13 3 20 0 20 -9 0 -23 36 -16 50 10 10 20 10 31 1 55 -9
21 -10 35 -2 49 6 12 10 31 10 44 -1 16 -3 18 -6 6 -2 -9 -10 -15 -18 -12 -19
8 -55 -14 -55 -33 0 -11 -3 -13 -12 -5 -7 6 -17 10 -23 9 -5 -1 -11 18 -13 42
-3 40 -5 43 -28 38 -13 -2 -24 0 -24 4 0 5 -7 9 -16 9 -11 0 -14 -6 -8 -22z"/>
<path d="M2986 2324 c-12 -31 -6 -37 14 -14 24 27 24 30 6 30 -8 0 -17 -7 -20
-16z"/>
<path d="M2677 2324 c-3 -3 10 -22 29 -42 19 -19 34 -41 34 -47 0 -7 7 -15 15
-19 20 -7 20 -56 0 -56 -9 0 -12 -6 -9 -15 4 -8 14 -15 23 -15 10 0 32 -20 50
-45 18 -25 38 -45 45 -45 8 0 20 -7 27 -16 11 -13 25 -15 83 -9 39 4 79 11 90
17 19 10 19 11 1 24 -14 11 -15 14 -4 15 8 1 3 4 -10 8 -18 5 -24 14 -26 39
-2 29 -1 31 21 26 15 -4 24 -2 24 5 0 6 -5 11 -12 11 -29 0 10 20 44 22 20 2
34 7 31 11 -3 5 -11 6 -19 3 -10 -4 -14 0 -12 11 2 11 -4 18 -17 20 -20 3 -20
3 0 -6 18 -7 17 -9 -13 -25 -17 -9 -32 -21 -32 -26 0 -13 -47 -13 -55 1 -4 6
-4 13 0 17 4 4 10 1 12 -5 6 -18 23 -16 23 1 0 9 -9 13 -25 11 -14 -1 -29 3
-32 9 -4 6 -10 1 -14 -14 -12 -43 -10 -59 11 -80 17 -17 18 -23 8 -40 -15 -24
-34 -25 -56 -4 -94 86 -113 110 -107 132 4 16 2 21 -6 17 -8 -6 -8 -2 0 12 9
18 3 25 -46 62 -57 42 -65 46 -76 35z"/>
<path d="M2766 2295 c3 -7 14 -15 25 -18 15 -4 17 -2 10 11 -11 19 -42 26 -35
7z"/>
<path d="M1008 2252 c-16 -17 -16 -19 4 -31 15 -10 18 -15 9 -24 -9 -9 -14 -8
-21 3 -8 13 -10 13 -10 1 0 -12 -2 -12 -12 0 -7 9 -30 25 -50 37 -31 17 -37
18 -42 5 -9 -24 -7 -73 4 -73 10 0 2 -31 -11 -40 -4 -3 -11 -18 -14 -33 -7
-27 -6 -27 40 -27 36 0 51 5 66 23 10 12 18 29 19 38 0 9 8 20 18 24 13 5 14
4 5 -6 -8 -8 -9 -18 -2 -31 12 -22 45 -24 53 -3 4 11 21 15 66 15 58 0 102 16
122 45 4 5 8 -2 8 -17 0 -17 5 -28 14 -28 8 0 16 -3 19 -7 2 -5 2 -1 -1 7 -3
8 -4 25 -3 38 0 12 -4 22 -9 22 -6 0 -10 7 -10 15 0 18 -16 20 -23 3 -4 -9 -8
-10 -14 -2 -16 22 -111 38 -130 22 -7 -6 -14 -7 -14 -2 -1 5 -2 16 -3 24 -2
22 -57 23 -78 2z m227 -72 c-3 -5 -13 -10 -21 -10 -8 0 -14 5 -14 10 0 6 9 10
21 10 11 0 17 -4 14 -10z m-290 -40 c3 -5 -1 -10 -9 -10 -9 0 -16 5 -16 10 0
6 4 10 9 10 6 0 13 -4 16 -10z"/>
<path d="M3067 2253 c-3 -5 5 -8 18 -8 13 0 21 3 18 8 -2 4 -10 7 -18 7 -8 0
-16 -3 -18 -7z"/>
<path d="M1803 2178 c2 -7 10 -13 17 -13 7 0 15 6 18 13 2 7 -5 12 -18 12 -13
0 -20 -5 -17 -12z"/>
<path d="M1306 2145 c4 -8 8 -15 10 -15 2 0 4 7 4 15 0 8 -4 15 -10 15 -5 0
-7 -7 -4 -15z"/>
<path d="M3126 2147 c3 -10 9 -15 12 -12 3 3 0 11 -7 18 -10 9 -11 8 -5 -6z"/>
<path d="M3150 2156 c0 -2 7 -6 15 -10 8 -3 15 -1 15 4 0 6 -7 10 -15 10 -8 0
-15 -2 -15 -4z"/>
<path d="M1344 2142 c-26 -17 -26 -72 0 -72 6 0 16 8 22 18 14 21 -4 66 -22
54z"/>
<path d="M1800 2123 c0 -10 4 -14 8 -8 4 6 11 13 16 18 5 4 2 7 -7 7 -10 0
-17 -8 -17 -17z"/>
<path d="M1461 2061 c11 -23 10 -23 -17 -17 -16 4 -30 12 -32 17 -2 5 -8 9
-14 9 -5 0 4 -16 21 -35 39 -45 39 -52 1 -25 -16 12 -30 25 -30 30 0 4 -9 10
-20 13 -31 8 -24 -12 21 -57 22 -23 69 -70 103 -106 35 -36 96 -96 137 -135
93 -88 109 -111 109 -157 0 -23 6 -40 16 -46 8 -5 16 -15 17 -23 6 -37 33 -53
33 -19 0 11 -6 20 -13 20 -18 0 -17 37 1 47 12 7 12 14 1 45 -9 27 -9 38 -1
41 6 2 8 8 4 12 -4 4 -14 2 -23 -5 -14 -11 -19 -7 -16 13 1 4 -6 10 -14 14
-16 6 -85 106 -85 122 0 17 -70 70 -85 65 -10 -4 -15 0 -15 14 0 11 -6 22 -12
25 -10 3 -10 9 -1 25 10 17 8 24 -20 49 -18 17 -42 43 -55 59 -18 24 -20 25
-11 5z m59 -131 c0 -5 -4 -10 -10 -10 -5 0 -10 5 -10 10 0 6 5 10 10 10 6 0
10 -4 10 -10z"/>
<path d="M2118 1883 c-9 -10 -24 -44 -34 -75 -11 -32 -25 -58 -32 -58 -7 0
-15 -14 -19 -31 -4 -23 -10 -29 -24 -26 -12 3 -16 0 -12 -10 3 -7 -1 -21 -10
-31 -14 -16 -21 -49 -17 -82 1 -9 6 -6 13 10 23 47 69 120 77 120 5 0 11 18
15 41 5 29 13 43 30 49 27 10 69 75 61 95 -7 20 -29 19 -48 -2z"/>
<path d="M1800 1846 c1 -6 7 -24 14 -41 12 -29 13 -29 20 -7 10 29 0 59 -19
59 -8 0 -15 -5 -15 -11z"/>
<path d="M1750 1775 c6 -8 9 -19 5 -25 -3 -5 1 -10 9 -10 9 0 16 3 16 6 0 13
-22 44 -32 44 -7 0 -6 -5 2 -15z"/>
<path d="M1827 1651 c-4 -17 -3 -21 5 -13 5 5 8 16 6 23 -3 8 -7 3 -11 -10z"/>
<path d="M1883 1603 c-15 -5 -17 -23 -4 -23 5 0 11 7 15 15 3 8 4 15 3 14 -1
0 -8 -3 -14 -6z"/>
<path d="M1870 1550 c-12 -7 -12 -12 -3 -21 15 -15 26 -7 21 15 -2 11 -7 13
-18 6z"/>
<path d="M1951 1514 c-1 -17 -8 -48 -17 -69 -8 -20 -11 -34 -6 -31 16 10 29
-38 26 -104 -1 -36 -3 -65 -4 -65 -10 0 5 -188 18 -211 7 -14 7 -24 -2 -36
-10 -14 -14 -10 -25 29 -11 34 -11 47 -2 52 9 6 8 14 -2 34 -8 16 -18 23 -26
18 -9 -6 -9 -10 2 -19 10 -9 13 -27 9 -62 -3 -37 1 -61 17 -95 12 -25 19 -50
16 -55 -4 -6 0 -10 7 -10 9 0 14 -23 15 -84 2 -47 9 -103 17 -127 13 -36 13
-44 0 -56 -18 -18 -18 -27 1 -43 8 -7 15 -21 15 -31 0 -11 4 -19 10 -19 18 0
-4 189 -24 202 -7 5 -5 8 5 8 15 0 16 11 12 88 -2 48 -6 103 -8 122 -2 19 -9
145 -16 280 -7 142 -17 260 -25 280 l-13 35 0 -31z"/>
<path d="M1858 1481 c-18 -21 -14 -33 7 -25 8 4 15 -3 17 -17 2 -12 8 -24 14
-26 14 -5 15 70 1 79 -17 11 -21 10 -39 -11z"/>
<path d="M1770 1430 c0 -5 7 -10 15 -10 8 0 15 5 15 10 0 6 -7 10 -15 10 -8 0
-15 -4 -15 -10z"/>
<path d="M1855 1431 c-3 -5 -1 -12 5 -16 5 -3 10 1 10 9 0 18 -6 21 -15 7z"/>
<path d="M1770 1390 c0 -5 7 -10 15 -10 8 0 15 5 15 10 0 6 -7 10 -15 10 -8 0
-15 -4 -15 -10z"/>
<path d="M1882 1342 c-11 -25 -11 -25 4 -10 9 9 15 21 13 27 -2 6 -10 -2 -17
-17z"/>
<path d="M1840 1345 c-7 -9 -10 -18 -7 -22 8 -7 37 15 37 28 0 14 -16 11 -30
-6z"/>
<path d="M1905 1320 c-16 -7 -17 -9 -3 -9 9 -1 20 4 23 9 7 11 7 11 -20 0z"/>
<path d="M1767 1302 c-27 -17 -37 -52 -14 -52 17 1 42 22 50 42 9 25 -5 29
-36 10z"/>
<path d="M1855 1260 c-3 -5 -1 -10 4 -10 6 0 11 5 11 10 0 6 -2 10 -4 10 -3 0
-8 -4 -11 -10z"/>
<path d="M1850 1180 c0 -5 5 -10 10 -10 6 0 10 5 10 10 0 6 -4 10 -10 10 -5 0
-10 -4 -10 -10z"/>
<path d="M1730 1138 c0 -44 13 -68 36 -68 21 0 24 43 6 74 -27 46 -42 44 -42
-6z"/>
<path d="M1770 1170 c0 -5 5 -10 10 -10 6 0 10 5 10 10 0 6 -4 10 -10 10 -5 0
-10 -4 -10 -10z"/>
<path d="M1804 1095 c-1 -44 7 -57 22 -33 15 24 5 78 -14 78 -4 0 -8 -20 -8
-45z"/>
<path d="M1817 1033 c-2 -5 -7 -20 -11 -35 -5 -22 -3 -26 9 -22 9 4 15 18 15
35 0 29 -5 36 -13 22z"/>
<path d="M1808 883 c6 -2 18 -2 25 0 6 3 1 5 -13 5 -14 0 -19 -2 -12 -5z"/>
<path d="M1802 846 c1 -13 6 -22 10 -20 11 7 10 32 -2 39 -6 3 -9 -4 -8 -19z"/>
<path d="M1716 804 c-3 -9 -6 -27 -6 -40 0 -22 2 -23 20 -12 12 8 15 15 8 19
-6 4 -8 14 -5 23 3 8 2 18 -2 21 -5 3 -12 -2 -15 -11z"/>
<path d="M1717 653 c3 -38 6 -69 7 -70 1 0 10 -3 21 -5 15 -2 21 3 23 21 4 25
-35 121 -49 121 -5 0 -6 -30 -2 -67z"/>
<path d="M1772 510 c0 -14 2 -19 5 -12 2 6 2 18 0 25 -3 6 -5 1 -5 -13z"/>
<path d="M2005 510 c-3 -5 1 -10 9 -10 9 0 16 5 16 10 0 6 -4 10 -9 10 -6 0
-13 -4 -16 -10z"/>
<path d="M2009 485 c-1 -3 -1 -16 -1 -30 0 -40 1 -45 12 -45 6 0 10 18 10 40
0 22 -4 40 -10 40 -5 0 -10 -2 -11 -5z"/>
<path d="M1761 396 c-12 -30 -4 -104 9 -89 20 22 27 70 15 94 l-13 24 -11 -29z"/>
<path d="M1710 334 c0 -27 -7 -67 -15 -89 -18 -51 -20 -115 -2 -115 34 1 38
15 32 130 -6 118 -15 161 -15 74z"/>
<path d="M1750 230 c0 -5 5 -10 10 -10 6 0 10 5 10 10 0 6 -4 10 -10 10 -5 0
-10 -4 -10 -10z"/>
<path d="M2040 130 c0 -5 4 -10 9 -10 6 0 13 5 16 10 3 6 -1 10 -9 10 -9 0
-16 -4 -16 -10z"/>
<path d="M2020 70 c-13 -8 -12 -10 3 -10 9 0 17 5 17 10 0 12 -1 12 -20 0z"/>
<path d="M1680 29 c0 -11 5 -17 10 -14 6 3 10 13 10 21 0 8 -4 14 -10 14 -5 0
-10 -9 -10 -21z"/>
<path d="M1880 31 c0 -20 5 -21 79 -21 61 0 80 3 85 15 4 12 -6 15 -63 15 -38
0 -76 3 -85 6 -12 4 -16 0 -16 -15z"/>
</g>
</svg>
