<?xml version="1.0" standalone="no"?>
<!DOCTYPE svg PUBLIC "-//W3C//DTD SVG 20010904//EN"
 "http://www.w3.org/TR/2001/REC-SVG-20010904/DTD/svg10.dtd">
<svg version="1.0" xmlns="http://www.w3.org/2000/svg"
 width="422pt" height="648pt" viewBox="0 0 422 648"
 preserveAspectRatio="xMidYMid meet">
<metadata>
Created by potrace 1.8, written by Peter Selinger 2001-2007
</metadata>
<g transform="translate(0,648) scale(0.110017,-0.110017)"
fill="#000000" stroke="none">
<path d="M716 5123 c-8 -9 14 -33 30 -33 7 0 11 6 8 14 -6 16 -29 28 -38 19z"/>
<path d="M591 4944 c0 -11 3 -14 6 -6 3 7 2 16 -1 19 -3 4 -6 -2 -5 -13z"/>
<path d="M260 3839 c0 -5 5 -7 10 -4 6 3 10 8 10 11 0 2 -4 4 -10 4 -5 0 -10
-5 -10 -11z"/>
<path d="M207 3813 c-12 -11 -8 -23 7 -23 7 0 19 7 26 15 10 12 9 15 -7 15
-11 0 -23 -3 -26 -7z"/>
<path d="M3430 3790 c0 -5 5 -10 10 -10 6 0 10 5 10 10 0 6 -4 10 -10 10 -5 0
-10 -4 -10 -10z"/>
<path d="M3478 3783 c7 -3 16 -2 19 1 4 3 -2 6 -13 5 -11 0 -14 -3 -6 -6z"/>
<path d="M158 3748 c9 -9 15 -9 24 0 9 9 7 12 -12 12 -19 0 -21 -3 -12 -12z"/>
<path d="M278 3223 c7 -3 16 -2 19 1 4 3 -2 6 -13 5 -11 0 -14 -3 -6 -6z"/>
<path d="M437 3016 c-16 -13 -15 -14 13 -18 34 -5 41 -2 33 18 -6 17 -23 17
-46 0z"/>
<path d="M290 2890 c13 -24 57 -37 73 -21 8 8 6 11 -8 11 -11 0 -32 7 -48 14
-26 14 -27 14 -17 -4z"/>
<path d="M2523 2468 c8 -24 12 -28 15 -15 5 23 -4 47 -17 47 -6 0 -5 -13 2
-32z"/>
<path d="M1465 2440 c-28 -7 -27 -8 13 -9 27 -1 41 3 37 9 -7 11 -7 11 -50 0z"/>
<path d="M1682 2427 c0 -12 2 -17 6 -12 4 6 11 13 15 16 4 4 2 9 -6 12 -8 3
-14 -3 -15 -16z"/>
<path d="M2526 2415 c-9 -23 -8 -25 9 -25 17 0 19 9 6 28 -7 11 -10 10 -15 -3z"/>
<path d="M2348 2403 c7 -3 16 -2 19 1 4 3 -2 6 -13 5 -11 0 -14 -3 -6 -6z"/>
<path d="M2015 2380 c-4 -6 10 -10 34 -10 23 0 41 5 41 10 0 6 -15 10 -34 10
-19 0 -38 -4 -41 -10z"/>
<path d="M2376 2374 c-3 -9 -6 -28 -6 -43 0 -15 -4 -31 -9 -36 -5 -6 -12 -26
-15 -45 -6 -30 -2 -26 23 25 29 58 40 115 22 115 -5 0 -12 -7 -15 -16z"/>
<path d="M600 2295 c0 -8 4 -15 10 -15 5 0 7 7 4 15 -4 8 -8 15 -10 15 -2 0
-4 -7 -4 -15z"/>
<path d="M715 2230 c-3 -5 -1 -10 4 -10 6 0 11 5 11 10 0 6 -2 10 -4 10 -3 0
-8 -4 -11 -10z"/>
<path d="M868 2116 c-7 -39 -4 -55 8 -44 3 3 4 23 2 44 l-3 39 -7 -39z"/>
<path d="M1193 2133 c9 -2 23 -2 30 0 6 3 -1 5 -18 5 -16 0 -22 -2 -12 -5z"/>
<path d="M1268 2130 c12 -5 22 -14 22 -20 0 -5 5 -10 12 -10 6 0 3 9 -7 20
-10 11 -25 20 -34 19 -10 0 -8 -3 7 -9z"/>
<path d="M1020 2115 c0 -9 9 -15 21 -15 18 0 19 2 9 15 -7 8 -16 15 -21 15 -5
0 -9 -7 -9 -15z"/>
<path d="M1110 2110 c0 -5 7 -10 15 -10 8 0 15 5 15 10 0 6 -7 10 -15 10 -8 0
-15 -4 -15 -10z"/>
</g>
</svg>
