<?xml version="1.0" standalone="no"?>
<!DOCTYPE svg PUBLIC "-//W3C//DTD SVG 20010904//EN"
 "http://www.w3.org/TR/2001/REC-SVG-20010904/DTD/svg10.dtd">
<svg version="1.0" xmlns="http://www.w3.org/2000/svg"
 width="383pt" height="589pt" viewBox="0 0 383 589"
 preserveAspectRatio="xMidYMid meet">
<metadata>
Created by Potrace Professional 1.0c
</metadata>
<g transform="translate(0,589) scale(0.100000,-0.100000)"
fill="#000000" stroke="none">
<path d="M2124 5756 c-25 -25 -54 -46 -65 -46 -10 0 -20 -4 -24 -9 -6 -11 34
-36 51 -33 6 1 19 -7 29 -18 20 -22 45 -27 45 -7 0 22 44 66 73 73 24 6 28 4
26 -12 -4 -26 10 -66 21 -59 5 3 11 1 15 -5 10 -16 55 -12 55 5 0 8 7 15 15
15 8 0 15 3 15 8 -1 17 -19 32 -80 62 -36 17 -79 40 -97 51 l-32 21 -47 -46z"/>
<path d="M1520 5783 c-19 -7 -40 -33 -40 -49 0 -6 11 -15 25 -18 38 -10 30
-26 -12 -26 -54 0 -134 31 -163 63 -19 20 -34 27 -63 27 -37 0 -38 -1 -37 -32
3 -50 1 -58 -13 -58 -24 0 -47 -36 -47 -73 0 -42 -28 -77 -61 -77 -39 0 -59
-19 -59 -55 0 -40 -11 -44 -40 -15 -11 11 -33 20 -49 20 -23 0 -30 -6 -35 -26
-4 -14 -4 -34 -1 -45 5 -16 1 -19 -22 -19 -16 0 -38 -6 -48 -14 -19 -13 -18
-15 13 -42 41 -36 43 -71 5 -80 -16 -3 -38 -10 -51 -15 -13 -5 -34 -9 -47 -9
-23 0 -25 -4 -25 -41 0 -30 -6 -46 -22 -60 l-23 -19 33 -30 c18 -17 43 -30 58
-30 21 0 23 -3 15 -18 -16 -30 -59 -48 -81 -34 -73 45 -188 -43 -120 -91 17
-12 20 -21 14 -55 -5 -33 -16 -49 -50 -77 -40 -33 -44 -40 -44 -81 l0 -44 -40
0 c-35 0 -40 -3 -40 -23 0 -22 28 -47 64 -57 11 -3 21 -11 24 -18 3 -9 -16
-12 -67 -12 -75 0 -91 -11 -91 -59 0 -10 -12 -28 -27 -39 l-26 -19 41 -41 c41
-41 53 -74 32 -87 -5 -3 -10 -18 -10 -32 0 -16 -7 -27 -20 -30 -11 -3 -20 -9
-20 -14 0 -5 -11 -14 -24 -19 -34 -12 -52 -70 -34 -107 11 -24 20 -28 62 -31
27 -2 55 -10 63 -18 8 -8 34 -14 59 -14 32 0 49 -6 61 -20 10 -11 27 -20 39
-20 19 0 54 -28 54 -44 0 -3 -10 -11 -22 -16 -13 -6 -30 -14 -38 -19 -66 -38
-80 -41 -167 -39 -86 2 -91 1 -129 -28 -21 -17 -47 -33 -56 -37 -9 -3 -18 -16
-20 -29 -2 -15 -11 -24 -25 -26 -13 -2 -23 -10 -23 -18 0 -8 -9 -14 -20 -14
-33 0 -68 -45 -75 -97 -3 -27 -7 -55 -8 -63 -1 -8 -12 -16 -25 -18 -16 -2 -22
-10 -22 -27 0 -13 5 -27 10 -30 8 -5 8 -11 0 -20 -7 -8 -10 -55 -8 -125 l3
-112 27 21 c33 26 44 26 51 1 3 -11 14 -20 25 -20 11 0 25 -7 32 -15 21 -25
57 -18 72 13 17 34 52 37 56 5 3 -21 9 -23 60 -23 31 -1 75 -8 97 -17 68 -26
108 -28 129 -4 14 16 31 21 68 21 28 0 59 7 73 16 31 20 45 11 45 -30 0 -57
-37 -111 -112 -163 -25 -18 -51 -33 -56 -33 -5 0 -15 -7 -22 -15 -13 -15 -50
-21 -50 -7 0 4 -7 16 -15 26 -14 19 -15 19 -52 0 -50 -25 -53 -31 -50 -84 2
-40 -1 -45 -20 -48 -13 -2 -33 4 -45 12 -45 32 -138 13 -138 -28 0 -10 -8 -16
-23 -16 -27 0 -67 -26 -67 -43 0 -7 10 -17 22 -22 41 -18 32 -40 -31 -78 -32
-20 -64 -37 -70 -37 -8 0 -11 -68 -11 -225 0 -124 4 -225 8 -225 4 0 25 27 46
60 37 58 40 60 82 60 28 0 50 -6 61 -17 36 -35 90 -56 127 -49 31 6 36 11 36
36 0 50 9 60 53 60 23 0 48 7 58 16 28 25 50 11 43 -26 l-7 -31 44 3 c41 3 44
1 49 -27 5 -29 7 -30 63 -29 l58 1 -6 -28 c-6 -29 -6 -29 38 -29 28 0 49 6 57
16 8 8 25 14 39 12 24 -3 26 -7 26 -48 0 -25 -4 -64 -8 -87 l-7 -43 44 0 c37
0 48 5 71 32 24 28 28 30 36 15 8 -13 22 -16 77 -13 37 2 80 9 95 15 49 19 77
13 121 -26 22 -20 43 -42 46 -48 3 -7 22 -30 44 -51 21 -21 66 -68 100 -104
34 -36 97 -98 139 -138 42 -40 84 -83 92 -95 11 -17 15 -58 15 -167 1 -131 -1
-219 -16 -575 -2 -60 -6 -226 -9 -367 -3 -197 -7 -268 -19 -303 -21 -60 -21
-154 -1 -161 8 -4 15 -12 15 -19 0 -7 -7 -15 -15 -19 -8 -3 -15 -12 -15 -21 0
-13 22 -15 177 -13 124 2 178 6 180 15 2 6 -6 13 -19 16 -20 4 -19 4 6 6 20 1
27 5 23 16 -4 8 -2 17 2 20 17 10 19 55 2 65 -9 5 -11 10 -4 10 8 0 10 11 7
33 -19 111 -23 162 -14 171 5 5 5 16 1 25 -8 15 -18 163 -26 376 -3 88 -9 191
-20 350 -3 44 -10 160 -15 258 l-10 178 27 47 c15 26 30 49 33 52 3 3 21 30
40 60 65 106 125 195 151 225 26 30 99 163 99 181 0 14 49 64 73 75 12 5 29
13 37 18 8 5 32 17 53 27 20 10 37 22 37 25 0 9 91 54 105 52 60 -8 85 -16 85
-25 0 -6 7 -19 15 -27 11 -14 18 -48 24 -123 1 -5 9 -8 19 -8 11 0 33 -20 51
-45 18 -25 37 -45 43 -45 6 0 19 -7 29 -16 28 -25 160 -10 194 22 14 13 33 24
42 24 15 0 56 31 124 93 29 25 30 31 24 75 -5 37 -1 60 15 102 15 37 20 68 17
94 -5 32 -2 39 14 43 10 3 19 11 19 19 0 20 66 88 79 80 6 -4 11 -1 11 8 0 9
5 16 10 16 6 0 10 -4 10 -10 0 -5 15 -9 33 -9 23 1 26 3 10 6 -31 6 -29 31 2
39 14 3 25 9 25 13 0 4 12 14 28 22 32 16 49 35 62 67 13 30 2 75 -16 68 -7
-3 -16 3 -19 13 -3 11 -19 24 -35 31 -46 19 -55 36 -36 65 20 31 20 45 1 45
-13 0 -15 7 -9 38 4 20 12 41 18 45 7 6 6 7 -4 5 -8 -3 -17 -15 -20 -29 -3
-13 -11 -24 -18 -23 -7 1 -19 2 -27 3 -21 2 -19 24 5 63 26 44 27 98 1 98 -10
0 -26 10 -34 23 -14 20 -16 20 -16 3 -1 -15 -3 -16 -16 -6 -9 7 -12 16 -8 20
15 13 70 19 80 9 7 -7 12 -5 16 5 3 8 2 18 -3 21 -5 3 -7 20 -3 36 4 21 1 34
-8 40 -11 7 -9 10 9 15 12 4 22 10 22 15 0 5 7 6 15 2 9 -3 15 -2 14 3 -4 25
3 32 30 29 25 -3 30 0 34 24 4 20 14 31 32 35 20 5 25 13 25 36 0 17 -4 30
-10 30 -5 0 -10 5 -10 11 0 6 -13 30 -30 54 -16 24 -30 53 -30 64 0 26 -16 27
-29 2 -10 -19 -40 -35 -48 -27 -11 11 -20 76 -11 76 5 0 3 7 -6 15 -8 8 -19
15 -25 15 -6 0 -11 6 -11 13 0 17 57 20 63 4 2 -7 2 0 0 15 -4 22 -1 27 11 22
9 -3 16 -2 16 2 -1 21 -18 33 -55 39 -22 3 -57 11 -77 17 -45 13 -53 8 -101
-65 -26 -40 -35 -66 -40 -112 -3 -33 -2 -53 1 -45 14 32 41 62 50 56 14 -8 12
-58 -4 -81 -9 -12 -14 -14 -14 -6 0 10 -3 11 -14 2 -20 -17 -106 -11 -106 7 0
12 -3 12 -15 2 -16 -13 -65 -6 -65 10 0 6 -11 10 -24 10 -13 0 -26 6 -29 14
-7 18 3 28 17 17 6 -5 27 -6 46 -2 26 5 36 13 38 29 2 12 8 22 13 22 16 0 10
30 -13 60 -12 17 -30 30 -40 30 -10 0 -20 10 -24 24 -7 29 1 46 22 46 8 0 14
5 14 10 0 6 7 10 15 10 18 0 19 14 4 41 -10 20 -11 20 -30 3 -15 -14 -19 -14
-19 -3 0 24 30 59 45 53 8 -4 18 1 21 10 8 21 24 21 24 -1 0 -15 2 -15 14 2
13 18 14 18 23 -1 11 -21 6 -47 -7 -39 -4 3 -14 -10 -21 -28 -7 -17 -19 -38
-26 -45 -7 -7 -13 -20 -13 -28 0 -8 -4 -14 -9 -14 -5 0 -7 -9 -4 -20 5 -19 6
-19 22 3 9 12 25 39 35 60 28 55 39 61 70 36 24 -19 30 -20 57 -9 20 9 32 22
36 41 4 21 13 30 34 34 16 4 32 11 35 17 10 16 -37 57 -77 68 -21 6 -41 14
-43 19 -8 12 42 44 54 36 16 -10 62 -16 77 -11 11 4 9 9 -5 23 -10 10 -27 23
-38 29 -23 13 -45 105 -26 112 15 5 16 32 0 32 -6 0 -19 6 -27 14 -9 8 -38 17
-66 21 l-50 8 28 -27 c26 -24 26 -26 8 -26 -12 0 -21 -3 -21 -8 0 -4 -15 -12
-34 -18 -44 -13 -69 -1 -61 29 l6 22 -20 -22 c-20 -24 -41 -30 -41 -13 0 6 -7
10 -15 10 -8 0 -31 24 -50 54 -26 41 -41 55 -62 58 -17 2 -32 12 -40 28 -9 18
-13 20 -13 8 0 -15 -9 -18 -48 -18 -42 0 -48 3 -59 28 -7 15 -10 38 -6 51 4
17 3 22 -5 17 -18 -11 -26 22 -12 40 7 8 19 13 25 10 7 -2 18 0 26 5 10 6 8 9
-10 9 -22 0 -22 13 0 16 5 1 13 2 18 3 13 2 23 65 15 95 -3 15 -13 26 -22 26
-9 0 3 11 28 24 25 13 48 22 51 20 7 -4 39 57 39 75 0 6 18 11 40 11 51 0 105
22 119 48 32 61 -6 174 -61 180 -16 2 -28 11 -31 23 -3 11 -14 19 -27 19 -19
0 -21 -4 -15 -29 5 -23 1 -34 -19 -55 -31 -30 -33 -46 -7 -46 28 0 31 -9 18
-65 -16 -67 -24 -79 -43 -61 -8 8 -14 19 -14 24 0 5 -7 15 -15 22 -8 7 -15 22
-15 33 0 16 -3 18 -11 10 -9 -9 -15 -8 -24 0 -9 9 -9 14 2 25 12 12 11 17 -7
32 -27 23 -25 37 6 44 15 4 23 10 20 13 -12 12 -118 42 -131 37 -7 -3 -16 -1
-19 5 -4 6 -15 7 -27 2 -12 -4 -35 -5 -51 -3 -29 4 -30 6 -24 45 4 23 4 38 0
35 -3 -4 -15 2 -26 12 -21 19 -18 57 6 72 7 5 7 8 -2 8 -8 0 -16 -9 -19 -20
-7 -27 -39 -25 -47 3 -8 32 -8 33 20 66 21 25 25 37 18 59 -11 41 -11 41 -13
52 0 6 -12 10 -25 10 -16 0 -32 10 -44 28 -20 27 -53 35 -80 19 -13 -9 -62 2
-62 13 0 4 7 13 16 20 30 26 36 50 20 75 -13 20 -23 23 -66 21 -42 -1 -56 -7
-89 -39 -22 -21 -60 -44 -85 -51 l-44 -14 -7 37 c-10 61 -16 71 -35 71 -10 0
-25 9 -33 20 -13 19 -14 19 -32 -14 -20 -37 -46 -49 -83 -39 -14 3 -22 13 -22
26 0 23 -60 82 -92 93 -21 6 -58 -20 -58 -43 0 -7 -7 -13 -15 -13 -8 0 -15 9
-15 20 0 36 -49 120 -76 130 -27 11 -60 12 -84 3z m1169 -1040 c1 19 5 20 50
11 17 -4 31 -12 31 -18 0 -18 -33 -34 -55 -25 -28 11 -45 11 -45 -1 0 -5 7
-10 16 -10 14 0 14 -2 0 -15 -8 -8 -19 -15 -25 -15 -6 0 -11 -4 -11 -10 0 -19
-27 -10 -37 13 -13 27 4 57 31 57 9 0 20 8 23 17 6 15 7 15 14 -3 7 -17 8 -17
8 -1z m-358 -241 c1 -16 8 -38 14 -55 7 -17 6 -18 -14 -6 -11 8 -21 19 -21 26
0 7 -10 13 -22 14 -13 0 -17 3 -10 6 14 5 17 33 2 33 -5 0 -14 -8 -19 -17 -9
-16 -10 -16 -11 4 0 12 5 23 12 25 13 5 68 -19 69 -30z m99 -150 c0 -15 -2
-15 -10 -2 -13 20 -13 33 0 25 6 -3 10 -14 10 -23z m40 -22 c-10 -7 -12 -12
-4 -17 6 -5 13 -15 16 -23 3 -10 9 -6 19 15 16 34 46 45 56 19 7 -19 -24 -84
-41 -84 -17 0 -45 -36 -52 -66 -5 -19 -4 -25 5 -20 6 4 14 1 17 -8 3 -8 19
-18 35 -21 36 -8 43 -19 29 -47 -10 -21 -10 -21 3 -5 18 21 27 22 27 1 0 -16
11 -16 53 1 12 5 17 2 17 -8 0 -9 -4 -18 -9 -21 -5 -3 -7 -15 -4 -26 3 -11 0
-20 -6 -20 -6 0 -11 -9 -11 -21 0 -15 -5 -20 -22 -17 -19 2 -23 9 -23 41 l0
38 -40 -2 c-22 -2 -47 -11 -55 -20 -14 -15 -15 -11 -15 43 0 32 1 54 3 49 4
-12 22 -15 22 -3 0 4 -14 15 -31 25 -26 15 -30 21 -25 45 4 17 3 22 -2 13 -17
-24 -22 6 -7 35 8 16 15 38 15 49 0 16 -3 14 -15 -9 -8 -15 -15 -35 -15 -42 0
-8 -4 -14 -10 -14 -5 0 -10 5 -10 11 0 6 -10 9 -23 7 -13 -3 -29 2 -37 11 -13
13 -12 14 3 8 15 -6 16 -2 11 35 -6 32 -4 40 7 36 8 -3 14 -12 14 -21 0 -28
10 -27 43 2 31 29 48 39 67 40 6 0 3 -4 -5 -9z m-150 -111 c0 -5 -10 -9 -21
-9 -18 0 -19 2 -9 15 12 15 30 12 30 -6z m-55 -26 c-3 -10 -9 -30 -12 -45 -3
-17 -12 -28 -22 -28 -10 0 -26 -8 -37 -18 -23 -20 -68 -18 -60 4 3 9 -1 14
-14 14 -26 0 -22 37 5 46 47 16 53 13 44 -20 -12 -40 -11 -40 5 -24 7 8 17 24
20 36 5 15 16 22 34 23 15 0 21 3 15 6 -21 8 -15 23 8 23 16 0 20 -4 14 -17z
m488 -48 l18 -25 -33 -1 c-25 -1 -27 -3 -10 -6 13 -3 21 -10 19 -16 -4 -14
-67 -28 -67 -16 0 5 -7 9 -15 9 -8 0 -15 5 -15 11 0 6 7 8 16 5 12 -4 14 -1 9
14 -5 16 -2 20 14 20 12 0 20 3 20 8 -5 31 20 29 44 -3z m-794 -129 c9 -11 9
-15 -1 -19 -7 -3 1 -3 19 0 27 5 33 1 47 -26 16 -30 16 -31 -3 -31 -11 0 -26
-3 -34 -6 -18 -6 -50 24 -40 39 4 6 0 8 -10 4 -13 -5 -17 -1 -17 17 0 37 18
47 39 22z m528 -61 c3 -17 -1 -25 -12 -25 -14 0 -15 10 -6 59 2 12 16 -13 18
-34z m-414 -27 c18 -19 41 -71 38 -87 -1 -7 3 -11 10 -9 24 8 48 -23 42 -53
-5 -25 -3 -27 17 -22 17 5 21 2 18 -13 -2 -13 3 -19 15 -18 18 2 20 -25 3 -37
-4 -4 -5 -21 -1 -38 l7 -32 39 41 c22 22 44 38 48 35 5 -3 7 3 4 13 -6 25 29
62 61 62 l27 0 -17 -30 c-16 -26 -16 -31 -2 -47 23 -27 30 -53 14 -53 -8 0
-16 4 -18 8 -1 5 -18 12 -35 15 -25 5 -33 3 -33 -7 0 -8 -4 -16 -10 -18 -5 -1
-13 -18 -16 -37 -5 -25 -4 -32 5 -27 6 4 18 1 25 -7 12 -12 12 -16 -6 -31 -18
-16 -22 -16 -58 1 -21 10 -46 30 -55 46 -9 15 -21 27 -26 27 -7 0 -8 12 -3 32
6 28 5 31 -8 20 -8 -6 -18 -8 -22 -4 -4 4 -21 7 -37 7 -22 0 -32 -7 -44 -30
l-15 -30 0 30 c0 17 9 48 20 69 10 22 17 43 14 47 -3 5 0 9 5 9 6 0 11 5 11
11 0 5 -5 7 -11 3 -8 -4 -9 3 -4 24 4 20 2 34 -8 43 -12 11 -12 16 0 27 15 16
17 42 3 42 -5 0 -10 -7 -10 -15 0 -22 -37 -18 -43 5 -8 31 34 51 56 28z m943
-18 c15 0 24 -6 24 -16 0 -13 -3 -14 -14 -5 -10 9 -15 8 -19 -2 -6 -15 -55
-29 -61 -18 -2 3 0 17 5 30 6 15 14 21 25 17 9 -3 27 -6 40 -6z m-76 -4 c0 -3
-4 -8 -10 -11 -5 -3 -10 -1 -10 4 0 6 5 11 10 11 6 0 10 -2 10 -4z m445 -128
c17 -8 25 -18 23 -31 -2 -16 -12 -20 -48 -21 l-45 -1 14 33 c17 36 19 37 56
20z m-395 -122 c0 -8 3 -16 8 -19 4 -2 1 -2 -6 0 -8 1 -27 3 -43 3 -19 0 -29
5 -29 15 0 10 11 15 35 15 24 0 35 -5 35 -14z m-900 -91 c-19 -22 -50 -19 -50
5 0 11 7 23 15 26 8 4 15 16 15 28 0 17 3 15 16 -11 13 -27 14 -36 4 -48z
m1418 -51 c12 -8 22 -23 22 -32 -1 -21 -29 -56 -53 -65 -17 -6 -44 -62 -39
-79 1 -5 -2 -8 -8 -8 -5 0 -10 7 -10 15 0 8 -4 15 -10 15 -5 0 -10 -4 -10 -9
0 -5 -11 -4 -24 2 -27 13 -25 27 5 27 10 0 19 5 19 10 0 6 9 10 20 10 27 0 25
14 -4 38 -25 19 -22 46 5 40 8 -2 13 3 11 11 -3 14 25 40 43 41 6 0 21 -7 33
-16z m-490 -198 c5 -26 -16 -45 -28 -26 -7 11 -10 11 -10 2 0 -7 -11 -23 -25
-36 -26 -24 -33 -46 -15 -46 20 0 9 -18 -14 -24 -22 -5 -52 5 -106 36 -8 5
-23 11 -32 14 -25 9 -31 34 -8 34 11 0 20 -4 20 -8 0 -5 14 -9 31 -10 17 0 37
-6 44 -12 9 -8 20 -8 32 -1 25 13 73 71 73 89 0 20 34 10 38 -12z m-355 -13
c-7 -2 -13 -13 -13 -23 0 -10 -4 -22 -10 -25 -13 -8 -13 -25 0 -25 5 0 12 11
16 25 3 14 10 25 15 25 5 0 9 7 9 16 0 11 5 14 16 10 9 -3 22 -6 30 -6 8 0 14
-7 14 -15 0 -10 -10 -15 -30 -15 -19 0 -30 -5 -29 -12 4 -33 -2 -58 -15 -58
-8 0 -17 -15 -20 -35 -4 -19 -8 -35 -10 -35 -1 0 -22 9 -45 21 -24 11 -49 18
-57 15 -24 -9 -15 18 16 48 17 16 30 35 30 43 0 23 39 53 68 52 15 0 21 -3 15
-6z m-173 -120 c0 -10 -12 -26 -25 -36 -22 -15 -25 -16 -25 -2 0 8 4 15 9 15
5 0 11 9 14 20 6 25 27 27 27 3z m180 -39 c-18 -21 -24 -10 -8 15 7 12 14 17
16 11 2 -6 -2 -17 -8 -26z m693 -323 c-4 -3 -11 -10 -15 -16 -4 -5 -8 0 -8 12
0 16 4 21 15 16 9 -3 12 -8 8 -12z m-711 -61 c-3 -20 -2 -22 11 -12 12 10 15
6 20 -26 7 -42 -8 -112 -24 -112 -6 0 -8 15 -4 38 3 20 2 29 -2 20 -6 -13 -11
-14 -24 -5 -8 7 -18 20 -22 30 -4 10 -11 16 -16 13 -5 -3 -7 3 -4 14 5 19 6
20 20 3 13 -16 14 -15 9 14 -4 26 -2 31 9 26 11 -4 13 -1 9 12 -5 13 -3 16 7
13 8 -3 13 -15 11 -28z m386 11 c15 -9 6 -61 -9 -61 -6 0 -5 -8 1 -19 16 -31
12 -51 -10 -51 -11 0 -20 -7 -20 -15 0 -8 -5 -15 -11 -15 -6 0 -8 -11 -5 -27
7 -34 -1 -49 -37 -62 -30 -12 -33 -5 -12 23 8 11 15 29 15 41 0 11 8 31 17 45
16 22 16 23 0 17 -19 -7 -24 17 -7 28 6 3 10 13 10 22 0 24 31 83 44 83 6 0
17 -4 24 -9z m202 -116 c-7 -8 -17 -15 -23 -15 -5 0 -2 9 8 20 21 23 35 19 15
-5z m-154 -8 c11 4 13 -3 10 -36 -3 -40 -20 -71 -38 -71 -5 0 -4 9 2 20 6 10
8 39 5 62 -3 24 -3 38 1 31 3 -7 12 -9 20 -6z m-346 -52 c0 -8 -4 -15 -9 -15
-5 0 -11 7 -15 15 -3 9 0 15 9 15 8 0 15 -7 15 -15z m30 5 c0 -5 -2 -10 -4
-10 -3 0 -8 5 -11 10 -3 6 -1 10 4 10 6 0 11 -4 11 -10z m362 -2 c-9 -9 -15
-9 -24 0 -9 9 -7 12 12 12 19 0 21 -3 12 -12z m-304 -29 c7 -17 80 -10 91 9 6
9 11 12 11 7 0 -20 -32 -58 -40 -46 -5 9 -10 8 -20 -4 -11 -13 -9 -15 9 -15
12 0 19 -4 16 -10 -3 -5 -15 -10 -25 -10 -10 0 -28 -13 -39 -29 -26 -37 -61
-32 -61 8 0 14 -7 35 -15 45 -22 29 -19 54 8 59 27 5 61 -2 65 -14z m-1110
-47 c2 -18 -1 -32 -7 -32 -6 0 -11 7 -11 15 0 8 -4 15 -10 15 -5 0 -10 9 -10
21 0 36 34 19 38 -19z m-98 -43 c0 -7 11 -24 25 -38 81 -86 73 -49 77 -348 4
-314 4 -313 -84 -217 -29 31 -73 79 -98 105 -25 26 -65 73 -89 103 -40 51 -52
61 -73 57 -5 0 -8 5 -8 12 -1 6 -12 26 -25 42 -19 23 -25 26 -25 13 0 -10 -7
-18 -15 -18 -8 0 -15 7 -15 15 0 8 -16 32 -35 54 -19 21 -35 48 -35 59 0 23
27 42 57 42 11 0 30 10 43 23 41 37 69 47 138 47 67 0 102 16 102 47 0 8 12
13 30 13 17 0 30 -5 30 -11z m790 0 c0 -17 -20 -49 -31 -49 -6 0 -21 8 -34 19
-18 13 -21 21 -12 30 14 14 77 15 77 0z m112 -41 l3 -53 48 -9 c26 -5 47 -13
47 -17 0 -8 -58 -45 -112 -71 -20 -10 -40 -23 -43 -28 -3 -6 -20 -10 -37 -10
-30 0 -31 0 -24 42 4 23 11 47 15 53 5 5 11 28 15 50 12 73 26 95 57 95 27 0
28 -2 31 -52z m-199 -22 c48 -45 60 -81 38 -124 -30 -59 -81 -170 -81 -176 0
-4 -6 -14 -12 -21 -7 -8 -33 -44 -58 -80 -25 -36 -75 -103 -111 -149 -37 -47
-72 -100 -79 -120 -6 -20 -18 -36 -26 -36 -8 0 -14 -7 -14 -15 0 -22 -17 -18
-23 4 -3 11 -6 152 -6 314 l-2 295 39 31 c43 34 77 39 108 16 10 -8 38 -15 61
-15 36 0 46 5 67 33 15 19 26 43 26 55 0 11 6 23 13 25 6 3 12 6 13 6 0 1 21
-19 47 -43z m-919 -301 c3 -9 0 -15 -9 -15 -8 0 -15 7 -15 15 0 8 4 15 9 15 5
0 11 -7 15 -15z m546 -995 c0 -5 -2 -10 -4 -10 -3 0 -8 5 -11 10 -3 6 -1 10 4
10 6 0 11 -4 11 -10z m7 -582 c-3 -8 -6 -5 -6 6 -1 11 2 17 5 13 3 -3 4 -12 1
-19z m7 -125 c-10 -40 -14 -41 -14 -5 0 18 5 32 10 32 6 0 8 -11 4 -27z m52
-91 c-12 -11 -17 7 -9 34 l8 29 3 -28 c2 -16 1 -31 -2 -35z m-41 28 c3 -5 1
-10 -4 -10 -6 0 -11 5 -11 10 0 6 2 10 4 10 3 0 8 -4 11 -10z m-115 -9 c0 -6
-4 -13 -10 -16 -5 -3 -10 1 -10 9 0 9 5 16 10 16 6 0 10 -4 10 -9z m112 -31
c2 -6 13 -12 26 -13 17 -1 22 -7 22 -29 0 -15 -5 -28 -11 -28 -6 0 -9 6 -6 14
7 17 -11 36 -35 36 -10 0 -18 7 -18 15 0 17 17 20 22 5z m-19 -70 c6 -22 5
-23 -17 -14 -20 8 -21 34 -2 34 7 0 16 -9 19 -20z m75 -37 c-10 -2 -26 -2 -35
0 -10 3 -2 5 17 5 19 0 27 -2 18 -5z m-134 -29 c9 -36 -1 -43 -14 -10 -12 33
-12 36 -1 36 5 0 12 -12 15 -26z m66 16 c0 -5 -2 -10 -4 -10 -3 0 -8 5 -11 10
-3 6 -1 10 4 10 6 0 11 -4 11 -10z m57 -16 c-3 -3 -12 -4 -19 -1 -8 3 -5 6 6
6 11 1 17 -2 13 -5z m-59 -22 c2 -7 -3 -12 -12 -12 -9 0 -16 7 -16 16 0 17 22
14 28 -4z m-211 -34 c-3 -8 -6 -5 -6 6 -1 11 2 17 5 13 3 -3 4 -12 1 -19z m53
-68 c0 -5 -4 -10 -10 -10 -5 0 -10 5 -10 10 0 6 5 10 10 10 6 0 10 -4 10 -10z"/>
<path d="M2521 4284 c0 -11 3 -14 6 -6 3 7 2 16 -1 19 -3 4 -6 -2 -5 -13z"/>
<path d="M2505 4100 c-3 -5 1 -10 10 -10 9 0 13 5 10 10 -3 6 -8 10 -10 10 -2
0 -7 -4 -10 -10z"/>
<path d="M2581 3984 c0 -11 3 -14 6 -6 3 7 2 16 -1 19 -3 4 -6 -2 -5 -13z"/>
<path d="M2100 3728 c-7 -18 -15 -36 -18 -40 -2 -5 1 -8 6 -8 6 0 14 10 18 23
3 12 13 30 22 40 13 14 13 17 1 17 -8 0 -21 -15 -29 -32z"/>
<path d="M2170 3700 c0 -5 5 -10 10 -10 6 0 10 5 10 10 0 6 -4 10 -10 10 -5 0
-10 -4 -10 -10z"/>
<path d="M2200 3600 c0 -5 5 -10 10 -10 6 0 10 5 10 10 0 6 -4 10 -10 10 -5 0
-10 -4 -10 -10z"/>
<path d="M2238 3583 c7 -3 16 -2 19 1 4 3 -2 6 -13 5 -11 0 -14 -3 -6 -6z"/>
<path d="M3462 3480 c0 -14 2 -19 5 -12 2 6 2 18 0 25 -3 6 -5 1 -5 -13z"/>
<path d="M3500 3480 c0 -5 5 -10 10 -10 6 0 10 5 10 10 0 6 -4 10 -10 10 -5 0
-10 -4 -10 -10z"/>
<path d="M3001 3314 c0 -11 3 -14 6 -6 3 7 2 16 -1 19 -3 4 -6 -2 -5 -13z"/>
<path d="M2607 3213 c-13 -12 -7 -33 8 -33 8 0 15 9 15 20 0 20 -11 26 -23 13z"/>
<path d="M2640 2704 c0 -8 5 -12 11 -8 6 3 15 0 20 -7 7 -11 9 -11 9 2 0 9 -7
20 -16 23 -22 9 -24 8 -24 -10z"/>
<path d="M3001 2734 c0 -11 3 -14 6 -6 3 7 2 16 -1 19 -3 4 -6 -2 -5 -13z"/>
<path d="M2799 2566 c-1 -3 -2 -9 -3 -13 -1 -5 -5 -14 -9 -20 -12 -18 33 -16
57 2 17 13 18 15 3 15 -9 0 -17 -5 -17 -11 0 -5 -5 -7 -10 -4 -6 4 -8 10 -5
15 3 5 1 11 -5 15 -5 3 -11 4 -11 1z"/>
<path d="M2390 5585 c-10 -11 -10 -19 -2 -27 15 -15 44 -2 40 19 -4 23 -22 27
-38 8z"/>
<path d="M2480 5497 c0 -7 12 -19 26 -26 23 -10 25 -9 22 11 -3 26 -48 40 -48
15z"/>
<path d="M2659 5415 c-28 -15 -48 -58 -23 -48 8 3 14 -1 14 -10 0 -9 8 -13 25
-12 71 8 89 -36 32 -79 -41 -31 -42 -31 -70 -5 -12 11 -30 25 -39 30 -26 14
-24 -22 2 -41 11 -8 20 -20 20 -27 0 -7 7 -13 16 -13 11 0 15 -6 11 -19 -3
-14 0 -17 14 -14 15 4 20 -2 25 -36 6 -40 19 -49 58 -42 29 6 103 0 176 -14
l25 -5 -25 18 c-92 65 -120 117 -120 227 0 57 -4 75 -18 88 -23 21 -87 22
-123 2z"/>
<path d="M2880 5000 c0 -5 5 -10 10 -10 6 0 10 5 10 10 0 6 -4 10 -10 10 -5 0
-10 -4 -10 -10z"/>
<path d="M2861 4954 c0 -11 3 -14 6 -6 3 7 2 16 -1 19 -3 4 -6 -2 -5 -13z"/>
<path d="M2966 4735 c-3 -8 -1 -15 4 -15 6 0 10 7 10 15 0 8 -2 15 -4 15 -2 0
-6 -7 -10 -15z"/>
<path d="M2921 4724 c0 -11 3 -14 6 -6 3 7 2 16 -1 19 -3 4 -6 -2 -5 -13z"/>
<path d="M2860 4690 c0 -5 7 -7 15 -4 8 4 15 8 15 10 0 2 -7 4 -15 4 -8 0 -15
-4 -15 -10z"/>
<path d="M2993 4677 c-40 -13 -43 -35 -5 -43 50 -11 82 -26 82 -40 0 -8 -5
-14 -11 -14 -5 0 -8 -4 -4 -9 8 -15 -14 -24 -29 -12 -7 6 -42 13 -79 16 -59 5
-67 3 -77 -14 -15 -29 -12 -71 5 -76 8 -3 23 -8 33 -12 24 -10 31 -11 84 -12
32 -1 46 -5 44 -13 -1 -7 -1 -10 1 -5 3 4 12 7 20 7 11 0 14 -7 9 -27 -3 -16
-3 -22 0 -15 7 14 34 16 34 2 0 -5 7 -10 15 -10 8 0 15 -5 15 -12 0 -9 3 -9
12 0 7 7 20 12 30 12 10 0 18 5 18 11 0 7 11 8 30 4 34 -8 37 3 20 66 -10 37
-5 64 22 101 10 15 8 22 -16 47 -16 17 -42 33 -57 36 -16 4 -31 11 -34 16 -8
12 -121 9 -162 -4z"/>
<path d="M2878 4641 c-10 -10 -18 -29 -17 -42 0 -15 3 -19 6 -9 3 8 9 17 13
20 7 5 24 50 18 49 -2 0 -11 -8 -20 -18z"/>
<path d="M2831 4524 c0 -11 3 -14 6 -6 3 7 2 16 -1 19 -3 4 -6 -2 -5 -13z"/>
<path d="M2905 4440 c-3 -5 -1 -10 4 -10 6 0 11 5 11 10 0 6 -2 10 -4 10 -3 0
-8 -4 -11 -10z"/>
<path d="M2822 4420 c0 -14 2 -19 5 -12 2 6 2 18 0 25 -3 6 -5 1 -5 -13z"/>
<path d="M2971 4404 c0 -11 3 -14 6 -6 3 7 2 16 -1 19 -3 4 -6 -2 -5 -13z"/>
<path d="M3316 4407 c-17 -12 -17 -14 -1 -27 14 -12 18 -12 26 1 18 29 2 46
-25 26z"/>
<path d="M3036 4365 c-3 -9 -6 -22 -5 -28 0 -7 5 -1 10 12 5 13 8 26 5 28 -2
2 -6 -3 -10 -12z"/>
<path d="M3071 4284 c0 -11 3 -14 6 -6 3 7 2 16 -1 19 -3 4 -6 -2 -5 -13z"/>
<path d="M3146 4255 c4 -8 8 -15 10 -15 2 0 4 7 4 15 0 8 -4 15 -10 15 -5 0
-7 -7 -4 -15z"/>
<path d="M3186 3733 c-3 -4 -6 -11 -6 -17 0 -6 5 -4 10 4 7 11 10 8 10 -16 0
-30 23 -53 34 -35 13 20 -32 80 -48 64z"/>
<path d="M3151 3644 c0 -11 3 -14 6 -6 3 7 2 16 -1 19 -3 4 -6 -2 -5 -13z"/>
<path d="M3551 3318 c0 -16 2 -18 6 -8 3 8 11 18 17 22 7 5 4 8 -6 8 -12 0
-18 -7 -17 -22z"/>
<path d="M3543 3273 c12 -3 16 -10 12 -21 -5 -13 -3 -14 6 -5 14 14 3 33 -19
32 -15 -1 -14 -2 1 -6z"/>
<path d="M3511 3251 c-8 -6 -9 -11 -3 -15 6 -3 14 -1 17 5 9 14 2 20 -14 10z"/>
<path d="M3593 3247 c-7 -12 18 -58 29 -51 5 3 16 0 25 -7 13 -11 17 -10 29 6
24 32 13 49 -34 56 -24 3 -46 1 -49 -4z"/>
<path d="M3565 3190 c-3 -5 -1 -10 4 -10 6 0 11 5 11 10 0 6 -2 10 -4 10 -3 0
-8 -4 -11 -10z"/>
<path d="M3540 3080 c-6 -11 -8 -29 -5 -39 5 -15 11 -18 33 -12 33 9 36 38 5
58 -20 13 -23 13 -33 -7z"/>
<path d="M3611 3014 c0 -11 3 -14 6 -6 3 7 2 16 -1 19 -3 4 -6 -2 -5 -13z"/>
<path d="M3671 2994 c0 -11 3 -14 6 -6 3 7 2 16 -1 19 -3 4 -6 -2 -5 -13z"/>
<path d="M3700 2935 c0 -16 -2 -17 -45 -20 -16 -1 -33 2 -36 6 -3 5 -16 -2
-29 -16 -27 -29 -20 -42 25 -47 33 -3 65 -26 65 -45 0 -7 6 -10 14 -7 8 3 16
-4 21 -18 8 -27 8 -26 0 -61 -7 -25 -5 -27 24 -23 21 2 31 -1 31 -10 0 -8 7
-14 15 -14 11 0 15 12 15 45 0 35 -6 51 -29 77 -16 18 -32 48 -36 66 -4 18
-13 36 -20 38 -7 3 -11 14 -8 25 3 10 3 19 -1 19 -3 0 -6 -7 -6 -15z"/>
<path d="M3530 2930 c0 -5 5 -10 10 -10 6 0 10 5 10 10 0 6 -4 10 -10 10 -5 0
-10 -4 -10 -10z"/>
<path d="M3512 2894 c-7 -8 -8 -14 -3 -14 10 0 25 19 20 25 -2 1 -10 -3 -17
-11z"/>
<path d="M3640 2730 c0 -5 7 -7 15 -4 8 4 15 8 15 10 0 2 -7 4 -15 4 -8 0 -15
-4 -15 -10z"/>
<path d="M3602 2663 c-6 -10 -13 -38 -17 -62 l-7 -44 32 7 c18 3 54 6 81 6 37
0 49 4 49 15 0 8 -4 15 -10 15 -10 0 -22 9 -74 56 -32 29 -42 30 -54 7z"/>
<path d="M3686 2665 c4 -8 10 -12 15 -9 14 8 10 24 -6 24 -9 0 -12 -6 -9 -15z"/>
<path d="M3542 2610 c-16 -26 -15 -30 3 -30 9 0 15 9 15 25 0 30 -2 31 -18 5z"/>
<path d="M3520 2550 c0 -5 -8 -10 -18 -10 -10 0 -22 -4 -27 -9 -6 -5 -21 -11
-34 -13 -14 -1 -26 -9 -29 -15 -7 -22 92 -17 111 5 19 20 23 52 7 52 -5 0 -10
-4 -10 -10z"/>
<path d="M3395 2540 c-8 -13 -1 -24 14 -19 6 3 7 10 2 18 -6 10 -10 10 -16 1z"/>
</g>
</svg>
