<?xml version="1.0" standalone="no"?>
<!DOCTYPE svg PUBLIC "-//W3C//DTD SVG 20010904//EN"
 "http://www.w3.org/TR/2001/REC-SVG-20010904/DTD/svg10.dtd">
<svg version="1.0" xmlns="http://www.w3.org/2000/svg"
 width="422pt" height="648pt" viewBox="0 0 422 648"
 preserveAspectRatio="xMidYMid meet">
<metadata>
Created by potrace 1.8, written by Peter Selinger 2001-2007
</metadata>
<g transform="translate(0,648) scale(0.110017,-0.110017)"
fill="#000000" stroke="none">
<path d="M1982 5795 c2 -71 6 -95 16 -95 8 0 16 9 19 21 6 20 6 20 29 -2 13
-12 27 -20 30 -16 4 4 -1 9 -10 13 -27 10 -18 20 19 20 19 0 43 8 54 18 19 17
23 18 61 2 22 -9 50 -16 62 -16 17 0 13 5 -17 20 -48 25 -84 25 -125 3 -31
-18 -31 -18 -51 6 -13 16 -19 38 -19 72 l0 49 -36 0 -35 0 3 -95z"/>
<path d="M1515 5781 c-43 -19 -57 -61 -19 -61 8 0 14 10 14 24 0 41 60 50 104
15 21 -17 26 -29 26 -68 0 -43 12 -71 32 -71 14 0 9 60 -8 95 -8 18 -24 41
-34 50 -22 20 -86 29 -115 16z"/>
<path d="M1230 5736 c0 -25 -4 -46 -10 -46 -25 0 -50 -36 -50 -72 0 -48 -26
-76 -77 -80 -36 -3 -38 -5 -40 -38 -1 -19 1 -27 3 -17 3 9 10 17 15 17 13 0 1
-42 -15 -52 -6 -4 -19 -8 -28 -8 -9 0 -20 -4 -23 -10 -9 -14 78 -13 93 2 7 7
12 22 12 34 0 25 15 40 25 24 21 -34 126 18 135 67 7 36 22 35 32 -3 7 -29 34
-52 46 -39 3 3 0 5 -6 5 -7 0 -12 9 -12 19 0 10 -8 29 -18 41 -14 18 -25 22
-45 16 -15 -3 -27 -12 -27 -20 0 -7 -11 -25 -24 -39 -13 -14 -21 -28 -18 -31
10 -10 -29 -6 -49 5 -20 10 -19 11 5 30 17 13 26 30 26 48 0 19 9 34 30 49 20
15 30 31 30 48 0 19 4 25 15 20 17 -6 21 9 5 19 -21 13 -9 25 26 25 51 0 39
24 -14 28 l-42 3 0 -45z"/>
<path d="M1340 5730 c0 -6 7 -13 15 -17 24 -9 27 1 5 15 -13 8 -20 8 -20 2z"/>
<path d="M2180 5695 c-18 -33 -47 -41 -71 -19 -22 19 -26 7 -6 -20 19 -25 90
-19 95 9 6 33 19 38 41 16 l21 -21 0 30 c0 27 -3 30 -33 30 -26 0 -37 -6 -47
-25z"/>
<path d="M2332 5694 c15 -15 31 -25 35 -20 12 12 -12 41 -38 44 l-24 4 27 -28z"/>
<path d="M1404 5696 c12 -10 37 -16 65 -15 l46 2 -40 7 c-22 5 -51 11 -65 15
-24 6 -24 6 -6 -9z"/>
<path d="M1535 5680 c3 -5 8 -10 11 -10 2 0 4 5 4 10 0 6 -5 10 -11 10 -5 0
-7 -4 -4 -10z"/>
<path d="M1725 5670 c-25 -27 -16 -32 22 -13 30 14 34 14 63 -7 37 -27 39 -19
3 15 -33 30 -64 32 -88 5z"/>
<path d="M1910 5675 c-7 -9 -10 -18 -6 -22 8 -9 56 14 56 27 0 15 -36 12 -50
-5z"/>
<path d="M1300 5653 c0 -24 19 -43 42 -43 23 0 23 13 1 32 -33 28 -43 30 -43
11z"/>
<path d="M2350 5661 c-34 -5 -33 -5 15 -10 49 -6 50 -6 53 -43 2 -25 10 -41
23 -48 10 -6 19 -20 19 -31 0 -11 11 -24 25 -31 13 -6 27 -19 30 -29 3 -9 13
-20 22 -23 12 -5 14 -1 11 18 -4 22 -3 23 18 15 13 -4 34 -15 46 -23 13 -7 49
-17 80 -21 49 -5 62 -11 83 -38 22 -29 25 -30 25 -10 0 29 -45 63 -84 63 -18
0 -41 7 -52 15 -10 8 -31 15 -46 15 -30 0 -118 35 -118 47 0 4 -16 19 -35 32
-26 17 -35 31 -35 51 0 23 -28 63 -41 58 -2 0 -20 -4 -39 -7z"/>
<path d="M1518 5639 c-10 -5 -18 -17 -18 -24 0 -11 -14 -15 -56 -15 -48 0 -55
-2 -45 -14 8 -9 32 -15 66 -15 49 0 57 4 75 30 29 40 16 61 -22 38z"/>
<path d="M1861 5598 l-1 -38 45 0 c34 0 47 5 55 19 6 13 24 21 48 24 20 3 12
3 -18 2 -30 -2 -67 -6 -81 -10 -20 -5 -27 -2 -36 17 -11 21 -12 21 -12 -14z"/>
<path d="M2236 5604 c-27 -27 -18 -33 47 -31 59 2 62 1 65 -22 3 -17 -4 -30
-20 -42 -19 -15 -21 -22 -12 -36 8 -14 27 -19 75 -21 43 -2 66 -8 72 -18 4 -7
19 -14 32 -14 28 0 30 -3 39 -52 5 -30 3 -41 -14 -58 -12 -12 -20 -33 -20 -55
0 -28 8 -42 40 -71 35 -32 40 -42 40 -80 l0 -44 64 0 c35 0 83 -3 108 -6 40
-6 46 -4 51 15 4 18 13 21 54 21 26 0 54 -4 61 -8 14 -10 24 -191 10 -208 -4
-6 -6 -19 -2 -28 12 -31 24 -16 25 32 1 26 2 77 4 115 2 81 -10 108 -54 123
-43 14 -118 2 -135 -21 -13 -18 -14 -18 -20 3 -4 12 -13 22 -21 22 -18 0 -43
41 -48 81 -3 23 -4 17 -5 -22 -2 -45 2 -60 18 -74 27 -24 25 -39 -2 -30 -13 4
-39 10 -58 13 -31 6 -35 11 -38 40 -2 19 -19 53 -38 79 -40 52 -40 58 -14 98
29 44 25 79 -12 121 -31 33 -38 36 -111 41 -74 6 -78 7 -72 27 28 85 10 126
-56 126 -21 0 -45 -7 -53 -16z"/>
<path d="M2050 5564 c0 -33 33 -84 55 -84 7 0 18 7 25 15 7 8 20 15 30 15 10
0 23 7 30 15 15 18 4 19 -40 3 -32 -11 -35 -10 -67 28 l-33 39 0 -31z"/>
<path d="M1360 5501 c0 -6 20 -24 45 -42 25 -18 45 -38 45 -46 0 -7 -17 -21
-37 -30 -31 -15 -39 -24 -41 -51 -2 -18 2 -40 9 -48 6 -8 15 -29 19 -47 l8
-32 1 38 c1 20 -4 45 -10 55 -17 28 5 72 37 72 17 0 28 6 31 20 3 11 9 20 14
20 23 0 5 29 -28 46 -20 10 -45 27 -55 37 -20 19 -38 22 -38 8z"/>
<path d="M924 5464 c-4 -14 -2 -36 4 -49 9 -20 9 -23 -4 -18 -24 9 -84 -7 -84
-22 0 -8 7 -15 15 -15 8 0 15 -6 15 -14 0 -8 7 -16 15 -20 8 -3 15 -18 16 -33
0 -25 1 -26 9 -8 7 15 9 16 9 4 1 -9 -7 -23 -16 -30 -11 -10 -14 -10 -9 -1 5
8 -1 12 -23 12 -16 0 -33 -4 -36 -10 -4 -6 5 -10 20 -10 15 0 24 -4 20 -10 -9
-14 48 -13 63 2 7 7 12 31 12 54 0 37 -3 43 -27 50 l-28 7 30 6 c18 4 34 15
40 29 5 12 13 22 17 22 5 0 8 7 8 16 0 9 -6 14 -13 11 -18 -7 -41 8 -33 21 4
7 16 7 36 -1 16 -6 33 -8 37 -3 12 12 -27 36 -59 36 -21 0 -29 -6 -34 -26z"/>
<path d="M1808 5433 c6 -2 18 -2 25 0 6 3 1 5 -13 5 -14 0 -19 -2 -12 -5z"/>
<path d="M1862 5410 c14 -22 24 -19 15 5 -4 8 -11 15 -17 15 -6 0 -6 -7 2 -20z"/>
<path d="M2580 5400 c6 -12 22 -25 36 -30 38 -15 46 -13 34 10 -6 10 -16 17
-24 14 -7 -3 -19 2 -26 11 -18 22 -33 18 -20 -5z"/>
<path d="M1725 5372 c-16 -9 -62 -18 -102 -20 -52 -3 -73 -8 -78 -19 -8 -23
11 -40 53 -47 20 -3 50 -12 65 -21 25 -13 29 -13 47 5 11 11 28 20 37 20 28 0
137 -22 155 -31 15 -7 16 -5 9 14 -8 21 -14 22 -127 23 -70 0 -128 6 -141 12
-12 7 -31 12 -42 12 -12 0 -21 5 -21 10 0 6 21 10 47 10 49 0 133 26 133 41 0
5 -1 9 -2 8 -2 -1 -16 -8 -33 -17z"/>
<path d="M2694 5334 c29 -25 29 -26 13 -60 -18 -37 -10 -45 16 -16 24 26 22
79 -2 92 -11 5 -28 10 -38 10 -15 -1 -13 -5 11 -26z"/>
<path d="M2025 5293 c9 -10 27 -33 41 -50 15 -19 35 -33 47 -33 12 0 44 -8 70
-17 39 -14 52 -15 67 -5 26 16 26 16 35 -10 6 -21 8 -21 12 -4 8 31 -15 41
-114 46 l-97 5 -8 30 c-8 31 -32 55 -55 55 -10 0 -9 -4 2 -17z"/>
<path d="M1818 5243 c-26 -28 -34 -74 -16 -87 14 -10 13 -15 -7 -40 -29 -36
-61 -30 -90 17 -16 25 -28 33 -58 35 -51 4 -67 -11 -67 -63 0 -39 -3 -45 -32
-59 -17 -9 -44 -16 -60 -16 -17 0 -27 -4 -23 -10 10 -16 36 -12 93 15 45 21
52 28 52 53 0 15 6 36 13 46 11 16 16 14 57 -18 25 -19 53 -36 63 -38 14 -2 8
-10 -27 -32 -29 -18 -49 -39 -53 -55 -12 -54 -32 -62 -88 -35 -18 8 -46 14
-62 12 -26 -3 -28 -6 -27 -49 0 -29 8 -58 22 -80 l22 -34 -6 50 c-4 28 -11 54
-15 60 -5 5 -9 13 -9 17 0 14 27 9 40 -7 19 -23 91 -19 118 5 12 12 22 27 22
34 0 7 18 32 39 55 34 36 43 41 67 35 16 -4 34 -11 40 -16 8 -6 21 3 38 24 14
18 33 42 42 52 15 17 16 26 6 74 -14 64 -11 60 -48 68 -21 4 -34 1 -46 -13z
m58 -21 c7 -4 14 -25 15 -47 4 -35 1 -40 -18 -43 -15 -2 -23 -11 -25 -30 -2
-22 -9 -28 -33 -30 l-30 -4 28 22 c26 21 28 26 22 71 -9 63 6 84 41 61z"/>
<path d="M759 5223 c-1 -10 0 -28 1 -41 1 -13 -6 -32 -14 -41 -20 -22 -11 -50
18 -56 94 -19 94 -19 113 24 15 34 23 41 55 46 45 8 58 1 58 -30 0 -17 -9 -29
-30 -40 -17 -9 -30 -24 -30 -34 0 -10 -9 -25 -21 -32 -17 -12 -22 -30 -30 -99
-12 -111 -14 -117 -37 -97 -18 16 -78 33 -102 28 -35 -7 -41 -65 -10 -104 17
-21 18 -27 5 -37 -7 -6 -26 -15 -40 -18 -21 -6 -31 -19 -44 -58 -10 -27 -25
-65 -34 -84 -8 -19 -18 -48 -22 -64 -3 -15 -14 -30 -24 -33 -13 -3 -20 -18
-25 -50 -9 -71 -7 -145 4 -138 6 3 10 30 10 59 0 53 17 99 51 145 10 12 21 39
25 60 4 20 20 54 35 75 16 22 29 47 29 55 0 9 15 23 33 31 36 17 47 50 22 70
-19 16 -20 59 0 66 8 3 31 -3 50 -15 70 -41 90 -27 97 69 5 60 39 150 57 150
4 0 17 9 29 20 16 15 22 32 22 65 0 55 -21 70 -83 60 -57 -10 -75 -21 -79 -47
-2 -19 -8 -22 -33 -20 -16 2 -31 5 -33 7 -8 8 15 90 25 90 11 0 42 24 33 26
-66 10 -80 9 -81 -8z"/>
<path d="M2800 5223 c0 -11 7 -26 15 -33 20 -17 20 7 0 34 -15 19 -15 19 -15
-1z"/>
<path d="M1410 5146 c0 -56 7 -86 20 -86 4 0 5 22 2 50 -4 40 -1 51 12 56 15
6 15 8 -1 20 -29 22 -33 17 -33 -40z"/>
<path d="M1950 5116 c0 -57 2 -67 14 -57 11 9 15 7 20 -13 3 -13 3 -32 0 -40
-3 -9 -2 -16 4 -16 13 0 25 47 23 86 -3 45 21 64 79 64 27 0 59 -5 72 -11 25
-11 58 -61 58 -88 0 -21 61 -45 91 -36 19 6 20 12 14 53 -9 62 -25 78 -25 26
0 -23 -3 -43 -6 -47 -13 -13 -63 16 -72 41 -5 15 -21 39 -35 55 -23 24 -33 27
-89 27 -39 -1 -70 -6 -82 -15 -27 -21 -33 -19 -50 13 -15 26 -15 25 -16 -42z"/>
<path d="M1053 5103 c-7 -2 -13 -17 -13 -32 0 -20 7 -31 25 -39 14 -6 25 -16
25 -21 0 -6 9 -15 21 -21 28 -16 49 3 49 44 0 49 -61 88 -107 69z m70 -39 c11
-14 16 -32 12 -42 -6 -15 -8 -15 -18 -1 -12 16 -46 33 -59 31 -12 -3 -9 5 8
22 22 22 36 20 57 -10z"/>
<path d="M2976 5076 c21 -15 30 -14 19 3 -3 6 -14 11 -23 11 -13 0 -13 -2 4
-14z"/>
<path d="M810 5046 c0 -7 -12 -22 -27 -31 -22 -15 -32 -16 -58 -6 -50 18 -89
14 -113 -12 -26 -27 -28 -59 -7 -77 13 -11 15 -7 15 28 0 23 3 43 8 45 4 3 31
0 60 -6 46 -10 57 -9 80 6 15 9 39 22 55 29 31 14 36 38 7 38 -11 0 -20 -6
-20 -14z"/>
<path d="M3052 5033 c29 -32 38 -87 22 -134 -8 -23 -14 -49 -12 -57 3 -13 6
-13 22 3 25 26 20 153 -8 184 -11 12 -24 21 -29 21 -6 0 -3 -8 5 -17z"/>
<path d="M2793 5015 c-4 -11 -2 -20 5 -23 8 -2 10 -17 6 -41 -5 -32 -3 -39 13
-43 19 -5 19 -3 8 54 -14 67 -21 79 -32 53z"/>
<path d="M1921 4983 c-1 -27 3 -33 18 -33 11 0 22 4 25 9 4 5 -3 7 -13 4 -15
-4 -20 1 -24 24 -4 27 -4 27 -6 -4z"/>
<path d="M2613 4928 c-30 -33 -43 -63 -43 -95 0 -16 -6 -35 -12 -42 -11 -11
-10 -13 2 -9 8 2 30 32 48 66 19 35 40 62 49 62 13 0 14 -10 8 -66 -5 -53 -4
-65 7 -62 9 3 14 29 16 86 l3 82 -29 0 c-17 0 -37 -9 -49 -22z"/>
<path d="M1835 4922 c-31 -11 -49 -25 -68 -54 -9 -15 -30 -35 -47 -44 -34 -21
-39 -34 -12 -34 20 0 49 27 66 63 7 14 22 23 41 25 17 2 42 8 57 13 23 9 32 7
62 -17 35 -28 35 -29 17 -49 -10 -11 -21 -36 -25 -55 -10 -56 -19 -63 -93 -71
-61 -7 -70 -6 -85 13 -10 11 -18 29 -18 39 0 13 -7 19 -21 19 -18 0 -19 -2 -9
-15 7 -9 10 -18 7 -22 -3 -3 0 -21 8 -40 13 -30 13 -39 0 -69 l-14 -33 39 24
c34 21 52 25 119 25 78 0 107 10 76 28 -13 7 -14 14 -5 36 5 15 10 41 10 57 0
22 6 32 25 39 14 5 28 17 31 25 9 22 -4 65 -20 65 -7 0 -21 9 -31 20 -18 20
-67 25 -110 12z m25 -252 c0 -5 -19 -9 -42 -9 l-43 2 35 7 c19 4 38 8 43 9 4
0 7 -3 7 -9z"/>
<path d="M1031 4911 c-7 -5 -11 -22 -9 -42 2 -26 8 -34 23 -34 15 0 21 8 23
31 3 34 -16 58 -37 45z m23 -43 c-10 -16 -22 -7 -17 13 4 15 8 17 14 8 4 -7 5
-17 3 -21z"/>
<path d="M624 4863 c-4 -21 -13 -46 -22 -55 -19 -22 1 -24 22 -2 9 9 16 32 16
55 0 49 -7 50 -16 2z"/>
<path d="M2860 4874 c0 -8 16 -30 35 -48 41 -39 42 -37 13 15 -23 41 -48 58
-48 33z"/>
<path d="M2205 4848 c-2 -7 -9 -32 -15 -56 -6 -24 -14 -50 -17 -58 -9 -24 25
-16 43 11 10 15 15 38 12 60 -4 39 11 51 56 39 16 -4 26 -2 26 5 0 16 -99 14
-105 -1z"/>
<path d="M2351 4815 c27 -45 57 -50 35 -6 -13 24 -34 41 -51 41 -3 0 5 -16 16
-35z"/>
<path d="M1608 4813 c-10 -2 -18 -9 -18 -15 0 -6 9 -8 20 -5 27 7 25 -6 -5
-34 -13 -13 -25 -34 -25 -45 0 -12 -7 -27 -16 -35 -11 -9 -15 -27 -13 -58 3
-69 0 -91 -11 -91 -5 0 -10 11 -10 25 0 22 -4 25 -35 25 -42 0 -95 -25 -95
-44 0 -8 -6 -17 -12 -19 -8 -4 -9 -6 -2 -6 7 -1 19 10 28 24 24 36 48 31 76
-15 14 -22 30 -40 37 -40 20 0 53 68 47 99 -4 16 -1 32 5 35 6 4 11 18 11 32
0 38 24 104 37 104 7 0 13 5 13 11 0 6 7 18 16 26 24 24 -2 38 -48 26z"/>
<path d="M2985 4810 c29 -12 98 -12 90 0 -3 6 -30 10 -58 9 -38 0 -47 -3 -32
-9z"/>
<path d="M1264 4775 c-7 -18 12 -104 28 -122 16 -20 36 -16 74 15 24 19 34 35
33 52 -2 24 -2 24 -6 2 -5 -27 -44 -45 -79 -36 -25 6 -26 8 -26 62 -1 36 -15
52 -24 27z"/>
<path d="M1310 4780 c-10 -6 -7 -10 13 -15 37 -10 54 -1 25 12 -14 6 -31 8
-38 3z"/>
<path d="M2438 4783 c12 -2 32 -2 45 0 12 2 2 4 -23 4 -25 0 -35 -2 -22 -4z"/>
<path d="M3096 4750 l7 -40 -36 0 c-21 0 -44 -8 -58 -21 -21 -18 -21 -20 -4
-14 54 19 104 17 152 -5 75 -36 94 -57 88 -99 -2 -20 -2 -28 1 -18 3 9 10 17
15 17 5 0 9 8 9 18 0 23 -47 67 -85 79 -31 10 -42 33 -44 91 -1 27 -5 32 -26
32 -24 0 -25 -2 -19 -40z"/>
<path d="M548 4763 c-10 -11 -18 -33 -18 -49 l0 -28 21 20 c13 14 19 31 17 49
-3 27 -3 27 -20 8z"/>
<path d="M2890 4760 c-14 -12 -40 -27 -57 -35 -35 -15 -44 -42 -18 -51 10 -4
15 -20 15 -49 0 -38 -3 -44 -26 -49 -27 -7 -63 -42 -64 -62 0 -6 -8 -18 -19
-25 -22 -16 -38 -83 -18 -77 6 3 13 14 15 26 2 12 7 22 11 22 11 0 51 -45 51
-57 0 -23 31 -34 103 -37 84 -4 97 -9 97 -35 0 -23 73 -91 98 -91 32 0 74 -19
67 -30 -4 -6 16 -10 54 -10 48 0 59 -3 55 -14 -3 -8 0 -24 6 -36 6 -12 9 -29
5 -38 -6 -15 -8 -14 -23 5 -10 13 -34 24 -60 28 -41 7 -43 6 -57 -27 -11 -29
-23 -38 -66 -51 -28 -9 -57 -17 -64 -17 -6 0 -26 -13 -43 -30 -18 -16 -40 -30
-51 -30 -11 0 -26 -3 -35 -6 -14 -5 -16 3 -16 53 0 76 17 95 75 86 l40 -6 -25
27 c-40 44 -69 33 -97 -39 -29 -74 -29 -105 -2 -134 18 -19 29 -22 58 -17 34
5 91 52 91 75 0 6 21 11 48 11 70 0 92 9 92 35 0 43 72 77 86 40 3 -8 14 -17
24 -20 11 -3 20 -17 22 -33 2 -21 13 -32 48 -49 25 -12 54 -22 64 -23 37 0
-13 39 -53 42 -31 3 -36 6 -36 28 0 22 5 25 43 28 42 3 53 17 31 39 -7 7 -12
40 -13 75 -1 47 -5 66 -18 76 -22 16 -23 48 -3 56 8 3 15 12 15 19 0 8 7 20
15 27 32 27 17 40 -45 40 l-60 0 -1 33 c-2 27 -3 28 -6 7 -3 -18 -15 -31 -36
-40 -31 -14 -30 -15 56 -18 64 -2 87 -6 84 -15 -2 -7 -13 -13 -25 -15 -21 -3
-62 -45 -62 -63 0 -5 9 -9 20 -9 22 0 40 -28 40 -61 0 -18 -3 -20 -12 -11 -7
7 -30 12 -51 12 -37 0 -39 2 -33 25 8 32 1 32 -28 0 -21 -22 -29 -25 -65 -19
-36 6 -52 17 -104 75 -57 63 -65 69 -102 69 -22 0 -58 6 -79 14 -36 12 -41 18
-53 67 -16 61 -12 79 16 79 11 0 23 5 26 10 10 16 22 4 28 -28 10 -47 44 -82
80 -81 25 1 27 3 9 6 -13 3 -26 11 -29 19 -3 8 -11 14 -19 14 -9 0 -14 12 -14
35 0 30 4 35 28 40 15 4 34 10 42 14 17 9 27 81 11 81 -6 0 -11 -13 -11 -29 0
-32 -14 -41 -65 -41 -28 0 -34 4 -38 28 -3 15 -9 39 -12 53 -6 22 -2 30 22 44
15 9 33 27 40 41 6 13 10 24 10 24 -1 0 -13 -9 -27 -20z m433 -617 c6 -28 4
-33 -13 -33 -25 0 -38 44 -20 66 16 18 26 9 33 -33z"/>
<path d="M2337 4763 c-4 -3 6 -14 22 -24 18 -11 32 -30 36 -48 4 -17 11 -31
16 -31 5 0 9 -9 9 -20 0 -27 27 -37 54 -20 19 12 20 12 7 -4 -19 -23 -6 -32
21 -14 21 14 25 13 46 -14 16 -19 19 -28 10 -28 -16 0 -68 -51 -68 -66 0 -6
-9 -19 -20 -29 -11 -10 -20 -24 -20 -32 0 -9 -8 -13 -22 -11 -20 3 -22 8 -21
56 0 30 6 59 12 65 15 15 14 27 -4 27 -8 0 -15 -8 -15 -19 0 -10 -7 -24 -15
-31 -8 -7 -15 -29 -15 -50 0 -40 20 -61 70 -73 34 -8 46 1 54 45 4 20 13 39
21 42 8 3 15 14 15 25 0 12 11 25 27 33 15 7 29 21 31 31 5 27 -39 89 -60 83
-19 -4 -25 9 -8 19 6 3 10 13 10 21 0 24 -38 -2 -42 -28 -2 -17 -10 -23 -28
-23 -23 0 -25 4 -28 47 -2 35 -9 52 -25 63 -22 16 -59 20 -70 8z"/>
<path d="M2570 4740 c-12 -8 -11 -10 5 -9 11 1 34 5 50 9 l30 8 -35 1 c-19 0
-42 -4 -50 -9z"/>
<path d="M2008 4713 c-10 -2 -18 -9 -18 -15 0 -6 7 -7 18 -3 9 5 37 11 62 15
l45 7 -45 1 c-25 0 -53 -2 -62 -5z"/>
<path d="M1096 4702 c-3 -6 13 -13 40 -17 61 -9 91 -23 97 -46 3 -13 14 -19
31 -19 16 0 26 -6 26 -15 0 -8 5 -15 10 -15 6 0 22 -12 35 -27 13 -16 25 -22
25 -15 0 17 -60 92 -73 92 -6 0 -22 14 -36 30 -22 26 -35 31 -87 36 -37 4 -64
3 -68 -4z"/>
<path d="M2310 4681 c-5 -11 -10 -28 -10 -37 0 -15 -4 -14 -25 6 -14 13 -28
21 -31 17 -8 -8 56 -67 73 -67 9 0 13 16 13 50 0 54 -4 60 -20 31z"/>
<path d="M1084 4650 c14 -66 15 -65 -40 -68 -40 -2 -54 1 -69 18 -19 21 -79
28 -90 10 -3 -6 4 -10 18 -10 13 0 45 -11 71 -25 52 -28 102 -32 131 -11 22
16 16 76 -11 104 -17 16 -17 15 -10 -18z"/>
<path d="M446 4645 c-7 -18 34 -57 70 -67 27 -7 28 -5 14 23 -6 10 -18 19 -28
20 -13 0 -11 3 6 9 35 14 26 30 -17 30 -26 0 -41 -5 -45 -15z"/>
<path d="M1995 4625 c-14 -13 -25 -34 -25 -45 0 -21 -3 -21 -67 -16 -119 11
-188 11 -188 1 0 -6 20 -9 48 -7 35 3 53 -1 66 -13 14 -12 34 -15 87 -13 l68
3 9 34 c4 18 15 44 24 57 20 31 9 31 -22 -1z"/>
<path d="M835 4530 c-9 -17 -15 -41 -13 -53 2 -16 8 -8 20 28 20 58 16 70 -7
25z"/>
<path d="M394 4538 c-4 -7 -10 -28 -14 -48 -4 -26 -11 -36 -28 -38 -26 -4 -26
-5 -9 -35 20 -37 39 -57 54 -57 23 0 14 30 -12 40 -28 11 -32 31 -10 50 8 7
15 18 15 25 0 32 38 59 91 66 l54 6 -67 2 c-43 0 -69 -3 -74 -11z"/>
<path d="M2250 4536 c-21 -27 -7 -60 35 -83 58 -31 65 -29 65 16 0 34 -5 42
-34 60 -40 25 -50 26 -66 7z m62 -48 l23 -33 -33 23 c-17 13 -32 28 -32 33 0
19 19 8 42 -23z"/>
<path d="M1614 4499 c-3 -6 5 -23 19 -37 13 -15 27 -34 30 -42 3 -9 6 -3 6 12
1 15 -3 30 -9 33 -22 13 -8 25 29 25 35 0 45 -6 83 -50 50 -58 73 -63 81 -20
5 21 17 35 44 50 l38 20 -50 -3 -50 -2 -5 -44 -5 -44 -48 56 c-48 56 -49 57
-102 57 -30 0 -57 -5 -61 -11z"/>
<path d="M1985 4465 c17 -13 36 -24 43 -25 8 0 0 11 -16 25 -17 14 -36 25 -43
25 -8 0 0 -11 16 -25z"/>
<path d="M1055 4460 c-22 -11 -48 -19 -57 -20 -10 0 -18 -7 -18 -15 0 -8 -4
-15 -8 -15 -4 0 -32 -22 -61 -50 -47 -45 -50 -49 -23 -39 17 6 42 25 56 43 18
24 36 35 64 39 21 4 49 16 62 27 13 11 37 20 57 20 28 0 33 -3 33 -24 0 -14 4
-28 10 -31 5 -3 7 0 4 8 -3 8 2 17 10 20 26 10 18 34 -15 46 -44 15 -68 13
-114 -9z"/>
<path d="M2082 4444 c16 -5 29 -34 42 -94 4 -20 -1 -29 -29 -48 -19 -12 -35
-27 -35 -34 0 -6 10 -2 23 10 28 26 68 28 103 6 23 -16 24 -16 18 2 -4 11 -20
32 -35 47 -16 17 -32 46 -36 70 -8 37 -12 42 -38 44 -17 1 -22 -1 -13 -3z"/>
<path d="M2990 4443 c0 -1 18 -12 40 -23 43 -22 70 -26 70 -10 0 6 -7 10 -15
10 -8 0 -15 4 -15 9 0 5 -18 11 -40 13 -22 2 -40 2 -40 1z"/>
<path d="M792 4417 c-20 -9 -23 -17 -20 -61 l3 -51 40 -2 c31 -1 34 0 15 6
-29 8 -37 34 -20 66 19 35 10 55 -18 42z"/>
<path d="M1424 4415 c-18 -14 -17 -14 12 -9 34 6 62 -5 107 -42 39 -33 107
-31 107 2 0 12 -4 12 -25 -2 -23 -15 -27 -15 -50 0 -14 9 -32 27 -41 41 -12
19 -25 25 -53 25 -21 0 -46 -7 -57 -15z"/>
<path d="M2570 4390 c0 -14 11 -22 41 -30 22 -6 47 -14 55 -17 28 -11 14 28
-18 47 -43 26 -78 26 -78 0z"/>
<path d="M1365 4380 c-17 -19 -17 -21 14 -52 l31 -32 0 27 c0 14 -8 30 -17 36
-14 8 -15 12 -4 25 19 23 -3 20 -24 -4z"/>
<path d="M1194 4336 c3 -27 11 -55 18 -63 8 -10 8 -23 -2 -52 -7 -22 -10 -50
-6 -64 6 -23 4 -24 -61 -31 -73 -8 -103 -25 -103 -62 0 -34 21 -74 38 -74 13
0 12 3 -2 19 -36 40 14 91 88 91 25 0 39 6 50 22 9 12 16 17 16 10 0 -7 13
-12 30 -12 33 0 38 11 14 30 -8 8 -14 25 -12 39 3 24 7 26 53 29 71 3 95 10
95 28 0 12 -4 13 -20 4 -11 -6 -52 -10 -90 -9 l-70 2 0 52 c0 41 -5 56 -21 71
l-22 19 7 -49z"/>
<path d="M485 4364 c-5 -1 -22 -5 -37 -8 -16 -4 -28 -12 -28 -20 0 -7 -7 -19
-15 -26 -8 -7 -15 -23 -15 -37 0 -13 -7 -26 -17 -30 -10 -4 -22 -12 -26 -20
-4 -7 -16 -13 -26 -13 -24 0 -45 -68 -32 -103 13 -34 22 -38 72 -28 37 8 39 9
13 10 -39 1 -46 9 -33 33 11 20 11 20 34 -2 18 -17 32 -21 71 -18 44 3 49 5
52 29 2 15 -4 34 -13 43 -26 26 -38 18 -16 -10 25 -31 12 -61 -18 -44 -10 5
-27 6 -39 3 -16 -4 -22 -1 -22 11 0 9 -6 16 -12 16 -7 0 -18 11 -24 24 -9 20
-6 27 28 58 33 30 41 34 53 22 12 -12 13 -8 8 31 -4 37 -2 45 11 45 13 0 16
-11 16 -55 0 -42 5 -60 21 -76 27 -27 53 -21 57 15 2 18 0 26 -7 21 -6 -3 -19
-4 -29 -1 -14 5 -16 15 -14 49 5 55 0 85 -13 81z"/>
<path d="M2408 4338 c-8 -23 -15 -28 -37 -26 -20 2 -27 -2 -29 -19 -4 -29 18
-30 43 -3 10 11 23 20 30 20 7 0 20 9 30 20 10 12 25 18 32 15 8 -2 12 -1 9 4
-3 5 -20 11 -37 13 -27 4 -32 1 -41 -24z"/>
<path d="M2516 4329 c18 -9 20 -16 13 -52 -4 -22 -14 -46 -23 -53 -9 -6 -16
-20 -15 -30 0 -14 2 -15 6 -4 3 8 17 26 31 39 19 17 26 34 26 65 1 39 -1 41
-29 43 -27 2 -28 2 -9 -8z"/>
<path d="M2770 4317 c-20 -10 -26 -22 -31 -62 -7 -55 -6 -60 10 -50 6 3 11 28
11 56 0 40 3 49 18 49 9 0 24 5 32 10 24 15 -9 13 -40 -3z"/>
<path d="M1847 4288 c6 -7 13 -32 16 -56 6 -47 30 -82 57 -82 10 0 23 -7 30
-15 8 -9 30 -15 59 -15 43 0 48 2 58 31 12 32 10 49 -8 49 -5 0 -9 -9 -9 -20
0 -28 -24 -35 -73 -20 -54 15 -97 56 -97 90 0 26 -16 50 -33 50 -6 0 -5 -5 0
-12z"/>
<path d="M1536 4262 c-14 -27 -13 -30 14 -56 23 -21 37 -27 66 -24 48 4 65 28
44 65 -8 14 -21 28 -29 31 -11 4 -10 -1 2 -19 28 -39 22 -49 -27 -49 -25 0
-47 4 -50 9 -11 17 13 59 36 64 17 3 15 5 -9 6 -26 1 -35 -5 -47 -27z"/>
<path d="M1784 4275 c-12 -30 2 -35 25 -11 l24 26 -22 0 c-12 0 -24 -7 -27
-15z"/>
<path d="M2612 4268 c-7 -7 -12 -21 -12 -33 0 -12 -7 -30 -15 -41 -22 -30 -18
-40 8 -16 18 17 36 22 78 22 l54 1 -29 15 c-15 9 -39 14 -52 11 -20 -3 -22 -1
-13 14 5 10 17 23 27 28 15 9 14 10 -8 11 -15 0 -31 -5 -38 -12z"/>
<path d="M2282 4179 c-75 -80 -85 -85 -128 -64 -38 18 -41 38 -6 43 11 2 26
10 32 18 7 8 22 14 34 14 12 0 30 6 39 13 31 22 -79 7 -126 -17 -47 -25 -57
-48 -32 -76 28 -31 135 -35 135 -4 0 8 8 14 18 14 24 0 48 27 57 63 7 25 11
27 56 27 45 0 49 -2 49 -24 0 -14 5 -28 10 -31 18 -11 11 57 -7 71 -38 29 -71
17 -131 -47z"/>
<path d="M441 4214 c0 -11 3 -14 6 -6 3 7 2 16 -1 19 -3 4 -6 -2 -5 -13z"/>
<path d="M3023 4193 c-21 -7 -39 -13 -40 -13 -2 0 -3 -7 -3 -15 0 -12 4 -13
19 -5 11 5 35 10 53 10 18 0 41 7 51 14 16 13 15 14 -13 18 -16 3 -47 -1 -67
-9z"/>
<path d="M2706 4173 c-19 -5 -46 -26 -46 -36 0 -3 17 -3 39 0 35 5 39 3 43
-21 7 -33 3 -36 -43 -36 -21 0 -41 -4 -44 -10 -4 -6 17 -10 54 -10 l61 0 0 45
c0 33 -4 45 -15 45 -8 0 -15 7 -15 15 0 16 -2 16 -34 8z"/>
<path d="M1784 4153 c22 -71 117 -201 184 -252 36 -27 43 -29 40 -15 -2 11
-13 20 -25 22 -29 4 -61 45 -69 88 -5 26 -11 34 -28 34 -17 0 -26 11 -41 51
-11 27 -31 60 -44 72 l-23 22 6 -22z"/>
<path d="M1425 4137 c-16 -12 -34 -28 -38 -34 -10 -16 -69 -17 -85 -1 -9 9
-12 8 -12 -4 0 -25 21 -36 75 -39 48 -3 50 -2 51 24 1 34 28 65 63 70 26 4 26
4 1 5 -14 0 -38 -9 -55 -21z"/>
<path d="M1534 4139 c14 -11 26 -27 26 -35 0 -8 7 -14 15 -14 8 0 15 -7 15
-15 0 -8 7 -15 15 -15 8 0 15 -7 15 -15 0 -9 9 -15 23 -15 20 1 21 2 5 14 -10
7 -18 20 -18 28 0 18 -35 50 -77 72 -44 22 -51 20 -19 -5z"/>
<path d="M2490 4141 c0 -5 14 -14 30 -21 17 -7 35 -21 41 -32 14 -26 67 -21
87 10 13 20 13 22 -7 22 -11 0 -21 -6 -21 -14 0 -8 -7 -17 -16 -20 -23 -9 -24
-8 -24 14 0 11 -8 23 -17 26 -10 3 -26 10 -35 15 -22 11 -38 12 -38 0z"/>
<path d="M2434 4115 c14 -59 30 -85 54 -85 21 0 21 2 -14 53 -47 67 -48 68
-40 32z"/>
<path d="M426 4071 c-9 -14 6 -21 49 -21 26 0 48 -6 55 -15 7 -8 17 -15 23
-15 6 0 -2 14 -18 30 -22 23 -38 30 -66 30 -21 0 -40 -4 -43 -9z"/>
<path d="M2280 4045 c0 -8 11 -21 25 -27 14 -6 25 -15 25 -19 0 -5 10 -13 21
-20 21 -11 22 -10 16 25 -5 31 -3 36 13 36 11 0 34 -18 52 -40 17 -23 46 -50
64 -60 41 -26 104 -26 137 0 14 11 35 20 47 20 12 0 31 5 42 11 26 14 38 2 48
-50 7 -40 7 -41 -21 -41 -36 0 -60 -10 -53 -21 11 -18 83 -10 104 11 22 22 19
33 -23 94 -19 27 -23 28 -74 23 l-53 -6 0 32 -1 32 -15 -34 -14 -34 -28 26
c-35 33 -41 34 -35 2 7 -32 28 -49 53 -42 26 7 26 -9 1 -23 -43 -22 -89 -12
-136 31 -24 22 -45 50 -47 62 -3 20 -10 22 -75 25 -61 2 -73 0 -73 -13z"/>
<path d="M595 4000 c34 -36 39 -37 29 -7 -7 24 -22 37 -43 37 -10 0 -4 -11 14
-30z"/>
<path d="M1683 4001 c14 -38 29 -40 25 -4 -2 16 -10 29 -20 31 -15 3 -15 -1
-5 -27z"/>
<path d="M1931 4016 c-11 -13 -11 -17 3 -22 9 -3 22 -4 30 -1 8 3 17 -1 20 -9
3 -8 17 -19 31 -26 14 -6 25 -17 25 -25 0 -7 11 -18 24 -23 24 -9 87 -95 100
-137 4 -12 18 -28 31 -37 13 -8 26 -23 28 -33 2 -10 3 -3 1 16 -2 19 -10 39
-19 43 -8 5 -15 18 -15 29 0 11 -7 22 -15 25 -8 4 -15 12 -15 20 0 8 -6 14
-14 14 -7 0 -21 16 -30 35 -9 19 -38 57 -65 85 -53 55 -98 72 -120 46z"/>
<path d="M1152 3991 c-11 -7 -11 -9 2 -14 10 -4 16 -1 16 8 0 17 -1 17 -18 6z"/>
<path d="M3365 3957 c-47 -27 -53 -46 -29 -100 18 -40 18 -40 -4 -55 -30 -20
-28 -32 6 -32 35 0 71 34 50 47 -18 11 -48 70 -48 94 0 13 12 25 35 35 19 8
35 19 35 24 0 13 1 13 -45 -13z"/>
<path d="M1188 3961 c8 -5 18 -42 23 -86 6 -43 14 -86 19 -95 13 -24 3 -30
-46 -30 -57 0 -74 -8 -74 -34 1 -19 2 -19 11 -3 8 13 24 17 74 17 63 0 65 1
65 25 0 14 -7 28 -15 31 -12 5 -15 25 -15 95 l0 89 -27 0 c-19 0 -24 -3 -15
-9z"/>
<path d="M1393 3943 c-7 -15 -12 -52 -12 -82 1 -47 3 -51 9 -26 4 17 8 47 9
67 1 33 6 40 34 52 l32 14 -30 1 c-23 1 -33 -5 -42 -26z"/>
<path d="M1523 3959 c13 -8 47 -68 47 -85 0 -1 -16 -4 -36 -6 -32 -3 -38 -7
-50 -43 -7 -22 -11 -48 -8 -58 10 -32 -14 -47 -77 -47 -67 0 -73 9 -37 56 19
25 20 27 3 14 -35 -27 -52 -53 -47 -73 4 -18 12 -19 76 -14 38 2 72 10 74 16
2 6 10 11 18 11 10 0 14 15 14 59 l0 60 43 3 c37 3 42 6 45 30 4 34 -34 88
-62 88 -19 -1 -20 -1 -3 -11z"/>
<path d="M3123 3963 c-12 -2 -27 -11 -35 -20 -11 -14 -7 -15 45 -11 55 5 58 4
63 -21 3 -14 6 -29 7 -33 1 -4 7 -4 13 0 7 5 7 21 2 50 -9 39 -11 42 -41 41
-18 -1 -42 -4 -54 -6z"/>
<path d="M595 3930 c-16 -11 -38 -20 -47 -20 -9 0 -19 -3 -21 -7 -3 -5 30 -7
73 -6 57 1 82 -2 91 -13 25 -30 -18 -67 -53 -45 -17 11 -19 10 -16 -11 4 -31
37 -34 71 -8 50 39 26 118 -31 105 -23 -5 -31 -2 -34 9 -3 14 -7 13 -33 -4z"/>
<path d="M1710 3916 c0 -18 -7 -39 -15 -46 -8 -7 -15 -27 -15 -45 0 -38 -26
-65 -63 -65 -17 0 -27 -5 -27 -15 0 -28 36 -15 77 28 38 38 43 48 49 110 4 37
4 67 0 67 -3 0 -6 -15 -6 -34z"/>
<path d="M2167 3934 c-18 -18 -6 -63 24 -88 26 -22 40 -26 93 -26 39 0 69 -5
82 -15 17 -13 17 -14 2 -15 -9 0 -21 -6 -25 -12 -4 -7 -17 -18 -28 -24 -11 -6
-22 -20 -23 -30 -6 -30 -44 -66 -65 -60 -11 3 -17 0 -14 -7 2 -8 38 -13 101
-15 l98 -2 -8 67 c-9 87 -11 106 -13 116 0 4 -21 7 -46 7 -45 0 -89 17 -132
50 -29 22 -19 31 19 18 34 -12 90 0 123 27 19 16 19 16 -4 5 -22 -11 -80 -9
-146 5 -17 4 -33 3 -38 -1z m216 -216 c6 -44 -1 -58 -28 -58 -13 0 -30 -3 -39
-6 -13 -5 -15 0 -10 27 10 51 22 69 48 69 19 0 25 -6 29 -32z"/>
<path d="M2942 3916 c-16 -8 -22 -18 -20 -36 3 -22 8 -25 38 -24 19 1 44 3 55
5 19 4 21 0 24 -44 1 -24 21 -50 65 -81 29 -21 34 -57 10 -80 -14 -15 -14 -16
4 -16 11 0 25 7 32 15 17 20 -3 67 -41 100 -16 13 -29 34 -29 46 0 13 -16 40
-37 61 -36 37 -36 38 -13 39 18 0 12 4 -20 15 -25 7 -45 13 -45 13 0 -1 -10
-7 -23 -13z m38 -26 c-20 -13 -40 -13 -40 0 0 6 12 10 28 10 21 0 24 -2 12
-10z"/>
<path d="M335 3881 c-38 -13 -75 -34 -75 -42 0 -4 -12 -14 -27 -21 -16 -7 -29
-23 -31 -36 -2 -12 -8 -22 -13 -22 -6 0 -17 -7 -25 -15 -9 -8 -26 -15 -38 -15
-39 0 -65 -39 -72 -109 -6 -53 -10 -64 -31 -72 -23 -8 -23 -10 -23 -158 0
-130 2 -150 15 -145 8 4 15 10 15 15 0 4 9 13 20 19 17 9 22 7 32 -15 6 -14
19 -25 28 -25 10 0 23 -7 30 -15 17 -20 49 -10 76 23 23 28 52 25 61 -7 4 -15
18 -19 76 -24 40 -3 86 -12 102 -21 42 -22 69 -20 103 9 25 21 36 24 75 19 28
-4 47 -2 51 5 14 22 -111 13 -153 -11 l-38 -22 -29 21 c-17 12 -53 23 -88 26
-32 3 -65 12 -75 20 -29 26 -55 28 -94 7 -47 -25 -61 -25 -78 1 -9 13 -29 22
-56 26 l-43 6 0 95 c0 77 4 104 21 139 l21 43 64 0 c60 0 65 2 75 26 12 34 7
39 -16 14 -14 -16 -31 -20 -77 -20 -32 0 -58 1 -58 3 0 1 6 22 14 46 12 41 16
45 61 58 53 16 95 10 95 -12 0 -8 5 -15 10 -15 16 0 12 31 -6 51 -15 17 -15
20 7 47 37 45 102 75 173 80 33 2 65 8 71 13 6 6 -4 9 -25 7 -19 -1 -51 1 -70
5 -19 3 -44 2 -55 -2z"/>
<path d="M2525 3877 c-31 -18 -35 -28 -35 -83 0 -49 27 -103 62 -126 25 -15
31 -8 11 15 -31 35 -63 92 -63 115 0 22 38 44 113 63 33 8 44 14 35 20 -19 13
-100 10 -123 -4z"/>
<path d="M3170 3855 c-7 -9 -11 -18 -8 -20 3 -3 11 1 18 10 7 9 11 18 8 20 -3
3 -11 -1 -18 -10z"/>
<path d="M2026 3773 c-4 -43 -9 -108 -12 -144 -5 -63 -4 -68 22 -88 32 -25 47
-26 65 -5 11 13 9 14 -16 8 -44 -11 -51 8 -43 117 9 139 9 189 -1 189 -5 0
-12 -35 -15 -77z"/>
<path d="M1848 3782 c-7 -10 -25 -22 -40 -25 -15 -4 -30 -16 -34 -30 -3 -12
-12 -29 -19 -37 -16 -18 -46 -104 -43 -121 3 -12 -34 -25 -99 -36 -17 -3 -47
-20 -67 -38 -32 -29 -36 -38 -36 -83 0 -32 5 -54 15 -62 16 -14 20 -47 6 -68
-13 -21 -89 4 -131 42 -33 30 -35 36 -38 107 l-4 76 60 13 c47 10 68 21 96 49
38 38 67 120 33 92 -9 -7 -17 -25 -17 -40 0 -14 -11 -36 -24 -48 -20 -19 -35
-23 -89 -23 -49 0 -66 -4 -71 -15 -3 -9 -3 -57 0 -108 6 -91 7 -93 47 -134 40
-42 43 -43 104 -43 l63 0 0 59 c0 43 -4 60 -15 65 -31 12 -13 116 21 116 8 0
17 7 20 15 5 11 24 15 80 15 l74 0 0 40 c0 52 48 170 70 170 9 0 27 13 40 30
30 35 74 40 90 11 14 -27 12 -81 -5 -111 -18 -31 -18 -80 -1 -102 7 -10 15
-18 18 -18 2 0 4 57 4 128 l-1 127 -47 3 c-36 2 -49 -1 -60 -16z"/>
<path d="M3160 3783 c0 -18 38 -63 53 -63 18 0 3 37 -24 58 -27 22 -29 22 -29
5z"/>
<path d="M3444 3786 c23 -18 44 -20 66 -6 13 8 13 10 -1 10 -9 0 -32 3 -50 6
-32 5 -33 5 -15 -10z"/>
<path d="M726 3757 c-27 -36 -33 -75 -16 -108 13 -24 25 -24 57 1 25 19 25 20
4 20 -12 0 -24 -7 -27 -15 -11 -28 -24 -15 -24 25 0 27 5 43 15 46 8 4 15 12
15 20 0 19 41 27 75 14 29 -11 29 -11 10 9 -30 34 -79 28 -109 -12z"/>
<path d="M2719 3760 c-9 -5 -34 -31 -55 -57 -38 -47 -38 -47 -9 -29 17 10 41
29 56 42 19 18 37 24 71 24 l46 0 4 -72 c2 -40 2 -76 0 -80 -2 -5 -43 -8 -92
-8 -57 0 -91 -4 -96 -12 -5 -8 -2 -9 10 -5 10 4 57 7 104 7 113 0 118 4 105
71 -7 31 -7 62 -2 76 13 35 -13 53 -74 53 -29 0 -59 -5 -68 -10z"/>
<path d="M2410 3747 c0 -9 9 -34 20 -54 l20 -38 0 32 c0 33 -39 93 -40 60z"/>
<path d="M3281 3748 c0 -9 -13 -26 -27 -37 -17 -13 -21 -21 -12 -21 22 0 50
36 45 57 -4 15 -5 15 -6 1z"/>
<path d="M3530 3751 c0 -5 7 -14 15 -21 8 -7 15 -23 15 -36 0 -13 5 -24 10
-24 17 0 11 56 -8 73 -21 19 -32 22 -32 8z"/>
<path d="M864 3718 c7 -37 7 -37 -31 -40 l-38 -4 48 -8 c42 -7 51 -6 71 13 28
26 75 28 77 4 4 -47 -5 -100 -19 -116 -15 -16 -16 -16 -35 0 -10 10 -27 34
-38 53 -18 34 -18 34 -19 9 0 -18 8 -32 24 -43 14 -8 27 -25 31 -36 17 -55 85
15 85 88 0 57 -27 84 -80 81 -27 -2 -45 3 -61 16 l-22 20 7 -37z"/>
<path d="M1560 3709 c0 -11 5 -17 10 -14 6 3 10 13 10 21 0 8 -4 14 -10 14 -5
0 -10 -9 -10 -21z"/>
<path d="M3292 3688 c-46 -35 -57 -78 -24 -97 13 -8 -5 -11 -68 -13 -121 -3
-130 -1 -155 22 -17 16 -32 20 -56 17 l-34 -4 38 -1 c34 -2 37 -4 37 -32 l0
-31 138 3 137 3 3 67 c4 82 17 93 97 83 l53 -6 6 -47 c8 -62 19 -80 40 -63 13
11 12 17 -10 48 -13 20 -24 46 -24 59 0 23 -3 24 -68 24 -62 0 -73 -3 -110
-32z"/>
<path d="M1110 3663 c0 -27 42 -64 82 -72 31 -6 33 -10 33 -46 0 -40 0 -40
-43 -46 -49 -6 -62 -20 -62 -66 0 -45 11 -41 35 12 16 38 24 45 47 45 16 0 28
-4 28 -10 0 -12 27 -14 33 -2 3 4 -5 35 -16 70 -18 54 -24 62 -46 62 -31 0
-40 6 -69 44 -19 24 -22 26 -22 9z"/>
<path d="M2927 3673 c-27 -4 -53 -36 -42 -52 9 -16 40 -5 37 13 -2 13 6 16 49
16 45 0 50 2 39 15 -12 15 -27 16 -83 8z"/>
<path d="M3534 3636 c-7 -19 27 -85 60 -115 35 -33 33 -14 -4 35 -16 21 -30
51 -30 67 0 28 -17 37 -26 13z"/>
<path d="M2100 3625 c0 -8 2 -15 4 -15 2 0 6 7 10 15 3 8 1 15 -4 15 -6 0 -10
-7 -10 -15z"/>
<path d="M2130 3612 c0 -18 93 -112 112 -112 3 0 -1 -18 -9 -40 -10 -26 -24
-42 -37 -45 -12 -2 -59 -13 -106 -25 -47 -12 -95 -22 -107 -23 -21 -2 -34 -27
-14 -27 5 0 12 -15 16 -32 l7 -33 12 35 c19 61 20 61 116 59 95 -2 110 2 110
30 0 10 7 24 15 31 8 7 15 20 15 29 0 9 5 22 11 28 16 16 2 33 -25 33 -20 0
-56 27 -56 42 0 3 -13 20 -30 38 -26 28 -30 30 -30 12z"/>
<path d="M2303 3553 c2 -42 2 -42 22 -23 19 20 19 20 -3 42 l-22 22 3 -41z"/>
<path d="M530 3561 c-32 -5 -35 -9 -38 -43 -4 -51 12 -78 47 -78 41 0 62 29
59 81 -3 48 -9 51 -68 40z m40 -36 c26 -31 -13 -82 -44 -56 -19 16 -21 42 -4
59 16 16 33 15 48 -3z"/>
<path d="M2441 3564 c-1 -13 -71 -84 -83 -84 -12 0 -58 -42 -58 -53 0 -6 8 -3
18 5 9 9 36 25 59 37 48 24 77 61 70 88 -3 10 -5 13 -6 7z"/>
<path d="M745 3550 c-3 -5 0 -10 8 -10 8 0 25 -11 38 -25 13 -13 28 -25 33
-25 4 0 17 -11 28 -25 13 -17 29 -25 51 -25 53 0 99 -18 134 -52 23 -22 36
-29 43 -22 16 16 1 44 -29 50 -14 3 -42 14 -62 25 -20 10 -44 19 -53 19 -9 0
-24 9 -33 20 -10 11 -28 20 -40 20 -15 0 -28 10 -38 30 -12 23 -22 30 -45 30
-16 0 -32 -4 -35 -10z"/>
<path d="M3448 3529 c-22 -23 -24 -36 -3 -19 11 9 19 8 37 -4 12 -9 32 -16 43
-16 17 0 15 5 -15 30 -41 34 -40 34 -62 9z"/>
<path d="M2607 3533 c-4 -3 -7 -28 -7 -54 0 -26 -5 -51 -11 -55 -6 -3 -29 -1
-51 7 -37 12 -41 11 -57 -9 -10 -14 -30 -22 -56 -24 -37 -3 -40 -5 -43 -37
l-3 -34 26 21 c20 16 32 19 50 12 27 -10 35 -5 35 25 0 20 4 22 48 17 60 -5
69 5 74 81 1 31 3 57 2 57 0 0 -4 -3 -7 -7z"/>
<path d="M703 3523 c-16 -6 -17 -79 -3 -88 7 -4 8 3 4 20 -5 21 -3 27 14 32
13 3 20 12 19 24 -1 19 -10 22 -34 12z"/>
<path d="M1951 3470 c0 -19 4 -44 8 -55 7 -18 9 -16 15 12 5 23 3 39 -8 55
-16 22 -16 22 -15 -12z"/>
<path d="M3397 3468 c-4 -14 0 -26 11 -34 22 -16 25 -12 17 25 -8 36 -20 40
-28 9z"/>
<path d="M3609 3474 c-17 -21 -39 -82 -39 -111 0 -17 -6 -23 -23 -23 -13 0
-29 6 -36 13 -10 10 -12 8 -9 -8 3 -18 12 -20 73 -22 63 -1 67 0 37 9 -30 10
-32 14 -27 42 4 17 18 39 31 49 14 11 24 29 24 43 0 28 -12 31 -31 8z"/>
<path d="M2722 3390 c2 -44 0 -80 -4 -80 -5 0 -8 5 -8 10 0 6 -14 10 -31 10
-26 0 -29 -3 -20 -14 6 -7 27 -16 46 -19 40 -6 93 -43 73 -49 -7 -3 10 -21 37
-42 42 -31 56 -36 88 -32 46 5 52 10 43 32 -5 13 -9 15 -18 6 -18 -18 -57 -14
-94 9 -19 11 -34 21 -34 22 0 1 26 1 57 0 32 0 45 1 28 3 -16 3 -44 12 -62 20
-17 7 -36 14 -42 14 -6 0 -11 4 -11 9 0 5 -8 12 -17 14 -10 3 19 3 63 0 53 -3
84 -1 88 6 5 7 -2 11 -16 11 -13 0 -28 4 -33 9 -6 6 -32 11 -60 13 -44 3 -49
5 -45 23 2 11 4 37 5 58 0 32 3 37 23 37 32 0 94 -42 131 -88 22 -28 27 -42
19 -45 -7 -3 -3 -6 9 -6 17 -1 21 -5 16 -18 -7 -17 5 -16 50 2 12 5 17 2 17
-9 0 -11 -9 -16 -28 -16 -25 0 -52 -15 -52 -30 0 -3 18 -4 41 -2 34 4 43 9 56
38 20 40 14 49 -35 49 -33 0 -43 6 -95 67 l-59 68 -65 0 -65 0 4 -80z"/>
<path d="M3179 3461 c-26 -4 -54 -13 -63 -20 -17 -15 -22 -41 -7 -41 5 0 42
-32 83 -71 40 -39 86 -78 101 -86 27 -13 28 -13 25 4 -2 10 -15 24 -30 31 -15
7 -51 36 -82 65 -30 28 -63 57 -73 64 -16 10 -12 12 23 12 40 1 98 23 109 42
7 10 -15 10 -86 0z"/>
<path d="M730 3430 c-11 -7 -3 -10 29 -10 36 0 51 -6 82 -35 22 -19 49 -35 62
-35 24 0 97 -45 97 -60 0 -5 7 -7 15 -4 51 20 -49 94 -127 94 -20 0 -32 7 -39
24 -16 34 -84 49 -119 26z"/>
<path d="M3300 3431 c0 -6 9 -26 21 -45 16 -28 20 -49 17 -96 -2 -50 0 -60 12
-58 26 5 26 114 0 165 -19 38 -50 59 -50 34z"/>
<path d="M3392 3379 c-12 -18 -10 -23 12 -44 14 -13 26 -31 26 -40 0 -8 6 -15
14 -15 8 0 17 -12 19 -27 4 -27 4 -27 6 3 1 21 -9 43 -29 69 -21 26 -27 42
-20 49 14 14 13 26 -3 26 -7 0 -18 -9 -25 -21z"/>
<path d="M2256 3338 c-21 -15 -47 -28 -56 -28 -24 0 -90 -28 -90 -39 0 -4 -12
-14 -27 -21 -16 -7 -23 -15 -16 -17 7 -3 37 9 67 27 30 17 78 38 106 46 48 14
67 31 58 52 -1 5 -21 -4 -42 -20z"/>
<path d="M2606 3311 c-11 -13 -37 -22 -75 -26 -49 -6 -66 -3 -102 15 l-44 22
35 -31 35 -32 -61 6 c-69 7 -80 0 -86 -54 -4 -40 -23 -52 -31 -20 -5 17 -11
20 -29 15 -13 -3 -44 -6 -71 -6 -41 0 -49 -3 -57 -25 -8 -22 -16 -25 -54 -25
-25 0 -48 -4 -51 -10 -4 -6 11 -10 39 -10 36 0 48 5 64 25 17 21 28 25 70 25
36 0 52 -4 56 -16 4 -11 17 -14 43 -12 37 3 38 4 43 48 6 52 23 60 75 36 18
-9 55 -17 82 -18 35 -1 40 -2 16 -5 -34 -4 -73 -43 -73 -72 0 -15 11 -17 88
-13 51 2 97 -1 112 -7 l25 -11 -27 5 c-23 4 -28 2 -28 -15 0 -11 -4 -20 -10
-20 -5 0 -10 -6 -10 -13 0 -21 -44 -57 -69 -57 -20 0 -22 -2 -11 -16 26 -30
63 -13 91 41 30 58 56 75 122 75 45 0 47 -1 36 -21 -11 -21 -9 -58 9 -134 7
-33 10 -37 17 -21 5 11 3 38 -3 62 -8 30 -9 52 -2 69 13 35 -3 64 -41 72 -25
5 -29 10 -30 42 -1 36 -1 36 -8 6 l-6 -30 -113 0 c-114 0 -156 15 -74 26 42 5
62 20 62 47 0 6 4 12 9 12 10 0 64 80 58 86 -2 2 -12 -5 -21 -15z"/>
<path d="M3660 3299 c0 -13 32 -19 95 -19 52 0 64 -3 68 -17 3 -10 5 -3 6 15
l1 33 -85 -3 c-47 -2 -85 -6 -85 -9z"/>
<path d="M890 3270 c20 -13 100 -13 100 0 0 6 -26 10 -57 10 -41 0 -54 -3 -43
-10z"/>
<path d="M726 3253 c25 -5 53 -51 37 -61 -14 -9 -43 -67 -43 -87 0 -8 9 -15
20 -15 15 0 22 9 27 30 7 36 20 39 32 7 7 -17 23 -25 72 -36 70 -16 98 -40 99
-82 0 -39 19 -51 61 -37 19 6 40 12 47 14 6 2 12 14 12 28 0 21 5 25 37 28 29
2 39 8 41 23 2 11 16 30 30 41 24 20 28 20 49 7 21 -14 23 -14 23 5 0 21 -26
42 -52 42 -7 0 -34 -20 -60 -45 -31 -29 -56 -45 -73 -45 -25 0 -29 -6 -25 -47
1 -16 -6 -24 -24 -29 -53 -13 -62 2 -39 64 3 7 -4 12 -19 12 -17 0 -29 8 -36
25 -6 14 -20 26 -29 26 -20 1 -24 2 -70 13 -32 8 -49 39 -44 79 4 29 -18 47
-58 46 -20 -1 -27 -4 -15 -6z"/>
<path d="M1837 3246 c-7 -18 43 -26 143 -24 45 1 58 3 33 5 -23 2 -47 11 -53
19 -17 19 -116 20 -123 0z"/>
<path d="M3732 3253 c-10 -4 -10 -8 -1 -19 15 -18 53 -18 68 0 9 11 7 15 -11
20 -26 7 -38 7 -56 -1z"/>
<path d="M830 3240 c0 -5 5 -10 10 -10 6 0 10 5 10 10 0 6 -4 10 -10 10 -5 0
-10 -4 -10 -10z"/>
<path d="M3642 3184 c-23 -19 -42 -41 -42 -47 0 -7 5 -4 11 6 5 9 15 17 20 17
15 0 69 40 69 51 0 17 -16 9 -58 -27z"/>
<path d="M2998 3198 c-9 -7 -19 -24 -23 -38 -7 -24 -7 -24 11 -9 26 22 61 32
69 19 3 -5 -6 -15 -20 -20 -42 -16 -105 -73 -105 -96 0 -11 11 -31 24 -43 13
-13 27 -34 30 -46 8 -31 56 -45 154 -45 72 0 79 -3 63 -29 -12 -19 -146 -16
-175 5 -11 8 -36 14 -55 14 -20 0 -39 7 -46 17 -7 9 -28 22 -46 28 -41 14 -49
49 -24 106 23 49 14 73 -10 31 -11 -18 -23 -32 -27 -32 -4 0 -8 -24 -8 -54 0
-46 3 -56 25 -70 14 -9 40 -19 58 -23 17 -3 39 -15 48 -26 14 -17 32 -20 131
-25 108 -4 117 -3 137 17 12 12 21 34 21 50 0 28 -2 30 -37 28 -21 -1 -71 0
-111 1 -71 2 -73 3 -83 32 -7 19 -18 30 -29 30 -11 0 -22 5 -26 11 -8 14 50
74 92 94 19 9 38 24 44 35 20 38 -44 67 -82 38z"/>
<path d="M3426 3191 c-6 -17 -2 -31 13 -52 25 -33 27 -62 6 -79 -8 -7 -15 -27
-15 -45 0 -29 4 -34 30 -40 31 -7 33 -12 34 -81 1 -24 11 -39 44 -68 24 -20
50 -36 58 -36 9 0 14 -11 14 -29 0 -37 -76 -108 -126 -117 -19 -3 -37 -11 -41
-17 -4 -7 0 -8 11 -4 10 4 31 7 47 7 20 0 39 9 55 27 13 14 34 31 47 37 12 7
23 22 25 35 7 46 -8 70 -63 106 -52 33 -55 37 -55 75 0 31 -7 48 -34 78 -32
35 -33 39 -20 62 17 32 18 80 0 105 -7 11 -16 29 -18 40 -4 19 -5 18 -12 -4z"/>
<path d="M1713 3189 c-9 -9 -9 -18 0 -36 11 -24 14 -25 73 -18 80 8 101 -8
102 -80 2 -62 25 -100 52 -85 16 8 20 21 20 57 0 29 6 53 17 65 9 10 13 21 9
26 -16 15 -46 -40 -46 -84 0 -24 -4 -44 -8 -44 -12 0 -32 62 -32 97 0 52 -9
63 -50 63 -21 0 -52 3 -69 6 -25 5 -30 10 -26 25 5 14 1 19 -12 19 -11 0 -24
-5 -30 -11z"/>
<path d="M2908 3123 c7 -3 16 -2 19 1 4 3 -2 6 -13 5 -11 0 -14 -3 -6 -6z"/>
<path d="M1561 3085 c-19 -13 -40 -38 -47 -55 -7 -16 -20 -30 -29 -30 -8 0
-15 -5 -15 -11 0 -17 -85 -7 -86 11 -3 40 -15 51 -53 44 -41 -7 -101 -40 -101
-56 0 -6 -11 -8 -25 -5 -16 3 -24 0 -22 -7 8 -25 57 -18 93 13 43 39 56 39 96
1 26 -25 39 -30 80 -30 68 0 88 13 88 55 0 31 4 36 46 55 61 26 74 25 74 -5 0
-14 8 -29 20 -35 11 -6 20 -20 20 -31 0 -23 22 -34 47 -25 15 6 14 9 -7 19
-14 7 -27 24 -30 37 -15 74 -87 101 -149 55z"/>
<path d="M2130 3089 c-25 -5 -52 -12 -60 -15 -8 -4 -18 -7 -22 -6 -3 1 -18
-14 -33 -33 -26 -35 -26 -55 0 -55 19 0 65 -62 65 -86 0 -10 -6 -26 -13 -35
-14 -17 -145 -73 -194 -82 -31 -6 -33 -5 -39 31 -11 65 -35 130 -55 148 -18
16 -19 16 -19 -9 0 -15 4 -27 9 -27 5 0 20 -31 32 -70 12 -38 28 -75 36 -81
23 -20 124 -5 171 25 23 14 45 26 50 26 21 0 42 39 42 78 0 32 -7 49 -30 75
-27 31 -28 35 -14 55 8 12 25 22 37 22 12 0 36 9 52 20 31 21 75 27 75 10 0
-5 -9 -14 -20 -20 -18 -10 -20 -21 -20 -108 0 -95 1 -96 16 -67 9 17 18 56 21
88 6 64 13 73 43 57 15 -8 20 -21 20 -53 0 -40 16 -117 25 -117 2 0 16 12 30
26 l26 26 22 -26 c13 -14 26 -26 30 -26 4 0 16 -9 27 -20 23 -23 27 -60 6 -60
-8 0 -16 -10 -20 -22 -3 -13 -24 -33 -47 -46 -38 -22 -42 -23 -74 -8 -18 9
-35 23 -39 31 -8 23 -67 45 -88 34 -24 -13 -80 -99 -65 -99 18 0 37 21 37 40
0 17 38 40 66 40 8 0 35 -20 60 -45 57 -57 96 -61 138 -13 36 41 66 101 66
131 0 34 -95 107 -138 107 -33 0 -43 15 -44 70 -1 19 -9 37 -22 46 -19 13 -14
14 51 14 40 0 87 -7 109 -15 l39 -16 -25 21 c-44 36 -180 66 -180 40 0 -5 -9
-10 -19 -10 -11 0 -23 5 -26 10 -7 12 -32 11 -95 -1z"/>
<path d="M1255 3068 c-6 -13 -23 -29 -38 -36 -16 -8 -26 -17 -22 -20 3 -3 22
2 43 13 58 30 64 36 51 51 -16 19 -23 18 -34 -8z"/>
<path d="M3590 3048 c0 -42 19 -58 67 -58 24 0 31 -7 50 -53 l22 -52 0 58 c1
42 -3 57 -13 57 -7 0 -19 7 -26 15 -7 8 -23 15 -35 15 -14 0 -32 11 -44 28
l-20 27 -1 -37z"/>
<path d="M599 3019 c-24 -22 -51 -45 -59 -50 -12 -7 -10 -8 7 -9 12 0 27 9 33
19 5 11 25 24 44 31 18 6 42 20 51 30 18 19 17 20 -7 20 -15 0 -42 -16 -69
-41z"/>
<path d="M428 3004 c-35 -19 -50 -47 -42 -79 10 -41 35 -26 48 28 4 18 13 27
26 27 13 0 20 7 20 20 0 24 -15 25 -52 4z"/>
<path d="M585 2950 c-27 -16 -70 -31 -95 -35 -61 -9 -90 -22 -90 -40 0 -13 7
-15 37 -9 21 4 43 13 50 19 6 7 23 10 36 8 17 -3 32 3 51 22 14 14 26 23 26
19 0 -3 8 0 18 7 16 13 16 13 2 -6 -8 -11 -19 -23 -25 -27 -5 -4 -1 -8 10 -8
32 0 65 28 65 56 0 31 -20 30 -85 -6z"/>
<path d="M198 2896 c-26 -19 -22 -27 7 -14 20 9 33 8 65 -7 29 -13 46 -15 62
-8 20 9 19 10 -14 26 -43 20 -96 22 -120 3z"/>
<path d="M2760 2902 c0 -17 36 -42 69 -48 18 -4 44 -17 57 -30 12 -13 28 -24
34 -24 19 0 10 -15 -54 -92 l-63 -76 -39 22 c-37 21 -39 24 -45 85 -6 61 -17
81 -48 81 -8 0 -4 -7 9 -18 26 -21 43 -122 21 -122 -7 0 -11 -10 -9 -22 2 -18
8 -22 27 -20 13 2 21 0 17 -6 -9 -15 43 -52 73 -51 24 0 24 1 6 9 -12 4 -27
16 -35 26 -12 16 -12 17 0 7 24 -22 47 -15 53 15 4 17 20 36 47 52 22 13 40
29 40 36 0 6 7 17 15 24 8 7 15 22 15 34 0 25 -48 76 -71 76 -8 0 -35 11 -61
25 -51 27 -58 29 -58 17z"/>
<path d="M1060 2871 c-13 -25 -13 -88 0 -96 6 -4 10 5 10 20 0 37 17 65 40 65
29 0 60 -36 60 -68 0 -26 3 -28 31 -24 22 3 30 1 25 -7 -4 -6 -14 -11 -22 -11
-8 0 -14 -4 -14 -10 0 -15 36 -12 50 5 15 18 5 35 -20 35 -20 0 -42 34 -54 83
-6 24 -11 27 -51 27 -34 0 -47 -5 -55 -19z"/>
<path d="M3731 2854 c-1 -36 30 -81 66 -95 22 -8 24 -14 21 -65 -2 -45 -7 -59
-23 -68 -11 -5 -31 -18 -45 -26 -14 -9 -58 -20 -98 -24 -86 -7 -107 -17 -115
-48 -6 -22 -5 -22 8 -5 16 22 71 36 139 37 37 0 57 6 82 25 18 14 40 25 48 25
13 0 16 14 16 74 l0 75 -44 36 c-28 23 -46 47 -49 63 -4 25 -4 25 -6 -4z"/>
<path d="M3326 2825 c-19 -40 -15 -55 18 -55 23 0 56 28 56 47 0 13 -33 43
-47 43 -6 0 -18 -16 -27 -35z m44 -20 c0 -8 -7 -15 -15 -15 -16 0 -20 12 -8
23 11 12 23 8 23 -8z"/>
<path d="M112 2838 c-18 -18 -15 -42 8 -56 25 -15 26 -40 3 -49 -10 -4 -36
-19 -57 -35 -21 -15 -45 -28 -53 -28 -10 0 -13 -18 -11 -77 l1 -78 6 65 6 64
70 41 c62 37 70 45 73 75 2 20 -2 36 -10 41 -10 7 -11 12 0 29 10 17 10 20 -6
20 -10 0 -23 -5 -30 -12z"/>
<path d="M513 2820 c-5 -17 -11 -19 -39 -14 -29 5 -39 2 -60 -21 l-25 -27 -20
21 c-23 24 -20 24 -54 11 -14 -5 -30 -21 -35 -35 -5 -14 -21 -30 -34 -36 -37
-17 -43 -41 -8 -33 50 12 77 29 80 51 3 20 7 22 47 16 31 -4 49 -1 66 11 13 9
37 16 54 16 35 0 55 15 55 42 0 25 -21 23 -27 -2z"/>
<path d="M2570 2801 c-5 -11 -10 -47 -10 -79 0 -53 4 -64 30 -92 29 -31 30
-31 30 -9 0 13 -11 35 -25 49 -25 26 -25 28 -10 69 8 23 25 51 37 61 l23 19
-32 1 c-22 0 -36 -6 -43 -19z"/>
<path d="M2115 2790 c-17 -18 -17 -20 -1 -20 9 0 19 7 23 15 9 25 -2 27 -22 5z"/>
<path d="M2967 2772 c-12 -13 -17 -37 -17 -79 0 -42 -5 -64 -15 -73 -22 -18
-20 -43 3 -31 11 6 21 32 30 77 16 83 16 84 53 84 27 0 29 -2 19 -21 -17 -32
-5 -62 35 -83 19 -11 35 -23 35 -28 0 -12 -4 -10 -30 12 -46 40 -90 17 -90
-47 -1 -39 -48 -89 -94 -97 -20 -4 -36 -11 -36 -16 0 -17 -44 -50 -67 -50 -25
0 -46 33 -57 91 -8 44 -50 89 -83 89 -29 0 -27 -23 2 -29 10 -2 32 -16 48 -32
24 -24 28 -36 23 -59 -3 -17 -1 -41 4 -55 9 -23 14 -25 73 -25 65 0 87 11 87
41 0 21 20 29 74 29 23 0 51 7 62 15 10 8 32 15 47 15 19 0 40 13 69 42 l41
42 18 -23 c29 -35 23 -58 -26 -109 -46 -47 -66 -101 -47 -125 6 -6 12 -25 14
-42 3 -27 7 -31 42 -35 42 -5 63 -27 53 -54 -6 -15 -52 -40 -124 -66 -25 -9
-33 -19 -33 -36 0 -13 5 -24 11 -24 6 0 9 9 6 20 -4 16 0 20 22 20 50 0 141
59 141 91 0 6 4 8 9 5 5 -4 9 20 8 52 0 35 6 68 16 87 9 17 17 52 17 79 0 40
3 47 16 42 9 -3 25 1 37 9 13 9 48 16 92 16 38 1 57 4 41 6 -15 3 -48 15 -71
29 -51 28 -55 29 -55 10 0 -8 -15 -23 -34 -34 -33 -20 -46 -50 -46 -111 0 -15
-7 -36 -15 -47 -8 -10 -15 -37 -15 -59 -1 -30 -3 -35 -9 -20 -5 13 -20 22 -42
25 -67 10 -74 99 -13 157 13 12 24 27 24 33 0 5 5 19 12 29 9 14 8 23 -5 41
-8 12 -13 28 -11 35 16 41 -53 20 -102 -30 -24 -25 -42 -35 -64 -35 -41 0 -41
0 -75 -17 l-30 -16 27 27 c17 18 29 44 34 72 7 50 25 57 50 19 28 -44 84 -41
84 4 0 22 -41 61 -64 61 -15 0 -17 6 -11 41 5 31 3 45 -11 60 -22 24 -66 25
-87 1z"/>
<path d="M1091 2770 c-22 -13 33 -44 55 -32 15 9 14 12 -12 25 -18 9 -36 12
-43 7z"/>
<path d="M2060 2715 c0 -19 4 -35 10 -35 12 0 24 45 15 59 -13 22 -25 10 -25
-24z"/>
<path d="M775 2705 c-14 -13 -25 -34 -25 -46 0 -19 3 -18 40 15 44 39 57 43
84 23 16 -12 18 -22 12 -69 -6 -46 -13 -61 -46 -93 l-38 -37 17 -32 c13 -22
26 -32 48 -34 34 -3 50 11 63 57 7 25 6 31 -6 31 -8 0 -17 -13 -20 -30 -8 -38
-40 -41 -56 -4 -10 21 -9 28 2 35 42 25 44 29 48 99 4 58 1 75 -13 90 -26 29
-80 26 -110 -5z"/>
<path d="M1626 2689 c-22 -17 -26 -28 -26 -72 0 -83 -7 -97 -46 -97 -24 0 -34
-5 -34 -15 0 -9 9 -15 23 -15 13 0 27 -3 31 -7 4 -5 11 -8 15 -8 12 0 45 -37
47 -52 2 -8 9 -22 17 -31 42 -49 56 -114 67 -322 4 -80 11 -156 15 -170 9 -34
-10 -80 -32 -80 -10 0 -36 21 -57 45 -37 42 -65 60 -51 33 4 -7 -7 3 -24 22
-32 36 -40 57 -18 44 31 -19 -162 187 -256 272 -28 26 -72 90 -69 102 2 6 -4
12 -13 12 -13 0 -15 -6 -10 -29 5 -22 1 -35 -19 -56 -21 -23 -26 -38 -26 -81
l0 -54 -70 0 c-56 0 -70 -3 -70 -15 0 -13 15 -14 103 -9 56 3 104 10 105 15 8
20 40 7 80 -32 23 -23 39 -45 37 -49 -2 -4 25 -35 60 -68 59 -55 65 -65 65
-100 0 -41 23 -72 52 -72 48 0 162 -79 195 -134 12 -20 12 -20 12 4 1 31 -3
36 -65 88 -30 24 -62 42 -76 42 -14 0 -39 5 -56 11 -29 10 -31 14 -34 67 -3
50 -6 58 -30 70 -38 18 -104 97 -112 132 -8 40 -62 65 -123 56 l-43 -6 0 43
c0 102 27 119 86 53 22 -25 45 -46 51 -46 7 0 22 -18 34 -39 12 -21 32 -44 44
-49 12 -6 39 -41 60 -79 66 -117 86 -142 144 -177 80 -49 101 -52 130 -22 21
23 23 31 17 88 -3 35 -10 117 -16 183 -17 213 -21 238 -47 300 -13 33 -38 74
-53 90 -25 27 -27 32 -15 49 13 17 15 17 37 -7 42 -46 68 -85 68 -101 0 -18
11 -21 26 -7 5 5 23 11 39 14 l30 4 -31 2 c-38 1 -44 19 -36 122 4 64 3 72
-20 97 -14 15 -28 35 -31 45 -9 23 -48 22 -81 -4z m89 -39 c18 -19 17 -20 -3
-20 -11 0 -24 -4 -27 -10 -3 -5 -19 -10 -36 -10 -21 0 -29 5 -29 18 0 43 63
58 95 22z m14 -127 c0 -42 -2 -45 -12 -28 -7 11 -24 31 -39 46 -33 32 -35 39
-9 39 11 0 23 5 26 10 14 22 35 -19 34 -67z"/>
<path d="M582 2674 c-16 -11 -22 -25 -22 -51 0 -38 4 -37 -67 -17 -14 4 -23 2
-23 -5 0 -6 9 -11 20 -11 11 0 20 -6 20 -14 0 -20 27 -27 41 -10 6 8 14 28 18
46 5 22 17 37 39 50 19 10 37 16 42 13 5 -3 11 -1 15 5 10 16 -58 12 -83 -6z"/>
<path d="M671 2619 c-1 -53 1 -57 25 -63 32 -8 31 -10 39 38 6 28 5 37 -4 32
-6 -4 -11 -18 -11 -32 0 -26 -14 -32 -27 -11 -4 6 -10 30 -14 52 -6 38 -7 37
-8 -16z"/>
<path d="M207 2650 c-14 -36 -27 -101 -22 -110 10 -15 118 -13 113 3 -3 6 -19
13 -36 15 -29 3 -31 7 -40 55 -5 29 -11 45 -15 37z"/>
<path d="M360 2591 c-14 -28 -12 -58 4 -64 10 -4 13 -1 10 7 -3 7 7 27 21 45
l27 31 -26 0 c-15 0 -30 -8 -36 -19z"/>
<path d="M3397 2592 c-13 -14 -15 -22 -7 -27 16 -10 33 9 28 30 -3 16 -5 15
-21 -3z"/>
<path d="M1153 2573 c-27 -5 -40 -21 -45 -53 -5 -39 -48 -39 -76 0 -23 30 -64
41 -77 20 -3 -5 3 -10 14 -10 12 0 21 -7 21 -15 0 -8 15 -24 33 -35 54 -33
106 -22 121 27 8 25 64 63 91 63 10 0 27 -7 37 -17 22 -20 24 -11 2 11 -15 15
-68 19 -121 9z"/>
<path d="M2155 2570 c-3 -5 -1 -18 4 -29 7 -13 7 -29 0 -50 -8 -23 -7 -37 4
-60 14 -29 14 -29 -17 -36 -17 -4 -63 -8 -103 -9 -42 -1 -78 -7 -87 -15 -10
-9 -16 -9 -16 -3 0 13 -24 27 -65 36 l-30 7 43 -43 43 -44 1 -353 c1 -262 4
-354 13 -359 9 -5 14 -88 18 -301 5 -236 9 -296 20 -310 10 -11 17 -58 23
-156 9 -134 9 -136 12 -53 1 47 -2 128 -8 180 -16 142 -31 427 -28 525 3 85 4
88 31 101 15 7 34 27 43 45 9 18 30 48 45 68 24 31 30 49 35 113 4 51 2 76 -5
76 -6 0 -11 -8 -11 -17 0 -10 -25 -45 -55 -78 -30 -33 -55 -68 -55 -77 0 -18
-16 -23 -43 -12 -13 5 -16 49 -17 309 -1 361 -15 331 146 320 102 -7 105 -7
139 19 19 15 35 36 35 46 0 35 22 33 61 -7 l39 -39 -18 -55 c-10 -31 -28 -69
-40 -84 -12 -15 -22 -33 -22 -39 0 -28 -62 -129 -102 -168 -16 -14 -28 -36
-28 -49 l0 -23 28 27 c15 14 43 56 62 92 19 37 50 84 68 105 20 24 32 49 32
68 0 16 7 46 15 65 19 47 19 91 0 107 -9 7 -13 21 -10 31 5 14 -1 22 -20 29
-21 8 -31 6 -55 -11 -16 -12 -34 -35 -41 -50 -7 -19 -19 -29 -33 -29 -19 0
-21 5 -21 63 0 34 -4 72 -8 85 -11 28 6 29 34 1 16 -16 23 -18 35 -9 7 7 11
16 8 21 -3 5 0 9 5 9 6 0 11 7 11 15 0 8 -4 15 -10 15 -5 0 -10 -4 -10 -10 0
-6 -9 -6 -26 0 -32 13 -61 13 -69 0z m7 -202 c-8 -8 -17 -8 -34 0 -22 10 -21
11 12 11 26 1 31 -2 22 -11z m-96 -663 c-73 -57 -88 -66 -101 -62 -21 9 -14
47 9 47 23 0 66 37 66 57 0 7 10 23 23 36 l22 22 3 -40 c3 -33 -1 -43 -22 -60z"/>
<path d="M2482 2525 c-33 -27 -52 -31 -69 -14 -8 8 -34 8 -96 -1 -75 -11 -84
-15 -79 -32 3 -14 10 -17 26 -12 11 4 23 10 26 15 10 14 117 21 126 8 14 -23
8 -118 -10 -137 -17 -19 -23 -102 -7 -102 5 0 11 19 15 42 4 23 13 49 20 58
15 17 26 121 12 113 -5 -3 -7 0 -4 8 3 9 19 14 44 14 37 0 39 -2 42 -35 4 -39
36 -80 64 -80 10 0 18 -3 18 -8 0 -7 -83 -65 -130 -90 -14 -7 -32 -20 -41 -28
-8 -8 -20 -14 -26 -14 -10 0 -45 -35 -58 -60 -6 -11 -3 -10 12 3 11 9 24 17
30 17 6 0 16 7 23 15 7 8 20 15 29 15 20 0 75 27 120 60 24 16 47 23 79 23 38
0 48 -4 66 -28 13 -18 23 -51 26 -84 4 -46 9 -56 26 -61 12 -3 41 -29 64 -58
23 -29 48 -56 56 -59 8 -3 48 -2 89 2 81 7 94 20 50 49 -47 31 -65 85 -63 185
3 76 0 93 -15 108 -18 17 -19 17 -40 -9 -12 -14 -38 -30 -57 -35 -26 -7 -36
-15 -38 -34 -9 -66 -40 -45 -57 38 l-12 58 -42 6 c-49 6 -57 15 -66 77 -10 68
-31 91 -82 92 -30 0 -50 -7 -71 -25z m118 -30 c0 -19 9 -52 20 -72 11 -20 17
-39 13 -42 -3 -3 -8 -1 -10 6 -2 7 -20 22 -39 33 -19 12 -34 29 -34 39 0 9 -5
22 -12 29 -16 16 7 42 38 42 21 0 24 -5 24 -35z m128 -157 c5 -38 -21 -37 -49
3 l-21 30 33 -3 c29 -2 35 -7 37 -30z m224 -27 c2 -21 0 -49 -3 -62 -16 -57
-9 -129 16 -169 l25 -40 -54 0 c-52 0 -57 2 -83 38 -15 20 -44 56 -65 79 -45
50 -49 68 -13 51 21 -9 29 -8 47 8 12 10 18 13 14 7 -5 -9 -2 -11 8 -7 9 3 16
12 16 20 0 8 4 14 10 14 5 0 13 12 16 28 7 27 41 72 55 72 4 0 9 -17 11 -39z"/>
<path d="M400 2510 c0 -6 7 -10 15 -10 8 0 15 2 15 4 0 2 -7 6 -15 10 -8 3
-15 1 -15 -4z"/>
<path d="M511 2488 c-11 -29 -6 -35 14 -18 12 10 24 10 60 0 35 -10 52 -10 70
-2 25 12 25 11 25 -43 0 -54 13 -105 27 -105 5 0 9 40 10 88 2 86 1 88 -22 90
-13 1 -36 -5 -51 -13 -27 -14 -55 -8 -69 15 -12 19 -55 11 -64 -12z"/>
<path d="M1280 2487 c0 -27 -28 -57 -53 -57 -9 0 -20 -8 -25 -17 -29 -57 66
-59 120 -3 9 10 22 20 29 22 7 2 9 10 5 16 -5 9 -14 8 -36 -3 -40 -21 -41 -20
-34 25 4 22 4 40 0 40 -3 0 -6 -11 -6 -23z"/>
<path d="M2 2363 c-1 -79 1 -143 6 -143 9 0 75 100 70 106 -9 9 -48 -29 -48
-47 0 -10 -4 -19 -10 -19 -5 0 -11 52 -13 123 l-3 122 -2 -142z"/>
<path d="M277 2492 c-5 -7 -8 -32 -7 -55 4 -74 3 -78 -25 -71 -19 5 -25 2 -25
-11 0 -13 -4 -15 -12 -8 -23 18 -72 22 -92 7 -18 -13 -16 -14 27 -14 36 0 49
-4 57 -20 8 -14 17 -19 30 -15 13 4 22 -1 30 -15 11 -20 36 -25 78 -14 19 5
22 13 22 51 0 49 -14 51 -23 3 -7 -32 -31 -39 -68 -20 -24 14 -24 26 1 33 10
3 22 17 26 32 9 34 -8 135 -19 117z"/>
<path d="M1420 2476 c0 -49 62 -64 108 -27 31 27 28 30 -18 19 -33 -9 -44 -8
-59 6 -22 20 -31 20 -31 2z"/>
<path d="M448 2473 c7 -3 16 -2 19 1 4 3 -2 6 -13 5 -11 0 -14 -3 -6 -6z"/>
<path d="M434 2405 c-10 -8 -27 -15 -37 -15 -26 0 -10 -20 15 -20 12 0 30 7
39 16 10 9 30 17 43 17 14 0 23 3 20 8 -8 14 -58 10 -80 -6z"/>
<path d="M529 2376 c-1 0 -3 -11 -4 -23 -2 -19 1 -21 34 -16 20 3 37 7 38 7 1
1 -13 9 -32 18 -19 8 -36 15 -36 14z"/>
<path d="M822 2324 c-14 -9 -36 -14 -52 -12 -25 4 -28 2 -19 -14 6 -11 21 -18
39 -18 17 0 30 -4 30 -9 0 -12 -60 -20 -66 -9 -4 5 -13 0 -21 -12 -8 -12 -13
-24 -10 -26 8 -9 117 29 117 39 0 6 9 -1 21 -14 18 -20 20 -32 15 -79 -4 -30
-9 -64 -12 -77 -6 -21 -3 -23 38 -23 35 0 50 6 68 25 30 32 18 44 -21 21 -49
-29 -59 -17 -59 72 0 43 -3 82 -7 86 -8 8 -10 13 -12 46 -1 24 -19 26 -49 4z"/>
<path d="M600 2307 c0 -34 34 -46 90 -31 37 9 41 12 24 18 -12 3 -34 2 -49 -4
-29 -11 -44 -2 -45 28 0 6 -4 12 -10 12 -5 0 -10 -11 -10 -23z"/>
<path d="M2308 2101 c-10 -10 -28 -42 -42 -72 -13 -29 -33 -63 -45 -73 -12
-11 -35 -42 -52 -69 l-30 -49 65 58 c39 33 66 66 66 77 0 11 14 46 31 78 34
62 36 78 7 50z"/>
<path d="M1742 1401 c0 -112 -4 -177 -11 -184 -7 -7 -11 -72 -11 -186 0 -96 2
-172 5 -169 3 2 7 75 10 161 4 103 11 168 20 191 20 48 20 300 1 335 -12 21
-14 2 -14 -148z"/>
<path d="M1713 651 c2 -176 3 -180 20 -158 13 16 16 33 13 62 -3 22 -10 92
-16 155 -7 63 -13 117 -15 119 -2 2 -3 -78 -2 -178z"/>
<path d="M2016 600 c3 -47 4 -152 3 -235 -1 -141 0 -152 21 -178 29 -36 24
-112 -9 -137 -11 -8 -31 -23 -43 -33 l-23 -18 35 6 c56 9 71 31 76 118 4 59 2
81 -11 100 -13 20 -17 62 -21 208 -3 101 -9 188 -14 194 -4 5 -10 21 -13 35
-3 14 -3 -13 -1 -60z"/>
<path d="M1712 360 c0 -61 1 -63 10 -28 7 25 6 47 0 65 -9 24 -10 18 -10 -37z"/>
<path d="M1679 170 c-2 -36 -3 -89 -1 -117 l3 -53 135 0 c104 0 135 3 132 13
-3 8 -39 13 -121 15 l-117 3 0 42 c-1 23 -7 69 -14 102 l-13 60 -4 -65z"/>
</g>
</svg>
