<?xml version="1.0" standalone="no"?>
<!DOCTYPE svg PUBLIC "-//W3C//DTD SVG 20010904//EN"
 "http://www.w3.org/TR/2001/REC-SVG-20010904/DTD/svg10.dtd">
<svg version="1.0" xmlns="http://www.w3.org/2000/svg"
 width="422pt" height="648pt" viewBox="0 0 422 648"
 preserveAspectRatio="xMidYMid meet">
<metadata>
Created by potrace 1.8, written by Peter Selinger 2001-2007
</metadata>
<g transform="translate(0,648) scale(0.110017,-0.110017)"
fill="#000000" stroke="none">
<path d="M1268 5773 c7 -3 16 -2 19 1 4 3 -2 6 -13 5 -11 0 -14 -3 -6 -6z"/>
<path d="M1333 5700 c12 -15 24 -24 27 -20 3 3 16 7 28 7 17 1 22 -2 18 -12
-3 -8 0 -17 7 -21 7 -4 9 -4 5 1 -4 4 -3 14 3 22 12 13 11 13 -27 17 -6 1 -19
8 -28 16 -10 7 -26 14 -36 15 -17 1 -17 -1 3 -25z"/>
<path d="M1645 5691 c5 -34 12 -48 19 -40 2 2 -3 20 -10 39 l-14 35 5 -34z"/>
<path d="M2088 5693 c7 -3 16 -2 19 1 4 3 -2 6 -13 5 -11 0 -14 -3 -6 -6z"/>
<path d="M1440 5680 c0 -19 5 -25 17 -22 7 2 13 -2 13 -7 0 -6 7 -8 15 -5 12
5 15 -2 15 -30 0 -20 5 -36 10 -36 12 0 16 10 24 56 4 28 3 31 -14 27 -11 -3
-31 2 -45 11 -28 19 -35 20 -35 6z"/>
<path d="M2120 5670 c0 -5 7 -10 16 -10 8 0 12 5 9 10 -3 6 -10 10 -16 10 -5
0 -9 -4 -9 -10z"/>
<path d="M1350 5645 c0 -8 6 -15 14 -15 22 0 28 17 10 24 -22 9 -24 8 -24 -9z"/>
<path d="M1074 5509 c-3 -5 1 -6 9 -3 9 3 16 -3 20 -15 3 -14 10 -19 21 -15
11 4 16 1 16 -12 0 -9 3 -14 6 -11 4 4 1 19 -5 35 -9 21 -19 30 -37 30 -13 0
-27 -4 -30 -9z"/>
<path d="M1289 5511 l-26 -6 34 -34 c19 -19 31 -27 27 -18 -3 10 -1 17 5 17
15 0 14 37 -1 42 -7 2 -25 2 -39 -1z m16 -21 c3 -5 1 -10 -4 -10 -6 0 -11 5
-11 10 0 6 2 10 4 10 3 0 8 -4 11 -10z"/>
<path d="M1350 5470 c0 -11 6 -20 13 -20 19 0 27 10 20 26 -8 21 -33 17 -33
-6z"/>
<path d="M986 5467 c3 -10 9 -15 12 -12 3 3 0 11 -7 18 -10 9 -11 8 -5 -6z"/>
<path d="M1166 5453 c-6 -14 -5 -15 5 -6 7 7 10 15 7 18 -3 3 -9 -2 -12 -12z"/>
<path d="M1232 5438 c6 -18 25 -20 31 -3 5 10 0 15 -14 15 -12 0 -19 -5 -17
-12z"/>
<path d="M1400 5442 c0 -5 12 -19 26 -33 l26 -24 -7 25 c-10 31 -45 56 -45 32z"/>
<path d="M955 5431 l-30 -7 36 -5 c27 -3 35 -1 32 8 -3 7 -6 12 -7 12 0 -1
-14 -4 -31 -8z"/>
<path d="M1106 5386 c7 -58 7 -59 -16 -53 -16 4 -20 3 -12 -5 6 -6 22 -8 38
-4 22 6 25 9 13 17 -12 7 -12 10 0 18 11 7 11 9 0 14 -10 4 -11 8 -3 14 6 4
13 16 17 25 4 12 2 15 -10 11 -8 -3 -19 0 -24 8 -6 9 -7 -9 -3 -45z"/>
<path d="M2695 5421 c-13 -5 -3 -8 30 -8 33 0 43 3 30 8 -11 4 -24 8 -30 8 -5
0 -19 -4 -30 -8z"/>
<path d="M867 5376 c-3 -8 2 -16 14 -19 21 -6 34 7 24 23 -9 15 -32 12 -38 -4z"/>
<path d="M2507 5376 c-4 -9 -2 -16 3 -16 5 0 11 -8 13 -17 4 -15 5 -15 6 2 0
11 -3 26 -8 33 -7 11 -9 11 -14 -2z"/>
<path d="M1077 5359 c7 -7 15 -10 18 -7 3 3 -2 9 -12 12 -14 6 -15 5 -6 -5z"/>
<path d="M1160 5360 c-9 -6 -10 -10 -3 -10 6 0 15 5 18 10 8 12 4 12 -15 0z"/>
<path d="M1291 5361 c-9 -6 -10 -11 -2 -15 6 -4 11 -2 11 4 0 7 7 9 16 6 8 -3
12 -2 9 4 -8 12 -16 12 -34 1z"/>
<path d="M920 5320 c17 -17 70 -23 70 -7 0 17 -7 20 -47 23 -40 2 -41 2 -23
-16z"/>
<path d="M1160 5330 c-9 -6 -10 -10 -3 -10 6 0 15 5 18 10 8 12 4 12 -15 0z"/>
<path d="M1077 5295 c3 -8 9 -12 14 -9 12 7 11 11 -5 17 -10 4 -13 1 -9 -8z"/>
<path d="M925 5270 c-3 -11 -11 -20 -16 -20 -5 0 -9 -9 -9 -20 0 -11 7 -20 15
-20 9 0 15 9 15 24 0 31 14 40 40 26 16 -8 20 -8 20 3 0 8 -10 17 -22 21 -34
9 -36 8 -43 -14z"/>
<path d="M1061 5275 c29 -37 31 -44 8 -40 -17 4 -19 2 -9 -10 7 -8 8 -15 3
-15 -5 0 -9 -9 -9 -20 0 -16 7 -20 31 -19 26 0 27 2 10 9 -11 5 -14 9 -7 9 7
1 10 6 7 11 -3 6 -2 10 3 10 5 0 9 13 9 30 0 16 -4 27 -9 24 -5 -3 -19 2 -31
13 -22 18 -22 18 -6 -2z"/>
<path d="M1230 5245 c0 -28 4 -35 19 -35 16 0 19 5 15 27 -10 55 -34 60 -34 8z"/>
<path d="M1160 5262 c0 -5 7 -9 15 -9 8 0 12 4 9 9 -3 4 -9 8 -15 8 -5 0 -9
-4 -9 -8z"/>
<path d="M1365 5250 c-3 -5 -1 -10 4 -10 6 0 11 5 11 10 0 6 -2 10 -4 10 -3 0
-8 -4 -11 -10z"/>
<path d="M1830 5228 c0 -12 -7 -30 -17 -40 -15 -17 -15 -18 0 -18 10 0 17 6
17 13 0 8 9 13 23 12 12 -2 21 -8 20 -14 -2 -6 3 -11 10 -11 7 0 13 16 15 41
2 38 2 39 -19 29 -15 -8 -19 -9 -15 -1 4 7 -1 11 -13 11 -15 0 -21 -6 -21 -22z"/>
<path d="M760 5225 c7 -8 8 -15 3 -15 -16 0 -8 -45 9 -48 8 -2 21 4 28 13 11
13 10 14 -4 9 -13 -5 -15 0 -12 25 3 25 0 31 -17 31 -16 0 -17 -3 -7 -15z"/>
<path d="M867 5199 c3 -11 14 -19 24 -19 23 0 15 26 -10 33 -14 3 -17 0 -14
-14z"/>
<path d="M956 5181 c-4 -5 3 -7 14 -4 23 6 26 13 6 13 -8 0 -17 -4 -20 -9z"/>
<path d="M1198 5173 c6 -2 18 -2 25 0 6 3 1 5 -13 5 -14 0 -19 -2 -12 -5z"/>
<path d="M1021 5145 c-1 -16 -4 -47 -7 -67 -6 -33 -9 -37 -33 -34 -14 2 -18 1
-8 -1 9 -2 17 -9 17 -15 0 -6 2 -9 5 -6 3 3 30 0 60 -7 47 -11 55 -11 55 1 0
9 -11 14 -28 14 -26 0 -29 4 -41 63 -17 82 -19 88 -20 52z"/>
<path d="M1351 5144 c0 -11 3 -14 6 -6 3 7 2 16 -1 19 -3 4 -6 -2 -5 -13z"/>
<path d="M1627 5153 c-6 -12 62 -73 68 -62 4 5 -7 23 -24 39 -31 32 -37 35
-44 23z"/>
<path d="M1840 5135 c-15 -28 -10 -38 14 -29 16 6 23 54 8 54 -5 0 -15 -11
-22 -25z"/>
<path d="M2010 5131 c0 -17 5 -33 10 -36 6 -4 10 8 10 29 0 20 -4 36 -10 36
-5 0 -10 -13 -10 -29z"/>
<path d="M1114 5141 c4 -5 0 -11 -6 -14 -7 -2 2 -7 20 -11 17 -4 32 -12 32
-17 0 -5 5 -9 10 -9 16 0 11 26 -8 43 -19 18 -57 24 -48 8z"/>
<path d="M731 5128 c-22 -8 -23 -10 -9 -24 9 -9 38 -18 64 -21 48 -5 48 -5 26
12 -12 9 -27 13 -34 9 -7 -5 -9 -2 -5 9 7 20 -11 27 -42 15z"/>
<path d="M1240 5120 c-13 -8 -13 -10 2 -10 9 0 20 5 23 10 8 13 -5 13 -25 0z"/>
<path d="M1400 5125 c-8 -33 -6 -63 6 -85 11 -22 13 -22 13 -5 0 28 -16 102
-19 90z"/>
<path d="M1795 5081 c-10 -17 34 -34 51 -20 8 6 14 15 14 20 0 12 -57 11 -65
0z"/>
<path d="M1192 5050 c0 -19 2 -27 5 -17 2 9 2 25 0 35 -3 9 -5 1 -5 -18z"/>
<path d="M1591 5051 c-1 -20 1 -21 14 -11 16 14 21 25 6 16 -5 -4 -12 0 -14 6
-3 7 -6 2 -6 -11z"/>
<path d="M1710 5061 c-8 -6 -17 -8 -20 -6 -4 2 -7 -1 -7 -8 0 -7 -3 -23 -7
-37 -5 -20 -3 -18 10 7 9 17 26 36 38 41 11 6 17 11 11 11 -5 0 -17 -3 -25 -8z"/>
<path d="M1251 5034 c0 -11 3 -14 6 -6 3 7 2 16 -1 19 -3 4 -6 -2 -5 -13z"/>
<path d="M945 5012 c-12 -8 -18 -30 -17 -57 1 -10 -4 -25 -10 -33 -9 -10 -6
-12 15 -8 22 4 27 1 27 -15 0 -10 4 -19 9 -19 5 0 12 -12 14 -27 2 -16 5 -4 6
25 1 45 -2 52 -18 52 -24 0 -34 26 -20 51 12 23 9 42 -6 31z"/>
<path d="M2772 4990 c0 -14 2 -19 5 -12 2 6 2 18 0 25 -3 6 -5 1 -5 -13z"/>
<path d="M716 4975 c4 -8 10 -12 15 -9 11 6 2 24 -11 24 -5 0 -7 -7 -4 -15z"/>
<path d="M593 4955 c-7 -20 0 -27 31 -29 14 0 26 -7 26 -13 0 -7 10 -13 23
-13 l22 0 -25 20 c-14 11 -31 18 -37 15 -8 -2 -13 4 -13 15 0 24 -18 27 -27 5z"/>
<path d="M770 4960 c0 -5 5 -10 11 -10 5 0 7 5 4 10 -3 6 -8 10 -11 10 -2 0
-4 -4 -4 -10z"/>
<path d="M1558 4963 c7 -3 16 -2 19 1 4 3 -2 6 -13 5 -11 0 -14 -3 -6 -6z"/>
<path d="M718 4933 c6 -2 18 -2 25 0 6 3 1 5 -13 5 -14 0 -19 -2 -12 -5z"/>
<path d="M1100 4925 c0 -8 -4 -15 -10 -15 -5 0 -10 -4 -10 -8 0 -5 7 -9 15 -9
9 0 15 10 15 24 0 13 -2 23 -5 23 -3 0 -5 -7 -5 -15z"/>
<path d="M1831 4896 c-9 -10 -8 -15 2 -19 8 -3 13 3 13 14 0 23 0 23 -15 5z"/>
<path d="M3068 4895 c-1 -10 -23 -26 -48 -36 -36 -14 -40 -18 -20 -18 45 -1
70 11 76 36 4 13 4 26 1 29 -3 3 -7 -2 -9 -11z"/>
<path d="M1491 4864 c0 -11 3 -14 6 -6 3 7 2 16 -1 19 -3 4 -6 -2 -5 -13z"/>
<path d="M1964 4855 c1 -8 8 -21 14 -27 9 -9 12 -6 12 15 0 17 -5 27 -14 27
-8 0 -13 -7 -12 -15z"/>
<path d="M1855 4850 c-3 -5 -1 -10 4 -10 6 0 11 5 11 10 0 6 -2 10 -4 10 -3 0
-8 -4 -11 -10z"/>
<path d="M1500 4821 c0 -6 4 -13 10 -16 6 -3 7 1 4 9 -7 18 -14 21 -14 7z"/>
<path d="M1785 4820 c-3 -5 1 -10 10 -10 9 0 13 5 10 10 -3 6 -8 10 -10 10 -2
0 -7 -4 -10 -10z"/>
<path d="M1400 4791 c0 -6 4 -13 10 -16 6 -3 7 1 4 9 -7 18 -14 21 -14 7z"/>
<path d="M1615 4779 c-4 -6 -5 -12 -2 -15 2 -3 7 2 10 11 7 17 1 20 -8 4z"/>
<path d="M570 4760 c-13 -8 -12 -10 3 -10 9 0 17 5 17 10 0 12 -1 12 -20 0z"/>
<path d="M1406 4747 c3 -10 9 -15 12 -12 3 3 0 11 -7 18 -10 9 -11 8 -5 -6z"/>
<path d="M1261 4712 c-1 -7 -8 -20 -16 -28 -23 -23 -18 -33 15 -28 23 4 30 1
30 -10 0 -9 7 -16 15 -16 12 0 14 4 5 19 -5 11 -15 23 -21 26 -6 4 -14 17 -19
29 -5 11 -9 15 -9 8z"/>
<path d="M1499 4713 c-1 -4 -1 -11 0 -15 2 -13 -17 -9 -22 5 -4 9 -6 9 -6 -1
-1 -7 6 -20 14 -28 13 -14 15 -14 15 0 0 8 10 16 23 18 l22 3 -22 13 c-13 7
-24 9 -24 5z"/>
<path d="M1582 4670 c0 -19 2 -27 5 -17 2 9 2 25 0 35 -3 9 -5 1 -5 -18z"/>
<path d="M682 4660 c0 -14 2 -19 5 -12 2 6 2 18 0 25 -3 6 -5 1 -5 -13z"/>
<path d="M1406 4659 c3 -5 16 -9 29 -9 13 0 26 -6 28 -12 3 -8 6 -6 6 5 1 9
-5 18 -11 18 -7 1 -23 3 -35 4 -12 1 -20 -2 -17 -6z"/>
<path d="M3010 4660 c0 -5 5 -10 10 -10 6 0 10 5 10 10 0 6 -4 10 -10 10 -5 0
-10 -4 -10 -10z"/>
<path d="M1350 4645 c0 -8 2 -15 4 -15 2 0 6 7 10 15 3 8 1 15 -4 15 -6 0 -10
-7 -10 -15z"/>
<path d="M476 4641 c-10 -15 10 -22 36 -12 12 6 18 10 11 10 -6 1 -18 4 -26 7
-8 3 -18 1 -21 -5z"/>
<path d="M925 4640 l-40 -7 37 -2 c20 0 40 4 43 9 3 6 5 9 3 9 -2 -1 -21 -5
-43 -9z"/>
<path d="M2520 4643 c0 -7 -6 -13 -14 -13 -13 0 -26 -19 -32 -47 -2 -14 15
-17 31 -5 20 14 33 49 24 63 -6 10 -9 10 -9 2z"/>
<path d="M2807 4624 c-16 -21 -16 -24 -2 -24 16 0 30 22 23 39 -1 5 -11 -2
-21 -15z"/>
<path d="M1090 4605 c0 -14 5 -25 10 -25 6 0 10 11 10 25 0 14 -4 25 -10 25
-5 0 -10 -11 -10 -25z"/>
<path d="M1470 4597 c0 -12 4 -17 8 -12 4 6 11 13 15 16 4 4 1 9 -8 12 -11 5
-15 0 -15 -16z"/>
<path d="M505 4600 c3 -5 15 -10 26 -10 10 0 19 5 19 10 0 6 -12 10 -26 10
-14 0 -23 -4 -19 -10z"/>
<path d="M3240 4599 c0 -5 5 -7 10 -4 6 3 10 8 10 11 0 2 -4 4 -10 4 -5 0 -10
-5 -10 -11z"/>
<path d="M1033 4593 c4 -6 1 -14 -5 -16 -7 -3 0 -6 16 -6 16 -1 27 0 25 2 -2
1 -13 9 -23 17 -11 8 -17 10 -13 3z"/>
<path d="M1390 4585 c7 -8 15 -15 17 -15 3 0 0 7 -7 15 -7 8 -15 15 -17 15 -3
0 0 -7 7 -15z"/>
<path d="M733 4556 c3 -20 0 -39 -6 -45 -9 -9 -8 -11 6 -6 20 8 25 85 6 85 -8
0 -10 -12 -6 -34z"/>
<path d="M2265 4560 c3 -5 10 -10 16 -10 5 0 9 5 9 10 0 6 -7 10 -16 10 -8 0
-12 -4 -9 -10z"/>
<path d="M2485 4541 c-3 -5 -1 -12 4 -16 6 -3 8 -12 5 -19 -3 -8 -2 -16 3 -19
4 -3 8 10 8 29 0 33 -8 43 -20 25z"/>
<path d="M814 4518 c-4 -13 -11 -26 -17 -30 -16 -10 -17 -38 -1 -38 8 0 14 9
14 19 0 11 4 22 9 25 12 8 21 46 11 46 -5 0 -12 -10 -16 -22z"/>
<path d="M526 4515 c-5 -11 -8 -23 -8 -27 1 -5 -7 -8 -18 -8 -23 0 -27 -25 -5
-34 20 -7 48 36 43 66 -3 22 -4 22 -12 3z"/>
<path d="M651 4517 c-1 -12 -6 -16 -13 -11 -10 5 -10 4 -1 -6 16 -17 26 -8 20
17 -4 17 -5 17 -6 0z"/>
<path d="M453 4512 c-13 -2 -23 -8 -23 -14 0 -6 -11 -8 -25 -6 -14 3 -25 1
-25 -3 0 -5 20 -9 45 -9 25 0 45 5 45 11 0 5 4 8 9 5 4 -3 17 1 27 8 18 13 17
14 -6 13 -14 -1 -35 -3 -47 -5z"/>
<path d="M1677 4513 c-2 -5 -4 -21 -4 -38 0 -16 1 -22 4 -12 2 9 8 17 11 17
13 -1 42 -27 36 -33 -3 -3 3 -14 14 -25 11 -11 22 -26 26 -33 5 -11 7 -11 12
-1 3 6 10 10 15 6 13 -8 11 4 -8 47 -10 23 -27 43 -45 50 -15 6 -28 15 -28 20
0 11 -27 12 -33 2z"/>
<path d="M2375 4478 c9 -40 33 -69 54 -66 8 2 21 -8 28 -22 9 -17 13 -20 13
-8 0 9 3 23 6 32 4 12 0 16 -15 16 -12 0 -21 6 -21 14 0 7 -9 16 -20 19 -12 3
-20 14 -20 26 0 12 -6 21 -16 21 -12 0 -14 -7 -9 -32z"/>
<path d="M726 4487 c-23 -17 -15 -34 13 -32 22 1 42 15 23 15 -6 0 -12 7 -14
16 -3 13 -6 13 -22 1z"/>
<path d="M1870 4480 c0 -10 68 -26 76 -17 4 3 3 11 -1 17 -5 8 -10 8 -20 0 -9
-8 -15 -8 -20 0 -8 13 -35 13 -35 0z"/>
<path d="M398 4453 c7 -3 16 -2 19 1 4 3 -2 6 -13 5 -11 0 -14 -3 -6 -6z"/>
<path d="M2468 4453 c7 -3 16 -2 19 1 4 3 -2 6 -13 5 -11 0 -14 -3 -6 -6z"/>
<path d="M350 4440 c0 -5 5 -10 11 -10 5 0 7 5 4 10 -3 6 -8 10 -11 10 -2 0
-4 -4 -4 -10z"/>
<path d="M1910 4443 c0 -1 11 -13 24 -26 14 -14 22 -28 18 -33 -4 -4 -2 -4 5
-1 18 11 -7 66 -29 64 -10 -1 -18 -2 -18 -4z"/>
<path d="M782 4410 c-11 -30 -7 -41 13 -33 17 6 19 21 5 43 -7 12 -11 10 -18
-10z"/>
<path d="M1454 4419 c-3 -5 -3 -13 0 -18 4 -5 1 -11 -5 -13 -22 -7 1 -47 29
-51 26 -4 26 -4 -3 -6 -24 -1 -31 -6 -32 -22 -2 -17 2 -20 20 -14 12 3 27 7
33 7 12 1 12 27 0 46 -4 7 -12 10 -17 7 -5 -4 -9 6 -9 21 0 20 4 25 18 22 12
-3 18 1 18 11 0 17 -42 25 -52 10z"/>
<path d="M2283 4414 c-3 -8 3 -24 13 -35 18 -20 18 -21 -1 -35 -10 -8 -14 -14
-8 -14 18 0 38 32 35 53 -4 20 -3 20 22 4 29 -19 40 -22 31 -7 -3 6 -24 19
-46 29 -34 17 -41 18 -46 5z"/>
<path d="M581 4394 c0 -11 3 -14 6 -6 3 7 2 16 -1 19 -3 4 -6 -2 -5 -13z"/>
<path d="M2102 4390 c0 -14 2 -19 5 -12 2 6 2 18 0 25 -3 6 -5 1 -5 -13z"/>
<path d="M390 4396 c0 -9 30 -14 35 -6 4 6 -3 10 -14 10 -12 0 -21 -2 -21 -4z"/>
<path d="M1524 4389 c-3 -6 -2 -15 3 -20 5 -5 9 -1 9 11 0 23 -2 24 -12 9z"/>
<path d="M467 4377 c-3 -7 -2 -19 3 -26 5 -10 8 -9 13 2 3 7 2 19 -3 26 -5 10
-8 9 -13 -2z"/>
<path d="M1574 4377 c-6 -7 -8 -19 -6 -26 3 -8 0 -11 -6 -7 -6 4 -8 -2 -5 -14
4 -16 13 -20 42 -19 33 0 34 1 14 11 -21 10 -28 25 -24 56 2 15 -1 15 -15 -1z"/>
<path d="M1770 4370 c-8 -5 -10 -10 -5 -10 6 0 17 5 25 10 8 5 11 10 5 10 -5
0 -17 -5 -25 -10z"/>
<path d="M756 4351 c-4 -7 -5 -15 -2 -18 9 -9 19 4 14 18 -4 11 -6 11 -12 0z"/>
<path d="M2372 4347 c-9 -11 -10 -17 -2 -22 15 -9 23 -1 18 21 -3 15 -4 16
-16 1z"/>
<path d="M433 4330 c-3 -11 -9 -20 -14 -20 -5 0 -9 -9 -9 -20 0 -19 1 -19 18
-2 9 9 18 27 18 40 2 27 -6 29 -13 2z"/>
<path d="M692 4292 c-1 -44 0 -46 12 -23 13 24 11 57 -4 66 -4 3 -8 -17 -8
-43z"/>
<path d="M1800 4336 c0 -2 7 -7 16 -10 8 -3 12 -2 9 4 -6 10 -25 14 -25 6z"/>
<path d="M2015 4311 c-11 -36 -14 -64 -9 -73 7 -12 34 38 34 63 0 26 -17 33
-25 10z"/>
<path d="M576 4313 c-9 -9 -7 -33 3 -33 12 0 22 28 12 34 -5 3 -11 3 -15 -1z"/>
<path d="M755 4311 c-10 -17 7 -41 31 -41 15 0 22 5 18 13 -7 18 -42 38 -49
28z"/>
<path d="M1222 4300 c0 -14 2 -19 5 -12 2 6 2 18 0 25 -3 6 -5 1 -5 -13z"/>
<path d="M1858 4313 c6 -2 12 -11 12 -19 0 -7 9 -28 19 -45 11 -17 17 -38 14
-45 -6 -16 25 -50 35 -39 4 4 1 10 -5 12 -8 3 -13 23 -13 49 0 24 -5 44 -10
44 -6 0 -15 11 -20 25 -5 14 -17 25 -27 24 -11 0 -13 -3 -5 -6z"/>
<path d="M910 4306 c0 -2 18 -6 40 -8 22 -2 40 0 40 4 0 5 -18 8 -40 8 -22 0
-40 -2 -40 -4z"/>
<path d="M2272 4298 c-7 -7 -20 -13 -29 -13 -9 0 -18 -6 -21 -14 -3 -8 0 -11
6 -7 6 4 8 -2 5 -14 -5 -21 3 -25 31 -14 13 5 14 10 5 20 -8 10 -7 17 5 29 15
15 20 25 13 25 -2 0 -9 -6 -15 -12z"/>
<path d="M2307 4290 c-3 -11 -1 -20 4 -20 5 0 9 9 9 20 0 11 -2 20 -4 20 -2 0
-6 -9 -9 -20z"/>
<path d="M1709 4298 c-5 -18 -6 -38 -1 -34 7 8 12 36 6 36 -2 0 -4 -1 -5 -2z"/>
<path d="M1460 4230 c6 -11 18 -20 27 -20 14 0 13 3 -5 20 -12 11 -24 20 -27
20 -3 0 -1 -9 5 -20z"/>
<path d="M350 4225 c0 -8 -7 -15 -16 -15 -8 0 -12 -5 -9 -11 4 -6 -3 -21 -16
-35 l-22 -24 22 0 c12 0 19 4 16 10 -3 6 -1 10 4 10 6 0 11 9 11 20 0 11 8 24
18 28 22 9 27 32 7 32 -8 0 -15 -7 -15 -15z"/>
<path d="M1365 4233 c30 -7 45 -23 38 -39 -4 -10 3 -14 23 -14 l29 0 -24 19
c-13 10 -21 23 -17 30 5 7 -5 11 -31 10 -22 -1 -29 -3 -18 -6z"/>
<path d="M1701 4224 c0 -11 3 -14 6 -6 3 7 2 16 -1 19 -3 4 -6 -2 -5 -13z"/>
<path d="M1740 4227 c0 -10 8 -17 18 -17 9 0 13 4 7 8 -5 4 -13 11 -17 16 -5
5 -8 2 -8 -7z"/>
<path d="M1184 4215 c-3 -8 -3 -19 1 -25 3 -5 2 -10 -3 -10 -5 0 -12 -10 -15
-21 -4 -15 -11 -20 -21 -16 -10 4 -16 1 -16 -8 0 -8 7 -15 15 -15 8 0 15 -4
15 -9 0 -12 -33 -9 -42 4 -4 6 -8 2 -8 -7 0 -13 8 -18 30 -18 27 0 30 3 30 30
0 20 5 30 15 30 11 0 15 11 15 40 0 41 -6 51 -16 25z"/>
<path d="M2183 4213 c9 -2 23 -2 30 0 6 3 -1 5 -18 5 -16 0 -22 -2 -12 -5z"/>
<path d="M485 4203 c11 -3 27 -11 36 -19 17 -15 29 -9 29 13 0 9 -13 13 -42
12 -24 -1 -34 -4 -23 -6z"/>
<path d="M1960 4192 c0 -15 8 -19 41 -19 22 0 35 3 28 8 -7 4 -18 5 -24 3 -7
-3 -15 2 -18 10 -9 22 -27 20 -27 -2z"/>
<path d="M3325 4181 c-3 -5 -1 -12 5 -16 5 -3 10 1 10 9 0 18 -6 21 -15 7z"/>
<path d="M1580 4160 c13 -11 30 -20 39 -19 10 0 8 4 -7 10 -13 5 -20 13 -17
19 3 6 -4 10 -16 10 l-22 0 23 -20z"/>
<path d="M603 4157 c-27 -12 -30 -24 -5 -24 41 0 51 -4 57 -24 9 -27 16 -20 8
9 -3 12 -11 22 -18 22 -8 0 -15 6 -17 14 -2 10 -8 11 -25 3z"/>
<path d="M1970 4152 c-5 -2 -4 -9 3 -16 9 -11 14 -11 25 0 7 7 19 11 26 8 8
-3 16 -2 19 3 5 8 -52 12 -73 5z"/>
<path d="M1763 4130 c1 -20 8 -25 20 -14 7 8 -3 34 -13 34 -5 0 -8 -9 -7 -20z"/>
<path d="M1372 4110 c2 -16 10 -26 23 -28 12 -2 16 0 9 5 -6 4 -16 17 -23 28
-11 19 -11 19 -9 -5z"/>
<path d="M2016 4106 c1 -12 3 -29 3 -39 1 -25 26 -16 26 9 0 12 6 18 18 18 9
-1 17 4 17 12 0 8 -6 14 -12 15 -7 0 -22 2 -34 3 -15 2 -20 -3 -18 -18z"/>
<path d="M350 4107 c0 -9 -8 -18 -17 -20 -10 -3 3 -3 28 0 38 4 50 2 67 -15
19 -19 22 -20 31 -5 8 15 10 15 26 0 20 -21 31 -21 38 -2 5 10 -4 16 -31 21
-20 4 -41 10 -47 14 -5 4 -29 11 -52 15 -35 5 -43 4 -43 -8z"/>
<path d="M990 4104 c0 -14 3 -14 15 -4 8 7 15 14 15 16 0 2 -7 4 -15 4 -8 0
-15 -7 -15 -16z"/>
<path d="M1070 4106 c0 -8 4 -17 9 -20 5 -4 7 3 4 14 -6 23 -13 26 -13 6z"/>
<path d="M1620 4110 c0 -5 -8 -10 -17 -11 -14 0 -14 -2 3 -9 12 -5 25 -13 29
-19 3 -6 10 -11 14 -11 12 0 9 34 -5 47 -15 16 -24 17 -24 3z"/>
<path d="M1714 4090 c-4 -18 -13 -30 -23 -30 -14 0 -14 -2 -1 -10 11 -7 18 -4
25 11 6 11 14 16 18 13 4 -4 7 -2 7 4 0 7 -4 12 -10 12 -5 0 -7 7 -4 15 4 8 3
15 0 15 -4 0 -9 -13 -12 -30z"/>
<path d="M1804 4065 c0 -34 -4 -59 -11 -63 -7 -4 -15 -30 -19 -58 -5 -46 -4
-52 19 -67 19 -12 27 -13 30 -4 4 9 8 9 14 1 12 -16 54 -37 61 -30 3 3 -5 17
-18 31 -17 18 -21 28 -13 36 14 14 36 2 29 -16 -2 -7 2 -12 12 -11 11 1 17 -8
19 -28 1 -16 6 -32 11 -35 6 -3 10 -54 9 -113 0 -96 -2 -108 -19 -114 -23 -7
-14 -24 14 -24 18 0 20 -4 14 -39 -4 -30 -2 -40 10 -45 8 -3 14 -11 12 -18 -2
-7 2 -13 7 -13 5 0 9 6 7 13 -2 6 2 12 8 12 5 0 10 -6 10 -12 0 -9 3 -9 9 1 7
11 13 10 32 -8 21 -20 22 -21 3 -23 -10 0 -25 -1 -31 -1 -7 1 -11 -3 -8 -7 3
-5 0 -14 -7 -22 -7 -7 -19 -21 -26 -30 -12 -15 -10 -16 15 -11 15 3 59 5 97 4
59 -2 68 0 62 14 -4 10 -2 14 6 9 7 -5 8 -3 4 5 -5 7 -15 10 -23 7 -11 -4 -13
-2 -9 9 3 8 1 15 -3 15 -17 0 -18 25 -3 40 14 13 15 13 10 -1 -4 -10 0 -15 13
-15 17 0 17 2 -2 22 -12 13 -29 21 -38 19 -21 -4 -88 -7 -113 -6 -10 1 -18 6
-18 13 0 6 3 8 6 5 4 -3 15 -2 25 4 14 7 17 15 11 27 -12 24 -6 104 13 157 8
25 15 70 15 100 0 49 -2 55 -21 55 -13 0 -23 10 -30 30 -6 17 -18 30 -27 30
-18 0 -72 58 -72 78 0 6 -9 12 -20 12 -16 0 -20 7 -20 30 0 17 -4 30 -10 30
-5 0 -10 7 -10 15 0 8 -7 15 -15 15 -9 0 -12 6 -9 15 4 8 2 15 -4 15 -5 0 -9
-25 -8 -55z m33 -57 c-3 -8 -6 -5 -6 6 -1 11 2 17 5 13 3 -3 4 -12 1 -19z m38
-138 c3 -5 1 -10 -4 -10 -6 0 -11 5 -11 10 0 6 2 10 4 10 3 0 8 -4 11 -10z
m119 -82 c-3 -4 -11 -5 -19 -1 -21 7 -19 12 4 10 11 0 18 -5 15 -9z m-14 -188
c0 -5 -4 -10 -10 -10 -5 0 -10 5 -10 10 0 6 5 10 10 10 6 0 10 -4 10 -10z m40
-74 c0 -1 -8 -2 -19 -2 -13 0 -18 7 -18 23 l0 23 18 -21 c11 -12 19 -23 19
-23z m24 -111 c-7 -16 -24 -21 -24 -6 0 8 7 13 27 20 1 1 0 -6 -3 -14z"/>
<path d="M570 4100 c0 -5 5 -10 11 -10 5 0 7 5 4 10 -3 6 -8 10 -11 10 -2 0
-4 -4 -4 -10z"/>
<path d="M605 4100 c-4 -6 6 -10 22 -10 22 0 25 2 13 10 -19 12 -27 12 -35 0z"/>
<path d="M763 4063 c9 -2 23 -2 30 0 6 3 -1 5 -18 5 -16 0 -22 -2 -12 -5z"/>
<path d="M2437 4055 c3 -8 9 -12 14 -9 12 7 11 11 -5 17 -10 4 -13 1 -9 -8z"/>
<path d="M1730 4046 c0 -8 5 -18 10 -21 6 -3 10 3 10 14 0 12 -4 21 -10 21 -5
0 -10 -6 -10 -14z"/>
<path d="M590 4030 c-12 -8 -10 -10 8 -10 13 0 20 4 17 10 -7 12 -6 12 -25 0z"/>
<path d="M793 4033 c9 -2 23 -2 30 0 6 3 -1 5 -18 5 -16 0 -22 -2 -12 -5z"/>
<path d="M1020 4020 c0 -5 9 -15 20 -22 11 -7 20 -18 20 -25 0 -7 5 -13 10
-13 6 0 10 -9 10 -21 0 -11 4 -18 9 -15 5 4 12 0 14 -6 4 -10 8 -9 16 2 6 9 7
18 1 24 -6 6 -10 20 -10 33 0 14 -6 23 -15 23 -8 0 -15 7 -15 15 0 10 -10 15
-30 15 -16 0 -30 -4 -30 -10z"/>
<path d="M1126 4015 c-3 -10 -3 -22 3 -28 12 -12 20 4 11 27 -6 19 -7 19 -14
1z"/>
<path d="M1410 4015 c0 -8 2 -15 4 -15 2 0 6 7 10 15 3 8 1 15 -4 15 -6 0 -10
-7 -10 -15z"/>
<path d="M2431 4014 c0 -11 3 -14 6 -6 3 7 2 16 -1 19 -3 4 -6 -2 -5 -13z"/>
<path d="M716 3989 c2 -4 -2 -10 -8 -12 -7 -3 -1 -6 15 -6 16 -1 27 4 27 12 0
7 -9 13 -19 13 -11 0 -18 -3 -15 -7z"/>
<path d="M1456 3985 c4 -8 8 -15 10 -15 2 0 4 7 4 15 0 8 -4 15 -10 15 -5 0
-7 -7 -4 -15z"/>
<path d="M884 3962 c3 -6 0 -13 -6 -16 -7 -3 -2 -4 12 -3 29 2 33 20 6 25 -11
2 -16 0 -12 -6z"/>
<path d="M990 3953 c0 -10 4 -14 8 -8 4 6 11 13 16 18 5 4 2 7 -7 7 -10 0 -17
-8 -17 -17z"/>
<path d="M1152 3953 c-13 -23 5 -40 46 -41 30 -1 32 2 31 31 -1 18 -3 24 -6
15 -5 -22 -31 -24 -39 -3 -8 20 -21 19 -32 -2z"/>
<path d="M1406 3955 c4 -8 15 -15 25 -15 12 0 16 5 13 15 -4 8 -15 15 -25 15
-12 0 -16 -5 -13 -15z"/>
<path d="M2528 3963 c6 -2 18 -2 25 0 6 3 1 5 -13 5 -14 0 -19 -2 -12 -5z"/>
<path d="M778 3928 c-4 -9 5 -14 30 -16 30 -2 33 0 22 13 -14 17 -25 20 -15 5
8 -13 -8 -13 -22 1 -7 7 -12 7 -15 -3z"/>
<path d="M1516 3910 c24 -39 44 -46 44 -15 0 16 -6 25 -16 25 -8 0 -12 5 -9
10 3 6 -3 10 -15 10 -21 0 -21 -1 -4 -30z"/>
<path d="M885 3920 c3 -5 8 -10 11 -10 2 0 4 5 4 10 0 6 -5 10 -11 10 -5 0 -7
-4 -4 -10z"/>
<path d="M1450 3915 c7 -8 14 -40 17 -70 5 -58 -1 -64 -38 -45 -13 7 -19 7
-19 0 0 -5 -6 -10 -14 -10 -11 0 -12 -5 -3 -25 7 -13 14 -20 15 -15 2 6 11 10
19 10 9 0 13 -6 10 -14 -7 -16 25 -27 44 -16 10 7 10 21 3 64 -9 46 -8 56 3
56 12 0 11 3 -1 16 -9 8 -16 26 -16 40 0 15 -6 24 -16 24 -13 0 -14 -3 -4 -15z"/>
<path d="M595 3910 c-3 -6 1 -7 9 -4 18 7 21 14 7 14 -6 0 -13 -4 -16 -10z"/>
<path d="M990 3890 c0 -6 7 -10 15 -10 8 0 15 2 15 4 0 2 -7 6 -15 10 -8 3
-15 1 -15 -4z"/>
<path d="M503 3883 c-35 -4 -47 -33 -15 -33 10 0 23 -5 30 -12 6 -6 14 -9 18
-6 8 8 13 58 5 56 -3 0 -21 -3 -38 -5z m27 -23 c0 -5 -4 -10 -9 -10 -6 0 -13
5 -16 10 -3 6 1 10 9 10 9 0 16 -4 16 -10z"/>
<path d="M330 3870 c0 -5 -16 -12 -35 -16 -20 -3 -35 -12 -35 -20 0 -8 -10
-14 -24 -14 -26 0 -47 -21 -28 -28 7 -2 12 -10 12 -18 0 -9 -12 -14 -36 -14
-31 0 -34 -2 -20 -15 17 -17 42 -20 51 -5 9 15 35 12 35 -4 0 -11 7 -12 27 -7
32 8 43 31 15 31 -11 0 -22 9 -25 20 -3 11 -2 18 2 16 10 -7 36 17 36 34 0 15
32 27 77 29 20 1 26 -3 22 -14 -4 -8 -1 -15 5 -15 6 0 11 4 11 9 0 5 10 12 23
14 19 4 18 4 -5 6 -16 0 -28 6 -28 11 0 6 -18 10 -40 10 -22 0 -40 -4 -40 -10z
m-70 -101 c0 -5 -4 -9 -10 -9 -5 0 -10 7 -10 16 0 8 5 12 10 9 6 -3 10 -10 10
-16z"/>
<path d="M718 3855 c-21 -27 -22 -35 -7 -35 5 0 7 5 4 10 -3 6 3 10 14 10 12
0 21 6 21 14 0 25 -14 25 -32 1z"/>
<path d="M1711 3867 c-1 -10 8 -27 19 -39 11 -12 20 -30 20 -40 0 -11 5 -16
10 -13 16 10 12 -7 -7 -27 -15 -17 -14 -18 18 -18 21 0 29 3 21 8 -13 9 -12
38 2 61 5 8 4 16 -4 21 -7 4 -10 15 -7 23 3 9 -1 21 -9 28 -12 10 -15 10 -12
-1 4 -19 -35 -19 -44 0 -5 12 -7 12 -7 -3z"/>
<path d="M617 3825 c-4 -8 -2 -17 3 -20 6 -4 10 3 10 14 0 25 -6 27 -13 6z"/>
<path d="M1200 3798 c0 -41 2 -43 30 -45 17 -1 30 3 30 8 0 6 -7 9 -15 5 -11
-4 -15 2 -15 20 0 14 -7 32 -15 40 -13 14 -15 11 -15 -28z"/>
<path d="M320 3816 c0 -8 61 -12 66 -4 3 4 -11 8 -30 8 -20 0 -36 -2 -36 -4z"/>
<path d="M510 3805 c0 -8 -5 -15 -12 -15 -6 0 -8 -3 -4 -7 4 -5 14 1 22 11 8
11 14 14 14 8 0 -7 7 -12 16 -12 14 0 14 2 0 15 -8 8 -19 15 -25 15 -6 0 -11
-7 -11 -15z"/>
<path d="M810 3806 c0 -8 14 -17 30 -21 28 -6 30 -10 30 -51 0 -30 4 -43 11
-39 6 4 8 13 5 21 -4 9 2 14 15 14 18 0 20 4 14 27 -4 16 -7 29 -8 29 -1 1
-16 9 -34 18 -24 12 -33 13 -36 3 -4 -9 -6 -9 -6 1 -1 17 -21 15 -21 -2z"/>
<path d="M1830 3802 c0 -19 32 -24 47 -7 5 4 3 5 -4 2 -6 -4 -19 0 -27 9 -15
14 -16 14 -16 -4z"/>
<path d="M785 3800 c-3 -5 -1 -10 4 -10 6 0 11 5 11 10 0 6 -2 10 -4 10 -3 0
-8 -4 -11 -10z"/>
<path d="M3420 3790 c0 -5 11 -10 24 -10 13 0 26 -6 29 -12 4 -10 7 -10 18 -1
16 16 13 19 -33 27 -24 4 -38 3 -38 -4z"/>
<path d="M355 3780 c4 -6 11 -8 16 -5 5 4 9 2 9 -3 0 -13 66 -20 83 -10 7 5
-1 8 -21 8 -18 0 -31 4 -28 8 3 5 -11 9 -30 10 -21 1 -32 -3 -29 -8z"/>
<path d="M595 3780 c4 -6 11 -8 16 -5 14 9 11 15 -7 15 -8 0 -12 -5 -9 -10z"/>
<path d="M540 3770 c0 -5 7 -10 15 -10 18 0 20 -16 3 -23 -7 -3 4 -6 25 -6 41
-1 38 9 -11 37 -26 15 -32 15 -32 2z"/>
<path d="M2277 3769 c-10 -6 -15 -14 -12 -19 3 -5 -4 -25 -15 -44 -11 -20 -16
-36 -11 -36 12 0 32 26 25 33 -6 5 1 15 34 52 16 17 2 26 -21 14z"/>
<path d="M1650 3747 c0 -12 -8 -17 -30 -17 -24 0 -30 -4 -30 -21 0 -20 1 -21
25 -5 14 9 25 14 25 11 0 -4 7 1 16 10 13 12 14 19 5 28 -8 8 -11 7 -11 -6z"/>
<path d="M635 3740 c-3 -5 -1 -10 4 -10 6 0 11 5 11 10 0 6 -2 10 -4 10 -3 0
-8 -4 -11 -10z"/>
<path d="M386 3727 c3 -10 9 -15 12 -12 3 3 0 11 -7 18 -10 9 -11 8 -5 -6z"/>
<path d="M125 3720 c4 -6 11 -8 16 -5 14 9 11 15 -7 15 -8 0 -12 -5 -9 -10z"/>
<path d="M316 3715 c9 -22 -5 -82 -22 -100 -15 -14 -19 -41 -16 -97 2 -23 7
-28 26 -28 14 0 28 5 31 10 3 6 1 10 -4 10 -18 0 -12 24 9 43 22 19 35 22 25
8 -3 -5 -1 -12 4 -15 8 -5 21 25 21 52 0 6 -12 12 -26 12 -24 0 -26 3 -20 28
20 84 19 92 -8 92 -18 0 -24 -4 -20 -15z"/>
<path d="M420 3721 c8 -6 18 -7 22 -5 4 3 8 -1 8 -8 0 -9 3 -9 10 2 9 13 12
13 21 -2 14 -24 29 -23 29 2 0 17 -7 20 -52 20 -36 0 -48 -3 -38 -9z"/>
<path d="M676 3715 c4 -8 10 -12 15 -9 14 8 10 24 -6 24 -9 0 -12 -6 -9 -15z"/>
<path d="M1014 3714 c3 -9 6 -22 6 -30 0 -8 9 -14 20 -14 11 0 20 -7 20 -15 0
-8 -5 -15 -11 -15 -26 0 24 -31 51 -32 16 -1 30 -5 30 -10 0 -5 5 -6 10 -3 6
3 20 3 31 0 17 -6 19 -9 8 -16 -11 -7 -9 -9 7 -9 29 0 36 -10 17 -28 -13 -13
-13 -17 -2 -20 8 -2 20 -11 27 -20 10 -13 11 -7 5 33 -8 61 -19 73 -69 77 -25
2 -38 8 -36 16 1 6 -7 12 -17 12 -24 0 -39 39 -20 50 8 6 0 10 -22 12 -21 2
-33 8 -31 16 1 6 -5 12 -14 12 -11 0 -14 -5 -10 -16z"/>
<path d="M1750 3710 c0 -5 -11 -10 -25 -10 -26 0 -33 -14 -14 -25 11 -7 3 -62
-11 -80 -5 -5 -10 -14 -12 -20 -4 -12 -98 -15 -98 -3 0 4 10 8 22 8 16 0 19 3
11 11 -22 22 -43 2 -42 -38 1 -21 3 -30 6 -20 4 15 14 17 61 15 37 -2 57 -8
58 -15 3 -27 4 -27 20 -5 10 15 13 32 9 51 -3 17 -2 32 4 36 6 3 11 17 11 30
0 13 5 27 10 30 6 3 10 15 10 26 0 10 -4 19 -10 19 -5 0 -10 -4 -10 -10z"/>
<path d="M2950 3701 c0 -5 7 -11 15 -15 9 -3 15 0 15 9 0 8 -7 15 -15 15 -8 0
-15 -4 -15 -9z"/>
<path d="M1636 3691 c-9 -13 15 -27 49 -29 28 -1 29 0 7 9 -13 5 -29 6 -35 2
-7 -4 -6 1 2 10 12 15 11 17 -2 17 -9 0 -18 -4 -21 -9z"/>
<path d="M3000 3685 c7 -9 15 -13 17 -11 7 7 -7 26 -19 26 -6 0 -6 -6 2 -15z"/>
<path d="M83 3650 c1 -11 7 -22 14 -24 21 -8 23 9 3 27 -17 15 -19 14 -17 -3z"/>
<path d="M677 3646 c-4 -10 -3 -15 3 -11 6 3 10 -2 11 -12 0 -10 3 -13 5 -6 3
7 1 20 -4 29 -8 15 -9 15 -15 0z"/>
<path d="M3053 3648 c-2 -5 10 -8 26 -8 17 0 31 3 31 8 0 4 -12 7 -26 7 -14 0
-28 -3 -31 -7z"/>
<path d="M480 3640 c0 -7 -19 -32 -42 -56 -24 -25 -43 -55 -43 -68 -1 -19 5
-23 35 -24 30 -2 38 2 54 30 17 31 19 32 27 13 7 -15 8 -13 3 10 -3 17 -13 38
-21 48 -15 15 -15 17 1 17 11 0 16 6 14 17 -4 19 -28 30 -28 13z"/>
<path d="M1591 3633 c-1 -16 5 -23 17 -23 10 0 13 3 6 8 -6 4 -14 14 -17 22
-4 10 -6 8 -6 -7z"/>
<path d="M133 3629 c-6 -6 -9 -18 -6 -25 3 -9 -2 -14 -16 -14 -12 0 -21 5 -21
10 0 6 -4 10 -10 10 -6 0 -6 -9 0 -24 5 -13 6 -27 3 -30 -13 -12 14 -5 33 9
27 21 32 19 40 -17 4 -18 9 -27 11 -20 3 7 21 12 43 12 48 0 54 8 30 47 -12
20 -15 34 -9 40 6 6 -8 10 -38 12 -27 0 -54 -4 -60 -10z"/>
<path d="M784 3631 c4 -5 22 -15 41 -21 19 -6 35 -17 35 -24 0 -17 43 -66 58
-66 27 0 3 50 -30 63 -10 3 -18 17 -18 30 0 21 -5 24 -46 26 -28 1 -43 -2 -40
-8z"/>
<path d="M2117 3633 c6 -2 14 -10 16 -16 2 -7 3 -5 3 3 -1 8 -8 15 -16 16 -8
0 -10 -1 -3 -3z"/>
<path d="M990 3588 c0 -19 2 -20 10 -8 13 19 13 30 0 30 -5 0 -10 -10 -10 -22z"/>
<path d="M3530 3600 c0 -5 5 -10 10 -10 6 0 10 5 10 10 0 6 -4 10 -10 10 -5 0
-10 -4 -10 -10z"/>
<path d="M706 3582 c-2 -4 -1 -14 5 -22 7 -12 9 -10 9 8 0 23 -5 28 -14 14z"/>
<path d="M576 3571 c-5 -8 -4 -16 4 -21 7 -4 13 -20 13 -35 0 -19 2 -23 8 -14
12 19 11 49 0 49 -5 0 -11 8 -13 18 -3 13 -5 14 -12 3z"/>
<path d="M800 3559 c0 -5 9 -9 20 -9 11 0 20 2 20 4 0 2 -9 6 -20 9 -11 3 -20
1 -20 -4z"/>
<path d="M1348 3539 c-9 -56 1 -79 33 -79 33 0 39 16 9 25 -21 7 -26 20 -11
29 5 3 31 -1 57 -9 70 -21 120 -20 126 3 4 15 1 18 -18 14 -13 -2 -24 -8 -24
-13 0 -14 -37 -10 -50 6 -10 12 -7 15 17 20 51 12 49 13 -24 14 -39 1 -75 6
-78 11 -13 20 -33 9 -37 -21z"/>
<path d="M20 3533 c0 -16 2 -16 11 -3 8 11 12 12 16 2 2 -6 9 -10 14 -6 18 10
9 24 -16 24 -17 0 -25 -5 -25 -17z"/>
<path d="M1106 3536 c3 -8 12 -12 20 -9 21 8 17 23 -6 23 -13 0 -18 -5 -14
-14z"/>
<path d="M1156 3535 c4 -8 10 -15 15 -15 4 0 6 7 3 15 -4 8 -10 15 -15 15 -4
0 -6 -7 -3 -15z"/>
<path d="M2179 3532 c-2 -21 -4 -27 -12 -38 -4 -7 0 -17 8 -24 10 -9 15 -9 15
-1 0 6 7 11 15 11 19 0 20 -16 2 -23 -8 -3 -14 -19 -15 -36 0 -25 3 -31 20
-31 14 0 18 5 14 15 -3 8 2 18 10 23 16 9 26 56 17 79 -3 7 -15 13 -27 13 -12
0 -27 5 -34 12 -9 9 -12 9 -13 0z m31 -33 c0 -6 -4 -7 -10 -4 -5 3 -10 11 -10
16 0 6 5 7 10 4 6 -3 10 -11 10 -16z"/>
<path d="M686 3505 c-4 -10 1 -15 16 -15 17 0 18 2 8 15 -7 8 -14 15 -15 15
-2 0 -5 -7 -9 -15z"/>
<path d="M1048 3513 c7 -3 16 -2 19 1 4 3 -2 6 -13 5 -11 0 -14 -3 -6 -6z"/>
<path d="M1098 3493 c7 -3 16 -2 19 1 4 3 -2 6 -13 5 -11 0 -14 -3 -6 -6z"/>
<path d="M123 3476 c3 -8 -2 -16 -14 -19 -32 -8 -22 -27 15 -27 18 0 39 -7 46
-15 7 -8 18 -15 25 -15 16 0 26 49 11 52 -6 0 -15 2 -21 3 -5 2 -18 3 -27 4
-11 1 -15 6 -12 16 4 10 0 15 -11 15 -11 0 -15 -5 -12 -14z"/>
<path d="M661 3474 c0 -11 3 -14 6 -6 3 7 2 16 -1 19 -3 4 -6 -2 -5 -13z"/>
<path d="M1020 3475 c0 -8 7 -15 15 -15 9 0 15 -9 15 -25 0 -14 5 -25 11 -25
5 0 8 4 5 9 -4 5 0 12 6 15 9 3 8 8 -4 16 -10 6 -18 18 -18 25 0 8 -7 15 -15
15 -8 0 -15 -7 -15 -15z"/>
<path d="M3617 3470 c3 -11 10 -20 15 -20 6 0 7 7 4 16 -3 9 -6 18 -6 20 0 2
-4 4 -9 4 -5 0 -7 -9 -4 -20z"/>
<path d="M1110 3456 c0 -31 6 -34 13 -6 3 11 1 23 -4 26 -5 3 -9 -6 -9 -20z"/>
<path d="M555 3451 c19 -8 19 -8 0 -19 -11 -6 -15 -12 -9 -12 12 0 34 20 34
32 0 4 -10 8 -22 7 -21 0 -22 -1 -3 -8z"/>
<path d="M674 3420 c2 -17 6 -33 8 -34 2 -1 16 -7 31 -14 26 -11 27 -10 18 7
-6 10 -17 21 -26 25 -8 3 -15 12 -15 20 0 8 -5 18 -11 21 -7 5 -9 -4 -5 -25z"/>
<path d="M1355 3440 c3 -5 20 -10 36 -10 18 0 28 4 24 10 -3 6 -20 10 -36 10
-18 0 -28 -4 -24 -10z"/>
<path d="M0 3419 c0 -5 5 -7 10 -4 6 3 10 8 10 11 0 2 -4 4 -10 4 -5 0 -10 -5
-10 -11z"/>
<path d="M750 3405 c-7 -8 -10 -16 -6 -16 3 -1 10 -2 16 -3 21 -3 33 -25 21
-39 -9 -12 -8 -16 5 -21 9 -4 19 -4 22 -1 3 3 0 5 -6 5 -9 0 -8 10 2 35 11 26
12 36 3 42 -22 14 -45 13 -57 -2z"/>
<path d="M1370 3408 c0 -4 18 -8 41 -8 22 0 38 4 35 9 -7 11 -76 10 -76 -1z"/>
<path d="M234 3404 c-13 -5 -7 -41 9 -62 8 -10 7 -16 -6 -24 -19 -10 -14 -30
7 -22 7 3 18 -7 24 -21 6 -14 17 -25 24 -25 6 0 3 -7 -8 -15 -15 -11 -16 -14
-3 -15 28 0 49 23 43 48 -4 12 -10 22 -14 22 -4 0 -6 11 -5 24 3 23 -8 51 -20
51 -3 0 -9 -6 -14 -13 -6 -10 -10 -10 -21 2 -10 13 -9 17 4 22 9 3 16 12 16
20 0 14 -14 17 -36 8z"/>
<path d="M1480 3395 c-9 -10 -24 -13 -56 -8 -36 5 -44 3 -44 -10 0 -9 5 -19
12 -23 7 -4 8 -3 4 4 -5 8 2 12 20 12 l27 0 -21 -23 c-28 -29 -28 -40 -1 -32
16 5 19 4 14 -6 -5 -7 1 -6 15 4 25 18 50 8 50 -19 0 -8 7 -14 15 -14 8 0 15
5 15 10 0 6 7 10 15 10 10 0 15 11 15 35 0 24 -5 35 -15 35 -8 0 -15 4 -15 10
0 5 -9 14 -19 19 -14 8 -22 7 -31 -4z"/>
<path d="M45 3390 c4 -6 11 -8 16 -5 14 9 11 15 -7 15 -8 0 -12 -5 -9 -10z"/>
<path d="M513 3384 c0 -16 13 -19 21 -5 3 5 0 11 -7 14 -8 3 -14 -1 -14 -9z"/>
<path d="M3498 3393 c7 -3 16 -2 19 1 4 3 -2 6 -13 5 -11 0 -14 -3 -6 -6z"/>
<path d="M196 3354 c-5 -14 -4 -15 9 -4 17 14 19 20 6 20 -5 0 -12 -7 -15 -16z"/>
<path d="M814 3354 c3 -9 6 -23 6 -31 0 -11 4 -13 13 -6 6 5 35 11 63 12 45 2
51 0 62 -23 15 -34 32 -33 32 2 -1 21 -8 31 -35 43 -18 9 -39 13 -46 9 -8 -6
-8 -9 2 -13 8 -3 -1 -6 -20 -6 -25 -1 -32 2 -27 14 4 11 -2 15 -25 15 -24 0
-30 -4 -25 -16z"/>
<path d="M2619 3357 c-14 -6 -32 -19 -39 -31 -10 -17 -10 -19 1 -8 7 6 35 12
61 12 34 0 48 4 48 14 0 18 -38 24 -71 13z"/>
<path d="M617 3329 c8 -8 16 -8 30 0 16 9 14 10 -11 11 -22 0 -27 -3 -19 -11z"/>
<path d="M130 3319 c0 -7 -8 -18 -17 -25 -10 -7 -14 -16 -10 -21 5 -4 14 0 21
9 8 11 20 15 33 12 12 -3 24 0 28 8 5 7 4 10 0 5 -5 -4 -19 0 -32 8 -15 10
-23 12 -23 4z"/>
<path d="M645 3311 c-3 -5 5 -17 17 -25 l22 -15 -24 -9 -24 -9 24 -6 c13 -3
28 0 37 9 8 8 10 14 4 14 -6 0 -11 7 -11 15 0 18 -36 39 -45 26z"/>
<path d="M168 3243 c7 -3 16 -2 19 1 4 3 -2 6 -13 5 -11 0 -14 -3 -6 -6z"/>
<path d="M348 3233 c7 -3 16 -2 19 1 4 3 -2 6 -13 5 -11 0 -14 -3 -6 -6z"/>
<path d="M2505 3230 c-3 -5 -1 -10 4 -10 6 0 11 5 11 10 0 6 -2 10 -4 10 -3 0
-8 -4 -11 -10z"/>
<path d="M464 3211 c8 -12 46 -21 46 -11 0 8 -24 20 -41 20 -6 0 -8 -4 -5 -9z"/>
<path d="M1059 3193 c-23 -5 -12 -43 12 -43 10 0 22 -7 26 -15 8 -13 11 -13
28 -1 20 14 20 15 0 33 -24 23 -44 31 -66 26z"/>
<path d="M764 3146 c0 -14 4 -26 9 -26 4 0 7 -5 7 -11 0 -19 25 -34 58 -34 19
0 32 5 32 13 0 6 -6 12 -14 12 -8 0 -16 7 -20 15 -3 8 -11 15 -18 15 -6 0 -22
9 -34 21 l-22 21 2 -26z"/>
<path d="M1200 3120 c0 -11 -7 -20 -15 -20 -9 0 -18 -7 -21 -15 -4 -8 -17 -15
-30 -15 -13 0 -24 -4 -24 -9 0 -6 12 -6 29 -1 15 4 35 4 42 -1 8 -5 21 -9 29
-9 11 0 11 3 2 12 -16 16 -15 28 3 28 9 0 15 9 15 25 0 16 -6 25 -15 25 -8 0
-15 -9 -15 -20z"/>
<path d="M1018 3103 c5 -21 7 -23 10 -9 2 10 0 22 -6 28 -6 6 -7 0 -4 -19z"/>
<path d="M1248 3104 c3 -16 -1 -30 -9 -35 -11 -7 -9 -9 6 -9 18 0 20 5 17 35
-2 19 -8 35 -12 35 -4 0 -5 -12 -2 -26z"/>
<path d="M2697 3103 c-3 -5 -2 -15 2 -22 7 -10 10 -10 16 -1 4 6 3 16 -3 22
-5 5 -12 6 -15 1z"/>
<path d="M1640 3072 c0 -12 19 -26 26 -19 2 2 -2 10 -11 17 -9 8 -15 8 -15 2z"/>
<path d="M2289 3073 c-1 -5 -1 -12 1 -18 1 -5 3 -43 5 -84 2 -42 7 -77 12 -78
4 -2 14 11 22 29 12 27 12 33 0 42 -8 6 -15 25 -15 41 -3 51 -8 75 -16 75 -4
0 -9 -3 -9 -7z"/>
<path d="M1548 3049 c-10 -10 -18 -26 -18 -35 0 -9 -13 -21 -30 -27 -16 -6
-30 -15 -30 -19 0 -10 -81 -10 -96 0 -6 4 -14 20 -18 35 -6 25 -10 28 -34 22
-27 -6 -82 -52 -82 -67 0 -5 5 -15 12 -22 10 -10 18 -9 45 7 28 16 38 17 62 7
16 -6 38 -23 50 -36 l22 -26 26 26 c14 14 34 26 44 26 25 0 72 -19 81 -33 5
-8 8 -3 8 11 0 17 -6 22 -27 23 -16 0 -22 3 -15 6 10 4 10 8 2 18 -9 11 -5 17
17 29 22 12 24 15 9 16 -18 0 -18 1 -3 18 10 10 17 24 17 30 0 18 -23 13 -42
-9z"/>
<path d="M2022 3041 c-25 -41 -20 -57 19 -65 17 -3 29 -12 29 -21 0 -8 4 -15
9 -15 9 0 27 -38 23 -51 -1 -4 8 -9 18 -12 11 -3 18 -1 14 4 -3 5 3 22 12 39
15 25 16 33 5 53 -9 17 -19 23 -32 20 -25 -7 -26 22 -1 36 15 9 15 12 2 21 -8
6 -27 8 -42 6 -16 -3 -28 0 -31 7 -2 7 -13 -3 -25 -22z"/>
<path d="M2628 3063 c7 -3 16 -2 19 1 4 3 -2 6 -13 5 -11 0 -14 -3 -6 -6z"/>
<path d="M3555 3060 c3 -5 10 -10 16 -10 5 0 9 5 9 10 0 6 -7 10 -16 10 -8 0
-12 -4 -9 -10z"/>
<path d="M890 3050 c8 -5 29 -9 45 -9 26 0 27 2 10 9 -11 5 -31 9 -45 9 -20 1
-22 -1 -10 -9z"/>
<path d="M1080 3045 c0 -8 7 -15 15 -15 8 0 15 -4 15 -10 0 -5 7 -10 15 -10
21 0 8 25 -21 38 -19 10 -24 9 -24 -3z"/>
<path d="M2322 3048 c6 -18 28 -21 28 -4 0 9 -7 16 -16 16 -9 0 -14 -5 -12
-12z"/>
<path d="M633 3030 c-12 -11 -29 -20 -37 -20 -10 0 -13 -6 -10 -15 4 -9 0 -15
-10 -15 -9 0 -16 -7 -16 -15 0 -20 28 -8 35 15 4 12 24 24 52 32 48 14 62 31
28 36 -11 1 -30 -6 -42 -18z"/>
<path d="M444 3015 c-4 -8 -10 -12 -15 -9 -5 3 -9 0 -9 -6 0 -6 -4 -9 -9 -6
-16 10 -19 -19 -4 -39 13 -19 15 -19 24 -2 15 27 43 3 28 -24 -8 -17 -6 -19
20 -19 24 0 28 3 24 20 -5 20 5 26 23 13 5 -5 -3 4 -18 19 -15 15 -28 31 -27
35 5 33 -26 48 -37 18z"/>
<path d="M2360 3021 c0 -12 39 -25 47 -17 4 3 -1 6 -10 6 -9 0 -17 5 -17 10 0
6 -4 10 -10 10 -5 0 -10 -4 -10 -9z"/>
<path d="M752 2990 c0 -14 2 -19 5 -12 2 6 2 18 0 25 -3 6 -5 1 -5 -13z"/>
<path d="M840 2994 c0 -16 19 -15 65 2 13 5 15 2 10 -22 -5 -22 -4 -25 4 -14
7 10 11 11 11 3 0 -7 7 -10 15 -7 20 8 19 40 -1 48 -9 3 -36 6 -60 6 -34 0
-44 -4 -44 -16z"/>
<path d="M1080 2996 c0 -8 -14 -18 -32 -22 -29 -6 -31 -8 -13 -15 14 -7 8 -8
-23 -6 -43 3 -50 -8 -18 -27 14 -8 20 -8 23 2 3 6 15 12 27 12 23 0 66 38 66
58 0 7 -7 12 -15 12 -8 0 -15 -6 -15 -14z"/>
<path d="M2590 2990 c0 -13 5 -18 15 -14 8 4 15 12 15 20 0 8 -7 14 -15 14 -8
0 -15 -9 -15 -20z"/>
<path d="M2652 2990 c0 -14 2 -19 5 -12 2 6 2 18 0 25 -3 6 -5 1 -5 -13z"/>
<path d="M1590 2977 c0 -13 22 -24 69 -33 21 -4 41 7 41 22 0 8 -6 14 -12 15
-7 0 -32 3 -55 5 -33 4 -43 2 -43 -9z"/>
<path d="M2433 2966 c2 -6 16 -12 30 -13 21 -1 24 1 15 10 -14 15 -50 17 -45
3z"/>
<path d="M1170 2953 c0 -15 23 -33 42 -33 10 0 18 7 18 15 0 8 -6 15 -14 15
-8 0 -21 3 -30 6 -9 3 -16 2 -16 -3z"/>
<path d="M807 2937 c-6 -17 32 -77 50 -77 6 0 14 -6 17 -12 2 -7 3 -2 2 12 -2
14 -11 27 -22 30 -12 3 -19 14 -19 29 0 27 -20 40 -28 18z"/>
<path d="M1710 2936 c0 -8 -17 -16 -42 -21 l-43 -7 33 -14 c34 -15 39 -23 20
-42 -9 -9 -5 -18 15 -38 15 -15 30 -24 34 -21 3 4 1 7 -5 7 -8 0 -12 21 -12
60 0 54 2 60 21 60 18 0 19 2 5 15 -18 19 -26 19 -26 1z"/>
<path d="M2180 2948 c-7 -19 -4 -66 3 -59 5 5 7 21 4 37 -2 16 -5 26 -7 22z"/>
<path d="M2390 2940 c-10 -7 -11 -12 -4 -17 6 -5 14 -16 17 -27 4 -11 13 -16
22 -12 10 4 15 -1 15 -15 0 -12 5 -19 13 -16 6 2 11 12 11 21 -1 9 5 16 13 16
8 0 13 -8 11 -17 -1 -10 1 -19 5 -20 4 -2 7 -1 7 2 0 3 0 15 0 26 0 17 -5 20
-24 17 -26 -5 -50 5 -52 22 -1 5 -2 15 -3 20 -1 13 -12 13 -31 0z"/>
<path d="M667 2933 c-4 -3 -7 -11 -7 -17 0 -6 5 -4 10 4 6 10 10 11 10 3 0 -7
8 -13 18 -12 10 0 12 3 4 6 -6 2 -10 9 -6 14 6 10 -19 12 -29 2z"/>
<path d="M207 2895 c-12 -9 -14 -15 -7 -20 6 -4 18 -1 26 6 12 10 15 10 12 -1
-5 -20 20 -23 25 -3 4 15 5 14 6 -3 1 -18 8 -23 44 -25 57 -5 77 -1 77 17 0 8
-10 14 -24 14 -14 0 -37 5 -53 12 -41 17 -86 18 -106 3z"/>
<path d="M1160 2879 c0 -6 8 -23 19 -37 10 -15 20 -32 22 -37 2 -6 19 -8 39
-4 19 4 27 7 17 8 -23 1 -53 30 -61 59 -7 22 -36 31 -36 11z"/>
<path d="M2548 2883 c6 -2 18 -2 25 0 6 3 1 5 -13 5 -14 0 -19 -2 -12 -5z"/>
<path d="M2675 2880 c3 -5 12 -7 20 -3 21 7 19 13 -6 13 -11 0 -18 -4 -14 -10z"/>
<path d="M3372 2868 c5 -15 28 -23 28 -10 0 5 -7 13 -16 16 -10 4 -14 1 -12
-6z"/>
<path d="M1576 2845 c4 -8 8 -15 10 -15 2 0 4 7 4 15 0 8 -4 15 -10 15 -5 0
-7 -7 -4 -15z"/>
<path d="M2554 2848 c-4 -6 1 -17 11 -25 15 -10 16 -16 7 -25 -16 -16 -15 -28
3 -28 9 0 15 9 15 24 0 14 6 26 13 29 6 2 5 3 -4 2 -9 -1 -23 1 -30 6 -12 8
-11 11 1 19 9 6 10 10 3 10 -6 0 -15 -5 -19 -12z"/>
<path d="M3250 2849 c0 -5 5 -7 10 -4 6 3 10 8 10 11 0 2 -4 4 -10 4 -5 0 -10
-5 -10 -11z"/>
<path d="M590 2841 c0 -6 -7 -11 -15 -11 -9 0 -15 -9 -14 -22 0 -13 3 -17 6
-10 2 6 14 12 26 12 18 0 19 -2 7 -10 -10 -7 -11 -10 -2 -10 20 0 25 28 8 45
-9 9 -16 12 -16 6z"/>
<path d="M810 2840 c0 -4 7 -7 15 -6 23 3 26 12 5 13 -11 1 -20 -2 -20 -7z"/>
<path d="M2637 2828 c-7 -5 -2 -8 15 -8 14 0 28 -6 31 -12 3 -7 5 -4 4 7 -1
21 -27 28 -50 13z"/>
<path d="M117 2823 c-10 -3 -16 -10 -14 -16 6 -20 42 -19 62 3 18 20 18 20 -6
19 -13 -1 -32 -3 -42 -6z"/>
<path d="M1026 2814 c-3 -9 -6 -25 -6 -37 0 -20 0 -20 15 -1 16 21 20 54 6 54
-5 0 -12 -7 -15 -16z"/>
<path d="M1297 2823 c-12 -11 -8 -23 7 -23 8 0 16 -6 19 -12 2 -7 4 -1 3 14
-1 26 -15 36 -29 21z"/>
<path d="M1347 2811 c-2 -10 -1 -25 4 -32 12 -20 42 1 44 29 2 29 -40 31 -48
3z"/>
<path d="M2070 2815 c0 -8 -9 -15 -19 -15 -20 0 -37 -17 -28 -26 6 -7 57 6 55
15 -2 22 4 32 17 28 8 -4 16 -3 19 1 2 4 -6 9 -20 10 -15 1 -24 -3 -24 -13z"/>
<path d="M2734 2810 c0 -13 4 -16 10 -10 7 7 7 13 0 20 -6 6 -10 3 -10 -10z"/>
<path d="M3301 2814 c0 -11 3 -14 6 -6 3 7 2 16 -1 19 -3 4 -6 -2 -5 -13z"/>
<path d="M3390 2814 c0 -8 5 -12 10 -9 6 3 10 10 10 16 0 5 -4 9 -10 9 -5 0
-10 -7 -10 -16z"/>
<path d="M2706 2802 c-6 -10 3 -23 29 -42 17 -12 16 -10 -3 11 -12 14 -19 29
-15 32 3 4 4 7 0 7 -3 0 -8 -4 -11 -8z"/>
<path d="M428 2779 c-10 -10 -18 -23 -18 -29 0 -9 -14 -14 -32 -12 -3 1 -9 -5
-12 -13 -3 -9 1 -15 9 -15 8 0 15 -7 15 -15 0 -8 7 -15 15 -15 8 0 15 6 15 14
0 15 46 56 62 56 5 0 7 -13 3 -30 -5 -23 -3 -30 9 -30 12 0 16 11 16 46 0 37
3 45 15 40 8 -3 15 -1 15 4 0 6 -9 10 -20 10 -11 0 -20 -4 -20 -10 0 -5 -9
-10 -20 -10 -11 0 -20 7 -20 15 0 20 -11 18 -32 -6z"/>
<path d="M920 2790 c-12 -8 -11 -10 8 -10 12 0 22 5 22 10 0 13 -11 13 -30 0z"/>
<path d="M1500 2785 c0 -16 9 -19 34 -9 20 8 11 24 -15 24 -10 0 -19 -7 -19
-15z"/>
<path d="M2785 2790 c-8 -13 4 -32 16 -25 12 8 12 35 0 35 -6 0 -13 -4 -16
-10z"/>
<path d="M3245 2790 c-3 -6 1 -13 10 -16 21 -9 26 -2 10 13 -9 8 -16 9 -20 3z"/>
<path d="M323 2776 c4 -11 1 -13 -10 -9 -11 4 -14 2 -9 -5 10 -17 33 -15 40 4
9 22 8 24 -10 24 -10 0 -14 -6 -11 -14z"/>
<path d="M3415 2780 c-3 -5 -2 -10 4 -10 5 0 13 5 16 10 3 6 2 10 -4 10 -5 0
-13 -4 -16 -10z"/>
<path d="M3560 2780 c0 -5 5 -10 11 -10 6 0 9 -9 6 -20 -3 -11 -2 -20 3 -20
17 0 17 37 -1 49 -12 7 -19 7 -19 1z"/>
<path d="M3753 2775 c-7 -8 -13 -18 -13 -22 0 -8 25 -32 48 -47 19 -12 14 22
-6 42 -10 10 -16 24 -14 30 5 16 0 15 -15 -3z"/>
<path d="M1043 2760 c-1 -11 2 -22 6 -24 4 -3 7 4 6 14 -2 27 -10 33 -12 10z"/>
<path d="M763 2755 c0 -8 4 -12 9 -9 5 3 6 10 3 15 -9 13 -12 11 -12 -6z"/>
<path d="M966 2754 c-20 -20 -20 -25 1 -17 11 4 14 3 9 -5 -4 -7 -2 -12 3 -12
6 0 11 11 11 25 0 29 -3 30 -24 9z"/>
<path d="M1258 2729 c-5 -51 7 -61 16 -14 4 19 11 35 16 35 6 0 10 5 10 10 0
6 -9 10 -19 10 -15 0 -20 -9 -23 -41z"/>
<path d="M1455 2760 c-3 -5 -1 -10 4 -10 6 0 11 5 11 10 0 6 -2 10 -4 10 -3 0
-8 -4 -11 -10z"/>
<path d="M1640 2766 c0 -2 11 -6 25 -8 13 -3 22 -1 19 3 -5 9 -44 13 -44 5z"/>
<path d="M1890 2758 c0 -21 14 -35 32 -35 15 0 15 2 1 24 -17 25 -33 30 -33
11z"/>
<path d="M2447 2750 c-14 -17 -14 -20 -2 -20 8 0 15 -4 15 -9 0 -6 16 -8 35
-7 21 2 35 -1 35 -7 0 -8 3 -8 11 0 18 18 2 33 -24 24 -17 -7 -25 -4 -38 15
-15 23 -15 23 -32 4z"/>
<path d="M3310 2756 c0 -16 19 -25 38 -19 10 4 10 8 1 19 -15 18 -39 18 -39 0z"/>
<path d="M1095 2747 c-12 -12 16 -47 38 -47 9 0 9 2 0 8 -7 4 -16 17 -20 28
-6 15 -11 18 -18 11z"/>
<path d="M2710 2697 c0 -54 3 -65 14 -61 8 3 28 -1 43 -9 72 -38 83 -41 95
-29 9 9 8 12 -3 12 -17 0 -61 54 -52 64 4 3 8 18 9 32 2 19 0 24 -8 16 -6 -6
-17 -8 -24 -5 -10 4 -14 -3 -14 -21 0 -19 -4 -24 -15 -20 -10 4 -13 13 -10 25
4 11 2 19 -5 19 -6 0 -9 4 -6 9 3 5 -1 14 -9 21 -13 11 -15 4 -15 -53z"/>
<path d="M147 2743 c-12 -12 -7 -22 8 -17 8 4 15 10 15 15 0 11 -14 12 -23 2z"/>
<path d="M586 2733 c-12 -12 -5 -23 14 -23 11 0 20 4 20 9 0 11 -26 22 -34 14z"/>
<path d="M860 2725 c0 -8 4 -15 10 -15 5 0 7 7 4 15 -4 8 -8 15 -10 15 -2 0
-4 -7 -4 -15z"/>
<path d="M1998 2733 c7 -3 16 -2 19 1 4 3 -2 6 -13 5 -11 0 -14 -3 -6 -6z"/>
<path d="M2017 2720 c-17 -16 -17 -18 -1 -24 22 -8 34 4 25 25 -5 14 -8 14
-24 -1z"/>
<path d="M2167 2726 c-9 -22 24 -44 73 -51 25 -3 38 -2 30 2 -27 14 -59 46
-54 55 3 4 -6 8 -19 8 -14 0 -27 -6 -30 -14z"/>
<path d="M270 2721 c0 -6 -9 -11 -19 -11 -14 0 -20 -9 -24 -37 -3 -21 -9 -52
-12 -69 -9 -42 11 -54 26 -17 7 15 11 37 11 48 -1 27 16 45 45 45 16 0 23 5
20 13 -2 6 -10 11 -16 10 -6 -2 -10 2 -8 8 1 6 -4 14 -10 16 -7 3 -13 0 -13
-6z"/>
<path d="M639 2720 c-6 -4 4 -10 22 -13 19 -3 38 -1 44 4 6 6 6 9 0 10 -6 0
-20 2 -32 3 -12 1 -27 -1 -34 -4z"/>
<path d="M1324 2680 c-1 -16 -9 -36 -18 -45 -9 -9 -16 -18 -16 -21 0 -10 13
-2 35 22 l23 25 23 -30 c14 -19 32 -31 46 -31 31 0 29 16 -2 24 -39 10 -76 47
-69 68 3 11 0 18 -8 18 -8 0 -14 -12 -14 -30z"/>
<path d="M1710 2699 c0 -6 -5 -9 -12 -7 -13 5 -48 -21 -48 -34 0 -5 11 -8 25
-8 33 0 51 -39 27 -57 -13 -11 -14 -13 -1 -13 8 0 20 -15 26 -32 17 -47 27
-108 18 -108 -9 0 -50 43 -64 67 -8 15 -12 16 -23 4 -10 -10 -10 -15 -1 -18 7
-2 9 -11 6 -19 -3 -8 0 -14 6 -14 6 0 11 -12 12 -27 0 -16 3 -22 6 -15 2 6 13
12 24 12 16 0 18 -5 14 -31 -5 -28 -4 -30 17 -24 13 4 30 14 38 22 13 12 13
13 -2 7 -20 -7 -23 7 -8 37 7 12 7 25 2 36 -13 22 -3 53 14 46 8 -3 14 -11 14
-18 0 -8 5 -26 10 -40 9 -23 13 -25 25 -15 9 7 18 10 22 6 4 -3 -2 -12 -12
-20 -12 -9 -15 -15 -7 -20 7 -4 12 -4 12 1 0 4 4 2 9 -5 7 -11 9 -11 14 2 4 9
2 16 -3 16 -15 0 0 29 18 33 10 3 -1 4 -23 3 -22 0 -40 4 -40 9 -1 6 -6 20
-13 32 -10 19 -9 23 9 28 14 5 25 1 34 -12 17 -22 19 -37 3 -27 -6 4 -8 3 -5
-4 4 -5 16 -8 27 -5 15 4 18 9 10 18 -8 9 -8 15 0 20 5 3 10 15 10 27 0 15 5
19 20 15 13 -3 20 0 20 9 0 8 -9 14 -20 14 -11 0 -20 5 -20 10 0 16 -27 12
-34 -5 -3 -8 -1 -15 4 -15 6 0 10 -7 10 -16 0 -13 -7 -15 -36 -11 -20 3 -42
11 -50 18 -13 10 -12 14 3 31 15 16 15 18 1 13 -12 -5 -18 0 -21 17 l-4 23 -2
-22 c-1 -24 -21 -33 -21 -9 0 7 -7 26 -14 42 -8 15 -13 31 -10 36 3 4 0 8 -5
8 -6 0 -11 -5 -11 -11z"/>
<path d="M3060 2690 c0 -5 5 -10 10 -10 6 0 10 5 10 10 0 6 -4 10 -10 10 -5 0
-10 -4 -10 -10z"/>
<path d="M3360 2681 c0 -5 9 -11 20 -14 11 -3 20 -12 20 -21 0 -17 14 -19 45
-6 11 5 14 9 6 9 -8 1 -19 7 -25 15 -13 16 -66 30 -66 17z"/>
<path d="M26 2662 c-8 -10 -14 -27 -13 -39 1 -23 17 -21 17 2 0 8 9 20 20 28
17 12 18 16 6 20 -8 3 -21 -2 -30 -11z"/>
<path d="M456 2665 c4 -8 15 -15 25 -15 10 0 19 7 19 15 0 9 -9 15 -25 15 -18
0 -23 -4 -19 -15z"/>
<path d="M1110 2655 c0 -14 2 -25 4 -25 2 0 6 11 8 25 3 14 1 25 -3 25 -5 0
-9 -11 -9 -25z"/>
<path d="M1148 2673 c6 -2 18 -2 25 0 6 3 1 5 -13 5 -14 0 -19 -2 -12 -5z"/>
<path d="M1845 2671 c-7 -13 28 -31 57 -30 20 1 21 2 3 6 -11 3 -24 11 -28 19
-9 16 -23 18 -32 5z"/>
<path d="M2413 2673 c26 -7 20 -21 -10 -25 -25 -4 -24 -5 12 -12 22 -5 43 -14
47 -20 4 -6 20 -12 35 -12 51 -3 54 -4 52 -16 -3 -28 2 -38 19 -38 19 0 62
-39 62 -56 0 -5 -5 -2 -10 6 -6 9 -10 10 -10 3 0 -16 13 -23 27 -15 12 8 12
36 1 48 -4 3 -4 12 -1 20 9 24 -20 49 -62 53 -22 2 -43 8 -46 13 -4 6 -9 5
-12 -3 -5 -12 -7 -12 -15 0 -8 11 -10 11 -14 0 -6 -16 -18 -8 -22 14 -3 22
-32 47 -53 46 -17 -1 -17 -2 0 -6z m207 -100 c0 -12 -58 -14 -65 -3 -4 6 9 10
29 10 20 0 36 -3 36 -7z"/>
<path d="M2494 2665 c-9 -21 -2 -26 13 -10 8 9 9 16 3 20 -6 3 -13 -1 -16 -10z"/>
<path d="M3120 2660 c0 -9 9 -16 19 -16 11 0 22 7 24 16 3 10 -3 15 -20 15
-14 0 -23 -6 -23 -15z"/>
<path d="M360 2655 c-7 -8 -9 -15 -4 -15 5 0 1 -7 -9 -14 -10 -8 -14 -17 -9
-20 5 -3 17 3 27 14 10 11 25 20 34 21 14 0 14 1 1 6 -8 3 -18 10 -21 15 -3 5
-12 2 -19 -7z"/>
<path d="M705 2652 c15 -11 17 -30 5 -52 -7 -14 -7 -20 0 -20 5 0 10 7 10 15
0 8 6 15 14 15 9 0 12 8 8 25 -3 17 -11 25 -26 25 -11 0 -16 -4 -11 -8z"/>
<path d="M990 2646 c0 -9 40 -13 46 -5 3 5 -6 9 -20 9 -14 0 -26 -2 -26 -4z"/>
<path d="M2003 2632 c-9 -15 -8 -19 2 -19 8 0 16 9 18 19 3 10 2 18 -2 18 -3
0 -11 -8 -18 -18z"/>
<path d="M791 2631 c-10 -6 -10 -10 -1 -16 13 -8 24 -1 19 14 -3 6 -10 7 -18
2z"/>
<path d="M866 2616 c-3 -14 -15 -28 -26 -31 -11 -3 -25 -16 -31 -27 -9 -18 -8
-24 7 -35 24 -17 35 -17 28 2 -4 8 -10 15 -15 15 -5 0 -1 9 8 20 21 24 33 26
33 3 0 -14 3 -14 12 -5 10 10 10 14 0 21 -9 5 -11 17 -6 34 3 15 4 27 1 27 -3
0 -8 -11 -11 -24z"/>
<path d="M1611 2624 c0 -11 3 -14 6 -6 3 7 2 16 -1 19 -3 4 -6 -2 -5 -13z"/>
<path d="M930 2620 c0 -5 10 -10 23 -10 18 0 19 2 7 10 -19 13 -30 13 -30 0z"/>
<path d="M990 2621 c0 -11 13 -14 60 -13 16 1 19 -1 8 -4 -25 -7 -22 -20 5
-28 39 -10 57 -7 51 9 -4 8 -13 15 -21 15 -8 0 -11 5 -8 10 4 6 -8 10 -29 10
-19 0 -41 3 -50 6 -9 3 -16 1 -16 -5z"/>
<path d="M2260 2621 c0 -6 4 -11 9 -11 5 0 12 -8 14 -17 4 -15 5 -15 6 -2 0 9
-6 22 -14 29 -10 9 -15 9 -15 1z"/>
<path d="M3023 2623 c-7 -3 -13 -14 -13 -26 0 -20 1 -20 16 -5 18 18 16 37 -3
31z"/>
<path d="M515 2610 c3 -5 8 -10 11 -10 2 0 4 5 4 10 0 6 -5 10 -11 10 -5 0 -7
-4 -4 -10z"/>
<path d="M1532 2599 c-12 -19 -11 -19 8 -9 11 6 20 15 20 20 0 17 -15 11 -28
-11z"/>
<path d="M2190 2599 c0 -24 23 -21 28 4 2 10 -3 17 -12 17 -10 0 -16 -9 -16
-21z"/>
<path d="M1580 2600 c-8 -6 -10 -10 -5 -10 6 0 4 -4 -3 -8 -13 -9 -7 -42 8
-42 7 0 23 60 17 66 -1 2 -9 -1 -17 -6z"/>
<path d="M3188 2599 c-3 -9 -21 -15 -50 -18 -5 -1 -8 -8 -8 -16 0 -8 -6 -15
-14 -15 -8 0 -16 -7 -20 -15 -3 -9 -19 -15 -41 -15 -19 0 -35 -4 -35 -9 0 -6
-9 -8 -20 -6 -11 2 -20 0 -20 -6 0 -5 -16 -9 -36 -9 -21 0 -33 -4 -29 -10 3
-5 -1 -10 -9 -10 -8 0 -17 -3 -19 -7 -7 -10 86 -3 93 7 3 4 15 10 28 14 15 5
22 3 22 -6 0 -9 13 -14 35 -15 24 -1 35 3 35 13 0 16 26 19 32 4 2 -6 9 -5 18
1 11 8 12 12 3 16 -15 5 -18 43 -4 43 21 0 34 -30 23 -55 -9 -20 -9 -25 3 -25
8 0 18 12 21 26 5 19 9 22 15 12 6 -9 9 -7 9 10 0 16 -6 22 -21 22 -11 0 -27
6 -34 14 -12 12 -12 16 0 26 8 6 20 8 27 4 7 -4 10 -4 6 1 -4 4 -3 14 3 22 8
8 8 13 1 13 -6 0 -12 -5 -14 -11z"/>
<path d="M20 2585 c-10 -12 -7 -15 14 -21 14 -3 26 -10 26 -15 0 -5 7 -9 15
-9 21 0 19 16 -7 40 -26 24 -32 25 -48 5z"/>
<path d="M1650 2590 c0 -6 7 -10 15 -10 8 0 15 2 15 4 0 2 -7 6 -15 10 -8 3
-15 1 -15 -4z"/>
<path d="M2096 2574 c-4 -10 -13 -13 -26 -9 -11 4 -20 2 -20 -4 0 -6 5 -11 11
-11 6 0 1 -9 -12 -20 -23 -18 -22 -18 19 1 27 14 42 28 42 40 0 23 -6 24 -14
3z"/>
<path d="M2466 2579 c2 -4 15 -6 29 -6 14 0 27 2 29 6 2 3 -11 6 -29 6 -18 0
-31 -3 -29 -6z"/>
<path d="M3595 2580 c-8 -13 15 -13 35 0 12 8 11 10 -7 10 -12 0 -25 -4 -28
-10z"/>
<path d="M900 2565 c0 -8 6 -15 14 -15 8 0 16 7 20 15 4 10 -1 15 -14 15 -11
0 -20 -7 -20 -15z"/>
<path d="M2651 2564 c0 -11 3 -14 6 -6 3 7 2 16 -1 19 -3 4 -6 -2 -5 -13z"/>
<path d="M1521 2554 c0 -11 3 -14 6 -6 3 7 2 16 -1 19 -3 4 -6 -2 -5 -13z"/>
<path d="M1971 2557 c-8 -10 -3 -20 19 -39 28 -24 29 -25 27 -3 -3 31 -32 58
-46 42z"/>
<path d="M990 2550 c0 -5 5 -10 11 -10 5 0 7 5 4 10 -3 6 -8 10 -11 10 -2 0
-4 -4 -4 -10z"/>
<path d="M1110 2550 c0 -6 7 -10 15 -10 8 0 15 2 15 4 0 2 -7 6 -15 10 -8 3
-15 1 -15 -4z"/>
<path d="M2448 2552 c-10 -2 -18 -8 -18 -13 0 -5 -8 -9 -17 -9 -16 0 -16 -1
-1 -16 13 -13 14 -23 7 -42 -6 -17 -6 -29 1 -36 6 -6 12 0 16 22 6 29 10 32
44 32 34 0 39 -3 45 -30 4 -16 4 -39 0 -50 -6 -18 -2 -20 37 -19 30 2 34 3 16
6 -26 4 -28 8 -28 48 0 34 -5 47 -22 59 l-22 16 22 0 c25 0 28 6 10 23 -13 12
-56 16 -90 9z m17 -22 c3 -5 1 -10 -4 -10 -6 0 -11 5 -11 10 0 6 2 10 4 10 3
0 8 -4 11 -10z"/>
<path d="M1146 2533 c-7 -18 31 -17 50 1 12 13 10 15 -15 14 -17 -1 -32 -7
-35 -15z"/>
<path d="M1307 2530 c6 -24 10 -25 30 -4 9 8 22 13 29 10 7 -3 16 -1 19 4 4 6
-13 10 -38 10 -40 0 -45 -2 -40 -20z"/>
<path d="M1425 2526 c2 -14 6 -29 9 -35 3 -5 2 -21 -4 -35 -9 -26 -9 -26 41
-26 31 0 48 4 44 10 -3 6 1 13 9 16 9 3 16 11 16 16 0 10 -17 8 -52 -7 -14 -5
-18 -2 -18 14 0 12 -6 21 -15 21 -25 0 -18 38 8 43 17 3 14 5 -9 6 -27 1 -31
-2 -29 -23z"/>
<path d="M1622 2538 c3 -7 13 -15 22 -16 12 -3 17 1 14 10 -3 7 -13 15 -22 16
-12 3 -17 -1 -14 -10z"/>
<path d="M2220 2535 c0 -8 4 -15 9 -15 5 0 11 -9 14 -20 6 -25 25 -26 23 -2
-1 17 -28 52 -40 52 -3 0 -6 -7 -6 -15z"/>
<path d="M2670 2530 c0 -5 10 -10 23 -10 18 0 19 2 7 10 -19 13 -30 13 -30 0z"/>
<path d="M870 2514 c0 -8 5 -12 10 -9 6 4 8 11 5 16 -9 14 -15 11 -15 -7z"/>
<path d="M1492 2510 c-10 -17 -10 -20 3 -20 8 0 15 9 15 20 0 11 -1 20 -3 20
-1 0 -8 -9 -15 -20z"/>
<path d="M320 2484 c-25 -13 -44 -28 -42 -32 1 -4 3 -11 5 -16 2 -5 12 -4 24
2 17 10 22 9 28 -6 7 -14 9 -13 14 8 8 28 41 41 41 16 0 -9 5 -16 11 -16 6 0
17 -7 26 -16 11 -11 19 -12 26 -5 6 6 19 11 28 11 10 0 20 6 22 13 3 7 6 5 6
-5 1 -10 4 -18 9 -18 4 0 12 -11 19 -25 6 -14 7 -25 2 -25 -5 0 -9 -6 -9 -14
0 -8 -3 -16 -7 -19 -5 -2 -2 -2 5 0 8 1 20 3 28 3 8 0 11 6 8 15 -5 11 1 15
22 16 19 1 22 3 11 6 -11 3 -16 10 -13 20 3 8 6 17 6 19 0 2 8 4 18 4 12 1 9
5 -10 16 -16 8 -28 21 -28 29 0 22 -22 30 -35 12 -16 -23 -110 -24 -119 -2 -3
8 -12 15 -21 15 -8 0 -15 5 -15 10 0 15 -10 12 -60 -16z m256 -69 c-3 -24 -11
-25 -24 -5 -10 17 -10 20 7 20 11 0 18 -6 17 -15z"/>
<path d="M1095 2500 c-3 -5 -1 -10 4 -10 6 0 11 5 11 10 0 6 -2 10 -4 10 -3 0
-8 -4 -11 -10z"/>
<path d="M2670 2495 c-8 -10 -3 -14 20 -17 19 -3 30 0 30 8 0 17 -37 24 -50 9z"/>
<path d="M840 2484 c0 -8 5 -12 10 -9 6 4 8 11 5 16 -9 14 -15 11 -15 -7z"/>
<path d="M1286 2492 c-2 -4 4 -8 14 -8 10 0 16 4 14 8 -3 4 -9 8 -14 8 -5 0
-11 -4 -14 -8z"/>
<path d="M2070 2479 c0 -23 -36 -53 -52 -43 -10 6 -10 4 1 -9 7 -9 18 -14 24
-10 6 3 7 1 3 -5 -4 -7 -17 -12 -28 -12 -11 0 -26 -7 -32 -16 -6 -8 -20 -16
-31 -18 -10 -1 -21 -8 -23 -14 -5 -17 37 -15 54 3 10 10 35 15 69 15 42 0 53
3 49 14 -3 8 3 16 15 19 12 3 21 11 21 19 0 10 -3 9 -10 -2 -9 -13 -14 -7 -11
13 0 4 -2 6 -6 6 -22 -4 -35 2 -30 14 3 8 1 20 -4 28 -7 12 -9 11 -9 -2z m20
-64 c0 -8 -7 -15 -16 -15 -14 0 -14 3 -4 15 7 8 14 15 16 15 2 0 4 -7 4 -15z"/>
<path d="M675 2470 c-3 -5 -15 -10 -26 -10 -33 0 -24 -37 12 -44 20 -4 28 -10
23 -17 -4 -8 -3 -9 4 -5 17 10 15 33 -3 40 -20 7 -19 24 3 28 12 2 13 6 5 11
-6 4 -14 3 -18 -3z"/>
<path d="M2645 2449 c1 -20 6 -23 28 -21 15 2 27 -1 27 -7 0 -6 -4 -11 -10
-11 -5 0 -10 -4 -10 -10 0 -18 28 -10 33 9 6 24 0 31 -26 31 -11 0 -25 7 -32
16 -10 15 -12 14 -10 -7z"/>
<path d="M146 2445 c-3 -9 0 -15 9 -15 8 0 15 7 15 15 0 8 -4 15 -9 15 -5 0
-11 -7 -15 -15z"/>
<path d="M3011 2443 c-1 -16 5 -23 17 -23 10 0 13 3 6 8 -6 4 -14 14 -17 22
-4 10 -6 8 -6 -7z"/>
<path d="M2943 2443 c-44 -6 -42 -23 2 -23 24 0 35 5 35 15 0 8 -1 14 -2 13
-2 0 -18 -3 -35 -5z"/>
<path d="M1158 2433 c7 -3 16 -2 19 1 4 3 -2 6 -13 5 -11 0 -14 -3 -6 -6z"/>
<path d="M1273 2418 c-10 -11 -31 -27 -48 -34 l-30 -13 38 -1 c20 0 37 3 37 8
0 4 10 12 22 17 27 12 34 31 14 38 -8 3 -22 -4 -33 -15z"/>
<path d="M2330 2420 c11 -11 25 -20 32 -20 6 0 3 9 -7 20 -10 11 -24 20 -32
20 -9 0 -7 -6 7 -20z"/>
<path d="M2738 2395 c2 -19 8 -32 13 -29 5 3 9 -2 9 -10 0 -17 15 -22 24 -7 3
5 -1 14 -9 21 -12 10 -13 16 -4 26 9 11 8 14 -5 14 -9 0 -16 5 -16 10 0 6 -4
10 -8 10 -4 0 -6 -16 -4 -35z"/>
<path d="M3072 2403 c4 -39 28 -42 28 -4 0 21 -5 31 -16 31 -11 0 -14 -8 -12
-27z"/>
<path d="M382 2410 c3 -9 18 -16 39 -17 24 -1 26 0 9 4 -14 3 -31 10 -39 16
-11 10 -13 9 -9 -3z"/>
<path d="M2397 2405 c-11 -8 -21 -32 -24 -57 -3 -24 -10 -48 -14 -54 -5 -6
-12 -32 -15 -57 -4 -26 -11 -44 -15 -41 -5 3 -9 0 -9 -5 0 -6 7 -11 15 -11 17
0 34 30 27 48 -4 13 2 29 33 92 10 21 28 101 22 100 -1 0 -10 -7 -20 -15z"/>
<path d="M2620 2402 c0 -14 39 -32 46 -21 4 6 0 15 -7 20 -17 11 -39 12 -39 1z"/>
<path d="M2940 2396 c0 -2 9 -6 20 -9 11 -3 20 -1 20 4 0 5 -9 9 -20 9 -11 0
-20 -2 -20 -4z"/>
<path d="M1800 2380 c0 -6 7 -10 15 -10 8 0 15 2 15 4 0 2 -7 6 -15 10 -8 3
-15 1 -15 -4z"/>
<path d="M916 2371 c-3 -5 9 -24 28 -43 23 -23 36 -47 41 -76 4 -23 11 -42 17
-42 5 0 16 -7 24 -15 14 -13 14 -16 0 -21 -26 -10 -9 -22 25 -18 24 3 30 1 25
-11 -4 -10 1 -15 14 -15 11 0 20 -7 20 -15 0 -20 26 -19 34 0 3 8 9 15 13 14
21 -3 76 4 61 8 -10 2 -18 9 -18 14 0 5 -11 9 -25 9 -19 0 -25 5 -25 21 0 16
4 19 21 14 14 -5 25 -2 30 6 6 10 9 11 9 2 0 -8 12 -13 28 -12 16 0 21 3 12 6
-8 3 -17 9 -20 13 -3 4 -25 10 -48 14 -39 6 -44 4 -49 -14 -7 -26 -49 -27 -56
-1 -2 10 -1 24 3 32 7 11 -1 13 -41 11 l-49 -4 0 42 c0 42 -8 55 -52 80 -10 6
-19 6 -22 1z m188 -207 c4 -10 1 -14 -6 -12 -15 5 -23 28 -10 28 5 0 13 -7 16
-16z"/>
<path d="M1740 2340 c0 -22 5 -30 18 -30 13 0 14 2 3 9 -10 7 -11 13 -2 30 10
17 9 21 -4 21 -10 0 -15 -10 -15 -30z"/>
<path d="M3126 2360 c-15 -22 -16 -61 -2 -66 6 -2 12 -14 13 -24 1 -13 -2 -18
-10 -14 -7 4 -9 3 -4 -1 13 -15 46 -13 40 2 -7 19 7 16 22 -4 11 -15 12 -14
11 7 -1 17 -8 26 -26 30 -20 5 -26 13 -30 45 -4 30 -7 36 -14 25z"/>
<path d="M605 2351 c-3 -6 -1 -11 5 -11 7 0 8 -6 0 -19 -13 -24 -13 -44 -1
-36 5 3 12 1 16 -5 11 -18 22 -10 20 14 -4 32 -31 71 -40 57z"/>
<path d="M240 2340 c0 -5 6 -10 14 -10 8 0 16 -6 18 -14 2 -10 8 -8 19 8 17
22 16 22 -17 24 -19 2 -34 -2 -34 -8z"/>
<path d="M1103 2343 c9 -2 23 -2 30 0 6 3 -1 5 -18 5 -16 0 -22 -2 -12 -5z"/>
<path d="M2628 2343 c7 -3 16 -2 19 1 4 3 -2 6 -13 5 -11 0 -14 -3 -6 -6z"/>
<path d="M2794 2339 c-3 -6 -2 -15 3 -20 5 -5 9 -1 9 11 0 23 -2 24 -12 9z"/>
<path d="M46 2325 c-3 -8 -1 -15 4 -15 6 0 10 7 10 15 0 8 -2 15 -4 15 -2 0
-6 -7 -10 -15z"/>
<path d="M313 2333 c-18 -6 -16 -28 4 -44 15 -12 16 -12 11 8 -4 17 -2 20 11
16 9 -3 12 -1 6 4 -5 4 -12 11 -15 14 -3 4 -11 4 -17 2z"/>
<path d="M830 2305 c0 -11 -12 -15 -46 -15 -25 0 -43 -4 -40 -9 3 -5 -4 -20
-15 -35 l-20 -26 20 0 c12 0 21 6 21 15 0 10 10 15 30 15 17 0 30 5 30 10 0 6
7 10 15 10 9 0 15 9 15 25 0 14 -2 25 -5 25 -3 0 -5 -7 -5 -15z m-30 -29 c0
-3 -4 -8 -10 -11 -5 -3 -10 -1 -10 4 0 6 5 11 10 11 6 0 10 -2 10 -4z"/>
<path d="M2824 2308 c-3 -4 2 -8 10 -8 9 0 16 -4 16 -10 0 -5 4 -10 8 -10 4 0
8 8 8 18 0 18 -33 25 -42 10z"/>
<path d="M674 2295 c8 -8 16 -15 19 -15 2 0 4 7 4 15 0 8 -9 15 -19 15 -17 0
-18 -2 -4 -15z"/>
<path d="M878 2303 c7 -3 16 -2 19 1 4 3 -2 6 -13 5 -11 0 -14 -3 -6 -6z"/>
<path d="M1802 2290 c0 -14 2 -19 5 -12 2 6 2 18 0 25 -3 6 -5 1 -5 -13z"/>
<path d="M2736 2278 c3 -13 11 -24 15 -26 5 -2 9 -10 9 -17 0 -8 4 -16 9 -19
4 -3 6 6 3 19 -2 14 -8 25 -13 25 -5 0 -9 9 -9 20 0 11 -5 20 -11 20 -6 0 -8
-9 -3 -22z"/>
<path d="M2770 2290 c0 -5 7 -10 15 -10 8 0 15 5 15 10 0 6 -7 10 -15 10 -8 0
-15 -4 -15 -10z"/>
<path d="M1857 2279 c7 -7 15 -10 18 -7 3 3 -2 9 -12 12 -14 6 -15 5 -6 -5z"/>
<path d="M1897 2270 c3 -11 9 -20 13 -20 4 0 10 9 13 20 4 15 0 20 -13 20 -13
0 -17 -5 -13 -20z"/>
<path d="M3067 2253 c-3 -5 5 -8 18 -8 13 0 21 3 18 8 -2 4 -10 7 -18 7 -8 0
-16 -3 -18 -7z"/>
<path d="M1840 2219 c0 -5 5 -7 10 -4 6 3 10 8 10 11 0 2 -4 4 -10 4 -5 0 -10
-5 -10 -11z"/>
<path d="M1875 2211 c2 -36 45 -70 45 -36 0 8 -7 15 -15 15 -9 0 -15 7 -13 16
2 10 -2 19 -8 21 -6 2 -10 -5 -9 -16z"/>
<path d="M1921 2214 c0 -11 3 -14 6 -6 3 7 2 16 -1 19 -3 4 -6 -2 -5 -13z"/>
<path d="M3067 2223 c-3 -5 5 -8 18 -8 13 0 21 3 18 8 -2 4 -10 7 -18 7 -8 0
-16 -3 -18 -7z"/>
<path d="M891 2194 c0 -11 3 -14 6 -6 3 7 2 16 -1 19 -3 4 -6 -2 -5 -13z"/>
<path d="M3065 2190 c-4 -6 5 -10 20 -10 15 0 24 4 20 10 -3 6 -12 10 -20 10
-8 0 -17 -4 -20 -10z"/>
<path d="M1265 2175 c-3 -8 -7 -22 -10 -30 -2 -9 2 -15 11 -15 8 0 17 -7 20
-15 4 -8 12 -15 19 -15 8 0 21 -8 31 -17 12 -12 16 -13 13 -4 -3 8 -14 19 -24
25 -27 15 -55 50 -44 54 12 5 11 32 -1 32 -6 0 -13 -7 -15 -15z"/>
<path d="M1826 2175 c-3 -8 -1 -15 4 -15 6 0 10 7 10 15 0 8 -2 15 -4 15 -2 0
-6 -7 -10 -15z"/>
<path d="M2983 2145 c0 -8 4 -15 8 -15 4 0 14 -2 21 -5 9 -4 14 2 14 15 0 14
-7 20 -21 20 -13 0 -22 -6 -22 -15z"/>
<path d="M870 2135 c0 -11 -3 -30 -6 -42 -4 -13 -2 -23 4 -23 13 0 22 62 11
75 -6 5 -9 1 -9 -10z"/>
<path d="M1017 2119 c3 -11 13 -19 23 -19 26 0 18 35 -7 36 -15 1 -19 -4 -16
-17z"/>
<path d="M1801 2124 c0 -11 3 -14 6 -6 3 7 2 16 -1 19 -3 4 -6 -2 -5 -13z"/>
<path d="M1756 2121 c-4 -7 -5 -15 -2 -18 9 -9 19 4 14 18 -4 11 -6 11 -12 0z"/>
<path d="M1840 2116 c0 -8 5 -18 10 -21 6 -3 10 3 10 14 0 12 -4 21 -10 21 -5
0 -10 -6 -10 -14z"/>
<path d="M1738 2004 c-3 -95 2 -124 18 -102 16 20 17 96 3 131 -10 24 -10 32
-1 35 7 2 10 8 6 13 -15 25 -23 1 -26 -77z"/>
<path d="M1896 2061 c-4 -7 -5 -15 -2 -18 9 -9 19 4 14 18 -4 11 -6 11 -12 0z"/>
<path d="M1780 2051 c0 -6 4 -11 9 -11 5 0 12 -8 15 -17 3 -11 4 -8 3 6 -2 24
-27 44 -27 22z"/>
<path d="M2250 2035 c0 -16 -8 -27 -42 -66 -10 -10 -15 -19 -11 -19 4 0 -2 -7
-13 -15 -17 -13 -17 -14 -1 -15 9 0 17 4 17 9 0 4 11 20 24 34 26 28 50 87 35
87 -5 0 -9 -7 -9 -15z"/>
<path d="M3038 2043 c6 -2 18 -2 25 0 6 3 1 5 -13 5 -14 0 -19 -2 -12 -5z"/>
<path d="M1448 2013 c7 -3 16 -2 19 1 4 3 -2 6 -13 5 -11 0 -14 -3 -6 -6z"/>
<path d="M1840 2006 c0 -9 5 -16 10 -16 6 0 10 4 10 9 0 6 -4 13 -10 16 -5 3
-10 -1 -10 -9z"/>
<path d="M1418 1983 c7 -3 16 -2 19 1 4 3 -2 6 -13 5 -11 0 -14 -3 -6 -6z"/>
<path d="M1467 1934 c3 -7 11 -14 19 -14 8 0 14 -7 14 -15 0 -8 5 -15 10 -15
23 0 -3 42 -32 53 -12 4 -15 2 -11 -9z"/>
<path d="M1890 1928 c0 -4 9 -8 20 -8 11 0 20 4 20 8 0 4 -9 8 -20 8 -11 0
-20 -4 -20 -8z"/>
<path d="M1808 1923 c6 -2 18 -2 25 0 6 3 1 5 -13 5 -14 0 -19 -2 -12 -5z"/>
<path d="M2135 1879 c-4 -6 -5 -12 -2 -15 2 -3 7 2 10 11 7 17 1 20 -8 4z"/>
<path d="M1757 1863 c-4 -3 -7 -11 -7 -17 0 -6 5 -5 12 2 6 6 9 14 7 17 -3 3
-9 2 -12 -2z"/>
<path d="M1556 1846 c7 -19 32 -28 40 -14 4 6 3 8 -3 5 -6 -4 -13 0 -17 8 -3
8 -10 15 -15 15 -6 0 -8 -6 -5 -14z"/>
<path d="M1740 1815 c0 -8 2 -15 4 -15 2 0 6 7 10 15 3 8 1 15 -4 15 -6 0 -10
-7 -10 -15z"/>
<path d="M1621 1794 c0 -11 3 -14 6 -6 3 7 2 16 -1 19 -3 4 -6 -2 -5 -13z"/>
<path d="M1765 1750 c3 -5 8 -10 11 -10 2 0 4 5 4 10 0 6 -5 10 -11 10 -5 0
-7 -4 -4 -10z"/>
<path d="M1770 1640 c0 -19 3 -21 12 -12 9 9 9 15 0 24 -9 9 -12 7 -12 -12z"/>
</g>
</svg>
