<?xml version="1.0" standalone="no"?>
<!DOCTYPE svg PUBLIC "-//W3C//DTD SVG 20010904//EN"
 "http://www.w3.org/TR/2001/REC-SVG-20010904/DTD/svg10.dtd">
<svg version="1.0" xmlns="http://www.w3.org/2000/svg"
 width="383pt" height="589pt" viewBox="0 0 383 589"
 preserveAspectRatio="xMidYMid meet">
<metadata>
Created by Potrace Professional 1.0c
</metadata>
<g transform="translate(0,589) scale(0.100000,-0.100000)"
fill="#000000" stroke="none">
<path d="M1989 5838 c-5 -131 -6 -134 -61 -153 -24 -8 -57 -8 -120 0 -84 10
-87 11 -124 53 -48 53 -105 70 -159 48 -18 -8 -40 -24 -47 -35 -16 -27 -20
-26 -70 6 -34 23 -52 28 -105 28 -69 0 -83 -9 -75 -50 3 -19 -4 -29 -36 -50
-23 -15 -51 -47 -66 -75 -15 -28 -37 -55 -49 -62 -12 -6 -30 -22 -40 -35 -16
-19 -24 -22 -57 -17 -34 6 -40 3 -56 -20 -9 -15 -35 -36 -56 -47 -53 -27 -66
-57 -46 -108 18 -44 10 -61 -29 -61 -32 0 -66 -36 -58 -61 4 -11 0 -30 -9 -44
-21 -33 -21 -36 14 -75 27 -30 39 -60 25 -60 -3 0 -17 7 -31 16 -35 24 -102
13 -132 -21 -18 -21 -22 -38 -21 -83 1 -74 -12 -107 -68 -164 -37 -38 -44 -51
-39 -71 4 -19 0 -28 -19 -41 -20 -13 -25 -25 -25 -57 0 -29 -5 -41 -17 -46
-23 -8 -63 -54 -63 -71 0 -7 -5 -21 -12 -31 -9 -15 -7 -24 10 -49 30 -41 27
-66 -13 -137 -19 -33 -46 -82 -60 -108 -45 -83 -21 -108 136 -141 131 -27 171
-43 167 -65 -8 -41 -106 -56 -240 -36 -53 7 -57 6 -80 -20 -12 -15 -62 -66
-110 -114 -71 -71 -89 -96 -97 -132 -6 -24 -10 -53 -8 -64 1 -14 -5 -21 -20
-23 -21 -3 -23 -9 -23 -68 0 -35 3 -64 7 -64 3 0 21 12 40 26 24 18 33 33 31
48 -1 12 7 35 20 50 12 16 22 37 22 47 0 12 10 21 28 25 71 15 84 32 63 87
-11 28 -9 30 47 80 37 32 48 37 95 37 28 1 72 5 97 11 25 5 56 12 70 14 75 15
139 70 132 113 -5 30 -25 62 -39 62 -7 0 -13 7 -13 16 0 8 -4 13 -9 10 -5 -3
-32 1 -61 10 -42 12 -50 18 -44 32 13 32 10 93 -5 102 -11 6 -6 10 21 15 50 9
64 28 49 61 -6 14 -11 35 -11 47 0 28 29 105 52 139 10 14 18 33 18 41 0 9 4
18 9 22 5 3 13 31 16 63 4 31 8 66 9 77 2 13 15 24 37 31 39 13 48 37 25 63
-24 26 -12 45 49 74 68 34 115 74 115 98 0 10 13 34 30 52 16 19 30 39 30 44
0 17 39 46 54 40 28 -11 37 64 11 90 -12 11 -27 13 -65 8 -28 -4 -50 -10 -50
-14 0 -4 -9 -7 -19 -7 -12 0 -21 9 -24 22 -3 15 0 21 9 17 8 -3 17 2 20 11 3
9 12 16 20 16 17 0 67 54 54 58 -6 2 -7 8 -4 13 3 6 -1 21 -10 34 -15 22 -14
24 7 27 12 2 21 8 20 14 -1 5 15 9 35 8 22 -1 36 -6 35 -13 -9 -39 -5 -51 14
-44 12 5 14 3 8 -8 -6 -11 -5 -12 5 -2 11 10 11 15 -1 29 -13 16 -12 16 8 6
16 -9 24 -9 29 0 4 6 3 8 -3 5 -6 -4 -19 3 -29 14 -19 21 -18 21 11 45 17 13
24 24 18 24 -19 0 -16 12 12 42 19 21 32 26 56 23 18 -2 45 3 60 11 15 7 41
14 56 14 52 0 186 -58 196 -84 7 -17 -14 -37 -41 -39 -12 0 -18 -6 -15 -14 5
-12 -8 -18 -30 -14 -5 1 -6 -3 -2 -9 4 -6 8 -23 10 -38 2 -15 4 -32 6 -37 6
-31 -16 -77 -47 -95 -21 -13 -31 -26 -27 -36 7 -19 33 -18 33 2 0 14 2 14 15
0 9 -8 22 -13 30 -10 11 5 15 -1 15 -20 0 -32 36 -116 50 -116 5 0 12 5 15 10
3 6 18 10 32 10 13 0 38 8 54 17 26 16 29 22 29 70 0 51 1 53 27 53 29 0 93
-38 93 -56 0 -7 9 -14 20 -17 19 -5 16 -11 -30 -72 -27 -36 -50 -70 -50 -74 0
-13 -49 -31 -55 -21 -4 6 2 10 12 10 15 0 15 2 3 9 -8 6 -17 8 -21 5 -4 -2
-21 1 -38 7 -43 15 -81 4 -81 -22 0 -12 8 -23 19 -26 15 -4 18 -13 17 -49 -1
-37 -4 -43 -18 -38 -16 5 -23 -5 -19 -29 1 -5 -3 -5 -10 -2 -6 4 -18 -1 -28
-12 -16 -17 -16 -20 -2 -33 9 -8 15 -13 13 -11 -4 8 62 27 76 23 7 -3 11 -11
8 -18 -3 -8 -2 -13 2 -12 4 1 17 -4 30 -12 24 -16 29 -52 9 -68 -16 -14 -42 1
-32 18 5 8 4 11 -3 6 -16 -9 -10 -50 11 -70 9 -10 17 -21 17 -26 0 -16 -33
-80 -41 -80 -5 0 -13 18 -19 39 -5 21 -16 41 -24 44 -22 9 -60 -4 -74 -25 -13
-17 -16 -16 -52 22 -21 22 -43 40 -49 40 -6 0 -11 9 -11 20 0 16 -5 19 -30 14
-23 -5 -30 -3 -30 9 0 25 -31 36 -112 42 -40 2 -65 2 -55 -1 9 -3 17 -15 17
-26 0 -11 8 -26 17 -33 16 -12 16 -14 0 -39 -26 -38 -57 -42 -103 -11 -30 20
-48 25 -83 23 -26 -2 -47 -9 -52 -18 -34 -62 -72 -159 -70 -179 1 -13 -5 -39
-14 -58 -21 -44 -10 -58 45 -56 45 2 60 11 128 75 78 73 176 108 222 78 13 -9
13 -11 0 -20 -8 -5 -11 -10 -6 -10 5 0 2 -8 -6 -17 -22 -25 -20 -55 3 -43 12
7 23 3 43 -15 31 -29 33 -58 6 -92 -15 -20 -19 -34 -14 -60 8 -45 -11 -88 -51
-113 -18 -11 -35 -26 -38 -33 -2 -6 -6 -16 -8 -22 -2 -5 7 -10 21 -10 18 0 26
-6 28 -22 3 -18 12 -24 43 -29 22 -4 42 -10 45 -15 2 -5 -7 -32 -22 -61 -14
-29 -22 -54 -17 -55 5 -2 7 -17 5 -33 -3 -20 0 -30 9 -30 20 0 2 -13 -23 -16
-54 -8 -64 -12 -73 -31 -6 -12 -16 -27 -22 -34 -12 -15 -6 -69 8 -69 5 0 9 -7
9 -15 0 -11 12 -15 48 -15 52 0 69 -8 69 -30 0 -9 2 -29 6 -45 3 -17 4 -24 1
-17 -14 32 -94 -9 -94 -48 0 -18 -48 -60 -68 -60 -8 0 -20 6 -26 14 -17 20
-92 46 -135 46 -32 0 -44 7 -86 51 -37 39 -53 49 -74 47 -20 -2 -27 -9 -29
-30 -2 -16 -9 -28 -18 -28 -9 0 -14 -11 -14 -35 0 -28 5 -37 22 -44 14 -5 30
-4 40 2 24 16 68 -10 68 -39 0 -32 24 -41 101 -38 58 3 68 0 72 -15 2 -11 1
-24 -3 -30 -9 -15 -76 -21 -114 -10 -31 9 -50 -4 -42 -27 7 -19 -54 -26 -80
-9 -27 17 -64 20 -64 4 0 -7 -23 -9 -69 -6 -50 4 -75 1 -88 -9 -10 -7 -26 -14
-35 -14 -24 0 -160 85 -176 109 -17 29 -36 26 -80 -14 -22 -19 -42 -32 -45
-29 -3 3 -15 0 -26 -8 -25 -17 -81 -12 -81 8 0 10 -12 14 -39 14 -42 0 -51
-11 -51 -58 0 -21 5 -28 23 -29 167 -17 164 -17 197 16 18 17 34 31 36 31 2 0
9 -11 14 -25 6 -16 17 -25 31 -25 12 0 49 -13 83 -29 56 -27 68 -29 149 -26
49 3 92 7 97 10 11 7 40 -23 40 -42 0 -18 -54 -71 -94 -92 -24 -13 -32 -13
-72 2 -37 13 -49 14 -67 4 -34 -19 -97 -80 -97 -93 0 -18 -33 -26 -98 -24 -93
4 -103 1 -138 -34 -36 -36 -42 -63 -22 -96 19 -30 -17 -94 -54 -98 l-28 -3 0
-240 0 -240 28 15 c15 8 38 26 51 40 14 14 31 26 39 26 8 0 53 -21 100 -46
100 -55 121 -52 152 20 24 58 50 72 92 52 17 -9 41 -16 53 -16 11 0 36 -11 55
-25 18 -13 54 -32 79 -42 25 -9 53 -22 62 -30 21 -18 35 -17 85 9 24 12 47 19
50 16 3 -4 0 -31 -6 -60 -10 -45 -10 -59 3 -91 14 -33 20 -37 52 -37 21 0 55
11 80 25 36 22 54 26 112 24 44 -2 88 4 127 17 l59 19 33 -39 c27 -31 34 -48
34 -81 0 -49 19 -71 74 -86 40 -11 72 -40 91 -82 6 -16 28 -38 47 -50 20 -12
68 -52 107 -89 l72 -67 -6 -193 c-4 -106 -6 -258 -5 -338 1 -99 -4 -165 -14
-210 -13 -53 -13 -83 -5 -170 16 -153 8 -303 -20 -364 -23 -54 -26 -95 -13
-256 l7 -95 179 -3 180 -2 23 26 c20 24 23 38 23 118 0 68 -4 97 -16 115 -13
18 -15 34 -9 74 14 92 7 221 -16 288 -21 60 -21 63 -5 144 13 64 14 89 5 111
-14 36 -27 174 -38 414 -5 102 -12 195 -16 207 -9 29 12 69 70 135 29 34 58
83 80 137 19 46 41 91 50 101 8 9 15 23 15 31 0 8 25 39 55 69 31 29 68 74 82
99 39 68 93 132 122 145 14 6 38 19 52 29 15 10 55 19 101 23 71 6 76 5 91
-17 10 -13 17 -33 17 -46 0 -33 20 -71 41 -76 14 -4 19 -14 19 -37 0 -41 43
-85 100 -100 64 -17 162 8 237 60 116 82 147 106 166 133 20 25 20 29 5 60
-14 29 -14 37 -1 73 8 21 17 48 20 59 3 11 17 33 32 48 23 25 30 28 71 22 36
-5 54 -1 91 18 26 14 73 30 105 37 76 15 151 58 192 109 28 35 32 47 32 101 0
34 -9 92 -19 128 -10 37 -24 86 -30 108 -12 47 -52 91 -84 96 -36 5 -32 46 11
108 20 30 49 60 63 67 42 20 65 51 52 71 -9 14 -24 16 -74 14 -71 -3 -139 21
-139 49 0 8 14 25 30 37 49 36 41 72 -35 168 -27 33 -30 45 -30 106 0 66 -1
69 -38 102 -29 26 -53 37 -99 45 -34 6 -61 12 -62 13 -1 2 -8 17 -17 33 -20
39 -15 52 26 69 29 13 34 19 38 63 3 26 9 63 13 81 6 30 2 37 -30 67 -38 35
-46 69 -24 104 9 15 9 29 -2 62 -8 24 -14 60 -14 80 1 40 -11 49 -69 49 -20 0
-30 7 -37 26 -14 36 -12 75 5 108 14 27 14 32 -5 70 -11 23 -38 53 -60 68 -45
31 -69 79 -63 124 5 33 -20 142 -43 187 -9 16 -30 35 -49 43 -18 7 -36 18 -40
24 -3 5 -15 10 -25 10 -41 0 -90 33 -110 76 -25 50 -60 170 -60 202 0 13 -11
34 -25 47 -28 29 -72 32 -133 11 -60 -21 -96 -9 -102 35 -4 25 -20 48 -62 88
-59 54 -68 76 -46 110 15 25 4 49 -29 62 -15 6 -64 28 -108 49 -108 51 -109
51 -166 39 -43 -9 -53 -9 -69 6 -10 9 -21 27 -24 41 -5 17 -13 24 -31 24 -22
0 -25 -4 -26 -42z m-629 -220 c-12 -4 -19 -12 -15 -18 3 -5 0 -7 -9 -4 -9 3
-12 12 -9 21 4 11 2 14 -5 9 -7 -4 -12 -5 -12 -1 0 13 45 22 58 12 11 -9 10
-12 -8 -19z m166 -3 c11 -29 -16 -46 -66 -43 -36 2 -46 6 -42 17 4 10 1 12 -9
6 -8 -4 -11 -4 -7 0 5 5 27 9 50 10 23 1 44 7 46 14 5 16 22 14 28 -4z m-232
-41 c3 -8 2 -12 -4 -9 -6 3 -10 10 -10 16 0 14 7 11 14 -7z m-34 -28 c0 -2 -7
-7 -16 -10 -8 -3 -12 -2 -9 4 6 10 25 14 25 6z m616 -313 c21 -28 17 -91 -8
-126 -33 -47 -43 -53 -67 -38 -12 8 -9 15 12 41 32 38 33 47 7 55 -25 8 -26
29 -2 60 20 29 40 31 58 8z m-1021 -129 c-14 -10 -22 -11 -32 -2 -18 15 1 28
30 20 19 -5 19 -6 2 -18z m-95 -164 c-1 -22 -70 -56 -95 -46 -24 9 -18 44 8
49 29 5 87 3 87 -3z m1120 -35 c8 0 15 -7 14 -15 -1 -9 8 -16 22 -16 15 -1 21
2 17 9 -3 5 -1 7 4 4 16 -10 22 -45 9 -55 -20 -16 -56 -21 -86 -12 -23 7 -32
5 -39 -7 -9 -18 -3 -53 10 -53 5 0 5 -7 2 -17 -4 -11 -3 -14 6 -9 6 4 18 2 26
-4 8 -6 19 -9 25 -5 5 3 10 -2 10 -13 0 -11 -6 -19 -12 -19 -7 1 -38 -2 -69
-7 -31 -4 -66 -5 -78 -1 -18 6 -19 8 -6 21 8 8 11 22 8 31 -5 12 -3 14 7 8 9
-5 11 -4 6 4 -4 6 -12 9 -17 5 -6 -3 -19 2 -29 11 -18 16 -16 19 43 77 59 58
97 82 107 69 3 -3 12 -6 20 -6z m-255 -125 c-3 -5 -10 -10 -16 -10 -5 0 -9 5
-9 10 0 6 7 10 16 10 8 0 12 -4 9 -10z m-184 -23 c-10 -9 -11 -8 -5 6 3 10 9
15 12 12 3 -3 0 -11 -7 -18z m149 7 c0 -11 -6 -15 -19 -11 -14 3 -18 1 -14 -9
3 -8 0 -14 -6 -14 -6 0 -11 5 -11 10 0 6 0 13 -1 18 0 4 10 10 23 14 13 3 24
6 26 7 1 1 2 -6 2 -15z m288 -29 c-3 -3 -9 2 -12 12 -6 14 -5 15 5 6 7 -7 10
-15 7 -18z m542 -105 c0 -5 -4 -10 -9 -10 -6 0 -13 5 -16 10 -3 6 1 10 9 10 9
0 16 -4 16 -10z m147 -12 c30 -28 29 -43 -5 -64 -18 -10 -41 -42 -61 -81 -28
-57 -34 -63 -54 -57 -37 11 -57 35 -57 69 0 18 7 38 15 45 8 7 12 16 9 21 -3
5 1 6 9 3 8 -3 14 -12 13 -21 0 -9 6 -18 14 -21 12 -4 13 -3 2 10 -10 13 -6
24 28 67 22 28 46 51 52 51 6 0 22 -10 35 -22z m-2027 -118 c0 -20 -10 -39
-29 -57 -18 -18 -28 -37 -27 -53 3 -32 -15 -68 -48 -99 -30 -28 -33 -18 -11
27 11 22 21 29 32 25 11 -4 14 -2 11 8 -3 8 -2 21 3 30 9 18 -30 69 -53 69
-10 0 -10 2 1 9 7 5 11 13 7 19 -5 8 39 28 112 51 1 1 2 -12 2 -29z m1193 -6
c17 -15 36 -36 42 -48 6 -11 20 -22 32 -24 18 -3 22 2 25 30 l3 33 73 -1 c83
0 100 -11 105 -64 2 -30 6 -35 30 -37 23 -2 30 3 39 28 12 36 25 37 38 3 21
-53 13 -82 -27 -103 -47 -24 -64 -50 -68 -109 -3 -27 -12 -53 -23 -64 -18 -19
-20 -19 -65 3 -46 23 -66 52 -73 108 -5 39 -19 45 -53 25 -17 -10 -31 -24 -31
-31 0 -7 -5 -22 -12 -33 -10 -16 -8 -23 15 -44 15 -14 27 -27 27 -30 0 -3 5
-17 12 -33 15 -38 15 -54 1 -78 -30 -46 -6 -112 44 -120 18 -3 48 -7 67 -10
21 -4 40 -15 50 -30 14 -21 14 -29 3 -63 -8 -22 -13 -74 -13 -116 1 -42 -3
-76 -7 -76 -5 0 -2 -7 7 -15 8 -9 13 -22 9 -30 -9 -25 53 -43 135 -41 39 2 72
0 72 -4 0 -4 12 -12 27 -19 24 -11 26 -14 13 -24 -9 -7 -14 -20 -12 -30 3 -14
-1 -18 -14 -15 -10 1 -17 8 -17 13 2 17 -20 24 -40 14 -10 -6 -17 -16 -14 -22
3 -9 -16 -12 -68 -12 -66 0 -75 2 -98 27 -21 23 -24 32 -17 67 8 46 6 51 -26
51 -30 0 -37 13 -19 36 8 10 15 29 15 41 0 12 5 23 10 25 19 6 23 72 6 111 -8
20 -19 37 -25 37 -5 0 -23 -13 -39 -30 -17 -16 -34 -30 -39 -30 -26 0 -126
-157 -126 -197 0 -7 -6 -13 -13 -13 -8 0 -11 -6 -8 -15 5 -12 -3 -15 -41 -15
-40 0 -55 -6 -94 -37 -25 -20 -48 -38 -50 -40 -15 -10 -6 -56 16 -79 20 -21
23 -33 19 -59 -4 -18 -12 -37 -19 -42 -21 -16 -99 -35 -107 -26 -23 23 -60
110 -60 139 0 21 -6 37 -17 43 -15 8 -16 12 -5 22 6 7 12 27 12 45 0 59 6 64
74 64 88 0 129 31 139 103 7 53 28 81 81 106 36 16 46 26 46 45 0 13 -7 29
-15 36 -14 12 -13 16 9 39 26 28 45 91 27 91 -6 0 -13 11 -17 24 -5 20 -32 48
-91 91 -8 6 -15 18 -16 27 -2 9 -8 23 -15 31 -18 21 7 44 64 58 24 6 44 17 44
25 0 18 -57 57 -86 57 -57 0 -97 -62 -60 -93 8 -6 12 -18 9 -27 -5 -12 -7 -12
-15 -1 -8 10 -11 11 -15 0 -4 -10 -8 -10 -19 -1 -10 8 -14 8 -14 0 0 -6 -11
-11 -25 -11 -27 0 -32 -8 -38 -50 -3 -21 -10 -26 -41 -28 -42 -4 -74 14 -56
32 5 5 10 23 10 38 0 24 -4 28 -29 28 -20 0 -30 6 -34 20 -7 28 17 43 85 51
73 9 92 23 62 47 -25 20 -36 66 -20 86 6 8 28 23 50 34 31 17 43 19 62 10 17
-8 21 -15 14 -22 -20 -20 -10 -29 11 -10 l22 19 -13 -25 c-12 -24 -12 -24 6
-8 19 17 40 13 44 -7 6 -33 18 -39 44 -22 21 14 26 25 26 57 0 21 -4 42 -10
45 -19 12 -10 40 18 57 36 23 39 22 75 -8z m591 -99 c-3 -6 -18 -22 -34 -34
l-30 -22 0 40 c0 22 5 41 13 44 19 6 56 -14 51 -28z m-1944 -279 c0 -2 -7 -6
-15 -10 -8 -3 -15 -1 -15 4 0 6 7 10 15 10 8 0 15 -2 15 -4z m1100 -125 c11
-11 12 -15 2 -19 -6 -2 -12 -8 -12 -14 0 -5 8 -7 18 -4 24 8 75 -38 70 -62 -2
-9 -20 -25 -40 -35 -21 -10 -38 -25 -38 -33 0 -9 -4 -13 -9 -10 -5 4 -9 -15
-8 -41 2 -47 2 -48 -40 -62 -55 -20 -97 -7 -101 30 -2 20 9 39 43 75 50 54 62
82 47 111 -6 11 -8 38 -5 60 5 40 6 41 32 30 14 -7 33 -18 41 -26z m-1370
-361 c0 -5 -2 -10 -4 -10 -3 0 -8 5 -11 10 -3 6 -1 10 4 10 6 0 11 -4 11 -10z
m998 -462 c26 -28 17 -42 -50 -81 -58 -33 -62 -33 -54 -1 4 15 2 32 -5 40 -9
11 -6 19 12 39 30 31 69 32 97 3z m-258 -64 c14 -4 36 -6 49 -5 20 2 23 -1 18
-18 -4 -16 0 -22 19 -27 13 -3 32 -4 41 0 13 4 12 1 -3 -9 -15 -11 -20 -23
-16 -41 7 -37 31 -44 80 -23 34 15 43 23 40 40 -2 17 9 28 57 54 33 18 61 38
63 44 5 14 32 14 32 0 0 -6 7 -9 15 -5 11 4 15 -2 15 -22 0 -22 -9 -34 -45
-57 -34 -21 -45 -34 -43 -49 5 -32 55 -33 101 -1 49 32 69 32 105 -5 50 -50
119 -33 157 38 12 22 37 45 64 59 l43 23 29 -27 c15 -15 26 -30 23 -34 -2 -4
20 -30 49 -58 45 -44 55 -60 70 -118 9 -38 17 -80 17 -95 0 -16 2 -28 5 -28 4
0 22 8 100 41 11 5 45 18 75 28 30 11 56 25 59 33 2 7 11 18 20 24 23 18 32
135 12 151 -23 17 -4 43 45 60 32 12 46 12 77 2 34 -11 37 -14 18 -21 -12 -4
-21 -12 -21 -18 0 -5 -7 -10 -15 -10 -19 0 -20 -16 -1 -23 26 -10 -9 -127 -37
-127 -8 0 -17 -9 -20 -21 -5 -18 -9 -19 -27 -9 -20 11 -21 10 -11 -9 9 -16 6
-25 -12 -48 -18 -21 -24 -41 -25 -82 -1 -35 -7 -60 -18 -72 -14 -16 -15 -22
-5 -32 10 -9 16 -7 29 13 10 14 32 41 50 61 17 20 32 41 32 47 0 17 38 34 61
27 11 -4 36 -24 56 -46 31 -33 42 -39 63 -34 31 8 90 52 90 68 0 7 17 25 37
41 20 16 32 23 28 15 -8 -12 -6 -12 8 -1 15 13 14 16 -10 38 -14 13 -32 24
-39 24 -7 0 -29 17 -49 37 -36 37 -36 37 -64 20 -16 -9 -32 -17 -35 -17 -9 0
5 52 21 76 7 12 12 36 11 54 -3 31 -1 33 32 35 39 2 90 -22 90 -42 0 -7 1 -13
3 -14 42 -8 87 -9 87 0 0 5 13 18 29 27 17 10 28 21 25 25 -9 15 95 55 131 51
43 -5 45 -24 5 -54 -16 -12 -30 -28 -30 -35 0 -7 -7 -13 -15 -13 -8 0 -19 -9
-25 -20 -6 -11 -17 -17 -25 -14 -19 8 -74 -26 -81 -49 -7 -22 50 -79 72 -70 6
2 15 -1 20 -8 4 -8 3 -10 -4 -5 -7 4 -12 3 -12 -3 0 -5 -9 -12 -19 -16 -11 -3
-23 -15 -26 -25 -3 -10 -15 -22 -26 -25 -10 -4 -17 -10 -14 -15 2 -4 -5 -19
-16 -34 -26 -34 -21 -57 17 -76 17 -8 43 -27 57 -42 17 -17 33 -25 45 -21 24
6 34 -8 39 -57 3 -24 0 -40 -11 -49 -16 -13 -11 -41 6 -41 6 0 16 -6 22 -14
17 -21 79 -27 111 -10 15 8 32 11 37 8 6 -4 4 4 -2 17 -7 13 -10 21 -6 18 4
-4 37 4 73 17 36 13 82 24 101 24 22 0 47 9 69 26 19 14 46 27 60 29 14 1 29
9 34 16 7 11 9 9 9 -6 0 -12 5 -26 11 -32 11 -11 -6 -54 -43 -104 -16 -21 -20
-46 -22 -136 -2 -60 -6 -115 -10 -122 -5 -8 -3 -12 5 -10 34 4 42 0 28 -17 -7
-8 -26 -15 -43 -14 -51 3 -58 1 -52 -15 3 -9 -3 -24 -14 -35 -11 -11 -20 -24
-20 -29 0 -6 -12 -6 -30 0 -19 7 -30 18 -30 30 0 10 -4 19 -10 19 -17 0 -30
38 -24 69 6 27 9 29 28 19 11 -6 18 -7 14 -3 -4 4 1 19 12 32 14 18 17 30 11
41 -6 10 -6 23 0 33 6 12 4 19 -6 23 -11 4 -14 13 -9 31 6 24 4 25 -34 25 -41
0 -39 2 -109 -84 -10 -13 -17 -15 -22 -7 -4 6 -18 10 -32 9 -20 -3 -28 6 -49
46 -14 28 -35 53 -49 57 -15 6 -21 14 -17 24 3 8 0 15 -7 15 -20 0 -63 63 -62
92 1 37 -24 41 -122 22 -26 -5 -33 -3 -33 10 0 9 -6 16 -12 17 -10 0 -10 2 0
6 19 7 14 20 -10 28 -31 10 -58 6 -90 -13 -22 -13 -29 -13 -42 -3 -13 11 -16
11 -16 0 -1 -10 -4 -8 -11 4 -13 23 -41 22 -57 -3 -10 -17 -16 -18 -32 -10
-18 10 -21 7 -26 -20 -4 -17 -11 -33 -16 -36 -5 -3 -4 -12 3 -21 15 -17 20
-55 7 -47 -19 12 -56 11 -52 -1 5 -12 -61 -45 -89 -45 -6 0 -35 -11 -63 -24
-43 -20 -54 -31 -70 -70 -13 -32 -29 -51 -50 -61 -24 -11 -30 -20 -29 -42 1
-15 0 -20 -2 -10 -2 9 -9 17 -14 17 -12 0 -12 37 1 45 6 3 10 15 10 25 0 10 4
20 9 22 4 2 5 12 0 23 -7 19 -8 19 -8 -2 -1 -15 -7 -23 -18 -23 -12 0 -14 3
-6 11 8 8 7 18 -3 37 -17 32 -18 52 -3 52 6 0 8 9 4 20 -5 15 -3 18 9 14 13
-5 16 2 17 37 1 24 0 49 -1 54 -1 6 -3 21 -5 35 -1 14 -3 36 -4 50 -2 14 -5
19 -8 11 -3 -8 -8 -9 -12 -3 -3 6 -26 13 -51 17 -78 12 -100 10 -100 -10 0 -8
-4 -15 -9 -15 -5 0 -11 -13 -14 -28 -3 -16 -24 -46 -46 -69 -36 -36 -44 -39
-83 -37 -24 2 -51 4 -60 4 -9 1 -38 -19 -64 -44 -48 -48 -54 -50 -91 -40 -29
8 -29 34 -3 57 12 10 18 22 15 27 -3 5 0 8 7 5 8 -3 14 4 14 20 2 23 -1 26
-25 21 -14 -3 -52 -8 -84 -12 -37 -4 -61 -12 -66 -22 -11 -19 -83 -22 -89 -4
-16 48 -83 58 -106 14 -34 -66 -86 -80 -86 -23 0 16 -6 31 -15 35 -26 9 -17
25 46 89 l62 61 -29 13 c-57 24 -90 7 -79 -40 5 -20 1 -28 -28 -46 -37 -22
-91 -28 -102 -10 -13 19 5 79 23 80 9 0 5 4 -11 9 -16 5 -46 4 -74 -3 -42 -11
-48 -16 -62 -54 -15 -42 -41 -57 -56 -33 -3 6 -19 17 -34 25 -23 11 -34 12
-55 2 -27 -12 -70 -83 -60 -99 3 -5 24 -20 47 -35 47 -30 107 -34 132 -9 21
21 28 20 50 -4 22 -24 31 -25 69 -5 47 25 58 20 50 -22 -4 -21 -11 -43 -16
-50 -5 -7 -7 -17 -3 -24 5 -8 0 -7 -16 1 l-24 13 25 -28 25 -28 -25 13 -25 13
20 -20 c11 -11 23 -19 27 -17 4 3 9 0 12 -5 7 -11 -14 -27 -34 -25 -8 1 -21 2
-27 3 -7 0 -13 7 -13 14 -1 21 -50 69 -65 63 -9 -3 -15 4 -17 21 -5 40 -48 51
-87 22 -21 -15 -39 -20 -62 -17 -23 4 -37 0 -51 -14 -15 -15 -23 -16 -39 -8
-11 6 -19 16 -17 23 1 7 -2 22 -6 35 -5 17 -3 29 9 42 9 10 15 29 13 41 -2 20
-10 24 -48 27 -25 2 -47 5 -48 7 -2 2 4 36 15 75 16 64 23 77 65 111 41 35 47
38 52 21 9 -26 40 -21 74 11 17 17 39 27 58 27 22 0 45 16 100 69 40 38 86 77
103 85 22 12 31 24 31 42 0 23 -2 24 -37 18 l-38 -7 20 22 c12 15 27 21 42 18
19 -3 25 3 39 42 26 69 32 74 63 52 14 -10 37 -22 51 -27z m-220 -124 c0 -5
-5 -10 -11 -10 -7 0 -18 -8 -25 -17 -7 -10 -14 -13 -14 -6 0 6 10 19 22 27 26
19 28 19 28 6z m-132 -50 c10 -17 10 -20 -3 -20 -9 0 -18 -6 -21 -14 -7 -17
-31 -28 -38 -17 -6 9 30 71 41 71 5 0 14 -9 21 -20z m2309 -59 c8 -12 22 -18
38 -17 13 2 22 -1 19 -5 -3 -5 2 -9 10 -9 9 0 15 -3 15 -7 -3 -21 2 -32 15
-27 24 9 29 -16 11 -50 -29 -53 -117 -94 -160 -74 -24 11 -41 48 -26 58 8 5 9
12 12 60 2 43 0 50 -18 43 -11 -5 -14 -3 -8 6 6 10 3 11 -15 1 -13 -7 -20 -8
-16 -2 3 6 2 13 -4 17 -5 3 -10 10 -10 15 0 27 117 19 137 -9z m496 -18 c-3
-10 -17 -28 -30 -41 -13 -13 -20 -28 -17 -34 4 -6 3 -8 -3 -5 -9 6 -10 40 -4
79 1 6 24 15 48 17 8 1 10 -6 6 -16z m134 -78 c-17 -13 -25 -67 -13 -101 4
-14 1 -26 -9 -34 -11 -9 -15 -9 -15 -1 0 8 -6 7 -16 -3 -20 -20 -44 -21 -44
-1 0 22 30 65 45 65 10 0 11 7 6 28 -9 30 2 55 29 64 23 8 35 -4 17 -17z
m-3374 -168 c41 -19 56 -42 39 -59 -7 -7 -22 -5 -49 7 -33 14 -39 22 -39 46 0
16 2 28 5 26 3 -2 23 -11 44 -20z m37 -127 c0 -5 -2 -10 -4 -10 -3 0 -8 5 -11
10 -3 6 -1 10 4 10 6 0 11 -4 11 -10z m1534 -41 c14 -17 29 -43 32 -57 4 -15
13 -36 20 -47 20 -28 17 -107 -7 -177 -24 -73 -22 -99 11 -115 37 -18 45 -103
15 -156 -25 -44 -35 -39 -35 17 0 23 -4 47 -8 54 -5 6 -35 19 -67 27 -76 20
-85 29 -85 82 0 59 -11 77 -59 97 -53 21 -158 101 -166 127 -12 36 32 65 170
112 39 13 86 33 105 45 19 12 38 22 42 22 3 0 18 -14 32 -31z m516 7 c9 -12 8
-15 -9 -13 -21 1 -26 8 -14 20 9 9 9 9 23 -7z m-1972 -19 c2 -10 -3 -17 -12
-17 -9 0 -16 -5 -16 -11 0 -5 -4 -8 -9 -5 -4 3 -6 17 -3 31 5 29 35 31 40 2z
m997 13 c3 -5 -1 -10 -9 -10 -8 0 -15 -8 -14 -17 0 -10 -4 -36 -8 -58 -11 -60
-9 -118 4 -123 18 -6 14 -40 -5 -46 -99 -27 -146 -11 -157 54 -7 45 -27 60
-80 60 -36 0 -49 16 -22 26 8 3 12 13 9 24 -7 25 22 30 71 13 21 -7 48 -13 60
-13 21 0 86 48 86 64 0 11 32 35 47 36 6 0 15 -4 18 -10z m1375 -92 c0 -11
-10 -20 -27 -24 -16 -3 -33 -7 -39 -9 -19 -6 -34 17 -34 50 0 18 3 34 6 38 12
11 94 -36 94 -55z m-230 4 l40 -39 -15 -44 c-27 -78 -156 -268 -235 -344 -28
-27 -61 -67 -72 -87 -26 -46 -38 -47 -61 -9 -25 43 -21 93 13 159 42 83 39
137 -10 184 -28 26 -35 86 -13 110 15 17 26 19 75 14 64 -6 127 16 187 67 18
15 36 27 41 27 5 0 27 -17 50 -38z m-2015 8 c3 -5 1 -10 -5 -10 -6 0 -9 -4 -6
-9 3 -4 0 -16 -7 -26 -13 -16 -14 -16 -30 0 -19 18 -14 35 9 35 8 0 14 5 14
10 0 6 4 10 9 10 6 0 13 -4 16 -10z m545 -44 c0 -8 -4 -18 -10 -21 -5 -3 -10
3 -10 14 0 12 5 21 10 21 6 0 10 -6 10 -14z m1000 -96 c0 -5 -5 -10 -11 -10
-5 0 -7 5 -4 10 3 6 8 10 11 10 2 0 4 -4 4 -10z m1133 -5 c-3 -9 -8 -14 -10
-11 -3 3 -2 9 2 15 9 16 15 13 8 -4z m-1123 -111 c0 -8 -5 -12 -10 -9 -6 4 -8
11 -5 16 9 14 15 11 15 -7z m50 -48 c0 -3 -4 -8 -10 -11 -5 -3 -10 -1 -10 4 0
6 5 11 10 11 6 0 10 -2 10 -4z"/>
<path d="M1620 3030 c0 -5 7 -10 15 -10 8 0 15 5 15 10 0 6 -7 10 -15 10 -8 0
-15 -4 -15 -10z"/>
<path d="M1081 2859 c-26 -28 -34 -69 -21 -104 10 -27 11 -27 30 -10 11 10 20
14 20 9 0 -11 48 -34 70 -34 21 0 62 38 55 51 -4 5 -15 9 -26 9 -11 0 -19 7
-19 17 0 25 -49 83 -70 83 -11 0 -28 -10 -39 -21z"/>
<path d="M2500 2840 c0 -5 5 -10 10 -10 6 0 10 5 10 10 0 6 -4 10 -10 10 -5 0
-10 -4 -10 -10z"/>
<path d="M707 2750 c-3 -11 -1 -20 4 -20 5 0 9 9 9 20 0 11 -2 20 -4 20 -2 0
-6 -9 -9 -20z"/>
<path d="M736 2685 c-3 -8 -1 -15 4 -15 6 0 10 7 10 15 0 8 -2 15 -4 15 -2 0
-6 -7 -10 -15z"/>
<path d="M1321 2587 c-12 -15 -5 -27 16 -27 7 0 13 9 13 20 0 23 -13 26 -29 7z"/>
<path d="M2671 2564 c0 -11 3 -14 6 -6 3 7 2 16 -1 19 -3 4 -6 -2 -5 -13z"/>
<path d="M2121 2490 c-9 -5 -4 -7 13 -7 29 0 32 2 13 10 -8 3 -20 2 -26 -3z"/>
<path d="M3011 2474 c0 -11 3 -14 6 -6 3 7 2 16 -1 19 -3 4 -6 -2 -5 -13z"/>
<path d="M2995 2410 c-4 -6 3 -10 14 -10 25 0 27 6 6 13 -8 4 -17 2 -20 -3z"/>
<path d="M3053 2103 c-15 -5 -17 -23 -4 -23 5 0 11 7 15 15 3 8 4 15 3 14 -1
0 -8 -3 -14 -6z"/>
<path d="M1330 5460 c-13 -8 -12 -10 3 -10 9 0 17 5 17 10 0 12 -1 12 -20 0z"/>
<path d="M1195 5347 c2 -23 20 -34 30 -18 4 7 -1 8 -12 4 -15 -6 -16 -4 -5 9
10 13 10 17 -1 21 -9 3 -13 -2 -12 -16z"/>
<path d="M1173 5148 c2 -7 10 -13 17 -13 7 0 15 6 18 13 2 7 -5 12 -18 12 -13
0 -20 -5 -17 -12z"/>
<path d="M1074 5100 c-12 -5 -24 -20 -26 -35 -5 -21 -1 -28 19 -36 13 -5 29
-9 34 -9 5 0 9 -4 9 -10 0 -5 -6 -10 -12 -10 -10 0 -10 -2 0 -8 9 -6 0 -12
-27 -21 -38 -11 -60 -39 -47 -60 4 -5 -3 -30 -14 -56 -23 -53 -26 -95 -7 -96
6 0 25 -2 42 -4 22 -3 26 -2 15 5 -13 9 -13 11 0 21 13 9 12 10 -2 5 -14 -4
-18 0 -18 17 0 12 5 29 11 37 9 12 10 11 6 -7 -7 -31 7 -29 28 3 16 25 16 27
-5 46 -17 16 -19 23 -9 34 16 19 54 41 45 25 -5 -7 2 -11 18 -11 20 0 26 5 26
21 0 11 4 18 8 15 4 -2 8 4 8 14 0 10 -4 16 -8 14 -4 -3 -8 4 -8 16 0 20 -22
62 -47 88 -13 14 -11 14 -39 2z"/>
<path d="M1276 5041 c-6 -9 3 -21 16 -21 4 0 8 7 8 15 0 16 -16 20 -24 6z"/>
<path d="M1370 5002 c-13 -14 -12 -15 5 -8 18 7 18 6 1 -13 -13 -14 -14 -21
-5 -27 9 -5 7 -10 -5 -20 -19 -13 -14 -34 8 -34 7 0 21 9 30 19 14 16 15 24 6
40 -6 12 -9 25 -7 29 3 4 0 12 -7 18 -9 8 -16 7 -26 -4z"/>
<path d="M1210 5000 c-9 -6 -10 -10 -3 -10 6 0 15 5 18 10 8 12 4 12 -15 0z"/>
<path d="M1234 4976 c-3 -8 -11 -13 -19 -10 -7 3 -15 -2 -18 -10 -5 -11 0 -16
14 -16 13 0 18 -4 13 -12 -4 -7 3 -3 15 9 22 23 28 53 11 53 -6 0 -13 -6 -16
-14z"/>
<path d="M960 4955 c0 -8 5 -15 10 -15 6 0 10 7 10 15 0 8 -4 15 -10 15 -5 0
-10 -7 -10 -15z"/>
<path d="M1165 4899 c-4 -6 -5 -12 -2 -15 2 -3 7 2 10 11 7 17 1 20 -8 4z"/>
<path d="M1167 4832 c4 -9 9 -10 19 -1 10 8 14 8 14 0 0 -6 -4 -12 -10 -12
-36 -5 -47 -15 -46 -40 0 -12 7 -24 15 -27 9 -3 11 0 6 8 -5 8 -4 11 3 6 6 -4
9 -13 5 -21 -7 -21 31 -20 48 1 11 14 11 18 -4 29 -10 7 -14 15 -9 16 5 2 12
16 15 30 6 25 5 26 -27 25 -23 -1 -32 -5 -29 -14z"/>
<path d="M1230 4800 c0 -5 6 -10 14 -10 10 0 13 -13 12 -49 -1 -27 2 -49 5
-48 4 1 18 -10 32 -25 24 -26 57 -30 57 -7 0 5 6 9 14 9 8 0 23 12 34 28 19
26 19 29 3 58 -10 19 -22 29 -33 26 -11 -2 -18 3 -18 12 0 9 -4 16 -10 16 -5
0 -10 -7 -10 -16 0 -10 -5 -12 -12 -7 -7 4 -17 8 -23 10 -52 11 -65 12 -65 3z"/>
<path d="M1115 4779 c-11 -17 1 -21 15 -4 8 9 8 15 2 15 -6 0 -14 -5 -17 -11z"/>
<path d="M885 4279 c-11 -33 7 -41 53 -22 33 13 40 19 31 30 -6 7 -26 13 -45
13 -24 0 -34 -5 -39 -21z"/>
<path d="M630 3829 c0 -15 5 -20 22 -17 34 5 37 38 4 38 -20 0 -26 -5 -26 -21z"/>
<path d="M742 3761 c-27 -25 -32 -37 -32 -73 0 -64 12 -75 44 -43 23 23 32 26
64 20 46 -9 52 -12 52 -33 0 -19 35 -88 55 -108 19 -19 50 22 70 94 13 46 14
64 6 81 -14 25 -58 28 -87 6 -33 -25 -44 -18 -44 29 0 37 -4 45 -22 50 -46 12
-74 6 -106 -23z"/>
<path d="M526 3499 c-23 -27 -8 -44 22 -23 24 17 30 44 9 44 -7 0 -21 -10 -31
-21z"/>
</g>
</svg>
