<?xml version="1.0" standalone="no"?>
<!DOCTYPE svg PUBLIC "-//W3C//DTD SVG 20010904//EN"
 "http://www.w3.org/TR/2001/REC-SVG-20010904/DTD/svg10.dtd">
<svg version="1.0" xmlns="http://www.w3.org/2000/svg"
 width="283pt" height="648pt" viewBox="0 0 283 648"
 preserveAspectRatio="xMidYMid meet">
<metadata>
Created by potrace 1.8, written by Peter Selinger 2001-2007
</metadata>
<g transform="translate(0,648) scale(0.456338,-0.456338)"
fill="#000000" stroke="none">
<path d="M265 1400 c-11 -12 -13 -20 -6 -25 17 -10 13 -22 -15 -49 l-27 -24
22 -13 c28 -18 27 -26 -8 -34 -20 -4 -34 -17 -46 -41 -15 -33 -15 -37 2 -66
10 -17 28 -37 40 -45 21 -14 23 -13 35 13 16 38 15 37 27 30 7 -5 7 -13 -2
-26 -9 -16 -9 -24 0 -40 13 -20 8 -50 -8 -50 -5 0 -9 -12 -9 -27 0 -27 -1 -27
-22 10 -27 46 -51 45 -59 -3 -4 -19 -7 -28 -8 -19 0 9 -10 24 -20 33 -15 14
-24 15 -40 6 -26 -13 -27 -35 -2 -52 14 -10 17 -21 13 -46 l-4 -34 -33 32
c-32 31 -33 31 -64 16 -28 -15 -45 -56 -22 -56 4 0 6 -11 4 -23 -8 -41 49 -78
63 -42 10 26 23 16 30 -22 11 -59 52 -123 79 -123 18 0 22 -4 18 -20 -5 -20
39 -70 63 -70 27 0 35 37 17 75 -15 31 -15 37 -3 45 20 13 21 13 58 -18 29
-25 33 -34 42 -107 27 -225 39 -317 54 -387 9 -42 16 -104 16 -138 l0 -60 31
0 32 0 -7 108 c-4 59 -11 121 -16 137 -5 17 -14 77 -20 135 -24 227 -31 273
-51 312 -23 45 -19 60 10 34 26 -24 53 -17 62 16 4 15 15 35 24 44 19 20 15
35 -13 50 -13 6 -25 13 -27 16 -8 8 72 58 93 58 19 0 42 38 42 68 0 9 -7 25
-15 36 -16 21 -53 17 -78 -9 -8 -7 -27 -17 -41 -21 -26 -6 -26 -5 -15 20 7 14
15 26 19 26 4 0 33 11 64 25 l57 25 -28 29 c-23 25 -30 27 -39 15 -13 -16 -50
-19 -59 -4 -3 6 3 10 13 10 22 0 56 45 46 61 -3 6 -13 8 -21 5 -8 -4 -35 3
-59 13 l-44 20 -15 -27 c-8 -15 -17 -35 -21 -44 -7 -19 -20 -23 -28 -9 -3 4 6
19 19 31 16 15 23 30 19 42 -3 10 -1 18 5 18 14 0 41 54 33 66 -11 16 -41 24
-47 13 -4 -5 -11 -7 -16 -3 -6 4 -2 15 11 29 l21 23 -28 19 c-41 29 -79 34
-98 13z m93 -18 l23 -15 -21 -21 c-15 -17 -17 -25 -8 -34 7 -7 16 -8 23 -2 8
6 18 5 29 -3 17 -12 16 -15 -9 -45 -15 -18 -25 -36 -22 -39 4 -3 -5 -19 -19
-36 -23 -27 -24 -31 -9 -46 14 -14 18 -13 40 14 13 17 24 37 25 46 0 15 4 15
38 -2 21 -11 47 -17 60 -14 12 3 22 1 22 -3 0 -12 -30 -37 -54 -46 -15 -5 -16
-9 -6 -21 17 -20 57 -19 69 3 9 15 10 16 11 0 0 -9 10 -20 23 -24 21 -7 21 -7
2 -15 -11 -4 -41 -16 -67 -26 -75 -29 -90 -94 -19 -78 17 4 31 10 31 14 0 4
12 13 26 20 20 9 30 9 40 0 29 -24 9 -89 -27 -89 -20 0 -77 -34 -91 -54 -10
-15 3 -36 22 -36 29 0 34 -19 11 -44 -12 -12 -21 -30 -21 -39 0 -24 -19 -31
-39 -13 -13 12 -30 14 -72 10 -105 -11 -132 -37 -94 -91 15 -22 11 -53 -7 -53
-21 0 -56 49 -51 70 4 16 1 20 -20 20 -19 0 -31 10 -51 44 -14 25 -26 53 -26
63 0 11 -6 28 -14 38 -14 19 -15 19 -34 2 -18 -17 -21 -17 -36 -1 -9 9 -14 24
-11 34 3 10 1 21 -5 25 -16 10 -12 22 16 40 26 17 27 17 51 -14 33 -42 49 -39
57 10 5 34 3 43 -15 58 -20 16 -20 18 -4 31 15 12 19 12 31 -5 8 -10 14 -25
14 -32 0 -7 7 -13 15 -13 10 0 15 10 15 29 0 43 14 45 36 6 22 -41 44 -46 44
-10 0 14 4 25 10 25 15 0 23 49 11 64 -9 11 -9 19 1 36 11 17 11 22 -2 30 -23
15 -30 12 -43 -19 -10 -24 -16 -27 -30 -20 -9 6 -24 23 -32 40 -14 27 -14 32
2 59 9 17 22 30 28 30 6 0 20 7 31 15 19 14 18 15 -6 35 l-25 20 22 6 c26 7
39 39 24 58 -28 33 39 39 87 8z m51 -699 c21 -46 27 -87 51 -313 6 -58 15
-118 20 -135 5 -16 12 -74 16 -127 7 -96 6 -98 -15 -98 -19 0 -21 5 -21 60 0
34 -7 96 -16 138 -14 69 -27 156 -54 382 -8 70 -11 77 -47 107 l-38 33 41 0
c39 0 42 -2 63 -47z"/>
<path d="M344 1002 c-7 -10 -15 -37 -19 -60 -6 -35 -4 -42 9 -42 9 0 16 3 16
8 0 4 18 18 40 32 43 26 51 47 23 56 -10 3 -26 10 -35 15 -23 12 -21 12 -34
-9z m46 -12 c33 0 30 -15 -8 -40 -20 -14 -41 -29 -45 -35 -11 -14 2 45 16 73
6 13 13 19 15 13 2 -6 12 -11 22 -11z"/>
</g>
</svg>
