<?xml version="1.0" standalone="no"?>
<!DOCTYPE svg PUBLIC "-//W3C//DTD SVG 20010904//EN"
 "http://www.w3.org/TR/2001/REC-SVG-20010904/DTD/svg10.dtd">
<svg version="1.0" xmlns="http://www.w3.org/2000/svg"
 width="469pt" height="297pt" viewBox="0 0 469 297"
 preserveAspectRatio="xMidYMid meet">
<metadata>
Created by potrace 1.8, written by Peter Selinger 2001-2007
</metadata>
<g transform="translate(0,297) scale(0.477551,-0.477551)"
fill="#000000" stroke="none">
<path d="M309 600 c-19 -10 -41 -26 -49 -35 -7 -9 -16 -12 -19 -7 -11 15 -69
52 -82 52 -16 0 -79 -68 -79 -86 0 -8 7 -14 16 -14 14 0 14 -2 -1 -16 -11 -12
-13 -20 -5 -29 8 -10 7 -15 -7 -19 -25 -8 -48 -46 -34 -56 7 -3 9 -14 6 -22
-4 -10 4 -23 24 -38 l31 -21 -31 -31 c-59 -60 -70 -122 -25 -149 16 -10 33
-16 38 -13 4 3 8 -1 8 -9 0 -14 -40 -37 -65 -37 -19 0 -37 -34 -29 -55 5 -12
13 -15 28 -10 17 6 547 21 834 24 64 1 73 3 70 18 -2 10 -17 21 -35 26 -22 7
-35 19 -42 38 -5 16 -16 29 -23 29 -9 0 -9 3 2 10 8 5 11 12 7 16 -4 4 0 18 8
30 14 21 13 24 -13 42 -15 11 -36 21 -47 23 -28 6 -32 45 -6 54 16 5 19 13 17
43 -2 30 -9 40 -34 52 -36 17 -38 23 -16 45 15 14 15 19 1 48 -23 46 -48 64
-88 62 -19 -1 -37 2 -41 8 -3 6 -19 11 -35 13 -15 1 -39 5 -53 8 -14 4 -44 9
-67 13 -36 5 -43 3 -43 -11 0 -13 -5 -16 -22 -10 -13 3 -30 13 -39 20 -19 17
-16 17 -60 -6z m68 -10 c31 -24 49 -25 61 -4 8 14 17 15 48 8 53 -11 75 -14
102 -17 12 -1 26 -8 31 -15 5 -8 21 -11 44 -9 21 2 37 0 37 -4 0 -5 6 -9 14
-9 8 0 22 -14 30 -31 14 -28 14 -34 1 -52 -21 -30 -19 -36 16 -51 25 -11 32
-20 34 -46 2 -25 -2 -34 -16 -37 -34 -9 -18 -73 18 -73 8 0 25 -7 38 -16 23
-15 23 -17 8 -40 -8 -13 -12 -24 -8 -24 4 0 2 -7 -5 -15 -10 -12 -9 -16 4 -21
9 -3 16 -14 16 -24 0 -22 17 -36 53 -45 47 -12 29 -25 -35 -26 -226 -2 -826
-17 -838 -20 -8 -2 -15 2 -15 10 0 15 11 22 63 43 24 9 32 18 30 33 -2 11 -5
18 -8 16 -3 -2 -19 3 -35 12 -49 25 -36 85 32 149 25 24 17 52 -18 63 -13 4
-18 12 -15 22 4 9 2 21 -4 28 -8 10 -3 19 20 35 23 16 28 25 20 35 -7 9 -6 16
6 26 14 12 14 14 0 24 -14 11 -13 16 12 48 15 20 33 36 41 37 7 0 30 -13 51
-30 34 -27 39 -28 51 -14 10 12 74 52 87 54 2 0 15 -9 29 -20z"/>
</g>
</svg>
