<?xml version="1.0" standalone="no"?>
<!DOCTYPE svg PUBLIC "-//W3C//DTD SVG 1.1//EN"
   "http://www.w3.org/Graphics/SVG/1.1/DTD/svg11.dtd">

<svg version="1.1" xmlns="http://www.w3.org/2000/svg"
   width="63" height="143" >

   <polyline points="1.94,48.28 6.35,45.00 14.35,53.00 14.35,44.00 10.85,40.50 14.35,37.00 19.85,42.50 21.85,36.50
      27.35,42.00 31.35,36.00 29.35,32.00 30.85,27.50 29.02,25.67 24.85,31.50 17.37,22.71 26.01,13.10
      24.35,10.33 28.35,6.00 27.35,0.00 33.45,0.00 38.85,4.50 36.85,6.50 43.36,11.82 39.85,16.50
      45.35,20.50 55.32,22.03 52.35,25.00 58.35,34.00 48.35,37.00 44.69,42.95 50.85,42.00 56.67,38.37
      61.35,41.71 59.83,49.00 55.35,49.00 48.35,56.00 53.35,60.00 50.35,63.00 49.35,69.00 41.35,68.00
      50.85,129.00 51.35,140.00 46.35,140.00 38.35,75.00 30.85,67.50 26.96,70.28 31.05,80.50 26.35,80.50
      15.35,68.00 11.35,58.00 8.35,55.00 8.35,59.00 3.35,59.00 1.00,54.65"
      style="fill: none; stroke: #000000; stroke-width: 1"/>
   <polyline points="32.00,68.35 42.85,67.00"
      style="fill: none; stroke: #000000; stroke-width: 1"/>
   <polyline points="43.71,42.50 37.85,47.50 33.85,48.50 34.54,41.00 43.71,42.50"
      style="fill: none; stroke: #000000; stroke-width: 1"/>
   <polyline points="52.85,28.50 48.35,30.00 48.35,27.00 52.85,28.50"
      style="fill: none; stroke: #000000; stroke-width: 1"/>
   <polyline points="38.71,8.65 36.35,11.00 36.35,9.50"
      style="fill: none; stroke: #000000; stroke-width: 1"/>
   <polyline points="40.85,21.00 38.35,21.00 38.35,27.00 35.35,27.00 38.35,17.00"
      style="fill: none; stroke: #000000; stroke-width: 1"/>
</svg>
