<?xml version="1.0" standalone="no"?>
<!DOCTYPE svg PUBLIC "-//W3C//DTD SVG 1.1//EN"
   "http://www.w3.org/Graphics/SVG/1.1/DTD/svg11.dtd">

<svg version="1.1" xmlns="http://www.w3.org/2000/svg"
   width="96" height="63" >

   <path d="M1.00,60.05 C31.87,54.69 62.78,55.17 94.00,56.50"
      stroke="#000099" stroke-width="1" fill="none" />
   <polyline points="94.00,56.50 92.50,54.00 86.50,52.50 86.50,49.00 84.50,47.00 86.50,39.00 81.50,35.00 77.50,35.00
      77.50,29.00 79.50,29.00 80.79,20.00 76.50,20.00 74.00,17.50 77.50,13.00 75.50,11.00 75.50,9.00
      70.50,5.00 63.50,5.00 61.50,3.00 44.50,-0.00 44.50,3.00 40.50,3.00 36.50,0.00 29.71,1.79
      25.14,6.36 17.50,-0.00 14.50,-0.00 14.50,2.00 9.00,8.50 10.50,10.00 10.50,17.00 8.50,17.00
      6.50,19.67 6.50,27.00 11.50,28.00 11.50,32.00 8.50,32.00 8.50,34.00 5.50,37.00 4.50,46.00
      8.50,49.00 11.50,49.00 11.50,52.00 9.50,52.00 7.50,54.00 4.50,54.00 2.50,56.00 1.00,56.00"
      style="fill: none; stroke: #000000; stroke-width: 1"/>
</svg>
