<?xml version="1.0" standalone="no"?>
<!DOCTYPE svg PUBLIC "-//W3C//DTD SVG 1.1//EN"
   "http://www.w3.org/Graphics/SVG/1.1/DTD/svg11.dtd">

<svg version="1.1" xmlns="http://www.w3.org/2000/svg"
   width="233" height="490" >

   <polyline points="103.50,207.00 102.50,203.00"
      style="fill: none; stroke: #000000; stroke-width: 1"/>
   <polyline points="138.50,169.50 138.50,172.00 133.00,179.67 129.50,175.00 129.50,171.00 125.50,167.00 125.50,163.50"
      style="fill: none; stroke: #000000; stroke-width: 1"/>
   <polyline points="151.35,36.34"
      style="fill: none; stroke: #000000; stroke-width: 1"/>
   <polyline points="112.99,160.12 101.50,159.00 100.00,160.50 105.50,165.00"
      style="fill: none; stroke: #000000; stroke-width: 1"/>
   <path d="M105.50,165.00 C103.99,171.67 104.01,178.18 104.50,185.00"
      stroke="#000099" stroke-width="1" fill="none" />
   <polyline points="104.50,185.00 100.79,185.00 98.38,174.38 92.50,165.00 92.50,162.00 90.30,159.80 89.50,155.00 86.50,155.00
      87.00,152.50 85.50,149.50 79.50,143.00 76.00,142.00"
      style="fill: none; stroke: #000000; stroke-width: 1"/>
   <path d="M9.75,64.50 C14.79,63.51 19.40,63.39 24.50,64.00"
      stroke="#000099" stroke-width="1" fill="none" />
   <path d="M212.99,45.00 C218.13,49.59 222.40,54.33 226.13,60.11"
      stroke="#000099" stroke-width="1" fill="none" />
   <path d="M98.50,189.00 C94.98,182.89 92.48,176.77 90.50,170.00"
      stroke="#000099" stroke-width="1" fill="none" />
   <polyline points="144.95,166.78 142.50,168.00 137.70,168.00 134.50,164.00 131.50,164.00 131.00,159.50 139.50,152.00 139.50,146.00
      142.50,143.00 142.50,139.00 138.50,135.00 138.50,133.00 134.50,133.00 127.46,142.39 128.50,158.82 124.00,162.50
      118.97,161.78 121.50,166.00 121.50,170.00 128.50,181.00 128.50,186.00 132.50,191.33 132.50,197.00 128.50,201.00
      127.50,207.00 113.00,225.50"
      style="fill: none; stroke: #000000; stroke-width: 1"/>
   <path d="M113.00,225.50 C110.99,203.47 110.22,182.16 115.00,160.50"
      stroke="#000099" stroke-width="1" fill="none" />
   <polyline points="115.00,160.50 118.47,161.66"
      style="fill: none; stroke: #000000; stroke-width: 1"/>
   <polyline points="99.50,159.50 99.50,155.00 103.79,150.71 99.50,145.00 99.50,139.00 101.50,137.00 97.50,131.00 97.50,129.00
      94.50,126.00 93.50,137.00 90.50,140.00 90.50,142.00 87.50,145.00 85.50,145.00 84.15,146.35"
      style="fill: none; stroke: #000000; stroke-width: 1"/>
   <polyline points="24.50,64.00 26.50,66.00 33.50,65.00 33.85,59.43 27.50,53.00 19.50,51.00 19.50,48.00 15.50,45.00
      19.92,40.47 17.75,39.75 20.50,37.00 20.50,35.00 27.50,34.00 30.50,31.00 34.50,31.00 40.50,27.00
      40.50,24.00 42.50,22.00 42.50,20.00 49.50,18.00 54.50,18.00 56.50,20.00 56.50,24.00 58.00,25.50
      61.00,21.50 66.50,26.00 68.50,26.00 68.50,32.00 72.10,35.60 73.00,32.00 71.50,27.00 71.50,19.00
      74.50,15.00 79.64,18.86 83.50,15.00 83.50,13.00 85.50,11.00 87.50,11.00 97.50,4.00 101.70,4.00
      106.50,0.00 114.00,1.50 118.90,5.00 132.50,5.00 134.50,3.00 138.50,3.00 144.50,7.00 152.50,7.00
      155.61,10.11 152.50,14.00 155.50,17.00 154.50,23.00 156.50,25.00 155.50,33.00 151.50,37.00 154.50,40.00
      168.50,40.00 175.50,33.00 181.07,32.57 183.50,35.00 185.50,35.00 191.50,40.00 191.50,43.00 193.50,45.00
      193.50,47.00 199.50,47.00 207.00,41.50 210.50,45.00 212.99,45.00"
      style="fill: none; stroke: #000000; stroke-width: 1"/>
   <polyline points="226.13,60.11 225.50,67.00 222.50,75.00 230.50,86.00 230.50,94.00 226.50,94.00 224.50,96.00 224.50,103.00
      222.50,105.00 220.50,105.00 218.50,107.00 215.50,107.00 213.50,105.00 209.50,106.00 209.50,111.00 206.50,114.00
      204.50,120.00 195.50,121.00 194.50,120.00 188.50,121.00 186.50,123.00 183.50,123.00 181.50,125.00 185.00,130.50
      180.50,135.00 177.50,135.00 177.50,139.00 172.41,144.09 165.50,136.00 161.00,142.50 160.50,145.00 155.50,151.00
      155.50,154.00 138.50,180.00 138.50,184.50 135.50,189.00 135.50,194.00 137.50,199.00 135.50,201.00 135.50,203.00
      121.50,224.00 117.50,246.00 117.50,379.00 119.00,380.50 118.50,400.00 120.50,403.00 120.50,454.00 122.50,456.00
      122.50,460.00 124.50,462.00 122.50,487.00 105.50,487.00 102.50,486.00 101.50,479.00 103.50,477.00 103.50,474.00
      105.50,472.00 105.50,394.00 103.00,391.50 104.50,390.00 103.50,209.00 100.50,205.00 100.50,201.00 98.50,195.00
      98.50,189.00"
      style="fill: none; stroke: #000000; stroke-width: 1"/>
   <polyline points="90.50,170.00 77.50,151.00 77.50,149.00 75.50,147.00 73.50,135.00 62.50,136.00 62.50,141.00 58.50,141.00
      58.50,144.00 56.50,144.00 54.50,146.00 48.50,146.00 46.50,137.00 43.50,134.00 42.50,140.00 38.50,140.00
      36.50,141.00 33.50,138.00 34.50,132.00 32.00,131.50 30.34,121.88 27.44,122.07 27.50,124.00 24.50,127.00
      18.50,127.00 18.50,122.00 13.50,122.00 10.50,121.00 10.50,113.00 14.50,109.00 15.50,104.00 12.50,101.00
      10.50,103.00 5.50,103.00 5.50,101.00 3.50,99.00 3.50,91.00 6.50,91.00 6.50,88.00 4.50,88.00
      1.00,84.00 3.50,82.00 3.50,79.00 5.50,79.00 7.50,77.00 7.50,70.00 6.25,67.50 9.75,64.50"
      style="fill: none; stroke: #000000; stroke-width: 1"/>
</svg>
