<?xml version="1.0" standalone="no"?>
<!DOCTYPE svg PUBLIC "-//W3C//DTD SVG 20010904//EN"
 "http://www.w3.org/TR/2001/REC-SVG-20010904/DTD/svg10.dtd">
<svg version="1.0" xmlns="http://www.w3.org/2000/svg"
 width="307pt" height="648pt" viewBox="0 0 307 648"
 preserveAspectRatio="xMidYMid meet">
<metadata>
Created by potrace 1.8, written by Peter Selinger 2001-2007
</metadata>
<g transform="translate(0,648) scale(0.132515,-0.132515)"
fill="#000000" stroke="none">
<path d="M1030 4860 c-14 -11 -31 -17 -39 -15 -8 3 -26 -5 -40 -18 -14 -14
-50 -35 -78 -48 -31 -14 -53 -30 -53 -39 0 -9 -8 -23 -18 -31 -17 -15 -20 -15
-31 2 -37 61 -96 -46 -60 -112 5 -11 7 -29 4 -40 -9 -28 -35 -6 -35 30 0 19
-10 34 -30 49 -34 25 -70 29 -70 7 0 -29 -19 -14 -22 18 -3 28 -7 32 -37 35
-61 6 -131 -33 -131 -73 0 -16 -10 -28 -34 -39 -19 -9 -39 -16 -44 -16 -6 0
-23 -6 -39 -14 -15 -8 -40 -19 -55 -25 -20 -7 -29 -19 -33 -45 -5 -22 -14 -36
-26 -39 -25 -7 -25 -37 0 -37 13 0 21 -8 23 -22 2 -16 16 -26 53 -39 48 -16
95 -57 95 -82 -1 -34 -59 -58 -80 -32 -9 10 -30 13 -86 11 -97 -4 -115 -19
-107 -85 5 -43 3 -50 -26 -78 -17 -17 -31 -36 -31 -42 0 -17 38 -51 57 -51 13
-1 10 -5 -9 -16 -33 -17 -37 -53 -12 -102 16 -34 49 -43 72 -20 9 9 15 9 23 1
15 -15 2 -67 -22 -89 -41 -37 -9 -124 40 -111 16 4 21 -1 23 -22 2 -21 9 -27
33 -29 24 -3 35 3 57 28 l26 32 7 -45 c4 -25 13 -48 21 -51 9 -4 12 -15 8 -35
-14 -67 74 -91 102 -27 7 17 14 29 14 26 0 -3 9 -30 19 -60 16 -49 21 -55 47
-58 21 -2 38 5 56 21 14 13 33 27 42 30 9 4 16 18 16 31 0 18 4 24 14 20 8 -3
30 -1 49 4 32 9 36 8 41 -12 3 -11 6 -31 6 -44 0 -22 35 -102 45 -102 5 0 -4
26 -22 60 -7 14 -13 28 -13 32 0 11 42 -4 47 -18 3 -8 11 -14 18 -14 7 0 15
-6 19 -12 3 -7 17 -31 30 -53 39 -62 56 -97 56 -112 0 -7 16 -36 35 -64 19
-29 38 -69 41 -91 7 -38 26 -68 45 -68 5 0 9 29 9 64 0 35 3 84 6 109 6 44 5
46 -27 63 l-34 17 35 10 c23 6 48 5 73 -3 36 -10 38 -14 32 -38 -4 -15 -9
-165 -12 -334 -4 -266 -3 -308 10 -308 8 0 17 13 20 29 6 28 79 133 111 160 8
7 18 27 21 44 4 18 16 42 27 54 16 17 20 31 15 62 -3 22 -12 48 -21 56 -9 9
-16 28 -16 42 0 13 -16 52 -35 84 -19 33 -35 67 -35 75 0 9 -5 24 -10 35 -6
10 -8 19 -5 19 15 0 45 -22 45 -33 0 -7 9 -23 20 -37 11 -14 20 -34 20 -45 0
-25 27 -65 43 -65 13 0 57 76 57 98 0 6 8 12 18 12 10 0 27 7 38 15 32 24 35
17 9 -21 -14 -20 -25 -42 -25 -48 0 -6 -12 -22 -25 -35 -14 -13 -25 -31 -25
-41 0 -9 -7 -32 -17 -50 -13 -27 -14 -41 -6 -73 10 -35 8 -45 -13 -81 -14 -23
-32 -57 -42 -76 -9 -19 -36 -61 -59 -93 -68 -96 -67 -91 -67 -1002 0 -594 4
-806 12 -822 8 -15 12 -99 12 -272 0 -148 4 -259 10 -271 6 -11 15 -29 20 -40
8 -15 7 -39 0 -79 -6 -32 -8 -66 -4 -75 3 -9 1 -22 -5 -30 -6 -7 -10 -29 -9
-47 l3 -34 -60 -3 c-93 -5 -122 3 -130 37 -3 16 -1 39 4 50 6 12 15 30 21 40
13 26 11 1621 -2 2211 -7 321 -14 474 -23 495 -20 50 -35 100 -35 120 0 10
-16 51 -35 92 -19 41 -35 80 -35 88 0 22 -23 68 -47 95 -13 14 -23 30 -23 35
0 6 -14 26 -31 45 -30 34 -30 34 -14 5 10 -16 32 -51 50 -76 18 -25 38 -63 45
-85 7 -21 27 -73 45 -114 57 -130 76 -226 86 -425 5 -99 11 -691 14 -1315 4
-1136 4 -1174 -28 -1217 -5 -7 -6 -26 -2 -43 9 -41 39 -52 134 -48 l76 3 3 40
c5 80 9 121 16 171 5 34 4 54 -3 59 -6 3 -11 17 -11 30 0 13 -5 27 -10 30 -6
4 -10 102 -10 261 0 172 -4 262 -11 277 -9 15 -13 232 -14 772 -3 898 -1 928
70 1034 25 38 45 72 45 76 0 4 8 19 19 33 10 15 29 45 41 66 20 36 21 44 9 78
-11 33 -10 44 4 74 9 19 17 41 17 50 0 8 9 25 21 37 11 12 27 38 35 57 8 19
19 37 25 41 12 7 73 116 94 169 15 40 84 145 94 145 6 0 17 -11 24 -24 21 -42
43 -48 72 -21 14 13 25 32 25 42 0 10 6 18 13 18 18 0 57 38 57 55 0 7 -7 21
-16 29 -16 17 -11 36 10 36 7 0 32 9 55 21 31 15 46 18 54 10 17 -17 65 -13
83 7 30 33 64 93 64 112 0 23 33 35 57 19 15 -9 26 -7 53 8 30 17 36 26 40 64
4 34 10 45 25 47 46 8 59 66 24 110 -11 15 -31 44 -44 65 -23 35 -24 40 -11
75 8 20 14 44 14 52 0 8 3 22 6 30 4 10 -10 40 -36 80 -32 47 -54 68 -85 82
-24 10 -43 23 -43 28 0 6 -11 10 -25 10 -14 0 -25 -3 -25 -8 0 -12 -66 -44
-85 -40 -14 3 -32 27 -55 78 -8 18 -98 69 -122 70 -9 0 -38 -18 -63 -40 -43
-38 -50 -40 -109 -40 -44 0 -67 5 -76 15 -7 8 -19 15 -26 15 -8 0 -14 5 -14
11 0 6 8 8 19 4 21 -6 30 3 48 55 10 29 10 39 -3 57 -11 18 -12 28 -3 45 10
18 8 24 -8 38 -18 14 -19 18 -5 38 21 32 1 52 -52 52 -23 0 -55 9 -74 20 -36
22 -72 26 -89 9 -6 -6 -38 -11 -71 -12 -47 -2 -64 2 -82 18 -12 11 -34 21 -49
21 -14 1 -35 4 -46 8 -13 4 -29 -1 -45 -14z m90 -4 c14 0 32 -10 42 -21 14
-17 27 -20 89 -18 42 1 75 6 77 12 6 17 49 13 84 -9 19 -12 51 -20 75 -20 50
0 62 -14 37 -41 -18 -20 -18 -21 5 -38 20 -16 22 -20 10 -38 -10 -17 -10 -25
2 -45 23 -35 -2 -103 -38 -103 -27 0 -26 -24 1 -35 14 -5 26 -14 26 -20 0 -6
29 -10 69 -10 67 0 72 2 116 40 25 22 51 40 57 40 23 0 120 -54 125 -69 3 -9
12 -31 20 -48 17 -41 47 -43 103 -8 40 25 60 31 60 17 0 -4 21 -18 48 -30 36
-18 56 -37 85 -83 30 -47 36 -63 27 -74 -7 -8 -9 -19 -5 -25 4 -6 -1 -27 -10
-47 -14 -28 -15 -40 -6 -52 6 -9 18 -33 27 -54 9 -21 25 -44 36 -51 31 -22 21
-68 -19 -85 -29 -13 -33 -19 -33 -52 0 -30 -6 -42 -30 -59 -23 -17 -34 -19
-50 -10 -31 17 -70 2 -70 -27 0 -13 -9 -34 -20 -46 -12 -12 -23 -32 -26 -44
-7 -26 -66 -42 -87 -25 -13 11 -87 -6 -87 -20 0 -5 -8 -8 -19 -8 -33 0 -45
-25 -25 -55 17 -27 17 -28 -7 -46 -13 -10 -30 -19 -36 -19 -7 0 -13 -9 -13
-20 0 -10 -10 -28 -22 -40 -20 -18 -23 -19 -40 -3 -10 9 -18 22 -18 29 0 7 -9
16 -21 19 -23 8 -39 -8 -67 -70 -10 -22 -26 -46 -35 -54 -10 -7 -17 -22 -17
-33 0 -29 -62 -128 -80 -128 -8 0 -24 -7 -34 -15 -27 -21 -49 -19 -64 5 -7 11
-21 20 -32 20 -36 0 -25 44 20 80 32 25 40 38 40 65 0 18 7 38 15 45 24 20 18
65 -14 99 -27 29 -61 42 -61 22 0 -4 -16 -29 -36 -55 -35 -47 -36 -48 -29
-116 12 -115 -1 -127 -106 -102 -35 9 -88 15 -116 15 -43 0 -53 4 -53 17 0 10
7 23 15 30 19 16 19 49 0 74 -17 22 -20 76 -5 76 16 0 12 57 -5 64 -8 3 -20
17 -25 31 -5 14 -16 25 -24 25 -16 0 -29 -41 -20 -65 4 -10 -2 -29 -15 -45
-11 -16 -21 -32 -21 -36 0 -13 -35 -33 -57 -34 -38 0 -91 42 -99 77 -6 30 -9
32 -33 26 -14 -4 -41 -7 -58 -6 -28 1 -33 -2 -33 -22 0 -13 -10 -29 -24 -38
-13 -9 -31 -23 -40 -32 -25 -25 -59 -15 -70 20 -28 94 -40 105 -57 56 -22 -61
-96 -37 -83 27 5 24 2 33 -9 38 -9 3 -18 23 -22 45 -9 55 -26 60 -51 14 -7
-12 -24 -21 -42 -23 -27 -3 -31 0 -34 25 -2 18 -8 27 -17 25 -8 -2 -25 2 -38
9 -30 16 -32 72 -3 92 28 20 32 85 6 101 -14 8 -20 8 -23 -1 -15 -41 -73 11
-73 66 0 22 5 30 25 35 34 9 31 28 -7 46 -43 20 -44 32 -8 66 27 25 31 35 29
74 -4 71 7 81 87 85 49 2 74 -1 85 -11 23 -21 78 -7 91 22 9 19 6 30 -16 64
-16 25 -34 40 -47 40 -34 0 -79 29 -79 50 0 14 -7 20 -21 20 -21 0 -21 1 5 25
14 13 26 35 26 48 0 25 16 37 50 37 9 0 23 7 30 15 7 8 21 15 31 15 35 0 89
33 89 54 0 12 6 28 13 36 15 18 74 40 110 40 24 0 27 -4 27 -35 0 -37 25 -50
36 -20 8 20 20 19 55 -6 19 -13 29 -29 29 -45 0 -14 7 -33 16 -42 15 -15 18
-14 31 4 8 11 11 27 7 39 -14 43 -15 100 -2 118 15 20 48 14 48 -9 0 -8 5 -14
11 -14 13 0 48 41 49 57 0 6 24 23 54 36 30 14 64 35 75 46 12 12 25 19 30 17
11 -7 61 16 61 28 0 4 10 5 23 1 12 -4 33 -8 47 -9z m-160 -1269 c0 -8 9 -22
20 -32 21 -19 26 -50 10 -60 -15 -9 -11 -67 5 -89 19 -25 19 -50 0 -66 -8 -7
-15 -26 -15 -42 0 -22 7 -33 31 -46 29 -16 30 -20 25 -61 -3 -24 -6 -71 -6
-104 0 -49 -2 -58 -14 -48 -7 6 -16 28 -19 49 -4 20 -22 62 -42 92 -19 30 -35
60 -35 67 0 13 -47 103 -77 149 -14 22 -14 24 3 24 19 0 54 27 54 43 0 6 8 19
18 30 9 10 18 32 18 48 3 53 4 59 14 59 6 0 10 -6 10 -13z m421 -66 c32 -32
37 -62 14 -81 -8 -7 -15 -28 -15 -47 0 -27 -8 -42 -41 -72 -45 -41 -52 -83
-14 -89 24 -4 45 -29 45 -53 0 -10 -10 -34 -22 -55 l-22 -37 -18 23 c-10 12
-18 32 -18 45 0 12 -9 30 -20 40 -11 10 -20 26 -20 36 0 9 -6 20 -12 22 -7 3
-3 6 9 6 30 1 38 34 29 119 -7 64 -6 67 30 119 20 29 38 53 41 53 2 0 18 -13
34 -29z m-207 -267 c9 -8 19 -27 22 -42 7 -35 9 -38 43 -97 16 -27 30 -58 30
-68 1 -9 10 -34 21 -54 25 -47 25 -85 1 -107 -11 -10 -22 -29 -26 -43 -3 -14
-32 -60 -64 -102 -32 -42 -64 -89 -70 -106 -8 -22 -10 48 -7 275 5 358 9 386
50 344z"/>
</g>
</svg>
