<?xml version="1.0" standalone="no"?>
<!DOCTYPE svg PUBLIC "-//W3C//DTD SVG 20010904//EN"
 "http://www.w3.org/TR/2001/REC-SVG-20010904/DTD/svg10.dtd">
<svg version="1.0" xmlns="http://www.w3.org/2000/svg"
 width="468pt" height="509pt" viewBox="0 0 468 509"
 preserveAspectRatio="xMidYMid meet">
<metadata>
Created by potrace 1.8, written by Peter Selinger 2001-2007
</metadata>
<g transform="translate(0,509) scale(0.577778,-0.577778)"
fill="#000000" stroke="none">
<path d="M372 868 c-6 -6 -12 -20 -12 -29 0 -10 -16 -31 -36 -47 -33 -28 -35
-31 -17 -41 17 -10 16 -13 -12 -36 -25 -21 -27 -25 -12 -31 14 -5 11 -12 -21
-40 -20 -18 -34 -34 -30 -34 4 0 23 15 44 34 34 31 35 34 18 44 -11 6 -14 12
-7 12 16 0 43 29 43 46 0 8 -8 14 -17 14 -16 1 -16 2 2 12 28 16 54 50 55 70
0 21 16 32 22 15 3 -6 4 -29 3 -51 -1 -32 5 -45 35 -77 l37 -39 -25 -16 -24
-16 36 -37 37 -37 -26 -12 c-14 -7 -23 -17 -20 -22 9 -15 45 -32 45 -22 0 6
-10 13 -22 16 -23 6 -23 7 6 22 l28 16 -36 37 -37 38 27 18 27 17 -32 25 c-17
13 -31 31 -31 39 0 8 -4 14 -9 14 -4 0 -7 18 -6 40 3 48 -14 77 -33 58z"/>
<path d="M275 596 c20 -16 20 -16 -5 -36 -14 -12 -35 -25 -47 -30 -21 -9 -21
-11 -7 -39 18 -35 11 -52 -43 -112 -25 -28 -31 -39 -19 -39 19 0 21 -11 4 -28
-9 -9 -7 -13 5 -17 52 -16 53 -17 24 -26 -31 -8 -57 -27 -57 -40 0 -4 9 -11
21 -14 l21 -7 -23 -24 c-12 -13 -28 -24 -35 -24 -6 0 -17 -6 -23 -14 -9 -11
-4 -19 24 -40 38 -29 37 -42 -1 -56 -62 -24 -17 -30 221 -30 190 0 245 3 245
13 -1 17 -46 67 -62 67 -7 0 1 9 17 20 37 24 38 32 5 40 -24 7 -24 7 11 22 54
23 54 34 5 59 -43 21 -52 39 -21 39 27 0 26 20 -1 30 -25 10 -26 12 -9 24 17
12 17 14 -4 28 l-22 15 22 6 c19 5 20 8 9 22 -8 9 -29 25 -49 34 l-35 19 47
21 c26 12 47 23 47 26 0 2 -10 9 -22 15 -20 10 -21 10 -6 -3 16 -12 14 -15
-18 -27 -55 -22 -61 -36 -23 -56 50 -25 63 -41 39 -47 -27 -7 -25 -23 3 -31
20 -6 21 -7 4 -17 -14 -8 -16 -14 -6 -25 6 -8 19 -14 28 -14 10 0 8 -4 -8 -13
-35 -17 -31 -29 18 -54 l44 -21 -39 -19 c-42 -20 -47 -35 -14 -43 20 -5 19 -6
-10 -24 l-32 -18 36 -30 c20 -16 36 -34 36 -39 0 -5 -98 -9 -237 -8 -136 0
-229 4 -218 9 37 14 45 33 27 55 -10 12 -25 24 -35 28 -20 8 -14 27 8 27 8 0
26 12 40 27 l25 28 -21 16 c-21 16 -21 16 21 33 35 14 40 19 30 31 -7 8 -21
15 -31 15 -17 0 -18 3 -7 20 11 17 11 22 0 29 -10 6 -8 12 10 23 13 9 32 31
42 50 18 32 18 37 3 67 -14 29 -14 31 1 31 9 1 30 11 45 24 33 26 33 59 2 64
-20 4 -20 4 0 -12z"/>
</g>
</svg>
