<?xml version="1.0" standalone="no"?>
<!DOCTYPE svg PUBLIC "-//W3C//DTD SVG 1.1//EN"
   "http://www.w3.org/Graphics/SVG/1.1/DTD/svg11.dtd">

<svg version="1.1" xmlns="http://www.w3.org/2000/svg"
   width="65" height="174" >

   <polyline points="34.50,152.50 31.50,151.50"
      style="fill: none; stroke: #000000; stroke-width: 1"/>
   <polyline points="51.50,138.50 52.50,137.50"
      style="fill: none; stroke: #000000; stroke-width: 1"/>
   <polyline points="7.50,124.50 9.50,122.50"
      style="fill: none; stroke: #000000; stroke-width: 1"/>
   <polyline points="6.50,117.50 5.50,116.50 7.50,114.50"
      style="fill: none; stroke: #000000; stroke-width: 1"/>
   <polyline points="57.97,86.66 55.15,85.85"
      style="fill: none; stroke: #000000; stroke-width: 1"/>
   <polyline points="24.85,7.15 22.50,9.50 22.50,8.00"
      style="fill: none; stroke: #000000; stroke-width: 1"/>
   <polyline points="7.50,81.50 8.18,83.32 5.50,86.50 4.50,82.50 7.41,79.59 1.00,72.00 14.00,59.00 9.50,54.50
      9.50,50.50 11.50,50.50 17.50,44.50 14.77,39.05 20.00,35.00 15.50,29.50 15.50,27.50 12.50,24.50
      12.25,20.75 14.50,20.50 19.50,15.50 17.50,13.50 16.48,7.40 20.00,3.00 22.50,5.50 25.50,5.50
      26.00,-0.00 28.50,0.83 31.56,14.08 31.50,20.50 36.64,24.36 33.50,27.50 36.50,32.50 38.50,32.50
      39.50,38.50 41.50,40.50 41.50,42.50 47.50,46.50 47.50,48.50 50.50,48.50 55.75,43.25 59.50,42.50
      59.50,45.50 57.50,47.50 59.50,51.50 59.50,54.50 56.50,54.50 56.50,58.75 52.17,64.17 56.64,68.64
      60.50,63.50 62.50,65.50 59.50,70.50 59.50,74.50 55.50,74.50 53.50,76.50 53.50,79.50 56.50,79.50
      59.00,82.00 57.00,84.00 59.50,86.50 58.21,95.50 53.50,95.50 53.50,99.50 59.50,100.50 61.59,102.59
      57.50,107.50 54.50,107.50 52.50,109.50 48.50,109.50 48.50,112.50 51.50,115.50 51.50,117.50 55.00,121.00
      49.26,125.70 48.50,129.50 51.50,132.50 55.25,130.75 58.00,128.00 60.00,130.00 43.50,147.50 43.50,151.50
      35.50,152.50 35.50,170.50 30.50,170.50 30.00,152.00 20.50,142.50 10.50,139.50 7.50,135.50 6.50,131.50
      4.50,129.50 4.50,123.33 9.50,127.50 13.50,127.50 13.50,124.50 7.50,119.50 8.85,114.55 7.50,109.50
      5.50,109.50 2.17,104.48 5.50,102.50 6.50,97.50 9.50,94.50 3.50,94.50 3.00,92.00 4.50,89.50
      7.50,89.50 8.50,83.50 12.00,83.50"
      style="fill: none; stroke: #000000; stroke-width: 1"/>
</svg>
