<?xml version="1.0" standalone="no"?>
<!DOCTYPE svg PUBLIC "-//W3C//DTD SVG 20010904//EN"
 "http://www.w3.org/TR/2001/REC-SVG-20010904/DTD/svg10.dtd">
<svg version="1.0" xmlns="http://www.w3.org/2000/svg"
 width="248pt" height="648pt" viewBox="0 0 248 648"
 preserveAspectRatio="xMidYMid meet">
<metadata>
Created by potrace 1.8, written by Peter Selinger 2001-2007
</metadata>
<g transform="translate(0,648) scale(0.374566,-0.374566)"
fill="#000000" stroke="none">
<path d="M246 1719 c-2 -8 -7 -27 -11 -42 l-6 -29 -20 26 c-26 33 -39 33 -39
1 0 -14 -5 -25 -11 -25 -17 0 -3 -70 17 -85 16 -11 15 -13 -9 -19 -16 -4 -27
-13 -27 -23 0 -13 -3 -14 -12 -5 -7 7 -16 12 -21 12 -12 0 2 -62 19 -81 8 -8
14 -19 14 -23 0 -4 11 -19 25 -34 l25 -26 -28 -22 c-26 -21 -26 -23 -9 -41 16
-19 15 -22 -34 -72 l-52 -53 32 -27 c30 -25 30 -27 11 -39 -11 -7 -20 -19 -20
-27 0 -8 -6 -15 -12 -15 -7 0 -26 -16 -41 -35 -39 -49 -25 -87 53 -141 20 -14
28 -24 19 -24 -9 0 -24 9 -34 20 -26 29 -45 25 -45 -8 0 -20 7 -32 23 -39 l22
-11 -27 -10 c-38 -15 -42 -28 -15 -48 21 -17 22 -21 11 -53 -6 -19 -17 -37
-23 -39 -20 -7 -11 -30 25 -69 34 -35 35 -38 15 -41 -11 -2 -21 -7 -21 -12 0
-20 46 -79 63 -80 9 0 17 -6 17 -14 0 -31 -23 -27 -60 9 -21 20 -40 33 -44 27
-5 -9 9 -63 25 -92 4 -8 17 -33 28 -55 20 -39 46 -57 103 -70 15 -4 47 -24 70
-46 l42 -38 4 -101 4 -100 29 0 29 0 0 90 c0 84 1 90 21 90 30 0 59 18 59 38
0 10 18 35 41 57 78 76 144 153 136 161 -9 9 -42 -4 -66 -27 l-23 -22 -21 21
c-19 20 -19 22 -3 46 9 14 23 26 30 26 23 0 27 29 6 42 -11 7 -20 20 -20 29 0
9 -7 22 -15 29 -21 17 -19 30 4 30 11 0 23 5 26 10 3 6 14 10 24 10 10 0 31
16 45 35 l27 35 -26 10 c-15 6 -32 10 -39 10 -8 0 -19 6 -25 14 -10 12 -8 15
10 18 22 3 26 8 50 63 7 17 15 34 17 39 3 4 -11 5 -29 1 l-34 -7 24 26 c26 28
22 41 -14 48 -28 5 -25 31 5 38 16 4 26 14 28 28 2 12 7 22 12 22 6 0 30 52
30 66 0 14 -42 0 -52 -16 -7 -11 -18 -20 -25 -20 -15 0 -28 41 -15 49 6 3 14
19 18 35 4 16 16 38 26 48 18 18 18 21 3 37 -14 17 -14 21 2 49 10 17 15 34
11 37 -9 9 -85 -32 -96 -51 -8 -15 -12 -14 -33 9 -12 15 -31 27 -41 27 -13 0
-18 7 -18 25 0 14 -4 25 -9 25 -5 0 -11 13 -14 29 -4 17 -18 36 -37 48 -27 17
-29 21 -16 33 24 19 19 46 -10 65 -20 13 -23 19 -14 31 10 11 8 23 -5 56 -10
24 -21 66 -26 93 l-8 50 3 -55 c1 -30 11 -72 20 -93 13 -26 15 -41 8 -50 -12
-14 7 -47 27 -47 16 0 13 -36 -5 -50 -13 -12 -12 -16 14 -39 32 -28 62 -83 62
-113 0 -11 7 -18 18 -18 10 0 28 -11 40 -25 26 -30 43 -32 59 -5 13 19 73 56
73 44 0 -3 -8 -19 -17 -36 -17 -28 -17 -30 -1 -39 19 -10 14 -39 -7 -39 -7 0
-16 -16 -19 -35 -4 -19 -11 -35 -16 -35 -14 0 -12 -44 2 -58 18 -18 45 -14 51
8 3 11 12 20 21 20 13 0 14 -4 4 -25 -6 -14 -15 -25 -19 -25 -4 0 -9 -10 -11
-22 -2 -14 -12 -24 -28 -28 -29 -7 -41 -47 -16 -55 9 -3 23 -7 32 -10 14 -4
12 -8 -7 -23 -29 -24 -17 -46 19 -37 25 6 26 5 10 -12 -9 -10 -18 -27 -20 -38
-2 -11 -15 -26 -30 -33 -24 -11 -26 -16 -16 -32 7 -11 29 -22 50 -25 l38 -7
-27 -29 c-16 -16 -33 -29 -39 -29 -16 0 -74 -30 -74 -38 0 -4 7 -16 15 -26 8
-11 15 -27 15 -37 0 -9 10 -20 23 -23 22 -6 22 -6 2 -21 -64 -49 -70 -69 -29
-98 24 -18 25 -18 55 7 76 64 34 -5 -46 -76 -52 -46 -85 -85 -85 -100 0 -26
-34 -39 -79 -32 -28 5 -55 20 -88 50 -32 30 -60 46 -85 51 -21 3 -38 9 -38 13
0 4 -9 10 -20 13 -19 5 -44 51 -76 137 -18 47 -11 48 22 5 33 -44 67 -45 72
-3 3 22 -1 28 -15 28 -10 0 -29 17 -42 37 -23 35 -23 36 -2 30 33 -8 26 25
-15 68 -30 33 -33 40 -20 47 9 5 16 17 16 26 0 10 7 28 16 40 9 13 14 24 13
26 -2 1 -17 8 -33 14 -30 13 -26 27 9 34 27 5 31 35 6 43 -13 4 -21 15 -21 27
l0 21 23 -21 c13 -12 36 -22 51 -22 26 0 24 3 -34 59 -33 32 -60 65 -60 72 0
16 53 69 69 69 6 0 11 5 11 12 0 6 9 22 21 34 l20 21 -29 25 c-28 23 -32 47
-9 49 7 0 27 18 45 41 31 39 32 42 15 60 -16 18 -16 20 11 41 25 21 26 24 12
36 -9 7 -16 20 -16 27 0 8 -4 14 -10 14 -5 0 -10 5 -10 12 0 6 -6 19 -14 27
-7 9 -17 27 -21 41 -6 20 -5 23 6 13 17 -17 29 -16 29 2 0 8 11 17 25 21 30 7
30 9 5 41 -21 27 -27 63 -10 63 6 0 10 12 10 26 0 21 2 23 13 12 7 -7 16 -21
20 -30 11 -31 25 -20 35 29 10 44 8 74 -2 42z m94 -1619 c0 -83 -1 -90 -20
-90 -18 0 -20 7 -20 74 0 41 -3 81 -6 90 -5 12 0 16 20 16 l26 0 0 -90z"/>
</g>
</svg>
