<?xml version="1.0" encoding="UTF-8" standalone="no"?>
<svg
   xmlns:dc="http://purl.org/dc/elements/1.1/"
   xmlns:cc="http://creativecommons.org/ns#"
   xmlns:rdf="http://www.w3.org/1999/02/22-rdf-syntax-ns#"
   xmlns:svg="http://www.w3.org/2000/svg"
   xmlns="http://www.w3.org/2000/svg"
   xmlns:xlink="http://www.w3.org/1999/xlink"
   xmlns:sodipodi="http://sodipodi.sourceforge.net/DTD/sodipodi-0.dtd"
   xmlns:inkscape="http://www.inkscape.org/namespaces/inkscape"
   version="1.0"
   width="200"
   height="424"
   viewBox="0 0 307 648"
   preserveAspectRatio="xMidYMid meet"
   id="svg28790"
   sodipodi:version="0.32"
   inkscape:version="0.46"
   sodipodi:docname="arvore1pag506-Color-po-in.svg"
   inkscape:output_extension="org.inkscape.output.svg.inkscape">
  <defs
     id="defs28799">
    <linearGradient
       inkscape:collect="always"
       id="linearGradient29444">
      <stop
         style="stop-color:#00b819;stop-opacity:1;"
         offset="0"
         id="stop29446" />
      <stop
         style="stop-color:#00b819;stop-opacity:0;"
         offset="1"
         id="stop29448" />
    </linearGradient>
    <inkscape:perspective
       sodipodi:type="inkscape:persp3d"
       inkscape:vp_x="0 : 405 : 1"
       inkscape:vp_y="0 : 1000 : 0"
       inkscape:vp_z="383.75 : 405 : 1"
       inkscape:persp3d-origin="191.875 : 270 : 1"
       id="perspective28801" />
    <radialGradient
       inkscape:collect="always"
       xlink:href="#linearGradient29444"
       id="radialGradient29452"
       cx="192.00943"
       cy="146.02631"
       fx="192.00943"
       fy="146.02631"
       r="191.62799"
       gradientTransform="matrix(1,0,0,0.7512998,0,36.316769)"
       gradientUnits="userSpaceOnUse" />
    <filter
       inkscape:collect="always"
       id="filter29510">
      <feGaussianBlur
         inkscape:collect="always"
         stdDeviation="6.5441621"
         id="feGaussianBlur29512" />
    </filter>
    <filter
       inkscape:collect="always"
       id="filter29613"
       x="-0.20942806"
       width="1.4188561"
       y="-0.027874177"
       height="1.0557483">
      <feGaussianBlur
         inkscape:collect="always"
         stdDeviation="6.0875099"
         id="feGaussianBlur29615" />
    </filter>
    <radialGradient
       inkscape:collect="always"
       xlink:href="#linearGradient29444"
       id="radialGradient29617"
       gradientUnits="userSpaceOnUse"
       gradientTransform="matrix(1,0,0,0.7512998,0,36.316769)"
       cx="192.00943"
       cy="146.02631"
       fx="192.00943"
       fy="146.02631"
       r="191.62799" />
    <radialGradient
       inkscape:collect="always"
       xlink:href="#linearGradient29444"
       id="radialGradient2519"
       gradientUnits="userSpaceOnUse"
       gradientTransform="matrix(1,0,0,0.7512998,0,36.316769)"
       cx="192.00943"
       cy="146.02631"
       fx="192.00943"
       fy="146.02631"
       r="191.62799" />
    <radialGradient
       inkscape:collect="always"
       xlink:href="#linearGradient29444"
       id="radialGradient2528"
       gradientUnits="userSpaceOnUse"
       gradientTransform="matrix(1,0,0,0.7512998,0,36.316769)"
       cx="192.00943"
       cy="146.02631"
       fx="192.00943"
       fy="146.02631"
       r="191.62799" />
  </defs>
  <sodipodi:namedview
     inkscape:window-height="750"
     inkscape:window-width="1264"
     inkscape:pageshadow="2"
     inkscape:pageopacity="0.0"
     guidetolerance="10.0"
     gridtolerance="10.0"
     objecttolerance="10.0"
     borderopacity="1.0"
     bordercolor="#666666"
     pagecolor="#ffffff"
     id="base"
     showgrid="false"
     inkscape:zoom="1.1407407"
     inkscape:cx="-106.44222"
     inkscape:cy="217.75612"
     inkscape:window-x="0"
     inkscape:window-y="14"
     inkscape:current-layer="svg28790" />
  <metadata
     id="metadata28792">
Created by potrace 1.8, written by Peter Selinger 2001-2007
<rdf:RDF>
  <cc:Work
     rdf:about="">
    <dc:format>image/svg+xml</dc:format>
    <dc:type
       rdf:resource="http://purl.org/dc/dcmitype/StillImage" />
  </cc:Work>
</rdf:RDF>
</metadata>
  <path
     style="opacity:1;fill:#015a01;fill-opacity:1;stroke:#008619;stroke-width:6.57467556;stroke-miterlimit:28.39999962;stroke-dasharray:none;stroke-opacity:1"
     d=""
     id="path28813"
     transform="scale(0.8,0.8)" />
  <path
     style="opacity:1;fill:#015a01;fill-opacity:1;stroke:#008619;stroke-width:6.57467556;stroke-miterlimit:28.39999962;stroke-dasharray:none;stroke-opacity:1"
     d=""
     id="path28815"
     transform="scale(0.8,0.8)" />
  <g
     id="agrupamentoPF1"
     inkscape:label="#g2544">
    <g
       inkscape:label="#g28794"
       style="fill:#000000;stroke:none"
       id="basePF1"
       transform="matrix(0.132515,0,0,-0.132515,0,648)">
      <path
         id="path28796"
         d="M 1030,4860 C 1016,4849 999,4843 991,4845 C 983,4848 965,4840 951,4827 C 937,4813 901,4792 873,4779 C 842,4765 820,4749 820,4740 C 820,4731 812,4717 802,4709 C 785,4694 782,4694 771,4711 C 734,4772 675,4665 711,4599 C 716,4588 718,4570 715,4559 C 706,4531 680,4553 680,4589 C 680,4608 670,4623 650,4638 C 616,4663 580,4667 580,4645 C 580,4616 561,4631 558,4663 C 555,4691 551,4695 521,4698 C 460,4704 390,4665 390,4625 C 390,4609 380,4597 356,4586 C 337,4577 317,4570 312,4570 C 306,4570 289,4564 273,4556 C 258,4548 233,4537 218,4531 C 198,4524 189,4512 185,4486 C 180,4464 171,4450 159,4447 C 134,4440 134,4410 159,4410 C 172,4410 180,4402 182,4388 C 184,4372 198,4362 235,4349 C 283,4333 330,4292 330,4267 C 329,4233 271,4209 250,4235 C 241,4245 220,4248 164,4246 C 67,4242 49,4227 57,4161 C 62,4118 60,4111 31,4083 C 14,4066 0,4047 0,4041 C 0,4024 38,3990 57,3990 C 70,3989 67,3985 48,3974 C 15,3957 11,3921 36,3872 C 52,3838 85,3829 108,3852 C 117,3861 123,3861 131,3853 C 146,3838 133,3786 109,3764 C 68,3727 100,3640 149,3653 C 165,3657 170,3652 172,3631 C 174,3610 181,3604 205,3602 C 229,3599 240,3605 262,3630 L 288,3662 L 295,3617 C 299,3592 308,3569 316,3566 C 325,3562 328,3551 324,3531 C 310,3464 398,3440 426,3504 C 433,3521 440,3533 440,3530 C 440,3527 449,3500 459,3470 C 475,3421 480,3415 506,3412 C 527,3410 544,3417 564,3435 C 606,3474 620,3468 620,3410 C 620,3365 623,3359 650,3345 C 666,3337 687,3330 697,3330 C 707,3330 720,3320 725,3308 C 731,3295 749,3278 767,3270 C 784,3262 801,3245 805,3232 C 808,3219 818,3206 828,3203 C 850,3194 900,3145 900,3131 C 900,3125 915,3088 934,3048 C 991,2926 1011,2827 1021,2625 C 1026,2526 1032,1934 1035,1310 C 1039,174 1039,136 1007,93 C 1002,86 1001,67 1005,50 C 1014,9 1044,-2 1139,2 L 1215,5 L 1218,45 C 1223,125 1227,166 1234,216 C 1239,250 1238,270 1231,275 C 1225,278 1220,292 1220,305 C 1220,318 1215,332 1210,335 C 1204,339 1200,437 1200,596 C 1200,768 1196,858 1189,873 C 1170,907 1168,2375 1187,2505 C 1194,2560 1205,2641 1209,2685 C 1214,2729 1230,2815 1244,2877 C 1258,2938 1270,2997 1270,3007 C 1270,3017 1281,3046 1295,3072 C 1309,3098 1320,3126 1320,3134 C 1320,3142 1337,3156 1358,3165 C 1378,3174 1404,3187 1415,3193 C 1426,3199 1446,3209 1459,3216 C 1487,3231 1538,3302 1547,3339 C 1550,3354 1561,3376 1570,3390 C 1580,3404 1599,3436 1614,3463 C 1629,3489 1645,3510 1650,3510 C 1655,3510 1665,3498 1672,3483 C 1694,3439 1715,3432 1745,3460 C 1759,3473 1770,3492 1770,3502 C 1770,3512 1776,3520 1783,3520 C 1801,3520 1840,3558 1840,3575 C 1840,3582 1833,3596 1824,3604 C 1808,3621 1813,3640 1834,3640 C 1841,3640 1866,3649 1889,3661 C 1920,3676 1935,3679 1943,3671 C 1960,3654 2008,3658 2026,3678 C 2056,3711 2090,3771 2090,3790 C 2090,3813 2123,3825 2147,3809 C 2162,3800 2173,3802 2200,3817 C 2230,3834 2236,3843 2240,3881 C 2244,3915 2250,3926 2265,3928 C 2311,3936 2324,3994 2289,4038 C 2278,4053 2258,4082 2245,4103 C 2222,4138 2221,4143 2234,4178 C 2242,4198 2248,4222 2248,4230 C 2248,4238 2251,4252 2254,4260 C 2258,4270 2244,4300 2218,4340 C 2186,4387 2164,4408 2133,4422 C 2109,4432 2090,4445 2090,4450 C 2090,4456 2079,4460 2065,4460 C 2051,4460 2040,4457 2040,4452 C 2040,4440 1974,4408 1955,4412 C 1941,4415 1923,4439 1900,4490 C 1892,4508 1802,4559 1778,4560 C 1769,4560 1740,4542 1715,4520 C 1672,4482 1665,4480 1606,4480 C 1562,4480 1539,4485 1530,4495 C 1523,4503 1511,4510 1504,4510 C 1496,4510 1490,4515 1490,4521 C 1490,4527 1498,4529 1509,4525 C 1530,4519 1539,4528 1557,4580 C 1567,4609 1567,4619 1554,4637 C 1543,4655 1542,4665 1551,4682 C 1561,4700 1559,4706 1543,4720 C 1525,4734 1524,4738 1538,4758 C 1559,4790 1539,4810 1486,4810 C 1463,4810 1431,4819 1412,4830 C 1376,4852 1340,4856 1323,4839 C 1317,4833 1285,4828 1252,4827 C 1205,4825 1188,4829 1170,4845 C 1158,4856 1136,4866 1121,4866 C 1107,4867 1086,4870 1075,4874 C 1062,4878 1046,4873 1030,4860 z M 1120,4856 C 1134,4856 1152,4846 1162,4835 C 1176,4818 1189,4815 1251,4817 C 1293,4818 1326,4823 1328,4829 C 1334,4846 1377,4842 1412,4820 C 1431,4808 1463,4800 1487,4800 C 1537,4800 1549,4786 1524,4759 C 1506,4739 1506,4738 1529,4721 C 1549,4705 1551,4701 1539,4683 C 1529,4666 1529,4658 1541,4638 C 1564,4603 1539,4535 1503,4535 C 1476,4535 1477,4511 1504,4500 C 1518,4495 1530,4486 1530,4480 C 1530,4474 1559,4470 1599,4470 C 1666,4470 1671,4472 1715,4510 C 1740,4532 1766,4550 1772,4550 C 1795,4550 1892,4496 1897,4481 C 1900,4472 1909,4450 1917,4433 C 1934,4392 1964,4390 2020,4425 C 2060,4450 2080,4456 2080,4442 C 2080,4438 2101,4424 2128,4412 C 2164,4394 2184,4375 2213,4329 C 2243,4282 2249,4266 2240,4255 C 2233,4247 2231,4236 2235,4230 C 2239,4224 2234,4203 2225,4183 C 2211,4155 2210,4143 2219,4131 C 2225,4122 2237,4098 2246,4077 C 2255,4056 2271,4033 2282,4026 C 2313,4004 2303,3958 2263,3941 C 2234,3928 2230,3922 2230,3889 C 2230,3859 2224,3847 2200,3830 C 2177,3813 2166,3811 2150,3820 C 2119,3837 2080,3822 2080,3793 C 2080,3780 2071,3759 2060,3747 C 2048,3735 2037,3715 2034,3703 C 2027,3677 1968,3661 1947,3678 C 1934,3689 1860,3672 1860,3658 C 1860,3653 1852,3650 1841,3650 C 1808,3650 1796,3625 1816,3595 C 1833,3568 1833,3567 1809,3549 C 1796,3539 1779,3530 1773,3530 C 1766,3530 1760,3521 1760,3510 C 1760,3500 1750,3482 1738,3470 C 1718,3452 1715,3451 1698,3467 C 1688,3476 1680,3489 1680,3496 C 1680,3503 1671,3512 1659,3515 C 1636,3523 1620,3507 1592,3445 C 1582,3423 1566,3399 1557,3391 C 1547,3384 1540,3369 1540,3358 C 1540,3331 1478,3230 1462,3230 C 1454,3230 1436,3222 1422,3212 C 1407,3202 1375,3184 1350,3172 C 1306,3150 1301,3150 1095,3158 L 885,3166 L 848,3201 C 827,3221 810,3242 810,3248 C 810,3254 794,3266 775,3274 C 755,3283 736,3300 730,3315 C 724,3331 713,3340 698,3340 C 656,3341 630,3373 630,3424 C 630,3448 625,3472 620,3475 C 609,3482 575,3463 546,3435 C 521,3410 487,3420 476,3455 C 448,3549 436,3560 419,3511 C 397,3450 323,3474 336,3538 C 341,3562 338,3571 327,3576 C 318,3579 309,3599 305,3621 C 296,3676 279,3681 254,3635 C 247,3623 230,3614 212,3612 C 185,3609 181,3612 178,3637 C 176,3655 170,3664 161,3662 C 153,3660 136,3664 123,3671 C 93,3687 91,3743 120,3763 C 148,3783 152,3848 126,3864 C 112,3872 106,3872 103,3863 C 88,3822 30,3874 30,3929 C 30,3951 35,3959 55,3964 C 89,3973 86,3992 48,4010 C 5,4030 4,4042 40,4076 C 67,4101 71,4111 69,4150 C 65,4221 76,4231 156,4235 C 205,4237 230,4234 241,4224 C 264,4203 319,4217 332,4246 C 341,4265 338,4276 316,4310 C 300,4335 282,4350 269,4350 C 235,4350 190,4379 190,4400 C 190,4414 183,4420 169,4420 C 148,4420 148,4421 174,4445 C 188,4458 200,4480 200,4493 C 200,4518 216,4530 250,4530 C 259,4530 273,4537 280,4545 C 287,4553 301,4560 311,4560 C 346,4560 400,4593 400,4614 C 400,4626 406,4642 413,4650 C 428,4668 487,4690 523,4690 C 547,4690 550,4686 550,4655 C 550,4618 575,4605 586,4635 C 594,4655 606,4654 641,4629 C 660,4616 670,4600 670,4584 C 670,4570 677,4551 686,4542 C 701,4527 704,4528 717,4546 C 725,4557 728,4573 724,4585 C 710,4628 709,4685 722,4703 C 737,4723 770,4717 770,4694 C 770,4686 775,4680 781,4680 C 794,4680 829,4721 830,4737 C 830,4743 854,4760 884,4773 C 914,4787 948,4808 959,4819 C 971,4831 984,4838 989,4836 C 1000,4829 1050,4852 1050,4864 C 1050,4868 1060,4869 1073,4865 C 1085,4861 1106,4857 1120,4856 z M 1309,3135 C 1312,3132 1302,3105 1287,3076 C 1272,3047 1260,3016 1260,3007 C 1260,2998 1247,2930 1230,2857 C 1214,2783 1200,2707 1200,2689 C 1200,2670 1192,2621 1183,2580 C 1168,2513 1166,2417 1166,1695 C 1166,1091 1169,879 1178,863 C 1186,848 1190,764 1190,591 C 1190,443 1194,332 1200,320 C 1206,309 1215,291 1220,280 C 1228,265 1227,241 1220,201 C 1214,169 1212,135 1216,126 C 1219,117 1217,104 1211,96 C 1205,89 1201,67 1202,49 L 1205,15 L 1145,12 C 1052,7 1023,15 1015,49 C 1012,65 1013,87 1018,97 C 1023,107 1032,125 1038,137 C 1046,152 1049,409 1049,1022 C 1049,2012 1034,2799 1015,2845 C 995,2895 980,2945 980,2965 C 980,2975 964,3016 945,3057 C 926,3098 910,3136 910,3142 C 910,3150 964,3151 1107,3147 C 1215,3143 1306,3138 1309,3135 z" />
    </g>
    <g
       id="g2535">
      <g
         id="g2393"
         transform="matrix(1,0,0,1.0020851,-0.3787664,-3.3090664e-3)">
        <path
           inkscape:label="#path28809"
           transform="scale(0.8,0.8)"
           id="preenchimentoCopaPF1"
           d="M 171.1388,285.63883 C 165.37627,285.28439 159.99071,284.05289 159.17095,282.90215 C 158.02597,281.29493 157.47428,281.31799 156.7912,283.00147 C 154.4741,288.71201 147.13775,284.92443 132.17067,270.29043 C 123.78768,262.094 115.60368,255.38783 113.98398,255.38783 C 109.62835,255.38783 106.54618,250.75185 105.4477,242.54805 C 104.24103,233.53626 100.85896,232.50875 92.067217,238.48289 C 88.536423,240.88215 84.59842,242.44256 83.316131,241.9505 C 82.033806,241.45841 79.697307,237.17989 78.123838,232.44262 C 74.945517,222.87357 71.331322,221.36811 68.17383,228.29805 C 66.636793,231.67137 65.034518,232.6383 61.636744,232.24286 C 57.840228,231.80098 56.982803,230.6213 56.15883,224.70602 C 54.858324,215.36964 49.278353,202.79043 46.437392,202.79043 C 45.185135,202.79043 43.529667,203.8587 42.758537,205.16436 C 41.987424,206.46999 39.480982,208.52386 37.188717,209.72848 C 33.795063,211.51194 32.741712,211.47805 31.517507,209.54613 C 30.690659,208.24122 30.001983,206.3505 29.987221,205.34456 C 29.972441,204.33862 27.396255,202.76068 24.262327,201.83807 C 17.134362,199.73961 16.047068,194.46274 21.068525,186.33784 C 25.443945,179.25827 25.685052,174.22012 21.832835,170.36788 C 19.805416,168.34054 18.418177,168.04692 17.099069,169.36603 C 13.63937,172.82571 10.510543,171.26742 7.7760568,164.72289 C 5.0867165,158.28644 5.1122087,158.16855 10.057083,154.16352 L 15.057781,150.11326 L 10.674665,146.68562 C 8.2639503,144.80045 5.6998269,143.24048 4.9766126,143.21903 C 2.4076678,143.14284 3.7234269,139.22973 8.0447944,134.09407 C 11.262826,130.26966 12.427911,126.84001 12.427911,121.19163 C 12.427911,115.37974 13.257285,113.05435 15.819146,111.68328 C 20.301883,109.28417 35.699159,109.36296 41.075297,111.81249 C 47.128978,114.5707 55.199207,110.54039 55.913603,104.40219 C 56.570106,98.760939 48.716648,88.829392 43.599201,88.829392 C 41.629165,88.829392 37.443148,86.100026 34.296982,82.764123 L 28.576752,76.698836 L 32.158144,69.460048 C 34.127987,65.478741 37.003434,61.820153 38.548062,61.32991 C 40.092742,60.839632 43.723366,59.418731 46.616223,58.172313 C 49.50908,56.92593 54.814685,54.657526 58.406457,53.131483 C 62.875904,51.232506 65.72137,48.479435 67.422405,44.408291 C 69.121074,40.342722 71.7153,37.829671 75.617817,36.469239 C 85.47948,33.031491 89.152111,33.841122 90.447392,39.738483 C 91.649768,45.212856 94.448354,46.432327 97.896324,42.984357 C 100.95914,39.921522 108.14845,45.430101 110.53807,52.670694 C 115.15562,66.661884 121.73427,60.067748 119.9727,43.213892 C 119.10235,34.886338 119.40877,32.031386 121.30005,30.848663 C 122.98727,29.793594 124.64508,30.474187 126.58172,33.016991 L 129.40438,36.723109 L 132.95859,33.168892 C 134.91338,31.214057 137.19351,28.452852 138.02553,27.032862 C 139.77473,24.047609 162.55671,9.9332886 165.62609,9.9332886 C 166.7594,9.9332886 169.45963,8.6914464 171.62661,7.1736431 C 176.24582,3.938149 183.96145,5.0364353 192.34264,10.122411 C 198.58358,13.909617 204.8114,14.256357 217.54484,11.525517 C 224.87147,9.9542224 227.72049,10.111313 233.44584,12.402141 C 237.28218,13.937108 242.72531,15.193029 245.54174,15.193029 C 251.65286,15.193029 253.43382,17.41448 250.98739,21.985685 C 249.63071,24.520652 249.86037,25.900755 251.92392,27.613344 C 253.60652,29.009805 254.33439,31.574823 253.81662,34.283379 C 253.35391,36.703911 253.72056,40.644544 254.63143,43.040303 C 256.60704,48.236435 253.49217,57.270951 249.72511,57.270951 C 245.27795,57.270951 245.0661,62.401196 249.36538,65.982974 C 252.53525,68.623767 256.2006,69.440622 265.08164,69.485348 C 275.74872,69.53905 277.32521,69.038743 285.03287,63.153515 L 293.40187,56.763351 L 302.75697,61.351545 C 309.83516,64.823026 312.99959,67.679311 315.75832,73.086885 C 317.76372,77.017804 320.61152,80.697168 322.0867,81.263274 C 323.56206,81.829362 328.68785,80.457043 333.47755,78.213641 C 342.0504,74.19832 342.27394,74.18482 347.81034,77.347099 C 355.39366,81.678513 362.57618,88.499431 366.88514,95.461767 C 370.44493,101.21338 370.52015,104.75746 367.39866,119.69022 C 366.18998,125.47313 372.32862,140.24325 377.84311,144.81978 C 381.79054,148.09588 381.36889,149.55073 374.47337,156.44628 C 370.99966,159.9199 368.337,164.34131 368.337,166.63559 C 368.337,172.82089 362.50886,177.16699 355.96837,175.85891 C 349.75679,174.61658 343.79155,177.12246 343.79155,180.97412 C 343.79155,183.69743 335.4759,197.42146 332.41192,199.75511 C 331.43852,200.4964 327.09187,200.67605 322.75259,200.15434 C 316.65243,199.4209 313.07352,200.12283 306.97337,203.24903 C 299.00754,207.33132 297.76424,210.13108 300.77194,217.21397 C 301.7213,219.44968 300.86882,220.78299 297.51222,222.31236 C 295.0123,223.45139 291.4112,227.02007 289.50978,230.24273 C 285.36183,237.27292 283.45095,237.5401 279.57918,231.63104 C 275.72187,225.74406 270.40995,226.60911 265.83231,233.86973 C 263.8706,236.9812 260.57616,242.23224 258.51133,245.53871 C 256.4465,248.84517 253.87259,254.23057 252.7915,257.50626 C 249.79729,266.57898 242.4632,273.75912 229.12798,280.67328 C 217.38893,286.75985 216.50308,286.93642 199.32279,286.61477 C 189.58417,286.43245 176.90139,285.99326 171.13884,285.63883 L 171.1388,285.63883 z"
           style="opacity:1;fill:#015a01;fill-opacity:1;stroke:url(#radialGradient2528);stroke-width:6.57467556;stroke-miterlimit:28.39999962;stroke-dasharray:none;stroke-opacity:1;filter:url(#filter29510)" />
        <path
           inkscape:label="#path28817"
           transform="matrix(0.8,0,0,0.8,1.2616295,-1.6226007)"
           id="preenchimentoTroncoPF1"
           d="M 171.22194,804.22137 C 167.79548,800.79486 167.7748,798.54157 171.09674,790.59101 C 173.37368,785.14154 173.72074,761.64272 173.68289,615.49054 C 173.65887,522.6471 172.90288,424.03207 172.003,396.3461 C 170.50267,350.18772 169.97873,344.58294 165.69283,328.8461 C 163.1221,319.40704 159.14432,307.44402 156.85324,302.26153 C 154.56219,297.07902 152.68765,292.02865 152.68765,291.03845 C 152.68765,289.30286 213.3334,290.2196 215.09561,291.9818 C 215.50894,292.39508 214.25012,296.34341 212.2983,300.7558 C 208.36596,309.64564 202.31211,337.83802 196.58667,373.92449 C 192.9186,397.04378 192.85192,400.80913 193.71527,536.09981 C 194.73733,696.2594 196.33035,754.99207 199.82115,761.21384 C 202.12912,765.32739 201.90665,773.89349 198.84897,798.64851 L 197.82027,806.97644 L 185.89876,806.97644 C 177.39852,806.97644 173.18638,806.18574 171.22198,804.22133 L 171.22194,804.22137 z"
           style="opacity:1;fill:#98660c;fill-opacity:1;stroke:#b6861c;stroke-width:7.2750001;stroke-miterlimit:28.39999962;stroke-dasharray:none;stroke-opacity:1;filter:url(#filter29613)" />
      </g>
    </g>
  </g>
</svg>
