<?xml version="1.0" encoding="UTF-8" standalone="no"?>
<svg
   xmlns:dc="http://purl.org/dc/elements/1.1/"
   xmlns:cc="http://creativecommons.org/ns#"
   xmlns:rdf="http://www.w3.org/1999/02/22-rdf-syntax-ns#"
   xmlns:svg="http://www.w3.org/2000/svg"
   xmlns="http://www.w3.org/2000/svg"
   xmlns:xlink="http://www.w3.org/1999/xlink"
   xmlns:sodipodi="http://sodipodi.sourceforge.net/DTD/sodipodi-0.dtd"
   xmlns:inkscape="http://www.inkscape.org/namespaces/inkscape"
   version="1.0"
   width="300"
   height="200"
   preserveAspectRatio="xMidYMid meet"
   id="svg8228"
   sodipodi:version="0.32"
   inkscape:version="0.46"
   sodipodi:docname="pf4.svg"
   inkscape:output_extension="org.inkscape.output.svg.inkscape">
  <defs
     id="defs8237">
    <inkscape:perspective
       sodipodi:type="inkscape:persp3d"
       inkscape:vp_x="0 : 405 : 1"
       inkscape:vp_y="0 : 1000 : 0"
       inkscape:vp_z="297.5 : 405 : 1"
       inkscape:persp3d-origin="148.75 : 270 : 1"
       id="perspective8239" />
    <inkscape:perspective
       sodipodi:type="inkscape:persp3d"
       inkscape:vp_x="0 : 450 : 1"
       inkscape:vp_y="0 : 1000 : 0"
       inkscape:vp_z="310 : 450 : 1"
       inkscape:persp3d-origin="155 : 270 : 1"
       id="perspective5850" />
    <radialGradient
       r="191.62799"
       fy="146.02631"
       fx="192.00943"
       cy="146.02631"
       cx="192.00943"
       gradientTransform="matrix(1,0,0,0.7512998,0,36.316769)"
       gradientUnits="userSpaceOnUse"
       id="radialGradient2430"
       xlink:href="#linearGradient29444"
       inkscape:collect="always" />
    <radialGradient
       r="191.62799"
       fy="146.02631"
       fx="192.00943"
       cy="146.02631"
       cx="192.00943"
       gradientTransform="matrix(1,0,0,0.7512998,0,36.316769)"
       gradientUnits="userSpaceOnUse"
       id="radialGradient2414"
       xlink:href="#linearGradient29444"
       inkscape:collect="always" />
    <radialGradient
       r="191.62799"
       fy="146.02631"
       fx="192.00943"
       cy="146.02631"
       cx="192.00943"
       gradientTransform="matrix(1,0,0,0.7512998,0,36.316769)"
       gradientUnits="userSpaceOnUse"
       id="radialGradient2528"
       xlink:href="#linearGradient29444"
       inkscape:collect="always" />
    <radialGradient
       r="191.62799"
       fy="146.02631"
       fx="192.00943"
       cy="146.02631"
       cx="192.00943"
       gradientTransform="matrix(1,0,0,0.7512998,0,36.316769)"
       gradientUnits="userSpaceOnUse"
       id="radialGradient2519"
       xlink:href="#linearGradient29444"
       inkscape:collect="always" />
    <radialGradient
       r="191.62799"
       fy="146.02631"
       fx="192.00943"
       cy="146.02631"
       cx="192.00943"
       gradientTransform="matrix(1,0,0,0.7512998,0,36.316769)"
       gradientUnits="userSpaceOnUse"
       id="radialGradient29617"
       xlink:href="#linearGradient29444"
       inkscape:collect="always" />
    <radialGradient
       gradientUnits="userSpaceOnUse"
       gradientTransform="matrix(1,0,0,0.7512998,0,36.316769)"
       r="191.62799"
       fy="146.02631"
       fx="192.00943"
       cy="146.02631"
       cx="192.00943"
       id="radialGradient29452"
       xlink:href="#linearGradient29444"
       inkscape:collect="always" />
    <inkscape:perspective
       id="perspective28801"
       inkscape:persp3d-origin="191.875 : 270 : 1"
       inkscape:vp_z="383.75 : 405 : 1"
       inkscape:vp_y="0 : 1000 : 0"
       inkscape:vp_x="0 : 405 : 1"
       sodipodi:type="inkscape:persp3d" />
    <linearGradient
       id="linearGradient29444"
       inkscape:collect="always">
      <stop
         id="stop29446"
         offset="0"
         style="stop-color:#00b819;stop-opacity:1;" />
      <stop
         id="stop29448"
         offset="1"
         style="stop-color:#00b819;stop-opacity:0;" />
    </linearGradient>
    <inkscape:perspective
       sodipodi:type="inkscape:persp3d"
       inkscape:vp_x="0 : 450 : 1"
       inkscape:vp_y="0 : 1000 : 0"
       inkscape:vp_z="310 : 450 : 1"
       inkscape:persp3d-origin="155 : 270 : 1"
       id="perspective3267" />
    <radialGradient
       r="191.62799"
       fy="146.02631"
       fx="192.00943"
       cy="146.02631"
       cx="192.00943"
       gradientTransform="matrix(1,0,0,0.7512998,0,36.316769)"
       gradientUnits="userSpaceOnUse"
       id="radialGradient3265"
       xlink:href="#linearGradient29444"
       inkscape:collect="always" />
    <radialGradient
       r="191.62799"
       fy="146.02631"
       fx="192.00943"
       cy="146.02631"
       cx="192.00943"
       gradientTransform="matrix(1,0,0,0.7512998,0,36.316769)"
       gradientUnits="userSpaceOnUse"
       id="radialGradient3263"
       xlink:href="#linearGradient29444"
       inkscape:collect="always" />
    <radialGradient
       r="191.62799"
       fy="146.02631"
       fx="192.00943"
       cy="146.02631"
       cx="192.00943"
       gradientTransform="matrix(1,0,0,0.7512998,0,36.316769)"
       gradientUnits="userSpaceOnUse"
       id="radialGradient3261"
       xlink:href="#linearGradient29444"
       inkscape:collect="always" />
    <radialGradient
       r="191.62799"
       fy="146.02631"
       fx="192.00943"
       cy="146.02631"
       cx="192.00943"
       gradientTransform="matrix(1,0,0,0.7512998,0,36.316769)"
       gradientUnits="userSpaceOnUse"
       id="radialGradient3259"
       xlink:href="#linearGradient29444"
       inkscape:collect="always" />
    <radialGradient
       gradientUnits="userSpaceOnUse"
       gradientTransform="matrix(1,0,0,0.7512998,0,36.316769)"
       r="191.62799"
       fy="146.02631"
       fx="192.00943"
       cy="146.02631"
       cx="192.00943"
       id="radialGradient3257"
       xlink:href="#linearGradient29444"
       inkscape:collect="always" />
    <inkscape:perspective
       id="perspective3255"
       inkscape:persp3d-origin="191.875 : 270 : 1"
       inkscape:vp_z="383.75 : 405 : 1"
       inkscape:vp_y="0 : 1000 : 0"
       inkscape:vp_x="0 : 405 : 1"
       sodipodi:type="inkscape:persp3d" />
  </defs>
  <sodipodi:namedview
     inkscape:window-height="750"
     inkscape:window-width="1263"
     inkscape:pageshadow="2"
     inkscape:pageopacity="0.0"
     guidetolerance="10.0"
     gridtolerance="10.0"
     objecttolerance="10.0"
     borderopacity="1.0"
     bordercolor="#666666"
     pagecolor="#ffffff"
     id="base"
     showgrid="false"
     inkscape:zoom="9.1259258"
     inkscape:cx="37.328565"
     inkscape:cy="175.62271"
     inkscape:window-x="9"
     inkscape:window-y="23"
     inkscape:current-layer="svg8228" />
  <metadata
     id="metadata8230">
Created by potrace 1.8, written by Peter Selinger 2001-2007
<rdf:RDF>
  <cc:Work
     rdf:about="">
    <dc:format>image/svg+xml</dc:format>
    <dc:type
       rdf:resource="http://purl.org/dc/dcmitype/StillImage" />
    <cc:license
       rdf:resource="" />
  </cc:Work>
</rdf:RDF>
</metadata>
  <g
     id="PF4">
    <g
       id="agrupamentoPF4">
      <g
         id="agrupamentoCopaPF4">
        <path
           style="fill:#1f5e00;fill-opacity:1;fill-rule:evenodd;stroke:none;stroke-width:1px;stroke-linecap:butt;stroke-linejoin:miter;stroke-opacity:1"
           d="M 14.65066,513.14956 C 53.061792,513.96724 205.81909,528.02859 218.31166,508.20513 C 214.76823,494.03413 191.02829,484.75571 188.80024,469.46721 C 194.95166,461.56563 198.47114,464.6002 217.28815,461.01629 C 238.95255,458.55229 225.95857,458.18986 221.64754,451.13764 C 212.9681,439.07144 189.38113,428.32398 181.01017,416.7689 C 191.32298,414.71222 225.2365,408.35657 226.49975,398.10634 C 220.47271,390.88588 202.62407,383.13222 188.85712,380.20555 C 163.37058,372.60468 195.20485,365.0081 200.07789,356.52789 C 204.68781,352.74326 213.24316,350.02843 213.97121,345.6401 C 198.12853,339.02639 181.84663,339.64173 167.51487,329.87853 C 177.11093,320.36318 219.86286,312.01765 188.6865,302.56323 C 170.35879,293.36652 164.29669,290.24397 153.28043,283.09336 C 166.47777,277.04211 183.38567,266.72834 201.55629,263.68906 C 204.69504,260.85065 194.85312,253.52123 189.69109,249.66308 C 166.24851,243.13814 154.32687,234.79881 145.73677,221.41441 C 149.12632,215.97577 169.80562,212.14294 179.2474,211.42463 C 185.72695,207.54875 165.6076,196.94576 159.09928,192.15659 C 142.19296,181.69898 147.41309,168.93479 146.4759,156.39036 C 143.57944,150.59744 140.71393,152.33415 138.06032,154.98776 C 135.66681,157.38127 133.79514,169.58549 133.01855,172.69183 C 148.3899,185.71879 66.344265,215.36224 110.38746,213.86151 C 127.77718,223.36595 121.50414,224.32235 111.12646,238.19492 C 108.34479,238.89033 74.96103,258.42052 72.839536,259.48127 C 56.225332,268.30544 76.836524,262.791 88.49561,269.69289 C 91.327781,272.52506 104.86819,280.7723 103.52605,283.45657 C 96.968436,290.99311 75.287189,297.11564 61.505006,298.92048 C 46.681625,306.15953 68.797232,313.10688 75.151892,319.69204 C 78.029175,323.52842 80.691798,323.09592 81.785792,327.4719 C 67.378274,340.97955 43.94329,358.45649 30.704738,373.66181 C 23.746466,388.35684 38.749828,379.16881 56.709666,387.34459 C 59.016797,389.65172 69.425081,399.64778 70.375469,403.44933 C 79.482674,416.33788 59.122995,412.46355 40.390252,414.96775 C 12.812778,415.65617 12.85471,416.82761 29.794979,424.67991 C 33.651931,425.64414 47.319945,430.18686 50.360019,430.79487 C 63.627986,447.66732 26.365034,457.74664 12.205637,470.60752 C 8.3832611,474.41131 34.597448,474.67547 44.313666,490.89962 C 34.393297,499.95263 19.298095,507.48636 14.65066,513.14956 z"
           id="preenchimentoCopaPF4"
           sodipodi:nodetypes="cccccccccccccccccccscccccccccccccccccc"
           transform="matrix(0.2141218,0,0,0.4097831,-1.4728862,-62.036526)" />
        <g
           transform="matrix(8.9004454e-2,0,0,-0.1753515,5.5679824e-2,207.65541)"
           id="copaPF4"
           style="fill:#041500;fill-opacity:1;stroke:none;stroke-opacity:1">
          <path
             d="M 312,1178 C 306,1172 300,1155 300,1141 C 300,1121 287,1107 250,1081 C 199,1047 194,1030 235,1030 C 291,1030 269,999 182,956 C 126,928 123,916 167,907 C 183,903 202,896 210,890 C 223,881 223,879 210,870 C 202,865 179,858 158,855 C 100,845 92,826 135,800 C 154,788 170,777 170,775 C 170,774 138,746 99,715 C 33,661 29,656 45,643 C 56,636 76,630 91,630 C 108,630 123,621 134,605 L 150,580 L 96,580 C 62,580 38,575 31,566 C 17,550 32,538 84,526 L 113,519 L 61,482 C 33,462 9,441 7,436 C 6,431 20,422 39,415 C 87,399 87,386 40,365 C 18,355 1.4240996e-16,343 1.4240996e-16,338 C 1.4240996e-16,334 50,322.46652 111,322.46652 C 299.51692,323.13873 259.22768,321.71485 415.44505,322.46652 C 493.44505,322.46652 520,333 520,343 C 519,360 463.38961,427.72727 440.38961,436.72727 C 429.38961,440.72727 452,407 473,390 C 493,373 510,354 510,349 C 510,344 405.5377,333.12605 260.5377,333.12605 L 15,337.87548 L 53,361 C 104,388 100,406 37,426 L 8,436 L 64,474 C 95,495 117,516 114,521 C 112,526 91,534 69,540 C 16,555 29,570 94,570 C 123,570 150,573 153,576 C 167,590 119,640 92,640 C 33,640 37,655 109,714 C 148,745 180,773 180,775 C 180,777 163,791 143,804 C 104,831 104,831 177,850 C 200,856 222,866 226,872 C 235,886 204,909 166,917 C 137,923 137,923 186,948 C 254,982 283,1009 269,1027 C 263,1034 246,1040 231,1040 C 208,1040 210,1044 258,1077 C 299,1106 310,1119 310,1141 C 310,1156 314,1171 319,1174 C 331,1182 340,1156 333,1132 C 330,1117 340,1104 375,1079 L 423,1045 L 389,1042 C 314,1034 319,1004 401,969 C 455,945 484,920 456,920 C 447,920 421,910 398,899 L 356,878 L 381,859 C 394,849 420,835 438,829 L 471,818 L 428,797 C 404,785 386,771 387,765 C 388,760 407,752 429,748 C 452,744 477,737 486,732 C 499,725 496,720 467,707 C 448,698 427,684 420,675 C 410,663 411,659 426,654 C 469,639 530,611 530,606 C 530,596 463.88312,570 442.88312,570 C 402.88312,570 421,550 480,509 C 513,485 538,465 537,464 C 536,462 515,460 492,459 C 468,457 444,449 437,441 C 427,427 427,427 440,437 C 457,450 457,450 510,450 C 532,450 550,454 550,459 C 550,465 522,488 489,512 L 427,555 L 458,561 C 476,565 493.32968,566.03972 508.32968,576.03972 L 544,603 L 521,621 C 508,631 481,645 459,651 C 428,661 422,666 431,677 C 437,684 448,690 454,690 C 460,690 476,699 489,709 L 513,728 L 491,739 C 479,746 450,755 427,759 L 385,767 L 433,789 C 459,801 480,813 480,815 C 480,818 454,832 423,846 L 366,873 L 406,891 C 427,901 453,911 464,914 C 491,923 468,946 401,979 C 371,993 346,1010 345,1015 C 345,1021 361,1026 380,1028 C 434,1033 435,1045 385,1081 C 349,1107 340,1119 344,1135 C 352,1165 329,1195 312,1178 z"
             id="path8234"
             style="fill:#041500;fill-opacity:1;stroke:none;stroke-opacity:1"
             sodipodi:nodetypes="cscsccccccsccsccccccccccscccccsccccccccssscsccccccscsccccccsccccccccccccsscccccssccccccccsccccccscccccccccc" />
        </g>
      </g>
      <g
         id="agrupamentoTroncoPF4">
        <g
           id="preenchimentoTroncoPF4"
           transform="matrix(0.2108089,0,0,0.4247538,-17.735468,-213.52691)">
          <path
             id="path9018"
             d="M 96.779221,506.33766 C 96.512744,508.34454 95.894597,515.91286 94.675325,518.96104 C 93.398442,522.15324 92.212781,526.70732 91.168831,530.88312 C 90.122676,535.06774 90.783674,540.83933 89.766234,544.90909 C 88.573103,549.68161 89.320393,554.85258 88.363636,559.63636 C 87.490446,564.00232 86.25974,568.2698 86.25974,572.25974 C 86.25974,574.71897 94.872754,573.66234 96.779221,573.66234 C 101.52739,573.66234 105.86826,573.95399 110.1039,572.25974 C 113.32472,570.97141 118.41307,571.35652 122.02597,572.25974 C 125.25493,573.06698 129.14157,572.96104 133.24675,572.96104 C 137.57209,572.96104 140.25974,570.83978 140.25974,565.94805 C 140.25974,561.69701 140.96104,557.0516 140.96104,552.62338 C 140.96104,547.80309 141.38544,542.95269 139.55844,539.2987 C 138.02567,536.23317 137.41396,530.72078 136.75325,528.07792 C 135.53288,523.19645 135.19326,520.4354 133.94805,515.45455 C 132.7894,510.81994 133.05606,506.81596 128.33766,505.63636 C 124.96293,504.79268 122.28605,503.53247 117.81818,503.53247 C 113.84416,503.53247 109.87013,503.53247 105.8961,503.53247 C 102.9794,503.53247 100.21059,505.65139 96.779221,506.33766 z"
             style="fill:none;fill-rule:evenodd;stroke:#151500;stroke-width:3;stroke-linecap:butt;stroke-linejoin:miter;stroke-miterlimit:4;stroke-dasharray:none;stroke-opacity:1" />
          <path
             sodipodi:nodetypes="ccccc"
             id="path9046"
             d="M 99.890869,508.34529 C 91.114279,529.21213 89.819339,550.92657 89.734391,572.19605 C 100.17929,571.53631 135.01944,574.64885 136.56462,570.09216 C 140.83534,549.58617 138.025,528.06084 130.22822,507.82933 C 116.93187,507.21925 112.63872,507.10547 99.890869,508.34529 z"
             style="fill:#3a3700;fill-opacity:1;fill-rule:evenodd;stroke:none;stroke-width:1px;stroke-linecap:butt;stroke-linejoin:miter;stroke-opacity:1;" />
        </g>
        <g
           style="fill:#041500;fill-opacity:1;stroke:none;stroke-opacity:1"
           id="troncoPF4"
           transform="matrix(8.9004454e-2,0,0,-0.1753515,2.1187431,215.68924)">
          <path
             sodipodi:nodetypes="cccccccccccccc"
             style="fill:#041500;fill-opacity:1;stroke:none;stroke-opacity:1"
             id="path3233"
             d="M -8.2679608,1173.9476 L -21.932801,1053.5481 L 114.0672,1053.5481 L 108.0672,1116.5483 C 110.46693,1154.0413 108.38183,1163.6402 102.32144,1229.6212 C 77.397639,1229.3251 34.767549,1231.6136 -1.5860908,1229.7084 C -9.8855408,1193.58 -4.9807108,1186.2776 -8.2679608,1173.9476 z M 96.198049,1181.2092 C 102.19805,1160.2092 101.0672,1121.5483 101.0672,1101.5483 L 101.0672,1063.5481 L -11.932801,1063.5481 C -7.0203624,1115.0326 -1.06115,1166.4834 6.5162692,1217.8846 C 34.204447,1214.756 61.297891,1217.5083 88.767626,1218.632 C 91.507896,1213.2355 93.417449,1191.4047 96.198049,1181.2092 z" />
        </g>
      </g>
    </g>
  </g>
</svg>
