<?xml version="1.0" encoding="UTF-8" standalone="no"?>
<svg
   xmlns:dc="http://purl.org/dc/elements/1.1/"
   xmlns:cc="http://creativecommons.org/ns#"
   xmlns:rdf="http://www.w3.org/1999/02/22-rdf-syntax-ns#"
   xmlns:svg="http://www.w3.org/2000/svg"
   xmlns="http://www.w3.org/2000/svg"
   xmlns:xlink="http://www.w3.org/1999/xlink"
   xmlns:sodipodi="http://sodipodi.sourceforge.net/DTD/sodipodi-0.dtd"
   xmlns:inkscape="http://www.inkscape.org/namespaces/inkscape"
   version="1.0"
   width="300"
   height="200"
   preserveAspectRatio="xMidYMid meet"
   id="svg28790"
   sodipodi:version="0.32"
   inkscape:version="0.46"
   sodipodi:docname="pf5.svg"
   inkscape:output_extension="org.inkscape.output.svg.inkscape"
   inkscape:export-filename="D:\Documents\rodolfo\faculdade\Bolsa2\arvores\arvores ana\convertidos vetor\ideia nova\cor,agrupado,tronco e copa\pf1V26-94.png"
   inkscape:export-xdpi="90"
   inkscape:export-ydpi="90">
  <defs
     id="defs28799">
    <linearGradient
       inkscape:collect="always"
       id="linearGradient29444">
      <stop
         style="stop-color:#00b819;stop-opacity:1;"
         offset="0"
         id="stop29446" />
      <stop
         style="stop-color:#00b819;stop-opacity:0;"
         offset="1"
         id="stop29448" />
    </linearGradient>
    <inkscape:perspective
       sodipodi:type="inkscape:persp3d"
       inkscape:vp_x="0 : 405 : 1"
       inkscape:vp_y="0 : 1000 : 0"
       inkscape:vp_z="383.75 : 405 : 1"
       inkscape:persp3d-origin="191.875 : 270 : 1"
       id="perspective28801" />
    <radialGradient
       inkscape:collect="always"
       xlink:href="#linearGradient29444"
       id="radialGradient29452"
       cx="192.00943"
       cy="146.02631"
       fx="192.00943"
       fy="146.02631"
       r="191.62799"
       gradientTransform="matrix(1,0,0,0.7512998,0,36.316769)"
       gradientUnits="userSpaceOnUse" />
    <radialGradient
       inkscape:collect="always"
       xlink:href="#linearGradient29444"
       id="radialGradient29617"
       gradientUnits="userSpaceOnUse"
       gradientTransform="matrix(1,0,0,0.7512998,0,36.316769)"
       cx="192.00943"
       cy="146.02631"
       fx="192.00943"
       fy="146.02631"
       r="191.62799" />
    <inkscape:perspective
       sodipodi:type="inkscape:persp3d"
       inkscape:vp_x="0 : 450 : 1"
       inkscape:vp_y="0 : 1000 : 0"
       inkscape:vp_z="310 : 450 : 1"
       inkscape:persp3d-origin="155 : 270 : 1"
       id="perspective5850" />
    <radialGradient
       r="191.62799"
       fy="146.02631"
       fx="192.00943"
       cy="146.02631"
       cx="192.00943"
       gradientTransform="matrix(1,0,0,0.7512998,0,36.316769)"
       gradientUnits="userSpaceOnUse"
       id="radialGradient2430"
       xlink:href="#linearGradient29444"
       inkscape:collect="always" />
    <radialGradient
       r="191.62799"
       fy="146.02631"
       fx="192.00943"
       cy="146.02631"
       cx="192.00943"
       gradientTransform="matrix(1,0,0,0.7512998,0,36.316769)"
       gradientUnits="userSpaceOnUse"
       id="radialGradient2414"
       xlink:href="#linearGradient29444"
       inkscape:collect="always" />
    <radialGradient
       r="191.62799"
       fy="146.02631"
       fx="192.00943"
       cy="146.02631"
       cx="192.00943"
       gradientTransform="matrix(1,0,0,0.7512998,0,36.316769)"
       gradientUnits="userSpaceOnUse"
       id="radialGradient2528"
       xlink:href="#linearGradient29444"
       inkscape:collect="always" />
    <radialGradient
       r="191.62799"
       fy="146.02631"
       fx="192.00943"
       cy="146.02631"
       cx="192.00943"
       gradientTransform="matrix(1,0,0,0.7512998,0,36.316769)"
       gradientUnits="userSpaceOnUse"
       id="radialGradient2519"
       xlink:href="#linearGradient29444"
       inkscape:collect="always" />
    <radialGradient
       r="191.62799"
       fy="146.02631"
       fx="192.00943"
       cy="146.02631"
       cx="192.00943"
       gradientTransform="matrix(1,0,0,0.7512998,0,36.316769)"
       gradientUnits="userSpaceOnUse"
       id="radialGradient3164"
       xlink:href="#linearGradient29444"
       inkscape:collect="always" />
    <radialGradient
       gradientUnits="userSpaceOnUse"
       gradientTransform="matrix(1,0,0,0.7512998,0,36.316769)"
       r="191.62799"
       fy="146.02631"
       fx="192.00943"
       cy="146.02631"
       cx="192.00943"
       id="radialGradient3162"
       xlink:href="#linearGradient29444"
       inkscape:collect="always" />
    <inkscape:perspective
       id="perspective3160"
       inkscape:persp3d-origin="191.875 : 270 : 1"
       inkscape:vp_z="383.75 : 405 : 1"
       inkscape:vp_y="0 : 1000 : 0"
       inkscape:vp_x="0 : 405 : 1"
       sodipodi:type="inkscape:persp3d" />
    <inkscape:perspective
       id="perspective2749"
       inkscape:persp3d-origin="372.04724 : 350.78739 : 1"
       inkscape:vp_z="744.09448 : 526.18109 : 1"
       inkscape:vp_y="0 : 1000 : 0"
       inkscape:vp_x="0 : 526.18109 : 1"
       sodipodi:type="inkscape:persp3d" />
    <inkscape:perspective
       sodipodi:type="inkscape:persp3d"
       inkscape:vp_x="0 : 450 : 1"
       inkscape:vp_y="0 : 1000 : 0"
       inkscape:vp_z="310 : 450 : 1"
       inkscape:persp3d-origin="155 : 270 : 1"
       id="perspective3281" />
    <radialGradient
       r="191.62799"
       fy="146.02631"
       fx="192.00943"
       cy="146.02631"
       cx="192.00943"
       gradientTransform="matrix(1,0,0,0.7512998,0,36.316769)"
       gradientUnits="userSpaceOnUse"
       id="radialGradient3279"
       xlink:href="#linearGradient29444"
       inkscape:collect="always" />
    <radialGradient
       r="191.62799"
       fy="146.02631"
       fx="192.00943"
       cy="146.02631"
       cx="192.00943"
       gradientTransform="matrix(1,0,0,0.7512998,0,36.316769)"
       gradientUnits="userSpaceOnUse"
       id="radialGradient3277"
       xlink:href="#linearGradient29444"
       inkscape:collect="always" />
    <radialGradient
       r="191.62799"
       fy="146.02631"
       fx="192.00943"
       cy="146.02631"
       cx="192.00943"
       gradientTransform="matrix(1,0,0,0.7512998,0,36.316769)"
       gradientUnits="userSpaceOnUse"
       id="radialGradient3275"
       xlink:href="#linearGradient29444"
       inkscape:collect="always" />
    <radialGradient
       r="191.62799"
       fy="146.02631"
       fx="192.00943"
       cy="146.02631"
       cx="192.00943"
       gradientTransform="matrix(1,0,0,0.7512998,0,36.316769)"
       gradientUnits="userSpaceOnUse"
       id="radialGradient3273"
       xlink:href="#linearGradient29444"
       inkscape:collect="always" />
    <radialGradient
       gradientUnits="userSpaceOnUse"
       gradientTransform="matrix(1,0,0,0.7512998,0,36.316769)"
       r="191.62799"
       fy="146.02631"
       fx="192.00943"
       cy="146.02631"
       cx="192.00943"
       id="radialGradient3271"
       xlink:href="#linearGradient29444"
       inkscape:collect="always" />
    <inkscape:perspective
       id="perspective3269"
       inkscape:persp3d-origin="191.875 : 270 : 1"
       inkscape:vp_z="383.75 : 405 : 1"
       inkscape:vp_y="0 : 1000 : 0"
       inkscape:vp_x="0 : 405 : 1"
       sodipodi:type="inkscape:persp3d" />
    <inkscape:perspective
       sodipodi:type="inkscape:persp3d"
       inkscape:vp_x="0 : 450 : 1"
       inkscape:vp_y="0 : 1000 : 0"
       inkscape:vp_z="310 : 450 : 1"
       inkscape:persp3d-origin="155 : 270 : 1"
       id="perspective3781" />
    <radialGradient
       r="191.62799"
       fy="146.02631"
       fx="192.00943"
       cy="146.02631"
       cx="192.00943"
       gradientTransform="matrix(1,0,0,0.7512998,0,36.316769)"
       gradientUnits="userSpaceOnUse"
       id="radialGradient3779"
       xlink:href="#linearGradient29444"
       inkscape:collect="always" />
    <radialGradient
       r="191.62799"
       fy="146.02631"
       fx="192.00943"
       cy="146.02631"
       cx="192.00943"
       gradientTransform="matrix(1,0,0,0.7512998,0,36.316769)"
       gradientUnits="userSpaceOnUse"
       id="radialGradient3777"
       xlink:href="#linearGradient29444"
       inkscape:collect="always" />
    <radialGradient
       r="191.62799"
       fy="146.02631"
       fx="192.00943"
       cy="146.02631"
       cx="192.00943"
       gradientTransform="matrix(1,0,0,0.7512998,0,36.316769)"
       gradientUnits="userSpaceOnUse"
       id="radialGradient3775"
       xlink:href="#linearGradient29444"
       inkscape:collect="always" />
    <radialGradient
       r="191.62799"
       fy="146.02631"
       fx="192.00943"
       cy="146.02631"
       cx="192.00943"
       gradientTransform="matrix(1,0,0,0.7512998,0,36.316769)"
       gradientUnits="userSpaceOnUse"
       id="radialGradient3773"
       xlink:href="#linearGradient29444"
       inkscape:collect="always" />
    <radialGradient
       gradientUnits="userSpaceOnUse"
       gradientTransform="matrix(1,0,0,0.7512998,0,36.316769)"
       r="191.62799"
       fy="146.02631"
       fx="192.00943"
       cy="146.02631"
       cx="192.00943"
       id="radialGradient3771"
       xlink:href="#linearGradient29444"
       inkscape:collect="always" />
    <inkscape:perspective
       id="perspective3769"
       inkscape:persp3d-origin="191.875 : 270 : 1"
       inkscape:vp_z="383.75 : 405 : 1"
       inkscape:vp_y="0 : 1000 : 0"
       inkscape:vp_x="0 : 405 : 1"
       sodipodi:type="inkscape:persp3d" />
  </defs>
  <g
     id="PF5">
    <g
       id="agrupamentoPF5">
      <g
         id="agrupamentoTroncoPF5">
        <path
           style="opacity:1;fill:#98660c;fill-opacity:1;stroke:none;stroke-width:7.27500009999999890;stroke-miterlimit:28.39999961999999900;stroke-dasharray:none;stroke-opacity:1;"
           d="M 152.57448,292.92385 C 157.33889,320.29054 161.08706,333.3391 164.00568,353.33515 C 166.95854,375.46362 171.64529,395.58892 172.01509,417.88203 C 172.84304,509.68721 171.88141,601.21657 171.38547,693.02683 C 171.20949,721.67352 171.22233,751.83009 169.63075,780.44274 C 170.2999,791.00887 163.34695,795.79631 165.26533,809.83697 C 177.73306,814.54867 189.0424,811.6187 200.65363,811.27316 C 204.63031,810.80455 204.73591,795.92347 204.86988,792.22291 C 206.15349,780.51404 209.49978,770.9286 203.10276,760.83212 C 202.36178,752.45177 202.03915,746.0705 201.48825,737.67025 C 199.69853,710.37987 199.55498,683.0634 197.34333,655.72984 C 196.59644,610.53899 196.19914,567.29621 195.66169,522.10262 C 195.45534,484.63213 193.40591,446.04622 193.59231,408.57667 C 191.24829,369.20832 199.63176,331.58542 202.22474,293.11135 C 195.29083,292.49913 167.3891,288.14136 152.57448,292.92385 z"
           id="preenchimentoTroncoPF5"
           transform="matrix(0.3018524,0,0,0.1965626,-45.174137,-56.143982)"
           sodipodi:nodetypes="cccccccccsccccc" />
        <g
           style="fill:#000000;stroke:none"
           id="troncoPF5"
           transform="matrix(6.3130794e-2,0,0,-3.2610128e-2,-175.85993,98.16407)">
          <path
             sodipodi:nodetypes="ccsscccsccsscccsscscsssssccccscsssssss"
             id="path2504"
             d="M 2897.8061,-174.99543 C 2857.8501,-168.29378 2832.9181,-119.72729 2851.075,-83.361936 C 2883.6099,6.8728841 2872.7646,104.26434 2877.4785,198.21412 C 2884.8226,595.63088 2880.1766,993.1272 2880.739,1390.5818 C 2880.8622,1661.702 2879.7854,1932.8241 2880.6186,2203.9418 C 2879.9246,2321.2855 2870.4913,2438.5487 2851.0147,2554.2914 C 2829.4478,2696.6668 2778.1037,2973.9593 2786.5797,2987.8153 C 2794.0561,3009.062 2813.9482,2994.2977 2831.468,2993.9663 C 2903.7193,2992.5997 2974.653,2995.035 3046.0248,2985.9105 C 3055.5037,2985.5926 3055.4518,2989.2388 3050.7544,2939.1099 C 3018.683,2802.4861 3009.1128,2660.0713 3005.9055,2529.0397 C 3004.6636,2273.7571 3023.5748,2018.7031 3016.9827,1763.396 C 3015.6678,1425.787 3013.6416,1087.9984 3029.1452,750.64347 C 3035.8101,590.97793 3042.6897,431.28008 3043.7655,271.46108 C 3045.3741,206.29277 3056.2514,141.60785 3073.1644,78.784845 C 3080.6752,17.540695 3063.1885,-43.012546 3061.9257,-104.13509 C 3058.4319,-123.73034 3061.9493,-147.18547 3054.3428,-164.51655 C 3027.4808,-183.67936 2993.1619,-170.72272 2962.904,-175.46418 C 2941.1962,-175.18629 2919.4761,-177.03903 2897.8061,-174.99543 z M 2928.2124,-166.68293 C 2962.2777,-166.08614 2996.3402,-165.35692 3030.3998,-164.49543 C 3051.0066,-152.82905 3040.1895,-126.21523 3044.7124,-107.52669 C 3057.8844,-48.428876 3059.4209,12.312174 3063.8061,72.473314 C 3052.9741,127.30665 3028.4952,180.81226 3034.4569,237.81224 C 3031.1855,418.43712 3026.7549,599.10962 3014.8465,779.39928 C 3006.0932,1039.9836 3008.7847,1300.7597 3008.0094,1561.4441 C 3008.1038,1792.3929 3008.0546,2023.4066 2999.6522,2254.2326 C 2994.6467,2434.8093 2991.5135,2616.3459 3013.6129,2795.9953 C 3020.1161,2843.5719 3025.1864,2911.4127 3037.0752,2957.9299 C 3037.596,2980.3987 3015.311,2970.4887 2996.2124,2966.6918 C 2932.8435,2966.613 2910.3773,2971.9074 2844.0498,2972.8332 C 2820.7036,2972.9666 2795.5499,2982.7283 2799.6378,2954.9406 C 2845.1184,2645.7819 2857.197,2592.4721 2878.6826,2439.3859 C 2910.0438,2173.2339 2896.4217,1904.8267 2896.5946,1637.5576 C 2891.1749,1220.3224 2890.9056,803.04186 2886.0976,385.79963 C 2885.0189,251.24373 2882.9634,116.69831 2880.5248,-17.839185 C 2874.5874,-56.370146 2849.2076,-92.662006 2858.2124,-132.77668 C 2869.0133,-160.07345 2901.8286,-167.68082 2928.2124,-166.68293 z" />
        </g>
      </g>
      <g
         id="agrupamentoCopaPF5">
        <g
           transform="matrix(2.0273187e-2,0,0,-3.2441087e-2,2.8607747,158.22929)"
           id="copaPF5"
           style="fill:#000000;stroke:none">
          <path
             d="M 1513.0625,3129.8438 C 1256.6664,3132.0582 1000.2708,3134.4287 743.875,3136.7188 C 719.39935,3159.2186 702.44488,3188.232 684.875,3216.0938 C 676.94666,3246.5544 645.07314,3258.9964 622.375,3276.5 C 602.08328,3297.1354 584.25038,3331.8002 549.1875,3324.5312 C 495.74582,3329.7882 442.12135,3334.1101 389.3125,3344.2188 C 360.82364,3353.5522 356.85297,3387.7493 357.73501,3413.4879 C 360.58009,3431.2836 357.48546,3466.1534 330.75,3457.3125 C 306.33327,3439.8416 284.35936,3413.7095 252.53125,3411.0938 C 218.71219,3408.6224 202.29351,3444.3943 196.89415,3472.4362 C 190.96813,3491.6703 184.51298,3510.7639 177.375,3529.5938 C 165.25148,3501.2242 146.50518,3465.8106 110.95437,3466.1981 C 79.338984,3466.5129 51.01434,3502.1057 63.8125,3532.5625 C 70.251312,3563.0256 34.55064,3579.1834 35.423643,3609.2455 C 31.352735,3626.6167 29.63298,3644.4333 26.59375,3662 C 6.6687921,3639.5821 -9.7813857,3608.0551 -41.65625,3601.5625 C -66.378199,3595.3899 -95.399865,3614.5027 -91.092142,3641.6967 C -88.595015,3664.3227 -131.5885,3641.9712 -123.71875,3663.0938 C -99.275864,3670.3191 -78.509015,3650.5185 -81.631932,3626.1221 C -65.306532,3597.4704 -18.99033,3613.7616 -6.1001649,3638.5019 C -0.0085350548,3654.0517 25.375348,3679.1441 34.925962,3652.2391 C 45.746371,3624.1438 45.054857,3587.881 72.40625,3569.1562 C 82.395677,3540.6309 61.410987,3498.6491 94.894339,3481.1145 C 127.10404,3462.6646 160.56409,3497.5026 163.78125,3528.75 C 174.82082,3548.6542 191.13694,3529.5176 194.1875,3515.3438 C 209.67751,3486.4044 207.37162,3444.1399 237.4375,3425.25 C 270.44926,3413.1194 295.405,3444.2227 318.34375,3462.0938 C 331.3526,3475.3344 365.76372,3484.1356 364.31056,3455.3422 C 368.49599,3430.1471 371.16411,3398.1833 397.375,3385.7188 C 424.02076,3372.7463 450.76181,3359.31 479.6313,3351.7214 C 510.55858,3342.0308 542.75685,3337.5934 574.49791,3332.2724 C 608.89662,3328.0949 608.37101,3286.3103 637.75041,3274.6766 C 659.11939,3261.5545 687.05121,3251.1906 695.03125,3224.8438 C 716.96245,3199.63 731.59907,3153.6265 770.96787,3155.3242 C 808.42651,3155.9778 845.84003,3154.899 883.29205,3153.6684 C 1095.6788,3149.5783 1308.414,3138.7232 1520.6569,3152.6896 C 1555.2682,3153.8324 1590.1322,3161.0168 1619.9105,3179.4053 C 1649.7753,3195.899 1574.8703,3195.2099 1844.8675,3247.6272 C 1902.7791,3258.8702 1838.9139,3296.5238 1855.5049,3333.7343 C 1857.8922,3368.7072 1901.0875,3341.5458 1919.3209,3368.7062 C 1935.171,3397.7091 1946.3118,3430.0236 1969.4147,3454.425 C 2037.2524,3453.465 2044.0942,3361.613 2092.1777,3439.4266 C 2097.1624,3463.4753 2113.1568,3481.6824 2137.3522,3485.8 C 2158.5659,3494.7051 2175.1697,3522.9326 2152.5994,3540.3238 C 2135.4159,3562.4522 2149.9297,3601.2703 2181.4147,3593.4874 C 2669.4324,3686.1778 2318.0969,3705.8783 2378.3075,3833.6628 C 2416.8857,3858.6681 2428.4968,3852.827 2446.4548,3883.736 C 2450.3106,3909.7614 2454.8462,3944.5642 2487.1397,3948.3237 C 2519.53,3962.4051 2534.0887,4010.6099 2500.8298,4032.4234 C 2473.4202,4057.487 2463.6026,4093.4948 2445.2863,4124.4372 C 2421.5723,4153.6307 2445.3032,4185.0715 2453.9675,4214.2966 C 2457.556,4232.0278 2451.3812,4249.1883 2461.2361,4265.7047 C 2467.8717,4296.823 2437.4725,4319.4713 2425.7543,4345.7428 C 2406.3545,4374.4419 2382.792,4401.8401 2350.3735,4416.083 C 2328.2205,4425.2057 2309.6323,4440.7918 2290.7361,4453.486 C 2259.1505,4449.4458 2235.3579,4422.7601 2205.3372,4412.606 C 2172.5751,4393.2682 2137.9406,4419.515 2130.8397,4452.9098 C 2122.928,4490.3297 2091.1395,4513.101 2058.3079,4528.0011 C 2031.2526,4543.7191 1993.2921,4567.5853 1965.0174,4541.3297 C 1942.8852,4523.1013 1846.8249,4499.7007 1821.5881,4485.4622 C 1794.4923,4471.0812 1762.3514,4474.1172 1732.7028,4474.2627 C 1703.1652,4471.7951 1674.2404,4479.0624 1653.9375,4501.7812 C 1640.4376,4506.5333 1617.48,4521.0875 1635.6875,4535.8125 C 1670.5726,4537.0909 1694.4477,4571.2447 1694.1875,4604.5938 C 1698.6037,4634.7367 1659.1453,4665.1559 1687.6562,4692.375 C 1703.3028,4721.1557 1634.4893,4732.8206 1666.0625,4758.8438 C 1683.3477,4771.514 1685.8154,4803.8017 1657.0312,4801.3125 C 1625.1528,4806.0247 1590.6628,4803.6674 1562.125,4821.0938 C 1537.1523,4834.2322 1507.4688,4849.8187 1478.8438,4838.8125 C 1452.2162,4823.235 1419.1273,4827.5032 1389.3587,4824.287 C 1324.0986,4820.0905 1258.6336,4816.4893 1193.2812,4817.75 C 1163.7178,4824.4226 1146.8171,4858.7941 1114.0414,4856.9762 C 1086.5876,4862.974 1051.6078,4879.3889 1031.3125,4850.625 C 1001.5619,4837.2821 964.8872,4842.3197 940.96973,4816.3133 C 911.80317,4796.0262 877.814,4784.7084 845.65625,4770.4375 C 818.15107,4752.9152 811.28685,4714.1168 779.90625,4701.4375 C 761.38046,4698.7938 772.54596,4732.7299 751.5625,4722.75 C 739.18556,4726.123 753.12469,4758.2894 762.5625,4739.625 C 767.17147,4722.0385 789.34222,4708.8194 799.67603,4729.6955 C 815.86512,4753.8717 830.65586,4782.1426 862.34786,4787.4889 C 894.94481,4802.7162 929.17605,4816.3294 956.5,4840.4375 C 985.81335,4851.3615 1019.8915,4850.8353 1044.3207,4872.0344 C 1074.8281,4881.7068 1105.3261,4865.9832 1135.8438,4864.3125 C 1167.9892,4850.1811 1195.6121,4820.5532 1234.0555,4827.5828 C 1294.5506,4827.5379 1354.9748,4832.382 1415.2995,4836.5277 C 1440.8518,4837.7128 1464.8278,4841.2059 1487.6562,4851.9688 C 1515.6751,4856.594 1541.5878,4842.2292 1565.285,4829.3999 C 1595.6562,4814.7328 1630.0026,4814.0443 1662.9375,4811.5312 C 1693.1853,4806.2187 1697.5905,4767.3809 1674.9688,4750.2188 C 1667.8837,4724.5464 1712.7314,4718.4274 1697.6009,4690.927 C 1686.7991,4670.1993 1688.5664,4647.7959 1704.7812,4630.8125 C 1714.0222,4599.0807 1695.5357,4566.3007 1681.6654,4538.7911 C 1671.0602,4521.9082 1649.3245,4532.4094 1636.7188,4526.6875 C 1639.6743,4510.0344 1667.6973,4510.3035 1678.1639,4496.7414 C 1710.6699,4478.8945 1749.4713,4484.6627 1785.0625,4484.3438 C 1821.9476,4486.4494 1923.9777,4516.2516 1950.9082,4538.0463 C 1971.2575,4558.8077 2002.206,4571.6242 2029.4318,4555.8091 C 2054.1565,4543.0595 2078.9196,4529.3804 2101.8106,4513.7252 C 2129.6287,4490.606 2136.4387,4451.797 2161.2986,4426.3297 C 2185.2804,4408.7125 2215.6425,4426.4777 2237.5925,4439.0387 C 2256.3902,4456.9885 2290.0688,4481.3049 2312.1593,4453.5148 C 2334.1948,4429.9629 2369.6198,4425.8655 2391.7029,4401.917 C 2420.4956,4376.377 2439.1406,4342.1711 2460.1736,4310.486 C 2477.6692,4282.0368 2473.1442,4247.625 2464.6335,4217.1111 C 2457.2053,4188.6827 2438.365,4158.5476 2451.7674,4128.9234 C 2472.9854,4095.1843 2496.5273,4062.9398 2518.3298,4029.6422 C 2533.3612,4002.8248 2535.3463,3958.3466 2504.3544,3942.2414 C 2480.8049,3934.8365 2459.1423,3918.9891 2460.7654,3891.518 C 2458.2968,3859.5299 2410.557,3827.2992 2380.531,3809.7202 C 2429.406,3796.8833 2407.9363,3774.324 2455.0634,3756.0597 C 2467.8367,3709.0465 2329.3585,3630.961 2231.436,3606.7466 C 2208.044,3591.8177 2174.7169,3590.9345 2154.7897,3573.8312 C 2149.1779,3546.7772 2195.9276,3525.0694 2168.9288,3498.7128 C 2154.7895,3471.4881 2112.154,3472.5248 2106.5171,3440.8147 C 2084.5573,3383.5443 2075.6185,3379.743 1978.8165,3424.9163 C 1944.7974,3388.3266 1986.6426,3365.1239 1890.7809,3332.7095 C 1836.7754,3314.4483 1927.8722,3272.9376 1904.9128,3242.0688 C 1884.7738,3210.6041 1713.577,3212.5632 1678.5961,3197.2239 C 1648.0358,3180.5566 1612.7724,3172.007 1586.8827,3147.6501 C 1566.794,3127.0216 1539.803,3126.5477 1513.0625,3129.8438 z M -128.96875,3666 C -155.51983,3672.7409 -132.45687,3700.5872 -117.26177,3706.5563 C -96.739162,3722.6801 -73.878854,3735.4477 -51.90625,3749.4375 C -77.763601,3723.0444 -104.64591,3696.9168 -123.90625,3665.0938 L -128.96875,3666 z M -41.625,3758.5625 C -19.144173,3778.9507 -0.59048045,3806.7511 -0.5625,3838.0938 C 7.7677131,3862.4235 -28.93558,3875.3344 -39.125,3852.25 C -73.120504,3834.224 -104.54807,3871.2948 -111.28286,3902.115 C -120.49387,3926.6361 -121.29794,3960.505 -97.3125,3976.9688 C -88.931754,3979.1579 -62.50947,3997.2053 -84.46875,3998.5 C -108.45262,4005.6333 -135.21313,4025.362 -134.75,4052.7812 C -127.07838,4079.9201 -95.155206,4091.7938 -85.039694,4118.4994 C -70.132987,4143.0142 -84.599733,4170.9572 -81.968103,4197.2339 C -84.310152,4230.388 -50.402206,4247.3229 -22.008064,4249.6493 C 14.800125,4252.8307 52.160222,4256.1277 89,4252 C 113.28491,4244.4575 136.80338,4220.7856 163.58346,4237.5993 C 197.55479,4249.1742 198.8334,4294.0636 170,4312.4062 C 143.81387,4337.9318 110.21917,4352.2218 76.563521,4364.9165 C 42.902252,4368.2261 49.350623,4417.3338 17.21875,4419 C -10.816687,4424.2358 11.166719,4457.3438 29.5625,4459.8438 C 54.796186,4481.2219 42.157835,4528.6583 80.8125,4539.0938 C 110.83435,4551.8674 141.09637,4568.62 174.58008,4568.2621 C 206.02861,4568.3051 237.46413,4569.3018 268.90625,4569.2812 C 298.62025,4566.887 328.86039,4568.5373 356.46875,4580.6562 C 384.17158,4588.855 402.00821,4614.1279 404.65056,4641.7012 C 420.96068,4676.4005 458.97036,4693.4317 494.28125,4702.2188 C 524.49299,4709.7552 573.89635,4711.1842 574.59489,4668.6337 C 577.22393,4655.3492 578.82125,4635.6665 595.5625,4632.875 C 590.84088,4655.1739 613.96171,4679.3535 635.12368,4663.2428 C 658.80176,4654.5548 698.05426,4632.1452 688.25,4602.6616 C 665.64686,4590.5584 667.31145,4634.8832 650.46875,4641.9062 C 633.22629,4660.5551 601.16979,4654.4981 600.0625,4626.7812 C 585.63227,4605.4878 563.08792,4635.1963 567.94897,4652.504 C 570.19856,4676.1392 554.94572,4709.4216 526.23427,4695.8617 C 490.50908,4690.8361 455.95044,4676.9253 427.125,4655.1562 C 410.39423,4632.0676 411.15677,4598.2579 386.21875,4581.0312 C 364.37297,4569.6524 341.04263,4560.0445 316.0625,4558.7812 C 261.36058,4558.2729 206.47673,4559.8635 151.875,4555.0625 C 129.41002,4537.3705 99.017086,4539.5699 75.21875,4528.625 C 55.686711,4504.6095 61.514008,4466.4905 31.739049,4448.7253 C 28.580881,4444.2522 8.8243537,4426.9454 23.09375,4429.25 C 42.512257,4430.7411 55.057402,4415.6102 55.700074,4398.1835 C 73.332434,4367.2495 111.9776,4361.8935 143.08027,4352.6128 C 166.45284,4338.8423 183.90511,4314.6871 193.75438,4289.3896 C 211.80391,4256.0896 175.1987,4223.8201 143.34375,4222.2812 C 109.28638,4218.7041 81.94271,4250.8802 47.108672,4242.9409 C 13.801414,4240.8298 -22.657444,4245.4037 -52.625,4227.8438 C -78.761243,4204.1427 -65.891999,4165.6516 -68.101396,4134.9204 C -68.861738,4098.7659 -106.81949,4083.5637 -120.53125,4054.8438 C -127.37698,4021.6677 -82.080806,4021.4842 -65.875,4002.2812 C -47.214233,3977.3356 -88.017001,3972.9114 -101.375,3961.25 C -115.94758,3938.9641 -103.97246,3906.5867 -91.338382,3885.2174 C -80.775333,3868.1887 -51.535105,3840.3249 -36.28125,3867.7812 C -17.134129,3893.5248 8.4167466,3851.5627 6.0625,3832.0938 C 7.5968424,3803.5336 -5.9634185,3774.3121 -32.00695,3760.898 C -35.223602,3758.5947 -59.553814,3744.2865 -47.002563,3753.929 L -42.442625,3757.858 L -41.625,3758.5625 z M 738.75884,4570.7241 C 708.05034,4577.4338 662.59641,4602.0561 677.54592,4625.5118 C 701.93971,4631.2105 662.20374,4614.062 726.36744,4583.0337 C 738.82793,4597.1174 750.92634,4622.543 748.03678,4611.9461 C 748.28797,4642.746 729.0206,4670.1945 744.94855,4700.8977 C 748.34391,4708.6454 760.45368,4744.4025 757.59817,4723.2857 C 764.5954,4687.5103 758.17301,4636.8408 759.9375,4600.5625 C 750.63122,4587.1742 748.37454,4591.3534 738.75884,4570.7241 z"
             id="path28796"
             sodipodi:nodetypes="cssscssscsssscscssscsscccsssccsssssssssscccsccscssssscccsssssssscsssccccssssccsssssccccsscssscsssssscccscssssccssccsscssccssccssssssssscssscsscsssssccccsssssscccssccsssssssssssscscccssscc" />
        </g>
        <path
           style="opacity:1;fill:#015a01;fill-opacity:1;stroke:none;stroke-width:6.57467556000000020;stroke-miterlimit:28.39999961999999900;stroke-dasharray:none;stroke-opacity:1;"
           d="M 158.81306,289.99868 C 157.66808,288.39146 116.36576,289.75597 114.73826,288.08399 C 108.2608,281.4295 111.06556,281.95521 96.098481,267.32121 C 87.715491,259.12478 84.229121,258.20148 60.240717,254.26842 C 56.026366,253.57745 52.802917,249.63244 51.704437,241.42864 C 42.929324,223.52846 34.31487,258.04561 25.722697,236.94187 C 19.934077,216.53148 22.841736,226.81946 8.7882293,235.89931 C 0.91631784,235.11948 3.2395402,229.50189 2.4155672,223.58661 C 1.1150612,214.25023 -3.6596477,204.34187 -6.5006087,204.34187 C -12.95423,210.21678 -15.009301,214.6422 -24.740276,211.67186 C -20.59385,200.33436 -36.525306,207.29896 -24.085317,196.43797 C -12.104538,187.95374 -4.8845348,176.42443 -8.7367516,172.57219 C -17.638699,162.40148 -18.686795,180.73389 -27.26727,163.27507 L -26.706475,155.5075 L -19.894922,147.76619 C -22.305636,145.88102 -31.58037,144.60199 -29.61934,137.27628 C -17.09403,126.99582 -24.882768,119.29674 -19.671555,109.11172 C -15.188818,106.71261 2.8927022,107.35327 8.2688402,109.8028 C 14.322521,112.56101 22.39275,108.5307 23.107146,102.3925 C 23.763649,96.751249 13.494522,87.83068 1.2190895,84.740415 L -7.0903494,75.484665 C 5.224389,68.841391 -5.9448904,63.562655 5.1308597,59.140133 C 14.376144,54.989954 35.134648,56.379457 56.774971,51.18016 C 58.921014,35.034464 68.583739,33.99532 72.486256,32.634888 C 83.52455,28.501501 83.696526,44.608771 86.667287,45.903281 C 89.730103,42.840446 89.234782,36.217969 95.730038,42.385759 C 107.50557,53.567617 115.87372,58.210808 114.11215,41.356952 C 115.68257,19.782346 112.87067,36.910048 124.11225,25.737788 C 134.55177,15.645503 144.85041,11.877782 160.88963,6.6117768 C 165.50884,3.3762827 175.01397,6.160168 183.39516,11.246144 C 204.1103,14.455372 222.25311,9.360124 244.40636,9.0893051 C 248.2427,10.624272 262.63331,13.284859 266.34449,17.217923 C 268.36034,22.160551 259.02008,19.796617 268.7003,31.604771 C 264.60296,40.91626 268.208,41.578518 269.17094,46.750796 C 271.14655,51.946928 264.90006,58.172113 261.133,58.172113 C 254.71707,70.364064 283.32735,70.924817 293.55367,67.425875 L 321.15976,55.417047 C 334.67764,61.701649 342.28937,68.590862 345.81822,81.040703 C 357.08621,79.216584 360.36548,70.666954 371.09449,74.643613 C 378.67781,78.975027 388.85778,88.054289 393.16674,95.016625 C 396.72653,100.76824 398.05474,104.85382 391.89076,118.96415 C 388.2834,127.22197 403.53133,140.92184 406.36158,148.02677 C 407.33693,150.47524 397.08492,157.59671 393.08967,167.9336 C 390.77014,173.93494 383.42497,172.63909 381.10249,178.69294 C 379.49601,182.88041 393.72667,194.31874 391.14596,195.94276 C 387.56697,198.195 372.71822,209.61611 364.83561,212.2411 C 359.07631,214.159 341.86342,214.90822 344.15869,218.48003 C 347.29276,223.35717 352.75732,231.11292 342.52286,233.69059 C 333.54388,235.95205 333.21273,246.01505 330.81053,245.92644 C 320.44227,245.544 319.21036,238.43766 314.87108,237.91595 C 317.99242,242.45957 311.47453,251.50878 302.01464,253.87011 C 295.47309,258.09673 294.36633,262.05601 298.73617,270.44036 C 287.95442,278.99744 272.65613,274.10374 247.45551,288.2007 C 218.00013,294.36099 188.46608,286.87243 158.81306,289.99868 z"
           id="preenchimentoCopaPF5"
           transform="matrix(0.1224679,0,0,0.1950249,4.1388808,-0.3991568)"
           sodipodi:nodetypes="cssscccscccccccccssccccccscccccccccccccssssssssssccccc" />
      </g>
    </g>
  </g>
  <sodipodi:namedview
     inkscape:window-height="753"
     inkscape:window-width="1280"
     inkscape:pageshadow="2"
     inkscape:pageopacity="0.0"
     guidetolerance="10.0"
     gridtolerance="10.0"
     objecttolerance="10.0"
     borderopacity="1.0"
     bordercolor="#666666"
     pagecolor="#ffffff"
     id="base"
     showgrid="false"
     inkscape:zoom="18.251851"
     inkscape:cx="23.40619"
     inkscape:cy="187.99755"
     inkscape:window-x="0"
     inkscape:window-y="20"
     inkscape:current-layer="svg28790"
     showguides="true"
     inkscape:guide-bbox="true" />
  <metadata
     id="metadata28792">
Created by potrace 1.8, written by Peter Selinger 2001-2007
<rdf:RDF>
  <cc:Work
     rdf:about="">
    <dc:format>image/svg+xml</dc:format>
    <dc:type
       rdf:resource="http://purl.org/dc/dcmitype/StillImage" />
  </cc:Work>
</rdf:RDF>
</metadata>
</svg>
