<?xml version="1.0" standalone="no"?>
<!DOCTYPE svg PUBLIC "-//W3C//DTD SVG 20010904//EN"
 "http://www.w3.org/TR/2001/REC-SVG-20010904/DTD/svg10.dtd">
<svg version="1.0" xmlns="http://www.w3.org/2000/svg"
 width="307pt" height="648pt" viewBox="0 0 307 648"
 preserveAspectRatio="xMidYMid meet">
<metadata>
Created by potrace 1.8, written by Peter Selinger 2001-2007
</metadata>
<g transform="translate(0,648) scale(0.132515,-0.132515)"
fill="#000000" stroke="none">
<path d="M1030 4860 c-14 -11 -31 -17 -39 -15 -8 3 -26 -5 -40 -18 -14 -14
-50 -35 -78 -48 -31 -14 -53 -30 -53 -39 0 -9 -8 -23 -18 -31 -17 -15 -20 -15
-31 2 -37 61 -96 -46 -60 -112 5 -11 7 -29 4 -40 -9 -28 -35 -6 -35 30 0 19
-10 34 -30 49 -34 25 -70 29 -70 7 0 -29 -19 -14 -22 18 -3 28 -7 32 -37 35
-61 6 -131 -33 -131 -73 0 -16 -10 -28 -34 -39 -19 -9 -39 -16 -44 -16 -6 0
-23 -6 -39 -14 -15 -8 -40 -19 -55 -25 -20 -7 -29 -19 -33 -45 -5 -22 -14 -36
-26 -39 -25 -7 -25 -37 0 -37 13 0 21 -8 23 -22 2 -16 16 -26 53 -39 48 -16
95 -57 95 -82 -1 -34 -59 -58 -80 -32 -9 10 -30 13 -86 11 -97 -4 -115 -19
-107 -85 5 -43 3 -50 -26 -78 -17 -17 -31 -36 -31 -42 0 -17 38 -51 57 -51 13
-1 10 -5 -9 -16 -33 -17 -37 -53 -12 -102 16 -34 49 -43 72 -20 9 9 15 9 23 1
15 -15 2 -67 -22 -89 -41 -37 -9 -124 40 -111 16 4 21 -1 23 -22 2 -21 9 -27
33 -29 24 -3 35 3 57 28 l26 32 7 -45 c4 -25 13 -48 21 -51 9 -4 12 -15 8 -35
-14 -67 74 -91 102 -27 7 17 14 29 14 26 0 -3 9 -30 19 -60 16 -49 21 -55 47
-58 21 -2 38 5 58 23 42 39 56 33 56 -25 0 -45 3 -51 30 -65 16 -8 37 -15 47
-15 10 0 23 -10 28 -22 6 -13 24 -30 42 -38 17 -8 34 -25 38 -38 3 -13 13 -26
23 -29 22 -9 72 -58 72 -72 0 -6 15 -43 34 -83 57 -122 77 -221 87 -423 5 -99
11 -691 14 -1315 4 -1136 4 -1174 -28 -1217 -5 -7 -6 -26 -2 -43 9 -41 39 -52
134 -48 l76 3 3 40 c5 80 9 121 16 171 5 34 4 54 -3 59 -6 3 -11 17 -11 30 0
13 -5 27 -10 30 -6 4 -10 102 -10 261 0 172 -4 262 -11 277 -19 34 -21 1502
-2 1632 7 55 18 136 22 180 5 44 21 130 35 192 14 61 26 120 26 130 0 10 11
39 25 65 14 26 25 54 25 62 0 8 17 22 38 31 20 9 46 22 57 28 11 6 31 16 44
23 28 15 79 86 88 123 3 15 14 37 23 51 10 14 29 46 44 73 15 26 31 47 36 47
5 0 15 -12 22 -27 22 -44 43 -51 73 -23 14 13 25 32 25 42 0 10 6 18 13 18 18
0 57 38 57 55 0 7 -7 21 -16 29 -16 17 -11 36 10 36 7 0 32 9 55 21 31 15 46
18 54 10 17 -17 65 -13 83 7 30 33 64 93 64 112 0 23 33 35 57 19 15 -9 26 -7
53 8 30 17 36 26 40 64 4 34 10 45 25 47 46 8 59 66 24 110 -11 15 -31 44 -44
65 -23 35 -24 40 -11 75 8 20 14 44 14 52 0 8 3 22 6 30 4 10 -10 40 -36 80
-32 47 -54 68 -85 82 -24 10 -43 23 -43 28 0 6 -11 10 -25 10 -14 0 -25 -3
-25 -8 0 -12 -66 -44 -85 -40 -14 3 -32 27 -55 78 -8 18 -98 69 -122 70 -9 0
-38 -18 -63 -40 -43 -38 -50 -40 -109 -40 -44 0 -67 5 -76 15 -7 8 -19 15 -26
15 -8 0 -14 5 -14 11 0 6 8 8 19 4 21 -6 30 3 48 55 10 29 10 39 -3 57 -11 18
-12 28 -3 45 10 18 8 24 -8 38 -18 14 -19 18 -5 38 21 32 1 52 -52 52 -23 0
-55 9 -74 20 -36 22 -72 26 -89 9 -6 -6 -38 -11 -71 -12 -47 -2 -64 2 -82 18
-12 11 -34 21 -49 21 -14 1 -35 4 -46 8 -13 4 -29 -1 -45 -14z m90 -4 c14 0
32 -10 42 -21 14 -17 27 -20 89 -18 42 1 75 6 77 12 6 17 49 13 84 -9 19 -12
51 -20 75 -20 50 0 62 -14 37 -41 -18 -20 -18 -21 5 -38 20 -16 22 -20 10 -38
-10 -17 -10 -25 2 -45 23 -35 -2 -103 -38 -103 -27 0 -26 -24 1 -35 14 -5 26
-14 26 -20 0 -6 29 -10 69 -10 67 0 72 2 116 40 25 22 51 40 57 40 23 0 120
-54 125 -69 3 -9 12 -31 20 -48 17 -41 47 -43 103 -8 40 25 60 31 60 17 0 -4
21 -18 48 -30 36 -18 56 -37 85 -83 30 -47 36 -63 27 -74 -7 -8 -9 -19 -5 -25
4 -6 -1 -27 -10 -47 -14 -28 -15 -40 -6 -52 6 -9 18 -33 27 -54 9 -21 25 -44
36 -51 31 -22 21 -68 -19 -85 -29 -13 -33 -19 -33 -52 0 -30 -6 -42 -30 -59
-23 -17 -34 -19 -50 -10 -31 17 -70 2 -70 -27 0 -13 -9 -34 -20 -46 -12 -12
-23 -32 -26 -44 -7 -26 -66 -42 -87 -25 -13 11 -87 -6 -87 -20 0 -5 -8 -8 -19
-8 -33 0 -45 -25 -25 -55 17 -27 17 -28 -7 -46 -13 -10 -30 -19 -36 -19 -7 0
-13 -9 -13 -20 0 -10 -10 -28 -22 -40 -20 -18 -23 -19 -40 -3 -10 9 -18 22
-18 29 0 7 -9 16 -21 19 -23 8 -39 -8 -67 -70 -10 -22 -26 -46 -35 -54 -10 -7
-17 -22 -17 -33 0 -27 -62 -128 -78 -128 -8 0 -26 -8 -40 -18 -15 -10 -47 -28
-72 -40 -44 -22 -49 -22 -255 -14 l-210 8 -37 35 c-21 20 -38 41 -38 47 0 6
-16 18 -35 26 -20 9 -39 26 -45 41 -6 16 -17 25 -32 25 -42 1 -68 33 -68 84 0
24 -5 48 -10 51 -11 7 -45 -12 -74 -40 -25 -25 -59 -15 -70 20 -28 94 -40 105
-57 56 -22 -61 -96 -37 -83 27 5 24 2 33 -9 38 -9 3 -18 23 -22 45 -9 55 -26
60 -51 14 -7 -12 -24 -21 -42 -23 -27 -3 -31 0 -34 25 -2 18 -8 27 -17 25 -8
-2 -25 2 -38 9 -30 16 -32 72 -3 92 28 20 32 85 6 101 -14 8 -20 8 -23 -1 -15
-41 -73 11 -73 66 0 22 5 30 25 35 34 9 31 28 -7 46 -43 20 -44 32 -8 66 27
25 31 35 29 74 -4 71 7 81 87 85 49 2 74 -1 85 -11 23 -21 78 -7 91 22 9 19 6
30 -16 64 -16 25 -34 40 -47 40 -34 0 -79 29 -79 50 0 14 -7 20 -21 20 -21 0
-21 1 5 25 14 13 26 35 26 48 0 25 16 37 50 37 9 0 23 7 30 15 7 8 21 15 31
15 35 0 89 33 89 54 0 12 6 28 13 36 15 18 74 40 110 40 24 0 27 -4 27 -35 0
-37 25 -50 36 -20 8 20 20 19 55 -6 19 -13 29 -29 29 -45 0 -14 7 -33 16 -42
15 -15 18 -14 31 4 8 11 11 27 7 39 -14 43 -15 100 -2 118 15 20 48 14 48 -9
0 -8 5 -14 11 -14 13 0 48 41 49 57 0 6 24 23 54 36 30 14 64 35 75 46 12 12
25 19 30 17 11 -7 61 16 61 28 0 4 10 5 23 1 12 -4 33 -8 47 -9z m189 -1721
c3 -3 -7 -30 -22 -59 -15 -29 -27 -60 -27 -69 0 -9 -13 -77 -30 -150 -16 -74
-30 -150 -30 -168 0 -19 -8 -68 -17 -109 -15 -67 -17 -163 -17 -885 0 -604 3
-816 12 -832 8 -15 12 -99 12 -272 0 -148 4 -259 10 -271 6 -11 15 -29 20 -40
8 -15 7 -39 0 -79 -6 -32 -8 -66 -4 -75 3 -9 1 -22 -5 -30 -6 -7 -10 -29 -9
-47 l3 -34 -60 -3 c-93 -5 -122 3 -130 37 -3 16 -2 38 3 48 5 10 14 28 20 40
8 15 11 272 11 885 0 990 -15 1777 -34 1823 -20 50 -35 100 -35 120 0 10 -16
51 -35 92 -19 41 -35 79 -35 85 0 8 54 9 197 5 108 -4 199 -9 202 -12z"/>
</g>
</svg>
