<?xml version="1.0" standalone="no"?>
<!DOCTYPE svg PUBLIC "-//W3C//DTD SVG 20010904//EN"
 "http://www.w3.org/TR/2001/REC-SVG-20010904/DTD/svg10.dtd">
<svg version="1.0" xmlns="http://www.w3.org/2000/svg"
 width="431pt" height="648pt" viewBox="0 0 431 648"
 preserveAspectRatio="xMidYMid meet">
<metadata>
Created by potrace 1.8, written by Peter Selinger 2001-2007
</metadata>
<g transform="translate(0,648) scale(0.122960,-0.122960)"
fill="#000000" stroke="none">
<path d="M1275 4610 c-3 -5 -30 -10 -58 -10 -44 0 -57 -5 -84 -31 -18 -16 -33
-35 -33 -41 0 -14 92 -108 108 -108 6 0 12 -6 12 -13 0 -34 98 -74 115 -47 12
19 52 10 69 -15 29 -44 92 -100 147 -129 30 -16 71 -44 92 -62 22 -19 56 -35
78 -39 l39 -7 0 -119 0 -119 -28 0 c-16 0 -43 13 -67 33 -21 17 -71 48 -110
68 -55 27 -74 43 -88 72 -10 20 -25 37 -33 37 -24 0 -19 95 7 119 14 13 19 28
17 47 -3 27 -7 29 -58 36 -65 8 -148 41 -156 63 -8 19 -48 19 -68 0 -8 -8 -24
-15 -34 -15 -11 0 -33 -7 -49 -15 -15 -8 -40 -17 -55 -20 -23 -4 -27 -11 -30
-48 -3 -38 -6 -42 -31 -45 -16 -2 -31 -11 -35 -20 -3 -9 -13 -25 -22 -35 -14
-14 -15 -28 -8 -85 7 -58 13 -71 42 -99 55 -51 129 -65 191 -36 19 9 37 14 40
11 4 -3 -1 -33 -9 -66 -19 -73 -21 -132 -3 -132 6 0 30 -18 52 -40 22 -21 50
-39 61 -40 16 0 20 -5 18 -22 -5 -30 61 -87 79 -69 6 6 23 11 39 11 26 0 61
30 102 85 8 11 18 15 26 10 6 -4 29 -10 49 -12 20 -3 53 -14 73 -24 21 -11 44
-19 53 -19 11 0 15 -12 15 -51 l0 -51 -122 6 c-68 4 -134 11 -148 16 -14 5
-65 12 -113 15 -77 6 -90 10 -103 30 -9 13 -37 32 -62 41 -58 22 -82 41 -82
68 -1 12 -21 39 -52 66 -102 90 -178 169 -178 184 0 18 -16 50 -41 81 -33 41
-30 52 22 92 l50 38 -5 99 -4 100 -39 26 c-88 59 -184 80 -213 45 -7 -8 -19
-15 -26 -15 -8 0 -14 -5 -14 -10 0 -6 -20 -30 -45 -54 -44 -43 -45 -47 -45
-106 0 -33 -4 -68 -9 -78 -5 -9 -13 -37 -19 -61 -8 -36 -7 -51 6 -78 l16 -33
80 0 c59 1 92 6 121 20 22 11 34 19 26 20 -19 0 3 26 29 33 15 4 20 0 20 -13
0 -10 7 -25 15 -34 8 -8 15 -21 15 -28 1 -30 107 -176 155 -212 34 -26 34 -26
17 -56 -9 -16 -26 -31 -36 -34 -11 -3 -17 -8 -14 -11 10 -11 46 13 53 35 3 11
13 20 21 20 14 0 70 -78 66 -92 -1 -5 4 -8 12 -8 23 0 29 -18 13 -40 -13 -18
-16 -19 -27 -5 -7 9 -48 34 -90 56 l-78 40 -6 52 c-4 29 -8 63 -9 77 -1 14
-15 41 -30 61 -36 48 -99 67 -158 50 -44 -13 -55 -33 -66 -108 -7 -50 3 -66
59 -94 34 -18 37 -21 25 -40 -10 -18 -8 -23 16 -45 34 -29 78 -31 102 -4 10
11 27 20 37 20 17 0 19 -5 13 -47 -12 -86 -8 -83 -90 -83 -43 0 -77 5 -81 11
-4 6 -20 8 -40 4 -34 -6 -160 19 -179 36 -5 6 -5 9 3 9 20 0 43 65 40 116 -3
45 -5 48 -35 56 -18 5 -37 17 -43 28 -6 11 -20 20 -30 20 -13 0 -20 7 -20 20
0 24 -25 27 -38 4 -6 -11 -11 -13 -16 -5 -12 19 -25 12 -42 -25 -14 -29 -22
-35 -41 -31 -29 5 -30 -1 -1 -12 l23 -9 -25 -10 c-18 -8 -20 -11 -7 -11 15 -1
20 -8 15 -28 0 -5 -11 -7 -22 -6 -14 2 -10 -3 12 -12 32 -15 32 -16 17 -45 -8
-16 -24 -35 -35 -43 -21 -14 -21 -15 5 -21 31 -8 33 -38 6 -65 -13 -13 -16
-21 -8 -24 8 -3 6 -11 -7 -26 -20 -22 -9 -30 13 -8 11 10 12 9 6 -2 -6 -10 -2
-11 16 -6 l24 7 -24 -26 c-14 -14 -19 -26 -13 -26 6 0 14 5 18 12 5 8 10 6 15
-8 7 -18 8 -18 8 0 1 16 6 17 39 11 20 -3 41 -10 45 -14 13 -13 -3 -40 -26
-44 -20 -4 -20 -4 2 -6 23 -1 23 -2 7 -20 -17 -19 -17 -20 13 -35 16 -9 44
-16 61 -16 18 0 45 -9 61 -21 16 -11 46 -25 65 -31 36 -9 36 -10 30 -51 -4
-23 -11 -46 -15 -50 -20 -20 3 -57 56 -92 49 -33 61 -36 102 -31 115 13 209
27 269 41 66 16 67 16 84 -7 l17 -23 -77 -12 c-42 -6 -103 -19 -136 -28 -63
-18 -187 -16 -239 4 -16 6 -47 11 -71 11 -33 0 -48 6 -69 28 -22 23 -26 33
-20 65 4 25 11 37 22 37 26 0 41 21 41 57 0 26 -6 36 -30 48 -16 8 -39 15 -52
15 -13 1 -34 7 -48 15 -58 33 -97 7 -67 -45 l17 -28 -33 -5 c-17 -2 -38 0 -45
5 -8 7 -12 7 -12 0 0 -6 5 -14 11 -17 6 -4 8 -13 5 -20 -3 -8 6 -16 22 -20
l27 -7 -25 -18 c-16 -12 -29 -15 -34 -9 -17 16 -29 10 -15 -7 9 -11 25 -15 51
-12 l37 3 -19 -20 c-15 -16 -17 -24 -8 -33 7 -7 18 -12 26 -12 9 0 13 -7 9
-20 -3 -11 -1 -18 4 -14 5 3 9 12 9 20 0 8 5 14 10 14 14 0 12 -33 -2 -50 -11
-12 -10 -12 5 -1 9 7 17 22 17 32 0 24 6 24 57 -5 23 -13 57 -26 75 -29 18 -3
46 -10 61 -16 57 -22 369 -8 386 17 3 5 34 12 68 15 60 5 63 4 98 -29 20 -19
43 -34 50 -34 8 0 31 14 51 32 l36 32 52 -18 c47 -16 64 -17 136 -7 46 6 96
18 113 26 17 8 35 15 40 15 6 0 21 10 34 22 16 15 23 17 23 7 0 -30 -13 -59
-25 -59 -7 0 -36 -16 -64 -35 -28 -20 -65 -38 -81 -42 -17 -3 -33 -10 -36 -14
-3 -5 -20 -9 -39 -9 -19 0 -37 -4 -40 -10 -3 -5 -21 -10 -40 -10 -19 0 -37 -4
-40 -10 -3 -5 -32 -10 -64 -10 -38 0 -78 -8 -119 -25 -63 -25 -116 -32 -126
-16 -3 5 -34 12 -67 16 -50 6 -68 13 -99 41 -43 39 -90 47 -90 15 0 -10 -9
-21 -20 -24 -11 -3 -20 -12 -20 -21 0 -10 -9 -16 -24 -16 -14 0 -28 -4 -31
-10 -4 -6 6 -7 25 -4 23 5 30 3 30 -10 0 -9 -4 -16 -10 -16 -5 0 -10 -4 -10
-10 0 -5 7 -7 15 -4 9 4 15 0 15 -10 0 -9 -4 -16 -10 -16 -5 0 -10 -4 -10 -9
0 -4 11 -6 25 -3 18 3 25 0 25 -12 0 -9 -4 -16 -10 -16 -5 0 -10 -5 -10 -11 0
-5 10 -3 22 5 13 10 44 16 75 16 57 0 73 14 73 64 0 23 3 24 38 19 20 -3 41
-10 47 -14 18 -17 105 -9 167 16 34 14 75 25 92 24 25 -1 27 -2 11 -8 -34 -11
-76 -31 -178 -82 -63 -32 -111 -49 -135 -49 -20 0 -55 -5 -77 -11 -65 -16
-178 -11 -229 11 -47 20 -103 88 -93 113 2 7 -12 32 -33 56 -40 45 -89 61
-144 47 -22 -5 -26 -12 -26 -41 0 -37 -40 -85 -72 -85 -9 0 -20 -5 -23 -10 -4
-7 2 -9 19 -4 22 5 26 3 26 -17 0 -13 4 -31 9 -38 6 -9 6 -22 0 -33 -6 -11 -6
-18 0 -18 5 0 11 7 15 15 3 8 15 15 28 15 17 0 19 -3 10 -12 -7 -7 -12 -17
-12 -22 1 -6 10 0 21 13 12 14 23 21 27 15 4 -5 19 -17 34 -26 23 -15 27 -16
32 -2 3 9 6 26 6 39 0 25 24 55 43 55 7 0 22 -16 35 -36 14 -21 40 -42 65 -53
61 -26 186 -33 282 -15 44 8 96 16 115 19 20 3 71 25 115 50 43 25 86 45 95
45 9 0 25 7 36 15 10 8 26 15 34 15 8 0 28 14 43 30 21 22 38 30 62 30 19 0
44 4 57 9 13 5 48 16 78 26 30 10 73 31 94 47 22 15 44 28 48 28 11 0 10 -560
-2 -880 -5 -146 -14 -526 -20 -845 -5 -319 -13 -620 -16 -668 l-7 -88 104 3
104 3 -1 105 c0 58 -4 391 -9 740 -4 349 -4 874 0 1165 l8 530 61 -67 c72 -79
190 -151 275 -169 31 -6 72 -21 91 -32 19 -12 73 -32 120 -45 47 -13 117 -32
155 -42 39 -11 87 -20 107 -20 20 0 40 -5 43 -10 4 -6 21 -8 41 -4 31 6 34 4
34 -19 0 -14 4 -29 10 -32 6 -4 7 6 3 26 -4 23 -3 30 5 25 7 -4 12 -13 12 -21
0 -8 4 -16 8 -19 5 -3 6 8 4 24 -3 25 0 30 22 36 24 6 26 10 26 61 0 70 -12
93 -50 93 -23 0 -30 -5 -30 -19 0 -16 -8 -20 -37 -23 -29 -2 -39 -8 -41 -23
-9 -59 -12 -65 -40 -65 -34 0 -148 30 -227 60 -33 12 -77 25 -97 30 -21 4 -44
13 -52 19 -8 7 -27 16 -43 21 -21 6 -8 8 51 9 57 1 84 5 97 17 13 11 22 13 36
6 10 -5 46 -13 81 -17 64 -7 176 12 232 40 25 13 81 20 133 17 23 -2 27 -6 22
-24 -5 -25 14 -53 58 -81 15 -10 25 -22 22 -27 -4 -6 -1 -10 5 -10 8 0 10 9 6
24 -7 30 21 41 42 16 12 -13 13 -13 8 3 -4 12 0 17 14 17 11 0 20 -4 20 -10 0
-5 5 -10 10 -10 6 0 8 11 4 25 -5 19 -2 25 10 25 9 0 19 -7 22 -15 4 -8 10
-15 15 -15 5 0 4 9 -3 20 -7 11 -19 20 -26 20 -9 0 -11 9 -7 33 4 22 2 39 -7
48 -7 8 -19 26 -25 42 -14 31 -44 35 -89 12 -16 -8 -39 -15 -50 -15 -13 0 -24
-8 -26 -18 -4 -15 -19 -20 -78 -26 -39 -3 -82 -11 -93 -18 -47 -25 -162 -48
-210 -41 -63 8 -123 28 -108 37 12 8 15 56 3 56 -4 0 -21 20 -36 44 -39 62
-41 62 -304 64 -50 1 -79 8 -147 39 -76 34 -85 41 -85 66 0 35 8 35 133 -7 56
-19 138 -39 182 -46 44 -6 96 -15 115 -20 46 -12 182 -30 225 -30 18 0 35 -5
37 -10 5 -16 112 -30 226 -30 75 0 102 -3 102 -12 0 -9 3 -9 9 1 8 12 12 12
25 2 13 -11 16 -11 16 3 0 9 5 16 10 16 6 0 10 -7 10 -17 0 -13 3 -12 19 5 10
12 21 19 25 15 3 -3 6 0 6 8 0 11 2 11 10 -1 6 -10 10 -11 10 -2 0 6 4 12 10
12 5 0 32 14 60 30 60 35 64 36 57 11 -2 -10 -1 -24 3 -31 4 -7 4 -26 -1 -43
-6 -23 -6 -28 3 -19 12 12 45 0 61 -22 5 -6 7 1 4 17 -5 31 0 34 20 10 13 -16
13 -16 4 4 -6 12 -11 30 -11 40 1 14 6 12 27 -12 24 -28 25 -29 9 -3 -9 15
-16 33 -16 40 0 8 5 6 11 -4 5 -10 17 -18 25 -18 23 0 28 29 10 49 -16 18 -15
18 26 14 34 -4 47 -1 58 13 14 16 13 16 -6 4 -17 -11 -25 -10 -49 6 l-28 18
24 7 c13 3 23 12 21 19 -2 7 5 22 15 34 l18 21 -22 -19 c-23 -19 -32 -11 -13
12 7 9 7 9 -2 2 -20 -16 -31 -11 -17 8 11 14 9 13 -9 -2 -28 -24 -39 -15 -18
16 23 32 20 47 -11 59 l-28 10 24 18 24 18 -23 16 -22 15 28 5 c29 4 29 4 3 6
-17 0 -28 8 -32 20 -6 24 19 36 39 20 19 -16 45 -4 38 18 -4 14 0 12 15 -6 12
-13 21 -20 21 -15 0 4 -7 16 -17 26 -28 31 -5 33 30 2 26 -24 28 -24 9 -3 -23
26 -19 48 5 27 11 -9 12 -7 7 8 -7 18 -6 18 17 -1 l24 -20 -20 24 c-15 18 -17
25 -7 28 10 4 10 8 -2 17 -8 6 -18 23 -22 39 -6 24 -3 28 25 33 31 7 31 7 10
18 -13 6 -31 26 -42 43 l-18 32 33 16 c18 8 23 12 11 9 -36 -8 -39 25 -3 39
12 4 11 6 -2 6 -22 1 -24 17 -3 25 8 3 15 10 15 16 0 6 -7 6 -19 -2 -23 -14
-48 2 -63 42 -9 24 -10 24 -23 7 -13 -18 -14 -18 -25 3 -13 25 -35 22 -35 -6
0 -13 -6 -18 -20 -16 -10 2 -26 -6 -35 -18 -9 -12 -32 -25 -51 -29 l-34 -7 0
-59 0 -60 -60 -17 c-64 -18 -215 -38 -290 -38 -39 0 -45 3 -45 21 0 12 -13 34
-30 49 -35 32 -38 46 -11 55 13 4 33 -8 67 -40 33 -30 58 -45 76 -45 63 0 109
47 72 74 -19 14 -15 18 39 35 20 7 44 19 52 28 36 35 -4 160 -55 174 -39 11
-98 10 -105 -1 -3 -5 -17 -10 -31 -10 -17 0 -27 -8 -34 -24 -5 -13 -17 -29
-26 -34 -11 -6 -15 -16 -10 -27 8 -23 -14 -85 -32 -85 -7 0 -27 -7 -44 -16
-28 -15 -31 -14 -50 6 -15 16 -29 21 -49 18 -38 -6 -37 2 8 43 118 108 203
212 203 249 0 6 8 20 18 31 18 18 21 18 48 4 16 -8 35 -15 42 -15 7 0 26 -15
43 -32 29 -32 31 -33 133 -38 57 -3 103 -2 101 1 -2 3 4 19 15 36 11 19 15 34
9 40 -5 5 -10 28 -12 51 -1 23 -8 47 -15 54 -7 7 -12 39 -12 78 l0 65 -45 28
c-25 16 -45 34 -45 40 -1 7 -17 22 -36 35 -42 26 -114 30 -158 7 -15 -8 -37
-15 -47 -15 -11 0 -19 -4 -19 -9 0 -5 -15 -18 -33 -29 -30 -17 -33 -23 -29
-56 3 -27 0 -40 -13 -50 -27 -20 -11 -98 26 -125 32 -24 36 -42 14 -61 -18
-15 -45 -68 -45 -87 0 -8 -15 -29 -34 -46 -85 -79 -106 -97 -115 -97 -5 0 -29
-30 -54 -68 -52 -78 -59 -85 -110 -102 -21 -7 -53 -25 -70 -40 -21 -18 -48
-30 -77 -33 -25 -4 -74 -11 -110 -18 -36 -6 -111 -13 -167 -16 l-103 -4 0 54
c0 53 1 54 38 70 59 26 64 24 123 -34 l57 -56 58 5 c36 2 65 10 74 20 13 14
13 15 0 5 -23 -16 -124 -22 -138 -7 -6 7 -19 18 -29 26 -10 7 -29 29 -43 48
-22 30 -25 45 -24 100 2 36 3 68 3 71 3 18 111 78 149 83 46 5 57 10 57 29 0
6 14 14 30 19 80 23 152 -30 180 -133 30 -113 31 -119 4 -119 -14 0 -30 -9
-37 -20 -7 -11 -19 -20 -27 -20 -8 0 -19 -9 -25 -20 -7 -13 -21 -20 -40 -20
-16 0 -31 -4 -35 -9 -11 -19 70 1 84 20 7 11 20 19 27 19 8 0 19 9 26 20 7 11
23 20 36 20 23 0 24 3 18 43 -10 69 -13 81 -25 110 -6 16 -11 33 -11 38 0 13
31 10 60 -6 33 -19 69 -19 127 1 57 19 103 59 103 90 0 13 4 25 9 29 16 9 10
82 -8 102 -9 10 -20 26 -23 35 -4 10 -20 18 -40 20 -32 3 -33 5 -36 51 -3 46
-3 47 -38 47 -19 0 -46 7 -59 16 -15 10 -36 14 -51 11 -20 -3 -28 0 -31 14 -7
27 -51 24 -95 -6 -20 -14 -43 -25 -50 -25 -8 0 -18 -4 -24 -10 -5 -5 -41 -13
-79 -17 l-70 -8 -3 -34 c-3 -25 2 -37 17 -48 12 -8 21 -23 21 -33 0 -10 4 -21
10 -25 12 -8 1 -35 -15 -35 -7 0 -20 -11 -28 -24 -9 -13 -44 -37 -79 -53 -35
-17 -83 -46 -108 -66 -24 -20 -45 -35 -46 -34 -1 1 -4 57 -7 125 -5 114 -4
122 14 122 10 0 30 15 46 34 15 19 46 43 70 52 24 10 43 22 43 26 0 4 9 8 20
8 11 0 42 23 70 52 27 28 50 46 50 40 0 -7 11 -12 25 -12 13 0 40 -7 58 -16
33 -16 35 -16 60 10 14 14 31 26 37 26 5 0 10 7 10 15 0 8 7 15 15 15 9 0 18
7 21 15 3 8 14 17 25 20 23 8 49 33 49 47 0 7 -8 4 -17 -5 -36 -34 -81 -67
-92 -67 -6 0 -11 -7 -11 -15 0 -8 -5 -15 -10 -15 -6 0 -20 -11 -31 -25 -21
-23 -23 -23 -57 -10 -19 8 -43 15 -53 15 -13 0 -19 7 -19 21 0 12 -19 39 -44
62 -36 35 -42 46 -35 64 11 30 39 43 93 43 34 0 51 6 67 23 15 15 23 18 26 10
3 -9 26 -13 65 -13 45 0 68 -5 91 -22 l32 -22 -24 27 c-22 24 -32 27 -87 27
-35 0 -66 5 -69 10 -9 15 -23 12 -42 -10 -13 -15 -30 -20 -68 -20 -58 0 -90
-18 -99 -56 -6 -22 0 -33 38 -69 l46 -43 -23 -15 c-12 -8 -35 -28 -52 -45 -16
-17 -61 -47 -99 -67 -37 -20 -79 -49 -93 -65 -40 -48 -50 -39 -58 46 -6 63 -5
78 9 92 15 15 16 15 16 -6 0 -18 6 -22 31 -22 46 0 69 16 69 50 0 54 -91 85
-98 34 -2 -12 -11 -24 -21 -27 -13 -3 -17 3 -19 24 -1 15 3 31 9 34 5 4 15 19
20 33 9 24 11 25 20 10 8 -14 23 -18 72 -18 77 0 88 13 79 91 l-7 54 -49 3
c-84 5 -96 -1 -96 -53 0 -33 -4 -45 -15 -45 -8 0 -23 -19 -34 -42 -17 -37 -19
-39 -25 -20 -4 12 -12 22 -18 22 -5 0 -8 6 -5 14 10 26 -34 54 -75 49 -33 -5
-38 -9 -38 -32 0 -38 17 -51 66 -51 51 0 57 -12 48 -90 l-6 -58 -29 16 c-19
11 -31 30 -38 57 -6 22 -22 53 -36 69 -14 16 -25 39 -25 50 -1 26 -33 66 -53
66 -8 0 -20 7 -27 15 -22 27 -37 17 -44 -30 -11 -71 -3 -85 51 -85 52 0 85
-24 108 -79 18 -41 18 -41 2 -41 -7 0 -20 18 -30 41 -14 32 -22 40 -40 37 -18
-2 -23 -11 -25 -41 -5 -58 18 -79 77 -71 39 5 49 3 65 -15 11 -12 25 -21 33
-21 9 0 13 -14 13 -47 0 -83 -6 -93 -53 -88 -30 3 -49 13 -75 39 -19 20 -38
36 -43 36 -15 0 -98 56 -134 92 -19 19 -37 45 -40 58 -2 13 -10 27 -17 31 -13
8 11 42 55 80 13 11 17 22 12 42 -10 38 -42 57 -97 57 -37 0 -50 4 -58 20 -11
21 -35 27 -45 10z m92 -40 c53 0 81 -13 93 -43 6 -18 1 -30 -30 -62 -21 -22
-40 -49 -42 -60 -2 -12 -13 -21 -28 -23 -14 -2 -29 -8 -34 -13 -21 -20 -47 -6
-131 74 l-88 83 34 32 c29 27 41 32 86 32 29 0 55 5 59 12 5 8 12 5 22 -10 11
-17 24 -22 59 -22z m644 -10 c9 -67 -4 -81 -71 -78 l-55 3 -3 54 c-4 65 4 72
73 69 l50 -3 6 -45z m-399 -25 c9 -11 17 -28 18 -37 0 -15 -9 -18 -49 -18 -56
0 -64 10 -55 70 l6 38 31 -17 c17 -9 39 -25 49 -36z m145 -49 c-9 -22 -73 -22
-81 0 -12 30 -6 43 22 46 32 5 68 -23 59 -46z m-931 -98 c32 -20 59 -44 60
-54 2 -11 6 -54 10 -96 7 -75 6 -77 -22 -102 -16 -14 -33 -26 -39 -26 -5 0
-21 -9 -35 -20 -14 -11 -31 -20 -39 -20 -8 0 -29 -16 -47 -35 -31 -34 -33 -35
-113 -35 -78 0 -81 1 -95 28 -14 28 -8 90 15 134 5 10 9 45 9 78 0 56 3 64 32
91 18 16 36 29 40 29 5 0 8 7 8 15 0 9 11 21 25 27 14 6 25 16 25 21 0 5 23 8
55 5 40 -3 70 -14 111 -40z m988 -10 c28 -248 30 -402 31 -1978 0 -899 4
-1708 9 -1798 l9 -162 -98 0 -98 0 6 77 c4 43 11 341 17 663 6 322 15 702 20
845 5 143 10 391 10 550 0 279 10 619 30 1000 5 99 14 308 20 465 5 157 13
305 16 330 4 25 7 48 6 53 -1 4 2 7 7 7 5 0 12 -24 15 -52z m118 35 c35 -32
12 -73 -41 -73 -19 0 -21 6 -19 45 1 38 4 45 21 45 11 0 29 -7 39 -17z m1048
7 c0 -6 11 -16 25 -22 14 -6 25 -17 25 -23 0 -7 20 -25 45 -41 l45 -28 0 -66
c0 -37 3 -70 8 -74 15 -16 28 -111 18 -138 -10 -28 -11 -28 -101 -28 -96 0
-106 3 -123 37 -7 12 -29 27 -49 33 -89 29 -158 87 -168 142 -6 30 -4 39 10
44 12 5 16 17 14 51 -3 41 -1 46 26 59 17 7 37 18 45 22 59 34 81 41 128 42
29 0 52 -5 52 -10z m-1342 -27 c17 -39 16 -73 -4 -73 -22 0 -43 29 -44 61 0
47 28 54 48 12z m-389 -66 c26 -24 110 -54 166 -59 38 -4 46 -37 16 -67 -17
-17 -21 -34 -21 -90 0 -83 -11 -96 -81 -93 -59 2 -95 -10 -104 -37 -3 -11 -19
-22 -36 -26 -16 -4 -43 -13 -59 -22 -41 -20 -97 -10 -154 29 -34 22 -46 37
-47 56 -1 15 -3 45 -5 67 -2 22 2 46 10 55 7 8 16 23 19 33 4 11 17 17 36 17
29 0 30 2 33 48 3 46 4 47 37 50 19 2 44 10 55 18 11 8 28 14 37 14 9 0 22 7
29 15 18 21 40 19 69 -8z m1144 2 c5 -17 11 -20 34 -15 18 4 35 1 48 -8 11 -9
37 -16 57 -16 37 0 37 0 40 -47 3 -44 5 -48 31 -51 35 -4 81 -61 83 -102 1
-17 -2 -33 -7 -36 -5 -3 -9 -15 -9 -28 0 -59 -166 -136 -207 -95 -6 6 -32 15
-57 20 -31 6 -54 18 -70 36 -22 26 -31 28 -97 29 -61 1 -75 4 -90 23 -14 17
-16 28 -7 57 6 24 6 39 0 43 -5 3 -13 21 -17 39 -4 18 -13 32 -21 32 -11 0
-14 8 -12 28 3 26 6 27 73 35 38 4 74 12 79 17 6 6 17 10 26 10 8 1 29 12 45
25 37 31 71 32 78 4z m-263 -285 c6 -14 19 -28 30 -31 41 -11 17 -39 -40 -48
-43 -6 -121 -51 -148 -84 -8 -10 -10 -31 -6 -63 6 -45 5 -47 -20 -54 -14 -3
-30 -11 -34 -18 -4 -6 -17 -16 -28 -23 -20 -11 -22 -9 -28 40 -3 29 -6 70 -6
92 1 39 3 42 73 87 40 25 96 58 125 73 29 15 56 33 59 41 7 20 12 18 23 -12z
m-600 -88 c30 -16 71 -40 90 -55 47 -37 94 -61 121 -61 17 0 20 -4 15 -22 -3
-13 -9 -53 -12 -90 -6 -57 -10 -68 -26 -68 -19 0 -53 16 -75 37 -7 6 -26 14
-43 18 -33 7 -33 9 -33 118 1 57 0 59 -37 82 -21 13 -41 28 -44 33 -3 6 -26
13 -50 16 -24 4 -47 13 -50 21 -3 8 -10 15 -16 15 -27 0 29 -39 65 -45 22 -4
51 -18 65 -30 14 -12 32 -25 40 -27 12 -4 15 -23 16 -86 0 -45 -3 -82 -8 -82
-4 0 -17 -17 -28 -37 -53 -101 -126 -135 -185 -87 -23 18 -26 25 -17 37 14 17
6 27 -21 27 -11 0 -37 18 -58 40 -22 22 -46 40 -54 40 -36 0 -1 166 46 218 28
31 35 34 102 37 52 3 75 8 82 20 9 13 13 12 35 -13 14 -16 50 -41 80 -56z
m-733 -48 c40 -17 87 -69 89 -98 2 -14 6 -46 10 -72 5 -38 4 -48 -7 -48 -8 0
-27 -16 -42 -35 -32 -40 -63 -45 -98 -16 -22 18 -23 22 -10 42 7 13 10 24 5
26 -36 13 -89 52 -93 68 -2 10 2 43 8 71 10 43 17 55 39 63 37 13 66 13 99 -1z
m2128 0 c30 -13 65 -78 65 -120 0 -20 -8 -31 -30 -43 -16 -8 -35 -15 -43 -15
-7 0 -22 -6 -32 -14 -19 -13 -19 -15 -3 -33 19 -21 14 -34 -19 -52 -36 -18
-57 -13 -102 26 -41 34 -42 38 -37 77 4 23 8 55 9 71 1 17 8 34 15 38 7 5 17
20 22 33 7 16 17 24 34 24 14 0 28 5 31 10 8 14 58 13 90 -2z m-2512 -98 c3
-11 13 -20 22 -20 9 0 26 -11 37 -25 11 -14 30 -25 44 -25 22 0 24 -3 24 -55
0 -30 -4 -55 -10 -55 -5 0 -10 -6 -10 -12 0 -18 -118 -138 -136 -138 -8 0 -17
-13 -20 -30 -4 -16 -8 -30 -10 -30 -12 0 -74 44 -74 53 0 6 6 26 12 45 11 29
10 35 -4 46 -16 12 -15 15 7 47 22 31 23 38 14 76 -10 37 -9 45 10 71 12 17
21 38 21 48 0 14 3 15 12 6 17 -17 38 -15 38 3 0 22 17 18 23 -5z m2892 -20
c8 0 16 8 18 18 4 14 5 13 6 -4 0 -11 12 -31 27 -44 24 -23 27 -46 14 -95 -6
-19 12 -65 29 -75 15 -9 15 -11 -1 -20 -22 -13 -22 -26 -4 -62 13 -24 13 -30
0 -43 -9 -8 -24 -15 -34 -15 -21 0 -45 -34 -35 -50 3 -6 1 -10 -4 -10 -6 0
-11 15 -11 33 0 40 -6 48 -53 69 -20 10 -36 21 -35 26 4 11 -57 72 -71 72 -6
0 -11 8 -11 18 0 10 -5 23 -11 29 -5 5 -9 30 -7 54 3 40 5 44 37 50 19 4 42
17 51 29 13 17 19 20 25 10 11 -18 36 15 29 38 -3 11 1 9 12 -5 9 -13 22 -23
29 -23z m-721 -66 c9 -8 16 -17 16 -19 0 -2 -25 -17 -55 -33 l-55 -30 0 33 c0
54 59 84 94 49z m-104 -72 c0 -16 -9 -37 -20 -47 -16 -15 -27 -16 -62 -9 -48
10 -53 23 -17 41 99 50 99 50 99 15z m170 3 c0 -8 5 -15 12 -15 19 0 48 -31
48 -52 0 -16 -9 -18 -82 -17 -46 1 -93 4 -106 7 -20 6 -21 9 -10 25 13 18 102
65 126 66 6 1 12 -6 12 -14z m-1592 -103 c11 -15 10 -18 -10 -24 -13 -3 -53
-6 -91 -7 -65 -1 -67 0 -63 22 3 12 7 38 11 58 l5 36 68 -34 c37 -19 73 -41
80 -51z m142 30 l24 -15 -44 -13 c-50 -15 -70 -12 -70 11 0 43 38 50 90 17z
m1955 -6 c18 -13 18 -14 -3 -21 -27 -8 -72 -48 -72 -64 0 -6 -17 -11 -41 -11
-33 0 -47 6 -69 30 -33 35 -41 37 -64 11 -21 -23 -14 -57 13 -66 15 -4 17 -14
13 -60 -4 -53 -4 -55 21 -55 14 0 33 7 41 16 18 17 47 16 53 -3 7 -19 -51 -44
-85 -37 -22 4 -42 -1 -71 -17 -23 -12 -41 -26 -41 -30 0 -6 -33 -12 -142 -26
-49 -6 -68 9 -28 22 11 3 20 10 20 15 0 5 15 4 32 -1 50 -14 83 -11 111 11 14
11 32 20 41 20 34 0 48 70 18 92 -11 7 -24 23 -31 36 -6 12 -21 22 -32 22 -11
0 -29 5 -39 10 -19 10 -70 57 -70 64 0 2 53 7 118 11 64 4 146 15 182 25 83
22 102 23 125 6z m-781 -9 c42 -11 46 -14 33 -26 -9 -7 -40 -19 -69 -26 -29
-7 -73 -22 -98 -32 -36 -14 -71 -18 -181 -17 -144 1 -199 14 -199 45 0 15 13
17 93 16 54 -1 125 6 172 16 70 16 159 32 190 36 6 0 32 -5 59 -12z m100 -32
c-4 -9 -16 -21 -28 -27 -19 -10 -19 -9 3 16 28 30 33 32 25 11z m734 -14 c9
-17 33 -36 54 -45 47 -18 51 -49 10 -70 -24 -12 -28 -20 -24 -46 2 -17 13 -36
23 -44 18 -12 18 -13 -4 -24 -12 -6 -48 -12 -80 -14 -48 -3 -58 0 -63 15 -3
10 -17 23 -30 29 -13 6 -24 15 -24 19 0 15 -32 39 -51 39 -11 0 -27 -7 -35
-15 -9 -8 -22 -15 -31 -15 -13 0 -15 9 -9 54 5 48 4 55 -13 61 -26 8 -32 27
-15 50 14 18 15 18 44 -13 25 -28 35 -32 79 -32 36 0 51 4 51 13 0 14 37 50
61 60 28 11 40 6 57 -22z m-2678 -2 c19 -12 39 -28 43 -35 8 -15 77 -20 77 -6
0 4 -16 6 -35 4 -28 -3 -35 -1 -35 13 0 14 6 15 33 9 17 -5 49 -8 70 -6 38 2
53 -20 21 -32 -12 -5 -14 -15 -9 -48 7 -53 -8 -82 -29 -55 -16 21 -61 22 -78
2 -65 -77 -75 -85 -117 -85 -23 0 -49 5 -59 11 -16 10 -17 16 -8 43 6 17 15
36 19 43 8 13 -31 46 -45 37 -4 -3 -8 4 -8 16 0 20 35 59 54 60 4 0 17 11 28
25 24 30 33 31 78 4z m2205 -5 c14 -15 25 -30 25 -34 0 -9 47 -30 67 -30 9 0
32 -16 51 -36 30 -31 34 -40 26 -62 -5 -14 -18 -29 -29 -32 -11 -3 -33 -14
-48 -24 -25 -17 -34 -18 -78 -8 -49 12 -51 11 -82 -18 -30 -29 -36 -30 -101
-28 l-69 3 -47 55 c-41 47 -48 62 -52 109 -5 51 -4 54 25 70 16 9 39 26 50 39
19 20 29 22 129 22 105 0 110 -1 133 -26z m-1345 -10 c47 -8 100 -20 118 -25
20 -7 70 -8 128 -4 91 7 94 7 94 -14 0 -16 -6 -21 -28 -21 -15 0 -33 -5 -39
-11 -7 -7 -65 -12 -155 -12 -118 -2 -151 1 -188 17 -25 10 -63 23 -85 30 -22
6 -50 18 -63 26 -22 15 -22 15 20 26 46 13 66 12 198 -12z m-251 -51 c43 -50
51 -77 26 -87 -8 -3 -15 -17 -15 -30 0 -14 -14 -41 -31 -61 -28 -32 -36 -35
-85 -35 -42 0 -62 6 -96 29 -33 23 -47 27 -66 20 -13 -5 -34 -9 -47 -9 -27 0
-95 64 -94 89 1 31 35 76 62 81 15 3 36 13 47 22 15 14 43 18 127 21 59 1 113
4 120 5 6 1 30 -19 52 -45z m-315 22 c-10 -8 -29 -15 -41 -15 -13 0 -28 -13
-42 -36 -22 -37 -28 -84 -11 -84 6 0 10 -6 11 -12 0 -7 14 -24 30 -37 26 -20
38 -23 79 -18 41 5 55 2 85 -19 29 -19 49 -24 100 -24 63 0 64 1 103 45 22 25
45 45 51 45 7 0 27 11 45 25 18 14 42 25 54 25 11 0 23 4 26 8 3 5 34 5 68 0
58 -8 265 4 326 19 20 5 22 2 22 -40 0 -24 -3 -59 -6 -76 -6 -28 -10 -31 -45
-31 -20 0 -71 -4 -111 -10 -40 -5 -109 -11 -153 -14 -44 -2 -94 -7 -111 -11
-20 -4 -34 -3 -38 4 -13 20 -104 13 -128 -9 -20 -18 -36 -20 -155 -20 l-132 0
-16 29 c-8 16 -23 32 -34 36 -11 3 -36 19 -56 35 -21 17 -48 30 -62 30 -20 0
-22 -4 -17 -26 5 -18 1 -29 -12 -38 -15 -11 -25 -10 -66 7 -26 11 -48 23 -48
26 0 4 8 14 18 22 9 9 25 26 34 38 21 24 53 28 62 6 3 -8 12 -15 20 -15 22 0
39 38 33 75 -7 45 30 75 92 75 42 0 43 -1 25 -15z m1562 -30 c1 -40 -8 -43
-43 -15 -14 11 -35 20 -46 20 -33 0 -7 18 33 23 19 2 40 5 45 5 6 1 10 -14 11
-33z m-383 -16 c64 -5 141 -5 176 -1 34 5 64 5 67 0 3 -4 16 -8 28 -8 13 0 35
-9 49 -20 14 -11 32 -20 41 -20 9 0 19 -8 23 -17 3 -10 27 -42 52 -72 l45 -54
-39 7 c-53 10 -206 27 -280 31 -33 2 -115 9 -182 16 l-123 13 0 79 c0 69 2 78
15 67 8 -7 66 -16 128 -21z m-728 -20 c5 -6 2 -9 -9 -9 -10 0 -31 -11 -48 -25
-30 -26 -63 -36 -40 -13 16 16 15 38 -3 58 -15 16 -12 17 37 7 29 -5 57 -14
63 -18z m1840 -126 c4 -19 0 -32 -16 -49 -16 -17 -24 -40 -27 -79 l-4 -55 33
6 34 7 -25 -20 c-14 -11 -36 -26 -49 -33 -23 -12 -23 -11 -17 14 12 48 -5 138
-31 162 l-24 22 41 23 c22 12 40 26 40 30 0 19 39 -6 45 -28z m-2354 -16 c72
-50 80 -63 45 -69 -14 -3 -23 -1 -20 3 3 5 -10 9 -29 9 -42 0 -104 24 -88 34
6 4 11 20 11 37 0 16 4 29 9 29 5 0 37 -19 72 -43z m2195 36 c-4 -4 -27 -15
-51 -24 -50 -19 -51 -6 -2 15 35 16 65 20 53 9z m-876 -68 c136 -14 166 -23
304 -90 110 -53 202 -76 315 -78 l84 -2 0 40 c0 22 -3 57 -6 78 l-5 37 59 0
c39 0 73 7 98 19 l38 20 30 -28 c33 -30 47 -97 34 -161 -6 -33 -9 -35 -71 -46
-102 -20 -129 -18 -152 11 -19 24 -38 26 -38 3 0 -6 3 -8 7 -5 9 9 34 -13 27
-24 -8 -14 -82 -10 -149 7 -33 8 -120 24 -194 34 -73 11 -147 24 -165 29 -17
5 -58 12 -91 16 -33 3 -115 24 -183 46 -68 21 -132 39 -142 39 -17 0 -20 7
-20 44 l0 43 48 -9 c26 -5 103 -16 172 -23z m1193 23 c31 -15 33 -25 11 -56
-17 -24 -11 -44 13 -40 8 2 22 -7 30 -19 14 -21 14 -23 -5 -23 -31 0 -35 -16
-10 -35 l23 -17 -27 6 c-31 7 -44 -6 -23 -24 8 -7 15 -19 15 -26 0 -19 -27
-18 -34 2 -5 14 -9 14 -22 3 -16 -13 -39 -58 -36 -71 3 -11 -10 -10 -28 2 -15
9 -21 33 -20 80 0 14 -5 38 -11 53 -10 24 -17 28 -42 24 l-29 -4 5 48 c9 70
50 109 115 109 27 0 60 -6 75 -12z m-2833 -23 c14 -8 35 -14 48 -15 13 0 37
-7 53 -16 25 -13 30 -20 27 -47 -2 -24 -9 -33 -28 -37 -20 -5 -26 -15 -33 -50
-5 -25 -13 -49 -18 -54 -10 -11 -110 -8 -122 3 -4 4 4 16 18 25 33 21 23 39
-18 32 -26 -5 -28 -4 -11 3 34 15 38 30 9 41 -30 11 -29 33 1 38 44 7 46 10
29 41 -8 17 -15 35 -15 41 0 14 30 12 60 -5z m785 -25 c-22 -4 -47 -4 -55 1
-10 5 5 8 40 8 55 -1 55 -1 15 -9z m495 -38 l0 -38 -62 -11 c-35 -6 -102 -24
-149 -41 -47 -16 -110 -32 -141 -36 l-55 -7 -12 43 c-7 24 -14 48 -17 53 -7
16 64 36 166 46 52 5 113 13 135 18 22 5 61 9 88 10 l47 1 0 -38z m1046 -5 c6
-24 9 -48 6 -55 -5 -15 -134 -16 -199 -1 -27 6 -83 28 -127 48 l-78 36 188 5
c104 3 192 7 195 8 3 1 10 -17 15 -41z m-2096 18 c14 -8 48 -14 77 -15 63 0
83 -7 83 -29 0 -9 7 -26 15 -38 14 -19 12 -23 -20 -47 -19 -15 -35 -34 -35
-42 0 -32 -108 -8 -140 31 -7 8 -18 15 -25 15 -14 0 -27 48 -15 55 5 3 11 23
15 45 7 44 9 45 45 25z m420 -65 c0 -22 -6 -33 -22 -39 -48 -18 -121 -31 -175
-31 -53 0 -55 1 -40 18 13 15 14 19 1 36 -30 42 -21 46 111 46 l125 0 0 -30z
m100 25 c0 -5 -75 -45 -85 -45 -3 0 -5 11 -5 25 0 23 4 25 45 25 25 0 45 -2
45 -5z m105 -72 c6 -29 3 -34 -19 -43 -14 -5 -47 -12 -74 -16 -40 -5 -53 -3
-71 12 -11 10 -21 22 -21 26 0 4 27 19 60 34 33 15 65 33 72 41 10 12 14 11
29 -4 9 -10 20 -33 24 -50z m425 7 c0 -5 -4 -10 -9 -10 -5 0 -24 -15 -43 -34
-59 -59 -218 -88 -302 -54 l-39 16 52 11 c28 6 60 11 70 11 9 0 55 15 102 34
81 33 169 46 169 26z m180 -53 c14 -7 44 -19 68 -26 23 -8 42 -18 42 -22 0 -4
32 -24 70 -45 64 -33 70 -39 70 -68 1 -35 27 -71 62 -85 22 -10 22 -10 1 -10
-12 -1 -59 18 -105 42 -64 33 -101 61 -165 126 -96 98 -107 121 -43 88z m-600
-45 c0 -10 -13 -31 -29 -46 -29 -28 -29 -28 -57 -10 -53 34 -53 54 -1 55 18 0
41 4 52 9 30 13 35 12 35 -8z m1038 2 c18 -8 32 -19 32 -24 0 -5 14 -25 31
-45 29 -33 31 -38 19 -60 -7 -14 -22 -25 -32 -25 -10 0 -62 20 -115 45 -91 43
-95 46 -80 63 10 10 17 24 17 30 0 32 78 42 128 16z m-185 -10 c48 -6 49 -7
30 -25 -19 -19 -20 -19 -73 12 -33 18 -45 28 -30 25 14 -2 47 -8 73 -12z m924
-74 c3 -16 9 -30 13 -30 15 0 18 -28 8 -68 -9 -37 -13 -40 -52 -45 -23 -3 -49
-9 -58 -12 -21 -8 -71 44 -61 65 3 8 5 32 4 53 -1 32 1 37 21 37 13 0 34 7 48
14 44 25 70 20 77 -14z m-702 -100 c15 0 24 -4 20 -10 -8 -13 -136 -13 -170 0
-34 13 -64 49 -65 77 0 21 4 20 95 -23 52 -24 106 -44 120 -44z m-1849 21 c8
-11 22 -27 30 -36 20 -19 11 -63 -14 -72 -32 -11 -52 -36 -52 -65 0 -31 -19
-37 -44 -13 -8 8 -28 15 -45 15 -60 0 -81 58 -36 100 16 15 25 34 25 55 0 17
3 35 8 39 4 5 31 6 61 3 38 -4 57 -12 67 -26z m357 -16 c47 -46 56 -70 37
-106 -9 -15 -22 -19 -64 -19 -63 0 -82 16 -92 78 -6 39 -4 44 15 49 12 3 21
13 21 24 0 32 33 22 83 -26z m1975 -67 c7 -7 12 -35 12 -63 0 -51 -1 -52 -37
-63 -21 -7 -54 -13 -73 -14 l-35 -3 3 45 c4 64 7 70 47 70 28 0 35 4 35 20 0
23 29 27 48 8z"/>
<path d="M450 2585 c0 -8 2 -15 4 -15 2 0 6 7 10 15 3 8 1 15 -4 15 -6 0 -10
-7 -10 -15z"/>
</g>
</svg>
