<?xml version="1.0" standalone="no"?>
<!DOCTYPE svg PUBLIC "-//W3C//DTD SVG 20010904//EN"
 "http://www.w3.org/TR/2001/REC-SVG-20010904/DTD/svg10.dtd">
<svg version="1.0" xmlns="http://www.w3.org/2000/svg"
 width="238pt" height="648pt" viewBox="0 0 238 648"
 preserveAspectRatio="xMidYMid meet">
<metadata>
Created by potrace 1.8, written by Peter Selinger 2001-2007
</metadata>
<g transform="translate(0,648) scale(0.432000,-0.432000)"
fill="#000000" stroke="none">
<path d="M312 1178 c-6 -6 -12 -23 -12 -37 0 -20 -13 -34 -50 -60 -51 -34 -56
-51 -15 -51 56 0 34 -31 -53 -74 -56 -28 -59 -40 -15 -49 16 -4 35 -11 43 -17
13 -9 13 -11 0 -20 -8 -5 -31 -12 -52 -15 -58 -10 -66 -29 -23 -55 19 -12 35
-23 35 -25 0 -1 -32 -29 -71 -60 -66 -54 -70 -59 -54 -72 11 -7 31 -13 46 -13
17 0 32 -9 43 -25 l16 -25 -54 0 c-34 0 -58 -5 -65 -14 -14 -16 1 -28 53 -40
l29 -7 -52 -37 c-28 -20 -52 -41 -54 -46 -1 -5 13 -14 32 -21 48 -16 48 -29 1
-50 -22 -10 -40 -22 -40 -27 0 -4 50 -8 111 -8 102 0 111 -1 104 -17 -4 -10
-9 -46 -12 -80 l-6 -63 68 0 68 0 -6 63 c-3 34 -8 70 -12 80 -7 16 2 17 99 17
78 0 106 3 106 13 -1 17 -42 62 -65 71 -11 4 -3 -7 18 -24 20 -17 37 -36 37
-41 0 -5 -102 -9 -247 -9 l-248 1 38 20 c51 27 47 45 -16 65 l-29 10 56 38
c31 21 53 42 50 47 -2 5 -23 13 -45 19 -53 15 -40 30 25 30 29 0 56 3 59 6 14
14 -34 64 -61 64 -59 0 -55 15 17 74 39 31 71 59 71 61 0 2 -17 16 -37 29 -39
27 -39 27 34 46 23 6 45 16 49 22 9 14 -22 37 -60 45 -29 6 -29 6 20 31 68 34
97 61 83 79 -6 7 -23 13 -38 13 -23 0 -21 4 27 37 41 29 52 42 52 64 0 15 4
30 9 33 12 8 21 -18 14 -42 -3 -15 7 -28 42 -53 l48 -34 -34 -3 c-75 -8 -70
-38 12 -73 54 -24 83 -49 55 -49 -9 0 -35 -10 -58 -21 l-42 -21 25 -19 c13
-10 39 -24 57 -30 l33 -11 -43 -21 c-24 -12 -42 -26 -41 -32 1 -5 20 -13 42
-17 23 -4 48 -11 57 -16 13 -7 10 -12 -19 -25 -19 -9 -40 -23 -47 -32 -10 -12
-9 -16 6 -21 43 -15 104 -43 104 -48 0 -10 -58 -36 -79 -36 -40 0 -30 -20 29
-61 33 -24 58 -44 57 -45 -1 -2 -22 -4 -45 -5 -24 -2 -48 -10 -55 -18 -10 -14
-10 -14 3 -4 17 13 17 13 70 13 22 0 40 4 40 9 0 6 -28 29 -61 53 l-62 43 31
6 c18 4 44 14 59 24 l27 18 -23 18 c-13 10 -40 24 -62 30 -31 10 -37 15 -28
26 6 7 17 13 23 13 6 0 22 9 35 19 l24 19 -22 11 c-12 7 -41 16 -64 20 l-42 8
48 22 c26 12 47 24 47 26 0 3 -26 17 -57 31 l-57 27 40 18 c21 10 47 20 58 23
27 9 4 32 -63 65 -30 14 -55 31 -56 36 0 6 16 11 35 13 54 5 55 17 5 53 -36
26 -45 38 -41 54 8 30 -15 60 -32 43z m-3 -885 c6 -21 11 -55 11 -75 l0 -38
-56 0 -57 0 6 58 c9 84 14 92 53 92 30 0 34 -4 43 -37z"/>
</g>
</svg>
