<?xml version="1.0" standalone="no"?>
<!DOCTYPE svg PUBLIC "-//W3C//DTD SVG 20010904//EN"
 "http://www.w3.org/TR/2001/REC-SVG-20010904/DTD/svg10.dtd">
<svg version="1.0" xmlns="http://www.w3.org/2000/svg"
 width="468pt" height="334pt" viewBox="0 0 468 334"
 preserveAspectRatio="xMidYMid meet">
<metadata>
Created by potrace 1.8, written by Peter Selinger 2001-2007
</metadata>
<g transform="translate(0,334) scale(0.709091,-0.709091)"
fill="#000000" stroke="none">
<path d="M214 339 c-3 -6 4 -24 16 -41 31 -43 17 -46 -17 -4 -30 39 -47 45
-57 21 -3 -8 -1 -15 5 -15 6 0 7 -4 4 -10 -3 -5 0 -10 7 -10 9 0 9 -3 -2 -10
-13 -8 -13 -10 1 -10 19 0 52 -34 43 -43 -4 -4 -20 5 -36 18 -31 27 -72 33
-84 13 -4 -6 -2 -14 4 -16 7 -2 10 -8 7 -13 -4 -5 2 -6 11 -2 14 5 16 3 11
-11 -5 -11 -3 -15 5 -10 7 5 9 2 5 -8 -3 -10 0 -15 11 -14 10 0 16 -5 14 -14
-2 -8 -1 -12 3 -8 4 4 13 2 19 -5 10 -9 5 -16 -23 -30 -35 -19 -51 -34 -51
-49 0 -5 95 -8 210 -8 173 0 210 2 210 14 0 14 -63 32 -78 22 -4 -3 -14 -1
-22 4 -12 7 -9 11 10 18 16 6 29 6 38 -1 9 -7 11 -6 6 7 -8 21 5 21 23 -1 8
-10 12 -12 8 -5 -4 8 3 12 24 12 39 0 39 14 1 37 -16 9 -30 22 -30 28 0 5 -4
4 -9 -3 -6 -11 -11 -10 -25 3 -9 9 -16 12 -16 6 0 -6 -11 -13 -25 -17 -14 -3
-32 -15 -39 -26 -8 -11 -17 -15 -20 -10 -7 11 59 73 69 64 3 -3 3 2 -1 12 -5
13 -4 17 4 12 8 -5 10 -1 5 10 -4 11 -2 15 4 11 6 -4 8 3 5 18 -3 19 -10 24
-32 22 -16 -1 -28 -6 -27 -12 1 -5 -4 -9 -10 -7 -7 1 -12 -4 -10 -10 1 -7 -6
-12 -15 -12 -10 1 -14 -4 -11 -12 3 -9 -2 -14 -12 -14 -12 0 -16 6 -12 20 3
11 0 18 -7 17 -6 -1 -10 4 -8 11 1 6 -4 11 -10 10 -7 -2 -12 3 -10 10 1 8 -2
11 -9 6 -9 -5 -10 -2 -6 9 4 12 2 14 -10 10 -12 -5 -15 -2 -11 8 7 18 -37 25
-48 8z m106 -106 c12 -30 21 -29 61 7 37 33 69 54 69 45 0 -17 -36 -71 -61
-92 -16 -14 -29 -31 -29 -39 0 -22 31 -30 41 -11 12 21 67 48 75 36 3 -5 13
-9 22 -9 9 0 26 -8 37 -16 19 -15 19 -16 -14 -12 -32 5 -92 -10 -108 -26 -11
-11 25 -35 45 -29 10 2 28 0 42 -6 18 -7 -33 -10 -179 -10 -178 -1 -202 1
-191 14 6 8 27 20 46 27 19 6 34 16 34 21 0 5 -16 25 -35 44 -19 19 -35 39
-35 44 0 5 -6 9 -14 9 -8 0 -18 5 -21 10 -12 19 32 10 68 -14 28 -20 38 -22
46 -12 8 10 6 20 -7 37 -44 57 -40 70 7 19 38 -42 53 -52 62 -43 9 9 4 21 -20
51 -17 22 -31 46 -31 53 0 17 78 -68 90 -98z m-44 0 c-7 -7 -26 7 -26 19 0 6
6 6 15 -2 9 -7 13 -15 11 -17z"/>
</g>
</svg>
