<?xml version="1.0" standalone="no"?>
<!DOCTYPE svg PUBLIC "-//W3C//DTD SVG 20010904//EN"
 "http://www.w3.org/TR/2001/REC-SVG-20010904/DTD/svg10.dtd">
<svg version="1.0" xmlns="http://www.w3.org/2000/svg"
 width="468pt" height="280pt" viewBox="0 0 468 280"
 preserveAspectRatio="xMidYMid meet">
<metadata>
Created by potrace 1.8, written by Peter Selinger 2001-2007
</metadata>
<g transform="translate(0,280) scale(0.124138,-0.124138)"
fill="#000000" stroke="none">
<path d="M2717 383 c-8 -16 -6 -133 3 -133 5 0 9 32 9 70 0 67 -3 79 -12 63z"/>
<path d="M2636 372 c-4 -6 5 -29 19 -51 14 -23 25 -47 25 -56 0 -8 5 -15 10
-15 19 0 10 40 -19 86 -16 26 -31 42 -35 36z"/>
<path d="M2787 369 c-34 -20 -65 -119 -37 -119 6 0 10 10 10 23 0 26 35 87 50
87 5 0 10 5 10 10 0 13 -10 12 -33 -1z"/>
<path d="M2802 317 c-31 -32 -42 -67 -22 -67 6 0 10 6 10 13 0 7 14 26 30 42
30 28 38 45 22 45 -4 0 -22 -15 -40 -33z"/>
</g>
</svg>
